<?xml version="1.0" encoding="utf-8"?>
<!-- Generator: Adobe Illustrator 21.0.2, SVG Export Plug-In . SVG Version: 6.00 Build 0)  -->
<svg version="1.1" id="Layer_1" xmlns="http://www.w3.org/2000/svg" xmlns:xlink="http://www.w3.org/1999/xlink" x="0px" y="0px"
	 viewBox="0 0 100 100" style="enable-background:new 0 0 100 100;" xml:space="preserve">
<g>
	<path d="M82.8,39c-0.7-0.3-1.5-0.2-2.1,0.3L72,46.6V35.3l10.8-4.8c0.7-0.3,1.1-1,1.2-1.7c0-0.8-0.4-1.5-1-1.8l-11.8-6.5
		c-0.5-1.1-1.1-2.2-1.9-3.1l4.5-1.8c0.7-0.2,1.1-0.8,1.2-1.5c0.1-0.7-0.1-1.4-0.6-1.9l-2.5-2.3c-5.1-4.7-12.3-6-18.8-3.5
		c-6.5,2.5-10.9,8.4-11.5,15.2L41.3,25c-0.1,0.7,0.2,1.4,0.8,1.8c0.4,0.3,0.8,0.4,1.2,0.4c0.2,0,0.5-0.1,0.7-0.1l3.7-1.5
		c0.1,0,0.2-0.1,0.3-0.1v4.7c0,1.5-0.4,3.9-1,5l-3.7,6.1l-1.9-1.8C41,39,40.5,38.8,40,38.8c-0.5,0-1.1,0.2-1.4,0.7l-7.8,8.6
		l-11.5-8.9c-0.6-0.5-1.4-0.5-2.1-0.2c-0.7,0.3-1.1,1-1.1,1.8v20c0,18.8,15.2,34,34,34s34-15.2,34-34v-20C84,40.1,83.5,39.4,82.8,39
		z M72,25.5l5.5,3L72,30.9V25.5z M45.8,22.1l-0.3,0.1l0-0.2c0.5-5.4,4-9.9,9-11.9c1.7-0.6,3.4-1,5.2-1c3.4,0,6.8,1.3,9.5,3.7
		l0.1,0.1l-2,0.8l-4.2-1.2c-0.7-0.2-1.5,0-2,0.6l-3.8,4.2l-5.7-0.5C51,16.8,50.4,17,50,17.5L45.8,22.1z M50.4,37.2
		c1.1-1.9,1.6-5,1.6-7v-5c0-1.5,0.4-3,1.1-4.2l4.9,0.5c0.6,0.1,1.2-0.2,1.7-0.6l3.1-3.4c1,0.4,1.9,0.9,2.7,1.7
		c1.6,1.5,2.5,3.6,2.5,5.8v20.8l-5.5-6.1c-0.4-0.4-0.9-0.6-1.4-0.7c-0.5,0-1,0.2-1.4,0.5l-9.6,8.7l-3.9-3.9L50.4,37.2z M80,60.8
		c0,16.5-13.5,30-30,30s-30-13.5-30-30V44.9l9.8,7.5c0.8,0.6,2,0.5,2.7-0.2l7.6-8.4l8.5,8.5c0.8,0.8,2,0.8,2.8,0.1l9.5-8.7l7.7,8.5
		c0.7,0.8,1.9,0.9,2.8,0.2l8.7-7.3V60.8z"/>
	<circle cx="62" cy="23.8" r="2"/>
	<path d="M30,59.2v-0.4c0-1.1-0.9-2-2-2s-2,0.9-2,2v0.4c0,7.3,3.2,14.3,8.7,19.1c0.4,0.3,0.9,0.5,1.3,0.5c0.6,0,1.1-0.2,1.5-0.7
		c0.7-0.8,0.6-2.1-0.2-2.8C32.7,71.3,30,65.4,30,59.2z"/>
</g>
</svg>
