<?xml version="1.0" encoding="utf-8"?>
<!-- Generator: Adobe Illustrator 21.0.2, SVG Export Plug-In . SVG Version: 6.00 Build 0)  -->
<svg version="1.1" id="Layer_1" xmlns="http://www.w3.org/2000/svg" xmlns:xlink="http://www.w3.org/1999/xlink" x="0px" y="0px"
	 viewBox="0 0 100 100" style="enable-background:new 0 0 100 100;" xml:space="preserve">
<g>
	<path d="M92.4,60.1c-1-0.4-2.2,0.1-2.6,1.1l-1.2,2.8l-10.2-4.3c1.4-4.2,2-8.8,1.4-13.5c-0.2-1.9-0.7-3.9-1.3-5.7l10.2-4.2l1.1,2.8
		c0.3,0.8,1.1,1.2,1.8,1.2c0.2,0,0.5-0.1,0.8-0.2c1-0.4,1.5-1.6,1.1-2.6l-1.9-4.6c0,0,0,0,0,0l-1.9-4.6c-0.4-1-1.6-1.5-2.6-1.1
		c-1,0.4-1.5,1.6-1.1,2.6l1.1,2.8l-10.2,4.2c-2-4.1-4.9-7.7-8.6-10.5c-1.6-1.2-3.2-2.2-5-3.1l4.2-10.2l2.8,1.1
		c0.2,0.1,0.5,0.2,0.8,0.2c0.8,0,1.5-0.5,1.9-1.2c0.4-1-0.1-2.2-1.1-2.6l-4.6-1.9c0,0,0,0,0,0l-4.6-1.9c-1-0.4-2.2,0.1-2.6,1.1
		c-0.4,1,0,2.2,1.1,2.6l2.8,1.2l-4.2,10.2c-4.3-1.5-8.9-2-13.5-1.3c-2,0.2-3.9,0.7-5.7,1.3l-4.2-10.2l2.8-1.1c1-0.4,1.5-1.6,1.1-2.6
		c-0.4-1-1.6-1.5-2.6-1.1l-9.2,3.8c-1,0.4-1.5,1.6-1.1,2.6c0.3,0.8,1.1,1.2,1.9,1.2c0.2,0,0.5-0.1,0.8-0.2l2.8-1.1l4.2,10.2
		c-4.1,2-7.7,4.9-10.5,8.6c-1.2,1.6-2.2,3.2-3.1,5l-10.2-4.2l1.2-2.8c0.4-1,0-2.2-1.1-2.6c-1-0.4-2.2,0.1-2.6,1.1l-3.9,9.2
		c-0.4,1,0.1,2.2,1.1,2.6c0.2,0.1,0.5,0.2,0.8,0.2c0.8,0,1.5-0.5,1.8-1.2l1.2-2.8l10.2,4.2c-1.5,4.3-1.9,8.9-1.3,13.5
		c0.2,2,0.7,3.9,1.3,5.7l-10.2,4.2L10.2,61c-0.4-1-1.6-1.5-2.6-1.1c-1,0.4-1.5,1.6-1.1,2.6l3.8,9.2c0.3,0.8,1.1,1.2,1.9,1.2
		c0.2,0,0.5,0,0.8-0.2c1-0.4,1.5-1.6,1.1-2.6l-1.1-2.8l10.2-4.2c2.9,5.9,7.7,10.7,13.6,13.6l-4.3,10.2l-2.8-1.2
		c-1-0.4-2.2,0-2.6,1.1c-0.4,1,0.1,2.2,1.1,2.6l4.6,1.9c0,0,0,0,0,0l4.6,1.9c0.2,0.1,0.5,0.2,0.8,0.2c0.8,0,1.5-0.5,1.8-1.2
		c0.4-1,0-2.2-1.1-2.6l-2.8-1.2l4.3-10.2c3,1,6.3,1.6,9.6,1.6c1.3,0,2.6-0.1,3.9-0.2c2-0.2,3.9-0.7,5.7-1.3l4.2,10.2L61,89.8
		c-1,0.4-1.5,1.6-1.1,2.6c0.3,0.8,1.1,1.2,1.8,1.2c0.2,0,0.5,0,0.8-0.2l4.6-1.9c0,0,0,0,0,0l4.6-1.9c1-0.4,1.5-1.6,1.1-2.6
		c-0.4-1-1.6-1.5-2.6-1.1l-2.8,1.1l-4.2-10.2c5.9-2.9,10.7-7.7,13.6-13.5l10.2,4.3l-1.2,2.8c-0.4,1,0,2.2,1.1,2.6
		c0.3,0.1,0.5,0.1,0.8,0.1c0.8,0,1.5-0.5,1.8-1.2l1.9-4.6c0,0,0,0,0,0l1.9-4.6C93.9,61.7,93.4,60.5,92.4,60.1z M73.1,38
		c0.7,1.4,1.3,2.8,1.8,4.3c-0.3,0.6-0.8,1-1.5,1.3c-0.8,0.3-1.6,0.3-2.3,0c-0.7-0.3-1.3-0.9-1.6-1.6c-0.3-0.7-0.3-1.6,0-2.3
		C70.1,38.3,71.6,37.6,73.1,38z M53.3,75.8C39.1,77.6,26,67.5,24.2,53.3c-0.9-6.9,1-13.7,5.2-19.2c4.2-5.5,10.4-9,17.3-9.9
		c6.9-0.9,13.7,1,19.2,5.2c1.8,1.4,3.3,3,4.7,4.7c-2.1,0.5-3.9,2-4.8,4.1c-0.7,1.7-0.7,3.6,0,5.3c0.7,1.7,2,3.1,3.8,3.8
		c0.9,0.4,1.8,0.5,2.7,0.5c0.9,0,1.8-0.2,2.7-0.5c0.3-0.1,0.6-0.3,0.9-0.5C77.5,61,67.5,74,53.3,75.8z"/>
	<path d="M50.3,41.5c0.8,0.3,1.5,0.5,2.3,0.5c2.3,0,4.6-1.4,5.5-3.7c0.3-0.8,0.5-1.5,0.5-2.3c0-2.4-1.4-4.6-3.7-5.5
		c-3-1.3-6.6,0.2-7.9,3.2C45.8,36.7,47.3,40.2,50.3,41.5z M50.8,35.2c0.3-0.8,1.1-1.2,1.9-1.2c0.2,0,0.5,0,0.8,0.1
		c1,0.4,1.5,1.6,1.1,2.6c-0.4,1-1.6,1.5-2.6,1.1C50.8,37.3,50.4,36.2,50.8,35.2z"/>
	<path d="M57.9,54.4c-2.2-0.9-4.7-0.9-6.9,0c-2.2,0.9-4,2.6-4.9,4.8c-0.9,2.2-0.9,4.7,0,6.9c0.9,2.2,2.6,4,4.9,4.9
		c1.1,0.5,2.3,0.7,3.5,0.7c3.5,0,6.9-2.1,8.3-5.5C64.7,61.6,62.5,56.3,57.9,54.4z M59,64.6c-0.5,1.2-1.5,2.2-2.7,2.7
		c-1.2,0.5-2.6,0.5-3.8,0c-1.2-0.5-2.2-1.5-2.7-2.7c-0.5-1.2-0.5-2.6,0-3.8c0.5-1.2,1.5-2.2,2.7-2.7c0.6-0.2,1.2-0.4,1.9-0.4
		s1.3,0.1,1.9,0.4c1.2,0.5,2.2,1.5,2.7,2.7C59.6,62,59.6,63.4,59,64.6z"/>
	<path d="M37.9,42.8c-1.7-0.7-3.6-0.7-5.4,0c-1.7,0.7-3.1,2-3.8,3.8c-1.5,3.6,0.2,7.7,3.8,9.2c0.9,0.4,1.8,0.5,2.7,0.5
		c2.7,0,5.3-1.6,6.5-4.3c0.4-0.9,0.5-1.8,0.5-2.7C42.2,46.5,40.5,43.9,37.9,42.8z M37.9,50.4c-0.3,0.7-0.9,1.3-1.6,1.6
		c-0.7,0.3-1.6,0.3-2.3,0c-0.7-0.3-1.3-0.9-1.6-1.6s-0.3-1.6,0-2.3s0.9-1.3,1.6-1.6c0.4-0.2,0.8-0.2,1.1-0.2c0.4,0,0.8,0.1,1.2,0.2
		C37.8,47.1,38.6,48.8,37.9,50.4z"/>
	<path d="M57.8,46.8c-0.4,1,0.1,2.2,1.1,2.6c1,0.4,2.2,0,2.6-1.1c0.4-1,0-2.2-1.1-2.6C59.5,45.3,58.3,45.8,57.8,46.8z"/>
	<path d="M37.4,36c1,0.4,2.2,0,2.6-1.1c0.4-1-0.1-2.2-1.1-2.6c-1-0.4-2.2,0.1-2.6,1.1C35.9,34.5,36.4,35.6,37.4,36z"/>
	<path d="M38.3,62.4c-1-0.4-2.2,0-2.6,1.1c-0.4,1,0,2.2,1.1,2.6c1,0.4,2.2-0.1,2.6-1.1C39.8,64,39.3,62.9,38.3,62.4z"/>
</g>
</svg>
