<?xml version="1.0" encoding="utf-8"?>
<!-- Generator: Adobe Illustrator 21.0.2, SVG Export Plug-In . SVG Version: 6.00 Build 0)  -->
<svg version="1.1" id="Layer_1" xmlns="http://www.w3.org/2000/svg" xmlns:xlink="http://www.w3.org/1999/xlink" x="0px" y="0px"
	 viewBox="0 0 100 100" style="enable-background:new 0 0 100 100;" xml:space="preserve">
<g>
	<path d="M83,48c0,0-0.1,0-0.1,0c-1.9-5.2-5-9.9-9-13.6c0.8-1,1.2-2.2,1.2-3.6V19.2c0-2-1-3.9-2.7-5c-1.7-1.1-3.8-1.3-5.7-0.5
		L55,18.8c-1.4-1.1-3.1-1.8-5-1.8s-3.7,0.7-5,1.8l-11.5-5.1c-1.9-0.8-4-0.7-5.7,0.5c-1.7,1.1-2.7,3-2.7,5v11.7
		c0,1.3,0.4,2.5,1.2,3.6c-4,3.7-7.1,8.4-9,13.6c0,0-0.1,0-0.1,0c-6.6,0-12,5.4-12,12s5.4,12,12,12c0,0,0.1,0,0.1,0
		C22,85.4,34.9,95,50,95s28-9.6,32.9-23c0,0,0.1,0,0.1,0c6.6,0,12-5.4,12-12S89.6,48,83,48z M15.9,67.9C12,67.4,9,64,9,60
		c0-4,3-7.4,6.9-7.9C15.3,54.6,15,57.3,15,60C15,62.7,15.3,65.4,15.9,67.9z M62,23h-4.3c-0.1-0.3-0.2-0.6-0.3-0.9l10.7-4.8
		c0.6-0.3,1.3-0.2,1.9,0.2c0.6,0.4,0.9,1,0.9,1.7v11.7c0,0.7-0.3,1.3-0.9,1.7c-0.6,0.4-1.3,0.4-1.9,0.2l-10.7-4.8
		c0.1-0.3,0.2-0.6,0.3-0.9H62c1.1,0,2-0.9,2-2C64,23.9,63.1,23,62,23z M50,21c2.2,0,4,1.8,4,4c0,2.2-1.8,4-4,4s-4-1.8-4-4
		C46,22.8,47.8,21,50,21z M29,19.2c0-0.7,0.3-1.3,0.9-1.7c0.3-0.2,0.7-0.3,1.1-0.3c0.3,0,0.6,0.1,0.8,0.2l10.7,4.8
		c-0.1,0.3-0.2,0.6-0.3,0.9H38c-1.1,0-2,0.9-2,2c0,1.1,0.9,2,2,2h4.3c0.1,0.3,0.2,0.6,0.3,0.9l-10.7,4.8c-0.6,0.3-1.3,0.2-1.9-0.2
		c-0.6-0.4-0.9-1-0.9-1.7V19.2z M50,91c-17.1,0-31-13.9-31-31c0-9.3,4.1-17.6,10.6-23.3c0.5,0.1,0.9,0.2,1.4,0.2
		c0.8,0,1.7-0.2,2.4-0.5L45,31.2c1.4,1.1,3.1,1.8,5,1.8s3.7-0.7,5-1.8l11.5,5.1c0.8,0.4,1.6,0.5,2.4,0.5c0.5,0,0.9-0.1,1.4-0.2
		C76.9,42.4,81,50.7,81,60C81,77.1,67.1,91,50,91z M84.1,67.9c0.6-2.5,0.9-5.2,0.9-7.9c0-2.7-0.3-5.4-0.9-7.9C88,52.6,91,56,91,60
		C91,64,88,67.4,84.1,67.9z"/>
	<path d="M59,72c-1.1,0-2,0.9-2,2c0,3.9-3.1,7-7,7s-7-3.1-7-7c0-1.1-0.9-2-2-2s-2,0.9-2,2c0,6.1,4.9,11,11,11s11-4.9,11-11
		C61,72.9,60.1,72,59,72z"/>
	<path d="M43,53c0-1.1-0.9-2-2-2s-2,0.9-2,2c0,2.8-2.2,5-5,5s-5-2.2-5-5c0-1.1-0.9-2-2-2s-2,0.9-2,2c0,5,4,9,9,9S43,58,43,53z"/>
	<path d="M66,58c-2.8,0-5-2.2-5-5c0-1.1-0.9-2-2-2s-2,0.9-2,2c0,5,4,9,9,9s9-4,9-9c0-1.1-0.9-2-2-2s-2,0.9-2,2
		C71,55.8,68.8,58,66,58z"/>
	<path d="M83,9h5.7l-7.3,8.7c-0.5,0.6-0.6,1.4-0.3,2.1c0.3,0.7,1,1.2,1.8,1.2h10c1.1,0,2-0.9,2-2s-0.9-2-2-2h-5.7l7.3-8.7
		c0.5-0.6,0.6-1.4,0.3-2.1C94.5,5.4,93.8,5,93,5H83c-1.1,0-2,0.9-2,2S81.9,9,83,9z"/>
	<path d="M83,31h2l-3.6,4.8c-0.5,0.6-0.5,1.4-0.2,2.1c0.3,0.7,1,1.1,1.8,1.1h6c1.1,0,2-0.9,2-2s-0.9-2-2-2h-2l3.6-4.8
		c0.5-0.6,0.5-1.4,0.2-2.1c-0.3-0.7-1-1.1-1.8-1.1h-6c-1.1,0-2,0.9-2,2S81.9,31,83,31z"/>
</g>
</svg>
