<?xml version="1.0" encoding="utf-8"?>
<!-- Generator: Adobe Illustrator 21.0.2, SVG Export Plug-In . SVG Version: 6.00 Build 0)  -->
<svg version="1.1" id="Layer_1" xmlns="http://www.w3.org/2000/svg" xmlns:xlink="http://www.w3.org/1999/xlink" x="0px" y="0px"
	 viewBox="0 0 100 100" style="enable-background:new 0 0 100 100;" xml:space="preserve">
<g>
	<path d="M79,21C65.1,7.1,43.2,5,27,16c-0.4,0.3-1,0.5-1.6,0.4c-0.4-0.1-0.8-0.3-1.1-0.6l-1.9-1.9l-0.8,5.9l-0.3,2.4l-0.7,4.8
		l3.3-0.5l0.8-0.1h0l9-1.3l-2.1-2.1c-0.4-0.4-0.6-1-0.6-1.7c0.1-0.6,0.4-1.2,1-1.5c13.8-8.3,31.4-6.1,42.8,5.3
		c12.8,12.8,13.7,33.6,2,47.4c0,0.1-0.1,0.1-0.1,0.2c-2.5,2.9-5.3,5.3-8.6,7.2c-5.6,3.4-11.8,5-18,5c-9,0-18-3.5-24.8-10.3
		c-11.7-11.7-13.4-30-4.8-43.6l-2,0.3c-0.1,0-0.2,0-0.3,0c-0.5,0-1-0.2-1.4-0.6c-0.5-0.5-0.7-1.1-0.6-1.7l0.4-3
		C11.7,33.1,9,41.3,9,50c0,11,4.3,21.2,12,29c13.9,13.9,35.8,16,52.1,4.9c0,0,0.1-0.1,0.1-0.1c2.1-1.4,4-3,5.8-4.8
		c0,0,0.1-0.1,0.1-0.1C95,62.9,94.9,37,79,21z"/>
	<path d="M38.3,28.6L26,30.4c-10,12.2-9.1,30.3,2.1,41.5C38.2,82,53.7,83.9,66,76.6c2.8-1.7,5.3-3.8,7.5-6.3c0,0,0.1-0.1,0.1-0.1
		C84,58,83.3,39.5,71.9,28.1c-9.5-9.5-23.8-11.7-35.6-5.9l3.1,3.1c0.5,0.5,0.7,1.3,0.5,2C39.6,28,39,28.5,38.3,28.6z M48,44.4V30
		c0-1.1,0.9-2,2-2s2,0.9,2,2v14.4c1.8,0.8,3,2.5,3,4.6c0,0.6-0.1,1.2-0.3,1.8l4.7,4.7l3,3.1c0.8,0.8,0.8,2,0,2.8
		C62,61.8,61.5,62,61,62s-1-0.2-1.4-0.6l-7.8-7.8C51.2,53.9,50.6,54,50,54c-2.8,0-5-2.2-5-5C45,47,46.2,45.2,48,44.4z"/>
</g>
</svg>
