<?xml version="1.0" encoding="utf-8"?>
<!-- Generator: Adobe Illustrator 21.0.2, SVG Export Plug-In . SVG Version: 6.00 Build 0)  -->
<svg version="1.1" id="Layer_1" xmlns="http://www.w3.org/2000/svg" xmlns:xlink="http://www.w3.org/1999/xlink" x="0px" y="0px"
	 viewBox="0 0 100 100" style="enable-background:new 0 0 100 100;" xml:space="preserve">
<g>
	<path d="M81.8,18.2C66.9,3.3,43.7,0.8,26.1,11.9l-3.6-3.6c-0.5-0.5-1.3-0.7-2-0.5C19.7,8,19.2,8.7,19,9.4l-1.3,9.2
		C9.5,27.1,5,38.2,5,50c0,12,4.7,23.3,13.2,31.8C26.9,90.5,38.4,95,50,95c8.7,0,17.5-2.5,25.2-7.7c0,0,0.1-0.1,0.1-0.1
		c2.3-1.5,4.4-3.3,6.4-5.2c0,0,0.1-0.1,0.1-0.1C99.4,64.3,99.4,35.7,81.8,18.2z M79.1,78.9c0,0-0.1,0.1-0.1,0.1
		c-1.8,1.8-3.7,3.4-5.8,4.8c0,0-0.1,0-0.1,0.1C56.8,95,35,92.9,21,79C13.3,71.2,9,61,9,50c0-8.7,2.7-16.9,7.6-23.8l-0.4,3
		c-0.1,0.6,0.1,1.2,0.6,1.7c0.4,0.4,0.9,0.6,1.4,0.6c0.1,0,0.2,0,0.3,0l2-0.3c-8.7,13.6-6.9,31.9,4.8,43.6C32,81.5,41,85,50,85
		c6.2,0,12.4-1.6,18-5c3.2-1.9,6.1-4.4,8.6-7.2c0,0,0.1-0.1,0.1-0.2c11.7-13.8,10.9-34.6-2-47.4C63.4,13.9,45.8,11.7,32,20
		c-0.5,0.3-0.9,0.9-1,1.5c-0.1,0.6,0.1,1.2,0.6,1.7l2.1,2.1l-9,1.3h0l-4.1,0.6l1-7.3l0.8-5.9l1.9,1.9c0.3,0.3,0.7,0.5,1.1,0.6
		c0.6,0.1,1.1,0,1.6-0.4c16.2-11,38.1-8.9,52,5C95,37,95,62.9,79.1,78.9z M39.4,25.3l-3.1-3.1c11.8-5.8,26.1-3.6,35.6,5.9
		C83.3,39.5,84,58,73.5,70.2c0,0-0.1,0.1-0.1,0.2c-2.1,2.5-4.7,4.6-7.5,6.3c-12.2,7.3-27.8,5.4-37.9-4.7C16.9,60.7,16,42.6,26,30.4
		l12.3-1.8c0.8-0.1,1.4-0.6,1.6-1.3C40.1,26.6,39.9,25.8,39.4,25.3z"/>
	<path d="M50,56c1.2,0,2.3-0.3,3.3-0.9l6.3,6.3C60,61.8,60.5,62,61,62s1-0.2,1.4-0.6c0.8-0.8,0.8-2,0-2.8l-6.3-6.2
		c0.5-1,0.8-2.1,0.8-3.3c0-3.2-2.1-5.8-5-6.7V30c0-1.1-0.9-2-2-2c-1.1,0-2,0.9-2,2v12.3c-2.9,0.9-5,3.5-5,6.7C43,52.9,46.2,56,50,56
		z M50,46c1.7,0,3,1.3,3,3c0,1.6-1.3,3-3,3c-1.7,0-3-1.4-3-3C47,47.3,48.4,46,50,46z"/>
</g>
</svg>
