<?xml version="1.0" encoding="utf-8"?>
<!-- Generator: Adobe Illustrator 21.0.2, SVG Export Plug-In . SVG Version: 6.00 Build 0)  -->
<svg version="1.1" id="Layer_1" xmlns="http://www.w3.org/2000/svg" xmlns:xlink="http://www.w3.org/1999/xlink" x="0px" y="0px"
	 viewBox="0 0 100 100" style="enable-background:new 0 0 100 100;" xml:space="preserve">
<path d="M77.3,29.7C74.4,26.8,70.4,25,66,25H53l1.5-13.6c0.3-2.4-1.6-4.4-4-4.4h-1.1c-2.4,0-4.2,2.1-4,4.4L47,25H34
	c-8.8,0-16,7.2-16,16c0,1.1,0.5,2.1,1.2,2.8c0.7,0.7,1.7,1.2,2.8,1.2v7.4c0,12.9,6.2,25,16.8,32.5L50,93l11.2-8
	C71.8,77.5,78,65.3,78,52.4V45c2.2,0,4-1.8,4-4C82,36.6,80.2,32.6,77.3,29.7z M45,35c-1.1,0-2-0.9-2-2c0-1.1,0.9-2,2-2s2,0.9,2,2
	C47,34.1,46.1,35,45,35z M53,39c-1.1,0-2-0.9-2-2c0-1.1,0.9-2,2-2s2,0.9,2,2C55,38.1,54.1,39,53,39z M61,35c-1.1,0-2-0.9-2-2
	c0-1.1,0.9-2,2-2s2,0.9,2,2C63,34.1,62.1,35,61,35z M69,39c-1.1,0-2-0.9-2-2c0-1.1,0.9-2,2-2s2,0.9,2,2C71,38.1,70.1,39,69,39z"/>
</svg>
