<?xml version="1.0" encoding="utf-8"?>
<!-- Generator: Adobe Illustrator 21.0.2, SVG Export Plug-In . SVG Version: 6.00 Build 0)  -->
<svg version="1.1" id="Layer_1" xmlns="http://www.w3.org/2000/svg" xmlns:xlink="http://www.w3.org/1999/xlink" x="0px" y="0px"
	 viewBox="0 0 100 100" style="enable-background:new 0 0 100 100;" xml:space="preserve">
<g>
	<path d="M66,23H55.2l1.3-11.3C56.7,10,56.1,8.3,55,7c-1.1-1.3-2.8-2-4.5-2h-1.1c-1.7,0-3.3,0.7-4.5,2c-1.1,1.3-1.7,3-1.5,4.7
		L44.8,23H34c-9.9,0-18,8.1-18,18c0,2.6,1.7,4.8,4,5.6v5.8c0,13.5,6.6,26.3,17.6,34.2l11.2,8c0.3,0.2,0.8,0.4,1.2,0.4
		s0.8-0.1,1.2-0.4l11.2-8c5.5-3.9,9.9-9.1,12.9-15c3-5.9,4.7-12.5,4.7-19.2v-5.8c2.3-0.8,4-3,4-5.6C84,31.1,75.9,23,66,23z M48,9.7
		C48.4,9.2,48.9,9,49.5,9h1.1c0.6,0,1.1,0.2,1.5,0.7c0.4,0.4,0.6,1,0.5,1.5L51.2,23h-2.4l-1.3-11.8C47.4,10.6,47.6,10.1,48,9.7z
		 M76,52.4c0,12.2-6,23.8-15.9,30.9L50,90.5l-10.1-7.2C30,76.2,24,64.7,24,52.4V47h52V52.4z M78,43H22c-1.1,0-2-0.9-2-2
		c0-7.7,6.3-14,14-14h32c7.7,0,14,6.3,14,14C80,42.1,79.1,43,78,43z"/>
	<circle cx="69" cy="37" r="2"/>
	<circle cx="53" cy="37" r="2"/>
	<circle cx="45" cy="33" r="2"/>
	<circle cx="61" cy="33" r="2"/>
</g>
</svg>
