<?xml version="1.0" encoding="utf-8"?>
<!-- Generator: Adobe Illustrator 21.0.2, SVG Export Plug-In . SVG Version: 6.00 Build 0)  -->
<svg version="1.1" id="Layer_1" xmlns="http://www.w3.org/2000/svg" xmlns:xlink="http://www.w3.org/1999/xlink" x="0px" y="0px"
	 viewBox="0 0 100 100" style="enable-background:new 0 0 100 100;" xml:space="preserve">
<g>
	<path d="M87,61.5h4v-8H69c-3.3,0-6-2.7-6-6v-10c0-3.3,2.7-6,6-6h7.6l-5-7.2c-0.4-0.5-1-0.8-1.6-0.8H57v54h5.2c1-5.7,5.9-10,11.8-10
		s10.9,4.3,11.8,10H89c1.1,0,2-0.9,2-2v-10h-4c-1.1,0-2-0.9-2-2C85,62.4,85.9,61.5,87,61.5z"/>
	<path d="M67,37.5v10c0,1.1,0.9,2,2,2h20.2l-9.8-14H69C67.9,35.5,67,36.4,67,37.5z"/>
	<path d="M74,71.5c-4.4,0-8,3.6-8,8c0,4.4,3.6,8,8,8s8-3.6,8-8C82,75.1,78.4,71.5,74,71.5z"/>
	<path d="M9,75.5c0,1.1,0.9,2,2,2h4.2c1-5.7,5.9-10,11.8-10s10.9,4.3,11.8,10H53v-16H9V75.5z"/>
	<path d="M50,17.5c0-2.8-2.2-5-5-5s-5,2.2-5,5v6H11c-1.1,0-2,0.9-2,2v32h44v-34h-3V17.5z M35,44.5h-6v6h-8v-6h-6v-8h6v-6h8v6h6V44.5
		z"/>
	<path d="M27,71.5c-4.4,0-8,3.6-8,8c0,4.4,3.6,8,8,8s8-3.6,8-8C35,75.1,31.4,71.5,27,71.5z"/>
</g>
</svg>
