<?xml version="1.0" encoding="utf-8"?>
<!-- Generator: Adobe Illustrator 21.0.2, SVG Export Plug-In . SVG Version: 6.00 Build 0)  -->
<svg version="1.1" id="Layer_1" xmlns="http://www.w3.org/2000/svg" xmlns:xlink="http://www.w3.org/1999/xlink" x="0px" y="0px"
	 viewBox="0 0 100 100" style="enable-background:new 0 0 100 100;" xml:space="preserve">
<g>
	<path d="M93.9,49.8L74.8,22.6c-1.1-1.6-3-2.6-4.9-2.6H53v-5c0-3.9-3.1-7-7-7s-7,3.1-7,7v5H11c-3.3,0-6,2.7-6,6v50c0,3.3,2.7,6,6,6
		h4.2c1,5.7,5.9,10,11.8,10s10.9-4.3,11.8-10h23.4c1,5.7,5.9,10,11.8,10s10.9-4.3,11.8-10H89c3.3,0,6-2.7,6-6V53.3
		C95,52,94.6,50.8,93.9,49.8z M43,15c0-1.7,1.3-3,3-3s3,1.3,3,3v5h-6V15z M27,88c-4.4,0-8-3.6-8-8c0-4.4,3.6-8,8-8s8,3.6,8,8
		C35,84.4,31.4,88,27,88z M53,78H38.8c-1-5.7-5.9-10-11.8-10s-10.9,4.3-11.8,10H11c-1.1,0-2-0.9-2-2V62h44V78z M53,58H9V26
		c0-1.1,0.9-2,2-2h42V58z M89.2,50H69c-1.1,0-2-0.9-2-2V38c0-1.1,0.9-2,2-2h10.4L89.2,50z M74,88c-4.4,0-8-3.6-8-8c0-4.4,3.6-8,8-8
		s8,3.6,8,8C82,84.4,78.4,88,74,88z M91,62h-4c-1.1,0-2,0.9-2,2c0,1.1,0.9,2,2,2h4v10c0,1.1-0.9,2-2,2h-3.2c-1-5.7-5.9-10-11.8-10
		s-10.9,4.3-11.8,10H57V24h12.9c0.7,0,1.3,0.3,1.6,0.8l5,7.2H69c-3.3,0-6,2.7-6,6v10c0,3.3,2.7,6,6,6h22V62z"/>
	<path d="M15,47h4v4c0,1.1,0.9,2,2,2h8c1.1,0,2-0.9,2-2v-4h4c1.1,0,2-0.9,2-2v-8c0-1.1-0.9-2-2-2h-4v-4c0-1.1-0.9-2-2-2h-8
		c-1.1,0-2,0.9-2,2v4h-4c-1.1,0-2,0.9-2,2v8C13,46.1,13.9,47,15,47z M17,39h4c1.1,0,2-0.9,2-2v-4h4v4c0,1.1,0.9,2,2,2h4v4h-4
		c-1.1,0-2,0.9-2,2v4h-4v-4c0-1.1-0.9-2-2-2h-4V39z"/>
</g>
</svg>
