<?xml version="1.0" encoding="utf-8"?>
<!-- Generator: Adobe Illustrator 21.0.2, SVG Export Plug-In . SVG Version: 6.00 Build 0)  -->
<svg version="1.1" id="Layer_1" xmlns="http://www.w3.org/2000/svg" xmlns:xlink="http://www.w3.org/1999/xlink" x="0px" y="0px"
	 viewBox="0 0 100 100" style="enable-background:new 0 0 100 100;" xml:space="preserve">
<g>
	<path d="M25.8,36.5c0.4-1.2,0.6-2.4,0.5-3.7l-1.9-19.1C24.1,10.5,21.3,8,18,8s-6.1,2.5-6.4,5.8L9.7,32.8c-0.1,1.3,0,2.5,0.5,3.7
		C7.2,37.7,5,40.6,5,44v42c0,3.3,2.7,6,6,6h14c3.3,0,6-2.7,6-6V44C31,40.6,28.8,37.7,25.8,36.5z M27,72h-6c-1.1,0-2-0.9-2-2V60
		c0-1.1,0.9-2,2-2h6V72z M27,54h-6c-3.3,0-6,2.7-6,6v10c0,3.3,2.7,6,6,6h6v10c0,1.1-0.9,2-2,2H11c-1.1,0-2-0.9-2-2V44
		c0-2.2,1.8-4,4-4h0.4c0.8,0,1.5-0.5,1.8-1.2c0.3-0.7,0.2-1.6-0.4-2.2c-0.9-0.9-1.3-2.2-1.2-3.4l1.9-19c0.1-1.2,1.2-2.2,2.4-2.2
		s2.3,0.9,2.4,2.2l1.9,19c0.1,1.2-0.3,2.5-1.2,3.4c-0.5,0.6-0.7,1.4-0.4,2.2c0.3,0.7,1,1.2,1.8,1.2H23c2.2,0,4,1.8,4,4V54z"/>
	<path d="M57.8,36.5c0.4-1.2,0.6-2.4,0.5-3.7l-1.9-19.1C56.1,10.5,53.3,8,50,8s-6.1,2.5-6.4,5.8l-1.9,19.1c-0.1,1.3,0,2.5,0.5,3.7
		c-3,1.1-5.2,4.1-5.2,7.5v42c0,3.3,2.7,6,6,6h14c3.3,0,6-2.7,6-6V44C63,40.6,60.8,37.7,57.8,36.5z M59,72h-6c-1.1,0-2-0.9-2-2V60
		c0-1.1,0.9-2,2-2h6V72z M59,54h-6c-3.3,0-6,2.7-6,6v10c0,3.3,2.7,6,6,6h6v10c0,1.1-0.9,2-2,2H43c-1.1,0-2-0.9-2-2V44
		c0-2.2,1.8-4,4-4h0.4c0.8,0,1.5-0.5,1.8-1.2c0.3-0.7,0.2-1.6-0.4-2.2c-0.9-0.9-1.3-2.2-1.2-3.4l1.9-19c0.1-1.2,1.2-2.2,2.4-2.2
		s2.3,0.9,2.4,2.2l1.9,19c0.1,1.2-0.3,2.5-1.2,3.4c-0.5,0.6-0.7,1.4-0.4,2.2c0.3,0.7,1,1.2,1.8,1.2H55c2.2,0,4,1.8,4,4V54z"/>
	<path d="M89.8,36.5c0.4-1.2,0.6-2.4,0.5-3.7l-1.9-19.1C88.1,10.5,85.3,8,82,8s-6.1,2.5-6.4,5.8l-1.9,19.1c-0.1,1.3,0,2.5,0.5,3.7
		c-3,1.1-5.2,4.1-5.2,7.5v42c0,3.3,2.7,6,6,6h14c3.3,0,6-2.7,6-6V44C95,40.6,92.8,37.7,89.8,36.5z M91,72h-6c-1.1,0-2-0.9-2-2V60
		c0-1.1,0.9-2,2-2h6V72z M91,54h-6c-3.3,0-6,2.7-6,6v10c0,3.3,2.7,6,6,6h6v10c0,1.1-0.9,2-2,2H75c-1.1,0-2-0.9-2-2V44
		c0-2.2,1.8-4,4-4h0.4c0.8,0,1.5-0.5,1.8-1.2c0.3-0.7,0.2-1.6-0.4-2.2c-0.9-0.9-1.3-2.2-1.2-3.4l1.9-19c0.1-1.2,1.2-2.2,2.4-2.2
		s2.3,0.9,2.4,2.2l1.9,19c0.1,1.2-0.3,2.5-1.2,3.4c-0.5,0.6-0.7,1.4-0.4,2.2c0.3,0.7,1,1.2,1.8,1.2H87c2.2,0,4,1.8,4,4V54z"/>
</g>
</svg>
