<?xml version="1.0" encoding="utf-8"?>
<!-- Generator: Adobe Illustrator 21.0.2, SVG Export Plug-In . SVG Version: 6.00 Build 0)  -->
<svg version="1.1" id="Layer_1" xmlns="http://www.w3.org/2000/svg" xmlns:xlink="http://www.w3.org/1999/xlink" x="0px" y="0px"
	 viewBox="0 0 100 100" style="enable-background:new 0 0 100 100;" xml:space="preserve">
<g>
	<path d="M23,40h-0.4c-0.8,0-1.5-0.5-1.8-1.2c-0.3-0.7-0.2-1.6,0.4-2.2c0.9-0.9,1.3-2.2,1.2-3.4l-1.9-19C20.3,12.9,19.2,12,18,12
		s-2.3,0.9-2.4,2.2l-1.9,19c-0.1,1.2,0.3,2.5,1.2,3.4c0.5,0.6,0.7,1.4,0.4,2.2c-0.3,0.7-1,1.2-1.8,1.2H13c-2.2,0-4,1.8-4,4v42
		c0,1.1,0.9,2,2,2h14c1.1,0,2-0.9,2-2V76h-6c-3.3,0-6-2.7-6-6V60c0-3.3,2.7-6,6-6h6V44C27,41.8,25.2,40,23,40z"/>
	<path d="M19,60v10c0,1.1,0.9,2,2,2h6V58h-6C19.9,58,19,58.9,19,60z"/>
	<path d="M55,40h-0.4c-0.8,0-1.5-0.5-1.8-1.2c-0.3-0.7-0.2-1.6,0.4-2.2c0.9-0.9,1.3-2.2,1.2-3.4l-1.9-19C52.3,12.9,51.2,12,50,12
		s-2.3,0.9-2.4,2.2l-1.9,19c-0.1,1.2,0.3,2.5,1.2,3.4c0.5,0.6,0.7,1.4,0.4,2.2c-0.3,0.7-1,1.2-1.8,1.2H45c-2.2,0-4,1.8-4,4v42
		c0,1.1,0.9,2,2,2h14c1.1,0,2-0.9,2-2V76h-6c-3.3,0-6-2.7-6-6V60c0-3.3,2.7-6,6-6h6V44C59,41.8,57.2,40,55,40z"/>
	<path d="M51,60v10c0,1.1,0.9,2,2,2h6V58h-6C51.9,58,51,58.9,51,60z"/>
	<path d="M87,40h-0.4c-0.8,0-1.5-0.5-1.8-1.2c-0.3-0.7-0.2-1.6,0.4-2.2c0.9-0.9,1.3-2.2,1.2-3.4l-1.9-19C84.3,12.9,83.2,12,82,12
		s-2.3,0.9-2.4,2.2l-1.9,19c-0.1,1.2,0.3,2.5,1.2,3.4c0.5,0.6,0.7,1.4,0.4,2.2c-0.3,0.7-1,1.2-1.8,1.2H77c-2.2,0-4,1.8-4,4v42
		c0,1.1,0.9,2,2,2h14c1.1,0,2-0.9,2-2V76h-6c-3.3,0-6-2.7-6-6V60c0-3.3,2.7-6,6-6h6V44C91,41.8,89.2,40,87,40z"/>
	<path d="M83,60v10c0,1.1,0.9,2,2,2h6V58h-6C83.9,58,83,58.9,83,60z"/>
</g>
</svg>
