<?xml version="1.0" encoding="utf-8"?>
<!-- Generator: Adobe Illustrator 21.0.2, SVG Export Plug-In . SVG Version: 6.00 Build 0)  -->
<svg version="1.1" id="Layer_1" xmlns="http://www.w3.org/2000/svg" xmlns:xlink="http://www.w3.org/1999/xlink" x="0px" y="0px"
	 viewBox="0 0 100 100" style="enable-background:new 0 0 100 100;" xml:space="preserve">
<g>
	<path d="M52.7,48.5c0.8-0.8,2-0.8,2.8,0l5.7,5.7l5.7-5.7l-2.1-2.1c-1.5-1.5-3.5-2.5-5.7-2.8c-4.3-0.6-8.2-3.3-10.3-7.1l-0.3-0.6
		L30.1,54.2c-1.6,1.6-1.6,4.1,0,5.7l-5.7,5.7l-0.7,5l-5.7,5.6l1.4,1.4L6.8,90.2c-0.8,0.8-0.8,2,0,2.8c0.4,0.4,0.9,0.6,1.4,0.6
		c0.5,0,1-0.2,1.4-0.6l12.7-12.7l1.4,1.4l5.6-5.7l5-0.7l5.7-5.7c1.6,1.6,4.1,1.6,5.7,0l1.4-1.4l-5.6-5.7c-0.8-0.8-0.8-2,0-2.8
		c0.8-0.8,2-0.8,2.8,0l5.7,5.7l2.8-2.8L47.1,57c-0.8-0.8-0.8-2.1,0-2.8c0.8-0.8,2.1-0.8,2.8,0l5.7,5.7l2.8-2.8l-5.7-5.7
		C51.9,50.6,51.9,49.3,52.7,48.5z"/>
	<path d="M51.6,33.4l0.6,1.1c1.5,2.7,4.3,4.6,7.4,5.1c3,0.4,5.8,1.8,8,4l2.1,2.1l7.1-7.1l2.1,2.1c1.6,1.6,4.1,1.6,5.7,0
		c0.8-0.8,1.2-1.8,1.2-2.8c0-1-0.4-2-1.2-2.8l-6.4-6.4l7.1-7.1l1.4,1.4c1.6,1.6,4.1,1.6,5.7,0c1.6-1.6,1.6-4.1,0-5.7l-9.9-9.9
		c-1.6-1.6-4.1-1.6-5.7,0c-1.6,1.6-1.6,4.1,0,5.7l1.4,1.4l-7.1,7.1l-6.4-6.4c-1.6-1.6-4.1-1.6-5.7,0c-1.6,1.6-1.6,4.1,0,5.7l2.1,2.1
		L51.3,33C51.4,33.1,51.5,33.2,51.6,33.4z"/>
	<path d="M76.8,58c-9.4,0-17,7.6-17,17s7.6,17,17,17s17-7.6,17-17S86.2,58,76.8,58z M85.4,70.2l-8.8,12c-0.3,0.5-0.8,0.7-1.4,0.8
		c-0.1,0-0.2,0-0.2,0c-0.5,0-0.9-0.2-1.3-0.5l-5.2-4.3c-0.8-0.7-1-2-0.3-2.8c0.7-0.9,2-1,2.8-0.3l0.6,0.5l3,2.4l5-6.8l2.5-3.5
		c0.6-0.9,1.9-1.1,2.8-0.4C85.9,68,86.1,69.3,85.4,70.2z"/>
</g>
</svg>
