<?xml version="1.0" encoding="utf-8"?>
<!-- Generator: Adobe Illustrator 21.0.2, SVG Export Plug-In . SVG Version: 6.00 Build 0)  -->
<svg version="1.1" id="Layer_1" xmlns="http://www.w3.org/2000/svg" xmlns:xlink="http://www.w3.org/1999/xlink" x="0px" y="0px"
	 viewBox="0 0 100 100" style="enable-background:new 0 0 100 100;" xml:space="preserve">
<g>
	<path d="M19.4,78.6c-0.6-1.5-0.9-3-0.8-4.6c0.2-4,2.8-7.6,6.5-9.1c0.9-0.4,1.7-1,2.4-1.7c1-1.1,1.6-2.6,1.7-4.1
		c0-0.9-0.1-1.8-0.5-2.8C26.4,51,29,44.8,34.3,42.6c0.8-0.3,1.4-0.8,2-1.3c1.4-1.3,2.1-3.2,2-5.1c0-0.7-0.2-1.5-0.5-2.2
		c-1.5-3.7-0.8-8,1.9-11c1.1-1.2,2.4-2.1,3.8-2.7l0.1,0c0.6-0.3,1.1-0.6,1.6-1.1c1.5-1.4,2.4-3.7,2.4-5.8c0-0.9-0.2-1.8-0.5-2.6
		C47,10.5,47,10.3,47,10.2l-7.3-3c1.8,4.3-0.2,9.3-4.5,11.1c0,0-0.1,0-0.1,0c-1.2,0.5-2.3,1.3-3.1,2.2c-2.1,2.4-2.8,5.8-1.5,9
		c1.8,4.4-0.3,9.3-4.6,11.1c-4.3,1.8-6.4,6.8-4.6,11.2c1.8,4.4-0.3,9.3-4.6,11.2c-3.1,1.3-5.1,4.2-5.2,7.4c-0.1,1.2,0.1,2.5,0.6,3.7
		c0.9,2.2,0.8,4.7-0.1,6.7c-0.9,1.9-2.4,3.6-4.5,4.4l8,3.3c0.1-0.1,0.3-0.2,0.5-0.3c0.9-0.3,1.8-1.3,2.6-2.8c0.3-0.5,0.6-1,0.8-1.6
		c0.2-0.5,0.4-1.1,0.5-1.6C20,81,19.8,79.8,19.4,78.6z"/>
	<path d="M48.9,37.1c-1.3-3.1-0.6-6.6,1.5-9c0.8-0.9,1.9-1.7,3.1-2.2c0,0,0.1,0,0.1,0c4.3-1.8,6.3-6.8,4.5-11.1L51.5,12
		c0.6,4.9-2,10-6.3,11.9c0,0-0.1,0-0.1,0.1c-0.9,0.4-1.7,0.9-2.4,1.7c-0.1,0.1-0.2,0.2-0.2,0.3c-0.8,1-1.3,2.2-1.4,3.4
		c-0.1,1,0,2.1,0.5,3.1c2.2,5.4-0.3,11.5-5.7,13.8c-0.8,0.4-1.6,0.9-2.2,1.5c-1.2,1.2-1.9,2.9-1.9,4.6c0,0.8,0.2,1.7,0.5,2.5
		c1.1,2.6,1.1,5.5,0,8.1c-1.1,2.6-3.1,4.6-5.7,5.7c-0.7,0.3-1.3,0.7-1.8,1.1c-1.3,1.1-2.1,2.8-2.2,4.6c0,0.3,0,0.6,0,0.9
		c0,0.7,0.2,1.3,0.5,2c1.1,2.7,1.1,5.6-0.1,8.3c-0.6,1.3-1.7,3.4-3.3,4.9l6.2,2.5c2.1-0.9,3.7-2.5,4.5-4.4c0.9-2.1,1-4.5,0.1-6.7
		c-0.5-1.2-0.7-2.5-0.6-3.8c0.2-3.2,2.1-6.1,5.2-7.4c4.4-1.8,6.4-6.8,4.6-11.2c-1.8-4.4,0.3-9.3,4.6-11.1
		C48.7,46.5,50.7,41.5,48.9,37.1z"/>
	<path d="M57.6,78c0,0,0-0.1-0.1-0.2c-0.6-1.4-0.8-2.9-0.7-4.5c0.2-4,2.8-7.6,6.5-9.1c1.4-0.6,2.5-1.6,3.2-2.8
		c0.2-0.4,0.4-0.9,0.6-1.4c0.4-1.4,0.4-2.9-0.2-4.3c-2.2-5.4,0.3-11.5,5.7-13.8c3.3-1.4,4.9-5.2,3.5-8.5c-1.5-3.7-0.8-8,1.9-11
		c0.4-0.5,1.2-1.2,2-1.9l-6.7-2.8c-1.2,0.5-2.3,1.3-3.1,2.2c-2.1,2.4-2.8,5.8-1.5,9C70.5,33,68.4,38,64,39.8
		c-4.4,1.8-6.4,6.8-4.6,11.2c1.8,4.3-0.3,9.3-4.6,11.1c-3.1,1.3-5.1,4.2-5.2,7.4c-0.1,1.2,0.1,2.5,0.6,3.7c0,0,0,0.1,0,0.1
		c1.7,4.3-0.3,9.3-4.7,11l8,3.3c0.2-0.1,0.3-0.2,0.5-0.3c0.9-0.4,1.6-1,2.3-1.8c0.9-1.1,1.5-2.5,1.7-4C58.1,80.3,58,79.1,57.6,78z"
		/>
	<path d="M84.4,22.1c0,0-0.1,0-0.1,0.1c-0.5,0.2-1.4,0.9-2.2,1.6c-0.5,0.4-0.9,0.8-1.2,1.1c-1.4,1.5-1.9,3.5-1.6,5.5
		c0.1,0.5,0.2,0.9,0.4,1.4c1.1,2.6,1.1,5.5,0,8.1c-1.1,2.6-3.1,4.6-5.7,5.7c-0.5,0.2-0.9,0.4-1.3,0.7c-2,1.4-3,3.9-2.6,6.3
		c0.1,0.5,0.2,1,0.4,1.5c2.2,5.4-0.4,11.5-5.7,13.8c-0.5,0.2-1,0.5-1.4,0.8c-1.5,1.1-2.5,2.9-2.6,4.9c0,0.4,0,0.9,0.1,1.3
		c0.1,0.5,0.2,1.1,0.4,1.6c0,0.1,0.1,0.1,0.1,0.2c1.8,4.5,0.2,10.1-3.3,13.1l7,2.9c4.3-1.8,6.4-6.7,4.7-11c0,0,0-0.1,0-0.1
		c-0.5-1.2-0.7-2.5-0.6-3.7c0.2-3.2,2.1-6.1,5.2-7.4c4.4-1.8,6.4-6.8,4.6-11.2c-1.8-4.3,0.3-9.3,4.6-11.1c4.3-1.8,6.4-6.8,4.6-11.2
		c-1.3-3.1-0.6-6.6,1.5-9c0.8-0.9,1.9-1.7,3.1-2.2L84.4,22.1z"/>
</g>
</svg>
