<?xml version="1.0" encoding="utf-8"?>
<!-- Generator: Adobe Illustrator 21.0.2, SVG Export Plug-In . SVG Version: 6.00 Build 0)  -->
<svg version="1.1" id="Layer_1" xmlns="http://www.w3.org/2000/svg" xmlns:xlink="http://www.w3.org/1999/xlink" x="0px" y="0px"
	 viewBox="0 0 100 100" style="enable-background:new 0 0 100 100;" xml:space="preserve">
<g>
	<path d="M50,49.9c2-4.3,5.4-8,9.8-10.3l2.1-1.1c-1.3-1.3-2.8-2.5-4.5-3.3l-3.1-1.6l1.7,3.2c0.5,1,0.1,2.2-0.9,2.7
		c-0.3,0.2-0.6,0.2-0.9,0.2c-0.7,0-1.4-0.4-1.8-1.1l-0.5-0.9L50,34l-1.9,3.6l-0.5,0.9c-0.5,1-1.7,1.4-2.7,0.9
		c-1-0.5-1.4-1.7-0.9-2.7l1.7-3.2l-3.1,1.6c-1.7,0.9-3.2,2-4.5,3.3l2.1,1.1C44.6,41.9,48,45.6,50,49.9z"/>
	<path d="M9,91c0,1.1,0.9,2,2,2h78c1.1,0,2-0.9,2-2V73H9V91z"/>
	<path d="M38.4,43.1l-1.8-1l2.2,3.3c0.6,0.9,0.4,2.1-0.5,2.8c-0.3,0.2-0.7,0.3-1.1,0.3c-0.7,0-1.3-0.3-1.7-0.9l-0.8-1.1L31,41.1
		l-3.7,5.5l-0.8,1.1c-0.6,0.9-1.9,1.2-2.8,0.5c-0.9-0.6-1.2-1.9-0.5-2.8l2.2-3.3l-1.8,1C17.7,46.3,14,52.3,14,59h34
		C48,52.3,44.3,46.3,38.4,43.1z"/>
	<path d="M63.5,42.2l-1.8,1C55.7,46.3,52,52.3,52,59h34c0-6.7-3.7-12.7-9.6-15.9l-1.8-1l2.2,3.3c0.6,0.9,0.4,2.1-0.5,2.8
		c-0.3,0.2-0.7,0.3-1.1,0.3c-0.7,0-1.3-0.3-1.7-0.9l-0.8-1.1L69,41.1l-3.7,5.5l-0.8,1.1c-0.6,0.9-1.9,1.2-2.8,0.5
		c-0.9-0.6-1.2-1.9-0.5-2.8L63.5,42.2z"/>
	<path d="M89,63H11c-1.1,0-2,0.9-2,2v4h82v-4C91,63.9,90.1,63,89,63z"/>
	<path d="M81.3,21.8c1.6,2.5,1.5,5.7-0.3,8c-0.7,0.9-0.6,2.1,0.3,2.8c0.4,0.3,0.8,0.4,1.2,0.4c0.6,0,1.2-0.3,1.6-0.8
		c2.9-3.7,3.2-8.8,0.6-12.7l-0.9-1.3c-1.6-2.5-1.5-5.7,0.3-8c0.7-0.9,0.5-2.1-0.3-2.8c-0.9-0.7-2.1-0.5-2.8,0.3
		c-2.9,3.7-3.2,8.8-0.6,12.7L81.3,21.8z"/>
	<path d="M69.4,21.8c0.9,1.1,0.7,2.8-0.3,3.8c-0.8,0.8-0.8,2,0,2.8c0.4,0.4,0.9,0.6,1.4,0.6s1-0.2,1.4-0.6c2.4-2.4,2.7-6.3,0.6-9
		l-0.9-1.2c-0.9-1.1-0.7-2.8,0.3-3.8c0.8-0.8,0.8-2,0-2.8c-0.8-0.8-2-0.8-2.8,0c-2.4,2.4-2.7,6.3-0.6,9L69.4,21.8z"/>
</g>
</svg>
