<?xml version="1.0" encoding="utf-8"?>
<!-- Generator: Adobe Illustrator 21.0.2, SVG Export Plug-In . SVG Version: 6.00 Build 0)  -->
<svg version="1.1" id="Layer_1" xmlns="http://www.w3.org/2000/svg" xmlns:xlink="http://www.w3.org/1999/xlink" x="0px" y="0px"
	 viewBox="0 0 100 100" style="enable-background:new 0 0 100 100;" xml:space="preserve">
<g>
	<path d="M90,57.1L90,57.1c0-8.2-4.5-15.7-11.8-19.5l-8.3-4.4c-0.6-0.3-1.3-0.3-1.9,0l-2.5,1.3c-1.7-2-3.9-3.7-6.3-5l-8.3-4.4
		c-0.6-0.3-1.3-0.3-1.9,0l-8.3,4.4c-2.4,1.3-4.5,3-6.3,5l-2.5-1.3c-0.6-0.3-1.3-0.3-1.9,0l-8.3,4.4C14.5,41.4,10,48.9,10,57.1v0
		C7.2,57.6,5,60,5,63v26c0,3.3,2.7,6,6,6h78c3.3,0,6-2.7,6-6V63C95,60,92.8,57.6,90,57.1z M61.8,46.3c0.9,0.6,2.2,0.4,2.8-0.5
		l0.8-1.1l3.7-5.5l3.7,5.5l0.8,1.1c0.4,0.6,1,0.9,1.7,0.9c0.4,0,0.8-0.1,1.1-0.3c0.9-0.6,1.2-1.9,0.5-2.8l-2.2-3.3l1.8,1
		C82.3,44.3,86,50.3,86,57H52c0-6.7,3.7-12.7,9.6-15.9l1.8-1l-2.2,3.3C60.6,44.4,60.8,45.7,61.8,46.3z M42.6,33.1l3.1-1.6l-1.7,3.2
		c-0.5,1-0.1,2.2,0.9,2.7c1,0.5,2.2,0.1,2.7-0.9L50,32l2.3,4.6c0.4,0.7,1.1,1.1,1.8,1.1c0.3,0,0.6-0.1,0.9-0.2
		c1-0.5,1.4-1.7,0.9-2.7l-1.7-3.2l3.1,1.6c1.7,0.9,3.2,2,4.5,3.3l-2.1,1.1c-4.4,2.3-7.8,6-9.8,10.3c-2-4.3-5.4-8-9.8-10.3l-2.1-1.1
		C39.4,35.2,40.9,34,42.6,33.1z M23.6,41.1l1.8-1l-2.2,3.3c-0.6,0.9-0.4,2.1,0.5,2.8c0.9,0.6,2.1,0.4,2.8-0.5l0.8-1.1l3.7-5.5
		l3.7,5.5l0.8,1.1c0.4,0.6,1,0.9,1.7,0.9c0.4,0,0.8-0.1,1.1-0.3c0.9-0.6,1.2-1.9,0.5-2.8l-2.2-3.3l1.8,1C44.3,44.3,48,50.3,48,57H14
		C14,50.3,17.7,44.3,23.6,41.1z M91,89c0,1.1-0.9,2-2,2H11c-1.1,0-2-0.9-2-2V71h82V89z M91,67H9v-4c0-1.1,0.9-2,2-2h78
		c1.1,0,2,0.9,2,2V67z"/>
	<path d="M81.3,19.8c1.6,2.5,1.5,5.7-0.3,8c-0.7,0.9-0.6,2.1,0.3,2.8c0.4,0.3,0.8,0.4,1.2,0.4c0.6,0,1.2-0.3,1.6-0.8
		c2.9-3.7,3.2-8.8,0.6-12.7l-0.9-1.3c-1.6-2.5-1.5-5.7,0.3-8c0.7-0.9,0.5-2.1-0.3-2.8c-0.9-0.7-2.1-0.5-2.8,0.3
		c-2.9,3.7-3.2,8.8-0.6,12.7L81.3,19.8z"/>
	<path d="M69.4,19.8c0.9,1.1,0.7,2.8-0.3,3.8c-0.8,0.8-0.8,2,0,2.8c0.4,0.4,0.9,0.6,1.4,0.6s1-0.2,1.4-0.6c2.4-2.4,2.7-6.3,0.6-9
		l-0.9-1.2c-0.9-1.1-0.7-2.8,0.3-3.8c0.8-0.8,0.8-2,0-2.8c-0.8-0.8-2-0.8-2.8,0c-2.4,2.4-2.7,6.3-0.6,9L69.4,19.8z"/>
</g>
</svg>
