<?xml version="1.0" encoding="utf-8"?>
<!-- Generator: Adobe Illustrator 21.0.2, SVG Export Plug-In . SVG Version: 6.00 Build 0)  -->
<svg version="1.1" id="Layer_1" xmlns="http://www.w3.org/2000/svg" xmlns:xlink="http://www.w3.org/1999/xlink" x="0px" y="0px"
	 viewBox="0 0 100 100" style="enable-background:new 0 0 100 100;" xml:space="preserve">
<g>
	<path d="M89,51v-7C89,22.5,71.5,5,50,5c-5.8,0-11.4,1.3-16.4,3.6C31.9,8,30,7.8,28.1,8.2c-2.6,0.6-4.9,2.2-6.3,4.5
		c-1.2,1.8-1.7,4-1.5,6.1C14.5,25.6,11,34.4,11,44v7c-3.3,0-6,2.7-6,6v2c0,3.3,2.7,6,6,6h0.5l2.3,8.5l2.7,10l1.9,7
		c0.7,2.6,3.1,4.5,5.8,4.5h51.9c2.7,0,5.1-1.8,5.8-4.5l1.9-7l2.7-10l2.3-8.5H89c3.3,0,6-2.7,6-6v-2C95,53.7,92.3,51,89,51z M50,9
		c19.3,0,35,15.7,35,35v7h-4v-7c0-17.1-13.9-31-31-31c-3.6,0-7,0.6-10.2,1.8c-0.5-1.3-1.2-2.5-2.1-3.5C41.5,9.8,45.7,9,50,9z
		 M67,39.2V31c0-3.3-2.7-6-6-6h-4c-3.3,0-6,2.7-6,6v8.2c-1.8,0.5-3.4,1.6-4.5,3l-5.8-23.6c2.9-1.1,6-1.6,9.2-1.6
		c14.9,0,27,12.1,27,27v7h-4v-4C73,43.3,70.5,40.1,67,39.2z M63,37v4c0,1.1,0.9,2,2,2c2.2,0,4,1.8,4,4v4H49v-4c0-2.2,1.8-4,4-4
		c1.1,0,2-0.9,2-2v-4H63z M55,33v-2c0-1.1,0.9-2,2-2h4c1.1,0,2,0.9,2,2v2H55z M57.2,55L50,62.2L42.8,55H57.2z M48.6,66.4
		C49,66.8,49.5,67,50,67s1-0.2,1.4-0.6L62.8,55h6.3L50,74.2L30.8,55h6.3L48.6,66.4z M25.2,14.8c0.9-1.4,2.2-2.3,3.8-2.7
		c3.2-0.7,6.4,1.3,7.2,4.5l0.2,0.7l-6.2,5c-0.9,0.7-1,2-0.3,2.8c0.4,0.5,1,0.7,1.6,0.7c0.4,0,0.9-0.1,1.2-0.5l4.7-3.8l1.5,6.3
		l-6.4,5.2c-0.9,0.7-1,2-0.3,2.8c0.4,0.5,1,0.7,1.5,0.7c0.4,0,0.9-0.1,1.3-0.4l4.9-4l1.5,6.3l-6.6,5.3c-0.9,0.7-1,2-0.3,2.8
		c0.4,0.5,1,0.7,1.6,0.7c0.4,0,0.9-0.1,1.3-0.4l5.1-4.2l2,8.2H31.8l-7.4-31.6C24,17.8,24.3,16.2,25.2,14.8z M23,44
		c0-2.8,0.4-5.4,1.2-7.9L27.7,51H23V44z M15,44c0-7.5,2.3-14.4,6.3-20.1l1.3,5.5C20.3,33.8,19,38.8,19,44v7h-4V44z M11,61
		c-1.1,0-2-0.9-2-2v-2c0-1.1,0.9-2,2-2h14.2l6,6H11z M82.4,72.5l-2.7,10l-1.9,7c-0.2,0.9-1,1.5-1.9,1.5H24.1c-0.9,0-1.7-0.6-1.9-1.5
		l-1.9-7l-2.7-10l-2-7.5h19.6l13.4,13.4C49,78.8,49.5,79,50,79s1-0.2,1.4-0.6L64.8,65h19.6L82.4,72.5z M91,59c0,1.1-0.9,2-2,2H68.8
		l6-6H89c1.1,0,2,0.9,2,2V59z"/>
	<path d="M35,71c0-1.1-0.9-2-2-2h-8c-1.1,0-2,0.9-2,2c0,1.1,0.9,2,2,2h8C34.1,73,35,72.1,35,71z"/>
	<path d="M67,73h8c1.1,0,2-0.9,2-2c0-1.1-0.9-2-2-2h-8c-1.1,0-2,0.9-2,2C65,72.1,65.9,73,67,73z"/>
	<path d="M72,83h-8c-1.1,0-2,0.9-2,2c0,1.1,0.9,2,2,2h8c1.1,0,2-0.9,2-2C74,83.9,73.1,83,72,83z"/>
	<path d="M54,83h-8c-1.1,0-2,0.9-2,2c0,1.1,0.9,2,2,2h8c1.1,0,2-0.9,2-2C56,83.9,55.1,83,54,83z"/>
	<path d="M36,83h-8c-1.1,0-2,0.9-2,2c0,1.1,0.9,2,2,2h8c1.1,0,2-0.9,2-2C38,83.9,37.1,83,36,83z"/>
	<circle cx="29" cy="78" r="2"/>
	<circle cx="39" cy="78" r="2"/>
	<circle cx="61" cy="78" r="2"/>
	<circle cx="71" cy="78" r="2"/>
</g>
</svg>
