<?xml version="1.0" encoding="utf-8"?>
<!-- Generator: Adobe Illustrator 21.0.2, SVG Export Plug-In . SVG Version: 6.00 Build 0)  -->
<svg version="1.1" id="Layer_1" xmlns="http://www.w3.org/2000/svg" xmlns:xlink="http://www.w3.org/1999/xlink" x="0px" y="0px"
	 viewBox="0 0 100 100" style="enable-background:new 0 0 100 100;" xml:space="preserve">
<g>
	<path d="M51.4,79.4C51,79.8,50.5,80,50,80s-1-0.2-1.4-0.6L35.2,66H13.5l2.1,8l2.7,10l1.9,7c0.5,1.8,2,3,3.9,3h51.9
		c1.8,0,3.4-1.2,3.9-3l1.9-7l2.7-10l2.1-8H64.8L51.4,79.4z M23,72c0-1.1,0.9-2,2-2h8c1.1,0,2,0.9,2,2c0,1.1-0.9,2-2,2h-8
		C23.9,74,23,73.1,23,72z M31,79c0,1.1-0.9,2-2,2s-2-0.9-2-2c0-1.1,0.9-2,2-2S31,77.9,31,79z M36,88h-8c-1.1,0-2-0.9-2-2
		c0-1.1,0.9-2,2-2h8c1.1,0,2,0.9,2,2C38,87.1,37.1,88,36,88z M39,81c-1.1,0-2-0.9-2-2c0-1.1,0.9-2,2-2s2,0.9,2,2
		C41,80.1,40.1,81,39,81z M54,88h-8c-1.1,0-2-0.9-2-2c0-1.1,0.9-2,2-2h8c1.1,0,2,0.9,2,2C56,87.1,55.1,88,54,88z M59,79
		c0-1.1,0.9-2,2-2s2,0.9,2,2c0,1.1-0.9,2-2,2S59,80.1,59,79z M72,88h-8c-1.1,0-2-0.9-2-2c0-1.1,0.9-2,2-2h8c1.1,0,2,0.9,2,2
		C74,87.1,73.1,88,72,88z M69,79c0-1.1,0.9-2,2-2s2,0.9,2,2c0,1.1-0.9,2-2,2S69,80.1,69,79z M67,70h8c1.1,0,2,0.9,2,2
		c0,1.1-0.9,2-2,2h-8c-1.1,0-2-0.9-2-2C65,70.9,65.9,70,67,70z"/>
	<path d="M89,56V45C89,23.5,71.5,6,50,6c-7,0-13.5,1.8-19.1,5c-0.8-0.1-1.5,0-2.3,0.2c-3.2,0.7-5.5,3.2-6.1,6.3
		C15.4,24.5,11,34.3,11,45v11c-1.1,0-2,0.9-2,2v2c0,1.1,0.9,2,2,2h20.2l-6-6H15V45c0-8.4,3-16.1,7.9-22.1L29.7,52h16.9l-2.4-9.7
		l-6.8,5.7c-0.4,0.3-0.8,0.5-1.3,0.5c-0.6,0-1.1-0.2-1.5-0.7c-0.7-0.8-0.6-2.1,0.3-2.8l8-6.6c0.1-0.1,0.2-0.2,0.4-0.2l-1.5-6.3
		l-6.6,5.5c-0.4,0.3-0.8,0.5-1.3,0.5c-0.6,0-1.1-0.2-1.5-0.7c-0.7-0.9-0.6-2.1,0.3-2.8l8-6.6c0,0,0.1-0.1,0.1-0.1l-1.5-6.2l-6.4,5.3
		c-0.4,0.3-0.8,0.5-1.3,0.5c-0.6,0-1.1-0.2-1.5-0.7c-0.7-0.9-0.6-2.1,0.2-2.8l7.9-6.5c-0.4-1.5-1.2-2.8-2.3-3.8
		C40,11.1,44.9,10,50,10c19.3,0,35,15.7,35,35v11H74.8l-6,6H89c1.1,0,2-0.9,2-2v-2C91,56.9,90.1,56,89,56z"/>
	<path d="M53,42c-3.3,0-6,2.7-6,6v4h24v-4c0-3.3-2.7-6-6-6v-4H53V42z"/>
	<path d="M65,32c0-2.2-1.8-4-4-4h-4c-2.2,0-4,1.8-4,4v2h12V32z"/>
	<path d="M30.8,56L50,75.2L69.2,56h-6.3L51.4,67.4C51,67.8,50.5,68,50,68s-1-0.2-1.4-0.6L37.2,56H30.8z"/>
	<polygon points="50,63.2 57.2,56 42.8,56 	"/>
</g>
</svg>
