<?xml version="1.0" encoding="utf-8"?>
<!-- Generator: Adobe Illustrator 21.0.2, SVG Export Plug-In . SVG Version: 6.00 Build 0)  -->
<svg version="1.1" id="Layer_1" xmlns="http://www.w3.org/2000/svg" xmlns:xlink="http://www.w3.org/1999/xlink" x="0px" y="0px"
	 viewBox="0 0 100 100" style="enable-background:new 0 0 100 100;" xml:space="preserve">
<g>
	<path d="M89,27h-4v-2c0-5.5-4.5-10-10-10H15C9.5,15,5,19.5,5,25v26c0,3.9,2.2,7.3,5.5,8.9C7.2,62.5,5,66.5,5,71c0,7.7,6.3,14,14,14
		h33.9c6.3,0,11.7-4.1,13.5-10h0.5C73.5,75,79,69.5,79,62.9v-2.7c3.5-1.5,6-5.1,6-9.2v-2h4c3.3,0,6-2.7,6-6V33
		C95,29.7,92.3,27,89,27z M9,51V25c0-3.3,2.7-6,6-6h34v38H15C11.7,57,9,54.3,9,51z M75,62.9c0,4.5-3.7,8.1-8.1,8.1h-2.1
		c-1,0-1.8,0.7-2,1.6c-0.9,4.8-5,8.4-9.9,8.4H19c-5.5,0-10-4.5-10-10s4.5-10,10-10h56V62.9z M81,51c0,3.3-2.7,6-6,6H53V19h22
		c3.3,0,6,2.7,6,6V51z M91,43c0,1.1-0.9,2-2,2h-4V31h4c1.1,0,2,0.9,2,2V43z"/>
	<path d="M17,47c1.1,0,2-0.9,2-2V31c0-1.1-0.9-2-2-2s-2,0.9-2,2v14C15,46.1,15.9,47,17,47z"/>
	<path d="M73,36h-5v-5c0-1.1-0.9-2-2-2s-2,0.9-2,2v5h-5c-1.1,0-2,0.9-2,2c0,1.1,0.9,2,2,2h5v5c0,1.1,0.9,2,2,2s2-0.9,2-2v-5h5
		c1.1,0,2-0.9,2-2C75,36.9,74.1,36,73,36z"/>
</g>
</svg>
