<?xml version="1.0" encoding="utf-8"?>
<!-- Generator: Adobe Illustrator 21.0.2, SVG Export Plug-In . SVG Version: 6.00 Build 0)  -->
<svg version="1.1" id="Layer_1" xmlns="http://www.w3.org/2000/svg" xmlns:xlink="http://www.w3.org/1999/xlink" x="0px" y="0px"
	 viewBox="0 0 100 100" style="enable-background:new 0 0 100 100;" xml:space="preserve">
<g>
	<path d="M16.5,57h34V19h-34c-3.3,0-6,2.7-6,6v26C10.5,54.3,13.2,57,16.5,57z M16.5,31c0-1.1,0.9-2,2-2s2,0.9,2,2v14
		c0,1.1-0.9,2-2,2s-2-0.9-2-2V31z"/>
	<path d="M86.5,31.1c-0.3-0.1-0.7-0.1-1-0.1h-3v-6c0-3.3-2.7-6-6-6h-22v38h22c3.3,0,6-2.7,6-6v-6h3c0.3,0,0.7-0.1,1-0.1
		c1.7-0.5,3-2,3-3.9v-6C89.5,33.1,88.2,31.6,86.5,31.1z M74.5,40h-5v5c0,1.1-0.9,2-2,2s-2-0.9-2-2v-5h-5c-1.1,0-2-0.9-2-2
		c0-1.1,0.9-2,2-2h5v-5c0-1.1,0.9-2,2-2s2,0.9,2,2v5h5c1.1,0,2,0.9,2,2C76.5,39.1,75.6,40,74.5,40z"/>
	<path d="M10.5,71c0,5.5,4.5,10,10,10h33.9c4.9,0,9.1-3.5,9.9-8.4c0.2-0.9,1-1.6,2-1.6h2.1c4.5,0,8.1-3.7,8.1-8.1V61h-56
		C15,61,10.5,65.5,10.5,71z"/>
</g>
</svg>
