<?xml version="1.0" encoding="utf-8"?>
<!-- Generator: Adobe Illustrator 21.0.2, SVG Export Plug-In . SVG Version: 6.00 Build 0)  -->
<svg version="1.1" id="Layer_1" xmlns="http://www.w3.org/2000/svg" xmlns:xlink="http://www.w3.org/1999/xlink" x="0px" y="0px"
	 viewBox="0 0 100 100" style="enable-background:new 0 0 100 100;" xml:space="preserve">
<g>
	<path d="M60,52.6c-1.1-0.5-2.1-1-3-1.6c-4.2-2.5-7.5-6-9.8-10.4c-0.3-0.6-0.6-1.1-0.8-1.7l-0.5-1.3c-0.3-0.1-0.6-0.2-1-0.4
		c-2.7,3.5-2.9,8.4-0.6,12.5l-0.8,5.8l5.8-0.8c4.1,2.3,9,2.1,12.4-0.6c-0.1-0.3-0.3-0.6-0.4-0.9L60,52.6z"/>
	<path d="M57.1,37.1c-2.1,1-4.3,1.5-6.5,1.5c0.3,0.6,0.7,1.3,1.1,1.9c1.7,2.7,4,5,6.8,6.8c0.6,0.4,1.2,0.7,1.9,1.1
		c0-2.2,0.4-4.4,1.4-6.5C59.8,40.8,58.1,39.1,57.1,37.1z"/>
	<path d="M60.6,35.2c0.7,1.3,1.8,2.4,3.1,3.1l3.7-6.8L60.6,35.2z"/>
	<path d="M36.4,59.7c-1.6,1.6-4.1,1.6-5.7,0l-2.1-2.1c-2.7-2.7-7.2-2.7-9.9,0c-1.3,1.3-2.1,3.1-2,5c0,1.9,0.7,3.6,2.1,4.9l8.7,8.7
		c1.1,1.1,1.2,2.9,0.1,4c-0.5,0.6-1.3,0.9-2.1,1c-0.8,0-1.6-0.3-2.1-0.9l-4.2-4.2c-1.2-1.2-2.8-1.8-4.5-1.8c-1.7,0-3.3,0.7-4.4,1.8
		c-2.5,2.5-2.5,6.4,0,8.9c0.9,0.9,1,2.4,0.1,3.3l-1,1.2c-0.7,0.8-0.6,2.1,0.2,2.8c0.4,0.3,0.8,0.5,1.3,0.5c0.6,0,1.1-0.2,1.5-0.7
		l1-1.2c2.2-2.5,2-6.4-0.3-8.8c-0.9-0.9-0.9-2.3,0-3.2c0.9-0.9,2.4-0.9,3.2,0l4.2,4.2c1.4,1.4,3.2,2.1,5.1,2c1.9,0,3.7-0.9,5-2.3
		c2.5-2.7,2.4-6.9-0.3-9.5l-8.7-8.7c-0.6-0.6-0.9-1.3-0.9-2.1c0-0.8,0.3-1.6,0.9-2.1c1.1-1.1,3.1-1.1,4.2,0l2.1,2.1
		c1.5,1.5,3.5,2.3,5.7,2.3c2.1,0,4.1-0.8,5.7-2.3c0.8-0.8,0.8-2,0-2.8C38.4,58.9,37.1,58.9,36.4,59.7z"/>
	<path d="M91.1,20.5c-0.9-0.9-2.1-1.5-3.3-1.8c-1.4-0.3-2.9-0.3-4.2,0.3c-0.4-0.8-0.9-1.5-1.6-2.1c-0.6-0.6-1.3-1.1-2.1-1.5
		c0.3-0.8,0.5-1.7,0.5-2.6c0-0.6-0.1-1.1-0.2-1.7c-0.3-1.2-0.9-2.4-1.8-3.3c-0.8-0.8-2-0.8-2.8,0c-0.7,0.7-0.8,1.7-0.3,2.5
		c0.1,0.1,0.2,0.2,0.3,0.4c0.6,0.6,0.9,1.3,0.9,2.1c0,0.5-0.2,1.1-0.4,1.5c-2.4-0.1-4.9,0.8-6.7,2.6c-0.6,0.6-1.1,1.3-1.4,2.1l6,6
		c0,0,0,0,0,0c0,0,0,0,0,0l6,6c0.8-0.4,1.5-0.8,2.1-1.4c1.8-1.9,2.7-4.3,2.6-6.7c1.1-0.7,2.6-0.5,3.6,0.5c0.1,0.1,0.2,0.2,0.4,0.3
		c0.3,0.2,0.7,0.3,1,0.3c0.5,0,1-0.2,1.4-0.6C91.8,22.6,91.8,21.3,91.1,20.5z"/>
	<path d="M72.9,29.7l-7.4,13.4c-2.2,4-1.4,9.1,1.9,12.2c0,0,0,0,0,0c4.3,4.3,11.3,4.3,15.6,0c4.3-4.3,4.3-11.3,0-15.6L72.9,29.7z"/>
	<path d="M55.7,33.3L69.1,26L59,15.8c-2.1-2.1-4.8-3.2-7.8-3.2c-2.9,0-5.7,1.1-7.8,3.2c-2.1,2.1-3.2,4.8-3.2,7.8
		c0,2.9,1.1,5.7,3.2,7.8C46.6,34.8,51.7,35.5,55.7,33.3z"/>
</g>
</svg>
