<?xml version="1.0" encoding="utf-8"?>
<!-- Generator: Adobe Illustrator 21.0.2, SVG Export Plug-In . SVG Version: 6.00 Build 0)  -->
<svg version="1.1" id="Layer_1" xmlns="http://www.w3.org/2000/svg" xmlns:xlink="http://www.w3.org/1999/xlink" x="0px" y="0px"
	 viewBox="0 0 100 100" style="enable-background:new 0 0 100 100;" xml:space="preserve">
<path d="M89,13H40.8l-8.4-7.5c-0.8-0.7-2.1-0.7-2.8,0.2c-0.7,0.8-0.7,2.1,0.2,2.8l5.1,4.5H11c-3.3,0-6,2.7-6,6s2.7,6,6,6h9.5
	L13,32.5c-1.1,1.1-1.8,2.6-1.8,4.2c0,1.6,0.6,3.1,1.8,4.2c1.2,1.2,2.7,1.8,4.2,1.8c1.5,0,3.1-0.6,4.2-1.8l16-16H48v6.2
	c-4.8,0.9-8.5,4.9-9,9.8h-3c-3.9,0-7,3.1-7,7c0,1.1,0.2,2.1,0.7,3C26,51.2,23,54.2,23,58c0,1.1,0.2,2.1,0.7,3C20,61.2,17,64.2,17,68
	s3,6.8,6.7,7c-0.4,0.9-0.7,1.9-0.7,3c0,3.9,3.1,7,7,7h3.7c-0.4,0.9-0.7,1.9-0.7,3c0,3.9,3.1,7,7,7h20c3.9,0,7-3.1,7-7
	c0-1.1-0.2-2.1-0.7-3H70c3.9,0,7-3.1,7-7c0-1.1-0.2-2.1-0.7-3c3.7-0.2,6.7-3.2,6.7-7s-3-6.8-6.7-7c0.4-0.9,0.7-1.9,0.7-3
	c0-3.8-3-6.8-6.7-7c0.4-0.9,0.7-1.9,0.7-3c0-3.9-3.1-7-7-7h-3c-0.5-4.9-4.2-8.9-9-9.8V25h37c3.3,0,6-2.7,6-6S92.3,13,89,13z M24,71
	c-1.7,0-3-1.4-3-3c0-1.7,1.3-3,3-3h13.4c-0.3,1-0.4,2-0.4,3v3H24z M30,81c-1.7,0-3-1.4-3-3c0-1.7,1.3-3,3-3h7c0.2,2.3,1.1,4.3,2.5,6
	H30z M60,91H40c-1.7,0-3-1.4-3-3c0-1.7,1.3-3,3-3h20c1.7,0,3,1.3,3,3C63,89.6,61.7,91,60,91z M41,74v-6c0-3.9,3.1-7,7-7s7,3.1,7,7v6
	c0,3.9-3.1,7-7,7S41,77.9,41,74z M70,81H56.5c1.4-1.7,2.3-3.7,2.5-6h11c1.7,0,3,1.3,3,3C73,79.6,71.7,81,70,81z M76,65
	c1.7,0,3,1.3,3,3c0,1.6-1.3,3-3,3H59v-3c0-1-0.2-2-0.4-3H76z M70,55c1.7,0,3,1.3,3,3c0,1.6-1.3,3-3,3H56.5c-2-2.4-5.1-4-8.5-4
	s-6.5,1.6-8.5,4H30c-1.7,0-3-1.4-3-3c0-1.7,1.3-3,3-3H70z M64,45c1.7,0,3,1.3,3,3c0,1.6-1.3,3-3,3H36c-1.7,0-3-1.4-3-3
	c0-1.7,1.3-3,3-3H64z M56.9,41H43.1c0.5-3.4,3.4-6,6.9-6S56.4,37.6,56.9,41z M89,21H36.7c-0.5,0-1,0.2-1.4,0.6L18.6,38.2
	c-0.8,0.8-2,0.8-2.8,0c-0.4-0.4-0.6-0.9-0.6-1.4c0-0.5,0.2-1,0.6-1.4l11-11c0.6-0.6,0.7-1.4,0.4-2.2c-0.3-0.7-1-1.2-1.8-1.2H11
	c-1.1,0-2-0.9-2-2c0-1.1,0.9-2,2-2h78c1.1,0,2,0.9,2,2C91,20.1,90.1,21,89,21z"/>
</svg>
