<?xml version="1.0" encoding="utf-8"?>
<!-- Generator: Adobe Illustrator 21.0.2, SVG Export Plug-In . SVG Version: 6.00 Build 0)  -->
<svg version="1.1" id="Layer_1" xmlns="http://www.w3.org/2000/svg" xmlns:xlink="http://www.w3.org/1999/xlink" x="0px" y="0px"
	 viewBox="0 0 100 100" style="enable-background:new 0 0 100 100;" xml:space="preserve">
<g>
	<path d="M90,16H39.8l-8.4-7.5c-0.8-0.7-2.1-0.7-2.8,0.2c-0.7,0.8-0.7,2.1,0.2,2.8l5.1,4.5H10c-1.7,0-3,1.3-3,3c0,1.7,1.3,3,3,3
		h15.3L13.2,36c-0.9,1-0.8,2.6,0.1,3.5c1.1,1,2.8,1,3.8-0.1L32.7,22H48v12c0,0.1,0,0.1,0,0.2c-3.7,0.8-6.5,3.9-7,7.8h17.9
		c-0.4-3.8-3.3-6.9-7-7.8c0-0.1,0-0.1,0-0.2V22h38c1.7,0,3-1.3,3-3C93,17.3,91.7,16,90,16z"/>
	<path d="M27,59c0,1.6,1.3,3,3,3h9.5c2-2.4,5.1-4,8.5-4s6.5,1.6,8.5,4H70c1.7,0,3-1.4,3-3c0-1.7-1.3-3-3-3H30C28.3,56,27,57.4,27,59
		z"/>
	<path d="M37,76h-7c-1.7,0-3,1.3-3,3c0,1.6,1.3,3,3,3h9.5C38.2,80.3,37.3,78.3,37,76z"/>
	<path d="M70,76H59c-0.2,2.3-1.1,4.3-2.5,6H70c1.7,0,3-1.4,3-3C73,77.4,71.7,76,70,76z"/>
	<path d="M60,86H40c-1.7,0-3,1.3-3,3c0,1.6,1.3,3,3,3h20c1.7,0,3-1.4,3-3C63,87.4,61.7,86,60,86z"/>
	<path d="M37,69c0-1,0.2-2,0.4-3H24c-1.7,0-3,1.3-3,3c0,1.6,1.3,3,3,3h13V69z"/>
	<path d="M76,66H58.6c0.3,1,0.4,2,0.4,3v3h17c1.7,0,3-1.4,3-3C79,67.4,77.7,66,76,66z"/>
	<path d="M41,69v6c0,3.9,3.1,7,7,7s7-3.1,7-7v-6c0-3.9-3.1-7-7-7S41,65.1,41,69z"/>
	<path d="M64,52c1.7,0,3-1.4,3-3c0-1.7-1.3-3-3-3H36c-1.7,0-3,1.3-3,3c0,1.6,1.3,3,3,3H64z"/>
</g>
</svg>
