<?xml version="1.0" encoding="utf-8"?>
<!-- Generator: Adobe Illustrator 21.0.2, SVG Export Plug-In . SVG Version: 6.00 Build 0)  -->
<svg version="1.1" id="Layer_1" xmlns="http://www.w3.org/2000/svg" xmlns:xlink="http://www.w3.org/1999/xlink" x="0px" y="0px"
	 viewBox="0 0 100 100" style="enable-background:new 0 0 100 100;" xml:space="preserve">
<path d="M79,55c-0.3,0-0.6,0-0.8,0l-8.5-41.3C69,11,66.6,9,63.7,9H53c-1.1,0-2,0.9-2,2c0,1.1,0.9,2,2,2h10.7c1,0,1.8,0.7,2,1.6
	L71.2,41H33.2l-3-6H34c1.1,0,2-0.9,2-2c0-1.1-0.9-2-2-2H22c-1.1,0-2,0.9-2,2c0,1.1,0.9,2,2,2h3.8l3.9,7.8L19.4,57.1
	C11.9,57.9,6,64.3,6,72c0,8.3,6.7,15,15,15c7.2,0,13.3-5.2,14.7-12h6.4c0.4,2.5,2,4.5,4.3,5.5L45.7,87H43c-1.1,0-2,0.9-2,2
	c0,1.1,0.9,2,2,2h11c1.1,0,2-0.9,2-2c0-1.1-0.9-2-2-2h-4.3l0.6-6.1c3.2-0.6,5.7-3.5,5.7-6.9c0-1.7-0.6-3.3-1.6-4.5l18-22.5l1.8,8.8
	C68.3,57.8,64,63.4,64,70c0,8.3,6.7,15,15,15s15-6.7,15-15C94,61.7,87.3,55,79,55z M21,83c-6.1,0-11-4.9-11-11s4.9-11,11-11
	s11,4.9,11,11S27.1,83,21,83z M49,77c-1.7,0-3-1.4-3-3c0-1.7,1.3-3,3-3s3,1.3,3,3C52,75.6,50.7,77,49,77z M51,67.3
	c-0.6-0.2-1.3-0.3-2-0.3c-2.8,0-5.2,1.6-6.3,4H36c-0.5-6.7-5.4-12.3-11.8-13.7L33,45h35.8L51,67.3z M79,81c-6.1,0-11-4.9-11-11
	c0-4.7,2.9-8.7,7-10.2l2,9.7c0.2,0.9,1,1.6,2,1.6c0.1,0,0.3,0,0.4,0c1.1-0.2,1.8-1.3,1.6-2.4L79,59h0c6.1,0,11,4.9,11,11
	S85.1,81,79,81z"/>
</svg>
