<?xml version="1.0" encoding="utf-8"?>
<!-- Generator: Adobe Illustrator 21.0.2, SVG Export Plug-In . SVG Version: 6.00 Build 0)  -->
<svg version="1.1" id="Layer_1" xmlns="http://www.w3.org/2000/svg" xmlns:xlink="http://www.w3.org/1999/xlink" x="0px" y="0px"
	 viewBox="0 0 100 100" style="enable-background:new 0 0 100 100;" xml:space="preserve">
<g>
	<path d="M50,57.9c-3.3,0-6,2.7-6,6s2.7,6,6,6s6-2.7,6-6S53.3,57.9,50,57.9z M50,65.9c-1.1,0-2-0.9-2-2c0-1.1,0.9-2,2-2s2,0.9,2,2
		C52,65,51.1,65.9,50,65.9z"/>
	<path d="M87.5,33.1L53.7,6.4c-2.2-1.7-5.2-1.7-7.4,0L12.5,33.1c0,0,0,0,0,0c-1.6,1.2-2.5,3.1-2.5,5.1c0,2.5,1.4,4.8,3.7,5.9
		c0.9,0.4,1.9,0.6,2.9,0.6c1.4,0,2.8-0.5,4-1.4l3.8-3L31.7,73c1,4.6,5.1,7.9,9.8,7.9H43v7c0,3.9,3.1,7,7,7s7-3.1,7-7v-7h1.6
		c4.7,0,8.8-3.3,9.8-7.9l7.2-32.8l3.8,3c2,1.6,4.6,1.8,6.9,0.8c2.3-1.1,3.7-3.3,3.7-5.9C89.9,36.2,89,34.3,87.5,33.1z M53,87.9
		c0,1.6-1.3,3-3,3s-3-1.4-3-3v-7h6V87.9z M64.4,72.2c-0.6,2.7-3.1,4.7-5.9,4.7H41.4c-2.8,0-5.3-2-5.9-4.7l-7.6-34.7L48.8,21
		c0.7-0.6,1.8-0.6,2.5,0l20.8,16.5L64.4,72.2z M84.5,40.4c-0.9,0.4-1.9,0.3-2.6-0.3L53.7,17.9c-2.2-1.7-5.2-1.7-7.4,0L18.1,40.1
		c-0.8,0.6-1.8,0.7-2.6,0.3c-0.9-0.4-1.4-1.3-1.4-2.2c0-0.8,0.3-1.5,1-2L48.8,9.5c0.7-0.6,1.8-0.6,2.5,0L85,36.2c0.6,0.5,1,1.2,1,2
		C85.9,39.2,85.4,40,84.5,40.4z"/>
	<path d="M39,39.9v5c0,3.3,2.7,6,6,6h10c3.3,0,6-2.7,6-6v-5c0-6.1-4.9-11-11-11S39,33.8,39,39.9z M57,39.9v5c0,1.1-0.9,2-2,2H45
		c-1.1,0-2-0.9-2-2v-5c0-3.9,3.1-7,7-7S57,36,57,39.9z"/>
</g>
</svg>
