<?xml version="1.0" encoding="utf-8"?>
<!-- Generator: Adobe Illustrator 21.0.2, SVG Export Plug-In . SVG Version: 6.00 Build 0)  -->
<svg version="1.1" id="Layer_1" xmlns="http://www.w3.org/2000/svg" xmlns:xlink="http://www.w3.org/1999/xlink" x="0px" y="0px"
	 viewBox="0 0 100 100" style="enable-background:new 0 0 100 100;" xml:space="preserve">
<g>
	<path d="M51.2,20c-0.7-0.6-1.8-0.6-2.5,0L29.1,35.6l-1.1,0.9l7.6,34.7c0.6,2.7,3.1,4.7,5.9,4.7H46v12c0,2.2,1.8,4,4,4s4-1.8,4-4
		v-12h4.6c2.8,0,5.3-2,5.9-4.7l7.6-34.7l-1.1-0.9L51.2,20z M50,66.9c-2.2,0-4-1.8-4-4c0-2.2,1.8-4,4-4s4,1.8,4,4
		C54,65.1,52.2,66.9,50,66.9z M59,43.9c0,2.2-1.8,4-4,4H45c-2.2,0-4-1.8-4-4v-5c0-1.2,0.2-2.3,0.6-3.3c1.3-3.3,4.6-5.7,8.4-5.7
		s7,2.3,8.4,5.7c0.4,1,0.6,2.1,0.6,3.3V43.9z"/>
	<path d="M85,35.2L51.2,8.5c-0.7-0.6-1.8-0.6-2.5,0L15,35.2c-0.6,0.5-1,1.2-1,2c0,1,0.5,1.8,1.4,2.2c0.9,0.4,1.9,0.3,2.6-0.3
		l28.2-22.3c2.2-1.7,5.2-1.7,7.4,0l28.2,22.3c0.8,0.6,1.8,0.7,2.6,0.3c0.9-0.4,1.4-1.3,1.4-2.2C85.9,36.4,85.6,35.7,85,35.2z"/>
</g>
</svg>
