<?xml version="1.0" encoding="utf-8"?>
<!-- Generator: Adobe Illustrator 21.0.2, SVG Export Plug-In . SVG Version: 6.00 Build 0)  -->
<svg version="1.1" id="Layer_1" xmlns="http://www.w3.org/2000/svg" xmlns:xlink="http://www.w3.org/1999/xlink" x="0px" y="0px"
	 viewBox="0 0 100 100" style="enable-background:new 0 0 100 100;" xml:space="preserve">
<g>
	<path d="M65.8,42.3c0,1.1-0.2,9.1-5,15.8c-1.1,1.6-2.5,3.2-4.3,4.5c-5.3,4.1-12.8,5.1-18.5,5.1c-2,0-3.8-0.1-5.2-0.2
		c-1-0.1-1.8-0.2-2.3-0.3L26.3,74h17.5v13h-4c-1.1,0-2,0.9-2,2c0,1.1,0.9,2,2,2h26c1.1,0,2-0.9,2-2c0-1.1-0.9-2-2-2h-8V72
		c1-0.3,2-0.8,3-1.3c5.5-2.8,10-7.8,10-16.8V33.3C67.7,35.3,65.8,38.6,65.8,42.3z M53.8,87h-6V73.9c1.8-0.1,3.9-0.4,6-0.8V87z"/>
	<path d="M20.6,82.9c-0.6,0.9-0.3,1.7-0.1,2c0.2,0.3,0.7,1.1,1.8,1.1h6.1c1,0,1.8-0.7,2-1.7l1.1-6.3h-7.6L20.6,82.9z"/>
	<path d="M74.8,18.5l-4-1.8c-0.1-2.1-1-4.1-2.5-5.5c-1.6-1.5-3.8-2.3-6-2.1c-1.8,0.1-3.4,0.8-4.7,2c-1.7,1.5-2.8,3.8-2.8,6.3v5
		c0,2-0.5,5.1-1.6,7L32.8,63.2l-0.1,0.1h0.1c4.5,0.5,15,0.9,21.3-4c3.6-2.8,5.7-6.9,6.7-10.7c0.7-2.5,1-4.8,1-6.5
		c0.1-5.5,3.2-10.5,8.1-13l0.9-0.5v-4l4-1.8l5-2.2L74.8,18.5z M64.8,18c-1.1,0-2-0.9-2-2c0-1.1,0.9-2,2-2s2,0.9,2,2
		C66.8,17.1,65.9,18,64.8,18z"/>
</g>
</svg>
