<?xml version="1.0" encoding="utf-8"?>
<!-- Generator: Adobe Illustrator 21.0.2, SVG Export Plug-In . SVG Version: 6.00 Build 0)  -->
<svg version="1.1" id="Layer_1" xmlns="http://www.w3.org/2000/svg" xmlns:xlink="http://www.w3.org/1999/xlink" x="0px" y="0px"
	 viewBox="0 0 100 100" style="enable-background:new 0 0 100 100;" xml:space="preserve">
<g>
	<circle cx="63.3" cy="16" r="2"/>
	<path d="M84.2,19l-11.8-6.5c-0.7-1.6-1.6-3.1-2.9-4.3C67,6,63.8,4.8,60.5,5c-6.3,0.4-11.2,5.8-11.2,12.3v5c0,1.5-0.4,3.9-1,5
		L19.6,74.9l-3.8,5.7c-1.2,1.8-1.3,4.2-0.3,6.2c1,2,3.1,3.2,5.3,3.2h6.1c3,0,5.4-2.1,5.9-5l1.2-7h8.3v13h-4c-1.1,0-2,0.9-2,2
		c0,1.1,0.9,2,2,2h26c1.1,0,2-0.9,2-2c0-1.1-0.9-2-2-2h-8V76.2c10.8-3.3,17-11.1,17-22.3V27.5l10.8-4.8c0.7-0.3,1.1-1,1.2-1.7
		C85.3,20.1,84.9,19.4,84.2,19z M28.9,84.3c-0.2,1-1,1.7-2,1.7h-6.1c-1.1,0-1.6-0.7-1.8-1.1c-0.2-0.3-0.5-1.2,0.1-2l3.3-4.9h7.6
		L28.9,84.3z M52.3,91h-6V77.9c2.1-0.1,4.1-0.3,6-0.7V91z M69.3,54c0,18.1-18.2,20-26,20H24.8l4.1-6.9c1.3,0.2,4.1,0.5,7.5,0.5
		c5.7,0,13.2-1,18.5-5.1c8.9-6.9,9.3-18.9,9.3-20.3c0-3.7,2-7,5-9V54z M69.3,28.8l-0.9,0.5c-4.9,2.5-8,7.5-8.1,13
		c0,4.2-1.7,12.5-7.7,17.1c-6.3,4.9-16.9,4.4-21.4,4l20.5-34.1c1.1-1.9,1.6-5,1.6-7v-5c0-4.4,3.3-8,7.5-8.3c2.2-0.1,4.4,0.6,6,2.1
		c1.6,1.5,2.5,3.6,2.5,5.8V28.8z M73.3,23.1v-5.5l5.5,3L73.3,23.1z"/>
</g>
</svg>
