<?xml version="1.0" encoding="utf-8"?>
<!-- Generator: Adobe Illustrator 21.0.2, SVG Export Plug-In . SVG Version: 6.00 Build 0)  -->
<svg version="1.1" id="Layer_1" xmlns="http://www.w3.org/2000/svg" xmlns:xlink="http://www.w3.org/1999/xlink" x="0px" y="0px"
	 viewBox="0 0 100 100" style="enable-background:new 0 0 100 100;" xml:space="preserve">
<g>
	<path d="M79,5H23c-4.4,0-8,3.6-8,8v73c0,5,4,9,9,9h55c3.3,0,6-2.7,6-6V11C85,7.7,82.3,5,79,5z M19,13c0-2.2,1.8-4,4-4h6v68h-5
		c-1.8,0-3.6,0.6-5,1.5V13z M81,89c0,1.1-0.9,2-2,2H24c-2.8,0-5-2.2-5-5s2.2-5,5-5h57V89z M81,77H33V9h46c1.1,0,2,0.9,2,2V77z"/>
	<path d="M73,55H41c-1.1,0-2,0.9-2,2c0,1.1,0.9,2,2,2h32c1.1,0,2-0.9,2-2C75,55.9,74.1,55,73,55z"/>
	<path d="M73,65H41c-1.1,0-2,0.9-2,2c0,1.1,0.9,2,2,2h32c1.1,0,2-0.9,2-2C75,65.9,74.1,65,73,65z"/>
	<path d="M51,47h12c3.3,0,6-2.7,6-6V29c0-0.6-0.3-1.2-0.7-1.5l-2.2-1.8c-1.5-1.2-2.5-2.8-2.9-4.7H67c1.1,0,2-0.9,2-2
		c0-1.1-0.9-2-2-2H47c-1.1,0-2,0.9-2,2c0,1.1,0.9,2,2,2h3.8c-0.4,1.8-1.4,3.5-2.9,4.7l-2.2,1.8c-0.5,0.4-0.7,1-0.7,1.5v12
		C45,44.3,47.7,47,51,47z M49,29.9l1.4-1.2c2.4-2,3.9-4.7,4.4-7.7h4.3c0.5,3,2,5.8,4.4,7.7l1.4,1.2V33H49V29.9z M49,37h16v4
		c0,1.1-0.9,2-2,2H51c-1.1,0-2-0.9-2-2V37z"/>
</g>
</svg>
