<?xml version="1.0" encoding="utf-8"?>
<!-- Generator: Adobe Illustrator 21.0.2, SVG Export Plug-In . SVG Version: 6.00 Build 0)  -->
<svg version="1.1" id="Layer_1" xmlns="http://www.w3.org/2000/svg" xmlns:xlink="http://www.w3.org/1999/xlink" x="0px" y="0px"
	 viewBox="0 0 100 100" style="enable-background:new 0 0 100 100;" xml:space="preserve">
<g>
	<path d="M29,77V9h-6c-2.2,0-4,1.8-4,4v65.5c1.4-1,3.2-1.5,5-1.5H29z"/>
	<path d="M79,9H33v68h48V11C81,9.9,80.1,9,79,9z M45,29c0-0.6,0.3-1.2,0.7-1.5l2.2-1.8c1.5-1.2,2.5-2.8,2.9-4.7H47c-1.1,0-2-0.9-2-2
		c0-1.1,0.9-2,2-2h20c1.1,0,2,0.9,2,2c0,1.1-0.9,2-2,2h-3.8c0.4,1.8,1.4,3.5,2.9,4.7l2.2,1.8c0.5,0.4,0.7,1,0.7,1.5v12
		c0,3.3-2.7,6-6,6H51c-3.3,0-6-2.7-6-6V29z M73,69H41c-1.1,0-2-0.9-2-2c0-1.1,0.9-2,2-2h32c1.1,0,2,0.9,2,2C75,68.1,74.1,69,73,69z
		 M73,59H41c-1.1,0-2-0.9-2-2c0-1.1,0.9-2,2-2h32c1.1,0,2,0.9,2,2C75,58.1,74.1,59,73,59z"/>
	<path d="M65,29.9l-1.4-1.2c-2.4-2-3.9-4.7-4.4-7.7h-4.3c-0.5,3-2,5.8-4.4,7.7L49,29.9V33h16V29.9z"/>
	<path d="M51,43h12c1.1,0,2-0.9,2-2v-4H49v4C49,42.1,49.9,43,51,43z"/>
	<path d="M19,86c0,2.8,2.2,5,5,5h55c1.1,0,2-0.9,2-2v-8H24C21.2,81,19,83.2,19,86z"/>
</g>
</svg>
