<?xml version="1.0" encoding="utf-8"?>
<!-- Generator: Adobe Illustrator 21.0.2, SVG Export Plug-In . SVG Version: 6.00 Build 0)  -->
<svg version="1.1" id="Layer_1" xmlns="http://www.w3.org/2000/svg" xmlns:xlink="http://www.w3.org/1999/xlink" x="0px" y="0px"
	 viewBox="0 0 100 100" style="enable-background:new 0 0 100 100;" xml:space="preserve">
<g>
	<path d="M13.8,68.9c2.7,0,5.4-1,7.5-3.1c0.7-0.7,1.5-1.2,2.5-1.5c2.4-0.8,5-0.2,6.8,1.5c4.1,4.1,10.8,4.1,14.9,0
		c2.5-2.5,6.7-2.5,9.2,0c4.1,4.1,10.8,4.1,14.9,0c1.8-1.8,4.4-2.4,6.8-1.5c0.9,0.3,1.8,0.8,2.5,1.5c4.1,4.1,10.8,4.1,14.9,0
		c0.8-0.8,0.8-2,0-2.8c-0.8-0.8-2-0.8-2.8,0c-2.5,2.5-6.7,2.5-9.2,0c-1.1-1.1-2.5-2-4-2.5c-1.7-0.6-3.4-0.7-5.1-0.4L62.2,36.7
		c-1.1-2.5-3.5-4.4-6.3-4.7l-6-0.8c-0.7-0.1-1.3-0.5-1.6-1.2l-4.7-10.7c-0.4-1-1.6-1.5-2.6-1L28.2,24c-1,0.4-1.5,1.6-1,2.6l4.7,10.7
		c0.3,0.6,0.2,1.4-0.2,2L28.3,44c-1.7,2.4-1.9,5.5-0.6,8.2l5,10.3c-2.8-2.5-6.8-3.3-10.4-2c-1.5,0.5-2.8,1.4-4,2.5
		c-1.2,1.2-2.9,1.9-4.6,1.9c-1.8,0-3.4-0.7-4.6-1.9c-0.8-0.8-2-0.8-2.8,0c-0.8,0.8-0.8,2,0,2.8C8.4,67.8,11.1,68.9,13.8,68.9z
		 M31.7,26.8l9.1-4l1.7,3.8l-9.1,4.1L31.7,26.8z M31.3,50.4c-0.6-1.3-0.5-2.9,0.3-4.1l3.4-4.8c1.2-1.7,1.4-4,0.6-5.9L35,34.4
		l9.1-4.1l0.6,1.5c0.9,1.9,2.7,3.3,4.7,3.5l5.9,0.8c1.4,0.2,2.6,1.1,3.2,2.3l10.1,23.1c-0.7,0.4-1.4,0.9-2,1.6
		c-2.5,2.5-6.7,2.5-9.2,0c-4.1-4.1-10.8-4.1-14.9,0c-1.2,1.1-2.6,1.8-4.2,1.9L31.3,50.4z"/>
	<path d="M93.7,75.9c-0.8-0.8-2-0.8-2.8,0c-2.5,2.5-6.7,2.5-9.2,0c-1.1-1.1-2.5-2-4-2.5c-3.8-1.3-8.1-0.4-10.9,2.5
		c-2.5,2.5-6.7,2.5-9.2,0c-4.1-4.1-10.8-4.1-14.9,0c-2.5,2.5-6.7,2.5-9.2,0c-2.8-2.8-7.1-3.8-10.9-2.5c-1.5,0.5-2.8,1.4-4,2.5
		c-1.2,1.2-2.9,1.9-4.6,1.9c-1.7,0-3.4-0.7-4.6-1.9c-0.8-0.8-2-0.8-2.8,0c-0.8,0.8-0.8,2,0,2.8c2.1,2.1,4.8,3.1,7.4,3.1
		c2.7,0,5.4-1,7.4-3.1c0.7-0.7,1.5-1.2,2.5-1.5c2.4-0.8,5-0.2,6.8,1.5c4.1,4.1,10.8,4.1,14.9,0c2.5-2.5,6.7-2.5,9.2,0
		c4.1,4.1,10.8,4.1,14.9,0c1.8-1.8,4.4-2.4,6.8-1.5c0.9,0.3,1.8,0.8,2.5,1.5c4.1,4.1,10.8,4.1,14.9,0C94.4,78,94.4,76.7,93.7,75.9z"
		/>
</g>
</svg>
