<?xml version="1.0" encoding="utf-8"?>
<!-- Generator: Adobe Illustrator 21.0.2, SVG Export Plug-In . SVG Version: 6.00 Build 0)  -->
<svg version="1.1" id="Layer_1" xmlns="http://www.w3.org/2000/svg" xmlns:xlink="http://www.w3.org/1999/xlink" x="0px" y="0px"
	 viewBox="0 0 100 100" style="enable-background:new 0 0 100 100;" xml:space="preserve">
<g>
	<path d="M90.8,75.6c-2.5,2.5-6.7,2.5-9.2,0c-1.1-1.1-2.5-2-4-2.5c-3.8-1.3-8.1-0.4-10.9,2.5c-2.5,2.5-6.7,2.5-9.2,0
		c-4.1-4.1-10.8-4.1-14.9,0c-2.5,2.5-6.7,2.5-9.2,0c-2.8-2.8-7.1-3.8-10.9-2.5c-1.5,0.5-2.8,1.4-4,2.5c-1.2,1.2-2.9,1.9-4.6,1.9
		c-1.7,0-3.4-0.7-4.6-1.9c-0.8-0.8-2-0.8-2.8,0c-0.8,0.8-0.8,2,0,2.8c2.1,2.1,4.8,3.1,7.4,3.1c2.7,0,5.4-1,7.4-3.1
		c0.7-0.7,1.5-1.2,2.5-1.5c2.4-0.8,5-0.2,6.8,1.5c4.1,4.1,10.8,4.1,14.9,0c2.5-2.5,6.7-2.5,9.2,0c4.1,4.1,10.8,4.1,14.9,0
		c1.8-1.8,4.4-2.4,6.8-1.5c0.9,0.3,1.8,0.8,2.5,1.5c4.1,4.1,10.8,4.1,14.9,0c0.8-0.8,0.8-2,0-2.8S91.6,74.8,90.8,75.6z"/>
	<path d="M13.8,68.5c2.7,0,5.4-1,7.4-3.1c0.7-0.7,1.5-1.2,2.5-1.5c2.4-0.8,5-0.2,6.8,1.5c4.1,4.1,10.8,4.1,14.9,0
		c2.5-2.5,6.7-2.5,9.2,0c4.1,4.1,10.8,4.1,14.9,0c1.8-1.8,4.4-2.4,6.8-1.5c0.9,0.3,1.8,0.8,2.5,1.5c4.1,4.1,10.8,4.1,14.9,0
		c0.8-0.8,0.8-2,0-2.8s-2-0.8-2.8,0c-2.5,2.5-6.7,2.5-9.2,0c-1.1-1.1-2.5-2-4-2.5c-0.3-0.1-0.5-0.1-0.8-0.2L65.4,35.1
		c-0.9-1.9-2.6-3.2-4.7-3.4l-6-0.8c-1.4-0.2-2.6-1.1-3.2-2.4l-3.9-8.9c-0.4-1-1.6-1.5-2.6-1l-9.2,4c-1,0.4-1.5,1.6-1,2.6l3.9,8.9
		c0.6,1.3,0.4,2.8-0.4,3.9L35,42.9c-1.3,1.8-1.5,4.1-0.5,6.1l7.1,14.4c-2.5,1.7-6,1.5-8.3-0.8c-2.8-2.8-7.1-3.8-10.9-2.5
		c-1.5,0.5-2.8,1.4-4,2.5c-1.2,1.2-2.9,1.9-4.6,1.9c-1.7,0-3.4-0.7-4.6-1.9c-0.8-0.8-2-0.8-2.8,0c-0.8,0.8-0.8,2,0,2.8
		C8.4,67.5,11.1,68.5,13.8,68.5z"/>
</g>
</svg>
