<?xml version="1.0" encoding="utf-8"?>
<!-- Generator: Adobe Illustrator 23.0.1, SVG Export Plug-In . SVG Version: 6.00 Build 0)  -->
<svg version="1.1" id="Layer_1" xmlns="http://www.w3.org/2000/svg" xmlns:xlink="http://www.w3.org/1999/xlink" x="0px" y="0px"
	 viewBox="0 0 100 100" style="enable-background:new 0 0 100 100;" xml:space="preserve">
<style type="text/css">
	.st0{fill:#000000;}
</style>
<path class="st0" d="M94,48.3l-17-11c-0.6-0.4-1.4-0.4-2.1-0.1c-0.6,0.3-1,1-1,1.8v9h-8.2c4.7-8.3,3-19.1-4.5-25.5l-5.5-4.7
	c-1.4-1.2-2.1-3-1.9-4.8c0.2-1.8,1.3-3.4,3-4.2c1-0.5,1.4-1.7,0.9-2.7s-1.7-1.4-2.7-0.9c-2.8,1.4-4.8,4.1-5.2,7.3
	c-0.1,0.8-0.1,1.7,0,2.5L19.6,39.1H7.1c-0.7,0-1.4,0.4-1.8,1.1c-0.3,0.6-0.3,1.4,0.1,2l5.2,7.8l-5.2,7.8c-0.4,0.6-0.5,1.4-0.1,2.1
	c0.3,0.6,1,1.1,1.8,1.1h12.5L50,85c-0.1,0.8-0.1,1.7,0,2.5c0.4,3.1,2.3,5.9,5.2,7.3c0.3,0.1,0.6,0.2,0.9,0.2c0.7,0,1.4-0.4,1.8-1.1
	c0.5-1,0.1-2.2-0.9-2.7c-1.7-0.8-2.8-2.4-3-4.2c-0.2-1.9,0.5-3.6,1.9-4.8l5.5-4.7c7.5-6.4,9.2-17.2,4.5-25.5h8.2v9
	c0,0.7,0.4,1.4,1,1.8c0.3,0.2,0.6,0.2,1,0.2c0.4,0,0.8-0.1,1.1-0.3l17-11c0.6-0.4,0.9-1,0.9-1.7S94.6,48.7,94,48.3z M19.2,56.9h-8.4
	l3.9-5.8c0.4-0.7,0.4-1.5,0-2.2l-3.9-5.8h8.4l4.7,6.9L19.2,56.9z M58.6,74.5l-5.5,4.7c-0.7,0.6-1.2,1.2-1.7,1.9L22.9,58.5l4.4-6.5
	H61C66.2,58.9,65.3,68.8,58.6,74.5z M61,48H27.3l-4.4-6.5l28.5-22.6c0.5,0.7,1,1.4,1.7,1.9l5.5,4.7C65.3,31.2,66.2,41.1,61,48z
	 M77.9,57.3V42.7L89.3,50L77.9,57.3z"/>
</svg>
