<?xml version="1.0" encoding="utf-8"?>
<!-- Generator: Adobe Illustrator 21.0.2, SVG Export Plug-In . SVG Version: 6.00 Build 0)  -->
<svg version="1.1" id="Layer_1" xmlns="http://www.w3.org/2000/svg" xmlns:xlink="http://www.w3.org/1999/xlink" x="0px" y="0px"
	 viewBox="0 0 100 100" style="enable-background:new 0 0 100 100;" xml:space="preserve">
<g>
	<path d="M51.3,15h-2.6C30.4,15,14.3,27.5,9.5,45h80.9C85.7,27.5,69.6,15,51.3,15z M33.5,28.6c-4.2,3-7.8,6.8-10.6,11.1
		c-0.4,0.6-1,0.9-1.7,0.9c-0.4,0-0.7-0.1-1.1-0.3c-0.9-0.6-1.2-1.8-0.6-2.8c3.1-4.8,7-8.9,11.7-12.2c0.9-0.6,2.2-0.4,2.8,0.5
		C34.7,26.7,34.4,27.9,33.5,28.6z M61,41c-1.1,0-2-0.9-2-2c0-1.1,0.9-2,2-2s2,0.9,2,2C63,40.1,62.1,41,61,41z M69,31
		c-1.1,0-2-0.9-2-2c0-1.1,0.9-2,2-2s2,0.9,2,2C71,30.1,70.1,31,69,31z M77,41c-1.1,0-2-0.9-2-2c0-1.1,0.9-2,2-2s2,0.9,2,2
		C79,40.1,78.1,41,77,41z"/>
	<path d="M13,49c-1.1,0-2,0.9-2,2v2c0,1.1,0.9,2,2,2h41.7c1.9,0,3.7,1.2,4.6,3c0.6,1.2,2.1,2,3.8,2c1.3,0,2.6-0.5,3.4-1.4
		c0.4-0.5,1-0.7,1.7-0.7c0.6,0,1.2,0.4,1.5,0.9c0.9,1.3,2.6,2.2,4.4,2.2c2.2,0,4.1-1.2,4.8-2.8c0.8-1.9,2.6-3.2,4.6-3.2c0,0,0,0,0,0
		H87c1.1,0,2-0.9,2-2v-2c0-1.1-0.9-2-2-2H13z"/>
	<path d="M14,69h1.8c1.7,0,3.3,0.7,4.4,1.9l3,3.3l3.8-3.5c1.1-1,2.6-1.6,4.1-1.6L86,69c0,0,0,0,0,0c2.8,0,5-2.2,5-5s-2.2-5-5-5h-2.6
		c-0.4,0-0.8,0.3-1,0.7C81.2,62.9,77.8,65,74,65c-2.4,0-4.7-0.9-6.3-2.3c-1.3,0.8-3,1.3-4.7,1.3c-3.3,0-6.2-1.7-7.4-4.4
		C55.4,59.2,55,59,54.7,59H14c-2.8,0-5,2.2-5,5S11.2,69,14,69z"/>
	<path d="M29.7,73.5l-5.3,4.9C24.1,78.8,23.6,79,23,79c-0.5,0-1-0.2-1.4-0.6l-4.4-4.7c-0.4-0.4-0.9-0.6-1.5-0.6H9.1
		c1,6.8,6.8,12,13.9,12h54c7,0,12.9-5.2,13.9-12l-59.8,0C30.6,73,30.1,73.2,29.7,73.5z"/>
</g>
</svg>
