<?xml version="1.0" encoding="utf-8"?>
<!-- Generator: Adobe Illustrator 21.0.2, SVG Export Plug-In . SVG Version: 6.00 Build 0)  -->
<svg version="1.1" id="Layer_1" xmlns="http://www.w3.org/2000/svg" xmlns:xlink="http://www.w3.org/1999/xlink" x="0px" y="0px"
	 viewBox="0 0 100 100" style="enable-background:new 0 0 100 100;" xml:space="preserve">
<g>
	<path d="M93,62.8h-5v-4.5c0-3.5-1.5-6.7-4.1-9c0-0.3,0.1-0.7,0.1-1c0-5-4.5-9-10-9c-0.4,0-0.8,0-1.3,0.1c-2-3.7-6.1-6.1-10.7-6.1
		s-8.7,2.4-10.7,6.1h-0.1c-0.4,0-0.8-0.1-1.2-0.1c-0.4,0-0.8,0-1.2,0.1h-0.1c-2-3.7-6.1-6.1-10.7-6.1s-8.7,2.4-10.7,6.1
		c-0.4-0.1-0.8-0.1-1.3-0.1c-5.5,0-10,4-10,9c0,0.3,0,0.7,0.1,1c-2.6,2.3-4.1,5.5-4.1,9v4.5H7c-1.1,0-2,0.9-2,2c0,1.1,0.9,2,2,2h86
		c1.1,0,2-0.9,2-2C95,63.6,94.1,62.8,93,62.8z M36,58.2v4.5H16v-4.5c0-2.6,1.3-5.1,3.4-6.6c0.7-0.5,1-1.4,0.8-2.2
		c-0.1-0.4-0.2-0.8-0.2-1.2c0-2.8,2.7-5,6-5c0.7,0,1.3,0.1,1.9,0.3c1,0.3,2.1-0.3,2.4-1.3c1-2.9,4.2-5,7.7-5c2.8,0,5.3,1.3,6.8,3.3
		C41.9,42.2,40,45,40,48.2c0,0.3,0,0.7,0.1,1C37.5,51.5,36,54.8,36,58.2z M84,62.8H40v-4.5c0-2.6,1.3-5.1,3.4-6.6
		c0.7-0.5,1-1.4,0.8-2.2c-0.1-0.4-0.2-0.8-0.2-1.2c0-2.8,2.7-5,6-5c0.7,0,1.3,0.1,1.9,0.3c1,0.3,2.1-0.3,2.4-1.3c1-2.9,4.2-5,7.7-5
		s6.7,2,7.7,5c0.4,1,1.4,1.6,2.4,1.3c0.6-0.2,1.3-0.3,1.9-0.3c3.3,0,6,2.2,6,5c0,0.4-0.1,0.8-0.2,1.2c-0.2,0.8,0.1,1.7,0.8,2.2
		c2.1,1.5,3.4,4,3.4,6.6V62.8z"/>
	<circle cx="51" cy="56.8" r="2"/>
	<circle cx="57" cy="49.8" r="2"/>
	<circle cx="69" cy="49.8" r="2"/>
	<circle cx="63" cy="56.8" r="2"/>
	<circle cx="75" cy="56.8" r="2"/>
</g>
</svg>
