<?xml version="1.0" encoding="utf-8"?>
<!-- Generator: Adobe Illustrator 21.0.2, SVG Export Plug-In . SVG Version: 6.00 Build 0)  -->
<svg version="1.1" id="Layer_1" xmlns="http://www.w3.org/2000/svg" xmlns:xlink="http://www.w3.org/1999/xlink" x="0px" y="0px"
	 viewBox="0 0 100 100" style="enable-background:new 0 0 100 100;" xml:space="preserve">
<path d="M93,60.8h-9v-4.5c0-2.6-1.3-5.1-3.4-6.6c-0.7-0.5-1-1.4-0.8-2.2c0.1-0.4,0.2-0.8,0.2-1.2c0-2.8-2.7-5-6-5
	c-0.7,0-1.3,0.1-1.9,0.3c-1,0.3-2.1-0.3-2.4-1.3c-1-2.9-4.2-5-7.7-5s-6.7,2-7.7,5c-0.4,1-1.4,1.6-2.4,1.3c-0.6-0.2-1.3-0.3-1.9-0.3
	c-3.3,0-6,2.2-6,5c0,0.4,0.1,0.8,0.2,1.2c0.2,0.8-0.1,1.7-0.8,2.2c-2.1,1.5-3.4,4-3.4,6.6v4.5h-4v-4.5c0-3.5,1.5-6.7,4.1-9
	c0-0.3-0.1-0.7-0.1-1c0-3.2,1.9-6.1,4.8-7.7c-1.4-2-4-3.3-6.8-3.3c-3.5,0-6.7,2-7.7,5c-0.4,1-1.4,1.5-2.4,1.3
	c-0.6-0.2-1.3-0.3-1.9-0.3c-3.3,0-6,2.2-6,5c0,0.4,0.1,0.8,0.2,1.2c0.2,0.8-0.1,1.7-0.8,2.2c-2.1,1.5-3.4,4-3.4,6.6v4.5H7
	c-1.1,0-2,0.9-2,2c0,1.1,0.9,2,2,2h86c1.1,0,2-0.9,2-2C95,61.6,94.1,60.8,93,60.8z M51,56.8c-1.1,0-2-0.9-2-2c0-1.1,0.9-2,2-2
	s2,0.9,2,2C53,55.8,52.1,56.8,51,56.8z M57,49.8c-1.1,0-2-0.9-2-2c0-1.1,0.9-2,2-2s2,0.9,2,2C59,48.8,58.1,49.8,57,49.8z M63,56.8
	c-1.1,0-2-0.9-2-2c0-1.1,0.9-2,2-2s2,0.9,2,2C65,55.8,64.1,56.8,63,56.8z M69,49.8c-1.1,0-2-0.9-2-2c0-1.1,0.9-2,2-2s2,0.9,2,2
	C71,48.8,70.1,49.8,69,49.8z M75,56.8c-1.1,0-2-0.9-2-2c0-1.1,0.9-2,2-2s2,0.9,2,2C77,55.8,76.1,56.8,75,56.8z"/>
</svg>
