<?xml version="1.0" encoding="utf-8"?>
<!-- Generator: Adobe Illustrator 21.0.2, SVG Export Plug-In . SVG Version: 6.00 Build 0)  -->
<svg version="1.1" id="Layer_1" xmlns="http://www.w3.org/2000/svg" xmlns:xlink="http://www.w3.org/1999/xlink" x="0px" y="0px"
	 viewBox="0 0 100 100" style="enable-background:new 0 0 100 100;" xml:space="preserve">
<g>
	<path d="M23,73.2c0,3.9,3.1,7,7,7s7-3.1,7-7v-5c0-1.1-0.9-2-2-2h-5C26.1,66.2,23,69.3,23,73.2z M33,73.2c0,1.6-1.3,3-3,3
		s-3-1.4-3-3c0-1.7,1.3-3,3-3h3V73.2z"/>
	<path d="M69,66.2h-5c-1.1,0-2,0.9-2,2v5c0,3.9,3.1,7,7,7s7-3.1,7-7S72.9,66.2,69,66.2z M69,76.2c-1.7,0-3-1.4-3-3v-3h3
		c1.7,0,3,1.3,3,3C72,74.8,70.7,76.2,69,76.2z"/>
	<path d="M95,41.2c0-11-9-20-20-20c-1.8,0-3.6,0.3-5.3,0.7c-0.2,0-0.3,0.1-0.5,0.2c-6,1.8-10.9,6.5-13,12.5
		c-0.6-0.3-1.2-0.5-1.8-0.7l2.5-10.6c1.5-6.4,6.7-10.7,11.6-9.6c1.1,0.3,2.2-0.4,2.4-1.5c0.3-1.1-0.4-2.2-1.5-2.4
		C62.4,8.2,55,13.8,53,22.4l-2.6,10.8c-0.2,0-0.5,0-0.7,0L47,22.4c-1-4.1-3.2-7.6-6.2-10c-3.1-2.5-6.8-3.4-10.2-2.5
		c-1.1,0.3-1.7,1.3-1.5,2.4c0.3,1.1,1.3,1.7,2.4,1.5c2.2-0.5,4.7,0.1,6.8,1.8c2.3,1.8,4,4.6,4.8,7.8l2.5,10.6
		c-0.6,0.2-1.2,0.5-1.8,0.8c-2.1-6.1-7-10.7-13.1-12.6c-0.2-0.1-0.3-0.1-0.5-0.2c-1.7-0.5-3.5-0.7-5.3-0.7c-11,0-20,9-20,20
		c0,9.4,6.5,17.2,15.2,19.4c-3.8,2.9-6.2,7.5-6.2,12.6c0,8.8,7.2,16,16,16c5.4,0,10.2-2.7,13.1-6.8c0.3,1.6,0.8,3.2,1.5,4.7
		c1,2.1,3.1,3.3,5.4,3.3c1.2,0,2.2-0.3,3.2-0.9c0.9-0.6,1.7-1.4,2.2-2.4c0.8-1.5,1.2-3.1,1.5-4.7c2.9,4.1,7.7,6.8,13.1,6.8
		c8.8,0,16-7.2,16-16c0-5.1-2.4-9.7-6.2-12.6C88.5,58.4,95,50.6,95,41.2z M70,26c6.5,2.1,11,8.3,11,15.2c0,8.8-7.2,16-16,16h-5.2
		c2.7-2.6,4.2-6.2,4.2-10c0-3.8-1.5-7.4-4.3-10.1c-0.1,0-0.1-0.1-0.1-0.1C61,31.7,65,27.7,70,26z M30,26c5,1.7,9,5.8,10.5,11
		c-2.7,2.5-4.4,6-4.5,9.8c-0.1,3.9,1.4,7.6,4.2,10.3H35c-8.8,0-16-7.2-16-16C19,34.3,23.5,28.2,30,26z M9,41.2
		c0-8.1,6-14.8,13.8-15.8C18,29.1,15,34.9,15,41.2c0,6.5,3.1,12.2,7.8,15.8C15,56,9,49.3,9,41.2z M42,73.2c0,6.6-5.4,12-12,12
		s-12-5.4-12-12s5.4-12,12-12h12V73.2z M56.2,55c-1.4,1.1-2.2,2.7-2.3,4.4l-0.7,20.3c-0.1,2-0.5,3.9-1.4,5.6c-0.2,0.5-0.6,0.8-1,0.9
		c-0.4,0.2-0.7,0.2-0.8,0.2c-0.3,0-1.3-0.1-1.8-1.1c-0.9-1.8-1.3-3.7-1.4-5.6l-0.7-20.1c-0.1-1.8-0.9-3.5-2.2-4.5
		c-2.5-2-3.9-4.9-3.8-8.1c0.1-5.2,4.4-9.6,9.6-9.8c0.1,0,0.3,0,0.4,0c2.6,0,5,1,6.9,2.8c2,1.9,3.1,4.5,3.1,7.2
		C60,50.3,58.6,53.1,56.2,55z M82,73.2c0,6.6-5.4,12-12,12s-12-5.4-12-12v-12h12C76.6,61.2,82,66.6,82,73.2z M77.2,57
		c4.8-3.7,7.8-9.4,7.8-15.8c0-6.3-3-12.1-7.8-15.8C85,26.4,91,33.1,91,41.2C91,49.3,85,56,77.2,57z"/>
</g>
</svg>
