<?xml version="1.0" encoding="utf-8"?>
<!-- Generator: Adobe Illustrator 21.0.2, SVG Export Plug-In . SVG Version: 6.00 Build 0)  -->
<svg version="1.1" id="Layer_1" xmlns="http://www.w3.org/2000/svg" xmlns:xlink="http://www.w3.org/1999/xlink" x="0px" y="0px"
	 viewBox="0 0 100 100" style="enable-background:new 0 0 100 100;" xml:space="preserve">
<path d="M87.1,30.4c-0.6-2-1.9-3.8-3.8-4.8c-3.9-2.1-8.7-0.7-10.9,3.1c0,0.1-0.1,0.2-0.1,0.3l-2.6,7.4c-1.8,5.1-4.6,9.9-8.2,14
	l1.9-19.1h4.8c1.1,0,2-0.9,2-2c0-1.1-0.9-2-2-2h-4.4c0.3-3.4-0.6-6.7-2.4-9.5l3.4-3.1c0.8-0.8,0.9-2,0.1-2.8s-2-0.9-2.8-0.1l-3.3,3
	c-2.1-1.8-4.8-3-7.5-3.4V7.2c0-1.1-0.9-2-2-2c-1.1,0-2,0.9-2,2v4.1c-2.8,0.4-5.5,1.6-7.7,3.5L36,11.8c-0.8-0.8-2.1-0.7-2.8,0.1
	s-0.7,2.1,0.1,2.8l3.5,3.2c-1.8,2.7-2.6,6-2.3,9.3h-4.4c-1.1,0-2,0.9-2,2c0,1.1,0.9,2,2,2h4.8l3,30.3c-3.2-3.9-5.8-8.3-7.5-13.1
	L27.7,41c0-0.1-0.1-0.2-0.1-0.3c-2.1-3.9-7-5.3-10.9-3.1c-3.9,2.1-5.3,7-3.1,10.9l1.2,2.1c5,9,13.6,15.4,23.7,17.5l0.3,2.7H34
	c-3.3,0-6,2.7-6,6c0,2.8,1.9,5.1,4.5,5.8l2.7,8.1c0.8,2.5,3.1,4.1,5.7,4.1h16.2c2.6,0,4.9-1.7,5.7-4.1l2.7-8.1
	c2.6-0.7,4.5-3,4.5-5.8c0-3.3-2.7-6-6-6h-4.6l1.4-14.6c0,0,0.1,0,0.1,0c10.3-2,19.2-8.4,24.3-17.6l1.2-2.1
	C87.4,34.6,87.7,32.5,87.1,30.4z M18.2,48.6l-1.1-2.1c-1.1-1.9-0.4-4.4,1.6-5.4c0.6-0.3,1.3-0.5,1.9-0.5c1.4,0,2.7,0.7,3.4,1.9
	l2.5,7.2c1.6,4.5,3.9,8.7,6.7,12.5C27,59.5,21.7,54.8,18.2,48.6z M59,89.4c-0.3,0.8-1,1.4-1.9,1.4H40.9c-0.9,0-1.6-0.5-1.9-1.4
	l-2.2-6.6h24.5L59,89.4z M64,74.8c1.1,0,2,0.9,2,2c0,1.1-0.9,2-2,2H34c-1.1,0-2-0.9-2-2c0-1.1,0.9-2,2-2H64z M59.7,27l-4.3,43.8
	h-4.3V47.2c0-1.1-0.9-2-2-2c-1.1,0-2,0.9-2,2v23.5h-4.3L38.4,27c-0.3-3,0.7-6,2.7-8.2c2-2.2,4.9-3.5,7.9-3.5s5.9,1.3,7.9,3.5
	C59,21,60,24,59.7,27z M82.9,34.6l-1.1,2.1c-3.4,6.2-8.7,10.9-15,13.6c2.8-3.8,5.1-8,6.7-12.5l2.5-7.2c1.1-1.8,3.5-2.5,5.4-1.4
	c0.9,0.5,1.6,1.4,1.9,2.4C83.5,32.5,83.4,33.6,82.9,34.6z"/>
</svg>
