<?xml version="1.0" encoding="utf-8"?>
<!-- Generator: Adobe Illustrator 21.0.2, SVG Export Plug-In . SVG Version: 6.00 Build 0)  -->
<svg version="1.1" id="Layer_1" xmlns="http://www.w3.org/2000/svg" xmlns:xlink="http://www.w3.org/1999/xlink" x="0px" y="0px"
	 viewBox="0 0 100 100" style="enable-background:new 0 0 100 100;" xml:space="preserve">
<path d="M78.8,34.4c-2.9-1.6-6.5-0.6-8.2,2.3l-2.6,7.4c-2,5.5-5,10.6-8.9,14.9l2.7-26.9c0.2,0.1,0.5,0.2,0.8,0.2h6c1.1,0,2-0.9,2-2
	c0-1.1-0.9-2-2-2h-6c-0.1,0-0.3,0-0.4,0l0-0.1c0.3-3-0.5-5.8-2-8.1c0.2-0.1,0.3-0.2,0.5-0.3l4.4-4.1c0.8-0.8,0.9-2,0.1-2.8
	s-2-0.9-2.8-0.1L58,16.8c-0.1,0.1-0.2,0.3-0.3,0.4c-1.7-1.4-3.8-2.4-6.1-2.8c0-0.1,0-0.1,0-0.2v-6c0-1.1-0.9-2-2-2c-1.1,0-2,0.9-2,2
	v6c0,0.1,0,0.1,0,0.2c-2.4,0.4-4.5,1.4-6.3,2.9c-0.1-0.2-0.2-0.4-0.4-0.5l-4.4-4.1c-0.8-0.8-2.1-0.7-2.8,0.1s-0.7,2.1,0.1,2.8
	l4.4,4.1c0.2,0.2,0.4,0.3,0.7,0.4c-1.5,2.3-2.2,5.1-1.9,8l0,0.1c-0.1,0-0.2,0-0.4,0h-6c-1.1,0-2,0.9-2,2c0,1.1,0.9,2,2,2h6
	c0.3,0,0.5,0,0.8-0.2l3.4,34.8c-3.9-4.3-6.9-9.4-8.8-14.9l-2.6-7.4c-1.6-2.9-5.3-3.9-8.2-2.3c-2,1.1-3.1,3.1-3.1,5.3
	c0,1,0.2,2,0.8,2.9l1.1,2.1c4.5,8.1,12.1,13.9,21,16.1l0.5,5h-6.9c-2.2,0-4,1.8-4,4c0,2.2,1.8,4,4,4l3.1,9.3
	c0.5,1.6,2.1,2.7,3.8,2.7h16.2c1.7,0,3.2-1.1,3.8-2.7l3.1-9.3c2.2,0,4-1.8,4-4c0-2.2-1.8-4-4-4h-6.8l1.3-13
	c8.9-2.2,16.5-8.1,21-16.2l1.1-2.1C82.8,39.6,81.7,36,78.8,34.4z M51.6,73.8h-4V48.2c0-1.1,0.9-2,2-2c1.1,0,2,0.9,2,2V73.8z"/>
</svg>
