<?xml version="1.0" encoding="utf-8"?>
<!-- Generator: Adobe Illustrator 21.0.2, SVG Export Plug-In . SVG Version: 6.00 Build 0)  -->
<svg version="1.1" id="Layer_1" xmlns="http://www.w3.org/2000/svg" xmlns:xlink="http://www.w3.org/1999/xlink" x="0px" y="0px"
	 viewBox="0 0 100 100" style="enable-background:new 0 0 100 100;" xml:space="preserve">
<g>
	<path d="M17,11.8c0-1.7,1.3-3,3-3s3,1.3,3,3v1h4v-1c0-3.9-3.1-7-7-7s-7,3.1-7,7v1h4V11.8z"/>
	<path d="M37,11.8c0-1.7,1.3-3,3-3s3,1.3,3,3v1h4v-1c0-3.9-3.1-7-7-7s-7,3.1-7,7v1h4V11.8z"/>
	<path d="M57,11.8c0-1.7,1.3-3,3-3s3,1.3,3,3v1h4v-1c0-3.9-3.1-7-7-7s-7,3.1-7,7v1h4V11.8z"/>
	<path d="M73,18.8c0-1.1-0.9-2-2-2h-4v4c0,1.1-0.9,2-2,2c-1.1,0-2-0.9-2-2v-4H47v4c0,1.1-0.9,2-2,2s-2-0.9-2-2v-4H27v4
		c0,1.1-0.9,2-2,2s-2-0.9-2-2v-4H9c-1.1,0-2,0.9-2,2v8h66V18.8z"/>
	<path d="M53.9,49.1l-2.5-3.4c-0.7-0.9-0.5-2.1,0.4-2.8c0.9-0.7,2.1-0.5,2.8,0.4l2.5,3.4c3.8-1.6,8.3-0.5,10.8,2.9l5,6.9V30.8H7v36
		c0,4.4,3.6,8,8,8h49.1L53.4,60.3C50.9,56.9,51.2,52.2,53.9,49.1z M26.5,58.1l-6.8,8c-0.4,0.5-0.9,0.7-1.5,0.7
		c-0.4,0-0.8-0.1-1.2-0.4l-3.2-2.3c-0.9-0.6-1.1-1.9-0.5-2.8s1.9-1.1,2.8-0.5l1.7,1.2l5.6-6.6c0.7-0.8,2-0.9,2.8-0.2
		C27.1,56,27.2,57.3,26.5,58.1z M26.5,40.1l-6.8,8c-0.4,0.5-0.9,0.7-1.5,0.7c-0.4,0-0.8-0.1-1.2-0.4l-3.2-2.3
		c-0.9-0.6-1.1-1.9-0.5-2.8s1.9-1.1,2.8-0.5l1.7,1.2l5.6-6.6c0.7-0.8,2-0.9,2.8-0.2C27.1,38,27.2,39.3,26.5,40.1z M46.5,58.1l-6.8,8
		c-0.4,0.5-0.9,0.7-1.5,0.7c-0.4,0-0.8-0.1-1.2-0.4l-3.2-2.3c-0.9-0.6-1.1-1.9-0.5-2.8c0.7-0.9,1.9-1.1,2.8-0.5l1.7,1.2l5.6-6.6
		c0.7-0.8,2-0.9,2.8-0.2C47.1,56,47.2,57.3,46.5,58.1z M46.5,40.1l-6.8,8c-0.4,0.5-0.9,0.7-1.5,0.7c-0.4,0-0.8-0.1-1.2-0.4l-3.2-2.3
		c-0.9-0.6-1.1-1.9-0.5-2.8s1.9-1.1,2.8-0.5l1.7,1.2l5.6-6.6c0.7-0.8,2-0.9,2.8-0.2C47.1,38,47.2,39.3,46.5,40.1z"/>
	<path d="M92.6,84.9c-0.7-0.9-1.9-1.1-2.8-0.4l-3.2,2.4l-5.9-8l6.5-4.7c0.9-0.7,1.1-1.9,0.4-2.8c-0.6-0.9-1.9-1.1-2.8-0.4l-0.8,0.6
		l-3.2,2.4l-4.6-6.3l-3.6,2.6c-0.4,0.3-0.8,0.4-1.2,0.4c-0.6,0-1.2-0.3-1.6-0.8c-0.7-0.9-0.5-2.1,0.4-2.8l3.6-2.6L71.4,61l-3.6,2.6
		C67.4,63.9,67,64,66.6,64c-0.6,0-1.2-0.3-1.6-0.8c-0.7-0.9-0.5-2.1,0.4-2.8l3.6-2.6L64.7,52c-1-1.3-2.5-2-4-2c-1,0-2.1,0.3-3,1
		c-2.2,1.6-2.7,4.8-1.1,7l16,21.8l-3.2,2.4l-0.8,0.6c-0.9,0.7-1.1,1.9-0.4,2.8c0.4,0.5,1,0.8,1.6,0.8c0.4,0,0.8-0.1,1.2-0.4l2.4-1.8
		l1.8-1.3l-1.8,1.3c0,0,0,0,0,0l1.9-1.4l2.1-1.6l5.9,8l-3.2,2.4c-0.9,0.7-1.1,1.9-0.4,2.8c0.4,0.5,1,0.8,1.6,0.8
		c0.4,0,0.8-0.1,1.2-0.4l9.7-7.1C93.1,87,93.3,85.8,92.6,84.9z"/>
</g>
</svg>
