<?xml version="1.0" encoding="utf-8"?>
<!-- Generator: Adobe Illustrator 21.0.2, SVG Export Plug-In . SVG Version: 6.00 Build 0)  -->
<svg version="1.1" id="Layer_1" xmlns="http://www.w3.org/2000/svg" xmlns:xlink="http://www.w3.org/1999/xlink" x="0px" y="0px"
	 viewBox="0 0 100 100" style="enable-background:new 0 0 100 100;" xml:space="preserve">
<g>
	<path d="M25.5,55.5l-5.6,6.6l-1.7-1.2c-0.9-0.6-2.1-0.4-2.8,0.5s-0.4,2.2,0.5,2.8l3.2,2.3c0.4,0.2,0.8,0.4,1.2,0.4
		c0.6,0,1.1-0.2,1.5-0.7l6.8-8c0.7-0.8,0.6-2.1-0.2-2.8C27.4,54.6,26.2,54.7,25.5,55.5z"/>
	<path d="M45.5,55.5l-5.6,6.6l-1.7-1.2c-0.9-0.6-2.1-0.4-2.8,0.5c-0.6,0.9-0.4,2.2,0.5,2.8l3.2,2.3c0.4,0.2,0.8,0.4,1.2,0.4
		c0.6,0,1.1-0.2,1.5-0.7l6.8-8c0.7-0.8,0.6-2.1-0.2-2.8C47.4,54.6,46.2,54.7,45.5,55.5z"/>
	<path d="M25.5,37.5l-5.6,6.6l-1.7-1.2c-0.9-0.6-2.1-0.4-2.8,0.5s-0.4,2.2,0.5,2.8l3.2,2.3c0.4,0.2,0.8,0.4,1.2,0.4
		c0.6,0,1.1-0.2,1.5-0.7l6.8-8c0.7-0.8,0.6-2.1-0.2-2.8C27.4,36.6,26.2,36.7,25.5,37.5z"/>
	<path d="M45.5,37.5l-5.6,6.6l-1.7-1.2c-0.9-0.6-2.1-0.4-2.8,0.5s-0.4,2.2,0.5,2.8l3.2,2.3c0.4,0.2,0.8,0.4,1.2,0.4
		c0.6,0,1.1-0.2,1.5-0.7l6.8-8c0.7-0.8,0.6-2.1-0.2-2.8C47.4,36.6,46.2,36.7,45.5,37.5z"/>
	<path d="M94.6,84.9c-0.7-0.9-1.9-1.1-2.8-0.4l-3.2,2.4l-5.9-8l6.5-4.7c0.9-0.7,1.1-1.9,0.4-2.8c-0.6-0.9-1.9-1.1-2.8-0.4l-0.8,0.6
		L79,62V18.8c0-3.3-2.7-6-6-6h-4v-1c0-3.9-3.1-7-7-7s-7,3.1-7,7v1h-6v-1c0-3.9-3.1-7-7-7s-7,3.1-7,7v1h-6v-1c0-3.9-3.1-7-7-7
		s-7,3.1-7,7v1h-4c-3.3,0-6,2.7-6,6v48c0,6.6,5.4,12,12,12h50c0.7,0,1.3-0.1,2-0.2l2.5,3.4l-0.8,0.6c-0.9,0.7-1.1,1.9-0.4,2.8
		c0.4,0.5,1,0.8,1.6,0.8c0.4,0,0.8-0.1,1.2-0.4l2.4-1.8l4-3l5.9,8l-3.2,2.4c-0.9,0.7-1.1,1.9-0.4,2.8c0.4,0.5,1,0.8,1.6,0.8
		c0.4,0,0.8-0.1,1.2-0.4l9.7-7.1C95.1,87,95.3,85.8,94.6,84.9z M59,11.8c0-1.7,1.3-3,3-3s3,1.3,3,3v1h-6V11.8z M39,11.8
		c0-1.7,1.3-3,3-3s3,1.3,3,3v1h-6V11.8z M19,11.8c0-1.7,1.3-3,3-3s3,1.3,3,3v1h-6V11.8z M9,18.8c0-1.1,0.9-2,2-2h14v4
		c0,1.1,0.9,2,2,2s2-0.9,2-2v-4h16v4c0,1.1,0.9,2,2,2s2-0.9,2-2v-4h16v4c0,1.1,0.9,2,2,2s2-0.9,2-2v-4h4c1.1,0,2,0.9,2,2v8H9V18.8z
		 M17,74.8c-4.4,0-8-3.6-8-8v-36h66v25.7l-5-6.9c-2.5-3.5-7.1-4.6-10.8-2.9l-2.5-3.4c-0.7-0.9-1.9-1.1-2.8-0.4
		c-0.9,0.7-1.1,1.9-0.4,2.8l2.5,3.4c-2.7,3.1-3,7.8-0.4,11.2l10.7,14.5H17z M74.7,79.7l-16-21.8c-1.6-2.2-1.2-5.4,1.1-7
		c0.9-0.7,1.9-1,3-1c1.5,0,3.1,0.7,4,2l4.3,5.8l-3.6,2.6c-0.9,0.7-1.1,1.9-0.4,2.8c0.4,0.5,1,0.8,1.6,0.8c0.4,0,0.8-0.1,1.2-0.4
		l3.6-2.6l2.4,3.2l-3.6,2.6c-0.9,0.7-1.1,1.9-0.4,2.8c0.4,0.5,1,0.8,1.6,0.8c0.4,0,0.8-0.1,1.2-0.4l3.6-2.6l4.6,6.3L74.7,79.7z"/>
</g>
</svg>
