<?xml version="1.0" encoding="utf-8"?>
<!-- Generator: Adobe Illustrator 21.0.2, SVG Export Plug-In . SVG Version: 6.00 Build 0)  -->
<svg version="1.1" id="Layer_1" xmlns="http://www.w3.org/2000/svg" xmlns:xlink="http://www.w3.org/1999/xlink" x="0px" y="0px"
	 viewBox="0 0 100 100" style="enable-background:new 0 0 100 100;" xml:space="preserve">
<g>
	<path d="M50,75c-4.1,0-7.7-2.7-9.7-7H28v13.1c14.6,2.5,29.4,2.5,44,0V68H59.7C57.7,72.3,54.1,75,50,75z"/>
	<path d="M30.2,85.5c1.6,2.1,2.8,4.4,3.6,6.8L34,93h32l0.2-0.6c0.8-2.5,2-4.8,3.6-6.8C63.2,86.5,56.6,87,50,87S36.8,86.5,30.2,85.5z
		"/>
	<path d="M55.7,45c-0.2-0.3-0.4-0.7-0.6-1c-1.3-1.9-3.2-3-5.1-3s-3.8,1.1-5.1,3c-0.2,0.3-0.4,0.6-0.6,1c-0.4,0.6-1,1-1.8,1H28v18
		h13.7c0.9,0,1.6,0.5,1.9,1.4c0.1,0.2,0.2,0.4,0.3,0.6c1.2,3,3.6,5,6.1,5s4.9-2,6.1-5c0.1-0.2,0.2-0.4,0.3-0.6
		c0.3-0.8,1-1.4,1.9-1.4H72V46H57.4C56.7,46,56,45.6,55.7,45z"/>
	<path d="M66,25c2.2,0,4-1.8,4-4c0-2.2-1.8-4-4-4h-4.8l3.5-7.1c0.5-1,0.1-2.2-0.9-2.7c-1-0.5-2.2-0.1-2.7,0.9L56.8,17H34
		c-2.2,0-4,1.8-4,4c0,2.2,1.8,4,4,4l-6,8v9h13.4c2.1-3.2,5.2-5,8.6-5s6.5,1.8,8.6,5H72v-9L66,25z"/>
</g>
</svg>
