<?xml version="1.0" encoding="utf-8"?>
<!-- Generator: Adobe Illustrator 21.0.2, SVG Export Plug-In . SVG Version: 6.00 Build 0)  -->
<svg version="1.1" id="Layer_1" xmlns="http://www.w3.org/2000/svg" xmlns:xlink="http://www.w3.org/1999/xlink" x="0px" y="0px"
	 viewBox="0 0 100 100" style="enable-background:new 0 0 100 100;" xml:space="preserve">
<path d="M95.1,66.2c-0.6-2.7-2.5-4.8-5-5.8l-12.6-4.7c0.1-1.4,0.2-2.8,0.1-4.2c-0.4-7.2-3.5-14.2-8.9-19.5
	c-6.8-6.8-15.8-9.7-24.1-8.7l-5-13.3c-1-2.6-3.1-4.4-5.8-5c-2.7-0.6-5.4,0.2-7.3,2.2L7.1,26.4c-1.9,1.9-2.7,4.7-2.2,7.3
	s2.5,4.8,5,5.8l13.3,5c-1,8.3,1.9,17.4,8.7,24.1c5.4,5.3,12.3,8.5,19.5,8.9c0.5,0,0.9,0,1.4,0c1,0,1.9-0.1,2.8-0.2l4.7,12.6
	c1,2.6,3.1,4.4,5.8,5c0.6,0.1,1.1,0.2,1.7,0.2c2.1,0,4.1-0.8,5.6-2.3l19.3-19.3C94.8,71.6,95.7,68.9,95.1,66.2z M24.1,40.6
	l-12.8-4.8c-1.3-0.5-2.2-1.5-2.5-2.9c-0.3-1.4,0.1-2.7,1.1-3.7L29.3,9.9c1-1,2.3-1.4,3.7-1.1c1.4,0.3,2.4,1.2,2.9,2.5l4.8,12.8
	c-1.4,0.4-2.8,0.9-4.1,1.6l-4.5-6.9c-0.6-0.9-1.8-1.2-2.8-0.6c-0.9,0.6-1.2,1.8-0.6,2.8l4.4,6.8c-1,0.7-2,1.6-2.9,2.5
	c-0.9,0.9-1.7,1.9-2.5,2.9L21,28.7c-0.9-0.6-2.2-0.3-2.8,0.6c-0.6,0.9-0.3,2.2,0.6,2.8l6.9,4.5C25,37.8,24.5,39.2,24.1,40.6z
	 M30.1,59.5c-4.8-8.9-3.9-19.7,3-26.5c4-4,9.3-6,14.8-6c3.4,0,6.9,0.8,10.1,2.2l-8.5,4.3c-0.5,0.2-0.8,0.6-1,1.1l-7.1,19.3
	L30.1,59.5z M34.8,65.9c-1-0.9-1.8-2-2.6-3l11.7-5.6c0.5-0.2,0.8-0.6,1-1.1L52,36.8l10.1-5.2c1.3,0.9,2.6,2,3.8,3.1
	c1.2,1.2,2.2,2.4,3.1,3.8l-8.8,4.2c-0.5,0.2-0.9,0.6-1,1.2l-7,20.6l-12.6,5.2C37.8,68.6,36.2,67.4,34.8,65.9z M51.7,73.6
	c-2.5-0.1-5-0.7-7.4-1.5l10.2-4.2c0.5-0.2,1-0.7,1.1-1.2L62.8,46l8.3-4c1.5,3,2.4,6.3,2.5,9.7c0.3,6.2-1.8,11.8-5.9,16
	S57.9,73.9,51.7,73.6z M90.1,70.7L70.7,90.1c-1,1-2.3,1.4-3.7,1.1c-1.4-0.3-2.4-1.2-2.9-2.5l-4.5-11.9c1.5-0.4,2.9-0.9,4.3-1.6
	l4,6.1c0.4,0.6,1,0.9,1.7,0.9c0.4,0,0.8-0.1,1.1-0.3c0.9-0.6,1.2-1.8,0.6-2.8l-3.9-5.9c1.1-0.8,2.1-1.6,3.1-2.6c1-1,1.8-2,2.6-3.1
	l5.9,3.9c0.3,0.2,0.7,0.3,1.1,0.3c0.7,0,1.3-0.3,1.7-0.9c0.6-0.9,0.3-2.2-0.6-2.8l-6.1-4c0.7-1.4,1.2-2.8,1.6-4.3l11.9,4.5
	c1.3,0.5,2.2,1.5,2.5,2.9C91.5,68.4,91.1,69.8,90.1,70.7z"/>
</svg>
