<?xml version="1.0" encoding="utf-8"?>
<!-- Generator: Adobe Illustrator 21.0.2, SVG Export Plug-In . SVG Version: 6.00 Build 0)  -->
<svg version="1.1" id="Layer_1" xmlns="http://www.w3.org/2000/svg" xmlns:xlink="http://www.w3.org/1999/xlink" x="0px" y="0px"
	 viewBox="0 0 100 100" style="enable-background:new 0 0 100 100;" xml:space="preserve">
<g>
	<path d="M66,41c0-1.9-1.6-3.5-3.5-3.5h-0.1c-1.8,0-3.3,1.5-3.3,3.3v1.7c0,3.3-2.3,6.1-5.4,6.8c-0.5,0.1-1.1,0.2-1.6,0.2h-0.1
		c-0.2,0-0.3,0-0.5,0c-3.5-0.3-6.3-3.2-6.3-6.8V37c0-1.9-1.6-3.5-3.5-3.5S38,35.1,38,37v3.5c0,4.3-2.1,8-5.2,10.4
		c-1.4,1.1-3.1,1.9-4.9,2.3C32,59.6,38,63.6,44,63.5v22c0,3.3,2.7,6,6,6s6-2.7,6-6v-22c7.1,0.2,14.2-5.4,18.1-14
		c-1.6-0.1-3.1-0.6-4.3-1.4C67.5,46.5,66,43.9,66,41z"/>
	<path d="M75.1,25.5c-2.2-5.1-5.8-8.5-10.2-9.6c-4.2-1-8.7,0.1-12.8,3.2v-1.4c0-1.4,0.4-2.8,1-4c0.4-0.6,0.8-1.3,1.4-1.8
		c0.8-0.8,0.8-2,0-2.8c-0.8-0.8-2-0.8-2.8,0c-1.6,1.5-2.6,3.4-3.2,5.5c-0.3,1-0.4,2.1-0.4,3.2v1.4c-4.1-3.1-8.6-4.3-12.8-3.2
		c-9.4,2.3-14.5,14.8-11.2,27.8c0.5,2,1.2,4,2,5.8c4.5-0.5,8.1-4.3,8.1-9V37c0-4.1,3.4-7.5,7.5-7.5c4.1,0,7.5,3.4,7.5,7.5v5.6
		c0,1.6,1.3,2.9,2.9,2.9H52c1.7,0,3-1.4,3-3v-1.7c0-4,3.3-7.3,7.3-7.3h0.1c4.2,0,7.5,3.4,7.5,7.5c0,2.5,2,4.5,4.5,4.5h1.1
		c0.2-0.6,0.3-1.2,0.5-1.8C77.7,37.3,77.3,30.8,75.1,25.5z"/>
</g>
</svg>
