<?xml version="1.0" encoding="utf-8"?>
<!-- Generator: Adobe Illustrator 21.0.2, SVG Export Plug-In . SVG Version: 6.00 Build 0)  -->
<svg version="1.1" id="Layer_1" xmlns="http://www.w3.org/2000/svg" xmlns:xlink="http://www.w3.org/1999/xlink" x="0px" y="0px"
	 viewBox="0 0 100 100" style="enable-background:new 0 0 100 100;" xml:space="preserve">
<path d="M93.5,22.6L87,21.1l7.1-11.8c0.5-0.8,0.3-1.8-0.3-2.4c-0.6-0.7-1.7-0.8-2.4-0.3l-11.9,7.1l-2.1-7.4
	c-0.2-0.8-0.9-1.4-1.7-1.4c-0.8-0.1-1.6,0.3-2,1.1l-8.3,15.9c-4.6-2.7-10.6-2.1-14.6,1.8L28.2,46.4C16.8,57.8,8.8,72,5.1,87.7
	c-0.5,2,0.1,4.1,1.6,5.6c1.2,1.1,2.7,1.8,4.2,1.8c0.5,0,0.9-0.1,1.4-0.2C28,91.2,42.2,83.2,53.6,71.8l11.3-11.3c0,0,0,0,0,0
	l11.3-11.3c3.7-3.7,4.5-9.3,2.3-13.8l15.6-9.1c0.7-0.4,1.1-1.2,1-2C94.9,23.5,94.3,22.8,93.5,22.6z M73.4,46.4l-9.9,9.9L55,47.8
	c-0.8-0.8-2.1-0.8-2.8,0c-0.8,0.8-0.8,2,0,2.8l8.5,8.5L50.8,69c-2.4,2.4-4.9,4.6-7.5,6.6L38,70.4c-0.8-0.8-2-0.8-2.8,0
	c-0.8,0.8-0.8,2,0,2.8l4.8,4.8C31.4,84.1,21.7,88.6,11.4,91c-1,0.2-1.6-0.3-1.9-0.5S8.8,89.6,9,88.6c1.3-5.6,3.2-11,5.7-16.1
	l5.7,5.7c0.4,0.4,0.9,0.6,1.4,0.6c0.5,0,1-0.2,1.4-0.6c0.8-0.8,0.8-2,0-2.8l-6.7-6.7C20.3,61.6,25.2,55,31,49.2l8.5,8.5
	c0.4,0.4,0.9,0.6,1.4,0.6s1-0.2,1.4-0.6c0.8-0.8,0.8-2,0-2.8l-8.5-8.5l17-17l8.5,8.5c0.4,0.4,0.9,0.6,1.4,0.6s1-0.2,1.4-0.6
	c0.8-0.8,0.8-2,0-2.8l-8.5-8.5c1.6-1.6,3.6-2.3,5.7-2.3c2,0,4.1,0.8,5.6,2.3l8.5,8.5C76.5,38.2,76.5,43.3,73.4,46.4z M76.2,32.2
	l-7.6-7.6l6.3-12.2l1.5,5.1c0.2,0.6,0.6,1.1,1.2,1.3c0.6,0.2,1.2,0.2,1.8-0.1l7.3-4.4l-4.4,7.3c-0.3,0.5-0.4,1.2-0.1,1.8
	c0.2,0.6,0.8,1,1.4,1.2l4.3,1L76.2,32.2z"/>
</svg>
