<?xml version="1.0" encoding="utf-8"?>
<!-- Generator: Adobe Illustrator 21.0.2, SVG Export Plug-In . SVG Version: 6.00 Build 0)  -->
<svg version="1.1" id="Layer_1" xmlns="http://www.w3.org/2000/svg" xmlns:xlink="http://www.w3.org/1999/xlink" x="0px" y="0px"
	 viewBox="0 0 100 100" style="enable-background:new 0 0 100 100;" xml:space="preserve">
<path d="M92.6,25.1L83.4,23l8.5-14.1l-14.1,8.5l-2.8-9.9l-8.7,16.7c-3.9-3.3-9.8-3.2-13.5,0.6l9.9,9.9c0.8,0.8,0.8,2,0,2.8
	c-0.4,0.4-0.9,0.6-1.4,0.6s-1-0.2-1.4-0.6l-9.9-9.9l-17,17l9.9,9.9c0.8,0.8,0.8,2,0,2.8c-0.4,0.4-0.9,0.6-1.4,0.6s-1-0.2-1.4-0.6
	l-9.9-9.9c-5.8,5.8-10.7,12.3-14.5,19.5c0,0,0,0,0.1,0.1l8.1,8.1c0.8,0.8,0.8,2,0,2.8c-0.4,0.4-0.9,0.6-1.4,0.6
	c-0.5,0-1-0.2-1.4-0.6l-7.2-7.2C11,75.9,9,81.7,7.5,87.6c-0.1,0.3-0.1,0.6-0.1,0.9c0,2.5,2.4,4.5,4.9,3.9c5.4-1.3,10.5-3.1,15.5-5.3
	c5-2.2,9.7-5,14.1-8.1l-6.2-6.2c-0.8-0.8-0.8-2.1,0-2.8c0.8-0.8,2-0.8,2.8,0l6.4,6.4c0.1,0.1,0.2,0.2,0.2,0.3
	c2.6-2.1,5.2-4.3,7.5-6.7l9.9-9.9l-9.9-9.9c-0.8-0.8-0.8-2.1,0-2.8c0.8-0.8,2-0.8,2.8,0l9.9,9.9l9.9-9.9c3.5-3.5,3.8-8.9,1.1-12.8
	L92.6,25.1z"/>
</svg>
