<?xml version="1.0" encoding="utf-8"?>
<!-- Generator: Adobe Illustrator 23.0.1, SVG Export Plug-In . SVG Version: 6.00 Build 0)  -->
<svg version="1.1" id="Layer_1" xmlns="http://www.w3.org/2000/svg" xmlns:xlink="http://www.w3.org/1999/xlink" x="0px" y="0px"
	 viewBox="0 0 100 100" style="enable-background:new 0 0 100 100;" xml:space="preserve">
<style type="text/css">
	.st0{fill:#000000;}
</style>
<path class="st0" d="M93,39c1.1,0,2-0.9,2-2v-2c0-4.4-3.6-8-8-8h-5.1c-4.8,0-9-2.6-11.2-6.9c-0.3-0.7-1-1.1-1.8-1.1h-9
	c0-2.8-1.2-5.4-3.2-7.3c-2-1.9-4.7-2.9-7.5-2.7c-5.1,0.3-9.2,4.7-9.3,10h-9c-0.8,0-1.5,0.4-1.8,1.1c-2.1,4.3-6.4,6.9-11.2,6.9H13
	c-4.4,0-8,3.6-8,8v2c0,1.1,0.9,2,2,2s2-0.9,2-2v-2c0-2.2,1.8-4,4-4h2.2l3.5,28.2c-3.4,0.5-6.6,2-9.1,4.5c-3,3-4.7,7-4.7,11.3
	s1.7,8.3,4.7,11.3c3,3,7,4.7,11.3,4.7s8.3-1.7,11.3-4.7c2.2-2.2,3.6-4.9,4.3-7.8c4,3,8.7,4.5,13.4,4.5c4.7,0,9.4-1.5,13.4-4.5
	C65,85.7,71.4,91,79,91c8.8,0,16-7.2,16-16c0-8.1-6-14.7-13.8-15.8L84.8,31H87c2.2,0,4,1.8,4,4v2C91,38.1,91.9,39,93,39z M79,63
	c2.6,0,5,0.8,6.9,2.2L79,72.2l-6.9-6.9C74,63.8,76.4,63,79,63z M77.2,59H65V41h14.5L77.2,59z M39,59V41h3c3.3,0,6.2-1.6,8-4
	c1.8,2.4,4.7,4,8,4h3v18H39z M22.8,59l-2.2-18H35v18H22.8z M21,63c2.5,0,4.9,0.8,6.9,2.2L21,72.2l-6.9-6.9C16.1,63.8,18.5,63,21,63z
	 M32.2,23H42c1.1,0,2-0.9,2-2v-1.7c0-3.3,2.5-6.1,5.6-6.3c1.7-0.1,3.3,0.5,4.5,1.6c1.2,1.1,1.9,2.7,1.9,4.4v2c0,1.1,0.9,2,2,2h9.8
	c2.8,4.6,7.6,7.6,12.9,8L80,37H58c-3.3,0-6-2.7-6-6c0-1.1-0.9-2-2-2s-2,0.9-2,2c0,3.3-2.7,6-6,6H20l-0.8-6
	C24.6,30.6,29.4,27.6,32.2,23z M9,75c0-2.5,0.8-4.9,2.2-6.9l6.9,6.9l-6.9,6.9C9.8,79.9,9,77.5,9,75z M14.1,84.8l6.9-6.9l6.9,6.9
	c-2,1.4-4.4,2.2-6.9,2.2S16.1,86.2,14.1,84.8z M30.8,81.9L23.8,75l6.9-6.9c1.4,2,2.2,4.4,2.2,6.9S32.2,79.9,30.8,81.9z M36.9,73.6
	c-0.3-3.7-1.9-7.2-4.6-9.9c-0.2-0.2-0.5-0.5-0.8-0.7h36.9c-3,2.6-5,6.4-5.4,10.6C55.9,80.8,44.1,80.8,36.9,73.6z M69.2,68.1l6.9,6.9
	l-6.9,6.9C67.8,80,67,77.6,67,75S67.8,70,69.2,68.1z M72.1,84.8l6.9-6.9l6.9,6.9C84,86.2,81.6,87,79,87S74,86.2,72.1,84.8z
	 M88.8,81.9L81.8,75l6.9-6.9c1.4,2,2.2,4.4,2.2,6.9S90.2,80,88.8,81.9z"/>
</svg>
