<?xml version="1.0" encoding="utf-8"?>
<!-- Generator: Adobe Illustrator 23.0.1, SVG Export Plug-In . SVG Version: 6.00 Build 0)  -->
<svg version="1.1" id="Layer_1" xmlns="http://www.w3.org/2000/svg" xmlns:xlink="http://www.w3.org/1999/xlink" x="0px" y="0px"
	 viewBox="0 0 100 100" style="enable-background:new 0 0 100 100;" xml:space="preserve">
<style type="text/css">
	.st0{fill:#000000;}
</style>
<path class="st0" d="M88,78.1V36h2c0.7,0,1.4-0.4,1.8-1.1c0.3-0.7,0.3-1.4-0.1-2.1L80,15.4V10h4c1.1,0,2-0.9,2-2s-0.9-2-2-2h-6
	c-1.1,0-2,0.9-2,2v7.4L64.3,32.9c-0.4,0.6-0.4,1.4-0.1,2.1c0.3,0.7,1,1.1,1.8,1.1h2v12h-6v-4c0-1.1-0.9-2-2-2s-2,0.9-2,2v4h-6v-4
	c0-1.1-0.9-2-2-2s-2,0.9-2,2v4h-6v-4c0-1.1-0.9-2-2-2s-2,0.9-2,2v4h-6V36h2c0.7,0,1.4-0.4,1.8-1.1c0.3-0.7,0.3-1.4-0.1-2.1L24,15.4
	V10h4c1.1,0,2-0.9,2-2s-0.9-2-2-2h-6c-1.1,0-2,0.9-2,2v7.4L8.3,32.9c-0.4,0.6-0.4,1.4-0.1,2.1c0.3,0.7,1,1.1,1.8,1.1h2v42.1
	c-3.9,0.5-7,3.9-7,7.9c0,4.4,3.6,8,8,8h74c4.4,0,8-3.6,8-8C95,81.9,91.9,78.6,88,78.1z M78,19.6L86.3,32H86H70h-0.3L78,19.6z M84,36
	v42H72V36H84z M68,52v26h-8V68c0-5.5-4.5-10-10-10c-5.5,0-10,4.5-10,10v10h-8V52H68z M56,78H44V68c0-3.3,2.7-6,6-6s6,2.7,6,6V78z
	 M22,19.6L30.3,32H30H14h-0.3L22,19.6z M28,36v42H16V36H28z M87,90H13c-2.2,0-4-1.8-4-4s1.8-4,4-4h1h16h12h16h12h16h1
	c2.2,0,4,1.8,4,4S89.2,90,87,90z"/>
</svg>
