<?xml version="1.0" encoding="utf-8"?>
<!-- Generator: Adobe Illustrator 23.0.1, SVG Export Plug-In . SVG Version: 6.00 Build 0)  -->
<svg version="1.1" id="Layer_1" xmlns="http://www.w3.org/2000/svg" xmlns:xlink="http://www.w3.org/1999/xlink" x="0px" y="0px"
	 viewBox="0 0 100 100" style="enable-background:new 0 0 100 100;" xml:space="preserve">
<path d="M95,46.7c0,1.1-0.9,2-2,2c-5.5,0-10,4.5-10,10v4c0,12.6-9.7,22.9-22,23.9v-4c10.1-1,18-9.5,18-19.9v-4c0-7.7,6.3-14,14-14
	C94.1,44.7,95,45.6,95,46.7z M73,31.4c-0.1-1.1-1.1-1.9-2.2-1.8L66,30.2v2.5c0,0.5,0,1-0.1,1.6l5.3-0.6C72.3,33.5,73.1,32.5,73,31.4
	z M71,49.7c0.8,0,1.6-0.5,1.9-1.4c0.3-1.1-0.2-2.2-1.3-2.5l-8.5-2.8c-0.4,0.7-0.9,1.5-1.4,2.2c-0.1,0.1-0.1,0.2-0.2,0.2
	c-0.3,0.4-0.6,0.7-0.8,1l9.7,3.2C70.6,49.6,70.8,49.7,71,49.7z M6.8,33.7l5.3,0.6c0-0.5-0.1-1-0.1-1.6v-2.5l-4.8-0.5
	c-1.1-0.1-2.1,0.7-2.2,1.8C4.9,32.5,5.7,33.5,6.8,33.7z M16.3,45.1c-0.5-0.7-1-1.4-1.4-2.2l-8.5,2.8c-1,0.4-1.6,1.5-1.3,2.5
	c0.3,0.8,1.1,1.4,1.9,1.4c0.2,0,0.4,0,0.6-0.1l9.7-3.2c-0.3-0.3-0.6-0.7-0.8-1C16.4,45.2,16.3,45.2,16.3,45.1z M50.2,53.6
	c-3.4,1.3-7.2,2.1-11.2,2.1s-7.8-0.8-11.2-2.1C23.7,56.9,21,62,21,67.7v21c0,1.1,0.9,2,2,2h4v-14c0-1.1,0.9-2,2-2
	c0.8,0,1.6,0.5,1.8,1.3c0.1,0.2,0.2,0.5,0.2,0.7v14h6v-18c0-1.1,0.9-2,2-2s2,0.9,2,2v18h6v-14c0-0.3,0-0.5,0.2-0.7
	c0.3-0.7,1-1.3,1.8-1.3c1.1,0,2,0.9,2,2v14h4c1.1,0,2-0.9,2-2v-21C57,62,54.3,56.9,50.2,53.6z M24.3,13.3l-5.2-3.6
	c-0.6-0.4-1.4-0.5-2.1-0.1c-0.7,0.4-1.1,1-1.1,1.8v9.3C18.1,17.8,20.9,15.2,24.3,13.3z M62,20.7v-9.3c0-0.8-0.4-1.4-1.1-1.8
	c-0.7-0.3-1.4-0.3-2.1,0.1l-5.2,3.6C57.1,15.2,59.9,17.8,62,20.7z M61.9,34.7c-0.3,2.5-1.2,4.8-2.6,7l-5.6-1.9
	c-1-0.3-2.2,0.2-2.5,1.3c-0.3,1,0.2,2.2,1.3,2.5l4.2,1.4C52.3,49.1,46,51.7,39,51.7s-13.3-2.6-17.5-6.7l4.2-1.4
	c1-0.3,1.6-1.5,1.3-2.5c-0.4-1-1.5-1.6-2.5-1.3l-5.6,1.9C17,39,16,35.9,16,32.7c0-7.2,5.1-14,13-17.1c3.1-1.2,6.5-1.9,10-1.9
	s6.8,0.6,10,1.9c7.2,2.9,12.1,8.7,12.9,15.1l-9.1,1c-1.1,0.1-1.9,1.1-1.8,2.2c0.1,1,1,1.8,2,1.8c0.1,0,0.2,0,0.2,0L61.9,34.7z
	 M31,26.7c0-1.1-0.9-2-2-2s-2,0.9-2,2c0,1.1,0.9,2,2,2S31,27.8,31,26.7z M44.7,31.4c-1-1.6-2.6-2.5-4.5-2.5h-2.5
	c-1.8,0-3.5,0.9-4.5,2.5c-1,1.6-1.1,3.5-0.2,5.1l1.2,2.5c0.6,1.2,1.5,2,2.7,2.5v2.1c0,1.1,0.9,2,2,2s2-0.9,2-2v-2.1
	c1.2-0.5,2.1-1.3,2.7-2.5l1.2-2.5C45.8,34.9,45.7,33,44.7,31.4z M51,26.7c0-1.1-0.9-2-2-2s-2,0.9-2,2c0,1.1,0.9,2,2,2
	S51,27.8,51,26.7z M40.2,32.9h-2.5c-0.6,0-1,0.4-1.1,0.6s-0.3,0.7-0.1,1.2l1.2,2.5c0.3,0.6,0.9,0.7,1.1,0.7s0.8-0.1,1.1-0.7l1.2-2.5
	c0.3-0.6,0-1-0.1-1.2S40.9,32.9,40.2,32.9z"/>
</svg>
