<?xml version="1.0" encoding="utf-8"?>
<!-- Generator: Adobe Illustrator 21.0.2, SVG Export Plug-In . SVG Version: 6.00 Build 0)  -->
<svg version="1.1" id="Layer_1" xmlns="http://www.w3.org/2000/svg" xmlns:xlink="http://www.w3.org/1999/xlink" x="0px" y="0px"
	 viewBox="0 0 100 100" style="enable-background:new 0 0 100 100;" xml:space="preserve">
<g>
	<path d="M94.2,43.2c-2.7-12.3-13.1-21.1-25.5-22V7.2c0-1.1-0.9-2-2-2c-1.1,0-2,0.9-2,2v14.1c-7.9,0.6-15.1,4.3-20.1,10.6
		c-0.3,0.4-0.5,1-0.4,1.5c0.1,0.5,0.4,1,0.8,1.4c1,0.8,1.7,2,1.7,3.2c0,2.2-1.8,4-3.9,4c-0.9,0-1.6,0.6-1.9,1.4
		c-0.2,0.8,0.1,1.7,0.8,2.2c1.3,0.9,2.1,2.6,2.1,4.4c0,1.1-0.3,2.1-0.8,3c-0.4,0.6-0.4,1.3-0.1,1.9c0.3,0.6,0.9,1,1.5,1.1
		c1.9,0.3,3.4,2,3.4,4c0,2.1-1.6,3.9-3.8,4c-0.7,0-1.3,0.4-1.6,1c-0.3,0.6-0.4,1.3,0,1.9c1.1,2.1,2.4,4.1,3.8,5.9L62,92.6
		c1.1,1.4,2.8,2.2,4.7,2.2c1.8,0,3.5-0.8,4.7-2.2l15.9-19.8C94,64.5,96.5,53.7,94.2,43.2z M84.2,70.3L68.3,90.1
		c-0.8,0.9-2.3,0.9-3.1,0L49.2,70.3c-0.8-1-1.5-2-2.2-3c2.7-1.3,4.6-4,4.6-7.2c0-3.1-1.8-5.8-4.4-7.1c0.3-0.9,0.4-1.9,0.4-2.9
		c0-1.8-0.5-3.5-1.3-4.9c2.5-1.3,4.3-4,4.3-7.1c0-1.8-0.6-3.6-1.8-5c4.1-4.5,9.7-7.2,15.8-7.7v5.9l-9.6,10.5
		c-0.7,0.8-0.7,2.1,0.1,2.8c0.4,0.3,0.9,0.5,1.3,0.5c0.5,0,1.1-0.2,1.5-0.7l6.6-7.3v8l-9.5,9.5c-0.8,0.8-0.8,2.1,0,2.8
		c0.8,0.8,2,0.8,2.8,0l6.7-6.7v8.4l-6.5,6.5c-0.8,0.8-0.8,2.1,0,2.8c0.8,0.8,2,0.8,2.8,0l3.7-3.7v8.4c0,1.1,0.9,2,2,2
		c1.1,0,2-0.9,2-2v-8.4l3.7,3.7c0.4,0.4,0.9,0.6,1.4,0.6c0.5,0,1-0.2,1.4-0.6c0.8-0.8,0.8-2,0-2.8l-6.5-6.5v-8.4l6.7,6.7
		c0.4,0.4,0.9,0.6,1.4,0.6c0.5,0,1-0.2,1.4-0.6c0.8-0.8,0.8-2,0-2.8l-9.5-9.5v-8l6.6,7.3c0.8,0.8,2,0.9,2.8,0.1
		c0.8-0.8,0.9-2,0.1-2.8l-9.6-10.5v-5.9c10.5,0.9,19.3,8.4,21.6,18.9C92.4,53.4,90.1,62.9,84.2,70.3z"/>
	<path d="M38.9,37c0-4.6-3.2-8.5-7.4-9.7l-0.2-4.5c0-1.1-1-2-2.1-1.9c-1.1,0.1-2,1-1.9,2.1l0.2,4.1c-0.5,0.1-1,0.2-1.5,0.3L23.1,24
		c-0.7-0.9-1.9-1-2.8-0.3c-0.9,0.7-1,2-0.3,2.8l2.4,2.9c-2.1,1.8-3.5,4.5-3.5,7.6c0,1.7,0.4,3.3,1.2,4.6c-1.9,1.5-3.2,3.8-3.2,6.4
		c0,1.6,0.5,3.1,1.3,4.4c-1.4,1.4-2.3,3.4-2.3,5.6c0,1.6,0.5,3.1,1.3,4.4c-1.4,1.4-2.3,3.4-2.3,5.6c0,1.1,0.2,2.1,0.6,3.1
		c-0.6,0.6-1.2,1.2-1.6,2c-0.3,0-0.7-0.1-1-0.1c-4.4,0-8,3.6-8,8c0,3.7,2.5,6.8,6,7.7l0.2,3.9c0,1.1,0.9,1.9,2,1.9h0.1
		c1.1-0.1,2-1,1.9-2.1l-0.2-3.7c2.1-0.5,3.9-2,5-3.8c0.3,0,0.7,0.1,1,0.1c1.1,0,2.2-0.2,3.2-0.7l1.4,2.8c0.4,0.7,1.1,1.1,1.8,1.1
		c0.3,0,0.6-0.1,0.9-0.2c1-0.5,1.4-1.7,0.9-2.7l-1.8-3.5c1-1.3,1.6-3,1.6-4.8c0-1.1-0.2-2.1-0.6-3.1c0.6-0.5,1-1.1,1.4-1.8l3.1,1.4
		c0.3,0.1,0.6,0.2,0.8,0.2c0.8,0,1.5-0.4,1.8-1.2c0.5-1,0-2.2-1-2.7l-3.6-1.7c0-0.1,0-0.2,0-0.3c0-1.6-0.5-3.1-1.3-4.4
		c0.9-0.9,1.6-2,2-3.3l4,0.7c0.1,0,0.2,0,0.3,0c1,0,1.8-0.7,2-1.7c0.2-1.1-0.5-2.1-1.6-2.3l-4.5-0.8c-0.2-1-0.6-1.8-1.1-2.6
		c0.4-0.4,0.8-0.9,1.1-1.5l4.8,0.8c0.1,0,0.2,0,0.3,0c1,0,1.8-0.7,2-1.7c0.2-1.1-0.5-2.1-1.6-2.3l-4.4-0.7c0-0.1,0-0.2,0-0.3
		c0-0.6-0.1-1.2-0.2-1.8C36.4,44.8,38.9,41.2,38.9,37z M12.9,85c-2.2,0-4-1.8-4-4c0-2.2,1.8-4,4-4c0,2.6,1.3,4.9,3.2,6.4
		C15.4,84.4,14.2,85,12.9,85z M20.9,81c-2.2,0-4-1.8-4-4c0-1,0.4-2,1.1-2.7c1.3,1.1,3.1,1.7,4.9,1.7c0.6,0,1.2-0.1,1.8-0.2
		c0.1,0.4,0.2,0.8,0.2,1.2C24.9,79.2,23.1,81,20.9,81z M22.9,72c-2.2,0-4-1.8-4-4c0-1.2,0.5-2.2,1.3-2.9c1.1,0.6,2.4,0.9,3.7,0.9
		c0.8,0,1.5-0.1,2.2-0.3c0.5,0.7,0.8,1.5,0.8,2.3C26.9,70.2,25.1,72,22.9,72z M23.9,62c-2.2,0-4-1.8-4-4c0-1.2,0.5-2.2,1.3-2.9
		c1.1,0.6,2.4,0.9,3.7,0.9c0.8,0,1.5-0.1,2.2-0.3c0.5,0.7,0.8,1.5,0.8,2.3C27.9,60.2,26.1,62,23.9,62z M24.9,52c-2.2,0-4-1.8-4-4
		c0-1.3,0.7-2.5,1.7-3.2c1.7,1.4,3.8,2.2,6.2,2.2c0.1,0.3,0.1,0.7,0.1,1C28.9,50.2,27.1,52,24.9,52z M28.9,43c-3.3,0-6-2.7-6-6
		s2.7-6,6-6s6,2.7,6,6S32.2,43,28.9,43z"/>
</g>
</svg>
