<?xml version="1.0" encoding="utf-8"?>
<!-- Generator: Adobe Illustrator 23.0.1, SVG Export Plug-In . SVG Version: 6.00 Build 0)  -->
<svg version="1.1" id="Layer_1" xmlns="http://www.w3.org/2000/svg" xmlns:xlink="http://www.w3.org/1999/xlink" x="0px" y="0px"
	 viewBox="0 0 100 100" style="enable-background:new 0 0 100 100;" xml:space="preserve">
<path d="M26,79.6c1.4,1.5,3,2.9,4.7,4.1l-1.9,3.7c-0.8,1.5-2.5,2.1-4,1.3c-1.5-0.8-2.1-2.6-1.3-4L26,79.6z M74,79.6
	c-1.4,1.5-3,2.9-4.7,4.1l1.9,3.7c0.8,1.5,2.6,2.1,4,1.3c0.7-0.4,1.2-1,1.5-1.7c0.2-0.8,0.2-1.6-0.2-2.3L74,79.6z M76,45H55v3
	c0,3.9-3.1,7-7,7h-3v1c0,3.9-3.1,7-7,7s-7-3.1-7-7V45h-7c-0.1,0-0.2,0-0.4,0c-1.7,3.8-2.6,7.8-2.6,12c0,16,13,29,29,29s29-13,29-29
	c0-4.2-0.9-8.2-2.6-12C76.2,45,76.1,45,76,45z M23.1,40.8c0.3,0.1,0.6,0.2,0.9,0.2h9c1.1,0,2,0.9,2,2v13c0,1.7,1.3,3,3,3s3-1.3,3-3
	v-7c0-1.1,0.9-2,2-2s2,0.9,2,2v2h3c1.7,0,3-1.3,3-3v-5c0-1.1,0.9-2,2-2h23c0.3,0,0.6,0,0.9-0.2c1.2-0.4,2.1-1.5,2.1-2.8
	c0-1.7-1.3-3-3-3H24c-1.7,0-3,1.3-3,3C21,39.3,21.8,40.4,23.1,40.8z M68,18c0-1.7-1.3-3-3-3s-3,1.3-3,3v13h6V18z M35,17
	c1.7,0,3-1.3,3-3c0-1.7-1.3-3-3-3s-3,1.3-3,3C32,15.6,33.3,17,35,17z M50,25c1.1,0,2-0.9,2-2c0-1.1-0.9-2-2-2s-2,0.9-2,2
	C48,24.1,48.9,25,50,25z"/>
</svg>
