<?xml version="1.0" encoding="utf-8"?>
<!-- Generator: Adobe Illustrator 23.0.1, SVG Export Plug-In . SVG Version: 6.00 Build 0)  -->
<svg version="1.1" id="Layer_1" xmlns="http://www.w3.org/2000/svg" xmlns:xlink="http://www.w3.org/1999/xlink" x="0px" y="0px"
	 viewBox="0 0 100 100" style="enable-background:new 0 0 100 100;" xml:space="preserve">
<path d="M80.2,43.6c1.8-1.3,2.8-3.3,2.8-5.6c0-3.9-3.1-7-7-7h-4V18c0-3.9-3.1-7-7-7s-7,3.1-7,7v13H24c-3.9,0-7,3.1-7,7
	c0,2.3,1.1,4.3,2.8,5.6C18,47.8,17,52.4,17,57c0,7.2,2.3,13.8,6.2,19.2l-3.4,6.6c-1.7,3.5-0.4,7.7,3.1,9.4c1,0.5,2.1,0.8,3.2,0.8
	c2.6,0,5-1.4,6.3-3.8l1.7-3.3c4.7,2.6,10.2,4.1,16,4.1s11.2-1.5,16-4.1l1.7,3.3c1.2,2.4,3.7,3.8,6.3,3.8c1.1,0,2.1-0.2,3.2-0.8
	c3.4-1.7,4.8-6,3.1-9.4l-3.4-6.6C80.7,70.8,83,64.1,83,57C83,52.4,82,47.8,80.2,43.6z M62,18c0-1.7,1.3-3,3-3s3,1.3,3,3v13h-6V18z
	 M28.8,87.4c-0.8,1.5-2.5,2.1-4,1.3c-1.5-0.8-2.1-2.6-1.3-4l2.6-5.1c1.4,1.5,3,2.9,4.7,4.1L28.8,87.4z M76.8,87
	c-0.2,0.8-0.8,1.4-1.5,1.7c-1.5,0.8-3.3,0.2-4-1.3l-1.9-3.7c1.7-1.2,3.2-2.6,4.7-4.1l2.6,5.1C77,85.4,77,86.2,76.8,87z M50,86
	c-16,0-29-13-29-29c0-4.2,0.9-8.2,2.6-12c0.1,0,0.2,0,0.4,0h7v11c0,3.9,3.1,7,7,7s7-3.1,7-7v-1h3c3.9,0,7-3.1,7-7v-3h21
	c0.1,0,0.2,0,0.4,0c1.7,3.8,2.6,7.8,2.6,12C79,73,66,86,50,86z M76.9,40.8C76.6,40.9,76.3,41,76,41H53c-1.1,0-2,0.9-2,2v5
	c0,1.7-1.3,3-3,3h-3v-2c0-1.1-0.9-2-2-2s-2,0.9-2,2v7c0,1.7-1.3,3-3,3s-3-1.3-3-3V43c0-1.1-0.9-2-2-2h-9c-0.3,0-0.6,0-0.9-0.2
	C21.8,40.4,21,39.3,21,38c0-1.7,1.3-3,3-3h52c1.7,0,3,1.3,3,3C79,39.3,78.2,40.4,76.9,40.8z M35,21c3.9,0,7-3.1,7-7s-3.1-7-7-7
	s-7,3.1-7,7S31.1,21,35,21z M35,11c1.7,0,3,1.3,3,3c0,1.7-1.3,3-3,3s-3-1.3-3-3C32,12.3,33.3,11,35,11z M48,23c0-1.1,0.9-2,2-2
	s2,0.9,2,2c0,1.1-0.9,2-2,2S48,24.1,48,23z"/>
</svg>
