<?xml version="1.0" encoding="utf-8"?>
<!-- Generator: Adobe Illustrator 21.0.2, SVG Export Plug-In . SVG Version: 6.00 Build 0)  -->
<svg version="1.1" id="Layer_1" xmlns="http://www.w3.org/2000/svg" xmlns:xlink="http://www.w3.org/1999/xlink" x="0px" y="0px"
	 viewBox="0 0 100 100" style="enable-background:new 0 0 100 100;" xml:space="preserve">
<g>
	<path d="M54.6,47.2c8.6-1.8,17-4.4,25.1-7.8c0-0.1-0.1-0.1-0.1-0.2c-3.1-0.2-5.9-2.2-7-5c-2.8-0.1-5.2-1.7-6.6-4.1
		c-0.3,0-0.7,0.1-1,0.1c-1.8,0-3.4-0.6-4.7-1.5l-6,2.8c-0.1,1.3-0.4,2.5-0.9,3.7c-1.3,2.7-3.1,5-5.4,6.9c-1.5,1.3-3.3,2.3-5.2,3.1
		c-0.7,0.3-1.5,0.4-2.2,0.4c-1.8,0-3.6-0.8-4.7-2.3c-0.6-0.8-1.2-1.7-1.7-2.5l-19.5,9.1C28,50.9,41.5,50,54.6,47.2z"/>
	<path d="M85,43.9v22.3c0,7.7-6.3,14-14,14H9v2c0,1.1,0.9,2,2,2h72c3.3,0,6-2.7,6-6V43.9c-0.6,0.2-1.3,0.3-2,0.3S85.6,44.1,85,43.9z
		"/>
	<path d="M80.9,67c-1.3,0.8-2.8,1.2-4.4,1.2c-4.7,0-9.2-2-12.2-5.6c-0.7-0.9-1.8-1.4-3-1.4c-2.1,0-3.9,1.5-4.3,3.5
		c-0.8,4.3-4.5,7.5-8.9,7.5h-1c-4.5,0-8.7-2.1-11.4-5.7c-1.1-1.4-2.8-2.3-4.6-2.3c-1,0-2.1,0.3-3,0.8l-3.8,2.3
		c-3.2,1.9-6.8,2.9-10.5,2.9c-1.8,0-3.5-0.5-4.9-1.5v7.5h61.2C75.6,76.2,80.1,72.2,80.9,67z"/>
	<path d="M13.9,66.2c3,0,5.9-0.8,8.4-2.3l3.8-2.3c0.5-0.3,1-0.5,1.5-0.7c1.1-0.4,2.3-0.7,3.5-0.7c1.1,0,2.1,0.2,3.1,0.5
		c1.8,0.6,3.5,1.8,4.7,3.4c1.9,2.6,5,4.1,8.2,4.1h1c2.5,0,4.6-1.8,5-4.2c0.2-1.4,0.9-2.7,1.7-3.7c1.5-1.9,3.9-3.1,6.5-3.1
		c2.3,0,4.5,1,6,2.8c0,0,0,0,0.1,0.1c2.3,2.7,5.6,4.2,9.2,4.2c2.5,0,4.5-2,4.5-4.5V43.2c-21.8,9-45.7,12.6-69.2,10.4L9,53.4v7.9
		C9,64,11.2,66.2,13.9,66.2z"/>
	<path d="M87,32.2c-0.2,0-0.5,0-0.7,0.1c-0.5,0.1-1.1,0-1.5-0.3c-0.4-0.3-0.7-0.8-0.8-1.3c-0.3-1.9-2-3.4-4-3.4
		c-0.2,0-0.5,0-0.7,0.1c-0.5,0.1-1.1,0-1.5-0.3c-0.4-0.3-0.7-0.8-0.8-1.3c-0.3-1.9-2-3.4-4-3.4c-0.5,0-1,0.1-1.5,0.3
		c-0.5,0.2-1.1,0.2-1.6-0.1c-0.5-0.3-0.9-0.7-1-1.3c-0.5-1.7-2.1-3-3.9-3c-2.2,0-4,1.8-4,4c0,2.2,1.8,4,4,4c0.5,0,1-0.1,1.5-0.3
		c0.5-0.2,1.1-0.2,1.6,0.1c0.5,0.3,0.9,0.7,1,1.3c0.5,1.7,2.1,3,3.9,3c0.2,0,0.5,0,0.7-0.1c0.5-0.1,1.1,0,1.5,0.3
		c0.4,0.3,0.7,0.8,0.8,1.3c0.3,1.9,2,3.4,4,3.4c0.2,0,0.5,0,0.7-0.1c0.1,0,0.2,0,0.4,0c0.4,0,0.8,0.1,1.2,0.4
		c0.4,0.3,0.7,0.8,0.8,1.3c0.3,1.9,2,3.4,4,3.4c2.2,0,4-1.8,4-4C91,34,89.2,32.2,87,32.2z"/>
	<path d="M41.3,41.4c3.7-1.5,6.7-4.3,8.4-8c0.7-1.5,0.7-3.3,0-4.8c-0.3-0.6-0.7-1.2-1.1-1.6c0.6-0.2,1.2-0.4,1.8-0.8
		c0.6-0.4,1.2-0.8,1.7-1.3c1-1,1.7-2.2,2-3.5c0.3-1.1-0.4-2.2-1.4-2.5c-1.1-0.3-2.2,0.4-2.4,1.4c-0.2,0.8-0.7,1.5-1.3,2
		c-0.2,0.1-0.4,0.3-0.6,0.4c-0.3,0.2-0.6,0.3-1,0.4l0.3-1.3l0.5-2c0.3-1.1-0.4-2.2-1.4-2.4c-1.1-0.3-2.2,0.4-2.4,1.4l-0.5,2
		l-0.3,1.3c-0.2-0.2-0.5-0.5-0.7-0.8c-0.2-0.3-0.3-0.5-0.3-0.8c-0.2-0.7-0.3-1.5-0.1-2.2c0.3-1.1-0.4-2.2-1.4-2.4
		c-1.1-0.3-2.2,0.4-2.4,1.4c-0.3,1.2-0.3,2.4-0.1,3.5c0.2,0.9,0.5,1.7,1,2.5c0.2,0.4,0.5,0.8,0.8,1.1c-0.9,0.2-1.7,0.5-2.4,1
		c-1.4,1-2.2,2.5-2.4,4.2c-0.3,4,0.9,7.9,3.4,11.1C39.5,41.5,40.5,41.8,41.3,41.4z"/>
</g>
</svg>
