<?xml version="1.0" encoding="utf-8"?>
<!-- Generator: Adobe Illustrator 21.0.2, SVG Export Plug-In . SVG Version: 6.00 Build 0)  -->
<svg version="1.1" id="Layer_1" xmlns="http://www.w3.org/2000/svg" xmlns:xlink="http://www.w3.org/1999/xlink" x="0px" y="0px"
	 viewBox="0 0 100 100" style="enable-background:new 0 0 100 100;" xml:space="preserve">
<path d="M87.4,27.2c-1.1-2.8-3.9-4.8-7-5c-1.2-3-4.1-5-7.4-5c-0.3,0-0.7,0-1,0.1c-1.4-2.5-4-4.1-7-4.1c-4.4,0-8,3.6-8,8
	c0,1.2,0.2,2.3,0.7,3.3l-4.1,1.9c-0.1-0.2-0.1-0.3-0.2-0.5c-0.6-1.2-1.3-2.2-2.3-3.1c1.5-1.1,2.6-2.6,3.1-4.5
	c0.3-1.1-0.4-2.2-1.4-2.4c-1.1-0.3-2.2,0.3-2.4,1.4c-0.3,1-0.9,1.9-1.9,2.4c-0.3,0.2-0.6,0.3-1,0.4l0.9-3.3c0.3-1.1-0.4-2.2-1.4-2.4
	c-1.1-0.3-2.2,0.4-2.4,1.4l-0.9,3.3c-0.2-0.2-0.5-0.5-0.7-0.8c-0.5-0.9-0.7-2-0.4-3c0.3-1.1-0.4-2.2-1.4-2.5
	c-1.1-0.3-2.2,0.4-2.4,1.4c-0.5,1.8-0.3,3.7,0.5,5.4c-1.3,0.3-2.5,0.8-3.5,1.6c-2.3,1.7-3.8,4.3-4,7.2c-0.2,2.6,0.2,5.2,1,7.7
	L6.2,48.4c0,0,0,0-0.1,0c-0.1,0.1-0.3,0.2-0.4,0.3c0,0,0,0-0.1,0c0,0,0,0,0,0c-0.1,0.1-0.2,0.2-0.3,0.4c0,0-0.1,0.1-0.1,0.1
	c-0.1,0.1-0.1,0.2-0.2,0.3c0,0,0,0.1,0,0.1C5,49.8,5,50,5,50.2v0c0,0,0,0,0,0v31c0,3.3,2.7,6,6,6h72c5.5,0,10-4.5,10-10V40.5
	c1.2-1.4,2-3.3,2-5.3C95,30.9,91.6,27.4,87.4,27.2z M35.6,28.7c0.1-1.7,1-3.2,2.4-4.2c1-0.7,2.1-1.1,3.3-1.1c0.5,0,1,0.1,1.5,0.2
	l3.3,0.9c1.6,0.4,3,1.6,3.7,3.1c0.7,1.5,0.7,3.3,0,4.8c-1.7,3.6-4.7,6.5-8.4,8c-0.8,0.3-1.8,0.1-2.3-0.6
	C36.5,36.7,35.3,32.7,35.6,28.7z M34.2,39.8c0.5,0.9,1,1.7,1.7,2.5c1.2,1.5,2.9,2.3,4.7,2.3c0.8,0,1.5-0.1,2.2-0.4
	c4.6-1.9,8.4-5.4,10.5-10c0.6-1.2,0.9-2.4,0.9-3.7l6-2.8c1.3,1,2.9,1.5,4.7,1.5c0.3,0,0.7,0,1-0.1c1.3,2.3,3.8,3.9,6.6,4.1
	c1.1,2.8,3.9,4.8,7,5c0,0.1,0.1,0.1,0.1,0.2C59.2,47,36.8,50.5,14.6,48.9L34.2,39.8z M9,52.4l2.8,0.3c23.5,2.2,47.4-1.4,69.2-10.4
	v16.5c0,2.5-2,4.5-4.5,4.5c-3.5,0-6.9-1.5-9.2-4.2c-1.5-1.8-3.7-2.8-6-2.8c-4,0-7.5,2.9-8.2,6.8c-0.4,2.4-2.5,4.2-5,4.2h-1
	c-3.2,0-6.3-1.5-8.2-4.1c-1.8-2.4-4.7-3.9-7.8-3.9c-1.8,0-3.5,0.5-5,1.4l-3.8,2.3c-2.5,1.5-5.4,2.3-8.4,2.3C11.2,65.2,9,63,9,60.3
	V52.4z M9,67.7c1.4,0.9,3.1,1.5,4.9,1.5c3.7,0,7.3-1,10.5-2.9l3.8-2.3c0.9-0.5,1.9-0.8,3-0.8c1.8,0,3.5,0.9,4.6,2.3
	c2.7,3.6,7,5.7,11.4,5.7h1c4.4,0,8.1-3.1,8.9-7.4c0.4-2.1,2.2-3.6,4.3-3.6c1.1,0,2.2,0.5,3,1.4c3.1,3.6,7.5,5.6,12.2,5.6
	c1.6,0,3.1-0.5,4.4-1.2c-0.8,5.2-5.2,9.2-10.7,9.2H9V67.7z M89,77.2c0,3.3-2.7,6-6,6H11c-1.1,0-2-0.9-2-2v-2h62c7.7,0,14-6.3,14-14
	V42.9c0.6,0.2,1.3,0.3,2,0.3s1.4-0.1,2-0.3V77.2z M87,39.2c-2,0-3.7-1.5-4-3.4c-0.1-0.5-0.4-1-0.8-1.3c-0.3-0.2-0.8-0.4-1.2-0.4
	c-0.1,0-0.2,0-0.4,0c-0.3,0-0.5,0.1-0.7,0.1c-2,0-3.7-1.5-4-3.4c-0.1-0.5-0.4-1-0.8-1.3c-0.4-0.3-1-0.4-1.5-0.3
	c-0.3,0-0.5,0.1-0.7,0.1c-1.8,0-3.4-1.2-3.9-3c-0.1-0.5-0.5-1-1-1.3c-0.5-0.2-1.1-0.3-1.6-0.1c-0.5,0.2-1,0.3-1.5,0.3
	c-2.2,0-4-1.8-4-4c0-2.2,1.8-4,4-4c1.8,0,3.4,1.2,3.9,3c0.2,0.5,0.5,1,1,1.3c0.5,0.2,1.1,0.3,1.6,0.1c0.5-0.2,1-0.3,1.5-0.3
	c2,0,3.7,1.5,4,3.4c0.1,0.5,0.4,1,0.8,1.3s1,0.4,1.5,0.3c0.3-0.1,0.5-0.1,0.7-0.1c2,0,3.7,1.5,4,3.4c0.1,0.5,0.4,1,0.8,1.3
	s1,0.4,1.5,0.3c0.3-0.1,0.5-0.1,0.7-0.1c2.2,0,4,1.8,4,4C91,37.4,89.2,39.2,87,39.2z"/>
</svg>
