<?xml version="1.0" encoding="utf-8"?>
<!-- Generator: Adobe Illustrator 21.0.2, SVG Export Plug-In . SVG Version: 6.00 Build 0)  -->
<svg version="1.1" id="Layer_1" xmlns="http://www.w3.org/2000/svg" xmlns:xlink="http://www.w3.org/1999/xlink" x="0px" y="0px"
	 viewBox="0 0 100 100" style="enable-background:new 0 0 100 100;" xml:space="preserve">
<path d="M70.1,52.8c-3,0-5.9,0.7-8.5,1.8c-7.2-13.2-8.8-28.9-4.6-43.2c0.3-0.9-0.1-1.8-0.8-2.2c-0.5-0.3-1-0.4-1.6-0.2
	c-0.2-0.1-0.5-0.1-0.7-0.1L43.8,9.6c-3.2-2.8-7.3-4.4-11.7-4.4h-0.1c-4.8,0-9.3,1.8-12.7,5.2l-9.9,9.9c-0.4,0.4-0.6,0.9-0.6,1.4
	s0.2,1,0.6,1.4c3.4,3.4,7.9,5.3,12.7,5.3h0.1c4.8,0,9.3-1.8,12.7-5.2l9.8-9.7l5.1-0.4C39.5,23.8,33.7,38,33.8,52.9
	C23.3,54.1,15.1,63,15.1,73.8c0,11.6,9.4,21,21,21c6.9,0,13.1-3.3,17-8.7c3.8,5.3,10,8.7,17,8.7c11.6,0,21-9.4,21-21
	C91.1,62.2,81.7,52.8,70.1,52.8z M32.1,20.4c-2.6,2.6-6.1,4-9.8,4h-0.1c-3.1,0-6-1-8.4-2.8l8.4-8.3c2.7-2.6,6.1-4,9.9-4h0.1
	c2,0,3.9,0.4,5.6,1.2C32.6,11,27.7,13,23.5,16c-0.9,0.7-1.1,1.9-0.4,2.8c0.4,0.5,1,0.8,1.6,0.8c0.4,0,0.8-0.1,1.2-0.4
	c3.6-2.6,7.8-4.3,12.2-4.9L32.1,20.4z M50.9,82.2c-3,5.3-8.6,8.6-14.8,8.6c-9.4,0-17-7.6-17-17c0-8.6,6.4-15.7,14.7-16.8l0.2,7.7
	c-0.6-0.2-1.2-0.5-1.7-0.9c-0.8-0.7-2.1-0.6-2.8,0.2c-0.7,0.9-0.6,2.1,0.2,2.8c1.7,1.4,3.8,2.1,5.8,2.1c2.6,0,5.2-1.1,7-3.2
	c0.7-0.8,0.6-2.1-0.2-2.8c-0.8-0.7-2.1-0.6-2.8,0.2c-0.4,0.5-0.9,0.9-1.4,1.2l-0.2-7.3c5.5,0.5,10.3,3.7,13,8.5
	c-1.1,2.6-1.8,5.4-1.8,8.4S49.8,79.6,50.9,82.2z M37.8,52.9c-0.1-13.4,4.9-26.2,13.8-35.9c-2.3,13.5-0.1,27.6,6.5,39.7
	c-1.9,1.3-3.6,3-5,4.9C49.6,56.5,44,53.4,37.8,52.9z M70.1,90.8c-9.4,0-17-7.6-17-17c0-5.6,2.7-10.6,6.9-13.7l3.7,6.6
	c-0.6,0.1-1.3,0.1-1.9-0.1c-1.1-0.2-2.2,0.4-2.4,1.5c-0.2,1.1,0.4,2.1,1.5,2.4c0.7,0.2,1.3,0.2,2,0.2c4.2,0,7.9-2.9,8.8-7.1
	c0.2-1.1-0.4-2.2-1.5-2.4c-1.1-0.2-2.2,0.4-2.4,1.5c-0.1,0.6-0.4,1.2-0.8,1.7l-3.6-6.5c2-0.9,4.3-1.3,6.6-1.3c9.4,0,17,7.6,17,17
	S79.5,90.8,70.1,90.8z"/>
</svg>
