<?xml version="1.0" encoding="utf-8"?>
<!-- Generator: Adobe Illustrator 21.0.2, SVG Export Plug-In . SVG Version: 6.00 Build 0)  -->
<svg version="1.1" id="Layer_1" xmlns="http://www.w3.org/2000/svg" xmlns:xlink="http://www.w3.org/1999/xlink" x="0px" y="0px"
	 viewBox="0 0 100 100" style="enable-background:new 0 0 100 100;" xml:space="preserve">
<path d="M70.1,54.8c-2.7,0-5.2,0.6-7.6,1.6L61.8,55c-7.3-13.2-9-29.1-4.8-43.6c0.3-0.9-0.1-1.8-0.8-2.2c-0.5-0.3-1-0.4-1.6-0.2
	c-0.2-0.1-0.5-0.1-0.7-0.1l-13,1c0,0-0.1,0-0.1,0c-6.2-4.1-14.6-3.4-20.1,2l-10,9.9c6.2,6.3,16.3,6.3,22.6,0.1l8.1-8l8.2-0.6
	c-10.6,11-16.3,25.6-15.9,41l0,0.8c-9.4,1.1-16.7,9.1-16.7,18.9c0,10.5,8.5,19,19,19c7.4,0,13.9-4.3,17-10.5v0
	c3.1,6.2,9.6,10.5,17,10.5c10.5,0,19-8.5,19-19S80.6,54.8,70.1,54.8z M42.6,65.7c-1.8,2.1-4.4,3.2-7,3.2c-2.1,0-4.1-0.7-5.8-2.1
	c-0.8-0.7-1-2-0.2-2.8c0.7-0.8,2-0.9,2.8-0.2c0.5,0.4,1.1,0.8,1.7,0.9c0.4,0.1,0.8,0.2,1.2,0.2c0.5,0,1,0,1.4-0.1
	c0.5-0.1,0.9-0.3,1.3-0.5c0.5-0.3,1-0.7,1.4-1.2c0.7-0.8,2-1,2.8-0.2C43.2,63.6,43.3,64.8,42.6,65.7z M53.1,65.3L53.1,65.3
	c-2.9-5.8-8.6-9.9-15.3-10.5l0-0.8c-0.4-13.8,4.6-27,13.8-37.1c-2.4,13.6,0,27.8,6.7,40l0.8,1.5C56.6,60.2,54.5,62.6,53.1,65.3z
	 M71.8,63.7c-0.9,4.2-4.7,7.1-8.8,7.1c-0.7,0-1.3-0.1-2-0.2c-1.1-0.2-1.8-1.3-1.5-2.4c0.2-1.1,1.3-1.8,2.4-1.5
	c0.6,0.1,1.3,0.2,1.9,0.1c0.4-0.1,0.8-0.2,1.2-0.4c0.2-0.1,0.5-0.2,0.7-0.3c0.2-0.1,0.4-0.3,0.6-0.5c0.4-0.3,0.7-0.6,0.9-1
	c0.3-0.5,0.6-1.1,0.8-1.7c0.2-1.1,1.3-1.8,2.4-1.5C71.3,61.6,72,62.7,71.8,63.7z"/>
</svg>
