<?xml version="1.0" encoding="utf-8"?>
<!-- Generator: Adobe Illustrator 21.0.2, SVG Export Plug-In . SVG Version: 6.00 Build 0)  -->
<svg version="1.1" id="Layer_1" xmlns="http://www.w3.org/2000/svg" xmlns:xlink="http://www.w3.org/1999/xlink" x="0px" y="0px"
	 viewBox="0 0 100 100" style="enable-background:new 0 0 100 100;" xml:space="preserve">
<g>
	<path d="M28,7.2c-11.6,0-21,12.1-21,27c0,9.8,4.1,18.5,10.2,23.2c1.8,1.4,2.8,3.6,2.8,5.8c0,1.8,1.2,3.2,2.7,3.8v13.4
		c-2.4,0.5-4.2,2.6-4.2,5.2c0,2.9,2.4,5.3,5.3,5.3c1.7,0,3.2-0.8,4.2-2.1h0c1,1.3,2.5,2.1,4.2,2.1c2.9,0,5.3-2.4,5.3-5.3
		c0-2.5-1.8-4.7-4.2-5.2V67c1.6-0.5,2.7-2,2.7-3.8c0-2.3,1-4.5,2.8-5.8C44.9,52.6,49,44,49,34.2C49,19.3,39.6,7.2,28,7.2z M31,37.2
		c-1.1,0-2-0.9-2-2c0-1.1,0.9-2,2-2s2,0.9,2,2C33,36.3,32.1,37.2,31,37.2z M31,25.2c-1.1,0-2-0.9-2-2c0-1.1,0.9-2,2-2s2,0.9,2,2
		C33,24.3,32.1,25.2,31,25.2z M39,31.2c-1.1,0-2-0.9-2-2c0-1.1,0.9-2,2-2s2,0.9,2,2C41,30.3,40.1,31.2,39,31.2z"/>
	<path d="M82.8,42.6C81,41.3,80,39.1,80,36.8c0-1.8-1.2-3.2-2.7-3.8V19.6c2.4-0.5,4.2-2.6,4.2-5.2c0-2.9-2.4-5.3-5.3-5.3
		c-1.7,0-3.2,0.8-4.2,2.1h0c-1-1.3-2.5-2.1-4.2-2.1c-2.9,0-5.3,2.4-5.3,5.3c0,2.5,1.8,4.7,4.2,5.2V33c-1.6,0.5-2.7,2-2.7,3.8
		c0,2.3-1,4.4-2.8,5.8C55.1,47.4,51,56,51,65.8c0,14.9,9.4,27,21,27s21-12.1,21-27C93,56,88.9,47.4,82.8,42.6z M75,78.8
		c-1.1,0-2-0.9-2-2c0-1.1,0.9-2,2-2s2,0.9,2,2C77,77.9,76.1,78.8,75,78.8z M75,66.8c-1.1,0-2-0.9-2-2c0-1.1,0.9-2,2-2s2,0.9,2,2
		C77,65.9,76.1,66.8,75,66.8z M83,72.8c-1.1,0-2-0.9-2-2c0-1.1,0.9-2,2-2s2,0.9,2,2C85,71.9,84.1,72.8,83,72.8z"/>
</g>
</svg>
