<?xml version="1.0" encoding="utf-8"?>
<!-- Generator: Adobe Illustrator 21.0.2, SVG Export Plug-In . SVG Version: 6.00 Build 0)  -->
<svg version="1.1" id="Layer_1" xmlns="http://www.w3.org/2000/svg" xmlns:xlink="http://www.w3.org/1999/xlink" x="0px" y="0px"
	 viewBox="0 0 100 100" style="enable-background:new 0 0 100 100;" xml:space="preserve">
<g>
	<path d="M59.3,19.9c-5.3,0.4-9.3,5-9.3,10.3v5c0,1.8-0.5,4.5-1.3,6l-3.2,5.3l4.1,4.1l0.5,0.5l0.4-0.3l9.2-8.4
		c0.4-0.4,0.9-0.5,1.4-0.5c0.5,0,1,0.3,1.4,0.7l7.5,8.4V36.5l6-2.9l-6-3.9C69.9,24,65.1,19.5,59.3,19.9z M62,30.8c-1.1,0-2-0.9-2-2
		c0-1.1,0.9-2,2-2s2,0.9,2,2C64,29.9,63.1,30.8,62,30.8z"/>
	<path d="M71.3,55.4c-0.8,0.7-2.1,0.6-2.8-0.2l-7.7-8.5l-9.5,8.7c-0.8,0.7-2,0.7-2.8-0.1l-8.5-8.5l-7.6,8.4
		c-0.7,0.8-1.9,0.9-2.7,0.2L20,47.9v15.9c0,16.5,13.5,30,30,30s30-13.5,30-30V48.1L71.3,55.4z M37.5,81.2c-0.4,0.4-1,0.7-1.5,0.7
		c-0.5,0-0.9-0.2-1.3-0.5C29.2,76.5,26,69.5,26,62.2v-0.4c0-1.1,0.9-2,2-2s2,0.9,2,2v0.4c0,2.1,0.3,4.2,0.9,6.2
		c0.5,1.7,1.2,3.3,2.2,4.8c1.1,1.9,2.5,3.6,4.2,5.1C38.2,79.1,38.2,80.3,37.5,81.2z"/>
	<path d="M51.5,17.8l6.7,0.6l4.5-5l4.8,1.4l5.6-2.2l-2.5-2.3C66,6.2,59.5,5,53.8,7.2c-5.7,2.2-9.7,7.5-10.3,13.6l-0.3,3.4l3.7-1.4
		L51.5,17.8z"/>
</g>
</svg>
