<?xml version="1.0" encoding="utf-8"?>
<!-- Generator: Adobe Illustrator 21.0.2, SVG Export Plug-In . SVG Version: 6.00 Build 0)  -->
<svg version="1.1" id="Layer_1" xmlns="http://www.w3.org/2000/svg" xmlns:xlink="http://www.w3.org/1999/xlink" x="0px" y="0px"
	 viewBox="0 0 100 100" style="enable-background:new 0 0 100 100;" xml:space="preserve">
<g>
	<path d="M28,5.2c-12.7,0-23,13-23,29c0,10.2,4.1,19.5,11,24.8c1.2,1,2,2.6,2,4.2c0,2.1,1.1,4,2.7,5V81c-2.5,1.2-4.2,3.7-4.2,6.6
		c0,4,3.3,7.3,7.3,7.3c1.5,0,3-0.5,4.2-1.4c1.2,0.9,2.7,1.4,4.2,1.4c4,0,7.3-3.3,7.3-7.3c0-2.9-1.7-5.4-4.2-6.6V68.2
		c1.6-1.1,2.7-2.9,2.7-5c0-1.7,0.8-3.3,2-4.2c6.9-5.3,11-14.6,11-24.8C51,18.2,40.7,5.2,28,5.2z M35.5,87.5c0,1.8-1.5,3.3-3.3,3.3
		c-1,0-2-0.5-2.6-1.3c-0.4-0.5-1-0.8-1.6-0.8c-0.6,0-1.2,0.3-1.6,0.8c-0.6,0.8-1.6,1.3-2.6,1.3c-1.8,0-3.3-1.5-3.3-3.3
		c0-1.5,1.1-2.9,2.6-3.2c0.9-0.2,1.6-1,1.6-2V69.2h6.5v13.2c0,1,0.7,1.8,1.6,2C34.4,84.7,35.5,86,35.5,87.5z M37.6,55.8
		c-2.2,1.7-3.6,4.5-3.6,7.4c0,1.1-0.9,2-2,2h-8c-1.1,0-2-0.9-2-2c0-2.9-1.3-5.7-3.6-7.4C12.6,51.3,9,43,9,34.2c0-13.8,8.5-25,19-25
		s19,11.2,19,25C47,43,43.4,51.3,37.6,55.8z"/>
	<circle cx="39" cy="29.2" r="2"/>
	<circle cx="31" cy="35.2" r="2"/>
	<circle cx="31" cy="23.2" r="2"/>
	<path d="M84,41.1c-1.2-1-2-2.6-2-4.2c0-2.1-1.1-4-2.7-5V19c2.5-1.2,4.2-3.7,4.2-6.6c0-4-3.3-7.3-7.3-7.3c-1.5,0-3,0.5-4.2,1.4
		c-1.2-0.9-2.7-1.4-4.2-1.4c-4,0-7.3,3.3-7.3,7.3c0,2.9,1.7,5.4,4.2,6.6v12.8c-1.6,1.1-2.7,2.9-2.7,5c0,1.7-0.8,3.3-2,4.2
		c-6.9,5.3-11,14.6-11,24.8c0,16,10.3,29,23,29s23-13,23-29C95,55.6,90.9,46.4,84,41.1z M64.5,12.4c0-1.8,1.5-3.3,3.3-3.3
		c1,0,2,0.5,2.6,1.3c0.4,0.5,1,0.8,1.6,0.8c0.6,0,1.2-0.3,1.6-0.8c0.6-0.8,1.6-1.3,2.6-1.3c1.8,0,3.3,1.5,3.3,3.3
		c0,1.5-1.1,2.9-2.6,3.2c-0.9,0.2-1.6,1-1.6,2v13.2h-6.5V17.6c0-1-0.7-1.8-1.6-2C65.6,15.3,64.5,14,64.5,12.4z M72,90.8
		c-10.5,0-19-11.2-19-25c0-8.8,3.6-17.1,9.4-21.6c2.2-1.7,3.6-4.5,3.6-7.4c0-1.1,0.9-2,2-2h8c1.1,0,2,0.9,2,2c0,2.9,1.3,5.7,3.6,7.4
		C87.4,48.7,91,57,91,65.8C91,79.6,82.5,90.8,72,90.8z"/>
	<path d="M83,68.8c-1.1,0-2,0.9-2,2c0,1.1,0.9,2,2,2s2-0.9,2-2C85,69.7,84.1,68.8,83,68.8z"/>
	<path d="M75,62.8c-1.1,0-2,0.9-2,2c0,1.1,0.9,2,2,2s2-0.9,2-2C77,63.7,76.1,62.8,75,62.8z"/>
	<path d="M75,74.8c-1.1,0-2,0.9-2,2c0,1.1,0.9,2,2,2s2-0.9,2-2C77,75.7,76.1,74.8,75,74.8z"/>
</g>
</svg>
