<?xml version="1.0" encoding="utf-8"?>
<!-- Generator: Adobe Illustrator 21.0.2, SVG Export Plug-In . SVG Version: 6.00 Build 0)  -->
<svg version="1.1" id="Layer_1" xmlns="http://www.w3.org/2000/svg" xmlns:xlink="http://www.w3.org/1999/xlink" x="0px" y="0px"
	 viewBox="0 0 100 100" style="enable-background:new 0 0 100 100;" xml:space="preserve">
<g>
	<path d="M58,27c0-1.1-0.9-2-2-2H44c-1.1,0-2,0.9-2,2c0,1.1,0.9,2,2,2h12C57.1,29,58,28.1,58,27z"/>
	<path d="M59,45H41c-1.1,0-2,0.9-2,2c0,1.1,0.9,2,2,2h18c1.1,0,2-0.9,2-2C61,45.9,60.1,45,59,45z"/>
	<path d="M93,91h-2V51c0-5.5-4.5-10-10-10h-8c-1.1,0-2-0.9-2-2V11c0-3.3-2.7-6-6-6H35c-3.3,0-6,2.7-6,6v28c0,0.5-0.2,1-0.6,1.4
		C28,40.8,27.5,41,27,41h-8c-5.5,0-10,4.5-10,10v40H7c-1.1,0-2,0.9-2,2c0,1.1,0.9,2,2,2h86c1.1,0,2-0.9,2-2C95,91.9,94.1,91,93,91z
		 M56.9,83.4l-0.1,0.9c-0.4,2.9-2.3,5.1-4.8,5.9V85c0-1.1-0.9-2-2-2s-2,0.9-2,2v5.2c-2.5-0.8-4.4-3-4.8-5.9l-0.1-0.9
		c-0.3-2.1,0.3-4.2,1.5-5.9l5.4-6.8l5.4,6.8C56.7,79.1,57.2,81.3,56.9,83.4z M71,91H57.9c1.5-1.6,2.5-3.7,2.9-6.1l0.1-0.9
		c0.5-3.2-0.4-6.4-2.4-8.9l-6.9-8.8c-0.4-0.5-1-0.8-1.6-0.8s-1.2,0.3-1.6,0.8L41.5,75c-2,2.5-2.8,5.7-2.4,8.9l0.1,0.9
		c0.3,2.4,1.4,4.5,2.9,6.1H29V80c0-11.6,9.4-21,21-21s21,9.4,21,21V91z M75,55h12v16h-6c-1.1,0-2,0.9-2,2c0,1.1,0.9,2,2,2h6v16H75
		v-6h6c1.1,0,2-0.9,2-2c0-1.1-0.9-2-2-2h-6v-1c0-5.6-1.9-10.8-5-15h11c1.1,0,2-0.9,2-2c0-1.1-0.9-2-2-2H66.2c-4.4-3.7-10-6-16.2-6
		s-11.8,2.3-16.2,6H19c-1.1,0-2,0.9-2,2c0,1.1,0.9,2,2,2h11c-3.1,4.2-5,9.4-5,15v1h-6c-1.1,0-2,0.9-2,2c0,1.1,0.9,2,2,2h6v6H13V75h6
		c1.1,0,2-0.9,2-2c0-1.1-0.9-2-2-2h-6V55h12c1.1,0,2-0.9,2-2c0-1.1-0.9-2-2-2H13c0-3.3,2.7-6,6-6h8c1.6,0,3.1-0.6,4.2-1.8
		c1.1-1.1,1.8-2.6,1.8-4.2v0h12c1.1,0,2-0.9,2-2c0-1.1-0.9-2-2-2H33V19h6c1.1,0,2-0.9,2-2c0-1.1-0.9-2-2-2h-6v-4c0-1.1,0.9-2,2-2h30
		c1.1,0,2,0.9,2,2v4H53c-1.1,0-2,0.9-2,2c0,1.1,0.9,2,2,2h14v16h-8c-1.1,0-2,0.9-2,2c0,1.1,0.9,2,2,2h8c0,3.3,2.7,6,6,6h8
		c3.3,0,6,2.7,6,6H75c-1.1,0-2,0.9-2,2C73,54.1,73.9,55,75,55z"/>
</g>
</svg>
