<?xml version="1.0" encoding="utf-8"?>
<!-- Generator: Adobe Illustrator 21.0.2, SVG Export Plug-In . SVG Version: 6.00 Build 0)  -->
<svg version="1.1" id="Layer_1" xmlns="http://www.w3.org/2000/svg" xmlns:xlink="http://www.w3.org/1999/xlink" x="0px" y="0px"
	 viewBox="0 0 100 100" style="enable-background:new 0 0 100 100;" xml:space="preserve">
<g>
	<path d="M50,69.7l-5.4,6.8c-1.3,1.6-1.8,3.8-1.5,5.9l0.1,0.9c0.4,2.9,2.3,5.1,4.8,5.9V84c0-1.1,0.9-2,2-2s2,0.9,2,2v5.2
		c2.5-0.8,4.4-3,4.8-5.9l0.1-0.9c0.3-2.1-0.3-4.2-1.5-5.9L50,69.7z"/>
	<path d="M93,90h-4V74h-8c-1.1,0-2-0.9-2-2c0-1.1,0.9-2,2-2h8V54H75c-1.1,0-2-0.9-2-2c0-1.1,0.9-2,2-2h14c0-4.4-3.6-8-8-8h-8
		c-2.2,0-4-1.8-4-4H59c-1.1,0-2-0.9-2-2c0-1.1,0.9-2,2-2h10V18H53c-1.1,0-2-0.9-2-2c0-1.1,0.9-2,2-2h16v-4c0-2.2-1.8-4-4-4H35
		c-2.2,0-4,1.8-4,4c0,0,0,1.6,0,4h8c1.1,0,2,0.9,2,2c0,1.1-0.9,2-2,2h-8v16h14c1.1,0,2,0.9,2,2c0,1.1-0.9,2-2,2H31c0,0,0,0,0,0
		c0,2.2-1.8,4-4,4h-8c-4.4,0-8,3.6-8,8h14c1.1,0,2,0.9,2,2c0,1.1-0.9,2-2,2H11v16h8c1.1,0,2,0.9,2,2c0,1.1-0.9,2-2,2h-8v16H7
		c-1.1,0-2,0.9-2,2c0,1.1,0.9,2,2,2h86c1.1,0,2-0.9,2-2C95,90.9,94.1,90,93,90z M44,28c-1.1,0-2-0.9-2-2c0-1.1,0.9-2,2-2h12
		c1.1,0,2,0.9,2,2c0,1.1-0.9,2-2,2H44z M41,44h18c1.1,0,2,0.9,2,2c0,1.1-0.9,2-2,2H41c-1.1,0-2-0.9-2-2C39,44.9,39.9,44,41,44z
		 M60.9,83l-0.1,0.9c-0.3,2.4-1.4,4.5-2.9,6.1H42.1c-1.5-1.6-2.5-3.7-2.9-6.1L39.1,83c-0.5-3.2,0.4-6.4,2.4-8.9l6.9-8.8
		c0.4-0.5,1-0.8,1.6-0.8s1.2,0.3,1.6,0.8l6.9,8.8C60.5,76.5,61.3,79.8,60.9,83z M81,84h-6v6h-4V79c0-11.6-9.4-21-21-21
		s-21,9.4-21,21v11h-4v-6h-6c-1.1,0-2-0.9-2-2c0-1.1,0.9-2,2-2h6v-1c0-5.6,1.9-10.8,5-15H19c-1.1,0-2-0.9-2-2c0-1.1,0.9-2,2-2h14.8
		c4.4-3.7,10-6,16.2-6s11.8,2.3,16.2,6H81c1.1,0,2,0.9,2,2c0,1.1-0.9,2-2,2H70c3.1,4.2,5,9.4,5,15v1h6c1.1,0,2,0.9,2,2
		C83,83.1,82.1,84,81,84z"/>
</g>
</svg>
