<?xml version="1.0" encoding="utf-8"?>
<!-- Generator: Adobe Illustrator 21.0.2, SVG Export Plug-In . SVG Version: 6.00 Build 0)  -->
<svg version="1.1" id="Layer_1" xmlns="http://www.w3.org/2000/svg" xmlns:xlink="http://www.w3.org/1999/xlink" x="0px" y="0px"
	 viewBox="0 0 100 100" style="enable-background:new 0 0 100 100;" xml:space="preserve">
<path d="M76,53V13c0-4.4-3.6-8-8-8H32c-4.4,0-8,3.6-8,8v40c-3.3,0-6,2.7-6,6v2.3c0,3.1,2.5,5.8,5.6,6l0.4,0V87c0,4.4,3.6,8,8,8h36
	c4.4,0,8-3.6,8-8V70.7c1.5,0,3-0.6,4.1-1.6c1.2-1.1,1.9-2.7,1.9-4.4V59C82,55.7,79.3,53,76,53z M60,9h8c2.2,0,4,1.8,4,4v8H60V9z
	 M60,25h12v12H60V25z M60,41h12v12H60V41z M44,9h12v12H44V9z M44,25h12v12H44V25z M44,41h12v12H44V41z M28,13c0-2.2,1.8-4,4-4h8v12
	H28V13z M28,25h12v12H28V25z M28,41h12v12H28V41z M72,87c0,2.2-1.8,4-4,4H32c-2.2,0-4-1.8-4-4V67.5l44,2.9V87z M78,64.7
	c0,0.6-0.2,1.1-0.6,1.5c-0.4,0.4-0.9,0.6-1.5,0.5l-52-3.5c-1-0.1-1.9-0.9-1.9-2V59c0-1.1,0.9-2,2-2h52c1.1,0,2,0.9,2,2V64.7z"/>
</svg>
