<?xml version="1.0" encoding="utf-8"?>
<!-- Generator: Adobe Illustrator 21.0.2, SVG Export Plug-In . SVG Version: 6.00 Build 0)  -->
<svg version="1.1" id="Layer_1" xmlns="http://www.w3.org/2000/svg" xmlns:xlink="http://www.w3.org/1999/xlink" x="0px" y="0px"
	 viewBox="0 0 100 100" style="enable-background:new 0 0 100 100;" xml:space="preserve">
<g>
	<path d="M28,87c0,2.2,1.8,4,4,4h36c2.2,0,4-1.8,4-4V70.5l-44-2.9V87z"/>
	<path d="M76,57H24c-1.1,0-2,0.9-2,2v2.3c0,1,0.8,1.9,1.9,2l52,3.5c0.6,0,1.1-0.1,1.5-0.5c0.4-0.4,0.6-0.9,0.6-1.5V59
		C78,57.9,77.1,57,76,57z"/>
	<rect x="44" y="9" width="12" height="12"/>
	<path d="M40,9h-8c-2.2,0-4,1.8-4,4v8h12V9z"/>
	<path d="M72,13c0-2.2-1.8-4-4-4h-8v12h12V13z"/>
	<rect x="44" y="25" width="12" height="12"/>
	<rect x="60" y="25" width="12" height="12"/>
	<rect x="28" y="25" width="12" height="12"/>
	<rect x="44" y="41" width="12" height="12"/>
	<rect x="60" y="41" width="12" height="12"/>
	<rect x="28" y="41" width="12" height="12"/>
</g>
</svg>
