<?xml version="1.0" encoding="utf-8"?>
<!-- Generator: Adobe Illustrator 21.0.2, SVG Export Plug-In . SVG Version: 6.00 Build 0)  -->
<svg version="1.1" id="Layer_1" xmlns="http://www.w3.org/2000/svg" xmlns:xlink="http://www.w3.org/1999/xlink" x="0px" y="0px"
	 viewBox="0 0 100 100" style="enable-background:new 0 0 100 100;" xml:space="preserve">
<g>
	<path d="M89,68V18c0-3.3-2.7-6-6-6H17c-3.3,0-6,2.7-6,6v50c-3.3,0-6,2.7-6,6c0,7.7,6.3,14,14,14h62c7.7,0,14-6.3,14-14
		C95,70.7,92.3,68,89,68z M15,18c0-1.1,0.9-2,2-2h66c1.1,0,2,0.9,2,2v50H15V18z M57,72v2c0,1.1-0.9,2-2,2H45c-1.1,0-2-0.9-2-2v-2H57
		z M81,84H19c-5.5,0-10-4.5-10-10c0-1.1,0.9-2,2-2h28v2c0,3.3,2.7,6,6,6h10c3.3,0,6-2.7,6-6v-2h28c1.1,0,2,0.9,2,2
		C91,79.5,86.5,84,81,84z"/>
	<path d="M77,25H49c-1.1,0-2,0.9-2,2c0,1.1,0.9,2,2,2h28c1.1,0,2-0.9,2-2C79,25.9,78.1,25,77,25z"/>
	<path d="M77,35H49c-1.1,0-2,0.9-2,2c0,1.1,0.9,2,2,2h28c1.1,0,2-0.9,2-2C79,35.9,78.1,35,77,35z"/>
	<path d="M77,45H49c-1.1,0-2,0.9-2,2c0,1.1,0.9,2,2,2h28c1.1,0,2-0.9,2-2C79,45.9,78.1,45,77,45z"/>
	<path d="M77,55H49c-1.1,0-2,0.9-2,2c0,1.1,0.9,2,2,2h28c1.1,0,2-0.9,2-2C79,55.9,78.1,55,77,55z"/>
	<path d="M39,22c-1.1,0-2,0.9-2,2v3.8l-6,3.4l-6-3.4V24c0-1.1-0.9-2-2-2s-2,0.9-2,2v5c0,0.7,0.4,1.4,1,1.7l4.9,2.8L22,36.2
		c-0.1,0.1-0.2,0.1-0.3,0.2c-0.1,0.1-0.2,0.1-0.2,0.2C21.2,37,21,37.5,21,38c0,0,0,0,0,0v8c0,0.5,0.2,0.9,0.5,1.3
		c0.1,0.1,0.1,0.1,0.2,0.2c0.1,0.1,0.2,0.2,0.3,0.2l4.9,2.7L22,53.3c-0.6,0.3-1,1-1,1.7v5c0,1.1,0.9,2,2,2s2-0.9,2-2v-3.8l6-3.4
		l6,3.4V60c0,1.1,0.9,2,2,2s2-0.9,2-2v-5c0-0.7-0.4-1.4-1-1.7l-4.9-2.8l4.9-2.7c0.1-0.1,0.2-0.1,0.3-0.2c0.1-0.1,0.2-0.1,0.2-0.2
		C40.8,47,41,46.5,41,46v-8c0,0,0,0,0,0c0-0.5-0.2-1-0.5-1.3c-0.1-0.1-0.1-0.2-0.2-0.2c-0.1-0.1-0.2-0.2-0.3-0.2l-4.9-2.7l4.9-2.8
		c0.6-0.3,1-1,1-1.7v-5C41,22.9,40.1,22,39,22z M37,39.2v5.7l-6,3.4l-6-3.4v-5.7l6-3.4L37,39.2z"/>
</g>
</svg>
