<?xml version="1.0" encoding="utf-8"?>
<!-- Generator: Adobe Illustrator 21.0.2, SVG Export Plug-In . SVG Version: 6.00 Build 0)  -->
<svg version="1.1" id="Layer_1" xmlns="http://www.w3.org/2000/svg" xmlns:xlink="http://www.w3.org/1999/xlink" x="0px" y="0px"
	 viewBox="0 0 100 100" style="enable-background:new 0 0 100 100;" xml:space="preserve">
<g>
	<polygon points="25,39.2 25,44.8 31,48.2 37,44.8 37,39.2 31,35.8 	"/>
	<path d="M89,72H61v2c0,3.3-2.7,6-6,6H45c-3.3,0-6-2.7-6-6v-2H11c-1.1,0-2,0.9-2,2c0,5.5,4.5,10,10,10h62c5.5,0,10-4.5,10-10
		C91,72.9,90.1,72,89,72z"/>
	<path d="M45,76h10c1.1,0,2-0.9,2-2v-2H43v2C43,75.1,43.9,76,45,76z"/>
	<path d="M85,18c0-1.1-0.9-2-2-2H17c-1.1,0-2,0.9-2,2v50h70V18z M41,29c0,0.7-0.4,1.4-1,1.7l-4.9,2.8l4.9,2.7
		c0.1,0.1,0.2,0.1,0.3,0.2c0.1,0.1,0.2,0.1,0.2,0.2C40.8,37,41,37.5,41,38c0,0,0,0,0,0v8c0,0,0,0,0,0c0,0.5-0.2,0.9-0.5,1.3
		c-0.1,0.1-0.1,0.1-0.2,0.2c-0.1,0.1-0.2,0.2-0.3,0.2l-4.9,2.7l4.9,2.8c0.6,0.3,1,1,1,1.7v5c0,1.1-0.9,2-2,2s-2-0.9-2-2v-3.8l-6-3.4
		l-6,3.4V60c0,1.1-0.9,2-2,2s-2-0.9-2-2v-5c0-0.7,0.4-1.4,1-1.7l4.9-2.8L22,47.8c-0.1-0.1-0.2-0.1-0.3-0.2c-0.1-0.1-0.2-0.1-0.2-0.2
		C21.2,47,21,46.5,21,46c0,0,0,0,0,0v-8c0,0,0,0,0,0c0-0.5,0.2-1,0.5-1.3c0.1-0.1,0.1-0.2,0.2-0.2c0.1-0.1,0.2-0.2,0.3-0.2l4.9-2.7
		L22,30.7c-0.6-0.3-1-1-1-1.7v-5c0-1.1,0.9-2,2-2s2,0.9,2,2v3.8l6,3.4l6-3.4V24c0-1.1,0.9-2,2-2s2,0.9,2,2V29z M77,59H49
		c-1.1,0-2-0.9-2-2c0-1.1,0.9-2,2-2h28c1.1,0,2,0.9,2,2C79,58.1,78.1,59,77,59z M77,49H49c-1.1,0-2-0.9-2-2c0-1.1,0.9-2,2-2h28
		c1.1,0,2,0.9,2,2C79,48.1,78.1,49,77,49z M77,39H49c-1.1,0-2-0.9-2-2c0-1.1,0.9-2,2-2h28c1.1,0,2,0.9,2,2C79,38.1,78.1,39,77,39z
		 M77,29H49c-1.1,0-2-0.9-2-2c0-1.1,0.9-2,2-2h28c1.1,0,2,0.9,2,2C79,28.1,78.1,29,77,29z"/>
</g>
</svg>
