<?xml version="1.0" encoding="utf-8"?>
<!-- Generator: Adobe Illustrator 21.0.2, SVG Export Plug-In . SVG Version: 6.00 Build 0)  -->
<svg version="1.1" id="Layer_1" xmlns="http://www.w3.org/2000/svg" xmlns:xlink="http://www.w3.org/1999/xlink" x="0px" y="0px"
	 viewBox="0 0 100 100" style="enable-background:new 0 0 100 100;" xml:space="preserve">
<g>
	<path d="M89,31H73c-3.3,0-6,2.7-6,6v3.6l-6,2.2V37c0-3.3-2.7-6-6-6h-4c-3.3,0-6,2.7-6,6v18h-5v-4c0-1.1-0.9-2-2-2s-2,0.9-2,2v40h-5
		V40.8c0-1.7-0.7-3.3-2-4.4L22,30c-2.3-2.1-5.8-2.1-8.1,0l-5,4.5V31c0-1.1-0.9-2-2-2s-2,0.9-2,2v62c0,1.1,0.9,2,2,2h86
		c1.1,0,2-0.9,2-2V37C95,33.7,92.3,31,89,31z M27,91H9V39.9l7.7-7c0.8-0.7,1.9-0.7,2.7,0l7,6.4c0.4,0.4,0.7,0.9,0.7,1.5V91z M49,37
		c0-1.1,0.9-2,2-2h4c1.1,0,2,0.9,2,2v7.3l-8,3V37z M58,91H40V59h16c1.1,0,2,0.9,2,2V91z M67,91h-5V61c0-3.3-2.7-6-6-6h-7v-3.5
		l18-6.7V91z M91,91H71V37c0-1.1,0.9-2,2-2h16c1.1,0,2,0.9,2,2V91z"/>
	<path d="M77,41c-1.1,0-2,0.9-2,2v6c0,1.1,0.9,2,2,2s2-0.9,2-2v-6C79,41.9,78.1,41,77,41z"/>
	<path d="M85,41c-1.1,0-2,0.9-2,2v6c0,1.1,0.9,2,2,2s2-0.9,2-2v-6C87,41.9,86.1,41,85,41z"/>
	<path d="M77,55c-1.1,0-2,0.9-2,2v6c0,1.1,0.9,2,2,2s2-0.9,2-2v-6C79,55.9,78.1,55,77,55z"/>
	<path d="M85,55c-1.1,0-2,0.9-2,2v6c0,1.1,0.9,2,2,2s2-0.9,2-2v-6C87,55.9,86.1,55,85,55z"/>
	<path d="M77,69c-1.1,0-2,0.9-2,2v6c0,1.1,0.9,2,2,2s2-0.9,2-2v-6C79,69.9,78.1,69,77,69z"/>
	<path d="M85,69c-1.1,0-2,0.9-2,2v6c0,1.1,0.9,2,2,2s2-0.9,2-2v-6C87,69.9,86.1,69,85,69z"/>
	<path d="M52,65h-6c-1.1,0-2,0.9-2,2c0,1.1,0.9,2,2,2h6c1.1,0,2-0.9,2-2C54,65.9,53.1,65,52,65z"/>
	<path d="M52,73h-6c-1.1,0-2,0.9-2,2c0,1.1,0.9,2,2,2h6c1.1,0,2-0.9,2-2C54,73.9,53.1,73,52,73z"/>
	<path d="M52,81h-6c-1.1,0-2,0.9-2,2c0,1.1,0.9,2,2,2h6c1.1,0,2-0.9,2-2C54,81.9,53.1,81,52,81z"/>
	<path d="M21,43h-6c-1.1,0-2,0.9-2,2c0,1.1,0.9,2,2,2h6c1.1,0,2-0.9,2-2C23,43.9,22.1,43,21,43z"/>
	<path d="M21,53h-6c-1.1,0-2,0.9-2,2c0,1.1,0.9,2,2,2h6c1.1,0,2-0.9,2-2C23,53.9,22.1,53,21,53z"/>
	<path d="M21,63h-6c-1.1,0-2,0.9-2,2c0,1.1,0.9,2,2,2h6c1.1,0,2-0.9,2-2C23,63.9,22.1,63,21,63z"/>
	<path d="M21,73h-6c-1.1,0-2,0.9-2,2c0,1.1,0.9,2,2,2h6c1.1,0,2-0.9,2-2C23,73.9,22.1,73,21,73z"/>
	<circle cx="15" cy="7" r="2"/>
	<circle cx="25" cy="21" r="2"/>
	<circle cx="37" cy="33" r="2"/>
	<circle cx="7" cy="21" r="2"/>
	<path d="M31,9h18c1.1,0,2,0.9,2,2s-0.9,2-2,2h-8c-3.3,0-6,2.7-6,6s2.7,6,6,6h31c0.1,0,0.2,0,0.4,0c0.2,0,0.4,0,0.6,0h20
		c1.1,0,2-0.9,2-2s-0.9-2-2-2H73c-1.1,0-2-0.9-2-2s0.9-2,2-2h10c3.3,0,6-2.7,6-6s-2.7-6-6-6H69c-1.1,0-2,0.9-2,2s0.9,2,2,2h14
		c1.1,0,2,0.9,2,2s-0.9,2-2,2H73c-3.3,0-6,2.7-6,6c0,0.7,0.1,1.4,0.4,2H41c-1.1,0-2-0.9-2-2s0.9-2,2-2h8c3.3,0,6-2.7,6-6s-2.7-6-6-6
		H31c-1.1,0-2,0.9-2,2S29.9,9,31,9z"/>
</g>
</svg>
