<?xml version="1.0" encoding="utf-8"?>
<!-- Generator: Adobe Illustrator 21.0.2, SVG Export Plug-In . SVG Version: 6.00 Build 0)  -->
<svg version="1.1" id="Layer_1" xmlns="http://www.w3.org/2000/svg" xmlns:xlink="http://www.w3.org/1999/xlink" x="0px" y="0px"
	 viewBox="0 0 100 100" style="enable-background:new 0 0 100 100;" xml:space="preserve">
<g>
	<circle cx="15" cy="7" r="2"/>
	<circle cx="25" cy="21" r="2"/>
	<circle cx="37" cy="33" r="2"/>
	<circle cx="7" cy="21" r="2"/>
	<path d="M31,9h18c1.1,0,2,0.9,2,2s-0.9,2-2,2h-8c-3.3,0-6,2.7-6,6s2.7,6,6,6h32h6h14c1.1,0,2-0.9,2-2s-0.9-2-2-2H79h-6
		c-1.1,0-2-0.9-2-2s0.9-2,2-2h10c3.3,0,6-2.7,6-6s-2.7-6-6-6H69c-1.1,0-2,0.9-2,2s0.9,2,2,2h14c1.1,0,2,0.9,2,2s-0.9,2-2,2H73
		c-3.3,0-6,2.7-6,6c0,0.7,0.1,1.4,0.4,2H41c-1.1,0-2-0.9-2-2s0.9-2,2-2h8c3.3,0,6-2.7,6-6s-2.7-6-6-6H31c-1.1,0-2,0.9-2,2
		S29.9,9,31,9z"/>
	<path d="M93,91h-2V31c0-1.1-0.9-2-2-2s-2,0.9-2,2v2H71c-2.2,0-4,1.8-4,4v6.2l-18,7V57H39v-6c0-1.1-0.9-2-2-2s-2,0.9-2,2v40h-4V40.8
		c0-1.1-0.5-2.2-1.3-3l-7-6.4c-1.5-1.4-3.8-1.4-5.4,0L13,35.4V31c0-1.1-0.9-2-2-2s-2,0.9-2,2v60H7c-1.1,0-2,0.9-2,2c0,1.1,0.9,2,2,2
		h86c1.1,0,2-0.9,2-2C95,91.9,94.1,91,93,91z M23,77h-6c-1.1,0-2-0.9-2-2c0-1.1,0.9-2,2-2h6c1.1,0,2,0.9,2,2C25,76.1,24.1,77,23,77z
		 M23,67h-6c-1.1,0-2-0.9-2-2c0-1.1,0.9-2,2-2h6c1.1,0,2,0.9,2,2C25,66.1,24.1,67,23,67z M23,57h-6c-1.1,0-2-0.9-2-2
		c0-1.1,0.9-2,2-2h6c1.1,0,2,0.9,2,2C25,56.1,24.1,57,23,57z M23,47h-6c-1.1,0-2-0.9-2-2c0-1.1,0.9-2,2-2h6c1.1,0,2,0.9,2,2
		C25,46.1,24.1,47,23,47z M49,85h-6c-1.1,0-2-0.9-2-2c0-1.1,0.9-2,2-2h6c1.1,0,2,0.9,2,2C51,84.1,50.1,85,49,85z M49,77h-6
		c-1.1,0-2-0.9-2-2c0-1.1,0.9-2,2-2h6c1.1,0,2,0.9,2,2C51,76.1,50.1,77,49,77z M49,69h-6c-1.1,0-2-0.9-2-2c0-1.1,0.9-2,2-2h6
		c1.1,0,2,0.9,2,2C51,68.1,50.1,69,49,69z M65,80h-6c-1.1,0-2-0.9-2-2c0-1.1,0.9-2,2-2h6c1.1,0,2,0.9,2,2C67,79.1,66.1,80,65,80z
		 M65,72h-6c-1.1,0-2-0.9-2-2c0-1.1,0.9-2,2-2h6c1.1,0,2,0.9,2,2C67,71.1,66.1,72,65,72z M65,64h-6c-1.1,0-2-0.9-2-2
		c0-1.1,0.9-2,2-2h6c1.1,0,2,0.9,2,2C67,63.1,66.1,64,65,64z M65,56h-6c-1.1,0-2-0.9-2-2c0-1.1,0.9-2,2-2h6c1.1,0,2,0.9,2,2
		C67,55.1,66.1,56,65,56z M77,77c0,1.1-0.9,2-2,2s-2-0.9-2-2v-6c0-1.1,0.9-2,2-2s2,0.9,2,2V77z M77,63c0,1.1-0.9,2-2,2s-2-0.9-2-2
		v-6c0-1.1,0.9-2,2-2s2,0.9,2,2V63z M77,49c0,1.1-0.9,2-2,2s-2-0.9-2-2v-6c0-1.1,0.9-2,2-2s2,0.9,2,2V49z M85,77c0,1.1-0.9,2-2,2
		s-2-0.9-2-2v-6c0-1.1,0.9-2,2-2s2,0.9,2,2V77z M85,63c0,1.1-0.9,2-2,2s-2-0.9-2-2v-6c0-1.1,0.9-2,2-2s2,0.9,2,2V63z M85,49
		c0,1.1-0.9,2-2,2s-2-0.9-2-2v-6c0-1.1,0.9-2,2-2s2,0.9,2,2V49z"/>
</g>
</svg>
