<?xml version="1.0" encoding="utf-8"?>
<!-- Generator: Adobe Illustrator 21.0.2, SVG Export Plug-In . SVG Version: 6.00 Build 0)  -->
<svg version="1.1" id="Layer_1" xmlns="http://www.w3.org/2000/svg" xmlns:xlink="http://www.w3.org/1999/xlink" x="0px" y="0px"
	 viewBox="0 0 100 100" style="enable-background:new 0 0 100 100;" xml:space="preserve">
<g>
	<path d="M84,57.1h-1c-0.6-6.7-6.6-12-14-12c-1.4,0-2.8,0.2-4,0.6c-0.4-3.3-1.4-6.5-3.2-9.3c-3.1-5-8-8.4-13.8-9.7
		c-5.7-1.3-11.6-0.3-16.6,2.8c-5,3.1-8.4,8-9.7,13.8c-1.2,5.4-0.4,10.9,2.3,15.7c-0.3,0.7-0.6,1.4-0.9,2.2H19c-7.7,0-14,6.3-14,14
		c0,7.7,6.3,14,14,14h39c6.1,0,11.3-4.3,12.6-10H84c6.1,0,11-4.9,11-11S90.1,57.1,84,57.1z M25.5,44.1c1.1-4.7,3.9-8.7,8-11.2
		c2.9-1.8,6.2-2.8,9.6-2.8c1.3,0,2.7,0.2,4,0.5c4.7,1.1,8.7,3.9,11.2,8c1.7,2.7,2.6,5.8,2.8,9c-2.2,1.4-4,3.4-5,5.7
		c-0.3,0-0.5,0.1-0.8,0.1c-3.5-3.8-8.4-6.1-13.8-6.1c-6,0-11.5,3-15.1,7.7C25,51.4,24.7,47.7,25.5,44.1z M58,85.1H19
		c-5.5,0-10-4.5-10-10s4.5-10,10-10h5.6c0.9,0,1.7-0.6,1.9-1.5c1.8-7.4,8-12.5,14.9-12.5c3.5,0,6.8,1.3,9.4,3.5
		c-4.1,2.2-6.9,6.5-6.9,11.5c0,7.2,5.8,13,13,13h9.5C65.2,82.6,61.9,85.1,58,85.1z M84,75.1H57c-5,0-9-4-9-9c0-5,4-9,9-9h0.5
		c0.9,0,1.7-0.6,1.9-1.4c1.2-3.9,5.2-6.6,9.6-6.6c5.5,0,10,4,10,9c0,0.3,0,0.5,0,0.8c-0.1,0.6,0.1,1.1,0.5,1.5
		c0.4,0.4,0.9,0.7,1.5,0.7h3c3.9,0,7,3.1,7,7S87.9,75.1,84,75.1z"/>
	<path d="M48.8,22.7c0.1,0,0.3,0,0.4,0c0.9,0,1.7-0.6,1.9-1.6l1.8-7.8c0.2-1.1-0.4-2.1-1.5-2.4c-1.1-0.2-2.1,0.4-2.4,1.5l-1.8,7.8
		C47.1,21.4,47.8,22.4,48.8,22.7z"/>
	<path d="M26.5,25.4c0.4,0.6,1,0.9,1.7,0.9c0.4,0,0.7-0.1,1.1-0.3c0.9-0.6,1.2-1.8,0.6-2.8l-4.3-6.8c-0.6-0.9-1.8-1.2-2.8-0.6
		c-0.9,0.6-1.2,1.8-0.6,2.8L26.5,25.4z"/>
	<path d="M66.8,35.1c0.4,0,0.7-0.1,1.1-0.3l6.8-4.3c0.9-0.6,1.2-1.8,0.6-2.8c-0.6-0.9-1.8-1.2-2.8-0.6l-6.8,4.3
		c-0.9,0.6-1.2,1.8-0.6,2.8C65.5,34.8,66.1,35.1,66.8,35.1z"/>
	<path d="M7.6,42l7.8,1.8c0.1,0,0.3,0,0.4,0c0.9,0,1.7-0.6,1.9-1.6c0.2-1.1-0.4-2.1-1.5-2.4l-7.8-1.8c-1.1-0.2-2.1,0.4-2.4,1.5
		C5.8,40.7,6.5,41.8,7.6,42z"/>
</g>
</svg>
