<?xml version="1.0" encoding="utf-8"?>
<!-- Generator: Adobe Illustrator 21.0.2, SVG Export Plug-In . SVG Version: 6.00 Build 0)  -->
<svg version="1.1" id="Layer_1" xmlns="http://www.w3.org/2000/svg" xmlns:xlink="http://www.w3.org/1999/xlink" x="0px" y="0px"
	 viewBox="0 0 100 100" style="enable-background:new 0 0 100 100;" xml:space="preserve">
<g>
	<path d="M25.1,45.6c-1,4.6-0.4,9.2,1.5,13.1c3.5-5.9,9.6-9.7,16.4-9.7c5.4,0,10.2,2.3,13.8,6.1c0.3,0,0.5-0.1,0.8-0.1
		c1.3-3,3.9-5.4,7-6.8c-0.7-8.5-6.8-15.8-15.5-17.8C38.2,28.1,27.5,34.9,25.1,45.6z"/>
	<path d="M45.5,68.1c0-5,2.8-9.3,6.9-11.5c-2.6-2.2-5.9-3.5-9.4-3.5c-6.9,0-13.1,5.1-14.9,12.5c-0.2,0.9-1,1.5-1.9,1.5h-5.6
		c-5.5,0-10,4.5-10,10s4.5,10,10,10h39c3.9,0,7.2-2.5,8.5-6h-9.5C51.3,81.1,45.5,75.2,45.5,68.1z"/>
	<path d="M85.5,63.1h-3c-0.6,0-1.1-0.2-1.5-0.7c-0.4-0.4-0.6-1-0.5-1.5c0-0.3,0-0.5,0-0.8c0-5-4.5-9-10-9c-4.5,0-8.4,2.7-9.6,6.6
		c-0.3,0.8-1,1.4-1.9,1.4h-0.5c-5,0-9,4-9,9c0,5,4,9,9,9h27c3.9,0,7-3.1,7-7S89.4,63.1,85.5,63.1z"/>
	<path d="M50.3,24.7c0.1,0,0.3,0,0.4,0c0.9,0,1.7-0.6,1.9-1.6l1.8-7.8c0.2-1.1-0.4-2.1-1.5-2.4c-1.1-0.2-2.1,0.4-2.4,1.5l-1.8,7.8
		C48.6,23.4,49.3,24.4,50.3,24.7z"/>
	<path d="M28,27.4c0.4,0.6,1,0.9,1.7,0.9c0.4,0,0.7-0.1,1.1-0.3c0.9-0.6,1.2-1.8,0.6-2.8l-4.3-6.8c-0.6-0.9-1.8-1.2-2.8-0.6
		c-0.9,0.6-1.2,1.8-0.6,2.8L28,27.4z"/>
	<path d="M68.3,37.1c0.4,0,0.7-0.1,1.1-0.3l6.8-4.3c0.9-0.6,1.2-1.8,0.6-2.8c-0.6-0.9-1.8-1.2-2.8-0.6l-6.8,4.3
		c-0.9,0.6-1.2,1.8-0.6,2.8C67,36.8,67.6,37.1,68.3,37.1z"/>
	<path d="M17.3,45.9c0.9,0,1.7-0.6,1.9-1.6c0.2-1.1-0.4-2.1-1.5-2.4l-7.8-1.8c-1.1-0.2-2.1,0.4-2.4,1.5C7.3,42.7,8,43.8,9.1,44
		l7.8,1.8C17,45.8,17.2,45.9,17.3,45.9z"/>
</g>
</svg>
