<?xml version="1.0" encoding="utf-8"?>
<!-- Generator: Adobe Illustrator 21.0.2, SVG Export Plug-In . SVG Version: 6.00 Build 0)  -->
<svg version="1.1" id="Layer_1" xmlns="http://www.w3.org/2000/svg" xmlns:xlink="http://www.w3.org/1999/xlink" x="0px" y="0px"
	 viewBox="0 0 100 100" style="enable-background:new 0 0 100 100;" xml:space="preserve">
<path d="M76.9,27.9c-3.1-1.5-6.6-1.6-9.7-0.1c-2.6,1.2-5.8,2.7-9.1,3.9c-0.1-0.2-0.2-0.3-0.2-0.5c2.6-2.3,5.4-4.5,7.8-6.4
	c2.2-1.7,3.7-4.2,4.2-7C70,17.6,70,17.3,70,17c0-0.3,0-0.5,0-0.8c0-6.1-4.9-11-11-11c-3.7,0-7,1.9-9,4.7c-0.4-0.6-0.8-1.1-1.3-1.6
	c-2.1-2.1-5-3.2-8-3.1C34.8,5.3,29.9,10.5,30,16.4c0.1,3.4,1.7,6.6,4.5,8.6c2.3,1.7,5,3.8,7.7,6.2c-0.1,0.2-0.2,0.3-0.3,0.5
	c-3.4-1.3-6.5-2.7-9.1-3.9c-3.1-1.5-6.6-1.4-9.7,0.1c-5.3,2.7-7.5,9.4-4.9,14.7c1.3,2.7,3.6,4.7,6.5,5.6c0.7,0.2,1.3,0.4,2,0.5
	c-1.6,3.1-1.7,6.9,0.1,10.1c1.4,2.6,3.7,4.5,6.5,5.4c1.1,0.3,2.2,0.5,3.2,0.5c1.8,0,3.5-0.4,5.1-1.3c0.2-0.1,0.4-0.2,0.6-0.3
	c0.4-0.1,0.7-0.3,0.9-0.6c2.2-1.7,3.7-4.2,4.2-7c0.2-1.3,0.4-2.6,0.7-3.9v12.3c0,10.4-4,20.2-11.4,27.6c-0.8,0.8-0.8,2.1,0,2.8
	c0.4,0.4,0.9,0.6,1.4,0.6s1-0.2,1.4-0.6c8.1-8.1,12.6-19,12.6-30.5V51.5c0.2,1.3,0.5,2.6,0.7,3.9c0.5,2.8,2,5.3,4.2,7
	c0.2,0.2,0.5,0.4,0.7,0.5c0.2,0.2,0.5,0.3,0.7,0.4c1.6,0.9,3.4,1.3,5.1,1.3c4,0,7.8-2.1,9.7-5.8c1.7-3.3,1.7-7.1,0.1-10.1
	c0.7-0.1,1.3-0.2,2-0.5c2.9-0.9,5.2-2.9,6.5-5.6C84.4,37.3,82.2,30.5,76.9,27.9z M36.8,21.8c-1.8-1.3-2.8-3.3-2.8-5.5
	c-0.1-3.8,3-7,6.8-7.2c0.1,0,0.1,0,0.2,0c1.8,0,3.6,0.7,4.9,2c1.4,1.3,2.1,3.1,2.1,5c0,1.1,0.9,2,2,2s2-0.9,2-2c0-3.9,3.1-7,7-7
	s7,3.1,7,7c0,0.2,0,0.5,0,0.7c0,0,0,0.1,0,0.1c-0.2,1.8-1.2,3.6-2.7,4.7c-2.6,2-5.4,4.2-8.1,6.6c-0.9-0.6-2-1.1-3.2-1.4v-2.2
	c0-1.1-0.9-2-2-2s-2,0.9-2,2v2.2c-1.1,0.2-2.2,0.7-3.1,1.3C42.1,25.7,39.2,23.6,36.8,21.8z M43.4,54.7c-0.3,1.8-1.4,3.5-2.9,4.6
	c0,0,0,0-0.1,0c-0.2,0.1-0.4,0.3-0.6,0.4c-1.7,0.9-3.5,1.1-5.3,0.5c-1.8-0.5-3.2-1.8-4.1-3.4c-1.8-3.4-0.5-7.7,2.9-9.5
	c1-0.5,1.3-1.7,0.8-2.7c-0.5-1-1.7-1.3-2.7-0.8c-1,0.5-2.1,0.8-3.3,0.8c-0.7,0-1.5-0.1-2.2-0.3c-1.8-0.6-3.3-1.8-4.1-3.6
	c-1.7-3.4-0.2-7.7,3.1-9.3c1.9-1,4.2-1,6.2-0.1c2.8,1.3,6.2,2.9,9.9,4.3c0,0.9,0.1,1.8,0.4,2.6l-3.2,1.6c-1,0.5-1.4,1.7-0.9,2.7
	c0.3,0.7,1,1.1,1.8,1.1c0.3,0,0.6-0.1,0.9-0.2l3.4-1.7c0.7,0.7,1.4,1.3,2.3,1.8C44.7,47.4,44,51.3,43.4,54.7z M50,40.6
	c-2.8,0-5-2.2-5-5c0-2.8,2.2-5,5-5s5,2.2,5,5C55,38.4,52.8,40.6,50,40.6z M78.2,40.8c-0.8,1.7-2.3,3-4.1,3.6
	c-1.8,0.6-3.8,0.4-5.4-0.5c0,0,0,0,0,0c-1-0.5-2.2-0.2-2.7,0.8c-0.5,1-0.1,2.2,0.8,2.7c3.4,1.8,4.7,6,2.9,9.5
	c-1.8,3.4-6.1,4.7-9.5,2.9c-0.2-0.1-0.4-0.2-0.6-0.4c0,0,0,0-0.1,0c-1.5-1.1-2.6-2.7-2.9-4.6c-0.6-3.5-1.3-7.3-2.3-11.2
	c0.9-0.5,1.6-1.1,2.3-1.8l3.4,1.7c0.3,0.1,0.6,0.2,0.9,0.2c0.7,0,1.5-0.4,1.8-1.1c0.5-1,0.1-2.2-0.9-2.7l-3.2-1.6
	c0.2-0.8,0.4-1.7,0.4-2.6c3.7-1.4,7.1-2.9,9.9-4.3c2-0.9,4.2-0.9,6.2,0.1C78.5,33.1,79.9,37.4,78.2,40.8z"/>
</svg>
