<?xml version="1.0" encoding="utf-8"?>
<!-- Generator: Adobe Illustrator 21.0.2, SVG Export Plug-In . SVG Version: 6.00 Build 0)  -->
<svg version="1.1" id="Layer_1" xmlns="http://www.w3.org/2000/svg" xmlns:xlink="http://www.w3.org/1999/xlink" x="0px" y="0px"
	 viewBox="0 0 100 100" style="enable-background:new 0 0 100 100;" xml:space="preserve">
<path d="M93,49c-1.1,0-2,0.9-2,2v3h-6v-9c0-3.3-2.7-6-6-6h-0.8l-4.5-8.9c-0.3-0.7-1-1.1-1.8-1.1h-4.7l-2.5-5.8
	c-0.3-0.6-0.9-1.1-1.6-1.2l-6-0.8l-3.5-7.1c-0.5-0.9-1.5-1.3-2.5-1l-8,3c-0.4,0.1-0.8,0.4-1,0.8L38,23.9L30.2,23
	c-1.1-0.1-2,0.6-2.2,1.7l-0.9,6.5L21.9,39H21c-3.3,0-6,2.7-6,6v9H9v-3c0-1.1-0.9-2-2-2s-2,0.9-2,2v10c0,1.1,0.9,2,2,2s2-0.9,2-2v-3
	h6v5c0,0.3,0.1,0.6,0.2,0.9l4.9,9.8c1,2,3.1,3.3,5.4,3.3h1.8c-0.2,0.6-0.3,1.3-0.3,2c0,4.4,3.6,8,8,8s8-3.6,8-8c0-0.7-0.1-1.4-0.3-2
	h14.5c-0.2,0.6-0.3,1.3-0.3,2c0,4.4,3.6,8,8,8s8-3.6,8-8c0-0.7-0.1-1.4-0.3-2h1.8c2.3,0,4.3-1.3,5.4-3.3l4.9-9.8
	c0.1-0.3,0.2-0.6,0.2-0.9v-5h6v3c0,1.1,0.9,2,2,2s2-0.9,2-2V51C95,49.9,94.1,49,93,49z M30.7,33.1c0.2-0.2,0.3-0.5,0.3-0.8l0.7-5.1
	l7.1,0.8c0.8,0.1,1.5-0.3,1.9-0.9l4.6-7.4l5.7-2.1l3.2,6.4c0.3,0.6,0.9,1,1.5,1.1l5.9,0.8l2.6,6c0.3,0.7,1,1.2,1.8,1.2h4.8l3,6h-47
	L30.7,33.1z M35,83c-2.2,0-4-1.8-4-4c0-2.2,1.8-4,4-4s4,1.8,4,4C39,81.2,37.2,83,35,83z M65,83c-2.2,0-4-1.8-4-4c0-2.2,1.8-4,4-4
	s4,1.8,4,4C69,81.2,67.2,83,65,83z M76.3,71.9c-0.3,0.7-1,1.1-1.8,1.1h-4.3c-1.4-1.2-3.2-2-5.3-2s-3.9,0.8-5.3,2H40.3
	c-1.4-1.2-3.2-2-5.3-2s-3.9,0.8-5.3,2h-4.3c-0.8,0-1.4-0.4-1.8-1.1L20.2,65h59.5L76.3,71.9z M81,61H19V45c0-1.1,0.9-2,2-2h2
	c0,0,0,0,0,0h54c0,0,0,0,0,0h2c1.1,0,2,0.9,2,2V61z"/>
</svg>
