<?xml version="1.0" encoding="utf-8"?>
<!-- Generator: Adobe Illustrator 21.0.2, SVG Export Plug-In . SVG Version: 6.00 Build 0)  -->
<svg version="1.1" id="Layer_1" xmlns="http://www.w3.org/2000/svg" xmlns:xlink="http://www.w3.org/1999/xlink" x="0px" y="0px"
	 viewBox="0 0 100 100" style="enable-background:new 0 0 100 100;" xml:space="preserve">
<g>
	<path d="M89,49.5c-1.1,0-2,0.9-2,2v3h-6v-7c0-1.1-0.9-2-2-2H21c-1.1,0-2,0.9-2,2v7h-6v-3c0-1.1-0.9-2-2-2s-2,0.9-2,2v10
		c0,1.1,0.9,2,2,2s2-0.9,2-2v-3h6v5h62v-5h6v3c0,1.1,0.9,2,2,2s2-0.9,2-2v-10C91,50.4,90.1,49.5,89,49.5z"/>
	<path d="M23.7,74.4c0.3,0.7,1,1.1,1.8,1.1h4.3c-0.5,0.9-0.8,1.9-0.8,3c0,0.3,0,0.7,0.1,1c0.5,2.8,2.9,5,5.9,5s5.4-2.2,5.9-5
		c0.1-0.3,0.1-0.7,0.1-1c0-1.1-0.3-2.1-0.8-3h19.6c-0.5,0.9-0.8,1.9-0.8,3c0,0.3,0,0.7,0.1,1c0.5,2.8,2.9,5,5.9,5s5.4-2.2,5.9-5
		c0.1-0.3,0.1-0.7,0.1-1c0-1.1-0.3-2.1-0.8-3h4.3c0.8,0,1.4-0.4,1.8-1.1l3.4-6.9H20.2L23.7,74.4z"/>
	<polygon points="72,31.5 66,31.5 63,24.5 56,23.5 52,15.5 44,18.5 39,26.5 30,25.5 29,32.5 23,41.5 77,41.5 	"/>
</g>
</svg>
