<?xml version="1.0" encoding="utf-8"?>
<!-- Generator: Adobe Illustrator 21.0.2, SVG Export Plug-In . SVG Version: 6.00 Build 0)  -->
<svg version="1.1" id="Layer_1" xmlns="http://www.w3.org/2000/svg" xmlns:xlink="http://www.w3.org/1999/xlink" x="0px" y="0px"
	 viewBox="0 0 100 100" style="enable-background:new 0 0 100 100;" xml:space="preserve">
<g>
	<path d="M92.8,84.4L77.3,71.5c-0.2-0.2-0.4-0.3-0.7-0.4l-20.4-6.8l-8.6-12.5c-0.2-0.3-0.5-0.5-0.8-0.7l-12.2-5.7l-6.7-18.2
		c0-0.1-0.1-0.2-0.2-0.4L16.1,8C14.7,5.7,12,4.7,9.4,5.4C6.8,6.1,5,8.5,5,11.2V89c0,3.3,2.7,6,6,6h78c2.6,0,4.8-1.5,5.6-4
		C95.5,88.6,94.8,86,92.8,84.4z M11,91c-1.1,0-2-0.9-2-2V68.2l4.4,2.2l2.7,7.3c0.2,0.6,0.7,1.1,1.3,1.2l10.2,2.8l5.7,9.3H11z
		 M90.9,89.7C90.7,90,90.3,91,89,91H75.1l-6.4-9.2c-0.3-0.4-0.7-0.7-1.1-0.8l-15-4c-1.1-0.3-2.2,0.3-2.5,1.4
		c-0.3,1.1,0.3,2.2,1.4,2.5l14.3,3.8l4.4,6.3h-32l-7.4-12c-0.3-0.4-0.7-0.8-1.2-0.9l-10-2.7l-2.6-7c-0.2-0.5-0.5-0.9-1-1.1L9,63.8
		V33.9l4.4,1.7l3.7,10.1c0.3,0.8,1.1,1.3,1.9,1.3c0.2,0,0.5,0,0.7-0.1c1-0.4,1.6-1.5,1.2-2.6l-4-11c-0.2-0.6-0.6-1-1.2-1.2L9,29.6
		V11.2c0-1.4,1.1-1.8,1.5-1.9c0.1,0,0.3-0.1,0.6-0.1c0.5,0,1.2,0.2,1.7,1l11.5,18.7l6.5,17.6l-4.1,4.1c-0.8,0.8-0.8,2,0,2.8
		C27,53.8,27.5,54,28,54s1-0.2,1.4-0.6l4-4l11.2,5.2l6.8,9.8L35.8,66c-1.1,0.1-1.9,1.1-1.8,2.2c0.1,1,1,1.8,2,1.8c0.1,0,0.1,0,0.2,0
		l18.6-2L75,74.8l15.2,12.7C91.3,88.3,91,89.4,90.9,89.7z"/>
	<path d="M30,21.2c0.1,0.9,0.8,1.7,1.8,1.8l11,1c0.1,0,0.1,0,0.2,0c0.6,0,1.2-0.3,1.6-0.8l5-7c0.5-0.7,0.5-1.5,0.1-2.2l-5-8
		c-0.5-0.8-1.5-1.1-2.3-0.8l-12,4c-0.9,0.3-1.5,1.2-1.4,2.1L30,21.2z M42.2,9.4l3.5,5.5l-3.6,5l-8.2-0.7l-0.7-6.8L42.2,9.4z"/>
	<path d="M57.4,22.9c0.4,0.3,0.8,0.4,1.2,0.4c0.1,0,0.3,0,0.4,0l11.1-2.4c0.7-0.1,1.2-0.6,1.4-1.2c0.2-0.6,0.2-1.3-0.2-1.9l-5-7.5
		c-0.4-0.6-1.2-1-2-0.9l-6.2,1c-1,0.2-1.7,1-1.7,2l0.1,9C56.6,22,56.9,22.5,57.4,22.9z M63.8,13.6l2.7,4l-5.9,1.3l-0.1-4.8
		L63.8,13.6z"/>
	<path d="M41.1,37.5c-0.2,0.5-0.1,1.1,0.2,1.6l5,8c0.3,0.5,0.8,0.8,1.3,0.9l14,3c0.1,0,0.3,0,0.4,0c0.4,0,0.8-0.1,1.1-0.3
		c0.5-0.3,0.8-0.8,0.9-1.3l2-11c0.1-0.8-0.2-1.6-0.9-2l-9-6c-0.6-0.4-1.4-0.4-2-0.1l-12,6C41.6,36.5,41.3,36.9,41.1,37.5z
		 M54.9,34.3l6.9,4.6l-1.4,7.7l-11.2-2.4l-3.4-5.4L54.9,34.3z"/>
	<path d="M69.7,50.3l3.6,14.6c0.1,0.6,0.5,1,1,1.3c0.3,0.1,0.6,0.2,0.9,0.2c0.2,0,0.5,0,0.7-0.1l17.1-6.7c0.7-0.3,1.1-0.8,1.2-1.5
		c0.1-0.7-0.2-1.4-0.7-1.9L81.3,46c-0.5-0.4-1.2-0.5-1.8-0.4l-8.3,2.2C70.1,48.2,69.5,49.3,69.7,50.3z M79.5,49.8l8.9,7.3l-11.8,4.6
		l-2.6-10.4L79.5,49.8z"/>
	<circle cx="73" cy="33" r="2"/>
	<circle cx="63" cy="59" r="2"/>
	<circle cx="38" cy="31" r="2"/>
	<circle cx="89" cy="74" r="2"/>
</g>
</svg>
