<?xml version="1.0" encoding="utf-8"?>
<!-- Generator: Adobe Illustrator 21.0.2, SVG Export Plug-In . SVG Version: 6.00 Build 0)  -->
<svg version="1.1" id="Layer_1" xmlns="http://www.w3.org/2000/svg" xmlns:xlink="http://www.w3.org/1999/xlink" x="0px" y="0px"
	 viewBox="0 0 100 100" style="enable-background:new 0 0 100 100;" xml:space="preserve">
<g>
	<path d="M91.5,85.9L76,73l-20.5-6.9L36.4,70c-0.1,0-0.3,0-0.4,0c-0.9,0-1.8-0.7-2-1.6c-0.2-1.1,0.5-2.1,1.6-2.4l17.1-3.4L46,53
		L35,47.9l-5.5,5.5C29,53.8,28.5,54,28,54s-1-0.2-1.4-0.6c-0.8-0.8-0.8-2,0-2.8l5.6-5.7L26,28L14.4,9.1C12.3,5.6,7,7.1,7,11.2v18
		l8.6,2.9c0.6,0.2,1,0.6,1.2,1.2l4,11c0.4,1-0.2,2.2-1.2,2.6C19.5,47,19.3,47,19,47c-0.8,0-1.6-0.5-1.9-1.3l-3.7-10.1L7,33.4v29.8
		l8.8,3.9c0.5,0.2,0.9,0.6,1.1,1.1l2.6,7l10,2.7c0.5,0.1,0.9,0.5,1.2,0.9l8,14H71l-5.3-8.3l-14.2-3.8c-1.1-0.3-1.7-1.4-1.4-2.5
		c0.3-1.1,1.4-1.7,2.5-1.4l15,4c0.5,0.1,0.9,0.4,1.2,0.9l7,11c0,0,0,0,0,0.1H89C92.7,93,94.4,88.3,91.5,85.9z"/>
	<path d="M17.5,78.9c-0.6-0.2-1.1-0.6-1.3-1.2l-2.7-7.2L7,67.6V89c0,2.2,1.8,4,4,4h23.1l-6.5-11.3L17.5,78.9z"/>
	<polygon points="43,22 48,15 43,7 31,11 32,21 	"/>
	<polygon points="69.8,18.9 64.8,11.4 58.5,12.4 58.6,21.3 	"/>
	<polygon points="48,46 62,49 64,38 55,32 43,38 	"/>
	<polygon points="75.3,64.4 92.4,57.7 80,47.6 71.7,49.8 	"/>
	<circle cx="73" cy="33" r="2"/>
	<circle cx="63" cy="59" r="2"/>
	<circle cx="38" cy="31" r="2"/>
	<circle cx="89" cy="74" r="2"/>
</g>
</svg>
