<?xml version="1.0" encoding="utf-8"?>
<!-- Generator: Adobe Illustrator 21.0.2, SVG Export Plug-In . SVG Version: 6.00 Build 0)  -->
<svg version="1.1" id="Layer_1" xmlns="http://www.w3.org/2000/svg" xmlns:xlink="http://www.w3.org/1999/xlink" x="0px" y="0px"
	 viewBox="0 0 100 100" style="enable-background:new 0 0 100 100;" xml:space="preserve">
<g>
	<path d="M75.7,36.2L50,7L24.3,36.2c-10.5,11.9-11.4,29.4-2.2,42.3C28.9,88.2,39.4,93,50,93s21.1-4.8,27.9-14.5
		c4.2-5.9,6.3-12.8,6.3-19.7C84.2,50.7,81.3,42.7,75.7,36.2z M61,33.3c1.1,0,2,0.9,2,2c0,1.1-0.9,2-2,2s-2-0.9-2-2
		C59,34.2,59.9,33.3,61,33.3z M50,21.3c1.1,0,2,0.9,2,2c0,1.1-0.9,2-2,2s-2-0.9-2-2C48,22.2,48.9,21.3,50,21.3z M47,39.3
		c1.1,0,2,0.9,2,2c0,1.1-0.9,2-2,2s-2-0.9-2-2C45,40.2,45.9,39.3,47,39.3z M27,63.3c-1.1,0-2-0.9-2-2c0-1.1,0.9-2,2-2s2,0.9,2,2
		C29,62.4,28.1,63.3,27,63.3z M31,47.3c-1.1,0-2-0.9-2-2c0-1.1,0.9-2,2-2c1.1,0,2,0.9,2,2C33,46.4,32.1,47.3,31,47.3z M36,79.3
		c-1.1,0-2-0.9-2-2c0-1.1,0.9-2,2-2s2,0.9,2,2C38,78.4,37.1,79.3,36,79.3z M73,65.3h-5.2c-0.3,1.5-0.9,3-1.8,4.2l2.2,2.3
		c0.8,0.8,0.8,2,0,2.8c-0.4,0.4-0.9,0.6-1.4,0.6c-0.5,0-1-0.2-1.4-0.6l-2.3-2.2c-1.2,0.9-2.7,1.5-4.2,1.8v5.2c0,1.1-0.9,2-2,2
		s-2-0.9-2-2v-5.2c-1.5-0.3-3-0.9-4.2-1.8l-2.3,2.2c-0.4,0.4-0.9,0.6-1.4,0.6c-0.5,0-1-0.2-1.4-0.6c-0.8-0.8-0.8-2,0-2.8l2.2-2.3
		c-0.9-1.2-1.5-2.7-1.8-4.2H41c-1.1,0-2-0.9-2-2c0-1.1,0.9-2,2-2h5.2c0.3-1.5,0.9-3,1.8-4.2l-2.2-2.3c-0.8-0.8-0.8-2,0-2.8
		c0.8-0.8,2-0.8,2.8,0l2.3,2.2c1.2-0.9,2.7-1.5,4.2-1.8v-5.2c0-1.1,0.9-2,2-2s2,0.9,2,2v5.2c1.5,0.3,3,0.9,4.2,1.8l2.3-2.2
		c0.8-0.8,2-0.8,2.8,0c0.8,0.8,0.8,2,0,2.8L66.1,57c0.9,1.2,1.5,2.7,1.8,4.2H73c1.1,0,2,0.9,2,2C75,64.4,74.1,65.3,73,65.3z"/>
	<circle cx="57" cy="63.3" r="7"/>
</g>
</svg>
