<?xml version="1.0" encoding="utf-8"?>
<!-- Generator: Adobe Illustrator 21.0.2, SVG Export Plug-In . SVG Version: 6.00 Build 0)  -->
<svg version="1.1" id="Layer_1" xmlns="http://www.w3.org/2000/svg" xmlns:xlink="http://www.w3.org/1999/xlink" x="0px" y="0px"
	 viewBox="0 0 100 100" style="enable-background:new 0 0 100 100;" xml:space="preserve">
<g>
	<path d="M77.2,34.9L51.5,5.7c-0.8-0.9-2.2-0.9-3,0L22.8,34.9C11.7,47.5,10.7,66,20.5,79.7C27.3,89.4,38.1,95,50,95
		c6,0,11.6-1.4,16.7-4c5-2.6,9.4-6.4,12.9-11.3C89.3,66,88.3,47.5,77.2,34.9z M76.3,77.4C70.2,86,60.6,91,50,91s-20.2-5-26.3-13.6
		c-8.6-12.2-7.8-28.6,2.1-39.8L50,10l24.2,27.5C84,48.8,84.9,65.2,76.3,77.4z"/>
	<path d="M73,61.2h-5.2c-0.3-1.5-0.9-3-1.8-4.2l2.2-2.3c0.8-0.8,0.8-2,0-2.8c-0.8-0.8-2-0.8-2.8,0l-2.3,2.2
		c-1.2-0.9-2.7-1.5-4.2-1.8v-5.2c0-1.1-0.9-2-2-2s-2,0.9-2,2v5.2c-1.5,0.3-3,0.9-4.2,1.8l-2.3-2.2c-0.8-0.8-2-0.8-2.8,0
		c-0.8,0.8-0.8,2,0,2.8l2.2,2.3c-0.9,1.2-1.5,2.7-1.8,4.2H41c-1.1,0-2,0.9-2,2c0,1.1,0.9,2,2,2h5.2c0.3,1.5,0.9,3,1.8,4.2l-2.2,2.3
		c-0.8,0.8-0.8,2,0,2.8c0.4,0.4,0.9,0.6,1.4,0.6c0.5,0,1-0.2,1.4-0.6l2.3-2.2c1.2,0.9,2.7,1.5,4.2,1.8v5.2c0,1.1,0.9,2,2,2
		s2-0.9,2-2v-5.2c1.5-0.3,3-0.9,4.2-1.8l2.3,2.2c0.4,0.4,0.9,0.6,1.4,0.6c0.5,0,1-0.2,1.4-0.6c0.8-0.8,0.8-2,0-2.8l-2.2-2.3
		c0.9-1.2,1.5-2.7,1.8-4.2H73c1.1,0,2-0.9,2-2C75,62.1,74.1,61.2,73,61.2z M57,70.2c-3.9,0-7-3.1-7-7s3.1-7,7-7s7,3.1,7,7
		S60.9,70.2,57,70.2z"/>
	<circle cx="50" cy="23.2" r="2"/>
	<circle cx="61" cy="35.2" r="2"/>
	<circle cx="47" cy="41.2" r="2"/>
	<circle cx="31" cy="45.2" r="2"/>
	<circle cx="27" cy="61.2" r="2"/>
	<circle cx="36" cy="77.2" r="2"/>
</g>
</svg>
