<?xml version="1.0" encoding="utf-8"?>
<!-- Generator: Adobe Illustrator 21.0.2, SVG Export Plug-In . SVG Version: 6.00 Build 0)  -->
<svg version="1.1" id="Layer_1" xmlns="http://www.w3.org/2000/svg" xmlns:xlink="http://www.w3.org/1999/xlink" x="0px" y="0px"
	 viewBox="0 0 100 100" style="enable-background:new 0 0 100 100;" xml:space="preserve">
<path d="M93,90H58V76h21c6.6,0,12-5.4,12-12v-5c0-2.8-2.2-5-5-5s-5,2.2-5,5v3c0,2.2-1.8,4-4,4H58v-8.4c0-4.6,1.8-9,5-12.2
	c2.1-2.2,5-3.4,8-3.4c6.6,0,12-5.4,12-12V15c0-2.8-2.2-5-5-5s-5,2.2-5,5v10.7c0,3.5-2.8,6.3-6.3,6.3c-3,0-5.9,1.2-8,3.4l-6.9,7
	l-2.3-2.6C47.9,38,47,35.6,47,33.2V11c0-2.8-2.2-5-5-5s-5,2.2-5,5v19H23c-2.2,0-4-1.8-4-4v-5c0-2.8-2.2-5-5-5s-5,2.2-5,5v7
	c0,6.6,5.4,12,12,12h16l0.8,2c0.8,1.9,2,3.7,3.6,5c2.9,2.4,4.5,5.9,4.5,9.7V66H35c-2.2,0-4-1.8-4-4v-7c0-2.8-2.2-5-5-5s-5,2.2-5,5v9
	c0,6.6,5.4,12,12,12h13v14H7c-1.1,0-2,0.9-2,2s0.9,2,2,2h86c1.1,0,2-0.9,2-2S94.1,90,93,90z"/>
</svg>
