<?xml version="1.0" encoding="utf-8"?>
<!-- Generator: Adobe Illustrator 21.0.2, SVG Export Plug-In . SVG Version: 6.00 Build 0)  -->
<svg version="1.1" id="Layer_1" xmlns="http://www.w3.org/2000/svg" xmlns:xlink="http://www.w3.org/1999/xlink" x="0px" y="0px"
	 viewBox="0 0 100 100" style="enable-background:new 0 0 100 100;" xml:space="preserve">
<path d="M93,91H60V79h19c7.7,0,14-6.3,14-14v-5c0-3.9-3.1-7-7-7s-7,3.1-7,7v3c0,1.1-0.9,2-2,2H60v-6.4c0-4.1,1.6-7.9,4.4-10.9
	C66.1,46,68.5,45,71,45c7.7,0,14-6.3,14-14V16c0-3.9-3.1-7-7-7s-7,3.1-7,7v10.7c0,2.3-1.9,4.3-4.3,4.3c-3.5,0-7,1.5-9.5,4l-5.4,5.5
	l-0.9-1c-1.3-1.5-2-3.3-2-5.3V12c0-3.9-3.1-7-7-7s-7,3.1-7,7v17H23c-1.1,0-2-0.9-2-2v-5c0-3.9-3.1-7-7-7s-7,3.1-7,7v7
	c0,7.7,6.3,14,14,14h14.7l0.3,0.8c0.9,2.2,2.4,4.2,4.2,5.8c2.4,2,3.8,5,3.8,8.2V65h-9c-1.1,0-2-0.9-2-2v-7c0-3.9-3.1-7-7-7
	s-7,3.1-7,7v9c0,7.7,6.3,14,14,14h11v12H7c-1.1,0-2,0.9-2,2c0,1.1,0.9,2,2,2h86c1.1,0,2-0.9,2-2C95,91.9,94.1,91,93,91z M56,77v14
	h-8V77c0-1.1-0.9-2-2-2H33c-5.5,0-10-4.5-10-10v-9c0-1.7,1.3-3,3-3s3,1.3,3,3v7c0,3.3,2.7,6,6,6h11c1.1,0,2-0.9,2-2v-9.3
	c0-4.3-1.9-8.4-5.3-11.2c-1.3-1.1-2.4-2.6-3.1-4.2l-0.8-2c-0.3-0.8-1-1.3-1.9-1.3H21c-5.5,0-10-4.5-10-10v-7c0-1.7,1.3-3,3-3
	s3,1.3,3,3v5c0,3.3,2.7,6,6,6h14c1.1,0,2-0.9,2-2V12c0-1.7,1.3-3,3-3s3,1.3,3,3v22.2c0,2.9,1.1,5.8,3,8l2.3,2.6
	c0.4,0.4,0.9,0.6,1.4,0.7c0.6,0,1.1-0.2,1.5-0.6l6.8-7c1.7-1.8,4.1-2.8,6.6-2.8c4.6,0,8.3-3.7,8.3-8.3V16c0-1.7,1.3-3,3-3s3,1.3,3,3
	v15c0,5.5-4.5,10-10,10c-3.5,0-7,1.5-9.4,4C58,48.6,56,53.5,56,58.6V67c0,1.1,0.9,2,2,2h19c3.3,0,6-2.7,6-6v-3c0-1.7,1.3-3,3-3
	s3,1.3,3,3v5c0,5.5-4.5,10-10,10H58C56.9,75,56,75.9,56,77z"/>
</svg>
