<?xml version="1.0" encoding="utf-8"?>
<!-- Generator: Adobe Illustrator 21.0.2, SVG Export Plug-In . SVG Version: 6.00 Build 0)  -->
<svg version="1.1" id="Layer_1" xmlns="http://www.w3.org/2000/svg" xmlns:xlink="http://www.w3.org/1999/xlink" x="0px" y="0px"
	 viewBox="0 0 100 100" style="enable-background:new 0 0 100 100;" xml:space="preserve">
<g>
	<path d="M50.7,42.1c-1.7,0-3.4,0.7-4.6,1.9l-1.8,1.8c-1.1,1.1-3.1,1.1-4.2,0c-0.6-0.6-0.9-1.3-0.9-2.1c0-0.8,0.3-1.6,0.9-2.1
		l1.4-1.4c2.7-2.7,2.7-7.2,0-9.9c-2.7-2.7-7.2-2.7-9.9,0l-1.4,1.4c-1.2,1.2-3.1,1.2-4.2,0c-1.2-1.2-1.2-3.1,0-4.2l1.8-1.8
		c1.2-1.2,1.9-2.9,1.9-4.6c0-1.7-0.7-3.4-1.9-4.6c-2.1-2.1-5.4-2.5-7.9-1l-4.1,2.4c-1,0.6-1.2,1.8-0.7,2.7c0.6,1,1.8,1.3,2.7,0.7
		l4.1-2.4c1-0.6,2.2-0.4,3.1,0.4c1,1,1,2.5,0,3.5l-1.8,1.8c-2.7,2.7-2.7,7.2,0,9.9c2.7,2.7,7.2,2.7,9.9,0l1.4-1.4
		c1.1-1.1,3.1-1.1,4.2,0c0.6,0.6,0.9,1.3,0.9,2.1s-0.3,1.5-0.9,2.1l-1.4,1.4c-2.7,2.7-2.7,7.2,0,9.9c1.3,1.3,3.1,2,5,2s3.6-0.7,5-2
		l1.8-1.8c1-1,2.5-1,3.5,0c0.8,0.8,1,2.1,0.4,3l-2.4,4.1c-0.6,0.9-0.3,2.2,0.7,2.7c0.3,0.2,0.7,0.3,1,0.3c0.7,0,1.3-0.3,1.7-1
		l2.4-4.1c1.5-2.6,1.1-5.8-1-7.9C54.1,42.7,52.5,42.1,50.7,42.1z"/>
	<path d="M93.2,84.7l-25-25c0.1-2.1-0.5-4.2-1.9-6c1-5.2-0.6-10.6-4.4-14.4L32.6,10c-6.2-6.2-16-6.6-22.3-0.8
		C7,12.1,5.1,16.2,5,20.6C4.9,25,6.6,29.2,9.7,32.3L39.4,62c3.8,3.8,9.2,5.4,14.4,4.4c1.6,1.2,3.5,1.9,5.5,1.9c0.2,0,0.3,0,0.5,0
		l25,25c1.2,1.2,2.7,1.8,4.2,1.8c1.5,0,3.1-0.6,4.2-1.8C95.6,90.8,95.6,87,93.2,84.7z M59.3,64.2c-1.3,0-2.6-0.5-3.5-1.5
		c-0.4-0.4-0.9-0.6-1.4-0.6c-0.2,0-0.4,0-0.7,0.1c-4.1,1-8.5-0.2-11.4-3.1L12.5,29.5C10.2,27.1,9,24,9,20.7c0.1-3.3,1.5-6.4,3.9-8.6
		c4.7-4.3,12.1-4,16.8,0.7l29.4,29.4c3,3,4.2,7.3,3.1,11.4c-0.3,0.7-0.1,1.5,0.5,2.1c2,1.9,2,5.1,0,7.1
		C61.9,63.7,60.6,64.2,59.3,64.2z M90.4,90.4c-0.8,0.8-2,0.8-2.8,0L64.1,66.9c0.6-0.4,1.1-0.8,1.6-1.2c0.5-0.5,0.9-1,1.2-1.6
		l23.5,23.5C91.2,88.3,91.2,89.6,90.4,90.4z"/>
</g>
</svg>
