<?xml version="1.0" encoding="utf-8"?>
<!-- Generator: Adobe Illustrator 21.0.2, SVG Export Plug-In . SVG Version: 6.00 Build 0)  -->
<svg version="1.1" id="Layer_1" xmlns="http://www.w3.org/2000/svg" xmlns:xlink="http://www.w3.org/1999/xlink" x="0px" y="0px"
	 viewBox="0 0 100 100" style="enable-background:new 0 0 100 100;" xml:space="preserve">
<path d="M72.7,37c1.4-2,2.3-4.6,2.3-7.3c0-6.6-4.9-12-11-12c-0.3,0-0.7,0-1,0.1c-2.1-5.9-7.1-10.1-13-10.1s-10.9,4.2-13,10.1
	c-0.3,0-0.7-0.1-1-0.1c-6.1,0-11,5.8-11,13c0,2.6,0.7,5,1.8,7.1c-3.5,2.9-5.8,7.6-5.8,12.9c0,8.8,6.3,16,14,16c0.6,0,1.2,0,1.7-0.1
	c1.6,3.5,4.2,6.2,7.4,7.8l2,14.6c0.6,4.6,7.3,4.6,7.9,0l2-14.7c4.3-2.1,7.5-6.4,8.7-11.6c0.1,0,0.3,0,0.4,0c7.7,0,14-6.3,14-14
	C79,43.8,76.5,39.5,72.7,37z M55.9,29c-1,0.5-2.2,0.1-2.7-0.9c0,0,0,0,0,0c-0.5-1-1.3-1.7-2.3-2c-1-0.3-2.1-0.3-3.1,0.2
	c-1,0.5-1.7,1.3-2,2.3c-0.3,0.9-0.3,1.7,0,2.6c0.2,0.1,0.3,0.2,0.5,0.3c0.8,0.6,1.5,1.4,2,2.4c0.5,1,0.1,2.2-0.9,2.7
	c-0.3,0.1-0.6,0.2-0.9,0.2c-0.7,0-1.4-0.4-1.8-1.1c-0.7-1.5-2.5-2.1-4-1.3c-1,0.5-1.7,1.6-1.7,2.7c0,0.5,0.1,0.9,0.3,1.3
	c0.5,1,0.1,2.2-0.9,2.7c-0.3,0.2-0.6,0.2-0.9,0.2c-0.7,0-1.4-0.4-1.8-1.1c-1.7-3.5-0.3-7.7,3.1-9.4c0.9-0.4,1.8-0.7,2.8-0.7
	c-0.1-3,1.5-5.9,4.4-7.3c3.9-2,8.8-0.4,10.7,3.6C57.3,27.3,56.9,28.5,55.9,29z"/>
</svg>
