<?xml version="1.0" encoding="utf-8"?>
<!-- Generator: Adobe Illustrator 21.0.2, SVG Export Plug-In . SVG Version: 6.00 Build 0)  -->
<svg version="1.1" id="Layer_1" xmlns="http://www.w3.org/2000/svg" xmlns:xlink="http://www.w3.org/1999/xlink" x="0px" y="0px"
	 viewBox="0 0 100 100" style="enable-background:new 0 0 100 100;" xml:space="preserve">
<g>
	<path d="M75.3,35.9c1.1-2.1,1.7-4.4,1.7-6.8c0-7.6-5.7-13.8-12.7-14C61.7,9,56.2,5.1,50,5.1S38.3,9,35.7,15.1
		c-7,0.2-12.7,6.9-12.7,15c0,2.3,0.5,4.5,1.3,6.6C21,40.1,19,45,19,50.1c0,9.9,7.2,18,16,18c0.2,0,0.4,0,0.5,0
		c1.6,2.9,3.9,5.3,6.6,6.8l2,14.7c0.4,3.1,2.9,5.2,6,5.2s5.5-2.1,6-5.2l2-14.7c3.8-2.2,6.8-6.1,8.2-10.9c8.3-0.6,14.9-7.5,14.9-16
		C81,43.4,78.9,39,75.3,35.9z M52,89.1c-0.2,1.7-1.7,1.7-2,1.7s-1.8-0.1-2-1.7l-1.7-12.5c1.2,0.3,2.4,0.5,3.6,0.5
		c1.2,0,2.5-0.2,3.6-0.5L52,89.1z M65,60.1L65,60.1c-0.2,0-0.3,0-0.4,0c-0.9,0-1.8,0.6-2,1.6C61.2,68.4,56,73.1,50,73.1
		c-4.8,0-9.2-3-11.5-8c-0.3-0.7-1.1-1.2-1.8-1.2c-0.1,0-0.2,0-0.3,0c-0.5,0.1-1,0.1-1.4,0.1c-6.6,0-12-6.3-12-14
		c0-4.5,1.9-8.8,5.1-11.4c0.7-0.6,0.9-1.7,0.5-2.5c-1-1.8-1.5-3.9-1.5-6.1c0-6.1,4-11,9-11c0.3,0,0.5,0,0.8,0
		c0.9,0.1,1.8-0.5,2.1-1.3c1.8-5.3,6.2-8.7,11.1-8.7s9.2,3.4,11.1,8.7c0.3,0.9,1.2,1.4,2.1,1.3c0.3,0,0.5,0,0.8,0c5,0,9,4.5,9,10
		c0,2.2-0.7,4.4-1.9,6.2c-0.3,0.4-0.4,1-0.3,1.5c0.1,0.5,0.4,1,0.9,1.3c3.4,2.2,5.4,6,5.4,10C77,54.8,71.6,60.1,65,60.1z"/>
	<path d="M52.1,21.8c-2-0.7-4.2-0.5-6.1,0.4c-1.9,0.9-3.3,2.6-4,4.6c-0.3,0.9-0.4,1.8-0.4,2.7c-0.9,0.1-1.8,0.3-2.7,0.7
		c-3.5,1.7-4.8,5.9-3.1,9.4c0.4,0.7,1.1,1.1,1.8,1.1c0.3,0,0.6-0.1,0.9-0.2c1-0.5,1.4-1.7,0.9-2.7c-0.7-1.5-0.1-3.3,1.3-4
		c1.5-0.7,3.3-0.1,4,1.3c0.5,1,1.7,1.4,2.7,0.9c1-0.5,1.4-1.7,0.9-2.7c-0.6-1.1-1.4-2-2.4-2.7c-0.3-0.8-0.3-1.7,0-2.6
		c0.3-1,1-1.8,2-2.3c1-0.5,2-0.5,3.1-0.2c1,0.3,1.8,1,2.3,2c0.5,1,1.7,1.4,2.7,0.9c1-0.5,1.4-1.7,0.9-2.7
		C55.8,23.9,54.2,22.5,52.1,21.8z"/>
</g>
</svg>
