<?xml version="1.0" encoding="utf-8"?>
<!-- Generator: Adobe Illustrator 23.0.1, SVG Export Plug-In . SVG Version: 6.00 Build 0)  -->
<svg version="1.1" id="Layer_1" xmlns="http://www.w3.org/2000/svg" xmlns:xlink="http://www.w3.org/1999/xlink" x="0px" y="0px"
	 viewBox="0 0 100 100" style="enable-background:new 0 0 100 100;" xml:space="preserve">
<style type="text/css">
	.st0{fill:#000000;}
</style>
<path class="st0" d="M88,63.6V32.3c4-0.9,7-4.5,7-8.8c0-5-4-9-9-9s-9,4-9,9c0,3.1,1.6,5.9,4,7.5c-2.9,3.3-7.7,5.5-13,5.5
	S57.9,34.3,55,31c2.4-1.6,4-4.4,4-7.5c0-5-4-9-9-9s-9,4-9,9c0,3.1,1.6,5.9,4,7.5c-2.9,3.3-7.7,5.5-13,5.5S21.9,34.3,19,31
	c2.4-1.6,4-4.4,4-7.5c0-5-4-9-9-9s-9,4-9,9c0,4.3,3,7.9,7,8.8v31.3c-3.9,0.5-7,3.9-7,7.9c0,4.4,3.6,8,8,8h28.3l7.5,5.6
	c0.4,0.3,0.8,0.4,1.2,0.4s0.8-0.1,1.2-0.4l7.5-5.6H87c4.4,0,8-3.6,8-8C95,67.4,91.9,64.1,88,63.6z M81,23.5c0-2.8,2.2-5,5-5
	s5,2.2,5,5s-2.2,5-5,5S81,26.3,81,23.5z M45,23.5c0-2.8,2.2-5,5-5s5,2.2,5,5s-2.2,5-5,5S45,26.3,45,23.5z M9,23.5c0-2.8,2.2-5,5-5
	s5,2.2,5,5s-2.2,5-5,5S9,26.3,9,23.5z M40,75.5H13c-2.2,0-4-1.8-4-4c0-2.2,1.8-4,4-4h27V75.5z M56,76.5L50,81l-6-4.5v-10l6-4.5
	l6,4.5V76.5z M51.2,57.9c-0.7-0.5-1.7-0.5-2.4,0l-7.5,5.6H16V33.7c3.7,4.1,9.5,6.8,16,6.8c7.2,0,13.5-3.2,17-8.1
	c0.3,0,0.7,0.1,1,0.1s0.7,0,1-0.1c3.5,4.8,9.8,8.1,17,8.1c6.5,0,12.3-2.7,16-6.8v29.8H58.7L51.2,57.9z M87,75.5H60v-8h27
	c2.2,0,4,1.8,4,4C91,73.7,89.2,75.5,87,75.5z"/>
</svg>
