<?xml version="1.0" encoding="utf-8"?>
<!-- Generator: Adobe Illustrator 23.0.1, SVG Export Plug-In . SVG Version: 6.00 Build 0)  -->
<svg version="1.1" id="Layer_1" xmlns="http://www.w3.org/2000/svg" xmlns:xlink="http://www.w3.org/1999/xlink" x="0px" y="0px"
	 viewBox="0 0 100 100" style="enable-background:new 0 0 100 100;" xml:space="preserve">
<style type="text/css">
	.st0{fill:#000000;}
</style>
<path class="st0" d="M90,91h-4v-4c0-3.3-2.7-6-6-6h-1.5c4.7-6.1,7.5-13.7,7.5-22c0-19.9-16.2-36-36-36S14,39.1,14,59
	c0,8.3,2.8,15.9,7.5,22H20c-3.3,0-6,2.7-6,6v4h-4c-1.1,0-2,0.9-2,2c0,1.1,0.9,2,2,2h80c1.1,0,2-0.9,2-2C92,91.9,91.1,91,90,91z
	 M18,59c0-17.7,14.3-32,32-32c17.6,0,32,14.3,32,32c0,8.5-3.3,16.3-8.8,22H26.8C21.4,75.3,18,67.5,18,59z M82,91H18v-4
	c0-1.1,0.9-2,2-2h60c1.1,0,2,0.9,2,2V91z M26,61c-1.1,0-2-0.9-2-2c0-14.3,11.7-26,26-26c1.1,0,2,0.9,2,2c0,1.1-0.9,2-2,2
	c-12.1,0-22,9.9-22,22C28,60.1,27.1,61,26,61z M48,15V7c0-1.1,0.9-2,2-2s2,0.9,2,2v8c0,1.1-0.9,2-2,2S48,16.1,48,15z M77,22l4.8-6.4
	c0.7-0.9,1.9-1.1,2.8-0.4c0.9,0.7,1.1,1.9,0.4,2.8l-4.8,6.4c-0.4,0.5-1,0.8-1.6,0.8c-0.4,0-0.8-0.1-1.2-0.4
	C76.5,24.1,76.3,22.9,77,22z M15,18c-0.7-0.9-0.5-2.1,0.4-2.8s2.1-0.5,2.8,0.4L23,22c0.7,0.9,0.5,2.1-0.4,2.8
	c-0.4,0.3-0.8,0.4-1.2,0.4c-0.6,0-1.2-0.3-1.6-0.8L15,18z"/>
</svg>
