<?xml version="1.0" encoding="utf-8"?>
<!-- Generator: Adobe Illustrator 23.0.1, SVG Export Plug-In . SVG Version: 6.00 Build 0)  -->
<svg version="1.1" id="Layer_1" xmlns="http://www.w3.org/2000/svg" xmlns:xlink="http://www.w3.org/1999/xlink" x="0px" y="0px"
	 viewBox="0 0 100 100" style="enable-background:new 0 0 100 100;" xml:space="preserve">
<style type="text/css">
	.st0{fill:#000000;}
</style>
<path class="st0" d="M75.4,27.5l-24-22c-0.8-0.7-1.9-0.7-2.7,0l-24,22C24.2,27.9,24,28.4,24,29v42c0,0.6,0.2,1.1,0.6,1.5l24,22
	C49,94.8,49.5,95,50,95s1-0.2,1.4-0.5l24-22c0.4-0.4,0.6-0.9,0.6-1.5V29C76,28.4,75.8,27.9,75.4,27.5z M40,35h20v30H40V35z M41.1,31
	L50,11.8L58.9,31H41.1z M58.9,69L50,88.2L41.1,69H58.9z M63.1,30.5L56,15.2l14.2,13L63.1,30.5z M36.9,30.5l-7.1-2.4l14.2-13
	L36.9,30.5z M36,34.4v31.1l-8,2.7V31.8L36,34.4z M36.9,69.5L44,84.8l-14.2-13L36.9,69.5z M63.1,69.5l7.1,2.4L56,84.8L63.1,69.5z
	 M64,65.6V34.4l8-2.7v36.4L64,65.6z"/>
</svg>
