<?xml version="1.0" encoding="utf-8"?>
<!-- Generator: Adobe Illustrator 23.0.1, SVG Export Plug-In . SVG Version: 6.00 Build 0)  -->
<svg version="1.1" id="Layer_1" xmlns="http://www.w3.org/2000/svg" xmlns:xlink="http://www.w3.org/1999/xlink" x="0px" y="0px"
	 viewBox="0 0 100 100" style="enable-background:new 0 0 100 100;" xml:space="preserve">
<path d="M92,91c0,1.1-0.9,2-2,2h-4v-4h4C91.1,89,92,89.9,92,91z M8,91c0,1.1,0.9,2,2,2h4v-4h-4C8.9,89,8,89.9,8,91z M82,61
	c0,8.5-3.3,16.3-8.8,22H26.8C21.4,77.3,18,69.5,18,61c0-17.7,14.3-32,32-32C67.7,29,82,43.3,82,61z M52,37c0-1.1-0.9-2-2-2
	c-14.3,0-26,11.7-26,26c0,1.1,0.9,2,2,2s2-0.9,2-2c0-0.7,0-1.4,0.1-2.1c1-10.5,9.3-18.8,19.8-19.8C48.6,39,49.3,39,50,39
	C51.1,39,52,38.1,52,37z M50,19c1.1,0,2-0.9,2-2V9c0-1.1-0.9-2-2-2s-2,0.9-2,2v8C48,18.1,48.9,19,50,19z M84.6,17.2
	c-0.9-0.7-2.1-0.5-2.8,0.4L77,24c-0.7,0.9-0.5,2.1,0.4,2.8c0.4,0.3,0.8,0.4,1.2,0.4c0.6,0,1.2-0.3,1.6-0.8L85,20
	C85.7,19.1,85.5,17.9,84.6,17.2z M21.4,27.2c0.4,0,0.8-0.1,1.2-0.4c0.9-0.7,1.1-1.9,0.4-2.8l-4.8-6.4c-0.7-0.9-1.9-1.1-2.8-0.4
	S14.3,19.1,15,20l4.8,6.4C20.2,26.9,20.8,27.2,21.4,27.2z M80,87H20c-1.1,0-2,0.9-2,2v4h64v-4C82,87.9,81.1,87,80,87z"/>
</svg>
