<?xml version="1.0" encoding="utf-8"?>
<!-- Generator: Adobe Illustrator 23.0.1, SVG Export Plug-In . SVG Version: 6.00 Build 0)  -->
<svg version="1.1" id="Layer_1" xmlns="http://www.w3.org/2000/svg" xmlns:xlink="http://www.w3.org/1999/xlink" x="0px" y="0px"
	 viewBox="0 0 100 100" style="enable-background:new 0 0 100 100;" xml:space="preserve">
<path d="M63.1,30.5L56,15.2l14.2,13L63.1,30.5z M29.9,71.8l14.2,13l-7.1-15.3L29.9,71.8z M36,34.4l-8-2.7v36.5l8-2.7V34.4z M44,15.2
	l-14.2,13l7.1,2.4L44,15.2z M56,84.8l14.2-13l-7.1-2.4L56,84.8z M41.1,69L50,88.2L58.9,69H41.1z M40,65h20V35H40V65z M58.9,31
	L50,11.8L41.1,31H58.9z M64,34.4v31.1l8,2.7V31.8L64,34.4z"/>
</svg>
