<?xml version="1.0" encoding="utf-8"?>
<!-- Generator: Adobe Illustrator 23.0.1, SVG Export Plug-In . SVG Version: 6.00 Build 0)  -->
<svg version="1.1" id="Layer_1" xmlns="http://www.w3.org/2000/svg" xmlns:xlink="http://www.w3.org/1999/xlink" x="0px" y="0px"
	 viewBox="0 0 100 100" style="enable-background:new 0 0 100 100;" xml:space="preserve">
<style type="text/css">
	.st0{fill:#000000;}
</style>
<path class="st0" d="M89,19h-7.2c0.9-3.7,2.4-7.2,4.5-10.5l0.3-0.4c0.4-0.6,0.4-1.4,0.1-2.1C86.4,5.4,85.7,5,85,5H15
	c-0.7,0-1.4,0.4-1.8,1.1c-0.3,0.6-0.3,1.4,0.1,2.1l0.3,0.4c2.1,3.2,3.7,6.8,4.5,10.5H11c-2.2,0-4,1.8-4,4v10c0,8.8,7.1,15.9,15.9,16
	c4.2,7.6,11.5,13.2,20.1,15.2V81c-6.6,0-12,5.4-12,12c0,1.1,0.9,2,2,2h34c1.1,0,2-0.9,2-2c0-6.6-5.4-12-12-12V64.2
	c8.6-2,15.9-7.6,20.1-15.2C85.9,48.9,93,41.8,93,33V23C93,20.8,91.2,19,89,19z M72.4,49H27.6c-2.9-4.3-4.6-9.5-4.6-15v-1h54v1
	C77,39.5,75.3,44.7,72.4,49z M77,26.3V29H23v-2.7c0-2.5-0.3-4.9-0.8-7.3h55.5C77.3,21.4,77,23.8,77,26.3z M81.4,9
	c-1.1,1.9-1.9,3.9-2.6,6H21.2c-0.7-2.1-1.6-4.1-2.6-6H81.4z M11,33V23h7.8c0.1,1.1,0.2,2.2,0.2,3.3V34c0,3.8,0.7,7.4,1.9,10.8
	C15.3,43.8,11,38.9,11,33z M64.7,91H35.3c0.9-3.4,4-6,7.7-6h14C60.7,85,63.9,87.6,64.7,91z M53,81h-6V64.9c1,0.1,2,0.1,3,0.1
	s2-0.1,3-0.1V81z M50,61c-7.5,0-14.3-3.1-19.2-8h38.3C64.3,57.9,57.5,61,50,61z M89,33c0,5.9-4.3,10.8-9.9,11.8
	c1.3-3.4,1.9-7,1.9-10.8v-7.7c0-1.1,0.1-2.2,0.2-3.3H89V33z M57.5,41c0,1.1-0.9,2-2,2h-11c-1.1,0-2-0.9-2-2s0.9-2,2-2h11
	C56.6,39,57.5,39.9,57.5,41z"/>
</svg>
