<?xml version="1.0" encoding="utf-8"?>
<!-- Generator: Adobe Illustrator 21.0.2, SVG Export Plug-In . SVG Version: 6.00 Build 0)  -->
<svg version="1.1" id="Layer_1" xmlns="http://www.w3.org/2000/svg" xmlns:xlink="http://www.w3.org/1999/xlink" x="0px" y="0px"
	 viewBox="0 0 100 100" style="enable-background:new 0 0 100 100;" xml:space="preserve">
<g>
	<path d="M41,5.1c-1.1,0-2,0.9-2,2v14h-4v-14c0-1.1-0.9-2-2-2s-2,0.9-2,2v14h-4v-14c0-1.1-0.9-2-2-2s-2,0.9-2,2v23.8
		c0,4.8,3.4,8.9,8,9.8v14.2h-3c-0.5,0-1.1,0.2-1.4,0.6C26.2,55.9,26,56.4,26,57l0.9,32c0.1,3.3,2.8,6,6.1,6s6-2.6,6.1-6L40,57
		c0-0.5-0.2-1.1-0.6-1.5c-0.4-0.4-0.9-0.6-1.4-0.6h-3V40.7c4.6-0.9,8-5,8-9.8V7.1C43,6,42.1,5.1,41,5.1z M35.9,58.9l-0.8,29.9
		c0,1.2-1,2.1-2.1,2.1s-2.1-0.9-2.1-2.1l-0.8-29.9H35.9z M39,30.9c0,3.3-2.7,6-6,6s-6-2.7-6-6v-5.8h12V30.9z"/>
	<path d="M77,26.3C76.7,14.3,70.7,5.1,63,5.1s-13.7,9.2-14,21.2c0,0.1,0,0.1,0,0.2v0.7c0,0.1,0,0.2,0,0.4c0.5,6.7,5.5,12.2,12,13.1
		v14.3h-3c-0.5,0-1.1,0.2-1.4,0.6C56.2,55.9,56,56.4,56,57l0.9,32c0.1,3.3,2.8,6,6.1,6s6-2.6,6.1-6L70,57c0-0.5-0.2-1.1-0.6-1.5
		c-0.4-0.4-0.9-0.6-1.4-0.6h-3V40.6c6.5-0.9,11.5-6.4,12-13.1c0-0.1,0-0.2,0-0.4v-0.7C77,26.4,77,26.3,77,26.3z M65.9,58.9
		l-0.8,29.9c0,1.2-1,2.1-2.1,2.1s-2.1-0.9-2.1-2.1l-0.8-29.9H65.9z M63,36.8c-5.4,0-9.9-4.5-10-10c0.1-9.6,4.7-17.6,10-17.6
		s9.9,8,10,17.6C72.9,32.3,68.4,36.8,63,36.8z"/>
</g>
</svg>
