<?xml version="1.0" encoding="utf-8"?>
<!-- Generator: Adobe Illustrator 21.0.2, SVG Export Plug-In . SVG Version: 6.00 Build 0)  -->
<svg version="1.1" id="Layer_1" xmlns="http://www.w3.org/2000/svg" xmlns:xlink="http://www.w3.org/1999/xlink" x="0px" y="0px"
	 viewBox="0 0 100 100" style="enable-background:new 0 0 100 100;" xml:space="preserve">
<g>
	<circle cx="54" cy="78.9" r="2"/>
	<path d="M93,43.9h-6c-5.5,0-10,4.5-10,10v5.5c-1.6,2.2-2.5,4.8-2.9,7.5H56c-1.9-3.6-3-7.8-3-12c0-1.1-0.9-2-2-2H21
		c-1.1,0-2,0.9-2,2c0,9.1-4.9,17.7-12.9,22.2L6,77.2c-0.8,0.4-1.2,1.4-0.9,2.2c0.2,0.9,1,1.5,1.9,1.5h34c-2.2,4.2-5.6,7.8-9.9,10.2
		L31,91.2c-0.8,0.4-1.2,1.4-0.9,2.2c0.2,0.9,1,1.5,1.9,1.5h58c0.9,0,1.7-0.6,1.9-1.5c0.2-0.9-0.1-1.8-0.9-2.2l-0.1-0.1
		C82.9,86.6,78,78.1,78,68.9v0c0-2.5,0.8-4.9,2.2-7H85c5.5,0,10-4.5,10-10v-6C95,44.8,94.1,43.9,93,43.9z M39,76.9v-8
		c0-1.1-0.9-2-2-2s-2,0.9-2,2v8H13.2c5.7-5.1,9.2-12.3,9.8-20H27v6c0,1.1,0.9,2,2,2s2-0.9,2-2v-6h18.1c0.2,3.5,1.1,6.9,2.5,10H46
		c-1.1,0-2,0.9-2,2c0,2.8-0.5,5.5-1.3,8H39z M83.8,90.9H65v-8c0-1.1-0.9-2-2-2c-1.1,0-2,0.9-2,2v8H38.2c5.7-5.1,9.2-12.3,9.8-20H66
		v6c0,1.1,0.9,2,2,2s2-0.9,2-2v-6h4.1C74.6,78.7,78.1,85.8,83.8,90.9z M91,51.9c0,3.3-2.7,6-6,6h-1.1l2.5-2.6c0.8-0.8,0.8-2.1,0-2.8
		c-0.8-0.8-2.1-0.8-2.8,0L81,55.2v-1.2c0-3.3,2.7-6,6-6h4V51.9z"/>
	<path d="M22.8,30.1C25.5,35,27,40.5,27.1,46c0,0.8,0.6,1.6,1.3,1.8c1.8,0.6,3.6,0.9,5.5,0.9c2.8,0,5.6-0.7,8.1-2.1
		c4.2-2.3,7.2-6.2,8.3-10.8c0.2-0.8-0.1-1.7-0.8-2.1c-1.5-1-2.9-2.2-4.2-3.5l25.7-14c2.9-1.6,4-5.2,2.4-8.1c-1.6-2.9-5.2-4-8.1-2.4
		L38.1,20.6c-1.6-2.9-5.2-4-8.1-2.4l-5.3,2.9c-2.9,1.6-4,5.2-2.4,8.1L22.8,30.1z M67.3,9.3c1-0.5,2.2-0.2,2.7,0.8
		c0.5,1,0.2,2.2-0.8,2.7L42.6,27.3c-0.9-1-1.7-2.1-2.4-3.2L67.3,9.3z M26.6,24.6l5.3-2.9c0.5-0.3,1-0.3,1.5-0.2
		c0.5,0.2,0.9,0.5,1.2,1l0.5,0.9c2.7,5,6.5,9.4,11.1,12.8c-1.1,3-3.2,5.4-6,7c-2.8,1.5-6,2-9.1,1.2c-0.4-5.7-2-11.2-4.7-16.2
		l-0.5-0.9C25.3,26.3,25.7,25.1,26.6,24.6z"/>
</g>
</svg>
