<?xml version="1.0" encoding="utf-8"?>
<!-- Generator: Adobe Illustrator 21.0.2, SVG Export Plug-In . SVG Version: 6.00 Build 0)  -->
<svg version="1.1" id="Layer_1" xmlns="http://www.w3.org/2000/svg" xmlns:xlink="http://www.w3.org/1999/xlink" x="0px" y="0px"
	 viewBox="0 0 100 100" style="enable-background:new 0 0 100 100;" xml:space="preserve">
<g>
	<path d="M79.6,60.4l1.4-1.4H84c4.4,0,8-3.6,8-8v-6h-6c-4.4,0-8,3.6-8,8v3.3l-1.4,1.4c0,0.1-0.1,0.1-0.1,0.2
		c-2.2,2.9-3.5,6.5-3.5,10.1v0h-2v4c0,1.1-0.9,2-2,2s-2-0.9-2-2v-4H55.8c-2.5-4.2-3.8-9-3.8-14H32v4c0,1.1-0.9,2-2,2s-2-0.9-2-2v-4
		h-6c0,9.9-5.3,19-13.9,23.9L8,77.9h28v-6c0-1.1,0.9-2,2-2s2,0.9,2,2v6h5.1c-2.3,5.8-6.4,10.8-12,13.9L33,91.9h29v-6
		c0-1.1,0.9-2,2-2s2,0.9,2,2v6h25l-0.1-0.1C82.3,87,77,77.8,77,67.9v0C77,65.2,77.9,62.5,79.6,60.4z M55,79.9c-1.1,0-2-0.9-2-2
		c0-1.1,0.9-2,2-2s2,0.9,2,2C57,79,56.1,79.9,55,79.9z"/>
	<path d="M25.2,27.5l0.4,0.7c1.4,2.6,2.5,5.3,3.2,8.1c0.8,2.8,1.2,5.8,1.3,8.7c1.6,0.6,3.2,0.8,4.8,0.8c6.7,0,12.8-4.5,14.5-11.3
		c-1.8-1.2-3.4-2.6-5-4.1c-1-1-1.9-2-2.8-3l28.4-15.5c1-0.5,1.3-1.7,0.8-2.7c-0.5-1-1.7-1.3-2.7-0.8L39.4,24c-0.5-0.8-1-1.7-1.5-2.5
		l-0.5-0.9c-0.7-1.3-2.1-2.1-3.5-2.1c-0.7,0-1.3,0.2-1.9,0.5l-5.3,2.9c-1.9,1-2.7,3.5-1.6,5.4L25.2,27.5z"/>
</g>
</svg>
