<?xml version="1.0" encoding="utf-8"?>
<!-- Generator: Adobe Illustrator 21.0.2, SVG Export Plug-In . SVG Version: 6.00 Build 0)  -->
<svg version="1.1" id="Layer_1" xmlns="http://www.w3.org/2000/svg" xmlns:xlink="http://www.w3.org/1999/xlink" x="0px" y="0px"
	 viewBox="0 0 100 100" style="enable-background:new 0 0 100 100;" xml:space="preserve">
<g>
	<path d="M87,56h4v-5.7c0-1-0.7-1.8-1.6-2L76.8,46H57v26h5.2c1-5.7,5.9-10,11.8-10s10.9,4.3,11.8,10H89c1.1,0,2-0.9,2-2V60h-4
		c-1.1,0-2-0.9-2-2C85,56.9,85.9,56,87,56z"/>
	<path d="M69.1,29.3c-0.3-0.8-1-1.3-1.9-1.3H57v14h17.1L69.1,29.3z"/>
	<path d="M74,66c-4.4,0-8,3.6-8,8c0,4.4,3.6,8,8,8s8-3.6,8-8C82,69.6,78.4,66,74,66z"/>
	<path d="M51,18H11c-1.1,0-2,0.9-2,2v50c0,1.1,0.9,2,2,2h5.2c1-5.7,5.9-10,11.8-10s10.9,4.3,11.8,10H53V20C53,18.9,52.1,18,51,18z
		 M45,45.6V48c0,4.4-3.6,8-8,8H25c-4.4,0-8-3.6-8-8v-2.4c-2.3-0.8-4-3-4-5.6s1.7-4.8,4-5.7v-1c0-5.2,4.2-9.3,9.3-9.3h9.3
		c5.2,0,9.3,4.2,9.3,9.3v1c2.3,0.8,4,3,4,5.7S47.3,44.8,45,45.6z"/>
	<path d="M28,66c-4.4,0-8,3.6-8,8c0,4.4,3.6,8,8,8s8-3.6,8-8C36,69.6,32.4,66,28,66z"/>
	<path d="M43,38H19c-1.1,0-2,0.9-2,2c0,1.1,0.9,2,2,2h24c1.1,0,2-0.9,2-2C45,38.9,44.1,38,43,38z"/>
	<path d="M41,33.3c0-3-2.4-5.3-5.3-5.3h-9.3c-2.9,0-5.3,2.4-5.3,5.3V34h20V33.3z"/>
	<path d="M21,48c0,2.2,1.8,4,4,4h12c2.2,0,4-1.8,4-4v-2H21V48z"/>
</g>
</svg>
