<?xml version="1.0" encoding="utf-8"?>
<!-- Generator: Adobe Illustrator 21.0.2, SVG Export Plug-In . SVG Version: 6.00 Build 0)  -->
<svg version="1.1" id="Layer_1" xmlns="http://www.w3.org/2000/svg" xmlns:xlink="http://www.w3.org/1999/xlink" x="0px" y="0px"
	 viewBox="0 0 100 100" style="enable-background:new 0 0 100 100;" xml:space="preserve">
<g>
	<path d="M90.1,44.4l-11.6-2.2l-5.6-14.4C72,25.5,69.8,24,67.3,24H57v-4c0-3.3-2.7-6-6-6H11c-3.3,0-6,2.7-6,6v50c0,3.3,2.7,6,6,6
		h5.2c1,5.7,5.9,10,11.8,10s10.9-4.3,11.8-10h22.4c1,5.7,5.9,10,11.8,10s10.9-4.3,11.8-10H89c3.3,0,6-2.7,6-6V50.3
		C95,47.4,92.9,45,90.1,44.4z M28,82c-4.4,0-8-3.6-8-8c0-4.4,3.6-8,8-8s8,3.6,8,8C36,78.4,32.4,82,28,82z M53,72H39.8
		c-1-5.7-5.9-10-11.8-10s-10.9,4.3-11.8,10H11c-1.1,0-2-0.9-2-2V20c0-1.1,0.9-2,2-2h40c1.1,0,2,0.9,2,2V72z M57,28h10.3
		c0.8,0,1.6,0.5,1.9,1.3l5,12.7H57V28z M74,82c-4.4,0-8-3.6-8-8c0-4.4,3.6-8,8-8s8,3.6,8,8C82,78.4,78.4,82,74,82z M91,56h-4
		c-1.1,0-2,0.9-2,2c0,1.1,0.9,2,2,2h4v10c0,1.1-0.9,2-2,2h-3.2c-1-5.7-5.9-10-11.8-10s-10.9,4.3-11.8,10H57V46h19.8l12.6,2.3
		c0.9,0.2,1.6,1,1.6,2V56z"/>
	<path d="M45,34.3v-1c0-5.2-4.2-9.3-9.3-9.3h-9.3c-5.2,0-9.3,4.2-9.3,9.3v1c-2.3,0.8-4,3-4,5.7s1.7,4.8,4,5.6V48c0,4.4,3.6,8,8,8h12
		c4.4,0,8-3.6,8-8v-2.4c2.3-0.8,4-3,4-5.6S47.3,35.2,45,34.3z M21,33.3c0-3,2.4-5.3,5.3-5.3h9.3c2.9,0,5.3,2.4,5.3,5.3V34H21V33.3z
		 M41,48c0,2.2-1.8,4-4,4H25c-2.2,0-4-1.8-4-4v-2h20V48z M43,42H19c-1.1,0-2-0.9-2-2c0-1.1,0.9-2,2-2h24c1.1,0,2,0.9,2,2
		C45,41.1,44.1,42,43,42z"/>
</g>
</svg>
