<?xml version="1.0" encoding="utf-8"?>
<!-- Generator: Adobe Illustrator 21.0.2, SVG Export Plug-In . SVG Version: 6.00 Build 0)  -->
<svg version="1.1" id="Layer_1" xmlns="http://www.w3.org/2000/svg" xmlns:xlink="http://www.w3.org/1999/xlink" x="0px" y="0px"
	 viewBox="0 0 100 100" style="enable-background:new 0 0 100 100;" xml:space="preserve">
<g>
	<path d="M93,91h-5c-2.8-3.8-5.4-7.9-7.6-12.1c-0.4-0.8-0.9-1.6-1.4-2.4v-8.2l6.2-2.5c2.3-0.9,3.8-3.1,3.8-5.6V57c0-1.1-0.9-2-2-2
		s-2,0.9-2,2v3.3c0,0.8-0.5,1.5-1.3,1.9L79,64V57c0,0,0,0,0,0V37c0-1.1-0.9-2-2-2s-2,0.9-2,2v17l-4.7-1.9c-0.8-0.3-1.3-1-1.3-1.9V45
		c0-1.1-0.9-2-2-2s-2,0.9-2,2v5.3c0,2.5,1.5,4.7,3.8,5.6l6.2,2.5v13.5c-0.5-0.4-0.9-0.9-1.4-1.3c-4.5-3.7-10.9-3.9-15.7-0.7
		c-0.2-0.3-0.3-0.6-0.5-0.9c-1.7-3.2-4-6-6.8-8.3c-4.8-4-11.8-4-16.7,0c-2.8,2.3-5.1,5.1-6.8,8.3c-0.7,1.3-1.4,2.5-2.1,3.7V47
		c0-1.1-0.9-2-2-2s-2,0.9-2,2v15l-4.7-1.9c-0.8-0.3-1.3-1-1.3-1.9V55c0-1.1-0.9-2-2-2s-2,0.9-2,2v3.3c0,2.5,1.5,4.7,3.8,5.6l6.2,2.5
		v12.5c-3,4.3-6.4,8.4-10.2,12.1c0,0,0,0,0,0H7c-1.1,0-2,0.9-2,2c0,1.1,0.9,2,2,2h36.4c0,0,0,0,0,0c0,0,0,0,0,0H93c1.1,0,2-0.9,2-2
		C95,91.9,94.1,91,93,91z M21,91h-4.7c1.6-1.8,3.2-3.6,4.7-5.5V91z M42.4,91H25V80.1c2-3,3.9-6.1,5.6-9.3c1.5-2.8,3.4-5.1,5.8-7.1
		c3.3-2.7,8.2-2.7,11.6,0c2.4,2,4.4,4.4,5.8,7.1c0.3,0.6,0.6,1.1,1,1.7c-1.9,1.9-3.5,4-4.7,6.4C47.9,83.1,45.3,87.2,42.4,91z M75,91
		H47.4c2.3-3.3,4.4-6.7,6.2-10.2c1.5-2.8,3.4-5.1,5.8-7.1c3.4-2.7,8.2-2.7,11.6,0c1.5,1.2,2.8,2.6,4,4.2V91z M79,91v-6.4
		c1.3,2.2,2.7,4.3,4.1,6.4H79z"/>
	<path d="M35,21c0,4.4,3.6,8,8,8s8-3.6,8-8c0-4.4-3.6-8-8-8S35,16.6,35,21z M47,21c0,2.2-1.8,4-4,4s-4-1.8-4-4c0-2.2,1.8-4,4-4
		S47,18.8,47,21z"/>
	<path d="M29,18.9c1.1,0.3,2.2-0.3,2.5-1.3C33,12.5,37.7,9,43,9c5.3,0,10,3.5,11.5,8.6c0.3,0.9,1.1,1.4,1.9,1.4c0.2,0,0.4,0,0.6-0.1
		c1.1-0.3,1.7-1.4,1.3-2.5C56.3,9.7,50,5,43,5c-7,0-13.3,4.7-15.3,11.4C27.4,17.5,28,18.6,29,18.9z"/>
	<path d="M43,37c7,0,13.3-4.7,15.3-11.4c0.3-1.1-0.3-2.2-1.3-2.5c-1.1-0.3-2.2,0.3-2.5,1.3C53,29.5,48.3,33,43,33
		c-5.3,0-10-3.5-11.5-8.6c-0.3-1.1-1.4-1.7-2.5-1.3c-1.1,0.3-1.7,1.4-1.3,2.5C29.7,32.3,36,37,43,37z"/>
</g>
</svg>
