<?xml version="1.0" encoding="utf-8"?>
<!-- Generator: Adobe Illustrator 21.0.2, SVG Export Plug-In . SVG Version: 6.00 Build 0)  -->
<svg version="1.1" id="Layer_1" xmlns="http://www.w3.org/2000/svg" xmlns:xlink="http://www.w3.org/1999/xlink" x="0px" y="0px"
	 viewBox="0 0 100 100" style="enable-background:new 0 0 100 100;" xml:space="preserve">
<g>
	<circle cx="43" cy="21" r="6"/>
	<path d="M29,18.9c1.1,0.3,2.2-0.3,2.5-1.3C33,12.5,37.7,9,43,9c5.3,0,10,3.5,11.5,8.6c0.3,0.9,1.1,1.4,1.9,1.4c0.2,0,0.4,0,0.6-0.1
		c1.1-0.3,1.7-1.4,1.3-2.5C56.3,9.7,50,5,43,5c-7,0-13.3,4.7-15.3,11.4C27.4,17.5,28,18.6,29,18.9z"/>
	<path d="M43,37c7,0,13.3-4.7,15.3-11.4c0.3-1.1-0.3-2.2-1.3-2.5c-1.1-0.3-2.2,0.3-2.5,1.3C53,29.5,48.3,33,43,33
		c-5.3,0-10-3.5-11.5-8.6c-0.3-1.1-1.4-1.7-2.5-1.3c-1.1,0.3-1.7,1.4-1.3,2.5C29.7,32.3,36,37,43,37z"/>
	<path d="M93,91h-7.4c-0.9-1.2-1.8-2.5-2.6-3.7V68.4l6.2-2.5c2.3-0.9,3.8-3.1,3.8-5.6V57c0-1.1-0.9-2-2-2s-2,0.9-2,2v3.3
		c0,0.8-0.5,1.6-1.3,1.9L83,64V57c0,0,0,0,0,0V37c0-1.1-0.9-2-2-2s-2,0.9-2,2v17l-4.7-1.9c-0.8-0.3-1.3-1-1.3-1.9V45
		c0-1.1-0.9-2-2-2s-2,0.9-2,2v5.3c0,2.5,1.5,4.7,3.8,5.6l6.2,2.5v22.2c-0.1-0.2-0.2-0.4-0.4-0.7c-1.6-3-3.7-5.6-6.3-7.7
		c-4.1-3.4-10-3.4-14.1,0c-0.3,0.2-0.6,0.5-0.9,0.8c-0.6-1-1.1-2-1.7-3.1c-1.6-3-3.7-5.6-6.3-7.7c-4.1-3.4-10-3.4-14.1,0
		c-2.6,2.1-4.8,4.8-6.3,7.7c-1.8,3.3-3.7,6.5-5.9,9.6V47c0-1.1-0.9-2-2-2s-2,0.9-2,2v15l-4.7-1.9c-0.8-0.3-1.3-1-1.3-1.9V55
		c0-1.1-0.9-2-2-2s-2,0.9-2,2v3.3c0,2.5,1.5,4.7,3.8,5.6l6.2,2.5v18.5C17.3,87,15.5,89,13.6,91H7c-1.1,0-2,0.9-2,2s0.9,2,2,2h86
		c1.1,0,2-0.9,2-2S94.1,91,93,91z"/>
</g>
</svg>
