<?xml version="1.0" encoding="utf-8"?>
<!-- Generator: Adobe Illustrator 21.0.2, SVG Export Plug-In . SVG Version: 6.00 Build 0)  -->
<svg version="1.1" id="Layer_1" xmlns="http://www.w3.org/2000/svg" xmlns:xlink="http://www.w3.org/1999/xlink" x="0px" y="0px"
	 viewBox="0 0 100 100" style="enable-background:new 0 0 100 100;" xml:space="preserve">
<g>
	<path d="M77.1,81.7l-4-17l-12-3l-6-10l-11.6,6.6l4,4c0.8,0.8,0.8,2,0,2.8c-0.4,0.4-0.9,0.6-1.4,0.6s-1-0.2-1.4-0.6l-5-5
		c-0.1,0-0.1-0.1-0.1-0.1l-10.5,1.7l-4,10h-8l-3.3,3l4.8,5.8c0.7,0.9,0.6,2.1-0.3,2.8c-0.4,0.3-0.8,0.5-1.3,0.5
		c-0.6,0-1.1-0.2-1.5-0.7l-4.7-5.7l-3.8,3.4l4,11h29.4l-2.2-5.2c-0.4-1,0-2.2,1.1-2.6c1-0.4,2.2,0,2.6,1l2.9,6.8h48.2l-7-13
		L77.1,81.7z M30.5,81.1l-4,4c-0.4,0.4-0.9,0.6-1.4,0.6s-1-0.2-1.4-0.6c-0.8-0.8-0.8-2,0-2.8l4-4c0.8-0.8,2-0.8,2.8,0
		C31.3,79.1,31.3,80.3,30.5,81.1z M39.1,75.7c0,1.1-0.9,2-2,2s-2-0.9-2-2v-6c0-1.1,0.9-2,2-2s2,0.9,2,2V75.7z M52.5,79.1
		c-0.4,0.4-0.9,0.6-1.4,0.6s-1-0.2-1.4-0.6l-4-4c-0.8-0.8-0.8-2,0-2.8c0.8-0.8,2-0.8,2.8,0l4,4C53.3,77.1,53.3,78.3,52.5,79.1z"/>
	<path d="M14.5,41.3c0.7,0,1.3-0.3,1.7-0.9l4-6.1c0.6-0.9,0.3-2.2-0.6-2.8c-0.9-0.6-2.2-0.3-2.8,0.6l-3.1,4.8l-5.3-2.1
		c-1-0.4-2.2,0.1-2.6,1.1c-0.4,1,0.1,2.2,1.1,2.6l6.8,2.7C14,41.3,14.2,41.3,14.5,41.3z"/>
	<path d="M36.9,15.3l6.7,2.9c0.3,0.1,0.5,0.2,0.8,0.2c0.6,0,1.3-0.3,1.7-0.9l4.1-6.1c0.6-0.9,0.4-2.2-0.5-2.8
		c-0.9-0.6-2.2-0.4-2.8,0.5l-3.2,4.7l-5.2-2.2c-1-0.4-2.2,0-2.6,1.1S35.8,14.9,36.9,15.3z"/>
	<path d="M94.2,50.3c-0.3-1-1.5-1.6-2.5-1.3l-5.4,1.8l-2.8-5c-0.5-1-1.8-1.3-2.7-0.8c-1,0.5-1.3,1.8-0.8,2.7l3.6,6.4
		c0.4,0.6,1,1,1.7,1c0.2,0,0.4,0,0.6-0.1l7-2.3C94,52.5,94.6,51.4,94.2,50.3z"/>
	<path d="M47.9,24.2c-0.1,1.1,0.6,2.1,1.7,2.2l2.2,0.3c0.7,0.1,1.2,0.5,1.6,1s0.4,1.2,0.2,1.9c-0.3,0.9-1.3,1.5-2.3,1.4l-0.3,0
		c-3.5-0.4-6.8,1.7-8,5c-0.7,1.8-0.6,3.8,0.2,5.6l2.1,5c0.3,0.8,1.1,1.2,1.8,1.2c0.3,0,0.5-0.1,0.8-0.2c1-0.4,1.5-1.6,1.1-2.6
		l-2.1-5c-0.4-0.9-0.4-1.8-0.1-2.7c0.6-1.6,2.2-2.6,3.8-2.4l0.3,0c2.8,0.3,5.5-1.3,6.5-4c0.6-1.8,0.4-3.7-0.5-5.3
		c-1-1.6-2.6-2.7-4.5-2.9l-2.2-0.3C49,22.3,48,23.1,47.9,24.2z"/>
</g>
</svg>
