<?xml version="1.0" encoding="utf-8"?>
<!-- Generator: Adobe Illustrator 21.0.2, SVG Export Plug-In . SVG Version: 6.00 Build 0)  -->
<svg version="1.1" id="Layer_1" xmlns="http://www.w3.org/2000/svg" xmlns:xlink="http://www.w3.org/1999/xlink" x="0px" y="0px"
	 viewBox="0 0 100 100" style="enable-background:new 0 0 100 100;" xml:space="preserve">
<g>
	<path d="M94.8,89.8l-7-13c-0.5-0.8-1.5-1.2-2.4-1l-6.9,2.3L75,63.3c-0.2-0.7-0.7-1.3-1.5-1.5L62.3,59l-5.6-9.3
		C56.2,48.8,55,48.4,54,49l-13.7,7.8l-11.7,1.9c-0.7,0.1-1.3,0.6-1.5,1.2l-3.5,8.7H17c-0.5,0-1,0.2-1.3,0.5l-10,9
		c-0.6,0.5-0.8,1.4-0.5,2.2l4,11c0.3,0.8,1,1.3,1.9,1.3h82c0.7,0,1.4-0.4,1.7-1C95.1,91.1,95.1,90.4,94.8,89.8z M44.7,88.7
		C44.7,88.7,44.7,88.7,44.7,88.7l-3-5c-0.6-1-1.8-1.2-2.7-0.7c-0.9,0.6-1.2,1.8-0.7,2.7l1.8,3H12.4l-3.1-8.4l3.1-2.8l2.9,4.3
		c0.4,0.6,1,0.9,1.7,0.9c0.4,0,0.8-0.1,1.1-0.3c0.9-0.6,1.2-1.8,0.5-2.8l-3.2-4.8l2.3-2.1H25c0.8,0,1.5-0.5,1.9-1.3l3.6-9l10-1.7
		l4.3,3.4c0.4,0.3,0.8,0.4,1.2,0.4c0.6,0,1.2-0.3,1.6-0.8c0.7-0.9,0.5-2.1-0.3-2.8L44.6,59l9.7-5.6l5,8.3c0.3,0.5,0.7,0.8,1.2,0.9
		l10.8,2.7l3.7,15.8c0.1,0.5,0.5,1,1,1.3c0.5,0.3,1.1,0.3,1.6,0.1l7.4-2.5l4.6,8.6H44.7z"/>
	<path d="M27.6,77.3l-4,4c-0.8,0.8-0.8,2,0,2.8c0.4,0.4,0.9,0.6,1.4,0.6s1-0.2,1.4-0.6l4-4c0.8-0.8,0.8-2,0-2.8
		C29.6,76.5,28.4,76.5,27.6,77.3z"/>
	<path d="M37,66.7c-1.1,0-2,0.9-2,2v6c0,1.1,0.9,2,2,2s2-0.9,2-2v-6C39,67.6,38.1,66.7,37,66.7z"/>
	<path d="M48.4,71.3c-0.8-0.8-2-0.8-2.8,0c-0.8,0.8-0.8,2,0,2.8l4,4c0.4,0.4,0.9,0.6,1.4,0.6s1-0.2,1.4-0.6c0.8-0.8,0.8-2,0-2.8
		L48.4,71.3z"/>
	<path d="M6.9,37.4l6.8,2.7c0.2,0.1,0.5,0.1,0.7,0.1c0.7,0,1.3-0.3,1.7-0.9l4-6.1c0.6-0.9,0.3-2.2-0.6-2.8c-0.9-0.6-2.2-0.3-2.8,0.6
		l-3.1,4.8l-5.3-2.1c-1-0.4-2.2,0.1-2.6,1.1C5.3,35.9,5.8,37,6.9,37.4z"/>
	<path d="M36.8,14.3l6.7,2.9c0.3,0.1,0.5,0.2,0.8,0.2c0.6,0,1.3-0.3,1.7-0.9l4.1-6.1c0.6-0.9,0.4-2.2-0.5-2.8
		c-0.9-0.6-2.2-0.4-2.8,0.5l-3.2,4.7l-5.2-2.2c-1-0.4-2.2,0-2.6,1.1C35.3,12.7,35.8,13.9,36.8,14.3z"/>
	<path d="M83.6,53.2c0.4,0.6,1,1,1.7,1c0.2,0,0.4,0,0.6-0.1l7-2.3c1-0.3,1.6-1.5,1.3-2.5c-0.3-1-1.5-1.6-2.5-1.3l-5.4,1.8l-2.8-5
		c-0.5-1-1.8-1.3-2.7-0.8c-1,0.5-1.3,1.8-0.8,2.7L83.6,53.2z"/>
	<path d="M47.8,23.2c-0.1,1.1,0.6,2.1,1.7,2.2l2.2,0.3c0.7,0.1,1.2,0.5,1.6,1s0.4,1.2,0.2,1.9c-0.3,0.9-1.3,1.5-2.3,1.4l-0.3,0
		c-3.5-0.4-6.8,1.7-8,5c-0.7,1.8-0.6,3.8,0.2,5.6l2.1,5c0.3,0.8,1.1,1.2,1.8,1.2c0.3,0,0.5-0.1,0.8-0.2c1-0.4,1.5-1.6,1.1-2.6
		l-2.1-5c-0.4-0.9-0.4-1.8-0.1-2.7c0.6-1.6,2.2-2.6,3.8-2.4l0.3,0c2.8,0.3,5.5-1.3,6.5-4c0.6-1.8,0.4-3.7-0.5-5.3
		c-1-1.6-2.6-2.7-4.5-2.9l-2.2-0.3C49,21.3,48,22.1,47.8,23.2z"/>
</g>
</svg>
