<?xml version="1.0" encoding="utf-8"?>
<!-- Generator: Adobe Illustrator 21.0.2, SVG Export Plug-In . SVG Version: 6.00 Build 0)  -->
<svg version="1.1" id="Layer_1" xmlns="http://www.w3.org/2000/svg" xmlns:xlink="http://www.w3.org/1999/xlink" x="0px" y="0px"
	 viewBox="0 0 100 100" style="enable-background:new 0 0 100 100;" xml:space="preserve">
<g>
	<path d="M25,78V16h-4c-2.2,0-4,1.8-4,4v68c0,2.2,1.8,4,4,4h50c2.2,0,4-1.8,4-4v-4H31C27.7,84,25,81.3,25,78z"/>
	<path d="M71,26c-3.3,0-6-2.7-6-6V8H31c-1.1,0-2,0.9-2,2v68c0,1.1,0.9,2,2,2h50c1.1,0,2-0.9,2-2V26H71z M37,23h2.3
		c0.1-0.5,0.3-0.9,0.6-1.3L39,20.8c-0.8-0.8-0.8-2,0-2.8c0.8-0.8,2-0.8,2.8,0l0.8,0.8c0.4-0.2,0.9-0.4,1.3-0.5V16c0-1.1,0.9-2,2-2
		s2,0.9,2,2v2.3c0.5,0.1,0.9,0.3,1.3,0.5l0.8-0.8c0.8-0.8,2-0.8,2.8,0c0.8,0.8,0.8,2,0,2.8l-0.8,0.8c0.2,0.4,0.4,0.9,0.6,1.3H55
		c1.1,0,2,0.9,2,2c0,1.1-0.9,2-2,2h-2.3c-0.1,0.5-0.3,0.9-0.6,1.3l0.8,0.8c0.8,0.8,0.8,2.1,0,2.8c-0.4,0.4-0.9,0.6-1.4,0.6
		s-1-0.2-1.4-0.6l-0.8-0.8c-0.4,0.2-0.9,0.4-1.3,0.5V34c0,1.1-0.9,2-2,2s-2-0.9-2-2v-2.3c-0.5-0.1-0.9-0.3-1.3-0.5L41.8,32
		c-0.4,0.4-0.9,0.6-1.4,0.6s-1-0.2-1.4-0.6c-0.8-0.8-0.8-2,0-2.8l0.8-0.8c-0.2-0.4-0.4-0.9-0.6-1.3H37c-1.1,0-2-0.9-2-2
		C35,23.9,35.9,23,37,23z M67,68H37c-1.1,0-2-0.9-2-2c0-1.1,0.9-2,2-2h30c1.1,0,2,0.9,2,2C69,67.1,68.1,68,67,68z M67,54H37
		c-1.1,0-2-0.9-2-2c0-1.1,0.9-2,2-2h30c1.1,0,2,0.9,2,2C69,53.1,68.1,54,67,54z M67,46H37c-1.1,0-2-0.9-2-2c0-1.1,0.9-2,2-2h30
		c1.1,0,2,0.9,2,2C69,45.1,68.1,46,67,46z"/>
	<path d="M71,22h11L69,9v11C69,21.1,69.9,22,71,22z"/>
</g>
</svg>
