<?xml version="1.0" encoding="utf-8"?>
<!-- Generator: Adobe Illustrator 21.0.2, SVG Export Plug-In . SVG Version: 6.00 Build 0)  -->
<svg version="1.1" id="Layer_1" xmlns="http://www.w3.org/2000/svg" xmlns:xlink="http://www.w3.org/1999/xlink" x="0px" y="0px"
	 viewBox="0 0 100 100" style="enable-background:new 0 0 100 100;" xml:space="preserve">
<g>
	<path d="M50,57c-6.1,0-11,4.9-11,11s4.9,11,11,11s11-4.9,11-11S56.1,57,50,57z M50,75c-3.9,0-7-3.1-7-7s3.1-7,7-7s7,3.1,7,7
		S53.9,75,50,75z"/>
	<path d="M74.9,41.1c-0.9-1.1-2.2-1.8-3.6-2L73,25.2c0.1-0.8-0.3-1.6-0.9-2c-0.7-0.4-1.5-0.4-2.2,0.1L68,24.7V20
		c0-5.1-4.4-9.3-9.5-9c-1.2-3.5-4.6-6-8.5-6s-7.3,2.5-8.5,6c-0.2,0-0.3,0-0.5,0c-5,0-9,4-9,9v3.9l-2.4-0.8c-0.7-0.2-1.4-0.1-1.9,0.4
		c-0.5,0.4-0.8,1.1-0.7,1.8l1.7,13.8c-1.4,0.2-2.7,0.9-3.6,2c-1.1,1.3-1.6,3.1-1.4,4.8l6.8,44c0.5,3,3,5.1,5.9,5.1h27.1
		c3,0,5.5-2.1,5.9-5.1l6.8-44C76.5,44.2,76,42.4,74.9,41.1z M65.3,31.5l3.2-2.2L67.2,39h-5.9c-1.7,0-3.3,0.8-4.4,2
		c-0.5,0.6-1,1.3-1.3,2.1C54.8,45.4,52.5,47,50,47s-4.8-1.6-5.6-3.9c-0.3-0.8-0.7-1.5-1.3-2.1c-0.4-0.4-0.8-0.8-1.2-1.1
		c2-3,5.4-4.7,9-4.4C55.9,35.9,61.1,34.4,65.3,31.5z M46.2,32.1c-2.2,0.6-4.2,1.8-5.8,3.4C39.5,34.6,39,33.3,39,32c0-2.8,2.2-5,5-5
		c0.8,0,1.6,0.2,2.3,0.6C46.1,28.4,46,29.2,46,30C46,30.7,46.1,31.4,46.2,32.1z M50,30c0-3.9,3.1-7,7-7c3.1,0,5.7,2,6.6,4.7L63,28.2
		c-3.5,2.4-7.7,3.6-11.9,3.3c-0.3,0-0.6,0-0.9,0C50.1,31,50,30.5,50,30z M36,20c0-2.8,2.2-5,5-5c0.5,0,1,0.1,1.5,0.2
		c0.6,0.2,1.2,0.1,1.7-0.2c0.5-0.3,0.8-0.9,0.9-1.5c0.2-2.6,2.4-4.5,5-4.5s4.7,1.9,5,4.5c0.1,0.6,0.4,1.1,0.9,1.5
		c0.5,0.3,1.1,0.4,1.7,0.2c0.5-0.1,1-0.2,1.5-0.2c2.8,0,5,2.2,5,5v1.5C62.1,20,59.7,19,57,19c-3.8,0-7.2,1.9-9.1,4.9
		C46.7,23.3,45.4,23,44,23c-2.5,0-4.8,1-6.5,2.7L36,25.2V20z M35.4,29.2C35.2,30.1,35,31,35,32c0,2.6,1.2,5,3,6.7
		c-0.1,0.1-0.1,0.2-0.2,0.3h-5l-1.4-11.1L35.4,29.2z M72.3,45.3l-6.8,44c-0.1,1-1,1.7-2,1.7H36.4c-1,0-1.8-0.7-2-1.7l-6.8-44
		c-0.1-0.6,0.1-1.2,0.5-1.6c0.4-0.5,0.9-0.7,1.5-0.7h9c0.8,0,1.6,0.6,1.9,1.5c1.4,3.9,5.2,6.5,9.4,6.5s7.9-2.6,9.4-6.5
		c0.3-0.9,1.1-1.5,1.9-1.5h9c0.6,0,1.1,0.2,1.5,0.7C72.2,44.1,72.4,44.7,72.3,45.3z"/>
</g>
</svg>
