<?xml version="1.0" encoding="utf-8"?>
<!-- Generator: Adobe Illustrator 21.0.2, SVG Export Plug-In . SVG Version: 6.00 Build 0)  -->
<svg version="1.1" id="Layer_1" xmlns="http://www.w3.org/2000/svg" xmlns:xlink="http://www.w3.org/1999/xlink" x="0px" y="0px"
	 viewBox="0 0 100 100" style="enable-background:new 0 0 100 100;" xml:space="preserve">
<g>
	<path d="M37.8,39c0.1-0.1,0.1-0.2,0.2-0.3c-1.8-1.6-3-4-3-6.7c0-1,0.2-1.9,0.4-2.8l-4-1.4L32.8,39H37.8z"/>
	<path d="M71.9,43.7c-0.4-0.5-0.9-0.7-1.5-0.7h-9c-0.8,0-1.6,0.6-1.9,1.5C57.9,48.4,54.2,51,50,51s-7.9-2.6-9.4-6.5
		c-0.3-0.9-1.1-1.5-1.9-1.5h-9c-0.6,0-1.1,0.2-1.5,0.7c-0.4,0.4-0.5,1-0.5,1.6l6.8,44c0.2,1,1,1.7,2,1.7h27.1c1,0,1.8-0.7,2-1.7
		l6.8-44C72.4,44.7,72.2,44.1,71.9,43.7z M50,79c-6.1,0-11-4.9-11-11s4.9-11,11-11s11,4.9,11,11S56.1,79,50,79z"/>
	<circle cx="50" cy="68" r="7"/>
	<path d="M44,23c1.4,0,2.7,0.3,3.9,0.9c2-2.9,5.3-4.9,9.1-4.9c2.7,0,5.1,1,7,2.5V20c0-2.8-2.2-5-5-5c-0.5,0-1,0.1-1.5,0.2
		c-0.6,0.2-1.2,0.1-1.7-0.2c-0.5-0.3-0.8-0.9-0.9-1.5C54.7,10.9,52.6,9,50,9s-4.7,1.9-5,4.5c-0.1,0.6-0.4,1.1-0.9,1.5
		c-0.5,0.3-1.1,0.4-1.7,0.2C42,15.1,41.5,15,41,15c-2.8,0-5,2.2-5,5v5.2l1.5,0.5C39.2,24,41.5,23,44,23z"/>
	<path d="M44,27c-2.8,0-5,2.2-5,5c0,1.3,0.5,2.6,1.4,3.5c1.6-1.6,3.6-2.8,5.8-3.4C46.1,31.4,46,30.7,46,30c0-0.8,0.1-1.6,0.3-2.4
		C45.6,27.2,44.8,27,44,27z"/>
	<path d="M63,28.2l0.7-0.5C62.7,25,60.1,23,57,23c-3.9,0-7,3.1-7,7c0,0.5,0.1,1,0.2,1.5c0.3,0,0.6,0,0.9,0
		C55.3,31.8,59.5,30.6,63,28.2z"/>
	<path d="M50.8,35.5c-3.6-0.2-7,1.5-9,4.4c0.5,0.3,0.9,0.6,1.2,1.1c0.5,0.6,1,1.3,1.3,2.1c0.9,2.3,3.1,3.9,5.6,3.9s4.8-1.6,5.6-3.9
		c0.3-0.8,0.7-1.5,1.3-2.1c1.1-1.2,2.7-2,4.4-2h5.9l1.2-9.8l-3.2,2.2C61.1,34.4,55.9,35.9,50.8,35.5z"/>
</g>
</svg>
