<?xml version="1.0" encoding="utf-8"?>
<!-- Generator: Adobe Illustrator 21.0.2, SVG Export Plug-In . SVG Version: 6.00 Build 0)  -->
<svg version="1.1" id="Layer_1" xmlns="http://www.w3.org/2000/svg" xmlns:xlink="http://www.w3.org/1999/xlink" x="0px" y="0px"
	 viewBox="0 0 100 100" style="enable-background:new 0 0 100 100;" xml:space="preserve">
<g>
	<path d="M50,5C25.2,5,5,25.2,5,50s20.2,45,45,45s45-20.2,45-45S74.8,5,50,5z M50,91C27.4,91,9,72.6,9,50S27.4,9,50,9s41,18.4,41,41
		S72.6,91,50,91z"/>
	<path d="M68,50c0-9.9-8.1-18-18-18c-9.9,0-18,8.1-18,18c0,9.9,8.1,18,18,18C59.9,68,68,59.9,68,50z M36,50c0-7.7,6.3-14,14-14
		s14,6.3,14,14c0,7.7-6.3,14-14,14S36,57.7,36,50z"/>
	<path d="M21.9,38.1c0.5,0,1-0.2,1.4-0.6l4.2-4.2c0.8-0.8,0.8-2,0-2.8c-0.8-0.8-2-0.8-2.8,0l-4.2,4.2c-0.8,0.8-0.8,2,0,2.8
		C20.8,37.9,21.4,38.1,21.9,38.1z"/>
	<path d="M77.7,49.8c0.2,0,0.4,0.1,0.5,0.1c0.9,0,1.7-0.6,1.9-1.5l1.6-5.8c0.3-1.1-0.3-2.2-1.4-2.5c-1.1-0.3-2.2,0.3-2.5,1.4
		l-1.6,5.8C76,48.4,76.6,49.5,77.7,49.8z"/>
	<path d="M35.4,22.4l5.3,2.7c0.3,0.1,0.6,0.2,0.9,0.2c0.7,0,1.4-0.4,1.8-1.1c0.5-1,0.1-2.2-0.9-2.7l-5.3-2.7c-1-0.5-2.2-0.1-2.7,0.9
		C34,20.7,34.4,21.9,35.4,22.4z"/>
	<path d="M75.5,26.5c-0.8-0.8-2-0.8-2.8,0l-4.2,4.2c-0.8,0.8-0.8,2,0,2.8c0.4,0.4,0.9,0.6,1.4,0.6s1-0.2,1.4-0.6l4.2-4.2
		C76.3,28.5,76.3,27.2,75.5,26.5z"/>
	<path d="M57.1,23.6c0.4,0.6,1,0.9,1.7,0.9c0.4,0,0.8-0.1,1.1-0.3c0.9-0.6,1.1-1.9,0.5-2.8l-3.4-4.9c-0.6-0.9-1.9-1.1-2.8-0.5
		c-0.9,0.6-1.1,1.9-0.5,2.8L57.1,23.6z"/>
	<path d="M81.2,59.9c-0.8-0.8-2-0.8-2.8,0l-4.2,4.2c-0.8,0.8-0.8,2,0,2.8c0.4,0.4,0.9,0.6,1.4,0.6s1-0.2,1.4-0.6l4.2-4.2
		C82,61.9,82,60.7,81.2,59.9z"/>
	<path d="M22,48.6c-1.1-0.3-2.2,0.3-2.4,1.4L18,55.8c-0.3,1.1,0.3,2.2,1.4,2.5c0.2,0,0.4,0.1,0.5,0.1c0.9,0,1.7-0.6,1.9-1.5l1.6-5.8
		C23.7,50,23,48.9,22,48.6z"/>
	<path d="M68.2,77l-5.3-2.7c-1-0.5-2.2-0.1-2.7,0.9c-0.5,1-0.1,2.2,0.9,2.7l5.3,2.7c0.3,0.1,0.6,0.2,0.9,0.2c0.7,0,1.4-0.4,1.8-1.1
		C69.6,78.7,69.2,77.5,68.2,77z"/>
	<path d="M30.4,66.9l-4.2,4.2c-0.8,0.8-0.8,2,0,2.8c0.4,0.4,0.9,0.6,1.4,0.6s1-0.2,1.4-0.6l4.2-4.2c0.8-0.8,0.8-2,0-2.8
		C32.4,66.1,31.2,66.1,30.4,66.9z"/>
	<path d="M46.6,76.8c-0.6-0.9-1.9-1.1-2.8-0.5c-0.9,0.6-1.1,1.9-0.5,2.8l3.4,4.9c0.4,0.6,1,0.9,1.6,0.9c0.4,0,0.8-0.1,1.1-0.4
		c0.9-0.6,1.1-1.9,0.5-2.8L46.6,76.8z"/>
</g>
</svg>
