<?xml version="1.0" encoding="utf-8"?>
<!-- Generator: Adobe Illustrator 21.0.2, SVG Export Plug-In . SVG Version: 6.00 Build 0)  -->
<svg version="1.1" id="Layer_1" xmlns="http://www.w3.org/2000/svg" xmlns:xlink="http://www.w3.org/1999/xlink" x="0px" y="0px"
	 viewBox="0 0 100 100" style="enable-background:new 0 0 100 100;" xml:space="preserve">
<path d="M50,9C27.4,9,9,27.4,9,50s18.4,41,41,41s41-18.4,41-41S72.6,9,50,9z M76.3,47.4l1.6-5.8c0.3-1.1,1.4-1.7,2.5-1.4
	c1.1,0.3,1.7,1.4,1.4,2.5l-1.6,5.8c-0.2,0.9-1,1.5-1.9,1.5c-0.2,0-0.4,0-0.5-0.1C76.6,49.5,76,48.4,76.3,47.4z M54.2,15.9
	c0.9-0.6,2.2-0.4,2.8,0.5l3.4,4.9c0.6,0.9,0.4,2.2-0.5,2.8c-0.4,0.2-0.7,0.3-1.1,0.3c-0.6,0-1.3-0.3-1.7-0.9l-3.4-4.9
	C53,17.8,53.2,16.5,54.2,15.9z M34.5,19.7c0.5-1,1.7-1.4,2.7-0.9l5.3,2.7c1,0.5,1.4,1.7,0.9,2.7c-0.4,0.7-1,1.1-1.8,1.1
	c-0.3,0-0.6-0.1-0.9-0.2l-5.3-2.7C34.4,21.9,34,20.7,34.5,19.7z M20.5,34.7l4.2-4.2c0.8-0.8,2-0.8,2.8,0c0.8,0.8,0.8,2.1,0,2.8
	l-4.2,4.2c-0.4,0.4-0.9,0.6-1.4,0.6s-1-0.2-1.4-0.6C19.7,36.8,19.7,35.5,20.5,34.7z M23.4,51.1l-1.6,5.8c-0.2,0.9-1,1.5-1.9,1.5
	c-0.2,0-0.3,0-0.5-0.1c-1.1-0.3-1.7-1.4-1.4-2.5l1.6-5.8c0.3-1.1,1.4-1.7,2.4-1.4C23,48.9,23.7,50,23.4,51.1z M33.2,69.7L29,74
	c-0.4,0.4-0.9,0.6-1.4,0.6s-1-0.2-1.4-0.6c-0.8-0.8-0.8-2,0-2.8l4.2-4.2c0.8-0.8,2-0.8,2.8,0C34,67.7,34,68.9,33.2,69.7z M34,50
	c0-8.8,7.2-16,16-16s16,7.2,16,16c0,8.8-7.2,16-16,16S34,58.8,34,50z M49.5,84.5c-0.4,0.2-0.8,0.4-1.1,0.4c-0.6,0-1.3-0.3-1.6-0.9
	l-3.4-4.9c-0.6-0.9-0.4-2.1,0.5-2.8c0.9-0.6,2.1-0.4,2.8,0.5l3.4,4.9C50.7,82.7,50.4,83.9,49.5,84.5z M69.1,79.7
	c-0.3,0.7-1,1.1-1.8,1.1c-0.3,0-0.6-0.1-0.9-0.2l-5.3-2.7c-1-0.5-1.4-1.7-0.9-2.7c0.5-1,1.7-1.4,2.7-0.9l5.3,2.7
	C69.2,77.5,69.6,78.7,69.1,79.7z M69.9,34.1c-0.5,0-1-0.2-1.4-0.6c-0.8-0.8-0.8-2,0-2.8l4.2-4.2c0.8-0.8,2-0.8,2.8,0
	c0.8,0.8,0.8,2.1,0,2.8l-4.2,4.2C70.9,33.9,70.4,34.1,69.9,34.1z M77,67c-0.4,0.4-0.9,0.6-1.4,0.6s-1-0.2-1.4-0.6
	c-0.8-0.8-0.8-2,0-2.8l4.2-4.2c0.8-0.8,2-0.8,2.8,0c0.8,0.8,0.8,2,0,2.8L77,67z"/>
</svg>
