<?xml version="1.0" encoding="utf-8"?>
<!-- Generator: Adobe Illustrator 23.0.1, SVG Export Plug-In . SVG Version: 6.00 Build 0)  -->
<svg version="1.1" id="Layer_1" xmlns="http://www.w3.org/2000/svg" xmlns:xlink="http://www.w3.org/1999/xlink" x="0px" y="0px"
	 viewBox="0 0 100 100" style="enable-background:new 0 0 100 100;" xml:space="preserve">
<style type="text/css">
	.st0{fill:#000000;}
</style>
<path class="st0" d="M89,81h-0.4c0.2-0.6,0.4-1.3,0.4-2v-2c0-3.3-2.7-6-6-6h-2V36C81,18.9,67.1,5,50,5C32.9,5,19,18.9,19,36v35h-2
	c-3.3,0-6,2.7-6,6v2c0,0.7,0.1,1.4,0.4,2H11c-3.3,0-6,2.7-6,6v2c0,3.3,2.7,6,6,6h78c3.3,0,6-2.7,6-6v-2C95,83.7,92.3,81,89,81z
	 M23,36C23,21.1,35.1,9,50,9s27,12.1,27,27v35h-6V36c0-11.6-9.4-21-21-21c-11.6,0-21,9.4-21,21v35h-6V36z M67,71H33V36
	c0-9.4,7.6-17,17-17s17,7.6,17,17V71z M15,79v-2c0-1.1,0.9-2,2-2h4h10h38h10h4c1.1,0,2,0.9,2,2v2c0,1.1-0.9,2-2,2H17
	C15.9,81,15,80.1,15,79z M91,89c0,1.1-0.9,2-2,2H11c-1.1,0-2-0.9-2-2v-2c0-1.1,0.9-2,2-2h6h66h6c1.1,0,2,0.9,2,2V89z M61,49
	c0,1.1-0.9,2-2,2s-2-0.9-2-2c0-1.1,0.9-2,2-2S61,47.9,61,49z"/>
</svg>
