<?xml version="1.0" encoding="utf-8"?>
<!-- Generator: Adobe Illustrator 23.0.1, SVG Export Plug-In . SVG Version: 6.00 Build 0)  -->
<svg version="1.1" id="Layer_1" xmlns="http://www.w3.org/2000/svg" xmlns:xlink="http://www.w3.org/1999/xlink" x="0px" y="0px"
	 viewBox="0 0 100 100" style="enable-background:new 0 0 100 100;" xml:space="preserve">
<path d="M19,31h4.6c-0.4,1.9-0.6,4-0.6,6v8h-4c-1.1,0-2-0.9-2-2V33C17,31.9,17.9,31,19,31z M17,73v10c0,1.1,0.9,2,2,2h4V71h-4
	C17.9,71,17,71.9,17,73z M63,58c0-3.2,2.1-5.8,5-6.7V45H57v26h11v-6.3C65.1,63.8,63,61.1,63,58z M27,71h11V45H27V71z M42,31h11V9
	c-4,0.3-7.7,1.4-11,3.1V31z M68,35H57v6h11V35z M27,81h11v-6H27V81z M57,81h11v-6H57V81z M27,89c0,1.1,0.9,2,2,2h9v-6H27V89z M42,41
	h11v-6H42V41z M68,12.2c-3.3-1.8-7-2.8-11-3.1V31h11V12.2z M42,81h11v-6H42V81z M82.9,35H72v6h11v-4C83,36.3,83,35.6,82.9,35z
	 M72,51.2c2.9,0.9,5,3.5,5,6.7c0,3.2-2.1,5.8-5,6.7V71h11V45H72V51.2z M42,71h11V45H42V71z M42,91h11v-6H42V91z M72,81h11v-6H72V81z
	 M27.7,31H38V14.7C32.8,18.7,29.1,24.4,27.7,31z M72,14.7V31h10.3C80.9,24.4,77.2,18.7,72,14.7z M72,91h9c1.1,0,2-0.9,2-2v-4H72V91z
	 M57,91h11v-6H57V91z M27,37v4h11v-6H27.1C27,35.6,27,36.3,27,37z M73,58c0-1.7-1.3-3-3-3s-3,1.3-3,3c0,1.6,1.3,3,3,3S73,59.6,73,58
	z"/>
</svg>
