<?xml version="1.0" encoding="utf-8"?>
<!-- Generator: Adobe Illustrator 23.0.1, SVG Export Plug-In . SVG Version: 6.00 Build 0)  -->
<svg version="1.1" id="Layer_1" xmlns="http://www.w3.org/2000/svg" xmlns:xlink="http://www.w3.org/1999/xlink" x="0px" y="0px"
	 viewBox="0 0 100 100" style="enable-background:new 0 0 100 100;" xml:space="preserve">
<path d="M55,5c-14.2,0-26.2,9.2-30.4,22H19c-3.3,0-6,2.7-6,6v10c0,3.3,2.7,6,6,6h4v18h-4c-3.3,0-6,2.7-6,6v10c0,3.3,2.7,6,6,6h4
	c0,3.3,2.7,6,6,6h52c3.3,0,6-2.7,6-6V37C87,19.3,72.6,5,55,5z M23,85h-4c-1.1,0-2-0.9-2-2V73c0-1.1,0.9-2,2-2h4V85z M23,37v8h-4
	c-1.1,0-2-0.9-2-2V33c0-1.1,0.9-2,2-2h4.6C23.2,32.9,23,35,23,37z M38,91h-9c-1.1,0-2-0.9-2-2v-4h11V91z M38,81H27v-6h11V81z M38,71
	H27V45h11V71z M38,41H27v-4c0-0.7,0-1.3,0.1-2H38V41z M38,31H27.7c1.4-6.6,5.2-12.3,10.3-16.2V31z M53,91H42v-6h11V91z M53,81H42v-6
	h11V81z M53,71H42V45h11V71z M53,41H42v-6h11V41z M53,31H42V12.2c3.3-1.8,7-2.8,11-3.1V31z M72,14.8c5.2,4,8.9,9.7,10.3,16.2H72
	V14.8z M57,9.1c4,0.3,7.7,1.4,11,3.1V31H57V9.1z M57,35h11v6H57V35z M68,91H57v-6h11V91z M68,81H57v-6h11V81z M68,71H57V45h11v6.3
	c-2.9,0.9-5,3.5-5,6.7c0,3.2,2.1,5.8,5,6.7V71z M67,58c0-1.7,1.3-3,3-3s3,1.3,3,3c0,1.6-1.3,3-3,3S67,59.6,67,58z M83,89
	c0,1.1-0.9,2-2,2h-9v-6h11V89z M83,81H72v-6h11V81z M83,71H72v-6.3c2.9-0.9,5-3.5,5-6.7c0-3.2-2.1-5.8-5-6.7V45h11V71z M83,41H72v-6
	h10.9c0,0.7,0.1,1.3,0.1,2V41z"/>
</svg>
