<?xml version="1.0" encoding="utf-8"?>
<!-- Generator: Adobe Illustrator 21.0.2, SVG Export Plug-In . SVG Version: 6.00 Build 0)  -->
<svg version="1.1" id="Layer_1" xmlns="http://www.w3.org/2000/svg" xmlns:xlink="http://www.w3.org/1999/xlink" x="0px" y="0px"
	 viewBox="0 0 100 100" style="enable-background:new 0 0 100 100;" xml:space="preserve">
<g>
	<polygon points="47.2,73.5 52.8,73.5 53,67.5 47,67.5 	"/>
	<polygon points="47.6,83.5 52.4,83.5 52.6,77.5 47.4,77.5 	"/>
	<polygon points="46.8,63.5 53.2,63.5 53.4,57.5 46.6,57.5 	"/>
	<path d="M47.8,89.6c0,1.1,0.9,1.9,2,1.9h0.3c1.1,0,2-0.8,2-1.9l0.1-2.1h-4.5L47.8,89.6z"/>
	<path d="M87.5,37l-23.3-6.5h20c4.3,0,7.8-3.5,7.8-7.8c0-5.1-4.9-8.9-9.8-7.5l-25.5,7.1c-0.7-2.1-2.3-3.7-4.3-4.4
		c1.6-0.8,2.7-2.5,2.7-4.4c0-2.8-2.2-5-5-5s-5,2.2-5,5c0,1.9,1.1,3.6,2.7,4.4c-2,0.7-3.6,2.4-4.3,4.4l-25.5-7.1
		C12.9,13.9,8,17.6,8,22.7c0,4.3,3.5,7.8,7.8,7.8h20L12.5,37C9.2,37.9,7,40.8,7,44.2c0,5.6,6,9.2,10.9,6.6L43,37.5v1
		c0,0.7,0.1,1.5,0.3,2.1c0.5,1.5,1.5,2.8,2.7,3.7l0.4,9.2h7.1l0.4-9.2c1.3-0.9,2.3-2.2,2.7-3.7c0.2-0.7,0.3-1.4,0.3-2.1v-1
		l25.1,13.2c5,2.6,10.9-1,10.9-6.6C93,40.8,90.8,37.9,87.5,37z"/>
</g>
</svg>
