<?xml version="1.0" encoding="utf-8"?>
<!-- Generator: Adobe Illustrator 23.0.1, SVG Export Plug-In . SVG Version: 6.00 Build 0)  -->
<svg version="1.1" id="Layer_1" xmlns="http://www.w3.org/2000/svg" xmlns:xlink="http://www.w3.org/1999/xlink" x="0px" y="0px"
	 viewBox="0 0 100 100" style="enable-background:new 0 0 100 100;" xml:space="preserve">
<style type="text/css">
	.st0{fill:#000000;}
</style>
<path class="st0" d="M60,37.5V36c0-2.5,1.2-4.9,3.2-6.4c1-0.7,1.8-1.6,2.5-2.6H78c1.1,0,2-0.9,2-2v-4c0-5.5-4.5-10-10-10H56
	c-2.4,0-4.5,1.1-6,2.7c-1.5-1.7-3.6-2.7-6-2.7H30c-5.5,0-10,4.5-10,10v4c0,1.1,0.9,2,2,2h12.3c0.7,1,1.5,1.9,2.5,2.6
	c2,1.5,3.2,3.9,3.2,6.4v1.5c-3.9,1.8-19.9,11.2-22.2,40.7c-0.1,0.7,0.3,1.5,0.9,1.8C28.2,86,39.1,89,50,89s21.8-3,31.2-8.9
	c0.6-0.4,1-1.1,0.9-1.8C79.9,48.7,63.9,39.4,60,37.5z M68,20v-5h2c3.3,0,6,2.7,6,6v2h-8.4C67.9,22.1,68,21,68,20z M24,23v-2
	c0-3.3,2.7-6,6-6h2v5c0,1,0.1,2,0.4,3H24z M39.2,26.4c-2-1.5-3.2-3.9-3.2-6.4v-5h8c2.2,0,4,1.8,4,4c0,0.8,0.5,1.6,1.3,1.8
	C49.5,21,49.7,21,50,21s0.5,0,0.7-0.2c0.7-0.3,1.3-1,1.3-1.8c0-2.2,1.8-4,4-4h8v5c0,2.5-1.2,4.9-3.2,6.4c-2.6,1.9-4.2,4.8-4.7,7.9
	C56,34.9,56,35.5,56,36v1H44v-1c0-0.6,0-1.1-0.1-1.7C43.4,31.2,41.8,28.4,39.2,26.4z M21.9,77.3C24.4,49.8,39.5,42.1,42,41H58
	c2.5,1.1,17.5,8.8,20,36.3C60.9,87.5,39.1,87.5,21.9,77.3z"/>
</svg>
