<?xml version="1.0" encoding="utf-8"?>
<!-- Generator: Adobe Illustrator 23.0.1, SVG Export Plug-In . SVG Version: 6.00 Build 0)  -->
<svg version="1.1" id="Layer_1" xmlns="http://www.w3.org/2000/svg" xmlns:xlink="http://www.w3.org/1999/xlink" x="0px" y="0px"
	 viewBox="0 0 100 100" style="enable-background:new 0 0 100 100;" xml:space="preserve">
<path d="M78.1,77.3c-17.2,10.2-39,10.2-56.2,0C24.4,49.8,39.5,42.1,42,41H58C60.5,42.1,75.6,49.9,78.1,77.3z M32,20v-5h-2
	c-3.3,0-6,2.7-6,6v2h8.4C32.1,22.1,32,21,32,20z M76,21c0-3.3-2.7-6-6-6h-2v5c0,1-0.1,2-0.4,3H76V21z M39.2,26.4
	c3,2.2,4.8,5.8,4.8,9.6v1h12v-1c0-3.8,1.8-7.4,4.8-9.6c2-1.5,3.2-3.9,3.2-6.4v-5h-8c-2.2,0-4,1.8-4,4c0,1.1-0.9,2-2,2s-2-0.9-2-2
	c0-2.2-1.8-4-4-4h-8v5C36,22.5,37.2,24.9,39.2,26.4z"/>
</svg>
