<?xml version="1.0" encoding="utf-8"?>
<!-- Generator: Adobe Illustrator 21.0.2, SVG Export Plug-In . SVG Version: 6.00 Build 0)  -->
<svg version="1.1" id="Layer_1" xmlns="http://www.w3.org/2000/svg" xmlns:xlink="http://www.w3.org/1999/xlink" x="0px" y="0px"
	 viewBox="0 0 100 100" style="enable-background:new 0 0 100 100;" xml:space="preserve">
<path d="M89,63H69.1c-3.9-6-6-12.9-6.2-20h7.4l7.5,5.6c0.4,0.3,0.8,0.4,1.2,0.4h14c1.1,0,2-0.9,2-2c0-1.1-0.9-2-2-2h-4.3l2.2-7.4
	c0.3-1.1-0.3-2.2-1.3-2.5c-1-0.3-2.2,0.3-2.5,1.4L84.5,45h-4.8l-5.5-4.1l7.2-6.4c0.5-0.5,0.8-1.1,0.6-1.8l-2-12
	c-0.2-1.1-1.2-1.8-2.3-1.6c-1.1,0.2-1.8,1.2-1.6,2.3l1.8,10.9L70.2,39H63c0.1-0.8,0.1-1.6,0.3-2.4L65,25.3c0.1-0.6-0.1-1.2-0.6-1.7
	c-0.5-0.4-1.1-0.7-1.7-0.6l-7,1c-0.4,0.1-0.7,0.2-1,0.4L50.4,28l-4.8-7.1c-0.2-0.3-0.5-0.6-0.9-0.7l-7-3c-0.7-0.3-1.4-0.2-2,0.2
	s-0.9,1.1-0.8,1.8l1.1,8.8h-6.8l-4.2-10l1.7-4.2c0.2-0.6,0.2-1.3-0.2-1.8l-4-6C22,5,20.8,4.7,19.9,5.3C19,6,18.7,7.2,19.3,8.1
	l3.4,5.1l-1.6,4c-0.2,0.5-0.2,1,0,1.5l4.4,10.5l-3.4,2.4L15,26.9V19c0-1.1-0.9-2-2-2s-2,0.9-2,2v9c0,0.7,0.3,1.3,0.9,1.7l6.6,4.4
	l-4.6,3.3c-0.9,0.6-1.1,1.9-0.5,2.8c0.4,0.6,1,0.9,1.6,0.9c0.4,0,0.8-0.1,1.1-0.4L28.6,32h7.9l0.5,4.5c1.1,9.3-1.1,18.7-6.2,26.5H11
	c-3.3,0-6,2.7-6,6v20c0,3.3,2.7,6,6,6h44c0,0,0,0,0,0h26c0,0,0,0,0,0h8c3.3,0,6-2.7,6-6V69C95,65.7,92.3,63,89,63z M75,67v4.7
	l-1.6,5.7L61,81.3V78c0-1-0.8-1.9-1.8-2L51,75.2V67H75z M40.7,49h3l3.5,6.9c0.3,0.7,1,1.1,1.8,1.1h4c1.1,0,2-0.9,2-2
	c0-1.1-0.9-2-2-2h-2.8l-2.9-5.7l4.2-5c0.7-0.8,0.6-2.1-0.3-2.8c-0.9-0.7-2.1-0.6-2.8,0.3L44.1,45h-2.8c0.2-3,0.2-6-0.2-8.9
	l-1.7-13.9l3.3,1.4l5.7,8.5c0.3,0.5,0.8,0.8,1.4,0.9c0.6,0.1,1.1-0.1,1.6-0.4l5.6-4.6l3.8-0.5l-1.3,8.7c-1.4,9.4,0.4,18.8,5,26.9
	H35.6C38.1,58.6,39.8,53.9,40.7,49z M9,69c0-1.1,0.9-2,2-2h8.8l-3,6H9V69z M11,91c-1.1,0-2-0.9-2-2V77h7.2l0.8,8.2
	c0.1,0.6,0.4,1.1,0.8,1.4c0.3,0.2,0.7,0.4,1.1,0.4c0.2,0,0.3,0,0.5-0.1l12.7-3.4l0.6,7.5H11z M20.8,82.5L20,75.4l4.2-8.4H47v7.6
	L39.4,73c-0.7-0.1-1.5,0.1-1.9,0.7l-4.6,5.5L20.8,82.5z M57,83.6L53.7,91H36.8l-0.8-9.4l3.7-4.5l8.8,1.8c0,0,0.1,0,0.2,0
	c0,0,0,0,0.1,0l8.2,0.8V83.6z M58.1,91l2.4-5.4l13.4-4.2L78,91H58.1z M91,89c0,1.1-0.9,2-2,2h-6.7l-5.2-12.1l1.3-4.7l6.1,0.7
	l1.5,3.9c0.2,0.6,0.8,1.1,1.5,1.2l3.4,0.7V89z M91,76.6l-1.5-0.3l-1.6-4c-0.3-0.7-0.9-1.2-1.6-1.2L79,70.2V67h10c1.1,0,2,0.9,2,2
	V76.6z"/>
</svg>
