<?xml version="1.0" encoding="utf-8"?>
<!-- Generator: Adobe Illustrator 21.0.2, SVG Export Plug-In . SVG Version: 6.00 Build 0)  -->
<svg version="1.1" id="Layer_1" xmlns="http://www.w3.org/2000/svg" xmlns:xlink="http://www.w3.org/1999/xlink" x="0px" y="0px"
	 viewBox="0 0 100 100" style="enable-background:new 0 0 100 100;" xml:space="preserve">
<g>
	<path d="M92,46h-4.3l2.2-7.4c0.3-1.1-0.3-2.2-1.3-2.5c-1-0.3-2.2,0.3-2.5,1.4L83.5,46h-4.8l-5.5-4.1l7.2-6.4
		c0.5-0.5,0.8-1.1,0.6-1.8l-2-12c-0.2-1.1-1.2-1.8-2.3-1.6c-1.1,0.2-1.8,1.2-1.6,2.3l1.8,10.9L69.2,40H60c0.1-0.9,0.2-1.8,0.3-2.6
		L62,26l-7,1l-6,5l-6-9l-7-3l1.1,9h-8.8l-4.2-10l1.7-4.2c0.2-0.6,0.2-1.3-0.2-1.8l-4-6C21,6,19.8,5.7,18.9,6.3
		C18,7,17.7,8.2,18.3,9.1l3.4,5.1l-1.6,4c-0.2,0.5-0.2,1,0,1.5l4.4,10.5l-3.4,2.4L14,27.9V20c0-1.1-0.9-2-2-2s-2,0.9-2,2v9
		c0,0.7,0.3,1.3,0.9,1.7l6.6,4.4l-4.6,3.3c-0.9,0.6-1.1,1.9-0.5,2.8c0.4,0.6,1,0.9,1.6,0.9c0.4,0,0.8-0.1,1.1-0.4L27.6,33h10
		l0.5,4.3c0.4,2.9,0.4,5.8,0.1,8.7h4.8l4.4-5.3c0.7-0.8,2-1,2.8-0.3c0.8,0.7,1,2,0.3,2.8l-4.2,5l2.9,5.7H52c1.1,0,2,0.9,2,2
		c0,1.1-0.9,2-2,2h-4c-0.8,0-1.5-0.4-1.8-1.1L42.8,50H38c-0.1,0-0.2,0-0.3,0c-1.1,5.7-3.3,11.2-6.7,16h-7.3L19,76.3l0.7,7.1l12-3.2
		l4.6-7.3c0.6-0.9,1.8-1.2,2.7-0.7l9.2,5.5l9.2-2.8c0.6-0.2,1.3-0.1,1.8,0.3c0.5,0.4,0.8,1,0.8,1.6v5.3l12.4-3.9l1.6-5.7V66h-7
		c-4.5-6.5-6.9-14.2-7.1-22h9.4l7.5,5.6c0.4,0.3,0.8,0.4,1.2,0.4h14c1.1,0,2-0.9,2-2C94,46.9,93.1,46,92,46z"/>
	<polygon points="59.5,86.6 56.5,94 77.8,94 72.9,82.5 	"/>
	<path d="M19.3,66H10c-2.2,0-4,1.8-4,4v4h9.7L19.3,66z"/>
	<path d="M86.6,81c-0.7-0.1-1.2-0.6-1.5-1.2l-1.5-3.9l-6.1-0.7l-1.3,4.7l5.7,13.3C82,93.5,82,93.7,82,94h6c2.2,0,4-1.8,4-4v-8
		c-0.1,0-0.3,0-0.4,0L86.6,81z"/>
	<path d="M47,81.7l-8.3-5L35,82.5L35.9,94h16.3l3.8-9.4v-4.9l-7.4,2.2C48,82.1,47.5,82,47,81.7z"/>
	<path d="M18.5,87.9C18.3,88,18.2,88,18,88c-0.4,0-0.8-0.1-1.1-0.4c-0.5-0.3-0.8-0.9-0.8-1.4L15.2,78H6v12c0,2.2,1.8,4,4,4h21.9
		l-0.7-9.5L18.5,87.9z"/>
	<path d="M88,66H78v5.2l7.2,0.8c0.7,0.1,1.4,0.6,1.6,1.2l1.6,4L92,78v-8C92,67.8,90.2,66,88,66z"/>
</g>
</svg>
