<?xml version="1.0" encoding="utf-8"?>
<!-- Generator: Adobe Illustrator 21.0.2, SVG Export Plug-In . SVG Version: 6.00 Build 0)  -->
<svg version="1.1" id="Layer_1" xmlns="http://www.w3.org/2000/svg" xmlns:xlink="http://www.w3.org/1999/xlink" x="0px" y="0px"
	 viewBox="0 0 100 100" style="enable-background:new 0 0 100 100;" xml:space="preserve">
<path d="M93,91H67.1c-3.8-5.5-6-11.9-6.6-18.5L60,66.7l10.4,3.2C70.6,70,70.8,70,71,70c0.3,0,0.7-0.1,1-0.3l5.7-3.2l5.9,5.9
	C84,72.8,84.5,73,85,73s1-0.2,1.4-0.6c0.8-0.8,0.8-2,0-2.8l-4.8-4.9l12.2-4.9c1-0.4,1.5-1.6,1.1-2.6c-0.4-1-1.6-1.5-2.6-1.1l-4,1.6
	l-3-8.2l3.1-3.1c0.8-0.8,0.8-2,0-2.8c-0.8-0.8-2-0.8-2.8,0l-4,4c-0.6,0.6-0.7,1.4-0.5,2.1l3.5,9.5l-7.3,2.9c0,0,0,0,0,0c0,0,0,0,0,0
	c-0.1,0-0.1,0.1-0.2,0.1l-6.2,3.6l-11.2-3.4L59,55.7c0,0,0,0,0,0l7.2-4.5l7.1,2.7c1,0.4,2.2-0.1,2.6-1.2c0.4-1-0.1-2.2-1.2-2.6l-8-3
	c-0.6-0.2-1.2-0.2-1.8,0.2l-6.3,3.9l-0.8-9.2c0-0.3-0.1-0.5-0.1-0.8l7.4-4.1l9.1,3.7c1,0.4,2.1,0,2.5-1l10-20c0.5-1,0.1-2.2-0.9-2.7
	c-1-0.5-2.2-0.1-2.7,0.9l-2.7,5.4l-3.8-1.9l-1.8-7.1c-0.3-1.1-1.4-1.7-2.4-1.5c-1.1,0.3-1.7,1.3-1.5,2.4l2,8c0.1,0.6,0.5,1,1,1.3
	l4.6,2.3L74,36.5l-8.3-3.3c-0.5-0.2-1.2-0.2-1.7,0.1l-6.9,3.8c-0.9-4.9-2.6-9.5-4.9-14l4.4-7c0.3-0.5,0.4-1.2,0.2-1.8l-3-8
	c-0.4-1-1.5-1.6-2.6-1.2c-1,0.4-1.6,1.5-1.2,2.6l2.7,7.1l-4.5,7.2c0,0,0,0,0,0c0,0,0,0,0,0c-2.6,4.6-4.3,9.5-5.3,14.6l-10.7-8.2
	c-0.2-0.2-0.5-0.3-0.9-0.4l-2.2-0.4L30,17.2c0.1-1.1-0.7-2.1-1.8-2.2c-1.1-0.1-2.1,0.7-2.2,1.8l-0.8,10.1l-4-0.7l-6.5-10.3
	c-0.6-0.9-1.8-1.2-2.8-0.6c-0.9,0.6-1.2,1.8-0.6,2.8l7,11c0.3,0.5,0.8,0.8,1.3,0.9l10.5,1.9l5,3.8l-7.6,6.1l-16-4.7
	c-1.1-0.3-2.2,0.3-2.5,1.4s0.3,2.2,1.4,2.5l6,1.8l-2.9,2.9c-0.8,0.8-0.8,2,0,2.8C14,48.8,14.5,49,15,49s1-0.2,1.4-0.6l4.4-4.4
	l6.6,1.9c0.2,0,0.4,0.1,0.6,0.1c0.5,0,0.9-0.2,1.2-0.4l9.2-7.3l3.8,2.9c0,0.3-0.1,0.6-0.1,0.9l-1.5,18c0,0-0.1,0-0.1,0l-9.8,2.7
	l-7.2-8.1c-0.6-0.7-1.7-0.9-2.5-0.4l-13,8C7,62.9,6.7,64.1,7.3,65c0.6,0.9,1.8,1.2,2.8,0.7l11.6-7.1l6.1,6.8l-3.5,8.9
	c-0.4,1,0.1,2.2,1.1,2.6C25.5,77,25.8,77,26,77c0.8,0,1.5-0.5,1.9-1.3l3.6-9.1l8.8-2.4l-0.7,8.2c-0.6,6.6-2.9,13-6.6,18.5H7
	c-1.1,0-2,0.9-2,2c0,1.1,0.9,2,2,2h86c1.1,0,2-0.9,2-2C95,91.9,94.1,91,93,91z M37.7,91c3.3-5.5,5.3-11.7,5.8-18.2l2.6-30.4
	c0.4-5.2,1.8-10.2,3.9-15c2.1,4.7,3.4,9.8,3.9,15l2.6,30.4C57,79.3,59,85.5,62.3,91H37.7z"/>
</svg>
