<?xml version="1.0" encoding="utf-8"?>
<!-- Generator: Adobe Illustrator 21.0.2, SVG Export Plug-In . SVG Version: 6.00 Build 0)  -->
<svg version="1.1" id="Layer_1" xmlns="http://www.w3.org/2000/svg" xmlns:xlink="http://www.w3.org/1999/xlink" x="0px" y="0px"
	 viewBox="0 0 100 100" style="enable-background:new 0 0 100 100;" xml:space="preserve">
<path d="M93,91H64.7c-3.5-5.5-5.6-11.8-6.2-18.3l-0.5-6.1l12.5,3.3c0.2,0,0.3,0.1,0.5,0.1c0.4,0,0.8-0.1,1.2-0.4l5-3.6l6.4,6.4
	C84,72.8,84.5,73,85,73s1-0.2,1.4-0.6c0.8-0.8,0.8-2,0-2.8L81,64.1l12.7-4.2c1-0.3,1.6-1.5,1.3-2.5c-0.3-1-1.5-1.6-2.5-1.3l-4.2,1.4
	l-2.9-8l3.1-3.1c0.8-0.8,0.8-2,0-2.8c-0.8-0.8-2-0.8-2.8,0l-4,4c-0.5,0.5-0.7,1.4-0.5,2.1l3.3,9.1l-7.1,2.4
	c-0.2,0.1-0.4,0.2-0.5,0.3l-6.2,4.5l-13-3.5L57,55.7l9.1-4.5l7.2,2.7c1,0.4,2.2-0.1,2.6-1.2c0.4-1-0.1-2.2-1.2-2.6l-8-3
	c-0.5-0.2-1.1-0.2-1.6,0.1l-8.5,4.2l-0.7-8.7c0,0,0.1,0,0.1,0l9.1-5.5l9.1,3.6c1,0.4,2.1,0,2.5-1l10-20c0.5-1,0.1-2.2-0.9-2.7
	c-1-0.5-2.2-0.1-2.7,0.9l-2.7,5.4l-3.8-1.9l-1.8-7.1c-0.3-1.1-1.4-1.7-2.4-1.5c-1.1,0.3-1.7,1.4-1.5,2.4l2,8c0.1,0.6,0.5,1,1,1.3
	l4.6,2.3L74,36.5l-8.3-3.3c-0.6-0.2-1.2-0.2-1.8,0.1l-8.6,5.2c-0.6-3.7-1.7-7.3-3.1-10.8l4.6-12c0.2-0.5,0.2-1,0-1.4l-3-8
	c-0.4-1-1.5-1.6-2.6-1.2c-1,0.4-1.6,1.5-1.2,2.6l2.7,7.3l-3.7,9.6c-2.2,4.3-3.7,8.9-4.5,13.6l-12.4-9.8c-0.3-0.2-0.6-0.3-0.9-0.4
	l-2.2-0.4L30,17.2c0.1-1.1-0.7-2.1-1.8-2.2c-1.1-0.1-2.1,0.7-2.2,1.8l-0.8,10.1l-3.9-0.7l-6.5-10.3c-0.6-0.9-1.8-1.2-2.8-0.6
	c-0.9,0.6-1.2,1.8-0.6,2.8l7,11c0.3,0.5,0.8,0.8,1.3,0.9l10.5,1.9l4.9,3.9l-7.5,6l-16-4.7c-1.1-0.3-2.2,0.3-2.5,1.4
	c-0.3,1.1,0.3,2.2,1.4,2.5l6,1.8l-2.9,2.9c-0.8,0.8-0.8,2,0,2.8C14,48.8,14.5,49,15,49s1-0.2,1.4-0.6l4.4-4.4l6.6,1.9
	C27.6,46,27.8,46,28,46c0.4,0,0.9-0.2,1.2-0.4l9.1-7.3l5.4,4.3c0.1,0.1,0.2,0.1,0.3,0.2L42.6,60c0,0,0,0-0.1,0l-11.8,2.7l-7.2-8.1
	c-0.6-0.7-1.7-0.9-2.5-0.4l-13,8C7,62.9,6.7,64.1,7.3,65c0.6,0.9,1.8,1.2,2.8,0.7l11.6-7.1l6.1,6.8l-3.5,8.9c-0.4,1,0.1,2.2,1.1,2.6
	C25.5,77,25.8,77,26,77c0.8,0,1.5-0.5,1.9-1.3l3.6-9l10.8-2.5l-0.7,8.4C41,79.2,38.8,85.5,35.3,91H7c-1.1,0-2,0.9-2,2s0.9,2,2,2h86
	c1.1,0,2-0.9,2-2S94.1,91,93,91z"/>
</svg>
