<?xml version="1.0" encoding="utf-8"?>
<!-- Generator: Adobe Illustrator 23.0.1, SVG Export Plug-In . SVG Version: 6.00 Build 0)  -->
<svg version="1.1" id="Layer_1" xmlns="http://www.w3.org/2000/svg" xmlns:xlink="http://www.w3.org/1999/xlink" x="0px" y="0px"
	 viewBox="0 0 100 100" style="enable-background:new 0 0 100 100;" xml:space="preserve">
<style type="text/css">
	.st0{fill:#000000;}
</style>
<path class="st0" d="M69,59c4.4,0,8-3.6,8-8v-4c0-1.1-0.9-2-2-2h-4c-1.5,0-2.8,0.4-4,1.1v-1c0-0.2,0-0.3,0-0.5
	C66.6,26.8,59.9,19.7,55,16.8c1.2-1.3,2-3,2-4.8c0-3.9-3.1-7-7-7s-7,3.1-7,7c0,1.9,0.8,3.6,2,4.8c-4.8,2.8-11.6,10-11.9,27.7
	c0,0.2,0,0.3,0,0.5v1c-1.2-0.7-2.5-1.1-4-1.1h-4c-1.1,0-2,0.9-2,2v4c0,4.4,3.6,8,8,8h2c0,4.3,1.9,8.3,4.9,11H37c-7.2,0-13,5.8-13,13
	v6c0,3.3,2.7,6,6,6h41c3.3,0,6-2.7,6-6v-6c0-7.2-5.8-13-13-13h-1.9c3-2.7,4.9-6.7,4.9-11H69z M67,53c0-2.2,1.8-4,4-4h2v2
	c0,2.2-1.8,4-4,4h-2V53z M33,55h-2c-2.2,0-4-1.8-4-4v-2h2c2.2,0,4,1.8,4,4V55z M50,9c1.7,0,3,1.3,3,3c0,1.6-1.3,3-3,3s-3-1.4-3-3
	C47,10.3,48.3,9,50,9z M50,19c1.5,0.4,8.6,2.6,11.6,14.5c-2.6-2.2-6-3.5-9.7-3.5h-3.9c-3.7,0-7.1,1.3-9.7,3.5
	C41.4,21.6,48.5,19.4,50,19z M48,91H30c-1.1,0-2-0.9-2-2v-6c0-5,4-9,9-9h6v2c0,3.2,2.1,5.8,5,6.7V91z M47,76v-2c0.3,0,0.7,0,1.1,0
	h3.9c0.3,0,0.7,0,1.1,0v2c0,1.6-1.3,3-3,3S47,77.6,47,76z M64,74c5,0,9,4,9,9v6c0,1.1-0.9,2-2,2H52v-8.3c2.9-0.9,5-3.5,5-6.7v-2H64z
	 M63,58.9C63,65,58,70,51.9,70h-3.9C42,70,37,65,37,58.9v-8.2c3.5-0.7,6.8-2.2,9.2-4.2c1.4,1.8,3.9,3.7,8.6,4.2
	c1,0.1,1.8-0.5,2.1-1.4C57,49,57,48.8,57,48.6c1.8,1,3.9,1.7,6,2.1V58.9z M63,46.6c-4-1-6.9-3.1-8.3-4.8c-0.5-0.6-1.3-0.9-2-0.7
	c-0.8,0.2-1.3,0.8-1.5,1.5c-0.2,1-0.2,2-0.2,2.8c-1.7-1-2.2-2.3-2.3-2.8c-0.2-0.7-0.8-1.2-1.5-1.4c-0.7-0.2-1.5,0.1-1.9,0.7
	c-1.4,1.7-4.3,3.8-8.2,4.7V46c0-0.5,0-0.9,0-1.3c0.2-5.9,5.1-10.7,11-10.7h3.9c6,0,10.8,4.8,11,10.7c0,0.4,0,0.9,0,1.3V46.6z"/>
</svg>
