<?xml version="1.0" encoding="utf-8"?>
<!-- Generator: Adobe Illustrator 23.0.1, SVG Export Plug-In . SVG Version: 6.00 Build 0)  -->
<svg version="1.1" id="Layer_1" xmlns="http://www.w3.org/2000/svg" xmlns:xlink="http://www.w3.org/1999/xlink" x="0px" y="0px"
	 viewBox="0 0 100 100" style="enable-background:new 0 0 100 100;" xml:space="preserve">
<path d="M48,82.7V91H30c-1.1,0-2-0.9-2-2v-6c0-5,4-9,9-9h6v2C43,79.2,45.1,81.8,48,82.7z M64,74h-7v2c0,3.2-2.1,5.8-5,6.7V91h19
	c1.1,0,2-0.9,2-2v-6C73,78,69,74,64,74z M53,76v-2c-0.3,0-0.7,0-1.1,0h-3.9c-0.3,0-0.7,0-1.1,0v2c0,1.6,1.3,3,3,3S53,77.6,53,76z
	 M45.2,41.9c0.5-0.6,1.2-0.8,1.9-0.7c0.7,0.1,1.3,0.7,1.5,1.4c0.1,0.5,0.7,1.8,2.3,2.8c-0.1-0.8,0-1.8,0.2-2.8
	c0.2-0.8,0.8-1.4,1.5-1.5c0.8-0.2,1.5,0.1,2,0.7c1.1,1.4,3.3,3.1,6.3,4.2c0.6,0.2,1.3,0.4,2,0.6V46c0-23-11-26.5-13-27
	c-1.9,0.4-13,3.9-13,27v0.6c0.7-0.2,1.3-0.4,2-0.6C41.9,44.9,44,43.3,45.2,41.9z M48.1,70h3.9C58,70,63,65,63,58.9v-8.2
	c-1.8-0.4-3.5-1-5.2-1.7c-0.3-0.1-0.6-0.2-0.8-0.4c0,0.1,0,0.3,0,0.4c0,0.1,0,0.1,0,0.2c-0.3,0.9-1.1,1.5-2.1,1.4
	c-2.4-0.2-4.2-0.8-5.6-1.6c-1.4-0.8-2.3-1.7-3-2.5c-1.2,1-2.6,1.8-4.1,2.5c-1.6,0.8-3.4,1.3-5.2,1.7v8.2C37,65,42,70,48.1,70z
	 M50,15c1.7,0,3-1.4,3-3c0-1.7-1.3-3-3-3s-3,1.3-3,3C47,13.6,48.3,15,50,15z M71,49c-2.2,0-4,1.8-4,4v2h2c2.2,0,4-1.8,4-4v-2H71z
	 M31,55h2v-2c0-2.2-1.8-4-4-4h-2v2C27,53.2,28.8,55,31,55z"/>
</svg>
