<?xml version="1.0" encoding="utf-8"?>
<!-- Generator: Adobe Illustrator 21.0.2, SVG Export Plug-In . SVG Version: 6.00 Build 0)  -->
<svg version="1.1" id="Layer_1" xmlns="http://www.w3.org/2000/svg" xmlns:xlink="http://www.w3.org/1999/xlink" x="0px" y="0px"
	 viewBox="0 0 100 100" style="enable-background:new 0 0 100 100;" xml:space="preserve">
<g>
	<path d="M89,61.4H70.2l-10.6,2.5l1,3.1l3.2,1.6c1,0.5,1.4,1.7,0.9,2.7c-0.3,0.7-1.1,1.1-1.8,1.1c-0.3,0-0.6-0.1-0.9-0.2l-3-1.5
		l-5.3,3.1l-2.8,10.2c-0.2,0.8-0.9,1.3-1.6,1.5c-0.1,0-0.2,0-0.3,0c-0.7,0-1.3-0.4-1.7-1l-8-13c-0.5-0.7-0.4-1.7,0.2-2.3l5.3-6.2
		l-0.9-3l-4.2,1.4c-0.2,0.1-0.4,0.1-0.6,0.1c-0.8,0-1.6-0.5-1.9-1.4c-0.3-1.1,0.2-2.2,1.3-2.5l4.3-1.4l-0.4-1.4l-13.5-3.3h-4
		l3.9,5.9c0.3,0.5,0.4,1.1,0.3,1.6l-2.7,10l2.4,3.2c0.3,0.4,0.4,0.8,0.4,1.2c0,0.6-0.3,1.2-0.8,1.6c-0.4,0.3-0.8,0.4-1.2,0.4
		c-0.6,0-1.2-0.3-1.6-0.8L23,71.4h-6c-1.1,0-2-0.9-2-2c0-1.1,0.9-2,2-2h5.5l2.4-8.7l-4.4-6.6l-0.5-0.8H11c-1.1,0-2,0.9-2,2v36
		c0,1.1,0.9,2,2,2h65v-3.7l-3.4-1.3H67c-1.1,0-2-0.9-2-2c0-1.1,0.9-2,2-2h4v-5c0-1.1,0.9-2,2-2s2,0.9,2,2V83l2.8,1.1l4.1-2.5
		c1-0.6,2.2-0.3,2.7,0.7c0.6,1,0.3,2.2-0.7,2.7l-4,2.4v3.9h9c1.1,0,2-0.9,2-2v-26C91,62.3,90.1,61.4,89,61.4z"/>
	<path d="M56.5,60.4l4.8-1.1l-14.5-3.6l2.1,7c0.2,0.6,0,1.3-0.4,1.9l-5.1,5.9l4.8,7.8l1.8-6.5c0.1-0.5,0.5-0.9,0.9-1.2l5.6-3.2
		L55.1,63c-0.2-0.5-0.1-1.1,0.2-1.6C55.5,60.9,56,60.6,56.5,60.4z"/>
	<path d="M36,27.5L35,31.3l4.1,5.5c0.3,0.5,0.5,1.1,0.3,1.7c-0.2,0.6-0.5,1.1-1.1,1.3l-6.2,3L31,47.8l13.6,3.3l2.8-11.7l9.7,2.4
		l-2.8,11.7l13.6,3.3l1.4-5.8l-3.9-1c-1.1-0.3-1.7-1.3-1.5-2.4c0.3-1.1,1.3-1.7,2.4-1.5l3.9,1l2.6-10.5l3.9,0.9l5.1,1.2L61.4,8.6
		L36.1,22.3l-3.4,1.9l-3.3,1.8l2.7,0.7L36,27.5z"/>
</g>
</svg>
