<?xml version="1.0" encoding="utf-8"?>
<!-- Generator: Adobe Illustrator 21.0.2, SVG Export Plug-In . SVG Version: 6.00 Build 0)  -->
<svg version="1.1" id="Layer_1" xmlns="http://www.w3.org/2000/svg" xmlns:xlink="http://www.w3.org/1999/xlink" x="0px" y="0px"
	 viewBox="0 0 100 100" style="enable-background:new 0 0 100 100;" xml:space="preserve">
<path d="M89,56.9H71.9l5.1-21l3.9,1c0.2,0,0.3,0,0.5,0c0.7,0,1.3-0.3,1.7-0.9c0.5-0.7,0.4-1.6-0.1-2.3L62,5.9
	c-0.6-0.8-1.6-1-2.5-0.6l-31.4,15c-0.8,0.4-1.2,1.2-1.1,2c0.1,0.8,0.7,1.5,1.5,1.7l3.9,1l-1.4,5.8c-0.1,0.6,0,1.2,0.3,1.7l3.2,4.3
	l-4.9,2.4c-0.5,0.3-0.9,0.7-1.1,1.3L27,46.9h-6c0,0,0,0,0,0H11c-3.3,0-6,2.7-6,6v36c0,3.3,2.7,6,6,6h78c3.3,0,6-2.7,6-6v-26
	C95,59.6,92.3,56.9,89,56.9z M59.8,9.6l16.6,22L34.9,21.5L59.8,9.6z M32.2,42.4l6.2-3c0.5-0.3,0.9-0.7,1.1-1.3
	c0.1-0.6,0-1.2-0.3-1.7L35,30.8l1.2-4.9l36.9,9l-2.8,11.7l-3.9-1c-1.1-0.3-2.1,0.4-2.4,1.5c-0.3,1.1,0.4,2.2,1.5,2.4l3.9,1l-1.4,5.8
	l-11.7-2.8l2.8-11.7c0.3-1.1-0.4-2.2-1.5-2.4L47.9,37c-0.5-0.1-1.1,0-1.5,0.2c-0.5,0.3-0.8,0.7-0.9,1.2l-2.8,11.7L31,47.3L32.2,42.4
	z M55.1,62.5l1.5,4.4L51,70.2c-0.5,0.3-0.8,0.7-0.9,1.2l-1.8,6.5l-4.8-7.8l5.1-5.9c0.4-0.5,0.6-1.2,0.4-1.9l-2.1-7l14.3,3.5L56.5,60
	c-0.5,0.1-1,0.5-1.3,1C55,61.4,54.9,62,55.1,62.5z M46.6,51.1l2.4-9.7l5.8,1.4l-2.4,9.7l-2.9-0.7L46.6,51.1z M91,88.9
	c0,1.1-0.9,2-2,2h-9V87l4-2.4c0.9-0.6,1.2-1.8,0.7-2.7c-0.6-1-1.8-1.2-2.7-0.7l-4.1,2.5L75,82.6v-5.6c0-1.1-0.9-2-2-2s-2,0.9-2,2v5
	h-4c-1.1,0-2,0.9-2,2c0,1.1,0.9,2,2,2h5.6l3.4,1.3v3.7H11c-1.1,0-2-0.9-2-2v-36c0-1.1,0.9-2,2-2h8.9l4.9,7.3l-2.4,8.7H17
	c-1.1,0-2,0.9-2,2c0,1.1,0.9,2,2,2h6l2.4,3.2c0.4,0.5,1,0.8,1.6,0.8c0.4,0,0.8-0.1,1.2-0.4c0.5-0.4,0.8-1,0.8-1.6
	c0-0.4-0.1-0.8-0.4-1.2l-2.4-3.2l2.7-10c0.2-0.6,0-1.2-0.3-1.6l-3.9-5.9h4l13.5,3.3l0.4,1.4L38.4,57c-1,0.4-1.6,1.5-1.3,2.5
	c0.3,0.8,1.1,1.4,1.9,1.4c0.2,0,0.4,0,0.6-0.1l4.2-1.4l0.9,3l-5.3,6.2c-0.6,0.7-0.6,1.6-0.2,2.3l8,13c0.4,0.6,1,1,1.7,1
	c0.1,0,0.2,0,0.3,0c0.8-0.1,1.4-0.7,1.6-1.5l2.8-10.2l5.3-3.1l3,1.5c0.3,0.1,0.6,0.2,0.9,0.2c0.7,0,1.4-0.4,1.8-1.1
	c0.5-1,0.1-2.2-0.9-2.7l-3.2-1.6l-1.1-3.2l9.9-2.5c0,0,0,0,0,0h0c0.1,0,0.3,0.1,0.5,0.1h19c1.1,0,2,0.9,2,2V88.9z"/>
</svg>
