<?xml version="1.0" encoding="utf-8"?>
<!-- Generator: Adobe Illustrator 21.0.2, SVG Export Plug-In . SVG Version: 6.00 Build 0)  -->
<svg version="1.1" id="Layer_1" xmlns="http://www.w3.org/2000/svg" xmlns:xlink="http://www.w3.org/1999/xlink" x="0px" y="0px"
	 viewBox="0 0 100 100" style="enable-background:new 0 0 100 100;" xml:space="preserve">
<path d="M85.2,47.2c-2.6-5-7.9-8.4-13.9-8.4H58.8c0.1-0.6,0.2-1.3,0.2-2c0-4-2.7-7.4-6.3-8.6c0.3-3.8-1-7.6-3.6-10.4
	c-0.8-0.8-2-0.8-2.8-0.1s-0.8,2-0.1,2.8c1.9,2,2.8,4.7,2.6,7.4c-4.4,0.6-7.7,4.4-7.7,8.9c0,0.7,0.1,1.4,0.2,2H29
	c-6,0-11.3,3.3-14,8.3c-4.6,2.5-8,6.8-9.4,12c-0.1,0.2-0.1,0.3-0.1,0.5C5.2,60.9,5,62.4,5,63.8c0,10.5,8.5,19,19,19h52
	c10.5,0,19-8.5,19-19C95,56.7,91,50.4,85.2,47.2z M50,31.8c2.8,0,5,2.2,5,5s-2.2,5-5,5s-5-2.2-5-5S47.2,31.8,50,31.8z M17,54.8
	c0-6.6,5.4-12,12-12h14.3c1.7,1.8,4,3,6.7,3s5-1.2,6.7-3h14.6c6.5,0,11.7,5.3,11.7,11.7v0.3c0,2.2-1.8,4-4,4h-0.1
	c-1,0-1.9-0.8-1.9-1.9c0-3.4-2.8-6.1-6.2-6.1H70c-3.9,0-7,3.1-7,7c0,1.6-1.3,3-3,3s-3-1.4-3-3c0-3.9-3.1-7-7-7s-7,3.1-7,7
	c0,1.6-1.3,3-3,3s-3-1.4-3-3c0-3.9-3.1-7-7-7s-7,3.1-7,7v1c0,1.1-0.9,2-2,2c-2.2,0-4-1.8-4-4V54.8z M13.1,53.6
	c0,0.4-0.1,0.8-0.1,1.2v2c0,4.4,3.6,8,8,8c3.3,0,6-2.7,6-6v-1c0-1.7,1.3-3,3-3s3,1.3,3,3c0,3.9,3.1,7,7,7s7-3.1,7-7c0-1.7,1.3-3,3-3
	s3,1.3,3,3c0,3.9,3.1,7,7,7s7-3.1,7-7c0-1.7,1.3-3,3-3h0.8c1.2,0,2.2,1,2.2,2.1c0,3.2,2.6,5.9,5.9,5.9H79c4.4,0,8-3.6,8-8v-0.3
	c0-0.3,0-0.6,0-0.9c1.6,1.8,2.8,3.9,3.5,6.2c-1.8,6.5-7.7,11-14.5,11H24c-6.8,0-12.7-4.5-14.4-11C10.2,57.5,11.4,55.3,13.1,53.6z
	 M76,78.8H24c-6.7,0-12.4-4.4-14.3-10.5c3.5,4,8.6,6.5,14.3,6.5h52c5.6,0,10.8-2.5,14.3-6.5C88.4,74.4,82.7,78.8,76,78.8z"/>
</svg>
