<?xml version="1.0" encoding="utf-8"?>
<!-- Generator: Adobe Illustrator 21.0.2, SVG Export Plug-In . SVG Version: 6.00 Build 0)  -->
<svg version="1.1" id="Layer_1" xmlns="http://www.w3.org/2000/svg" xmlns:xlink="http://www.w3.org/1999/xlink" x="0px" y="0px"
	 viewBox="0 0 100 100" style="enable-background:new 0 0 100 100;" xml:space="preserve">
<g>
	<path d="M76,72.3H24c-5.7,0-10.9-2.5-14.4-6.6C11.5,73,18.1,78.3,26,78.3h48c7.9,0,14.5-5.4,16.4-12.7C86.9,69.8,81.7,72.3,76,72.3
		z"/>
	<path d="M86.9,50.3C87,50.8,87,51.4,87,52v0.3c0,2.1-0.8,4.1-2.2,5.5c-1.5,1.5-3.5,2.5-5.8,2.5h-0.1c-2,0-3.8-1-4.9-2.6
		c-0.6-0.9-1-2.1-1-3.3c0-1.2-1-2.1-2.2-2.1H70c-1.7,0-3,1.3-3,3c0,0.8-0.2,1.6-0.4,2.4c-1,2.7-3.5,4.6-6.6,4.6c-3,0-5.7-2-6.6-4.7
		c-0.3-0.7-0.4-1.5-0.4-2.3c0-1.7-1.3-3-3-3s-3,1.3-3,3c0,0.8-0.1,1.5-0.4,2.2c-0.9,2.8-3.5,4.8-6.6,4.8c-3.1,0-5.7-2-6.7-4.8
		c-0.2-0.7-0.3-1.4-0.3-2.2c0-1.7-1.3-3-3-3s-3,1.3-3,3v1c0,0.4,0,0.8-0.1,1.1c-0.5,2.8-3,4.9-5.9,4.9c-3.3,0-6.2-2-7.4-5
		c-0.4-0.9-0.6-2-0.6-3v-2c0-0.7,0.1-1.4,0.2-2.1c-1.7,2-3,4.4-3.6,7c0,0,0,0.1,0,0.1c1.8,6.5,7.7,11,14.5,11h52
		c6.5,0,12.3-4.3,14.3-10.5c0.1-0.2,0.1-0.3,0.2-0.5c0,0,0-0.1,0-0.1C89.8,54.6,88.6,52.2,86.9,50.3z"/>
	<path d="M21,58.3c1.1,0,2-0.9,2-2v-1c0-3.9,3.1-7,7-7s7,3.1,7,7c0,1.6,1.3,3,3,3s3-1.4,3-3c0-3.9,3.1-7,7-7s7,3.1,7,7
		c0,1.6,1.3,3,3,3s3-1.4,3-3c0-3.9,3.1-7,7-7h0.8c3.4,0,6.2,2.8,6.2,6.1c0,1,0.8,1.9,1.9,1.9H79c2.2,0,4-1.8,4-4V52
		c0-6.5-5.3-11.7-11.7-11.7h-15c0.4-0.9,0.7-1.9,0.7-3c0-0.3,0-0.7-0.1-1c-0.3-2.5-2-4.5-4.2-5.5c-0.2-3.2-1.4-6.2-3.7-8.6
		c-0.8-0.8-2-0.8-2.8-0.1s-0.8,2-0.1,2.8c1.4,1.5,2.3,3.4,2.5,5.4c-2.9,0.5-5.2,2.9-5.6,5.9c0,0.3-0.1,0.7-0.1,1
		c0,1.1,0.2,2.1,0.7,3H29c-6.6,0-12,5.4-12,12v2C17,56.5,18.8,58.3,21,58.3z"/>
</g>
</svg>
