<?xml version="1.0" encoding="utf-8"?>
<!-- Generator: Adobe Illustrator 21.0.2, SVG Export Plug-In . SVG Version: 6.00 Build 0)  -->
<svg version="1.1" id="Layer_1" xmlns="http://www.w3.org/2000/svg" xmlns:xlink="http://www.w3.org/1999/xlink" x="0px" y="0px"
	 viewBox="0 0 100 100" style="enable-background:new 0 0 100 100;" xml:space="preserve">
<g>
	<path d="M77.5,15h-8c-0.6,0-1.2,0.3-1.6,0.8l-6,8c-0.5,0.6-0.5,1.4-0.2,2.1c0.3,0.7,1,1.1,1.8,1.1h14c1.1,0,2-0.9,2-2v-8
		C79.5,15.9,78.6,15,77.5,15z M75.5,23h-8l3-4h5V23z"/>
	<path d="M83.5,5H66.4c-1.8,0-3.5,0.8-4.6,2.2L49.2,22.3c-0.4,0.5-0.9,0.7-1.5,0.7h-9.6c-1.5,0-2.9,0.5-4,1.5l-1,0.9l-4.9-5.2
		c-0.4-0.4-0.9-0.6-1.4-0.6c-0.6,0-1.1,0.2-1.4,0.5l-0.8,0.7l-4.5-4.8c-0.4-0.4-0.9-0.6-1.4-0.6c-0.5,0-1,0.2-1.4,0.5l-6.2,5.8
		c-0.4,0.4-0.6,0.9-0.6,1.4c0,0.5,0.2,1,0.5,1.4l4.5,4.8l-1.4,1.4c-0.8,0.8-0.8,2-0.1,2.8l4.5,4.8l-1,0.9c-1.3,1.1-2,2.8-2,4.5V85
		c0,5.5,4.5,10,10,10h54c5.5,0,10-4.5,10-10V11C89.5,7.7,86.8,5,83.5,5z M15.3,23.4l3.3-3.1l3.1,3.3l-3.3,3.1L15.3,23.4z M18.3,32.4
		l8.4-7.9l3.1,3.3l-8.4,7.9L18.3,32.4z M85.5,85c0,3.3-2.7,6-6,6h-54c-3.3,0-6-2.7-6-6V43.8c0-0.6,0.2-1.1,0.7-1.5l16.5-14.8
		c0.4-0.3,0.8-0.5,1.3-0.5h9.6c1.8,0,3.5-0.8,4.6-2.2L64.9,9.7C65.2,9.3,65.8,9,66.4,9h17.1c1.1,0,2,0.9,2,2V85z"/>
	<path d="M52.5,35c-13.8,0-25,11.2-25,25c0,13.8,11.2,25,25,25s25-11.2,25-25C77.5,46.2,66.3,35,52.5,35z M52.5,81
		c-11.6,0-21-9.4-21-21c0-11.6,9.4-21,21-21s21,9.4,21,21C73.5,71.6,64.1,81,52.5,81z"/>
	<path d="M53.9,45.3c-0.8-0.8-2-0.8-2.8,0l-5.7,5.7c-3.9,3.9-3.9,10.2,0,14.1l5.1,5.1V73c0,1.1,0.9,2,2,2s2-0.9,2-2v-2.9l5.1-5.1
		c3.9-3.9,3.9-10.2,0-14.1L53.9,45.3z M56.8,62.2l-2.2,2.2V59c0-1.1-0.9-2-2-2s-2,0.9-2,2v5.5l-2.2-2.2c-2.3-2.3-2.3-6.1,0-8.5
		l4.2-4.2l4.2,4.2C59.1,56.1,59.1,59.9,56.8,62.2z"/>
</g>
</svg>
