<?xml version="1.0" encoding="utf-8"?>
<!-- Generator: Adobe Illustrator 21.0.2, SVG Export Plug-In . SVG Version: 6.00 Build 0)  -->
<svg version="1.1" id="Layer_1" xmlns="http://www.w3.org/2000/svg" xmlns:xlink="http://www.w3.org/1999/xlink" x="0px" y="0px"
	 viewBox="0 0 100 100" style="enable-background:new 0 0 100 100;" xml:space="preserve">
<g>
	<path d="M11.3,22.3c0-2.9,1.1-5.7,3.2-7.8s4.8-3.2,7.8-3.2c2.9,0,5.7,1.1,7.8,3.2c0.8,0.8,1.4,1.6,1.9,2.5l4.2-0.4
		c-0.7-1.8-1.8-3.5-3.3-5C30,8.8,26.3,7.3,22.3,7.3c-4,0-7.8,1.6-10.6,4.4c-2.8,2.8-4.4,6.6-4.4,10.6c0,4,1.6,7.8,4.4,10.6
		c1.4,1.4,3.1,2.5,5,3.3l0.4-4.2c-0.9-0.5-1.8-1.1-2.5-1.9C12.4,28,11.3,25.2,11.3,22.3z"/>
	<path d="M39.9,39.9c6.2-6.2,14.9-8.5,23-6.7L50.4,20.7c-0.8-0.8-1.8-1.2-2.8-1.2c-0.1,0-0.2,0-0.4,0l-10.1,1
		c0.4,3.9-0.6,7.8-3,10.8l1.5,1.5c0.8,0.8,0.8,2,0,2.8c-0.4,0.4-0.9,0.6-1.4,0.6c-0.5,0-1-0.2-1.4-0.6L30,32.9c0,0,0,0,0,0L27.2,30
		c-0.8-0.8-0.8-2,0-2.8c0.8-0.8,2-0.8,2.8,0l1.3,1.3c1.5-2.2,2.2-4.9,1.9-7.6l-7.9,0.8c-1.9,0.2-3.4,1.7-3.6,3.6l-2.1,22
		c-0.1,1.2,0.3,2.4,1.1,3.2l12.5,12.5C31.5,54.9,33.7,46.2,39.9,39.9z"/>
	<path d="M91.6,61.9l-9.5-9.5c0.4,1.7,0.5,3.5,0.5,5.2c0,6.7-2.6,13-7.3,17.7c-4.7,4.7-11,7.3-17.7,7.3c-1.8,0-3.5-0.2-5.2-0.5
		l9.5,9.5c1.6,1.6,4.1,1.6,5.7,0l24-24C93.1,66,93.1,63.4,91.6,61.9z"/>
	<path d="M72.5,72.5c4-4,6.2-9.2,6.2-14.8s-2.2-10.9-6.2-14.9c-4.1-4.1-9.5-6.1-14.8-6.1s-10.8,2-14.8,6.1c-8.2,8.2-8.2,21.5,0,29.7
		c4,4,9.2,6.2,14.8,6.2S68.5,76.4,72.5,72.5z M46.2,56.2v-8c0-1.1,0.9-2,2-2h8c5.5,0,10,4.5,10,10v7.2l2,2c0.8,0.8,0.8,2.1,0,2.8
		c-0.4,0.4-0.9,0.6-1.4,0.6c-0.5,0-1-0.2-1.4-0.6l-2-2h-7.2C50.7,66.2,46.2,61.7,46.2,56.2z"/>
	<path d="M56.2,50.2h-6v6c0,3.3,2.7,6,6,6h3.2l-3.9-3.9c-0.8-0.8-0.8-2,0-2.8c0.8-0.8,2-0.8,2.8,0l3.9,3.9v-3.2
		C62.2,52.9,59.5,50.2,56.2,50.2z"/>
</g>
</svg>
