<?xml version="1.0" encoding="utf-8"?>
<!-- Generator: Adobe Illustrator 21.0.2, SVG Export Plug-In . SVG Version: 6.00 Build 0)  -->
<svg version="1.1" id="Layer_1" xmlns="http://www.w3.org/2000/svg" xmlns:xlink="http://www.w3.org/1999/xlink" x="0px" y="0px"
	 viewBox="0 0 100 100" style="enable-background:new 0 0 100 100;" xml:space="preserve">
<g>
	<path d="M92.4,57L73.3,37.9l-22-22c-1.7-1.7-4-2.5-6.4-2.3l-10.7,1c-0.7-1.8-1.8-3.5-3.3-5C28,6.8,24.3,5.3,20.3,5.3
		c-4,0-7.8,1.6-10.6,4.4c-2.8,2.8-4.4,6.6-4.4,10.6c0,4,1.6,7.8,4.4,10.6c1.4,1.4,3.1,2.5,5,3.3l-1,10.7c-0.2,2.4,0.6,4.7,2.3,6.4
		l22,22L57,92.4c1.6,1.6,3.6,2.3,5.7,2.3s4.1-0.8,5.7-2.3l24-24C95.5,65.2,95.5,60.2,92.4,57z M15.7,22.9l-0.7,7
		c-0.9-0.5-1.8-1.1-2.5-1.9c-2.1-2.1-3.2-4.8-3.2-7.8c0-2.9,1.1-5.7,3.2-7.8s4.8-3.2,7.8-3.2c2.9,0,5.7,1.1,7.8,3.2
		c0.8,0.8,1.4,1.6,1.9,2.5l-7,0.7C19.1,16,16,19.1,15.7,22.9z M18.7,48.4c-0.8-0.9-1.3-2-1.1-3.2l2.1-22c0.2-1.9,1.7-3.4,3.6-3.6
		l7.9-0.8c0.3,2.6-0.3,5.3-1.8,7.6L28,25.2c-0.8-0.8-2-0.8-2.8,0c-0.8,0.8-0.8,2,0,2.8l2.8,2.8l2.8,2.8c0.4,0.4,0.9,0.6,1.4,0.6
		c0.5,0,1-0.2,1.4-0.6c0.8-0.8,0.8-2.1,0-2.8l-1.5-1.5c2.4-3.1,3.4-7,3-10.8l10.1-1c0.1,0,0.2,0,0.4,0c1.1,0,2.1,0.4,2.8,1.2
		l12.5,12.5c-8-1.7-16.7,0.5-23,6.7c-6.2,6.2-8.5,14.9-6.7,23L18.7,48.4z M34.6,55.6c0-5.4,2-10.8,6.1-14.9
		c4.1-4.1,9.5-6.1,14.8-6.1s10.8,2,14.8,6.1c2,2,3.5,4.3,4.6,6.8c1,2.5,1.6,5.2,1.6,8c0,5.6-2.2,10.9-6.2,14.8
		c-4,4-9.2,6.2-14.8,6.2s-10.9-2.2-14.8-6.2C36.7,66.4,34.6,61,34.6,55.6z M89.6,65.5l-24,24c-1.6,1.6-4.1,1.6-5.7,0l-9.5-9.5
		c1.7,0.4,3.5,0.5,5.2,0.5c6.7,0,13-2.6,17.7-7.3c4.7-4.7,7.3-11,7.3-17.7c0-1.8-0.2-3.5-0.5-5.2l9.5,9.5
		C91.1,61.4,91.1,64,89.6,65.5z"/>
	<path d="M63.4,66.2c0.4,0.4,0.9,0.6,1.4,0.6c0.5,0,1-0.2,1.4-0.6c0.8-0.8,0.8-2,0-2.8l-2-2v-7.2c0-5.5-4.5-10-10-10h-8
		c-1.1,0-2,0.9-2,2v8c0,5.5,4.5,10,10,10h7.2L63.4,66.2z M60.2,57.4l-3.9-3.9c-0.8-0.8-2-0.8-2.8,0c-0.8,0.8-0.8,2,0,2.8l3.9,3.9
		h-3.2c-3.3,0-6-2.7-6-6v-6h6c3.3,0,6,2.7,6,6V57.4z"/>
</g>
</svg>
