<?xml version="1.0" encoding="utf-8"?>
<!-- Generator: Adobe Illustrator 21.0.2, SVG Export Plug-In . SVG Version: 6.00 Build 0)  -->
<svg version="1.1" id="Layer_1" xmlns="http://www.w3.org/2000/svg" xmlns:xlink="http://www.w3.org/1999/xlink" x="0px" y="0px"
	 viewBox="0 0 100 100" style="enable-background:new 0 0 100 100;" xml:space="preserve">
<path d="M89,51v-7C89,22.5,71.5,5,50,5S11,22.5,11,44v7c-3.3,0-6,2.7-6,6v2c0,3.3,2.7,6,6,6h0.5l2.3,8.5l2.7,10l1.9,7
	c0.7,2.6,3.1,4.5,5.8,4.5h51.9c2.7,0,5.1-1.8,5.8-4.5l1.9-7l2.7-10l2.3-8.5H89c3.3,0,6-2.7,6-6v-2C95,53.7,92.3,51,89,51z M15,44
	C15,24.7,30.7,9,50,9s35,15.7,35,35v7h-4.1c0.1-0.7,0.1-1.3,0.1-2c0-8.8-5.4-16-12-16c-2,0-3.9,0.7-5.5,1.8C61,27.8,55.9,23,50,23
	s-11,4.8-13.5,11.8C34.9,33.7,33,33,31,33c-6.6,0-12,7.2-12,16c0,0.7,0,1.3,0.1,2H15V44z M64.6,39.1c1.3-1.3,2.8-2.1,4.4-2.1
	c4.3,0,8,5.5,8,12c0,0.7,0,1.3-0.1,2H64.1c0.6-2.2,0.9-4.5,0.9-7C65,42.3,64.8,40.7,64.6,39.1z M61,44c0,2.5-0.4,4.8-1,7H40
	c-0.7-2.2-1-4.5-1-7c0-9.4,4.9-17,11-17S61,34.6,61,44z M35.9,51H23.1C23,50.3,23,49.7,23,49c0-6.5,3.7-12,8-12
	c1.6,0,3.2,0.8,4.4,2.1C35.2,40.7,35,42.3,35,44C35,46.5,35.3,48.8,35.9,51z M15.6,65h12.8l1.2,6H17.2L15.6,65z M18.3,75h12.1l1.2,6
	H19.9L18.3,75z M24.1,91c-0.9,0-1.7-0.6-1.9-1.5L20.9,85h11.4l1.2,6H24.1z M48,91H37.6l-1.2-6H48V91z M48,81H35.6l-1.2-6H48V81z
	 M48,71H33.6l-1.2-6H48V71z M62.4,91H52v-6h11.6L62.4,91z M64.4,81H52v-6h13.6L64.4,81z M52,71v-6h15.6l-1.2,6H52z M77.9,89.5
	c-0.2,0.9-1,1.5-1.9,1.5h-9.5l1.2-6h11.4L77.9,89.5z M80.1,81H68.4l1.2-6h12.1L80.1,81z M82.8,71H70.4l1.2-6h12.8L82.8,71z M91,59
	c0,1.1-0.9,2-2,2H11c-1.1,0-2-0.9-2-2v-2c0-1.1,0.9-2,2-2h78c1.1,0,2,0.9,2,2V59z"/>
</svg>
