<?xml version="1.0" encoding="utf-8"?>
<!-- Generator: Adobe Illustrator 21.0.2, SVG Export Plug-In . SVG Version: 6.00 Build 0)  -->
<svg version="1.1" id="Layer_1" xmlns="http://www.w3.org/2000/svg" xmlns:xlink="http://www.w3.org/1999/xlink" x="0px" y="0px"
	 viewBox="0 0 100 100" style="enable-background:new 0 0 100 100;" xml:space="preserve">
<g>
	<polygon points="35.3,79 48,79 48,73 34.2,73 	"/>
	<polygon points="33.5,69 48,69 48,63 32.4,63 	"/>
	<polygon points="28.3,63 11.5,63 13.1,69 29.4,69 	"/>
	<path d="M32,83H16.8l1.5,5.5c0.7,2.6,3.1,4.5,5.8,4.5h9.7l-0.7-4L32,83z"/>
	<polygon points="30.2,73 14.1,73 15.7,79 31.2,79 	"/>
	<polygon points="37.1,89 37.8,93 48,93 48,83 36,83 	"/>
	<polygon points="70.6,69 86.9,69 88.5,63 71.7,63 	"/>
	<path d="M66.9,89l-0.7,4h9.7c2.7,0,5.1-1.8,5.8-4.5l1.5-5.5H68L66.9,89z"/>
	<polygon points="67.6,63 52,63 52,69 66.5,69 	"/>
	<polygon points="52,79 64.7,79 65.8,73 52,73 	"/>
	<polygon points="52,93 62.2,93 62.9,89 64,83 52,83 	"/>
	<polygon points="68.8,79 84.3,79 85.9,73 69.8,73 	"/>
	<path d="M35.4,37.1C34.2,35.8,32.6,35,31,35c-4.3,0-8,5.5-8,12c0,0.7,0,1.3,0.1,2h12.8c-0.6-2.2-0.9-4.5-0.9-7
		C35,40.3,35.2,38.7,35.4,37.1z"/>
	<path d="M69,35c-1.6,0-3.2,0.8-4.4,2.1c0.3,1.6,0.4,3.2,0.4,4.9c0,2.5-0.3,4.8-0.9,7h12.8c0.1-0.7,0.1-1.3,0.1-2
		C77,40.5,73.3,35,69,35z"/>
	<path d="M50,25c-6.1,0-11,7.6-11,17c0,2.5,0.4,4.9,1,7h20c0.6-2.1,1-4.5,1-7C61,32.6,56.1,25,50,25z"/>
	<path d="M89,53v-7C89,24.5,71.5,7,50,7S11,24.5,11,46v7c-1.1,0-2,0.9-2,2v2c0,1.1,0.9,2,2,2h78c1.1,0,2-0.9,2-2v-2
		C91,53.9,90.1,53,89,53z M85,53H15v-7c0-19.3,15.7-35,35-35s35,15.7,35,35V53z"/>
</g>
</svg>
