<?xml version="1.0" encoding="utf-8"?>
<!-- Generator: Adobe Illustrator 21.0.2, SVG Export Plug-In . SVG Version: 6.00 Build 0)  -->
<svg version="1.1" id="Layer_1" xmlns="http://www.w3.org/2000/svg" xmlns:xlink="http://www.w3.org/1999/xlink" x="0px" y="0px"
	 viewBox="0 0 100 100" style="enable-background:new 0 0 100 100;" xml:space="preserve">
<g>
	<path d="M95,25c0-5.5-4.5-10-10-10h-4.2c-6.8-6.5-15.6-10-25-10h-0.2c-8.6,0-17,3.1-23.5,8.7l-3.4,2.9c-0.3,0.3-0.7,0.4-1.1,0.5
		l-11.6,1.1C9.7,18.8,5,23.9,5,30.1V43c0,4.4,3.6,8,8,8h2.2c1,5.7,5.9,10,11.8,10s10.9-4.3,11.8-10h22.4c1,5.7,5.9,10,11.8,10
		s10.9-4.3,11.8-10H87c0.6,0,1.2-0.1,1.8-0.2c1.4,2,2.2,4.3,2.2,6.7C91,63.8,85.8,69,79.5,69H22c-5.5,0-10,4.5-10,10s4.5,10,10,10
		h25.3c0.9,3.4,4,6,7.7,6h4c1.1,0,2-0.9,2-2h4c1.1,0,2-0.9,2-2c0-1.1-0.9-2-2-2h-4v-4h4c1.1,0,2-0.9,2-2c0-1.1-0.9-2-2-2h-4
		c0-1.1-0.9-2-2-2h-4c-3.7,0-6.8,2.6-7.7,6H22c-3.3,0-6-2.7-6-6s2.7-6,6-6h57.5C88,73,95,66,95,57.5c0-3.1-0.9-6.1-2.6-8.6
		C94,47.4,95,45.3,95,43V25z M55,83h2v8h-2c-2.2,0-4-1.8-4-4C51,84.8,52.8,83,55,83z M27,57c-4.4,0-8-3.6-8-8c0-4.4,3.6-8,8-8
		s8,3.6,8,8C35,53.4,31.4,57,27,57z M73,57c-4.4,0-8-3.6-8-8c0-4.4,3.6-8,8-8s8,3.6,8,8C81,53.4,77.4,57,73,57z M91,43
		c0,2.2-1.8,4-4,4h-2.2c-1-5.7-5.9-10-11.8-10s-10.9,4.3-11.8,10H38.8c-1-5.7-5.9-10-11.8-10s-10.9,4.3-11.8,10H13c-2.2,0-4-1.8-4-4
		V33h6c1.1,0,2-0.9,2-2c0-1.1-0.9-2-2-2H9.1c0.5-3.6,3.4-6.5,7.2-6.8l11.6-1.1c1.2-0.1,2.4-0.6,3.4-1.4l3.4-3C40.5,11.8,48,9,55.6,9
		h0.2c8.6,0,16.7,3.3,22.7,9.4C79,18.8,79.5,19,80,19h5c2.6,0,4.8,1.7,5.7,4H89c-3.3,0-6,2.7-6,6s2.7,6,6,6h2V43z M91,31h-2
		c-1.1,0-2-0.9-2-2c0-1.1,0.9-2,2-2h2V31z"/>
	<path d="M63.3,26.3l-4.8-0.7l0-9.1c0-0.8-0.5-1.5-1.2-1.8c-0.7-0.3-1.5-0.2-2.1,0.3L40.7,27.2c-0.6,0.5-0.9,1.3-0.6,2.1
		c0.2,0.8,0.9,1.3,1.6,1.4l4.8,0.6l0,9.2c0,0.8,0.5,1.5,1.2,1.8c0.3,0.1,0.6,0.2,0.8,0.2c0.5,0,0.9-0.2,1.3-0.5l14.6-12.2
		c0.6-0.5,0.9-1.3,0.6-2.1C64.8,27,64.1,26.4,63.3,26.3z M50.4,36.2l0-6.6c0-1-0.7-1.8-1.7-2l-2-0.3l7.9-6.6l0,6.6
		c0,1,0.7,1.8,1.7,2l2,0.3L50.4,36.2z"/>
</g>
</svg>
