<?xml version="1.0" encoding="utf-8"?>
<!-- Generator: Adobe Illustrator 21.0.2, SVG Export Plug-In . SVG Version: 6.00 Build 0)  -->
<svg version="1.1" id="Layer_1" xmlns="http://www.w3.org/2000/svg" xmlns:xlink="http://www.w3.org/1999/xlink" x="0px" y="0px"
	 viewBox="0 0 100 100" style="enable-background:new 0 0 100 100;" xml:space="preserve">
<g>
	<path d="M91.7,48.3c-0.7-1.5-1.6-3-2.7-4.2c0,0,0-0.1,0-0.1v-8h-2c-3.3,0-6-2.7-6-6s2.7-6,6-6h1.7c-0.8-2.3-3-4-5.7-4h-5
		c-0.5,0-1-0.2-1.4-0.6C70.5,13.3,62.4,10,53.9,10h-0.2c-7.7,0-15.1,2.8-20.9,7.7l-3.4,3c-1,0.8-2.1,1.3-3.4,1.4l-11.6,1.1
		c-3.8,0.3-6.7,3.2-7.2,6.8H13c1.1,0,2,0.9,2,2c0,1.1-0.9,2-2,2H7v10c0,2.2,1.8,4,4,4h2.2c1-5.7,5.9-10,11.8-10s10.9,4.3,11.8,10
		h22.4c1-5.7,5.9-10,11.8-10s10.9,4.3,11.8,10H85c0.6,0,1.2-0.2,1.7-0.4c0.8,1.1,1.4,2.3,1.8,3.6c0.3,1.1,0.5,2.2,0.5,3.3
		C89,60.8,83.8,66,77.5,66H20c-5.5,0-10,4.5-10,10s4.5,10,10,10h27c0.1,0,0.2,0,0.3,0c0.8,2.3,3,4,5.7,4h8c1.1,0,2-0.9,2-2
		c0-1.1-0.9-2-2-2h-4v-4h4c1.1,0,2-0.9,2-2c0-1.1-0.9-2-2-2h-8c-2.6,0-4.8,1.7-5.7,4c-0.1,0-0.2,0-0.3,0H20c-3.3,0-6-2.7-6-6
		s2.7-6,6-6h57.5C86,70,93,63,93,54.5C93,52.4,92.5,50.3,91.7,48.3z M46.4,41.5l0-10.9l-6.5-0.9l14.6-12.2l0,10.9l6.5,0.9L46.4,41.5
		z"/>
	<path d="M85,30c0,1.1,0.9,2,2,2h2v-4h-2C85.9,28,85,28.9,85,30z"/>
	<path d="M33,50c0-4.4-3.6-8-8-8s-8,3.6-8,8c0,4.4,3.6,8,8,8S33,54.4,33,50z"/>
	<path d="M79,50c0-4.4-3.6-8-8-8s-8,3.6-8,8c0,4.4,3.6,8,8,8S79,54.4,79,50z"/>
</g>
</svg>
