<?xml version="1.0" encoding="utf-8"?>
<!-- Generator: Adobe Illustrator 23.0.1, SVG Export Plug-In . SVG Version: 6.00 Build 0)  -->
<svg version="1.1" id="Layer_1" xmlns="http://www.w3.org/2000/svg" xmlns:xlink="http://www.w3.org/1999/xlink" x="0px" y="0px"
	 viewBox="0 0 100 100" style="enable-background:new 0 0 100 100;" xml:space="preserve">
<style type="text/css">
	.st0{fill:#000000;}
</style>
<path class="st0" d="M93,91h-1.4l-3.6-14.5c-0.1-0.6-0.5-1-1-1.3l-11.7-5.9l-9.8-9.8c-0.5-0.5-1.3-0.7-1.9-0.5L60,60V29h9
	c1.1,0,2-0.9,2-2s-0.9-2-2-2H58h-2v-8V9h2c1.1,0,2-0.9,2-2s-0.9-2-2-2h-4H42h-4c-1.1,0-2,0.9-2,2s0.9,2,2,2h2v8v8h-2H27
	c-1.1,0-2,0.9-2,2s0.9,2,2,2h9v37.7l-8.5,2.4c-0.7,0.2-1.3,0.8-1.4,1.5L24.4,79H19c-0.8,0-1.5,0.4-1.8,1.1L11.8,91H7
	c-1.1,0-2,0.9-2,2s0.9,2,2,2h86c1.1,0,2-0.9,2-2S94.1,91,93,91z M52,9v6h-8V9H52z M44,19h8v6h-8V19z M40,29h2h12h2v32.1l-16,4.4V29z
	 M20.2,83H31c1.1,0,2-0.9,2-2s-0.9-2-2-2h-2.6l1.3-6.4l33.7-9.4l7.4,7.4L63,75.3c-0.9,0.6-1.3,1.8-0.7,2.7c0.6,0.9,1.8,1.3,2.7,0.7
	l9.1-5.4l10.2,5.1L87.4,91H16.2L20.2,83z M50,37v10c0,1.1-0.9,2-2,2s-2-0.9-2-2V37c0-1.1,0.9-2,2-2S50,35.9,50,37z"/>
</svg>
