<?xml version="1.0" encoding="utf-8"?>
<!-- Generator: Adobe Illustrator 21.0.2, SVG Export Plug-In . SVG Version: 6.00 Build 0)  -->
<svg version="1.1" id="Layer_1" xmlns="http://www.w3.org/2000/svg" xmlns:xlink="http://www.w3.org/1999/xlink" x="0px" y="0px"
	 viewBox="0 0 100 100" style="enable-background:new 0 0 100 100;" xml:space="preserve">
<path d="M82,91h-8v-2c0-2.2-1.8-4-4-4h-3.9c0,0,0,0,0,0c2.7-2.7,2.8-7,0.3-9.9L61,68.9l-5.4,6.2C53,78,53.2,82.3,55.9,85
	c0,0,0,0,0,0H52c-2.2,0-4,1.8-4,4v2H30V32.2c2.3-1,4.2-2.9,5.2-5.2H54v6h6c1.1,0,2,0.9,2,2c0,1.1-0.9,2-2,2h-6v4h6c1.1,0,2,0.9,2,2
	c0,1.1-0.9,2-2,2h-6v5c0,3.9,3.1,7,7,7s7-3.1,7-7V27h10c2.2,0,4-1.8,4-4c0-2.2-1.8-4-4-4H68V9h1c1.1,0,2-0.9,2-2c0-1.1-0.9-2-2-2H53
	c-1.1,0-2,0.9-2,2c0,1.1,0.9,2,2,2h1v10H35.2c-1-2.3-2.9-4.2-5.2-5.2V11c0-2.2-1.8-4-4-4s-4,1.8-4,4v2.8c-3.5,1.5-6,5.1-6,9.2
	c0,4.1,2.5,7.6,6,9.2V91h-2c-1.1,0-2,0.9-2,2c0,1.1,0.9,2,2,2h62c1.1,0,2-0.9,2-2C84,91.9,83.1,91,82,91z"/>
</svg>
