<?xml version="1.0" encoding="utf-8"?>
<!-- Generator: Adobe Illustrator 21.0.2, SVG Export Plug-In . SVG Version: 6.00 Build 0)  -->
<svg version="1.1" id="Layer_1" xmlns="http://www.w3.org/2000/svg" xmlns:xlink="http://www.w3.org/1999/xlink" x="0px" y="0px"
	 viewBox="0 0 100 100" style="enable-background:new 0 0 100 100;" xml:space="preserve">
<path d="M82,91h-6v-2c0-3.3-2.7-6-6-6h-1.3c2.3-3.4,2-8-0.7-11.2l-5.5-6.2c-0.8-0.9-2.2-0.9-3,0L54,71.8c-2.8,3.2-3,7.8-0.7,11.2H52
	c-3.3,0-6,2.7-6,6v2H32V31c0.8-0.6,1.4-1.2,2-2h18v21c0,5,4,9,9,9s9-4,9-9V29h8c3.3,0,6-2.7,6-6s-2.7-6-6-6h-8V9h2c1.1,0,2-0.9,2-2
	c0-1.1-0.9-2-2-2H50c-1.1,0-2,0.9-2,2c0,1.1,0.9,2,2,2h2v8H34c-0.6-0.8-1.2-1.4-2-2v-4c0-3.3-2.7-6-6-6s-6,2.7-6,6v4
	c-2.4,1.8-4,4.7-4,8s1.6,6.1,4,8v62c0,1.1,0.9,2,2,2h60c1.1,0,2-0.9,2-2C84,91.9,83.1,91,82,91z M66,50c0,2.8-2.2,5-5,5s-5-2.2-5-5
	v-5h4c1.1,0,2-0.9,2-2c0-1.1-0.9-2-2-2h-4v-4h4c1.1,0,2-0.9,2-2c0-1.1-0.9-2-2-2h-4v-4h10V50z M56,9h10v8H56V9z M35.8,21H78
	c1.1,0,2,0.9,2,2c0,1.1-0.9,2-2,2H35.8c0.1-0.7,0.2-1.3,0.2-2S35.9,21.6,35.8,21z M24,11c0-1.1,0.9-2,2-2s2,0.9,2,2v2.2
	c-0.7-0.1-1.3-0.2-2-0.2s-1.3,0.1-2,0.2V11z M28,91h-4V32.8c0.7,0.1,1.3,0.2,2,0.2s1.3-0.1,2-0.2V91z M26,29c-3.3,0-6-2.7-6-6
	s2.7-6,6-6s6,2.7,6,6S29.3,29,26,29z M57.1,74.4l3.9-4.5l3.9,4.5c1.8,2.1,1.7,5.2-0.2,7.1c-0.5,0.5-1.1,0.9-1.7,1.1V79
	c0-1.1-0.9-2-2-2s-2,0.9-2,2v3.7c-0.6-0.3-1.2-0.6-1.7-1.1C55.4,79.6,55.2,76.5,57.1,74.4z M72,91H50v-2c0-1.1,0.9-2,2-2h18
	c1.1,0,2,0.9,2,2V91z"/>
</svg>
