<?xml version="1.0" encoding="utf-8"?>
<!-- Generator: Adobe Illustrator 21.0.2, SVG Export Plug-In . SVG Version: 6.00 Build 0)  -->
<svg version="1.1" id="Layer_1" xmlns="http://www.w3.org/2000/svg" xmlns:xlink="http://www.w3.org/1999/xlink" x="0px" y="0px"
	 viewBox="0 0 100 100" style="enable-background:new 0 0 100 100;" xml:space="preserve">
<g>
	<path d="M30.6,57.8c1.7,0.2,3.6,0.5,5.6,0.6L40.4,79l1.4,0.6l6.7-7.9c0.8-0.9,2.3-0.9,3,0l6.7,7.9l1.4-0.6l4.2-20.5
		c2-0.2,3.9-0.4,5.6-0.6c6.9-1,9.6-2.4,9.6-4.8c0-2.3-2.2-4.1-13-5.2l1.9-9.1c-2,2-4.8,3.3-7.8,3.3c-1.3,0-2.6-0.2-3.8-0.7
		C54.4,42.4,52.3,43,50,43s-4.4-0.6-6.2-1.7C42.6,41.8,41.3,42,40,42c-3,0-5.8-1.2-7.8-3.3l1.9,9.1c-10.8,1.2-13,2.9-13,5.2
		C21,55.4,23.7,56.8,30.6,57.8z M65.2,51.7c0.1,0,0.1,0,0.2,0c3.7,0.4,6.2,0.9,7.8,1.3c-1.8,0.5-4.6,1-8.5,1.4L65.2,51.7z
		 M34.6,51.7c0.1,0,0.1,0,0.2,0l0.5,2.7c-3.9-0.4-6.7-0.9-8.5-1.4C28.4,52.6,30.9,52.1,34.6,51.7z"/>
	<path d="M93,89H61.7l3.5-8.1l-6.7,2.9c-0.8,0.4-1.8,0.1-2.3-0.5L50,76.1l-6.1,7.2c-0.6,0.7-1.5,0.9-2.3,0.5l-6.7-2.9l3.5,8.1H7
		c-1.1,0-2,0.9-2,2c0,1.1,0.9,2,2,2h86c1.1,0,2-0.9,2-2C95,89.9,94.1,89,93,89z"/>
	<path d="M31.5,30.9c0.8,0.2,1.4,0.8,1.6,1.6c0.7,3.2,3.5,5.6,6.8,5.6c1.1,0,2.2-0.3,3.2-0.8c0.3-0.2,0.6-0.2,0.9-0.2
		c0.5,0,0.9,0.2,1.3,0.5c1.2,1,2.9,1.5,4.7,1.5s3.5-0.5,4.7-1.5c0.6-0.5,1.5-0.6,2.2-0.2c1,0.5,2.1,0.8,3.2,0.8
		c3.3,0,6.2-2.4,6.8-5.6c0.2-0.8,0.8-1.4,1.6-1.6c3.8-0.7,6.5-4,6.5-7.9c0-4-2.8-7.3-6.8-7.9c-0.7-0.1-1.3-0.6-1.6-1.3
		C65.7,10.9,63,9,60,9c-0.9,0-1.8,0.2-2.6,0.5c-0.8,0.3-1.7,0.1-2.2-0.5c-1.1-1.2-3-2-5.2-2c-2.1,0-4,0.8-5.2,2
		c-0.6,0.6-1.5,0.8-2.2,0.5C41.8,9.2,40.9,9,40,9c-3,0-5.7,1.9-6.6,4.8c-0.2,0.7-0.8,1.2-1.6,1.3C27.8,15.7,25,19,25,23
		C25,26.9,27.8,30.2,31.5,30.9z"/>
</g>
</svg>
