<?xml version="1.0" encoding="utf-8"?>
<!-- Generator: Adobe Illustrator 21.0.2, SVG Export Plug-In . SVG Version: 6.00 Build 0)  -->
<svg version="1.1" id="Layer_1" xmlns="http://www.w3.org/2000/svg" xmlns:xlink="http://www.w3.org/1999/xlink" x="0px" y="0px"
	 viewBox="0 0 100 100" style="enable-background:new 0 0 100 100;" xml:space="preserve">
<path d="M93,91H66l4.8-11.2c0.3-0.8,0.1-1.6-0.4-2.2c-0.6-0.6-1.5-0.7-2.2-0.4L61.9,80l4-19.7c1.2-0.1,2.4-0.3,3.5-0.4
	c6.9-1,9.6-2.4,9.6-4.8c0-2.2-2-3.9-11-5l2.8-13.6C75.6,34.8,79,30.2,79,25c0-5.6-3.7-10.3-9-11.6C68.2,9.5,64.3,7,60,7
	c-1,0-1.9,0.1-2.9,0.4C55.3,5.9,52.7,5,50,5s-5.3,0.9-7.1,2.4C41.9,7.1,41,7,40,7c-4.3,0-8.2,2.5-10,6.4c-5.3,1.3-9,6-9,11.6
	c0,5.2,3.4,9.8,8.2,11.4L32,50c-9.1,1.1-11,2.8-11,5c0,2.4,2.7,3.8,9.6,4.8c1.1,0.2,2.3,0.3,3.5,0.4l4,19.7l-6.3-2.8
	c-0.8-0.3-1.6-0.2-2.2,0.4c-0.6,0.6-0.8,1.5-0.4,2.2L34,91H7c-1.1,0-2,0.9-2,2c0,1.1,0.9,2,2,2h86c1.1,0,2-0.9,2-2
	C95,91.9,94.1,91,93,91z M73.2,55c-1.5,0.4-3.6,0.8-6.4,1.1l0.5-2.2C69.9,54.3,71.9,54.7,73.2,55z M26.8,55c1.3-0.3,3.2-0.7,6-1.1
	l0.5,2.2C30.5,55.8,28.3,55.4,26.8,55z M33.2,34.4c-0.2-0.8-0.8-1.4-1.6-1.6c-3.8-0.7-6.5-4-6.5-7.9c0-4,2.8-7.3,6.8-7.9
	c0.7-0.1,1.3-0.6,1.6-1.3c1-2.8,3.6-4.8,6.6-4.8c0.9,0,1.8,0.2,2.6,0.5c0.8,0.3,1.7,0.1,2.2-0.5C46,9.8,47.9,9,50,9
	c2.1,0,4,0.7,5.2,2c0.6,0.6,1.5,0.8,2.2,0.5c0.8-0.3,1.7-0.5,2.6-0.5c3,0,5.7,1.9,6.6,4.8c0.2,0.7,0.8,1.2,1.6,1.3
	C72.2,17.7,75,21,75,25c0,3.9-2.8,7.2-6.5,7.9c-0.8,0.2-1.4,0.8-1.6,1.6C66.2,37.6,63.3,40,60,40c-1.1,0-2.2-0.3-3.2-0.8
	c-0.7-0.4-1.6-0.3-2.2,0.2c-1.2,1-2.9,1.5-4.7,1.5s-3.5-0.5-4.7-1.5C45,39.2,44.5,39,44.1,39c-0.3,0-0.6,0.1-0.9,0.2
	c-1,0.5-2.1,0.8-3.2,0.8C36.7,40,33.8,37.6,33.2,34.4z M37.4,56.5l-2.9-14C36.2,43.5,38,44,40,44c1.3,0,2.6-0.2,3.8-0.7
	c1.8,1.1,3.9,1.7,6.2,1.7s4.4-0.6,6.2-1.7c1.2,0.5,2.5,0.7,3.8,0.7c2,0,3.8-0.5,5.4-1.5l-2.9,14C59.1,56.8,54.9,57,50,57
	S40.9,56.8,37.4,56.5z M61.7,60.6l-4.1,20.2l-6.1-7.1c-0.8-0.9-2.3-0.9-3,0l-6.1,7.1l-4.1-20.2C41.9,60.9,45.9,61,50,61
	S58.1,60.9,61.7,60.6z M61.7,91H38.3l-3.5-8.1l6.7,2.9c0.8,0.4,1.8,0.1,2.3-0.5l6.1-7.2l6.1,7.2c0.6,0.7,1.5,0.9,2.3,0.5l6.7-2.9
	L61.7,91z"/>
</svg>
