<?xml version="1.0" encoding="utf-8"?>
<!-- Generator: Adobe Illustrator 21.0.2, SVG Export Plug-In . SVG Version: 6.00 Build 0)  -->
<svg version="1.1" id="Layer_1" xmlns="http://www.w3.org/2000/svg" xmlns:xlink="http://www.w3.org/1999/xlink" x="0px" y="0px"
	 viewBox="0 0 100 100" style="enable-background:new 0 0 100 100;" xml:space="preserve">
<g>
	<path d="M83,31.8h-2.3c-0.6-1.8-2-3.2-3.9-3.8l-26.2-8.1c-0.4-0.1-0.8-0.1-1.2,0L23.2,28c-1.9,0.6-3.3,2-3.9,3.8H17
		c-6.6,0-12,5.4-12,12s5.4,12,12,12h2v0.1c0,1.8,0.8,3.5,2.2,4.6L41.1,77c2.6,2.1,5.8,3.2,8.9,3.2s6.3-1.1,8.9-3.2l19.9-16.5
		c1.4-1.1,2.2-2.8,2.2-4.6v-0.1h2c6.6,0,12-5.4,12-12S89.6,31.8,83,31.8z M19,51.8h-2c-4.4,0-8-3.6-8-8c0-4.4,3.6-8,8-8h2V51.8z
		 M77,55.9c0,0.6-0.3,1.2-0.7,1.5L56.4,73.9c-3.7,3.1-9.1,3.1-12.8,0L23.7,57.4c-0.5-0.4-0.7-0.9-0.7-1.5V33.7
		c0-0.9,0.6-1.7,1.4-1.9l25.6-8l25.6,8c0.8,0.3,1.4,1,1.4,1.9V55.9z M83,51.8h-2v-16h2c4.4,0,8,3.6,8,8C91,48.2,87.4,51.8,83,51.8z"
		/>
	<path d="M45.4,31.4l-17,5c-1.1,0.3-1.7,1.4-1.4,2.5c0.3,0.9,1,1.4,1.9,1.4c0.2,0,0.4,0,0.6-0.1l17-5c1.1-0.3,1.7-1.4,1.4-2.5
		S46.5,31.1,45.4,31.4z"/>
	<path d="M71.6,36.4l-17-5c-1-0.3-2.2,0.3-2.5,1.4s0.3,2.2,1.4,2.5l17,5c0.2,0,0.4,0.1,0.6,0.1c0.9,0,1.7-0.6,1.9-1.4
		C73.2,37.8,72.6,36.7,71.6,36.4z"/>
	<path d="M50,43.8c-1.1,0-2,0.9-2,2v20c0,1.1,0.9,2,2,2s2-0.9,2-2v-20C52,44.7,51.1,43.8,50,43.8z"/>
</g>
</svg>
