<?xml version="1.0" encoding="utf-8"?>
<!-- Generator: Adobe Illustrator 21.0.2, SVG Export Plug-In . SVG Version: 6.00 Build 0)  -->
<svg version="1.1" id="Layer_1" xmlns="http://www.w3.org/2000/svg" xmlns:xlink="http://www.w3.org/1999/xlink" x="0px" y="0px"
	 viewBox="0 0 100 100" style="enable-background:new 0 0 100 100;" xml:space="preserve">
<path d="M83,31.8h-4.5c-0.5-0.9-1.3-1.6-2.3-1.9L50,21.8l-26.2,8.1c-1,0.3-1.8,1-2.3,1.9H17c-6.6,0-12,5.4-12,12s5.4,12,12,12h4v0.1
	c0,1.2,0.5,2.3,1.5,3.1l19.9,16.5c4.4,3.7,10.9,3.7,15.3,0L77.5,59c0.9-0.8,1.5-1.9,1.5-3.1v-0.1h4c6.6,0,12-5.4,12-12
	S89.6,31.8,83,31.8z M21,51.8h-4c-4.4,0-8-3.6-8-8c0-4.4,3.6-8,8-8h4V51.8z M46.6,35.2l-17,5c-0.2,0-0.4,0.1-0.6,0.1
	c-0.9,0-1.7-0.6-1.9-1.4c-0.3-1.1,0.3-2.2,1.4-2.5l17-5c1.1-0.3,2.2,0.3,2.5,1.4S47.6,34.9,46.6,35.2z M52,65.8c0,1.1-0.9,2-2,2
	s-2-0.9-2-2v-20c0-1.1,0.9-2,2-2s2,0.9,2,2V65.8z M72.9,38.8c-0.3,0.9-1,1.4-1.9,1.4c-0.2,0-0.4,0-0.6-0.1l-17-5
	c-1.1-0.3-1.7-1.4-1.4-2.5s1.4-1.7,2.5-1.4l17,5C72.6,36.7,73.2,37.8,72.9,38.8z M83,51.8h-4v-16h4c4.4,0,8,3.6,8,8
	C91,48.2,87.4,51.8,83,51.8z"/>
</svg>
