<?xml version="1.0" encoding="utf-8"?>
<!-- Generator: Adobe Illustrator 21.0.2, SVG Export Plug-In . SVG Version: 6.00 Build 0)  -->
<svg version="1.1" id="Layer_1" xmlns="http://www.w3.org/2000/svg" xmlns:xlink="http://www.w3.org/1999/xlink" x="0px" y="0px"
	 viewBox="0 0 100 100" style="enable-background:new 0 0 100 100;" xml:space="preserve">
<g>
	<polygon points="30,25 20,25 19.1,33 30.9,33 	"/>
	<polygon points="43,41 53,41 52,35 44,35 	"/>
	<rect x="24" y="69" width="8" height="8"/>
	<rect x="46" y="69" width="8" height="8"/>
	<rect x="68" y="69" width="8" height="8"/>
	<path d="M25,17c1.1,0,2-0.9,2-2v-2c0-2.2,1.8-4,4-4h28c1.1,0,2-0.9,2-2s-0.9-2-2-2H31c-4.4,0-8,3.6-8,8v2C23,16.1,23.9,17,25,17z"
		/>
	<path d="M69,19c1.1,0,2-0.9,2-2s-0.9-2-2-2H54c-4.4,0-8,3.6-8,8v2c0,1.1,0.9,2,2,2s2-0.9,2-2v-2c0-2.2,1.8-4,4-4H69z"/>
	<path d="M67,9h12c1.1,0,2-0.9,2-2s-0.9-2-2-2H67c-1.1,0-2,0.9-2,2S65.9,9,67,9z"/>
	<path d="M75,17c0,1.1,0.9,2,2,2h8c1.1,0,2-0.9,2-2s-0.9-2-2-2h-8C75.9,15,75,15.9,75,17z"/>
	<circle cx="87" cy="7" r="2"/>
	<circle cx="93" cy="17" r="2"/>
	<path d="M93,91h-5V57c0-2.2-1.8-4-4-4h-1V35L62,53h-7l-1.3-8H42.3L41,53h-8l-1.7-16c-0.1,0-0.2,0-0.3,0H19c-0.1,0-0.2,0-0.3,0
		L17,53h-1c-2.2,0-4,1.8-4,4v34H7c-1.1,0-2,0.9-2,2c0,1.1,0.9,2,2,2h86c1.1,0,2-0.9,2-2C95,91.9,94.1,91,93,91z M36,79
		c0,1.1-0.9,2-2,2H22c-1.1,0-2-0.9-2-2V67c0-1.1,0.9-2,2-2h12c1.1,0,2,0.9,2,2V79z M58,79c0,1.1-0.9,2-2,2H44c-1.1,0-2-0.9-2-2V67
		c0-1.1,0.9-2,2-2h12c1.1,0,2,0.9,2,2V79z M80,79c0,1.1-0.9,2-2,2H66c-1.1,0-2-0.9-2-2V67c0-1.1,0.9-2,2-2h12c1.1,0,2,0.9,2,2V79z"
		/>
</g>
</svg>
