<?xml version="1.0" encoding="utf-8"?>
<!-- Generator: Adobe Illustrator 21.0.2, SVG Export Plug-In . SVG Version: 6.00 Build 0)  -->
<svg version="1.1" id="Layer_1" xmlns="http://www.w3.org/2000/svg" xmlns:xlink="http://www.w3.org/1999/xlink" x="0px" y="0px"
	 viewBox="0 0 100 100" style="enable-background:new 0 0 100 100;" xml:space="preserve">
<g>
	<path d="M34,65H22c-1.1,0-2,0.9-2,2v12c0,1.1,0.9,2,2,2h12c1.1,0,2-0.9,2-2V67C36,65.9,35.1,65,34,65z M32,77h-8v-8h8V77z"/>
	<path d="M56,65H44c-1.1,0-2,0.9-2,2v12c0,1.1,0.9,2,2,2h12c1.1,0,2-0.9,2-2V67C58,65.9,57.1,65,56,65z M54,77h-8v-8h8V77z"/>
	<path d="M78,65H66c-1.1,0-2,0.9-2,2v12c0,1.1,0.9,2,2,2h12c1.1,0,2-0.9,2-2V67C80,65.9,79.1,65,78,65z M76,77h-8v-8h8V77z"/>
	<path d="M25,17c1.1,0,2-0.9,2-2v-2c0-2.2,1.8-4,4-4h28c1.1,0,2-0.9,2-2s-0.9-2-2-2H31c-4.4,0-8,3.6-8,8v2C23,16.1,23.9,17,25,17z"
		/>
	<path d="M54,15c-4.4,0-8,3.6-8,8v2c0,1.1,0.9,2,2,2s2-0.9,2-2v-2c0-2.2,1.8-4,4-4h15c1.1,0,2-0.9,2-2s-0.9-2-2-2H54z"/>
	<path d="M67,9h12c1.1,0,2-0.9,2-2s-0.9-2-2-2H67c-1.1,0-2,0.9-2,2S65.9,9,67,9z"/>
	<path d="M75,17c0,1.1,0.9,2,2,2h8c1.1,0,2-0.9,2-2s-0.9-2-2-2h-8C75.9,15,75,15.9,75,17z"/>
	<circle cx="87" cy="7" r="2"/>
	<circle cx="93" cy="17" r="2"/>
	<path d="M93,91h-3V57c0-3-2.2-5.4-5-5.9V35c0-0.8-0.5-1.5-1.2-1.8c-0.7-0.3-1.6-0.2-2.1,0.3L61.3,51h-4.6L54,34.7
		c-0.2-1-1-1.7-2-1.7h-8c-1,0-1.8,0.7-2,1.7L39.3,51h-4.5L32,24.8c-0.1-1-1-1.8-2-1.8H20c-1,0-1.9,0.8-2,1.8l-2.8,26.3
		C12.3,51.5,10,54,10,57v34H7c-1.1,0-2,0.9-2,2c0,1.1,0.9,2,2,2h86c1.1,0,2-0.9,2-2C95,91.9,94.1,91,93,91z M81,39.3V51H67.4
		L81,39.3z M45.7,37h4.6l0.7,4H45L45.7,37z M44.4,45h7.3l1,6h-9.3L44.4,45z M21.8,27h6.4l0.6,6h-7.7L21.8,27z M20.7,37h8.5l1.5,14
		H19.2L20.7,37z M86,91H14V57c0-1.1,0.9-2,2-2h68c1.1,0,2,0.9,2,2V91z"/>
</g>
</svg>
