<?xml version="1.0" encoding="utf-8"?>
<!-- Generator: Adobe Illustrator 23.0.1, SVG Export Plug-In . SVG Version: 6.00 Build 0)  -->
<svg version="1.1" id="Layer_1" xmlns="http://www.w3.org/2000/svg" xmlns:xlink="http://www.w3.org/1999/xlink" x="0px" y="0px"
	 viewBox="0 0 100 100" style="enable-background:new 0 0 100 100;" xml:space="preserve">
<path d="M48,9c0-1.1,0.9-2,2-2s2,0.9,2,2c0,1.1-0.9,2-2,2S48,10.1,48,9z M43,86.2l-3.4,3.4c-0.8,0.8-0.8,2,0,2.8
	C40,92.8,40.5,93,41,93s1-0.2,1.4-0.6l4-4C46.8,88,47,87.5,47,87v-8h-4V86.2z M57,86.2V79h-4v8c0,0.5,0.2,1,0.6,1.4l4,4
	C58,92.8,58.5,93,59,93s1-0.2,1.4-0.6c0.8-0.8,0.8-2,0-2.8L57,86.2z M69,43h-7c0,0.1,0,0.1,0,0.2l-0.8,4.8
	c7,3.9,11.5,11.2,11.8,19.2c3.1,1.2,6.5,1.9,10,1.9h8v-4C91,52.9,81.1,43,69,43z M38.8,47.9L38,43.2c0-0.1,0-0.1,0-0.2h-7
	C18.9,43,9,52.9,9,65v4h8c3.5,0,6.9-0.7,10-1.9C27.3,59.2,31.8,51.8,38.8,47.9z M29,39h9c0.4-2.1,1.3-4,2.7-5.7c0.9-1,1.9-1.9,3-2.5
	c-1.5-1.3-2.7-3-3.3-5c-2.9-3-6.9-4.8-11.4-4.8H13v2C13,31.8,20.2,39,29,39z M59.3,33.3c1.4,1.7,2.3,3.6,2.7,5.7h9
	c8.8,0,16-7.2,16-16v-2H71c-4.5,0-8.5,1.8-11.4,4.8c-0.6,2-1.7,3.7-3.3,5C57.4,31.4,58.4,32.3,59.3,33.3z M58.1,50.8
	c-0.8-0.4-1.3-1.2-1.1-2.1l1-6.2c0.4-2.4-0.3-4.8-1.8-6.6C54.7,34,52.4,33,50,33c-2.4,0-4.7,1-6.2,2.9c-1.6,1.8-2.2,4.2-1.8,6.6
	l1,6.2c0.2,0.9-0.3,1.8-1.1,2.1C35.3,54,31,60.7,31,68v7h38v-7C69,60.7,64.7,54,58.1,50.8z M50,29c3.3,0,6-2.7,6-6v-2
	c0-3.3-2.7-6-6-6s-6,2.7-6,6v2C44,26.3,46.7,29,50,29z"/>
</svg>
