<?xml version="1.0" encoding="utf-8"?>
<!-- Generator: Adobe Illustrator 23.0.1, SVG Export Plug-In . SVG Version: 6.00 Build 0)  -->
<svg version="1.1" id="Layer_1" xmlns="http://www.w3.org/2000/svg" xmlns:xlink="http://www.w3.org/1999/xlink" x="0px" y="0px"
	 viewBox="0 0 100 100" style="enable-background:new 0 0 100 100;" xml:space="preserve">
<style type="text/css">
	.st0{fill:#000000;}
</style>
<path class="st0" d="M89,70.1l-6.3-7.8c-1.1-1.4-2.9-2.2-4.7-2.2H54c-1.5,0-2.9,0.6-4,1.5c-1.1-1-2.5-1.5-4-1.5H21.9
	c-1.8,0-3.5,0.8-4.7,2.3L11,70.1C8.1,70.6,6,73,6,76v2c0,3.3,2.6,6,5.9,6h28.3c0.9,4.6,5,8,9.8,8c4.8,0,8.9-3.4,9.8-8h28.3
	c3.2,0,5.9-2.7,5.9-6v-2C94,73,91.9,70.6,89,70.1z M54,64h24.1c0.6,0,1.2,0.3,1.6,0.8l4.2,5.2H59.9H52v-4C52,64.9,52.9,64,54,64z
	 M20.4,64.8c0.4-0.5,1-0.8,1.6-0.8H46c1.1,0,2,0.9,2,2v4h-6H16.2L20.4,64.8z M90,78c0,1.1-0.8,2-1.9,2H58c-1.1,0-2,0.9-2,2
	c0,3.3-2.7,6-6,6s-6-2.7-6-6c0-1.1-0.9-2-2-2H11.9c-1,0-1.9-0.9-1.9-2v-2c0-1.1,0.9-2,2-2h30h6v1c0,1.1,0.9,2,2,2s2-0.9,2-2v-1h7.9
	H88c1.1,0,2,0.9,2,2V78z M52,82c0,1.1-0.9,2-2,2s-2-0.9-2-2c0-1.1,0.9-2,2-2S52,80.9,52,82z M20,54h20c1.1,0,2-0.9,2-2V40
	c0-4.4,3.6-8,8-8s8,3.6,8,8v12c0,1.1,0.9,2,2,2h20c1.1,0,2-0.9,2-2V40C82,22.4,67.6,8,50,8C32.4,8,18,22.4,18,40v12
	C18,53.1,18.9,54,20,54z M50,28c-6.6,0-12,5.4-12,12v10h-6V40c0-9.9,8.1-18,18-18c9.9,0,18,8.1,18,18v10h-6V40
	C62,33.4,56.6,28,50,28z M22,40c0-15.4,12.6-28,28-28s28,12.6,28,28v10h-6V40c0-12.1-9.9-22-22-22s-22,9.9-22,22v10h-6V40z"/>
</svg>
