<?xml version="1.0" encoding="utf-8"?>
<!-- Generator: Adobe Illustrator 23.0.1, SVG Export Plug-In . SVG Version: 6.00 Build 0)  -->
<svg version="1.1" id="Layer_1" xmlns="http://www.w3.org/2000/svg" xmlns:xlink="http://www.w3.org/1999/xlink" x="0px" y="0px"
	 viewBox="0 0 100 100" style="enable-background:new 0 0 100 100;" xml:space="preserve">
<path d="M79.3,43.1C86.2,40,91,33,91,25v-4c0-1.1-0.9-2-2-2H71c-4.1,0-7.9,1.2-11,3.3c-0.2-3.4-2.2-6.4-5-8c0.6-0.9,1-2.1,1-3.3
	c0-3.3-2.7-6-6-6s-6,2.7-6,6c0,1.2,0.4,2.4,1,3.3c-2.8,1.6-4.8,4.6-5,8c-3.2-2.1-7-3.3-11-3.3H11c-1.1,0-2,0.9-2,2v4
	c0,8,4.8,15,11.7,18.1C11.5,47.2,5,56.3,5,67v6c0,1.1,0.9,2,2,2h10c3.5,0,6.8-0.6,10-1.6V79c0,1.1,0.9,2,2,2h14v7.2l-3.4,3.4
	c-0.8,0.8-0.8,2,0,2.8C40,94.8,40.5,95,41,95s1-0.2,1.4-0.6l4-4C46.8,90,47,89.5,47,89v-8h6v8c0,0.5,0.2,1,0.6,1.4l4,4
	C58,94.8,58.5,95,59,95s1-0.2,1.4-0.6c0.8-0.8,0.8-2,0-2.8L57,88.2V81h14c1.1,0,2-0.9,2-2v-5.6c3.2,1,6.5,1.6,10,1.6h10
	c1.1,0,2-0.9,2-2v-6C95,56.3,88.5,47.2,79.3,43.1z M59.6,27.8c2.9-3,6.9-4.8,11.4-4.8h16v2c0,8.8-7.2,16-16,16h-9
	c-0.4-2.1-1.3-4-2.7-5.7c-0.9-1-1.9-1.9-3-2.5C57.8,31.5,59,29.8,59.6,27.8z M50,9c1.1,0,2,0.9,2,2c0,1.1-0.9,2-2,2s-2-0.9-2-2
	C48,9.9,48.9,9,50,9z M44,23c0-3.3,2.7-6,6-6s6,2.7,6,6v2c0,3.3-2.7,6-6,6s-6-2.7-6-6V23z M13,25v-2h16c4.5,0,8.5,1.8,11.4,4.8
	c0.6,2,1.7,3.7,3.3,5c-1.1,0.7-2.1,1.5-3,2.5C39.3,37,38.4,38.9,38,41h-9C20.2,41,13,33.8,13,25z M27,69.1c-3.1,1.2-6.5,1.9-10,1.9
	H9v-4c0-12.1,9.9-22,22-22h7c0,0.1,0,0.1,0,0.2l0.8,4.8C31.8,53.8,27.3,61.2,27,69.1z M69,77H31v-7c0-7.3,4.3-14,10.9-17.2
	c0.8-0.4,1.3-1.2,1.1-2.1l-1-6.2c-0.4-2.4,0.3-4.8,1.8-6.6C45.3,36,47.6,35,50,35c2.4,0,4.7,1,6.2,2.9c1.6,1.8,2.2,4.2,1.8,6.6
	l-1,6.2c-0.2,0.9,0.3,1.8,1.1,2.1C64.7,56,69,62.7,69,70V77z M91,71h-8c-3.5,0-6.9-0.7-10-1.9c-0.3-8-4.8-15.3-11.8-19.2l0.8-4.8
	c0-0.1,0-0.1,0-0.2h7c12.1,0,22,9.9,22,22V71z"/>
</svg>
