<?xml version="1.0" encoding="utf-8"?>
<!-- Generator: Adobe Illustrator 21.0.2, SVG Export Plug-In . SVG Version: 6.00 Build 0)  -->
<svg version="1.1" id="Layer_1" xmlns="http://www.w3.org/2000/svg" xmlns:xlink="http://www.w3.org/1999/xlink" x="0px" y="0px"
	 viewBox="0 0 100 100" style="enable-background:new 0 0 100 100;" xml:space="preserve">
<g>
	<path d="M93.4,54l-15-2.8l-6.6-13.1c-0.3-0.7-1-1.1-1.8-1.1h-6.8l0.8-5.7c0.1-0.6-0.1-1.2-0.5-1.6S62.6,29,62,29H51.4
		c-2.3-9.7-11-17-21.4-17C17.9,12,8,21.9,8,34c0,9.1,5.6,17,13.6,20.3L21.3,56H7c-1.1,0-2,0.9-2,2c0,1.1,0.9,2,2,2h13.8l-0.6,4H11
		c-1.1,0-2,0.9-2,2c0,1.1,0.9,2,2,2h8.6L19,72h-4c-1.1,0-2,0.9-2,2c0,1.1,0.9,2,2,2h3.4L18,78.7c-0.1,0.6,0.1,1.2,0.5,1.6
		S19.4,81,20,81h9.2c0.9,4,4.5,7,8.8,7s7.9-3,8.8-7h16.5c0.9,4,4.5,7,8.8,7s7.9-3,8.8-7H89c1,0,1.8-0.7,2-1.7l4-23
		C95.2,55.3,94.4,54.2,93.4,54z M62.6,41h6.2l5,10H61.1L62.6,41z M12,34c0-9.9,8.1-18,18-18s18,8.1,18,18s-8.1,18-18,18
		S12,43.9,12,34z M38,84c-2.8,0-5-2.2-5-5s2.2-5,5-5s5,2.2,5,5S40.8,84,38,84z M46.8,77c-0.9-4-4.5-7-8.8-7s-7.9,3-8.8,7h-6.9
		l3.1-21.5c1.5,0.3,3,0.5,4.5,0.5c12.1,0,22-9.9,22-22c0-0.3,0-0.7,0-1h7.7l-6.4,44H46.8z M72,84c-2.8,0-5-2.2-5-5s2.2-5,5-5
		s5,2.2,5,5S74.8,84,72,84z M90.1,61H85c-1.1,0-2,0.9-2,2c0,1.1,0.9,2,2,2h4.4l-2.1,12h-6.5c-0.9-4-4.5-7-8.8-7s-7.9,3-8.8,7h-5.9
		l3.2-22h16.3l13.9,2.6L90.1,61z"/>
	<path d="M35.5,42.5c0.5,0,1-0.2,1.4-0.6c0.8-0.8,0.8-2.1,0-2.8L32,34.2V25c0-1.1-0.9-2-2-2s-2,0.9-2,2v10c0,0.7,0.3,1.3,0.9,1.7
		c0.1,0.1,0.1,0.2,0.2,0.3l5,5C34.4,42.3,35,42.5,35.5,42.5z"/>
</g>
</svg>
