<?xml version="1.0" encoding="utf-8"?>
<!-- Generator: Adobe Illustrator 21.0.2, SVG Export Plug-In . SVG Version: 6.00 Build 0)  -->
<svg version="1.1" id="Layer_1" xmlns="http://www.w3.org/2000/svg" xmlns:xlink="http://www.w3.org/1999/xlink" x="0px" y="0px"
	 viewBox="0 0 100 100" style="enable-background:new 0 0 100 100;" xml:space="preserve">
<g>
	<path d="M87.2,61h5.1l0.6-3.4L79,55H62.7l-3.2,22h5.9c0.9-4,4.5-7,8.8-7s7.9,3,8.8,7h6.5l2.1-12h-4.4c-1.1,0-2-0.9-2-2
		C85.2,61.9,86.1,61,87.2,61z"/>
	<polygon points="70.9,41 64.7,41 63.3,51 75.9,51 	"/>
	<path d="M54.1,33c0,0.3,0,0.7,0,1c0,12.1-9.9,22-22,22c-1.6,0-3.1-0.2-4.5-0.5L27.5,56H9.2c-1.1,0-2,0.9-2,2c0,1.1,0.9,2,2,2h17.8
		l-0.6,4H13.2c-1.1,0-2,0.9-2,2c0,1.1,0.9,2,2,2h12.6l-0.6,4h-8c-1.1,0-2,0.9-2,2c0,1.1,0.9,2,2,2h7.5l-0.2,1h6.9c0.9-4,4.5-7,8.8-7
		s7.9,3,8.8,7h6.5l6.4-44H54.1z"/>
	<circle cx="40.2" cy="79" r="5"/>
	<circle cx="74.2" cy="79" r="5"/>
	<path d="M32.2,52c9.9,0,18-8.1,18-18s-8.1-18-18-18s-18,8.1-18,18S22.2,52,32.2,52z M30.2,25c0-1.1,0.9-2,2-2s2,0.9,2,2v9.2
		l4.9,4.9c0.8,0.8,0.8,2,0,2.8c-0.4,0.4-0.9,0.6-1.4,0.6c-0.5,0-1-0.2-1.4-0.6l-5-5c-0.1-0.1-0.2-0.2-0.2-0.3
		c-0.5-0.4-0.9-1-0.9-1.7V25z"/>
</g>
</svg>
