<?xml version="1.0" encoding="utf-8"?>
<!-- Generator: Adobe Illustrator 21.0.2, SVG Export Plug-In . SVG Version: 6.00 Build 0)  -->
<svg version="1.1" id="Layer_1" xmlns="http://www.w3.org/2000/svg" xmlns:xlink="http://www.w3.org/1999/xlink" x="0px" y="0px"
	 viewBox="0 0 100 100" style="enable-background:new 0 0 100 100;" xml:space="preserve">
<g>
	<path d="M89,39.4c3.3,0,6-2.7,6-6v-4c0-3.3-2.7-6-6-6h-3v-4.8c0-1.2-0.3-2.3-1-3.3l-4-6c-1.1-1.7-3-2.7-5-2.7s-3.9,1-5,2.7l-4,6
		c-0.7,1-1,2.1-1,3.3v4.8h-6v-4.8c0-1.2-0.3-2.3-1-3.3l-4-6c-1.1-1.7-3-2.7-5-2.7s-3.9,1-5,2.7l-4,6c-0.7,1-1,2.1-1,3.3v4.8h-6v-4.8
		c0-1.2-0.3-2.3-1-3.3l-4-6c-1.1-1.7-3-2.7-5-2.7s-3.9,1-5,2.7l-4,6c-0.7,1-1,2.1-1,3.3v4.8h-3c-3.3,0-6,2.7-6,6v4c0,3.3,2.7,6,6,6
		h3v24h-3c-3.3,0-6,2.7-6,6v4c0,3.3,2.7,6,6,6h3v8c0,3.3,2.7,6,6,6h8c3.3,0,6-2.7,6-6v-8h6v8c0,3.3,2.7,6,6,6h8c3.3,0,6-2.7,6-6v-8
		h6v8c0,3.3,2.7,6,6,6h8c3.3,0,6-2.7,6-6v-8h3c3.3,0,6-2.7,6-6v-4c0-3.3-2.7-6-6-6h-3v-24H89z M86,27.4h3c1.1,0,2,0.9,2,2v4
		c0,1.1-0.9,2-2,2h-3V27.4z M14,75.4h-3c-1.1,0-2-0.9-2-2v-4c0-1.1,0.9-2,2-2h3V75.4z M14,35.4h-3c-1.1,0-2-0.9-2-2v-4
		c0-1.1,0.9-2,2-2h3V35.4z M30,87.4c0,1.1-0.9,2-2,2h-8c-1.1,0-2-0.9-2-2V18.6c0-0.4,0.1-0.8,0.3-1.1l4-6c0.4-0.6,1-0.9,1.7-0.9
		s1.3,0.3,1.7,0.9l4,6c0.2,0.3,0.3,0.7,0.3,1.1V87.4z M40,75.4h-6v-8h6V75.4z M40,63.4h-6v-24h6V63.4z M40,35.4h-6v-8h6V35.4z
		 M56,87.4c0,1.1-0.9,2-2,2h-8c-1.1,0-2-0.9-2-2V18.6c0-0.4,0.1-0.8,0.3-1.1l4-6c0.4-0.6,1-0.9,1.7-0.9s1.3,0.3,1.7,0.9l4,6
		c0.2,0.3,0.3,0.7,0.3,1.1V87.4z M66,75.4h-6v-8h6V75.4z M66,63.4h-6v-24h6V63.4z M66,35.4h-6v-8h6V35.4z M82,87.4c0,1.1-0.9,2-2,2
		h-8c-1.1,0-2-0.9-2-2V18.6c0-0.4,0.1-0.8,0.3-1.1l4-6c0.4-0.6,1-0.9,1.7-0.9s1.3,0.3,1.7,0.9l4,6c0.2,0.3,0.3,0.7,0.3,1.1V87.4z
		 M89,67.4c1.1,0,2,0.9,2,2v4c0,1.1-0.9,2-2,2h-3v-8H89z"/>
	<circle cx="50" cy="31.4" r="2"/>
	<circle cx="50" cy="71.4" r="2"/>
	<circle cx="76" cy="31.4" r="2"/>
	<circle cx="76" cy="71.4" r="2"/>
	<circle cx="24" cy="31.4" r="2"/>
	<circle cx="24" cy="71.4" r="2"/>
</g>
</svg>
