<?xml version="1.0" encoding="utf-8"?>
<!-- Generator: Adobe Illustrator 21.0.2, SVG Export Plug-In . SVG Version: 6.00 Build 0)  -->
<svg version="1.1" id="Layer_1" xmlns="http://www.w3.org/2000/svg" xmlns:xlink="http://www.w3.org/1999/xlink" x="0px" y="0px"
	 viewBox="0 0 100 100" style="enable-background:new 0 0 100 100;" xml:space="preserve">
<path d="M93,35.4c1.1,0,2-0.9,2-2v-4c0-1.1-0.9-2-2-2h-9v-8.8c0-0.8-0.2-1.6-0.7-2.2l-4-6c-1.6-2.4-5.1-2.4-6.7,0l-4,6
	C68.2,17,68,17.8,68,18.6v8.8H58v-8.8c0-0.8-0.2-1.6-0.7-2.2l-4-6c-1.6-2.4-5.1-2.4-6.7,0l-4,6C42.2,17,42,17.8,42,18.6v8.8H32v-8.8
	c0-0.8-0.2-1.6-0.7-2.2l-4-6c-1.6-2.4-5.1-2.4-6.7,0l-4,6C16.2,17,16,17.8,16,18.6v8.8H7c-1.1,0-2,0.9-2,2v4c0,1.1,0.9,2,2,2h9v32H7
	c-1.1,0-2,0.9-2,2v4c0,1.1,0.9,2,2,2h9v12c0,2.2,1.8,4,4,4h8c2.2,0,4-1.8,4-4v-12h10v12c0,2.2,1.8,4,4,4h8c2.2,0,4-1.8,4-4v-12h10
	v12c0,2.2,1.8,4,4,4h8c2.2,0,4-1.8,4-4v-12h9c1.1,0,2-0.9,2-2v-4c0-1.1-0.9-2-2-2h-9v-32H93z M24,73.4c-1.1,0-2-0.9-2-2
	c0-1.1,0.9-2,2-2s2,0.9,2,2C26,72.5,25.1,73.4,24,73.4z M24,33.4c-1.1,0-2-0.9-2-2c0-1.1,0.9-2,2-2s2,0.9,2,2
	C26,32.5,25.1,33.4,24,33.4z M42,67.4H32v-32h10V67.4z M50,73.4c-1.1,0-2-0.9-2-2c0-1.1,0.9-2,2-2s2,0.9,2,2
	C52,72.5,51.1,73.4,50,73.4z M50,33.4c-1.1,0-2-0.9-2-2c0-1.1,0.9-2,2-2s2,0.9,2,2C52,32.5,51.1,33.4,50,33.4z M68,67.4H58v-32h10
	V67.4z M76,73.4c-1.1,0-2-0.9-2-2c0-1.1,0.9-2,2-2s2,0.9,2,2C78,72.5,77.1,73.4,76,73.4z M76,33.4c-1.1,0-2-0.9-2-2c0-1.1,0.9-2,2-2
	s2,0.9,2,2C78,32.5,77.1,33.4,76,33.4z"/>
</svg>
