<?xml version="1.0" encoding="utf-8"?>
<!-- Generator: Adobe Illustrator 21.0.2, SVG Export Plug-In . SVG Version: 6.00 Build 0)  -->
<svg version="1.1" id="Layer_1" xmlns="http://www.w3.org/2000/svg" xmlns:xlink="http://www.w3.org/1999/xlink" x="0px" y="0px"
	 viewBox="0 0 100 100" style="enable-background:new 0 0 100 100;" xml:space="preserve">
<g>
	<path d="M43,37.2c0,5-4.1,9.1-9.1,9.1c-2.7,0-5.2-1.2-6.9-3.2v-3.3l5.8-2.5c1-0.4,1.5-1.6,1.1-2.6c-0.4-1-1.6-1.5-2.6-1L27,35.5v-7
		c0-1.1-0.9-2-2-2s-2,0.9-2,2v10c0,0,0,0,0,0v4.6c-1.7,2-4.2,3.2-6.9,3.2c-5,0-9.1-4.1-9.1-9.1c0-4.4,3.2-8.2,7.5-9
		c0.5-0.1,1-0.4,1.3-0.9c0.3-0.5,0.4-1,0.3-1.5c-0.1-0.7-0.2-1.3-0.2-2c0-5,4.1-9.1,9.1-9.1s9.1,4.1,9.1,9.1c0,0.7-0.1,1.3-0.2,2
		c-0.1,0.5,0,1.1,0.3,1.5s0.8,0.8,1.3,0.9C39.9,29,43,32.8,43,37.2z"/>
	<path d="M85,25c0,8.2-4.3,14.9-10,16.2v-6.1l3.7-5.5c0.6-0.9,0.4-2.2-0.5-2.8c-0.9-0.6-2.2-0.4-2.8,0.6L73,30.9l-2.3-3.5
		c-0.6-0.9-1.8-1.2-2.8-0.6c-0.9,0.6-1.2,1.9-0.5,2.8l3.7,5.5v6.1c-5.7-1.3-10-8.1-10-16.2c0-9.1,5.4-16.5,12-16.5S85,15.9,85,25z"
		/>
	<path d="M90.4,88.1c-1.5,1.6-4.4,3-6.4,3.4H10l-0.4-0.4c-0.2-0.2-0.3-0.4-0.5-0.5c-2.8-3.5-2.8-8.4-0.2-12.1L17,66.6l2,3.1
		c0.9,1.4,2.5,2,4,1.8V48.3c0.7-0.4,1.4-1,2-1.5c0.6,0.6,1.3,1.1,2,1.5v19.8l6-7.5c0,0,1,1.5,2.2,3.4c2.5,3.9,8.4,3.6,10.4-0.6
		l3.3-6.8l3.4,7.3c1.9,4.1,7.5,4.7,10.2,1.1l3.4-4.4c0,0,2.6,3.6,5,7.1V45.3c0.7,0.1,1.3,0.2,2,0.2s1.3-0.1,2-0.2V71
		c1.3,0.2,2.8-0.3,3.7-1.6l4.3-5.8l8.1,11.8C93.8,79.3,93.6,84.6,90.4,88.1z"/>
</g>
</svg>
