<?xml version="1.0" encoding="utf-8"?>
<!-- Generator: Adobe Illustrator 21.0.2, SVG Export Plug-In . SVG Version: 6.00 Build 0)  -->
<svg version="1.1" id="Layer_1" xmlns="http://www.w3.org/2000/svg" xmlns:xlink="http://www.w3.org/1999/xlink" x="0px" y="0px"
	 viewBox="0 0 100 100" style="enable-background:new 0 0 100 100;" xml:space="preserve">
<path d="M92.7,75.3l-8-11.8c-0.4-0.5-1-0.9-1.6-0.9c-0.7,0-1.3,0.3-1.7,0.8l-4.3,5.8c-0.4,0.5-1,0.8-1.6,0.8h0c-0.1,0-0.3,0-0.4,0
	V41.3c7.9-1.1,14-8.7,14-17.8c0-9.9-7.2-18-16-18c-8.8,0-16,8.1-16,18c0,9.2,6.1,16.7,14,17.8v23.9l-3.4-4.8c-0.4-0.5-1-0.8-1.6-0.8
	c-0.6,0-1.2,0.3-1.6,0.8l-3.4,4.4c-0.8,1.1-2.2,1.7-3.6,1.5c-1.4-0.1-2.6-1-3.2-2.3l-3.4-7.3c-0.3-0.7-1-1.1-1.8-1.1h0
	c-0.8,0-1.5,0.4-1.8,1.1l-3.3,6.8c-0.6,1.3-1.9,2.1-3.3,2.2c-1.5,0.1-2.8-0.6-3.6-1.8l-2.2-3.4c-0.3-0.5-0.9-0.9-1.6-0.9
	c-0.6,0-1.2,0.2-1.6,0.7l-2.4,3V46.9c1.8,1,3.8,1.6,6,1.6c6.6,0,12-5.4,12-12c0-5.2-3.3-9.7-8-11.3c0-0.2,0-0.5,0-0.7
	c0-6.6-5.4-12-12-12c-6.6,0-12,5.4-12,12c0,0.2,0,0.5,0,0.7c-4.8,1.7-8,6.1-8,11.3c0,6.6,5.4,12,12,12c2.1,0,4.2-0.6,6-1.6v21.5
	l-1.1,1.4c-0.4,0.5-1,0.8-1.7,0.8c-0.6,0-1.2-0.4-1.6-0.9l-2-3.1c-0.4-0.6-1-0.9-1.7-0.9s-1.3,0.3-1.7,0.9L7.3,78.3
	c-3,4.5-2.9,10.4,0.3,14.5c0.2,0.2,0.4,0.4,0.5,0.6c0.1,0.1,0.2,0.2,0.3,0.3c0.4,0.4,0.9,0.7,1.6,0.7h74c0.1,0,0.2,0,0.4,0
	c2.2-0.4,5.5-1.9,7.5-4C95.6,86.4,96,80,92.7,75.3z M61,23.5c0-7.7,5.4-14,12-14c6.6,0,12,6.3,12,14c0,6.9-4.3,12.7-10,13.8v-5.2
	l3.7-5.5c0.6-0.9,0.4-2.2-0.5-2.8c-0.9-0.6-2.2-0.4-2.8,0.6L73,27.9l-2.3-3.5c-0.6-0.9-1.8-1.2-2.8-0.6c-0.9,0.6-1.2,1.9-0.6,2.8
	l3.7,5.5v5.2C65.3,36.2,61,30.4,61,23.5z M19,44.5c-4.4,0-8-3.6-8-8c0-3.9,2.8-7.2,6.6-7.9c0.5-0.1,1-0.4,1.3-0.9
	c0.3-0.4,0.4-1,0.3-1.5c-0.1-0.6-0.2-1.2-0.2-1.7c0-4.4,3.6-8,8-8c4.4,0,8,3.6,8,8c0,0.6-0.1,1.1-0.2,1.7c-0.1,0.5,0,1.1,0.3,1.5
	c0.3,0.5,0.8,0.8,1.3,0.9c3.8,0.7,6.6,4,6.6,7.9c0,4.4-3.6,8-8,8c-2.3,0-4.5-1-6-2.7v-2.9l5.8-2.5c1-0.4,1.5-1.6,1.1-2.6
	c-0.4-1-1.6-1.5-2.6-1L29,34.5v-6c0-1.1-0.9-2-2-2c-1.1,0-2,0.9-2,2v9c0,0,0,0,0,0v4.2C23.5,43.5,21.3,44.5,19,44.5z M81.1,88.6
	l-1.2,1.9H20c-2.1-2.2-2.4-5.7-0.6-8.1l0.8,0.7c2.2,1.7,5.4,1.6,7.5-0.2l5.2-4.5c0.5,0.6,1.2,1.2,1.9,2c1.6,1.7,3.9,2.5,6.2,2.4
	c2.3-0.1,4.5-1.3,5.9-3.1l2.1-2.7l2.2,2.9c1.3,1.8,3.4,2.9,5.6,3.2c2.2,0.2,4.5-0.5,6.1-2l3.2-2.8l5.7,5c2.1,1.8,5.1,2,7.3,0.4
	l3-2.1C82.7,84,82.4,86.5,81.1,88.6z M88.9,87.8c-1,1-2.7,2-4.2,2.4c2.2-3.9,2.2-8.7,0-12.6c-0.3-0.5-0.7-0.8-1.3-1
	c-0.5-0.1-1.1,0-1.6,0.3l-5.1,3.5c-0.8,0.5-1.8,0.5-2.4-0.1l-7-6.2c-0.8-0.7-1.9-0.7-2.6,0l-4.5,4c-0.8,0.7-1.9,1.1-3.1,1
	c-1.1-0.1-2.1-0.7-2.8-1.6l-3.8-5c-0.4-0.5-1-0.8-1.6-0.8c-0.6,0-1.2,0.3-1.6,0.8l-3.7,4.8c-0.7,0.9-1.8,1.5-2.9,1.5
	c-1.2,0.1-2.3-0.4-3.1-1.2c-1.7-1.8-3.2-3.3-3.2-3.3c-0.7-0.8-1.9-0.8-2.7-0.1l-6.6,5.7c-0.7,0.6-1.8,0.6-2.5,0.1L20.2,78
	c-0.8-0.6-2-0.5-2.7,0.3l-0.8,1c-2.8,3.2-3.2,7.6-1.5,11.2h-4.3c0,0-0.1-0.1-0.1-0.2c-2.2-2.7-2.2-6.7-0.2-9.7l6.4-9.3l0.3,0.5
	c1,1.6,2.8,2.7,4.7,2.8c1.9,0.1,3.8-0.7,5-2.2l5.8-7.3l0.7,1.1c1.6,2.4,4.3,3.8,7.2,3.6c2.9-0.2,5.4-1.9,6.7-4.5l1.5-3.1l1.7,3.5
	c1.2,2.6,3.6,4.2,6.4,4.6c2.8,0.3,5.5-0.9,7.2-3.1L66,65l4.6,6.5c1.1,1.6,2.9,2.5,4.8,2.5c2,0,3.7-0.8,4.9-2.4L83,68l6.5,9.5
	C91.6,80.8,91.4,85.1,88.9,87.8z"/>
</svg>
