<?xml version="1.0" encoding="utf-8"?>
<!-- Generator: Adobe Illustrator 21.0.2, SVG Export Plug-In . SVG Version: 6.00 Build 0)  -->
<svg version="1.1" id="Layer_1" xmlns="http://www.w3.org/2000/svg" xmlns:xlink="http://www.w3.org/1999/xlink" x="0px" y="0px"
	 viewBox="0 0 100 100" style="enable-background:new 0 0 100 100;" xml:space="preserve">
<g>
	<path d="M87,26v-2c0-3.3-2.7-6-6-6h-2c-3.3,0-6,2.7-6,6v2h-8v-6c0-4.4-3.6-8-8-8H43c-4.4,0-8,3.6-8,8v6h-8v-2c0-3.3-2.7-6-6-6h-2
		c-3.3,0-6,2.7-6,6v2c-4.4,0-8,3.6-8,8v46c0,4.4,3.6,8,8,8h74c4.4,0,8-3.6,8-8V34C95,29.6,91.4,26,87,26z M77,24c0-1.1,0.9-2,2-2h2
		c1.1,0,2,0.9,2,2v2h-6V24z M39,20c0-2.2,1.8-4,4-4h14c2.2,0,4,1.8,4,4v6H39V20z M17,24c0-1.1,0.9-2,2-2h2c1.1,0,2,0.9,2,2v2h-6V24z
		 M91,80c0,2.2-1.8,4-4,4H13c-2.2,0-4-1.8-4-4V34c0-2.2,1.8-4,4-4h74c2.2,0,4,1.8,4,4V80z"/>
	<path d="M63,48h-4v-4c0-3.3-2.7-6-6-6h-6c-3.3,0-6,2.7-6,6v4h-4c-3.3,0-6,2.7-6,6v6c0,3.3,2.7,6,6,6h4v4c0,3.3,2.7,6,6,6h6
		c3.3,0,6-2.7,6-6v-4h4c3.3,0,6-2.7,6-6v-6C69,50.7,66.3,48,63,48z M65,60c0,1.1-0.9,2-2,2h-6c-1.1,0-2,0.9-2,2v6c0,1.1-0.9,2-2,2
		h-6c-1.1,0-2-0.9-2-2v-6c0-1.1-0.9-2-2-2h-6c-1.1,0-2-0.9-2-2v-6c0-1.1,0.9-2,2-2h6c1.1,0,2-0.9,2-2v-6c0-1.1,0.9-2,2-2h6
		c1.1,0,2,0.9,2,2v6c0,1.1,0.9,2,2,2h6c1.1,0,2,0.9,2,2V60z"/>
</g>
</svg>
