<?xml version="1.0" encoding="utf-8"?>
<!-- Generator: Adobe Illustrator 21.0.2, SVG Export Plug-In . SVG Version: 6.00 Build 0)  -->
<svg version="1.1" id="Layer_1" xmlns="http://www.w3.org/2000/svg" xmlns:xlink="http://www.w3.org/1999/xlink" x="0px" y="0px"
	 viewBox="0 0 100 100" style="enable-background:new 0 0 100 100;" xml:space="preserve">
<path d="M73,70.2l-6.6-6.6l6.4-6.4c0.8-0.8,0.8-2,0-2.8c-0.8-0.8-2-0.8-2.8,0l-6.4,6.4l-6.2-6.2l9.9-9.9c0.8-0.8,0.8-2,0-2.8
	c-0.8-0.8-2-0.8-2.8,0l-9.9,9.9l-6.2-6.2L61.7,32c0.8-0.8,0.8-2,0-2.8c-0.8-0.8-2-0.8-2.8,0L45.5,42.6L37.8,35l13.4-13.4
	C36.2,8,18.7,3.2,10.9,10.9C3.2,18.7,8,36.2,21.6,51.2L35,37.8l7.7,7.7L29.2,58.9c-0.8,0.8-0.8,2,0,2.8c0.4,0.4,0.9,0.6,1.4,0.6
	c0.5,0,1-0.2,1.4-0.6l13.4-13.4l6.2,6.2l-9.9,9.9c-0.8,0.8-0.8,2,0,2.8c0.4,0.4,0.9,0.6,1.4,0.6c0.5,0,1-0.2,1.4-0.6l9.9-9.9
	l6.2,6.2L54.4,70c-0.8,0.8-0.8,2,0,2.8c0.4,0.4,0.9,0.6,1.4,0.6c0.5,0,1-0.2,1.4-0.6l6.4-6.4l6.6,6.6l1.4,19.8l21.2-21.2L73,70.2z
	 M28.5,22.5h-3v3c0,1.1-0.9,2-2,2s-2-0.9-2-2v-3h-3c-1.1,0-2-0.9-2-2c0-1.1,0.9-2,2-2h3v-3c0-1.1,0.9-2,2-2s2,0.9,2,2v3h3
	c1.1,0,2,0.9,2,2C30.5,21.6,29.6,22.5,28.5,22.5z"/>
</svg>
