<?xml version="1.0" encoding="utf-8"?>
<!-- Generator: Adobe Illustrator 21.0.2, SVG Export Plug-In . SVG Version: 6.00 Build 0)  -->
<svg version="1.1" id="Layer_1" xmlns="http://www.w3.org/2000/svg" xmlns:xlink="http://www.w3.org/1999/xlink" x="0px" y="0px"
	 viewBox="0 0 100 100" style="enable-background:new 0 0 100 100;" xml:space="preserve">
<g>
	<path d="M94.6,70.8c-0.3-0.7-1-1.2-1.7-1.3L70.8,68l-4.4-4.4l6.4-6.4c0.8-0.8,0.8-2,0-2.8c-0.8-0.8-2-0.8-2.8,0l-6.4,6.4l-6.2-6.2
		l9.9-9.9c0.8-0.8,0.8-2,0-2.8c-0.8-0.8-2-0.8-2.8,0l-9.9,9.9l-6.2-6.2L61.7,32c0.8-0.8,0.8-2,0-2.8c-0.8-0.8-2-0.8-2.8,0L45.4,42.6
		l-6.2-6.2L52.6,23c0.4-0.4,0.6-0.9,0.6-1.5c0-0.5-0.2-1.1-0.7-1.4C36.4,5.6,18,1,9.5,9.5C1,18,5.6,36.4,20.1,52.5
		c0.4,0.4,0.9,0.6,1.4,0.7h0c0.5,0,1-0.2,1.4-0.6l13.4-13.4l6.2,6.2L29.2,58.9c-0.8,0.8-0.8,2,0,2.8c0.4,0.4,0.9,0.6,1.4,0.6
		c0.5,0,1-0.2,1.4-0.6l13.4-13.4l6.2,6.2l-9.9,9.9c-0.8,0.8-0.8,2,0,2.8c0.4,0.4,0.9,0.6,1.4,0.6c0.5,0,1-0.2,1.4-0.6l9.9-9.9
		l6.2,6.2l-6.4,6.4c-0.8,0.8-0.8,2,0,2.8c0.4,0.4,0.9,0.6,1.4,0.6c0.5,0,1-0.2,1.4-0.6l6.4-6.4l4.4,4.4l1.5,22.1
		c0,0.8,0.6,1.5,1.3,1.7c0.2,0.1,0.5,0.1,0.7,0.1c0.5,0,1-0.2,1.4-0.6l21.2-21.2C94.7,72.4,94.9,71.6,94.6,70.8z M21.7,48.2
		C9.9,34.4,5.8,18.9,12.3,12.3c2.1-2.1,5.1-3.1,8.8-3.1c7.6,0,17.8,4.5,27.1,12.5L21.7,48.2z M73.2,88.2l-1.1-16.1l16.1,1.1
		L73.2,88.2z"/>
	<path d="M28.5,18.5h-3v-3c0-1.1-0.9-2-2-2s-2,0.9-2,2v3h-3c-1.1,0-2,0.9-2,2c0,1.1,0.9,2,2,2h3v3c0,1.1,0.9,2,2,2s2-0.9,2-2v-3h3
		c1.1,0,2-0.9,2-2C30.5,19.4,29.6,18.5,28.5,18.5z"/>
</g>
</svg>
