<?xml version="1.0" encoding="utf-8"?>
<!-- Generator: Adobe Illustrator 23.0.1, SVG Export Plug-In . SVG Version: 6.00 Build 0)  -->
<svg version="1.1" id="Layer_1" xmlns="http://www.w3.org/2000/svg" xmlns:xlink="http://www.w3.org/1999/xlink" x="0px" y="0px"
	 viewBox="0 0 100 100" style="enable-background:new 0 0 100 100;" xml:space="preserve">
<style type="text/css">
	.st0{fill:#000000;}
</style>
<path class="st0" d="M90,5c-1.1,0-2,0.9-2,2v3h-6V7c0-1.1-0.9-2-2-2H68c-1.1,0-2,0.9-2,2v3h-8V7c0-1.1-0.9-2-2-2H44
	c-1.1,0-2,0.9-2,2v3h-8V7c0-1.1-0.9-2-2-2H20c-1.1,0-2,0.9-2,2v3h-6V7c0-1.1-0.9-2-2-2S8,5.9,8,7v10c0,1.1,0.9,2,2,2s2-0.9,2-2v-3h6
	v79c0,0.8,0.4,1.4,1.1,1.8c0.7,0.3,1.5,0.3,2.1-0.2L50,73.5l28.8,21.1c0.3,0.3,0.8,0.4,1.2,0.4c0.3,0,0.6-0.1,0.9-0.2
	c0.7-0.3,1.1-1,1.1-1.8V14h6v3c0,1.1,0.9,2,2,2s2-0.9,2-2V7C92,5.9,91.1,5,90,5z M66,14v7h-8v-7H66z M42,14v7h-8v-7H42z M78,89.1
	L51.2,69.4C50.8,69.1,50.4,69,50,69s-0.8,0.1-1.2,0.4L22,89.1V9h8v14c0,1.1,0.9,2,2,2h12c1.1,0,2-0.9,2-2V9h8v14c0,1.1,0.9,2,2,2h12
	c1.1,0,2-0.9,2-2V9h8V89.1z M62.7,42.8c-1.5-1.5-3.5-2.3-5.7-2.3c-0.2,0-0.3,0-0.5,0c0.1-2.2-0.6-4.5-2.3-6.2l-2.8-2.8
	c-0.8-0.8-2-0.8-2.8,0l-2.8,2.8c-1.7,1.7-2.5,4-2.3,6.2c-2.2-0.1-4.5,0.6-6.2,2.3l-2.8,2.8c-0.8,0.8-0.8,2,0,2.8l2.8,2.8
	c1.6,1.6,3.6,2.3,5.7,2.3c0.2,0,0.3,0,0.5,0c0,0.2,0,0.3,0,0.5c0,2.1,0.8,4.1,2.3,5.7l2.8,2.8C49,62.8,49.5,63,50,63
	c0.5,0,1-0.2,1.4-0.6l2.8-2.8c1.7-1.7,2.5-4,2.3-6.2c0.2,0,0.3,0,0.5,0c2.1,0,4.1-0.8,5.7-2.3l2.8-2.8C65.8,48,66,47.5,66,47
	s-0.2-1-0.6-1.4L62.7,42.8z M48.7,37.2l1.3-1.3l1.3,1.3c1.6,1.6,1.6,4.1,0,5.7c0,0,0,0,0,0L50,44.2l-1.3-1.3
	C47.1,41.3,47.1,38.7,48.7,37.2z M40.2,48.3L38.8,47l1.3-1.3c1.6-1.6,4.1-1.6,5.7,0l1.3,1.3l-1.3,1.3C44.3,49.9,41.7,49.9,40.2,48.3
	z M51.3,56.8L50,58.2l-1.3-1.3c-0.8-0.8-1.2-1.8-1.2-2.8s0.4-2.1,1.2-2.8l1.3-1.3l1.3,1.3C52.9,52.7,52.9,55.3,51.3,56.8z
	 M59.8,48.3c-1.5,1.5-4.1,1.5-5.7,0c0,0,0,0,0,0L52.8,47l0.4-0.4l0.9-0.9c0,0,0,0,0,0c1.5-1.5,4.1-1.5,5.7,0l1.3,1.3L59.8,48.3z"/>
</svg>
