<?xml version="1.0" encoding="utf-8"?>
<!-- Generator: Adobe Illustrator 21.0.2, SVG Export Plug-In . SVG Version: 6.00 Build 0)  -->
<svg version="1.1" id="Layer_1" xmlns="http://www.w3.org/2000/svg" xmlns:xlink="http://www.w3.org/1999/xlink" x="0px" y="0px"
	 viewBox="0 0 100 100" style="enable-background:new 0 0 100 100;" xml:space="preserve">
<g>
	<path d="M93.7,86.7c-0.8-0.8-2-0.8-2.8,0c-2.5,2.5-6.7,2.5-9.2,0c-1.1-1.1-2.5-2-4-2.5c-3.8-1.3-8.1-0.4-10.9,2.5
		c-2.5,2.5-6.7,2.5-9.2,0c-4.1-4.1-10.8-4.1-14.9,0c-2.5,2.5-6.7,2.5-9.2,0c-2.8-2.8-7.1-3.8-10.9-2.5c-1.5,0.5-2.8,1.4-4,2.5
		c-1.2,1.2-2.9,1.9-4.6,1.9c-1.7,0-3.4-0.7-4.6-1.9c-0.8-0.8-2-0.8-2.8,0c-0.8,0.8-0.8,2,0,2.8c2.1,2.1,4.8,3.1,7.4,3.1
		c2.7,0,5.4-1,7.4-3.1c0.7-0.7,1.5-1.2,2.5-1.5c2.4-0.8,5-0.2,6.8,1.5c4.1,4.1,10.8,4.1,14.9,0c2.5-2.5,6.7-2.5,9.2,0
		c4.1,4.1,10.8,4.1,14.9,0c1.8-1.8,4.4-2.4,6.8-1.5c0.9,0.3,1.8,0.8,2.5,1.5c4.1,4.1,10.8,4.1,14.9,0C94.4,88.7,94.4,87.5,93.7,86.7
		z"/>
	<path d="M10.7,43.6c1.1,0.5,2.3,0.4,3.3-0.4l34.7-27.5c0.7-0.6,1.8-0.6,2.5,0L86,43.2c1,0.8,2.2,0.9,3.3,0.4C90.3,43,91,42,91,40.8
		c0-1-0.4-1.8-1.2-2.4L51.2,7.8c-0.4-0.3-0.8-0.4-1.2-0.4s-0.9,0.1-1.2,0.4L10.2,38.3C9.4,38.9,9,39.8,9,40.8C9,42,9.6,43,10.7,43.6
		z"/>
	<path d="M13.8,80.6c2.7,0,5.4-1,7.5-3.1c0.7-0.7,1.5-1.2,2.5-1.5c2.4-0.8,5-0.2,6.8,1.5c4.1,4.1,10.8,4.1,14.9,0
		c2.5-2.5,6.7-2.5,9.2,0c4.1,4.1,10.8,4.1,14.9,0c1.8-1.8,4.4-2.4,6.8-1.5c0.9,0.3,1.8,0.8,2.5,1.5c4.1,4.1,10.8,4.1,14.9,0
		c0.8-0.8,0.8-2,0-2.8c-0.8-0.8-2-0.8-2.8,0c-2.5,2.5-6.7,2.5-9.2,0c-0.2-0.2-0.4-0.3-0.6-0.5c-0.6-0.5-1.3-1-2-1.4v-30L50,19.9
		L21,42.8v30c-0.7,0.4-1.4,0.8-2,1.4c-0.2,0.2-0.4,0.3-0.6,0.5c-1.2,1.2-2.9,1.9-4.6,1.9c-1.8,0-3.4-0.7-4.6-1.9
		c-0.8-0.8-2-0.8-2.8,0c-0.8,0.8-0.8,2,0,2.8C8.4,79.6,11.1,80.6,13.8,80.6z M50,31.1c2.8,0,5,2.2,5,5s-2.2,5-5,5s-5-2.2-5-5
		S47.2,31.1,50,31.1z M37,59.1c0-4.4,3.6-8,8-8h10c4.4,0,8,3.6,8,8v17.4c-1.4,0.2-2.8,0-4-0.7V59.1c0-2.2-1.8-4-4-4H45
		c-2.2,0-4,1.8-4,4v16.7c-1.2,0.7-2.6,0.9-4,0.7V59.1z"/>
</g>
</svg>
