<?xml version="1.0" encoding="utf-8"?>
<!-- Generator: Adobe Illustrator 21.0.2, SVG Export Plug-In . SVG Version: 6.00 Build 0)  -->
<svg version="1.1" id="Layer_1" xmlns="http://www.w3.org/2000/svg" xmlns:xlink="http://www.w3.org/1999/xlink" x="0px" y="0px"
	 viewBox="0 0 100 100" style="enable-background:new 0 0 100 100;" xml:space="preserve">
<g>
	<path d="M9,49.2c2.5,1.2,5.3,0.9,7.5-0.8l2.5-2v29.8c-0.2,0.2-0.4,0.3-0.6,0.5c-1.2,1.2-2.9,1.9-4.6,1.9c-1.8,0-3.4-0.7-4.6-1.9
		c-0.8-0.8-2-0.8-2.8,0c-0.8,0.8-0.8,2,0,2.8c2,2.1,4.8,3.1,7.4,3.1c2.7,0,5.4-1,7.5-3.1c0.7-0.7,1.5-1.2,2.5-1.5
		c2.4-0.8,5-0.2,6.8,1.5c4.1,4.1,10.8,4.1,14.9,0c2.5-2.5,6.7-2.5,9.2,0c4.1,4.1,10.8,4.1,14.9,0c1.8-1.8,4.4-2.4,6.8-1.5
		c0.9,0.3,1.8,0.8,2.5,1.5c4.1,4.1,10.8,4.1,14.9,0c0.8-0.8,0.8-2,0-2.8c-0.8-0.8-2-0.8-2.8,0c-2.5,2.5-6.7,2.5-9.2,0
		c-0.2-0.2-0.4-0.3-0.6-0.5V46.4l2.5,2c1.3,1,2.8,1.5,4.4,1.5c1,0,2.1-0.2,3.1-0.7c2.5-1.2,4-3.7,4-6.4c0-2.2-1-4.2-2.7-5.6
		L53.7,6.7c-2.2-1.7-5.2-1.7-7.4,0L7.7,37.2C6,38.6,5,40.6,5,42.8C5,45.5,6.5,48,9,49.2z M59,77.8c-0.6-0.3-1.1-0.7-1.5-1.1
		c-4.1-4.1-10.8-4.1-14.9,0c-0.5,0.5-1,0.9-1.5,1.1V61.1c0-2.2,1.8-4,4-4h10c2.2,0,4,1.8,4,4V77.8z M77,74c-3.6-1-7.6,0-10.3,2.7
		c-1,1-2.3,1.6-3.7,1.8V61.1c0-4.4-3.6-8-8-8H45c-4.4,0-8,3.6-8,8v17.4c-1.3-0.2-2.7-0.8-3.7-1.8C30.6,74,26.6,73,23,74V43.2
		l27-21.3l27,21.3V74z M10.2,40.3L48.8,9.8c0.4-0.3,0.8-0.4,1.2-0.4s0.9,0.1,1.2,0.4l38.6,30.5c0.8,0.6,1.2,1.5,1.2,2.4
		c0,1.2-0.7,2.3-1.8,2.8c-1.1,0.5-2.3,0.4-3.3-0.4L51.2,17.7c-0.7-0.6-1.8-0.6-2.5,0L14,45.2c-1,0.8-2.2,0.9-3.3,0.4
		C9.7,45,9,44,9,42.8C9,41.8,9.4,40.9,10.2,40.3z"/>
	<path d="M90.8,88.7c-2.5,2.5-6.7,2.5-9.2,0c-1.1-1.1-2.5-2-4-2.5c-3.8-1.3-8.1-0.4-10.9,2.5c-2.5,2.5-6.7,2.5-9.2,0
		c-4.1-4.1-10.8-4.1-14.9,0c-2.5,2.5-6.7,2.5-9.2,0c-2.8-2.8-7.1-3.8-10.9-2.5c-1.5,0.5-2.8,1.4-4,2.5c-1.2,1.2-2.9,1.9-4.6,1.9
		c-1.7,0-3.4-0.7-4.6-1.9c-0.8-0.8-2-0.8-2.8,0c-0.8,0.8-0.8,2,0,2.8c2.1,2.1,4.8,3.1,7.4,3.1c2.7,0,5.4-1,7.4-3.1
		c0.7-0.7,1.5-1.2,2.5-1.5c2.4-0.8,5-0.2,6.8,1.5c4.1,4.1,10.8,4.1,14.9,0c2.5-2.5,6.7-2.5,9.2,0c4.1,4.1,10.8,4.1,14.9,0
		c1.8-1.8,4.4-2.4,6.8-1.5c0.9,0.3,1.8,0.8,2.5,1.5c4.1,4.1,10.8,4.1,14.9,0c0.8-0.8,0.8-2,0-2.8S91.6,87.9,90.8,88.7z"/>
	<path d="M43,38.1c0,3.9,3.1,7,7,7s7-3.1,7-7s-3.1-7-7-7S43,34.2,43,38.1z M53,38.1c0,1.6-1.3,3-3,3s-3-1.4-3-3c0-1.7,1.3-3,3-3
		S53,36.5,53,38.1z"/>
</g>
</svg>
