<?xml version="1.0" encoding="utf-8"?>
<!-- Generator: Adobe Illustrator 21.0.2, SVG Export Plug-In . SVG Version: 6.00 Build 0)  -->
<svg version="1.1" id="Layer_1" xmlns="http://www.w3.org/2000/svg" xmlns:xlink="http://www.w3.org/1999/xlink" x="0px" y="0px"
	 viewBox="0 0 100 100" style="enable-background:new 0 0 100 100;" xml:space="preserve">
<g>
	<path d="M50,40c-5.5,0-10,4.5-10,10s4.5,10,10,10s10-4.5,10-10S55.5,40,50,40z M50,56c-3.3,0-6-2.7-6-6s2.7-6,6-6s6,2.7,6,6
		S53.3,56,50,56z"/>
	<path d="M84.6,50c3-2.2,5.2-5.4,6.2-9c1.2-4.4,0.7-9-1.5-12.9c-4.4-7.9-14.3-10.9-22.3-7C66.5,12.1,59.1,5,50,5s-16.5,7.1-17,16.1
		c-3.8-1.8-8-2.2-12.1-1.1c-4.4,1.2-8,4.1-10.2,8.1C6.5,35.6,8.7,45,15.4,50c-6.8,5-8.9,14.4-4.7,21.9c4.4,7.9,14.3,10.9,22.3,7
		c0.5,9,7.9,16.1,17,16.1s16.5-7.1,17-16.1c8,3.9,17.9,0.9,22.3-7c2.2-4,2.8-8.5,1.5-12.9C89.8,55.4,87.6,52.2,84.6,50z M66.9,25.7
		l1.2-0.7c6.2-3.5,14.2-1.2,17.7,5c1.7,3,2.1,6.5,1.2,9.9c-0.9,3.3-3.1,6.1-6.2,7.8L80.2,48H67.9c-0.5-4.8-3-9.1-6.6-12l5.5-10
		C66.8,25.9,66.8,25.8,66.9,25.7z M64,50c0,7.7-6.3,14-14,14s-14-6.3-14-14c0-7.7,6.3-14,14-14S64,42.3,64,50z M37,24.4V22
		c0-7.2,5.8-13,13-13s13,5.8,13,13v2.4c0,0,0,0,0,0l-5.1,9.4C55.5,32.7,52.8,32,50,32s-5.5,0.7-7.9,1.8L37,24.4
		C37,24.5,37,24.5,37,24.4z M13,39.9c-1-3.3-0.5-6.9,1.2-9.9c1.7-3,4.5-5.2,7.8-6.2c3.3-0.9,6.8-0.5,9.9,1.2l1.2,0.7
		c0,0.1,0.1,0.2,0.1,0.3l5.5,10c-3.6,2.9-6.1,7.2-6.6,12H19.8l-0.5-0.3C16.2,46,14,43.2,13,39.9z M33.1,74.3L31.9,75
		c-6.3,3.5-14.2,1.2-17.7-5c-3.5-6.3-1.2-14.2,5-17.7l0.5-0.3h12.4c0.5,4.8,3,9.1,6.6,12l-5.5,10C33.2,74.1,33.2,74.2,33.1,74.3z
		 M63,75.6V78c0,7.2-5.8,13-13,13s-13-5.8-13-13v-2.4c0,0,0,0,0,0l5.1-9.4c2.4,1.2,5.1,1.9,7.9,1.9s5.5-0.7,7.9-1.9L63,75.6
		C63,75.5,63,75.5,63,75.6z M85.8,70c-3.5,6.3-11.4,8.5-17.7,5l-1.2-0.7c0-0.1-0.1-0.2-0.1-0.3l-5.5-10c3.6-2.9,6.1-7.2,6.6-12h12.4
		l0.5,0.3C87,55.8,89.3,63.7,85.8,70z"/>
</g>
</svg>
