<?xml version="1.0" encoding="utf-8"?>
<!-- Generator: Adobe Illustrator 21.0.2, SVG Export Plug-In . SVG Version: 6.00 Build 0)  -->
<svg version="1.1" id="Layer_1" xmlns="http://www.w3.org/2000/svg" xmlns:xlink="http://www.w3.org/1999/xlink" x="0px" y="0px"
	 viewBox="0 0 100 100" style="enable-background:new 0 0 100 100;" xml:space="preserve">
<path d="M75.5,31.3c-2.6-3-6.6-4.3-10.4-3.5c-0.6,0.1-1.2,0.3-1.8,0.5l-2,0.8c-0.2-0.5-0.4-0.9-0.6-1.4l2-0.8
	c0.6-0.2,1.1-0.5,1.6-0.9c3.3-2.1,5.2-5.9,4.9-9.9l-0.2-2.2l-2.2-0.2c-4-0.3-7.8,1.6-9.9,4.9c-0.3,0.5-0.6,1.1-0.9,1.6l-0.8,2
	c-0.5-0.2-0.9-0.4-1.4-0.6l0.8-1.9c0.2-0.6,0.4-1.2,0.5-1.9c0.8-3.8-0.5-7.8-3.5-10.3L50,6l-1.7,1.5c-3,2.6-4.3,6.6-3.5,10.4
	c0.1,0.6,0.3,1.2,0.5,1.8l0.8,1.9c-0.4,0.2-0.9,0.3-1.3,0.5l-0.8-2c-0.2-0.6-0.5-1.1-0.9-1.6c-2.1-3.3-5.9-5.2-9.9-4.9l-2.2,0.2
	l-0.2,2.2c-0.3,4,1.6,7.8,4.9,9.9c0.5,0.3,1,0.6,1.6,0.9l2,0.8c-0.2,0.5-0.4,0.9-0.6,1.4l-2-0.8c-0.6-0.2-1.2-0.4-1.8-0.5
	c-3.8-0.8-7.8,0.5-10.4,3.5L23,33l1.4,1.7c2.6,3,6.6,4.3,10.4,3.5c0.6-0.1,1.2-0.3,1.8-0.5l2-0.8c0.2,0.5,0.3,0.9,0.6,1.4l-2,0.9
	c-0.6,0.2-1.1,0.5-1.6,0.9c-3.3,2.1-5.2,5.9-4.9,9.9l0.2,2.2l2.2,0.2c4,0.3,7.8-1.6,9.9-4.9c0.3-0.5,0.6-1.1,0.9-1.6l0.8-2
	c0.4,0.2,0.9,0.4,1.4,0.6l-0.8,2c-0.2,0.6-0.4,1.2-0.5,1.8c-0.8,3.7,0.4,7.5,3.2,10.1V70c-1.8-2.4-4.7-4-8-4H30c0,5.5,4.5,10,10,10
	h8v16c0,1.1,0.9,2,2,2s2-0.9,2-2v-8h8c5.5,0,10-4.5,10-10H60c-3.3,0-6.2,1.6-8,4V58.2c2.8-2.6,4-6.5,3.2-10.1
	c-0.1-0.6-0.3-1.2-0.5-1.8l-0.8-2c0.5-0.2,0.9-0.3,1.4-0.6l0.8,2c0.2,0.6,0.5,1.1,0.9,1.6c2.1,3.3,5.9,5.2,9.9,4.9l2.2-0.2l0.2-2.2
	c0.3-4-1.6-7.8-4.9-9.9c-0.5-0.3-1.1-0.6-1.6-0.9l-2-0.9c0.2-0.4,0.4-0.9,0.6-1.4l2,0.8c0.6,0.2,1.2,0.4,1.8,0.5
	c3.8,0.8,7.8-0.5,10.4-3.5L77,33L75.5,31.3z"/>
</svg>
