<?xml version="1.0" encoding="utf-8"?>
<!-- Generator: Adobe Illustrator 21.0.2, SVG Export Plug-In . SVG Version: 6.00 Build 0)  -->
<svg version="1.1" id="Layer_1" xmlns="http://www.w3.org/2000/svg" xmlns:xlink="http://www.w3.org/1999/xlink" x="0px" y="0px"
	 viewBox="0 0 100 100" style="enable-background:new 0 0 100 100;" xml:space="preserve">
<path d="M78.5,32.7L77.1,31c-2.4-2.7-5.7-4.3-9.1-4.5c2.3-2.5,3.5-6,3.3-9.6l-0.2-2.2c-0.1-1-0.8-1.8-1.8-1.8L67,12.8
	c-3.6-0.3-7,1-9.6,3.3c-0.2-3.5-1.7-6.8-4.5-9.1l-1.7-1.5c-0.8-0.6-1.8-0.6-2.6,0L47,6.9c-2.8,2.4-4.3,5.7-4.5,9.2
	c-2.5-2.3-6-3.5-9.6-3.3L30.8,13c-1,0.1-1.8,0.9-1.8,1.8l-0.2,2.2c-0.3,3.5,0.9,6.9,3.2,9.5c-3.4,0.2-6.7,1.7-9,4.4l-1.5,1.7
	c-0.6,0.8-0.6,1.8,0,2.6l1.5,1.7c2.4,2.7,5.7,4.3,9.1,4.4c-2.3,2.5-3.6,6-3.3,9.6l0.2,2.2c0.1,1,0.8,1.8,1.8,1.8l2.2,0.2
	c0.3,0,0.7,0,1,0c3.2,0,6.3-1.2,8.6-3.3c0.2,3.5,1.7,6.8,4.5,9.1l1,0.8v6.2c-2.1-1.9-4.9-3.1-8-3.1H30c-1.1,0-2,0.9-2,2
	c0,6.6,5.4,12,12,12h8v14c0,1.1,0.9,2,2,2s2-0.9,2-2v-6h8c6.6,0,12-5.4,12-12c0-1.1-0.9-2-2-2H60c-3.1,0-5.9,1.2-8,3.1V61.9l1-0.8
	c2.7-2.4,4.3-5.7,4.5-9.1c2.3,2.1,5.3,3.3,8.6,3.3c0.3,0,0.6,0,1,0l2.2-0.2c1-0.1,1.8-0.9,1.8-1.8l0.2-2.2c0.3-3.6-1-7-3.3-9.6
	c3.5-0.2,6.8-1.7,9.1-4.4l1.5-1.7C79.2,34.5,79.2,33.5,78.5,32.7z M40,75c-3.7,0-6.9-2.5-7.8-6H40c3.7,0,6.9,2.5,7.8,6H40z M60,77
	h7.8c-0.9,3.5-4,6-7.8,6h-7.8C53.1,79.5,56.3,77,60,77z M57.9,22.1c1.5-3.5,5-5.6,8.8-5.3l0.5,0l0,0.5c0.3,3.8-1.8,7.3-5.3,8.8
	l-1.3,0.5c-0.9-1.3-2-2.4-3.3-3.3L57.9,22.1z M49.6,10L50,9.6l0.4,0.3c2.9,2.5,3.8,6.5,2.4,10l-0.5,1.3C51.6,21.1,50.8,21,50,21
	s-1.6,0.1-2.3,0.2l-0.5-1.3C45.8,16.4,46.8,12.4,49.6,10z M32.8,17.4l0-0.5l0.5,0c3.8-0.3,7.3,1.8,8.8,5.3l0.5,1.2
	c-1.3,0.9-2.4,2-3.3,3.3l-1.2-0.5C34.6,24.6,32.5,21.1,32.8,17.4z M26,34.4L25.6,34l0.3-0.4c2.5-2.9,6.5-3.8,10-2.4l1.3,0.5
	C37.1,32.4,37,33.2,37,34c0,0.8,0.1,1.6,0.2,2.3l-1.3,0.5C32.4,38.2,28.4,37.2,26,34.4z M42.1,45.9c-1.5,3.5-5,5.6-8.8,5.3l-0.5,0
	l0-0.5c-0.3-3.8,1.8-7.3,5.3-8.8l1.3-0.5c0.9,1.3,2,2.4,3.3,3.3L42.1,45.9z M50.4,58L50,58.4L49.6,58c-2.9-2.5-3.8-6.5-2.4-10
	l0.5-1.3c0.8,0.1,1.5,0.2,2.3,0.2s1.6-0.1,2.3-0.2l0.5,1.3C54.2,51.6,53.2,55.6,50.4,58z M50,43c-5,0-9-4-9-9c0-5,4-9,9-9s9,4,9,9
	C59,39,55,43,50,43z M67.2,50.7l0,0.5l-0.5,0c-3.8,0.3-7.3-1.9-8.8-5.3l-0.5-1.3c1.3-0.9,2.4-2,3.3-3.3l1.3,0.5
	C65.4,43.4,67.5,46.9,67.2,50.7z M74,34.4c-2.5,2.9-6.5,3.8-10,2.4l-1.3-0.5c0.1-0.8,0.2-1.5,0.2-2.3c0-0.8-0.1-1.6-0.2-2.3l1.3-0.5
	c3.5-1.4,7.5-0.4,10,2.4l0.3,0.4L74,34.4z"/>
</svg>
