<?xml version="1.0" encoding="utf-8"?>
<!-- Generator: Adobe Illustrator 21.0.2, SVG Export Plug-In . SVG Version: 6.00 Build 0)  -->
<svg version="1.1" id="Layer_1" xmlns="http://www.w3.org/2000/svg" xmlns:xlink="http://www.w3.org/1999/xlink" x="0px" y="0px"
	 viewBox="0 0 100 100" style="enable-background:new 0 0 100 100;" xml:space="preserve">
<path d="M81.8,50.6l-1-0.6l1-0.6c7.2-4,9.8-13.2,5.8-20.4c-2.8-4.9-7.8-7.7-13.1-7.7c-2.5,0-5,0.6-7.3,1.9L65,24.4V22
	c0-8.3-6.7-15-15-15s-15,6.7-15,15v2.4l-2.1-1.2c-7.2-4-16.4-1.5-20.4,5.8c-1.3,2.3-1.9,4.8-1.9,7.3c0,5.3,2.8,10.4,7.7,13.1l1,0.6
	l-1,0.6c-7.2,4-9.8,13.2-5.8,20.4c2.8,4.9,7.8,7.7,13.1,7.7c2.5,0,5-0.6,7.3-1.9l2.1-1.2V78c0,8.3,6.7,15,15,15s15-6.7,15-15v-2.4
	l2.1,1.2c7.2,4,16.4,1.5,20.4-5.8c1.3-2.3,1.9-4.8,1.9-7.3C89.5,58.4,86.7,53.3,81.8,50.6z M50,63c-7.2,0-13-5.8-13-13s5.8-13,13-13
	s13,5.8,13,13S57.2,63,50,63z"/>
</svg>
