<?xml version="1.0" encoding="utf-8"?>
<!-- Generator: Adobe Illustrator 21.0.2, SVG Export Plug-In . SVG Version: 6.00 Build 0)  -->
<svg version="1.1" id="Layer_1" xmlns="http://www.w3.org/2000/svg" xmlns:xlink="http://www.w3.org/1999/xlink" x="0px" y="0px"
	 viewBox="0 0 100 100" style="enable-background:new 0 0 100 100;" xml:space="preserve">
<g>
	<path d="M79.5,59.6h-4.4v-4c0-1.1-0.9-2.1-2.1-2.1h-6c-1.1,0-2.1,0.9-2.1,2.1v4H54.2c0-0.2,0.1-0.3,0.1-0.5V35.5h-3.5v23.6
		c0,0.2,0,0.3,0.1,0.5H32.4l-2.7-9c-0.2-0.7-0.9-1.2-1.7-1.2H14c-1,0-1.7,0.8-1.7,1.7c0,1,0.8,1.7,1.7,1.7h12.7l2,6.8h-3.2
		c-2.2,0-4,1.8-4,4v2.1h62v-2.1C83.5,61.4,81.7,59.6,79.5,59.6z"/>
	<path d="M30.8,27.6c0-1,0.8-1.7,1.7-1.7s1.7,0.8,1.7,1.7v4.1h16.5v-4.1c0-1,0.8-1.7,1.7-1.7s1.7,0.8,1.7,1.7v4.1h16.5v-4.1
		c0-1,0.8-1.7,1.7-1.7s1.7,0.8,1.7,1.7v4.1h13.5c-2.1-4.5-6-8-10.7-9.6l-22.6-7.7V9.6c0-1.1-0.9-1.9-1.9-1.9s-1.9,0.9-1.9,1.9v4.7
		L28,22c-4.8,1.6-8.6,5.1-10.7,9.6h13.5V27.6z"/>
	<path d="M21.5,79.6c0,2.2,1.8,4,4,4h4.1c1.1-4.2,4.9-7.2,9.4-7.2s8.3,3.1,9.4,7.2h24.1v6.8c0,1,0.8,1.7,1.7,1.7s1.7-0.8,1.7-1.7
		v-6.8h3.5c2.2,0,4-1.8,4-4V69.5h-62V79.6z"/>
	<circle cx="39" cy="86.1" r="6.3"/>
</g>
</svg>
