<?xml version="1.0" encoding="utf-8"?>
<!-- Generator: Adobe Illustrator 21.0.2, SVG Export Plug-In . SVG Version: 6.00 Build 0)  -->
<svg version="1.1" id="Layer_1" xmlns="http://www.w3.org/2000/svg" xmlns:xlink="http://www.w3.org/1999/xlink" x="0px" y="0px"
	 viewBox="0 0 100 100" style="enable-background:new 0 0 100 100;" xml:space="preserve">
<g>
	<path d="M42,15h16c2.8,0,5.2,1.6,6.3,4H73v-6c0-2.2-1.8-4-4-4H31c-2.2,0-4,1.8-4,4v6h8.7C36.8,16.6,39.2,15,42,15z"/>
	<path d="M84.6,37.1L74,23h-9.1c-0.5,3.4-3.4,6-6.9,6H42c-3.5,0-6.4-2.6-6.9-6H26L15.4,37.1c-0.3,0.3-0.4,0.8-0.4,1.2V89
		c0,1.1,0.9,2,2,2h66c1.1,0,2-0.9,2-2V38.3C85,37.9,84.9,37.5,84.6,37.1z M74,68.9V75c0,5.5-4.5,10-10,10H36c-5.5,0-10-4.5-10-10
		v-6.1c-2.8-0.5-5-2.9-5-5.9c0-3,2.2-5.5,5.1-5.9C27.1,44.7,37.4,35,50,35s22.9,9.7,23.9,22.1C76.8,57.5,79,60,79,63
		C79,66,76.8,68.4,74,68.9z"/>
	<path d="M42,19c-1.7,0-3,1.3-3,3c0,1.6,1.3,3,3,3h16c1.7,0,3-1.4,3-3c0-1.7-1.3-3-3-3H42z"/>
	<path d="M50,39c-10.3,0-18.9,7.9-19.9,18h39.8C68.9,46.9,60.3,39,50,39z M41,49c-1.1,0-2-0.9-2-2c0-1.1,0.9-2,2-2s2,0.9,2,2
		C43,48.1,42.1,49,41,49z M50,53c-1.1,0-2-0.9-2-2c0-1.1,0.9-2,2-2s2,0.9,2,2C52,52.1,51.1,53,50,53z M59,49c-1.1,0-2-0.9-2-2
		c0-1.1,0.9-2,2-2s2,0.9,2,2C61,48.1,60.1,49,59,49z"/>
	<path d="M43.2,76.6C42.9,76.8,42.5,77,42,77c-0.1,0-0.2,0-0.2,0c-0.5-0.1-1-0.3-1.3-0.8L35,69h-5v6c0,3.3,2.7,6,6,6h28
		c3.3,0,6-2.7,6-6v-6H52.7L43.2,76.6z"/>
	<path d="M73,61H27c-1.1,0-2,0.9-2,2c0,1.1,0.9,2,2,2h46c1.1,0,2-0.9,2-2C75,61.9,74.1,61,73,61z"/>
	<polygon points="46.3,69 40,69 42.4,72.1 	"/>
</g>
</svg>
