<?xml version="1.0" encoding="utf-8"?>
<!-- Generator: Adobe Illustrator 21.0.2, SVG Export Plug-In . SVG Version: 6.00 Build 0)  -->
<svg version="1.1" id="Layer_1" xmlns="http://www.w3.org/2000/svg" xmlns:xlink="http://www.w3.org/1999/xlink" x="0px" y="0px"
	 viewBox="0 0 100 100" style="enable-background:new 0 0 100 100;" xml:space="preserve">
<path d="M90,34.3c-2.1-6.9-7.3-12.3-14.1-14.7l-23.8-8.2V6.9c0-1.1-0.9-1.9-1.9-1.9s-1.9,0.9-1.9,1.9v4.6l-23.8,8.2
	c-6.8,2.3-12,7.8-14.1,14.7c-0.2,0.6-0.1,1.2,0.3,1.7c0.4,0.5,0.9,0.8,1.5,0.8h36.3v22.1H30l-2.7-9c-0.2-0.7-0.9-1.2-1.7-1.2h-14
	c-1,0-1.7,0.8-1.7,1.7c0,1,0.8,1.7,1.7,1.7h12.7l2,6.8h-3.2c-3.3,0-6,2.7-6,6v16c0,3.3,2.7,6,6,6h3.9c0.7,4.6,4.8,8.2,9.6,8.2
	s8.9-3.6,9.6-8.2h24.2v6c0,1,0.8,1.7,1.7,1.7s1.7-0.8,1.7-1.7v-6h3.3c3.3,0,6-2.7,6-6v-16c0-3.3-2.7-6-6-6h-0.6v-4
	c0-3.3-2.7-5.9-5.9-5.9h-6c-3.3,0-5.9,2.7-5.9,5.9v4h-6.8V36.8h36.3c0.6,0,1.2-0.3,1.5-0.8C90.1,35.5,90.2,34.9,90,34.3z M36.7,91.6
	c-3.5,0-6.3-2.8-6.3-6.3c0-3.5,2.8-6.3,6.3-6.3s6.3,2.8,6.3,6.3C42.9,88.8,40.1,91.6,36.7,91.6z M79.2,80.9c0,1.1-0.9,2-2,2H46
	c-1.1-4.2-4.9-7.2-9.4-7.2s-8.3,3.1-9.4,7.2h-4.1c-1.1,0-2-0.9-2-2V70.8h58V80.9z M62.6,54.9c0-1.1,0.9-2.1,2.1-2.1h6
	c1.1,0,2.1,0.9,2.1,2.1v4H62.6V54.9z M77.2,62.9c1.1,0,2,0.9,2,2v2.1h-58v-2.1c0-1.1,0.9-2,2-2H77.2z M71.9,32.9v-4.1
	c0-1-0.8-1.7-1.7-1.7s-1.7,0.8-1.7,1.7v4.1H51.9v-4.1c0-1-0.8-1.7-1.7-1.7s-1.7,0.8-1.7,1.7v4.1H31.9v-4.1c0-1-0.8-1.7-1.7-1.7
	s-1.7,0.8-1.7,1.7v4.1H14.9c2.1-4.5,6-8,10.7-9.6l23.8-8.2c0.4-0.1,0.9-0.1,1.3,0l23.8,8.2c4.8,1.6,8.6,5.1,10.7,9.6H71.9z"/>
</svg>
