<?xml version="1.0" encoding="utf-8"?>
<!-- Generator: Adobe Illustrator 21.0.2, SVG Export Plug-In . SVG Version: 6.00 Build 0)  -->
<svg version="1.1" id="Layer_1" xmlns="http://www.w3.org/2000/svg" xmlns:xlink="http://www.w3.org/1999/xlink" x="0px" y="0px"
	 viewBox="0 0 100 100" style="enable-background:new 0 0 100 100;" xml:space="preserve">
<g>
	<path d="M87.8,34.7L77,20.3V13c0-4.4-3.6-8-8-8H31c-4.4,0-8,3.6-8,8v7.3L12.2,34.7c-0.8,1-1.2,2.3-1.2,3.6V89c0,3.3,2.7,6,6,6h66
		c3.3,0,6-2.7,6-6V38.3C89,37,88.6,35.8,87.8,34.7z M27,13c0-2.2,1.8-4,4-4h38c2.2,0,4,1.8,4,4v6h-8.7c-1.1-2.4-3.5-4-6.3-4H42
		c-2.8,0-5.2,1.6-6.3,4H27V13z M61,22c0,1.6-1.3,3-3,3H42c-1.7,0-3-1.4-3-3c0-1.7,1.3-3,3-3h16C59.7,19,61,20.3,61,22z M85,89
		c0,1.1-0.9,2-2,2H17c-1.1,0-2-0.9-2-2V38.3c0-0.4,0.1-0.8,0.4-1.2L26,23h9.1c0.5,3.4,3.4,6,6.9,6h16c3.5,0,6.4-2.6,6.9-6H74
		l10.6,14.1c0.3,0.3,0.4,0.8,0.4,1.2V89z"/>
	<path d="M73.9,57.1C72.9,44.7,62.6,35,50,35s-22.9,9.7-23.9,22.1C23.2,57.5,21,60,21,63c0,3,2.2,5.4,5,5.9V75c0,5.5,4.5,10,10,10
		h28c5.5,0,10-4.5,10-10v-6.1c2.8-0.5,5-2.9,5-5.9C79,60,76.8,57.5,73.9,57.1z M50,39c10.3,0,18.9,7.9,19.9,18H30.1
		C31.1,46.9,39.7,39,50,39z M70,75c0,3.3-2.7,6-6,6H36c-3.3,0-6-2.7-6-6v-6h5l5.4,7.2c0.3,0.4,0.8,0.7,1.3,0.8c0.1,0,0.2,0,0.2,0
		c0.5,0,0.9-0.2,1.2-0.4l9.5-7.6H70V75z M40,69h6.3l-3.9,3.1L40,69z M73,65H27c-1.1,0-2-0.9-2-2c0-1.1,0.9-2,2-2h46c1.1,0,2,0.9,2,2
		C75,64.1,74.1,65,73,65z"/>
	<circle cx="59" cy="47" r="2"/>
	<circle cx="41" cy="47" r="2"/>
	<circle cx="50" cy="51" r="2"/>
</g>
</svg>
