<?xml version="1.0" encoding="utf-8"?>
<!-- Generator: Adobe Illustrator 21.0.2, SVG Export Plug-In . SVG Version: 6.00 Build 0)  -->
<svg version="1.1" id="Layer_1" xmlns="http://www.w3.org/2000/svg" xmlns:xlink="http://www.w3.org/1999/xlink" x="0px" y="0px"
	 viewBox="0 0 100 100" style="enable-background:new 0 0 100 100;" xml:space="preserve">
<g>
	<path d="M93.2,79.1L65,50.8c-2.3-2.3-6.1-2.3-8.5,0l-1.4,1.4L39.4,36.6c3.1-4.3,3-10.2-0.5-14.5L25.5,5.7c-0.7-0.8-2-1-2.8-0.3
		c-0.8,0.7-1,2-0.3,2.8l13.4,16.4c2.6,3.2,2.4,7.8-0.5,10.6c-2.9,2.9-7.5,3.1-10.7,0.5L8.2,22.4c-0.8-0.7-2.1-0.6-2.8,0.3
		c-0.7,0.9-0.6,2.1,0.3,2.8l16.4,13.4c2.2,1.8,4.9,2.7,7.6,2.7c2.4,0,4.8-0.8,6.9-2.2l15.7,15.7l-1.4,1.4c-2.3,2.3-2.3,6.1,0,8.5
		l28.3,28.3c1.2,1.2,2.7,1.8,4.2,1.8c1.5,0,3.1-0.6,4.2-1.8l5.7-5.7C95.6,85.3,95.6,81.5,93.2,79.1z M90.4,84.8l-5.7,5.7
		c-0.8,0.8-2.1,0.8-2.8,0L53.7,62.1c-0.8-0.8-0.8-2.1,0-2.8l2.8-2.8c0,0,0,0,0,0c0,0,0,0,0,0l2.8-2.8c0.4-0.4,0.9-0.6,1.4-0.6
		s1,0.2,1.4,0.6l28.3,28.3C91.2,82.7,91.2,84,90.4,84.8z"/>
	<path d="M81.9,79.9c-1.1,0-2,0.9-2,2c0,1.1,0.9,2,2,2c1.1,0,2-0.9,2-2C83.9,80.8,83,79.9,81.9,79.9z"/>
</g>
</svg>
