<?xml version="1.0" encoding="utf-8"?>
<!-- Generator: Adobe Illustrator 21.0.2, SVG Export Plug-In . SVG Version: 6.00 Build 0)  -->
<svg version="1.1" id="Layer_1" xmlns="http://www.w3.org/2000/svg" xmlns:xlink="http://www.w3.org/1999/xlink" x="0px" y="0px"
	 viewBox="0 0 100 100" style="enable-background:new 0 0 100 100;" xml:space="preserve">
<g>
	<path d="M47.2,27.1c1.9,2.3,3.2,5,3.8,7.9h5.5l2.4-4.2c0.8-1.4,2.1-2.4,3.6-2.8c0.9-0.2,1.8-0.3,2.6-0.1l0.1-0.2
		c-0.1-2.9-1.2-5.8-3.1-8c-2.5-3-6.2-4.7-10.1-4.7s-7.6,1.7-10.1,4.7c-0.7,0.8-1.2,1.6-1.7,2.5C42.9,23.2,45.3,24.9,47.2,27.1z"/>
	<path d="M44.1,29.7c-2.5-3-6.2-4.7-10.1-4.7s-7.6,1.7-10.1,4.7c-1.3,1.6-2.2,3.4-2.7,5.3h25.7C46.3,33.1,45.4,31.2,44.1,29.7z"/>
	<path d="M63.5,31.9c-0.5,0.1-1,0.5-1.2,0.9L61,35h9.1L65,32.1C64.6,31.8,64,31.7,63.5,31.9z"/>
	<path d="M25.4,89.3c0.2,1,1,1.7,2,1.7h45.2c1,0,1.8-0.7,2-1.7L81.6,47H18.4L25.4,89.3z M63,85H37c-1.1,0-2-0.9-2-2c0-1.1,0.9-2,2-2
		h26c1.1,0,2,0.9,2,2C65,84.1,64.1,85,63,85z M50,53c9.5,0,17,5.3,17,12c0,6.7-7.5,12-17,12s-17-5.3-17-12C33,58.3,40.5,53,50,53z"
		/>
	<path d="M50,73c7,0,13-3.7,13-8c0-4.3-6-8-13-8s-13,3.7-13,8C37,69.3,43,73,50,73z"/>
	<path d="M77.5,30.4c2.2-3.9,5.8-6.6,9.8-7.5c1.4-0.3,2.5-1.3,2.9-2.7c0.5-1.5,0-3.1-1.1-4.1c-1-0.8-2.1-1.2-3.4-1
		C84.6,15.3,83.6,16,83,17c-0.6,1-1.8,1.3-2.7,0.7c-0.6-0.4-1-1-1-1.7c0-0.3,0.1-0.7,0.3-1c0.6-1,0.7-2.3,0.3-3.4
		c-0.4-1.1-1.4-2-2.6-2.4c-1.4-0.5-3.1,0-4.1,1.1c-1,1.1-1.3,2.5-0.9,3.9c1.2,3.9,0.6,8.4-1.6,12.2l-1.8,3.2l6.9,4L77.5,30.4z"/>
	<path d="M89,39H11c-1.1,0-2,0.9-2,2c0,1.1,0.9,2,2,2h78c1.1,0,2-0.9,2-2C91,39.9,90.1,39,89,39z"/>
</g>
</svg>
