<?xml version="1.0" encoding="utf-8"?>
<!-- Generator: Adobe Illustrator 21.0.2, SVG Export Plug-In . SVG Version: 6.00 Build 0)  -->
<svg version="1.1" id="Layer_1" xmlns="http://www.w3.org/2000/svg" xmlns:xlink="http://www.w3.org/1999/xlink" x="0px" y="0px"
	 viewBox="0 0 100 100" style="enable-background:new 0 0 100 100;" xml:space="preserve">
<g>
	<path d="M63,81H37c-1.1,0-2,0.9-2,2c0,1.1,0.9,2,2,2h26c1.1,0,2-0.9,2-2C65,81.9,64.1,81,63,81z"/>
	<path d="M50,77c9.5,0,17-5.3,17-12c0-6.7-7.5-12-17-12s-17,5.3-17,12C33,71.7,40.5,77,50,77z M50,57c7,0,13,3.7,13,8
		c0,4.3-6,8-13,8s-13-3.7-13-8C37,60.7,43,57,50,57z"/>
	<path d="M89,35h-9.5l1.5-2.6c1.7-2.9,4.3-5,7.2-5.6c2.8-0.6,5-2.6,5.9-5.4c1-2.9,0.1-6.3-2.2-8.4c-1.8-1.6-4.3-2.4-6.7-2
		c-0.4,0.1-0.9,0.2-1.3,0.3c-0.1-0.4-0.2-0.9-0.4-1.3c-0.9-2.3-2.7-4-5-4.8c-2.9-1-6.3-0.1-8.4,2.2c-1.9,2.1-2.6,5-1.7,7.8
		c0.7,2.1,0.6,4.5-0.2,6.8c-0.7-1.8-1.7-3.6-3-5.1C61.9,13.2,57.1,11,52,11s-9.9,2.2-13.2,6.1c-1.1,1.2-1.9,2.6-2.5,4.1
		C35.5,21.1,34.8,21,34,21c-5.1,0-9.9,2.2-13.2,6.1c-1.9,2.3-3.2,5-3.8,7.9H11c-3.3,0-6,2.7-6,6s2.7,6,6,6h3.3l7.2,43
		c0.5,2.9,3,5,5.9,5h45.2c3,0,5.4-2.1,5.9-5l7.2-43H89c3.3,0,6-2.7,6-6S92.3,35,89,35z M70.6,26.4c2.2-3.9,2.8-8.3,1.6-12.2
		c-0.4-1.4-0.1-2.8,0.9-3.9c1-1.1,2.7-1.6,4.1-1.1c1.2,0.4,2.1,1.2,2.6,2.4c0.4,1.1,0.3,2.4-0.3,3.4c-0.2,0.3-0.3,0.7-0.3,1
		c0,0.7,0.4,1.4,1,1.7c1,0.5,2.2,0.2,2.7-0.7c0.6-1,1.6-1.8,2.8-1.9c1.2-0.2,2.4,0.2,3.4,1c1.1,1,1.6,2.7,1.1,4.1
		c-0.5,1.4-1.5,2.4-2.9,2.7c-4,0.9-7.5,3.6-9.8,7.5l-1.8,3.2l-6.9-4L70.6,26.4z M70.1,35H61l1.3-2.2c0.3-0.5,0.7-0.8,1.2-0.9
		c0.5-0.1,1-0.1,1.5,0.2L70.1,35z M41.9,19.7c2.5-3,6.2-4.7,10.1-4.7s7.6,1.7,10.1,4.7c1.9,2.3,3,5.1,3.1,8l-0.1,0.2
		c-0.9-0.2-1.8-0.1-2.6,0.1c-1.5,0.4-2.8,1.4-3.6,2.8L56.4,35h-5.5c-0.5-2.9-1.8-5.6-3.8-7.9c-1.9-2.2-4.3-3.9-6.9-4.9
		C40.7,21.3,41.2,20.5,41.9,19.7z M23.9,29.7c2.5-3,6.2-4.7,10.1-4.7s7.6,1.7,10.1,4.7c1.3,1.6,2.2,3.4,2.7,5.3H21.2
		C21.7,33.1,22.6,31.2,23.9,29.7z M74.6,89.3c-0.2,1-1,1.7-2,1.7H27.4c-1,0-1.8-0.7-2-1.7L18.4,47h63.3L74.6,89.3z M89,43H11
		c-1.1,0-2-0.9-2-2c0-1.1,0.9-2,2-2h78c1.1,0,2,0.9,2,2C91,42.1,90.1,43,89,43z"/>
</g>
</svg>
