<?xml version="1.0" encoding="utf-8"?>
<!-- Generator: Adobe Illustrator 21.0.2, SVG Export Plug-In . SVG Version: 6.00 Build 0)  -->
<svg version="1.1" id="Layer_1" xmlns="http://www.w3.org/2000/svg" xmlns:xlink="http://www.w3.org/1999/xlink" x="0px" y="0px"
	 viewBox="0 0 100 100" style="enable-background:new 0 0 100 100;" xml:space="preserve">
<path d="M81,29.1H70.4l7.7-12.6c1.1-1.8,1.4-4,0.8-6c-0.6-2-1.9-3.8-3.8-4.7c-1.8-1-4.1-1.2-6-0.5c-2,0.7-3.6,2.2-4.5,4.1l-9.1,19.8
	H19c-1.1,0-2,0.9-2,2c0,1.1,0.9,2,2,2h4.1l3.6,48.4c0.2,2.8,2.3,5,5,5.5l2.4,4.8c1,2,3.1,3.3,5.4,3.3h21.1c2.3,0,4.3-1.3,5.4-3.3
	l2.4-4.8c2.7-0.5,4.8-2.7,5-5.5l3.6-48.4H81c1.1,0,2-0.9,2-2C83,30,82.1,29.1,81,29.1z M68.3,11c0.4-0.9,1.2-1.6,2.1-1.9
	c1-0.3,2-0.2,2.9,0.2c0.9,0.5,1.5,1.3,1.8,2.3c0.3,1,0.1,2-0.4,2.9l-9,14.7H60L68.3,11z M29.1,59.1h7.3c-0.1,0.7,0,1.5,0.1,2.2
	c0.2,1.3,0.6,2.6,1,3.8h-8L29.1,59.1z M62.3,90c-0.3,0.7-1,1.1-1.8,1.1H39.5c-0.8,0-1.4-0.4-1.8-1.1l-1.4-2.9h27.5L62.3,90z
	 M69.3,81.3c-0.1,1-1,1.9-2,1.9H32.7c-1,0-1.9-0.8-2-1.9l-0.9-12.1h9.6c1.8,3,4.4,5.6,7.5,7.5c1,0.6,2,0.9,3.1,0.9s2.1-0.3,3.1-0.9
	c3.1-1.9,5.7-4.5,7.5-7.5h9.6L69.3,81.3z M41.7,56.1c1.1-1.3,2.6-2,4.3-2h8c1.7,0,3.2,0.7,4.3,2c1.1,1.3,1.5,2.9,1.2,4.6
	c-0.9,5.2-4,9.8-8.5,12.5c-0.6,0.4-1.4,0.4-2.1,0c-4.5-2.7-7.6-7.3-8.5-12.5C40.2,59,40.6,57.4,41.7,56.1z M70.5,65.1h-8
	c0.4-1.2,0.8-2.5,1-3.8c0.1-0.7,0.2-1.5,0.1-2.2h7.3L70.5,65.1z M71.2,55.1h-8.8c-0.3-0.6-0.7-1.1-1.1-1.6c-1.2-1.5-2.9-2.5-4.7-3
	c0.8-1.3,1.3-2.8,1.3-4.4c0-1.1-0.9-2-2-2s-2,0.9-2,2c0,1.5-0.8,2.8-2,3.4v-3.4c0-1.1-0.9-2-2-2s-2,0.9-2,2v3.4c-1.2-0.7-2-2-2-3.4
	c0-1.1-0.9-2-2-2s-2,0.9-2,2c0,1.6,0.5,3.1,1.3,4.4c-1.8,0.5-3.4,1.5-4.7,3c-0.4,0.5-0.8,1-1.1,1.6h-8.8l-1.6-22h45.7L71.2,55.1z"/>
</svg>
