<?xml version="1.0" encoding="utf-8"?>
<!-- Generator: Adobe Illustrator 21.0.2, SVG Export Plug-In . SVG Version: 6.00 Build 0)  -->
<svg version="1.1" id="Layer_1" xmlns="http://www.w3.org/2000/svg" xmlns:xlink="http://www.w3.org/1999/xlink" x="0px" y="0px"
	 viewBox="0 0 100 100" style="enable-background:new 0 0 100 100;" xml:space="preserve">
<g>
	<path d="M60.6,70.1c-1.8,3-4.4,5.6-7.5,7.5c-1,0.6-2,0.9-3.1,0.9s-2.1-0.3-3.1-0.9c-3.1-1.9-5.7-4.5-7.5-7.5H28c-0.1,0-0.1,0-0.2,0
		l0.9,12.3c0.2,2.1,1.9,3.7,4,3.7H33l2.9,5.8c0.7,1.4,2.1,2.2,3.6,2.2h21.1c1.5,0,2.9-0.9,3.6-2.2l2.9-5.8h0.3c2.1,0,3.8-1.6,4-3.7
		l0.9-12.3c-0.1,0-0.1,0-0.2,0H60.6z"/>
	<path d="M63.5,62.3c-0.2,1.3-0.6,2.6-1,3.8H72c0.2,0,0.3,0,0.5,0.1l0.5-6.1h-9.3C63.7,60.9,63.6,61.6,63.5,62.3z"/>
	<path d="M37.5,66.1c-0.4-1.2-0.8-2.5-1-3.8c-0.1-0.7-0.2-1.5-0.1-2.2h-9.3l0.5,6.1c0.2,0,0.3-0.1,0.5-0.1H37.5z"/>
	<path d="M81,30.1H66.9l9.5-15.7c1.7-2.8,0.7-6.4-2.2-7.9c-2.9-1.5-6.5-0.3-7.8,2.6l-9.6,21H19c-1.1,0-2,0.9-2,2c0,1.1,0.9,2,2,2
		h6.2l1.6,22c0.1,0,0.1,0,0.2,0h10.6c0.3-0.6,0.7-1.1,1.1-1.6c1.2-1.5,2.9-2.5,4.7-3c-0.8-1.3-1.3-2.8-1.3-4.4c0-1.1,0.9-2,2-2
		s2,0.9,2,2c0,1.5,0.8,2.8,2,3.4v-3.4c0-1.1,0.9-2,2-2s2,0.9,2,2v3.4c1.2-0.7,2-2,2-3.4c0-1.1,0.9-2,2-2s2,0.9,2,2
		c0,1.6-0.5,3.1-1.3,4.4c1.8,0.5,3.4,1.5,4.7,3c0.4,0.5,0.8,1,1.1,1.6H73c0.1,0,0.2,0,0.2,0l1.6-22H81c1.1,0,2-0.9,2-2
		C83,31,82.1,30.1,81,30.1z"/>
	<path d="M49,74.2c0.6,0.4,1.4,0.4,2.1,0c4.5-2.7,7.6-7.3,8.5-12.5c0.3-1.6-0.2-3.3-1.2-4.6c-1.1-1.3-2.6-2-4.3-2h-8
		c-1.7,0-3.2,0.7-4.3,2c-1.1,1.3-1.5,2.9-1.2,4.6C41.3,66.9,44.4,71.5,49,74.2z"/>
</g>
</svg>
