<?xml version="1.0" encoding="utf-8"?>
<!-- Generator: Adobe Illustrator 21.0.2, SVG Export Plug-In . SVG Version: 6.00 Build 0)  -->
<svg version="1.1" id="Layer_1" xmlns="http://www.w3.org/2000/svg" xmlns:xlink="http://www.w3.org/1999/xlink" x="0px" y="0px"
	 viewBox="0 0 100 100" style="enable-background:new 0 0 100 100;" xml:space="preserve">
<g>
	<path d="M34,61.5c1,0,1.9-0.1,2.8-0.2l-1.8-15c-0.1-0.7,0.2-1.4,0.8-1.8s1.3-0.5,2-0.2c4.9,2.1,9.1,5.6,12.1,10.1l0.6,0.8
		c3.6-2.7,7.8-4.4,12.3-5.1c0.6-0.1,1.2,0.1,1.7,0.6c0.4,0.5,0.7,1.1,0.6,1.7l-1.3,9c0.9,0.1,1.9,0.2,2.8,0.2
		c10.4,0,18.8-7.4,18.8-16.5c0-4-1.6-7.6-4.2-10.4c0.5-1.4,0.8-3,0.8-4.6c0-8.2-7.5-14.9-16.8-15c-2.6-5.3-8.6-9-15.6-9
		c-7.1,0-13.1,3.8-15.7,9.1c-8.5,0.9-15,7.2-15,14.9c0,1.6,0.3,3.1,0.8,4.6c-2.6,2.8-4.2,6.5-4.2,10.4C15.2,54.1,23.7,61.5,34,61.5z
		 M73,46c1.1,0,2,0.9,2,2c0,1.1-0.9,2-2,2s-2-0.9-2-2C71,46.9,71.9,46,73,46z M67,24c2.2,0,4,1.8,4,4c0,2.2-1.8,4-4,4s-4-1.8-4-4
		C63,25.8,64.8,24,67,24z M53,36c2.2,0,4,1.8,4,4c0,2.2-1.8,4-4,4s-4-1.8-4-4C49,37.8,50.8,36,53,36z M48,18c1.1,0,2,0.9,2,2
		c0,1.1-0.9,2-2,2s-2-0.9-2-2C46,18.9,46.9,18,48,18z M33,28c2.2,0,4,1.8,4,4c0,2.2-1.8,4-4,4s-4-1.8-4-4C29,29.8,30.8,28,33,28z
		 M27,46c1.1,0,2,0.9,2,2c0,1.1-0.9,2-2,2s-2-0.9-2-2C25,46.9,25.9,46,27,46z"/>
	<path d="M93,90H64.4c-4.6-8.1-6.4-17.6-5-26.9l1.3-8.5c-3.2,0.9-6.2,2.4-8.8,4.5l-0.6,0.5c-0.4,0.4-1,0.5-1.6,0.4s-1.1-0.4-1.4-0.9
		l-1.8-2.7c-1.9-2.8-4.3-5.2-7.1-6.9l1.6,13.5c1.1,9.4-0.8,18.8-5.5,26.9H7c-1.1,0-2,0.9-2,2c0,1.1,0.9,2,2,2h86c1.1,0,2-0.9,2-2
		C95,90.9,94.1,90,93,90z"/>
</g>
</svg>
