<?xml version="1.0" encoding="utf-8"?>
<!-- Generator: Adobe Illustrator 21.0.2, SVG Export Plug-In . SVG Version: 6.00 Build 0)  -->
<svg version="1.1" id="Layer_1" xmlns="http://www.w3.org/2000/svg" xmlns:xlink="http://www.w3.org/1999/xlink" x="0px" y="0px"
	 viewBox="0 0 100 100" style="enable-background:new 0 0 100 100;" xml:space="preserve">
<g>
	<path d="M93,91H69.1c-5.1-7.8-7.2-17.1-5.8-26.4l0-0.4c1.1,0.2,2.1,0.2,3.1,0.2c11.5,0,20.8-8.3,20.8-18.5c0-3.9-1.4-7.7-4-10.9
		c0.4-1.3,0.6-2.7,0.6-4.1c0-8.9-7.8-16.2-17.6-16.9C63,8.5,56.5,5,49.4,5c-7.2,0-13.8,3.6-17,9.3c-9,1.4-15.7,8.5-15.7,16.7
		c0,1.4,0.2,2.8,0.6,4.1c-2.6,3.2-4,7-4,10.9c0,10.2,9.3,18.5,20.8,18.5c0.9,0,1.9-0.1,3-0.2l0,0.3c0.2,1.6,0.3,3.2,0.3,4.8
		c0,7.7-2.2,15.2-6.5,21.7H7c-1.1,0-2,0.9-2,2c0,1.1,0.9,2,2,2h86c1.1,0,2-0.9,2-2C95,91.9,94.1,91,93,91z M35.8,45.4
		c-0.6,0.4-0.9,1.1-0.8,1.8l1.6,13.1c-0.9,0.1-1.8,0.2-2.6,0.2c-9.2,0-16.8-6.5-16.8-14.5c0-3.3,1.3-6.5,3.7-9.1
		c0.5-0.5,0.7-1.4,0.4-2c-0.5-1.3-0.7-2.6-0.7-3.9c0-6.6,5.7-12.1,13.2-12.9c0.7-0.1,1.3-0.5,1.6-1.1c2.4-4.8,7.8-8,13.9-8
		c6,0,11.5,3.1,13.8,7.9c0.3,0.7,1,1.1,1.8,1.1c8.2,0.1,14.8,5.9,14.8,13c0,1.3-0.2,2.6-0.7,3.9c-0.3,0.7-0.1,1.5,0.4,2
		c2.4,2.6,3.7,5.7,3.7,9.1c0,8-7.5,14.5-16.8,14.5c-0.8,0-1.7-0.1-2.5-0.2l1-7c0.1-0.6-0.1-1.2-0.6-1.7c-0.5-0.4-1.1-0.7-1.7-0.6
		c-4.5,0.6-8.7,2.4-12.3,5.1l-0.6-0.8c-3-4.5-7.2-8-12.1-10.1C37.1,44.9,36.4,45,35.8,45.4z M35.6,91c4.7-8.1,6.6-17.6,5.5-26.9
		l-1.6-13.5c2.8,1.8,5.2,4.1,7.1,6.9l1.8,2.7c0.3,0.5,0.8,0.8,1.4,0.9s1.1-0.1,1.6-0.4l0.6-0.5c2.6-2.1,5.6-3.7,8.8-4.5l-1.3,8.5
		c-1.4,9.4,0.4,18.8,5,26.9H35.6z"/>
	<path d="M33,27c-3.3,0-6,2.7-6,6s2.7,6,6,6s6-2.7,6-6S36.3,27,33,27z M33,35c-1.1,0-2-0.9-2-2c0-1.1,0.9-2,2-2s2,0.9,2,2
		C35,34.1,34.1,35,33,35z"/>
	<path d="M47,41c0,3.3,2.7,6,6,6s6-2.7,6-6s-2.7-6-6-6S47,37.7,47,41z M53,39c1.1,0,2,0.9,2,2c0,1.1-0.9,2-2,2s-2-0.9-2-2
		C51,39.9,51.9,39,53,39z"/>
	<path d="M67,35c3.3,0,6-2.7,6-6s-2.7-6-6-6s-6,2.7-6,6S63.7,35,67,35z M67,27c1.1,0,2,0.9,2,2c0,1.1-0.9,2-2,2s-2-0.9-2-2
		C65,27.9,65.9,27,67,27z"/>
	<circle cx="73" cy="49" r="2"/>
	<circle cx="27" cy="49" r="2"/>
	<circle cx="48" cy="21" r="2"/>
</g>
</svg>
