<?xml version="1.0" encoding="utf-8"?>
<!-- Generator: Adobe Illustrator 21.0.2, SVG Export Plug-In . SVG Version: 6.00 Build 0)  -->
<svg version="1.1" id="Layer_1" xmlns="http://www.w3.org/2000/svg" xmlns:xlink="http://www.w3.org/1999/xlink" x="0px" y="0px"
	 viewBox="0 0 100 100" style="enable-background:new 0 0 100 100;" xml:space="preserve">
<g>
	<path d="M51,15H25c-3.3,0-6,2.7-6,6v24c0,3.3,2.7,6,6,6h26c3.3,0,6-2.7,6-6V21C57,17.7,54.3,15,51,15z M53,45c0,1.1-0.9,2-2,2H25
		c-1.1,0-2-0.9-2-2V21c0-1.1,0.9-2,2-2h26c1.1,0,2,0.9,2,2V45z"/>
	<path d="M45.1,25.9c-0.8-0.8-2-0.8-2.8,0L30.9,37.2c-0.8,0.8-0.8,2,0,2.8c0.4,0.4,0.9,0.6,1.4,0.6c0.5,0,1-0.2,1.4-0.6l11.3-11.3
		C45.8,28,45.8,26.7,45.1,25.9z"/>
	<path d="M45.1,34.4l-5.7,5.7c-0.8,0.8-0.8,2,0,2.8c0.4,0.4,0.9,0.6,1.4,0.6s1-0.2,1.4-0.6l5.7-5.7c0.8-0.8,0.8-2,0-2.8
		C47.1,33.6,45.8,33.6,45.1,34.4z"/>
	<path d="M36.6,25.9c0.8-0.8,0.8-2,0-2.8c-0.8-0.8-2.1-0.8-2.8,0l-5.7,5.7c-0.8,0.8-0.8,2,0,2.8c0.4,0.4,0.9,0.6,1.4,0.6
		c0.5,0,1-0.2,1.4-0.6L36.6,25.9z"/>
	<path d="M93,91H65V39h4c1.1,0,2,0.9,2,2v35c0,3.9,3.1,7,7,7s7-3.1,7-7V39c4.4,0,8-3.6,8-8V17.7l1.3-1.2c0.8-0.7,0.9-2,0.1-2.8
		s-2-0.9-2.8-0.1l-8,7.2C82,22.2,81,24.4,81,26.7V76c0,1.6-1.3,3-3,3s-3-1.4-3-3V41c0-3.3-2.7-6-6-6h-4V11c0-3.3-2.7-6-6-6H17
		c-3.3,0-6,2.7-6,6v80H7c-1.1,0-2,0.9-2,2c0,1.1,0.9,2,2,2h86c1.1,0,2-0.9,2-2C95,91.9,94.1,91,93,91z M85,26.7c0-1.1,0.5-2.2,1.3-3
		l2.7-2.4V31c0,2.2-1.8,4-4,4V26.7z M61,91H15V11c0-1.1,0.9-2,2-2h42c1.1,0,2,0.9,2,2V91z"/>
</g>
</svg>
