<?xml version="1.0" encoding="utf-8"?>
<!-- Generator: Adobe Illustrator 21.0.2, SVG Export Plug-In . SVG Version: 6.00 Build 0)  -->
<svg version="1.1" id="Layer_1" xmlns="http://www.w3.org/2000/svg" xmlns:xlink="http://www.w3.org/1999/xlink" x="0px" y="0px"
	 viewBox="0 0 100 100" style="enable-background:new 0 0 100 100;" xml:space="preserve">
<g>
	<path d="M51,18H25c-1.1,0-2,0.9-2,2v24c0,1.1,0.9,2,2,2h26c1.1,0,2-0.9,2-2V20C53,18.9,52.1,18,51,18z M28.1,30.6
		c-0.8-0.8-0.8-2,0-2.8l5.7-5.7c0.8-0.8,2-0.8,2.8,0c0.8,0.8,0.8,2,0,2.8l-5.7,5.7c-0.4,0.4-0.9,0.6-1.4,0.6
		C29,31.2,28.5,31,28.1,30.6z M32.3,39.7c-0.5,0-1-0.2-1.4-0.6c-0.8-0.8-0.8-2.1,0-2.8l11.3-11.3c0.8-0.8,2-0.8,2.8,0
		c0.8,0.8,0.8,2,0,2.8L33.8,39.1C33.4,39.5,32.8,39.7,32.3,39.7z M47.9,36.2l-5.7,5.7c-0.4,0.4-0.9,0.6-1.4,0.6s-1-0.2-1.4-0.6
		c-0.8-0.8-0.8-2,0-2.8l5.7-5.7c0.8-0.8,2-0.8,2.8,0C48.7,34.2,48.7,35.5,47.9,36.2z"/>
	<path d="M93,90H63V38h6c1.1,0,2,0.9,2,2v35c0,3.9,3.1,7,7,7s7-3.1,7-7V38c4.4,0,8-3.6,8-8V16.7l1.3-1.2c0.8-0.7,0.9-2,0.1-2.8
		s-2-0.9-2.8-0.1l-8,7.2C82,21.2,81,23.4,81,25.7V75c0,1.6-1.3,3-3,3s-3-1.4-3-3V40c0-3.3-2.7-6-6-6h-6V10c0-2.2-1.8-4-4-4H17
		c-2.2,0-4,1.8-4,4v80H7c-1.1,0-2,0.9-2,2c0,1.1,0.9,2,2,2h86c1.1,0,2-0.9,2-2C95,90.9,94.1,90,93,90z M57,44c0,3.3-2.7,6-6,6H25
		c-3.3,0-6-2.7-6-6V20c0-3.3,2.7-6,6-6h26c3.3,0,6,2.7,6,6V44z"/>
</g>
</svg>
