<?xml version="1.0" encoding="utf-8"?>
<!-- Generator: Adobe Illustrator 21.0.2, SVG Export Plug-In . SVG Version: 6.00 Build 0)  -->
<svg version="1.1" id="Layer_1" xmlns="http://www.w3.org/2000/svg" xmlns:xlink="http://www.w3.org/1999/xlink" x="0px" y="0px"
	 viewBox="0 0 100 100" style="enable-background:new 0 0 100 100;" xml:space="preserve">
<path d="M93,91h-5c0.1-5.7,0.9-11.4,2.7-16.9l4.3-13.5c0.2-0.8,0-1.6-0.7-2.2c-0.7-0.5-1.5-0.6-2.3-0.2c-4.9,2.9-9,6.8-12,11.4V45.9
	c7.3-1,13-7.3,13-14.8v-8.9c0-1.5-0.9-2.9-2.2-3.6c-1.4-0.7-3-0.5-4.2,0.4l-0.8,0.6l-2.9-4C81.8,13.9,80,13,78,13c0,0,0,0,0,0
	c-2,0-3.8,1-4.9,2.6l-2.8,4l-0.8-0.6c-1.2-0.9-2.8-1.1-4.2-0.4c-1.4,0.7-2.2,2.1-2.2,3.6V31c0,7.6,5.7,13.9,13,14.8V66
	c-3.6-9.2-9.4-17.1-16.8-22.4c-0.7-0.5-1.6-0.5-2.3,0c-0.7,0.5-1,1.3-0.8,2.2L60,61c-4.2,3.3-7.6,7.5-10,12.2
	c-2.6-5-6.3-9.4-10.9-12.9L44,39.5c0.2-0.8-0.2-1.7-0.9-2.1c-0.7-0.5-1.7-0.4-2.3,0.1c-7.4,5.9-13.2,14.8-16.8,25V37.9
	c7.3-1,13-7.3,13-14.8v-8.9c0-1.5-0.9-2.9-2.2-3.6c-1.4-0.7-3-0.5-4.2,0.4l-0.8,0.6l-2.9-4C25.8,5.9,24,5,22,5c0,0,0,0,0,0
	c-1.9,0-3.8,1-4.9,2.6l-2.8,4l-0.8-0.6c-1.2-0.9-2.8-1.1-4.2-0.4C7.9,11.2,7,12.6,7,14.1V23c0,7.6,5.7,13.9,13,14.8v31.9
	c-3-4.6-7.1-8.6-12-11.4c-0.7-0.4-1.6-0.4-2.3,0.2c-0.6,0.5-0.9,1.4-0.7,2.2l4.3,13.5C11.1,79.7,12,85.3,12,91H7c-1.1,0-2,0.9-2,2
	c0,1.1,0.9,2,2,2h86c1.1,0,2-0.9,2-2C95,91.9,94.1,91,93,91z M20,91h-4c-0.1-6.1-1-12.2-2.9-18l-2.5-7.8c4.2,3.6,7.4,8.3,9.3,13.5
	V91z M20.4,9.8C20.8,9.3,21.4,9,22,9c0,0,0,0,0,0c0.6,0,1.2,0.3,1.6,0.8l3,4.2L22,17.5L17.5,14L20.4,9.8z M11.3,25.4
	C11.1,24.6,11,23.8,11,23v-8.9l7.7,5.9L11.3,25.4z M12.9,29.1l10.3-7.5c0,0,0,0,0,0c0,0,0,0,0,0l9.8-7.5V23c0,6.1-4.9,11-11,11
	C18.2,34,14.8,32.1,12.9,29.1z M31.7,91H24v-4.4C24,70.3,29.5,55,38.6,45L35,60.3c-2.3,9.8-3.4,20-3.3,30.3L31.7,91z M35.7,91l0-0.5
	c0-6,0.3-12,1.1-18l0.5,1.6C39.1,79.7,40,85.3,40,91H35.7z M50,91h-6c-0.1-6.1-1-12.2-2.9-18l-2.5-7.8C45.8,71.2,50,80.2,50,89.7V91
	z M56,91h-2v-1.3c0-4-0.7-7.8-1.9-11.5c1.9-5,5-9.5,9-13c0,0.1,0,0.1,0,0.2L58.8,73C57,78.8,56,84.9,56,91z M64.3,91H60
	c0.1-5.7,0.9-11.4,2.7-16.9l0.2-0.7C63.8,79.2,64.3,85.1,64.3,91L64.3,91z M76,91h-7.7c0.1-9.2-1-18.3-3.3-27l-3.4-13.2
	c9,8.9,14.5,22.4,14.5,36.8V91z M76.4,17.8c0.4-0.5,1-0.8,1.6-0.8c0,0,0,0,0,0c0.6,0,1.2,0.3,1.6,0.8l3,4.2L78,25.5L73.5,22
	L76.4,17.8z M67.3,33.4C67.1,32.6,67,31.8,67,31v-8.9l7.7,5.9L67.3,33.4z M68.9,37.1l10.3-7.5c0,0,0,0,0,0c0,0,0,0,0,0l9.8-7.5V31
	c0,6.1-4.9,11-11,11C74.2,42,70.8,40.1,68.9,37.1z M84,91h-4V78.6c1.9-5.2,5.1-9.8,9.3-13.5L86.8,73C85,78.8,84,84.9,84,91z"/>
</svg>
