<?xml version="1.0" encoding="utf-8"?>
<!-- Generator: Adobe Illustrator 21.0.2, SVG Export Plug-In . SVG Version: 6.00 Build 0)  -->
<svg version="1.1" id="Layer_1" xmlns="http://www.w3.org/2000/svg" xmlns:xlink="http://www.w3.org/1999/xlink" x="0px" y="0px"
	 viewBox="0 0 100 100" style="enable-background:new 0 0 100 100;" xml:space="preserve">
<path d="M93,89h-7c0.1-5.9,1-11.8,2.8-17.5L93,58c-5.6,3.3-10.1,8.1-13,13.6V42c0-0.1,0-0.1,0-0.2c6.2-0.9,11-6.3,11-12.8v-8.9
	c0-1.7-1.9-2.6-3.2-1.6L84.5,21h-0.1l-3.1-4.4c-1.6-2.2-5-2.2-6.5,0l-3,4.4h-0.2l-3.3-2.5c-1.3-1-3.2-0.1-3.2,1.6V29
	c0,6.5,4.8,11.9,11,12.8c0,0.1,0,0.1,0,0.2v28.3c-3-11.2-9.3-21-18-27.1l4.3,16.6c-5.7,4.1-10,9.9-12.3,16.4
	c-2.4-6.9-7-12.8-13.1-17c0-0.2,0.1-0.3,0.1-0.5L42,37C33.3,44,27,54.9,24,67.5V34c0-0.1,0-0.1,0-0.2c6.2-0.9,11-6.3,11-12.8v-8.9
	c0-1.7-1.9-2.6-3.2-1.6L28.5,13h-0.1l-3.1-4.4c-1.6-2.2-5-2.2-6.5,0l-3,4.4h-0.2l-3.3-2.5c-1.3-1-3.2-0.1-3.2,1.6V21
	c0,6.5,4.8,11.9,11,12.8c0,0.1,0,0.1,0,0.2v37.6C17.1,66.1,12.6,61.3,7,58l4.3,13.5C13,77.2,14,83.1,14,89H7c-1.1,0-2,0.9-2,2
	c0,1.1,0.9,2,2,2h86c1.1,0,2-0.9,2-2C95,89.9,94.1,89,93,89z M33.7,89l0-0.5c-0.1-9,0.8-17.9,2.5-26.5l3,9.5C41,77.2,42,83.1,42,89
	H33.7z M58,89c0.1-5.9,1-11.8,2.8-17.5l2.5-8c2,8.3,3.1,16.9,3,25.5H58z"/>
</svg>
