<?xml version="1.0" encoding="utf-8"?>
<!-- Generator: Adobe Illustrator 21.0.2, SVG Export Plug-In . SVG Version: 6.00 Build 0)  -->
<svg version="1.1" id="Layer_1" xmlns="http://www.w3.org/2000/svg" xmlns:xlink="http://www.w3.org/1999/xlink" x="0px" y="0px"
	 viewBox="0 0 100 100" style="enable-background:new 0 0 100 100;" xml:space="preserve">
<path d="M89,51h-0.6c2.3-7.6-1-16.1-8.3-20c-1.1-0.6-2.2-1-3.3-1.3L72.6,9.8C72,7,69.6,5,66.8,5H39.3c-2.9,0-5.4,2.1-5.9,4.9
	l-3.2,17.2l-5.5-13.2c-2.1-5-7.9-7.4-12.9-5.5c-2.5,1-4.5,2.9-5.6,5.4c-1.1,2.5-1.1,5.2-0.1,7.7l12,29.4H11c-3.3,0-6,2.7-6,6v2
	c0,3.3,2.7,6,6,6h0.5l2.3,8.5l2.7,10l1.9,7c0.7,2.6,3.1,4.5,5.8,4.5h51.9c2.7,0,5.1-1.8,5.8-4.5l1.9-7l2.7-10l2.3-8.5H89
	c3.3,0,6-2.7,6-6v-2C95,53.7,92.3,51,89,51z M78.2,34.5c6,3.2,8.5,10.4,5.9,16.5H70.9c-0.7-5.7-4.1-10.5-9-13
	C65.7,33.1,72.6,31.5,78.2,34.5z M66.8,51H41.2c1-6.2,6.3-11,12.8-11S65.9,44.8,66.8,51z M37.4,10.6c0.2-1,1-1.6,2-1.6h27.4
	c0.9,0,1.8,0.7,2,1.6L70,17H36.2L37.4,10.6z M35.4,21h35.4l1.7,8c-5.7-0.1-11.2,2.6-14.5,7.5c-1.3-0.3-2.6-0.5-4-0.5
	c-7,0-13.1,4.3-15.7,10.4l-5.3-12.6L35.4,21z M9.8,20.1c-0.6-1.5-0.6-3.2,0-4.7c0.6-1.5,1.8-2.6,3.3-3.2c3-1.2,6.5,0.3,7.8,3.3
	l0.3,0.7L16,22c-0.7,0.8-0.7,2.1,0.1,2.8c0.4,0.3,0.9,0.5,1.3,0.5c0.6,0,1.1-0.2,1.5-0.7l4-4.5l2.5,6L20,32.3
	c-0.7,0.8-0.7,2.1,0.1,2.8c0.4,0.3,0.9,0.5,1.3,0.5c0.5,0,1.1-0.2,1.5-0.7l4.2-4.7l2.5,5.9L24,42.5c-0.7,0.8-0.7,2.1,0.1,2.8
	c0.4,0.4,0.9,0.5,1.3,0.5c0.5,0,1.1-0.2,1.5-0.7l4.4-4.9L35.9,51H22.4L9.8,20.1z M82.4,72.5l-2.7,10l-1.9,7c-0.2,0.9-1,1.5-1.9,1.5
	H24.1c-0.9,0-1.7-0.6-1.9-1.5l-1.9-7l-2.7-10l-2-7.5H35v11c0,1.1,0.9,2,2,2h26c1.1,0,2-0.9,2-2V65h19.4L82.4,72.5z M39,74v-9h22v9
	H39z M91,59c0,1.1-0.9,2-2,2H65v-1c0-1.1-0.9-2-2-2s-2,0.9-2,2v1H39v-1c0-1.1-0.9-2-2-2s-2,0.9-2,2v1H11c-1.1,0-2-0.9-2-2v-2
	c0-1.1,0.9-2,2-2h78c1.1,0,2,0.9,2,2V59z"/>
</svg>
