<?xml version="1.0" encoding="utf-8"?>
<!-- Generator: Adobe Illustrator 21.0.2, SVG Export Plug-In . SVG Version: 6.00 Build 0)  -->
<svg version="1.1" id="Layer_1" xmlns="http://www.w3.org/2000/svg" xmlns:xlink="http://www.w3.org/1999/xlink" x="0px" y="0px"
	 viewBox="0 0 100 100" style="enable-background:new 0 0 100 100;" xml:space="preserve">
<g>
	<path d="M22.4,51h13.5l-4.5-10.7L27,45.2c-0.4,0.4-0.9,0.7-1.5,0.7c-0.5,0-1-0.2-1.3-0.5c-0.8-0.7-0.9-2-0.1-2.8l5.7-6.3l-2.5-5.9
		L23,35c-0.4,0.4-0.9,0.7-1.5,0.7c-0.5,0-1-0.2-1.3-0.5c-0.8-0.7-0.9-2-0.1-2.8l5.5-6.1l-2.5-6l-4,4.5c-0.4,0.4-0.9,0.7-1.5,0.7
		c-0.5,0-0.9-0.2-1.3-0.5c-0.8-0.7-0.9-2-0.1-2.8l5.3-5.9L21,15.5c-1.3-3-4.8-4.5-7.8-3.3c-1.5,0.6-2.7,1.8-3.3,3.2
		c-0.7,1.5-0.7,3.2,0,4.7L22.4,51z"/>
	<path d="M54,36c1.4,0,2.7,0.2,4,0.5c1.3-1.9,2.9-3.5,4.7-4.7c2.9-1.9,6.3-2.9,9.8-2.8l-1.7-8H35.4l-2.4,12.9l5.3,12.5
		C40.9,40.3,47,36,54,36z"/>
	<path d="M68.7,10.6c-0.2-0.9-1-1.6-2-1.6H39.3c-1,0-1.8,0.7-2,1.6L36.2,17H70L68.7,10.6z"/>
	<path d="M61.9,38c2.7,1.4,4.9,3.5,6.5,6.1c1.3,2.1,2.1,4.4,2.4,6.9h13.2c2.5-6.1,0.1-13.3-5.9-16.5C72.6,31.5,65.7,33.1,61.9,38z"
		/>
	<path d="M54,40c-6.5,0-11.9,4.8-12.8,11h25.7C65.9,44.8,60.5,40,54,40z"/>
	<path d="M89,55H11c-1.1,0-2,0.9-2,2v2c0,1.1,0.9,2,2,2h24v-1c0-1.1,0.9-2,2-2s2,0.9,2,2v1h22v-1c0-1.1,0.9-2,2-2s2,0.9,2,2v1h24
		c1.1,0,2-0.9,2-2v-2C91,55.9,90.1,55,89,55z"/>
	<path d="M65,76c0,1.1-0.9,2-2,2H37c-1.1,0-2-0.9-2-2V65H15.6l6.5,24.5c0.2,0.9,1,1.5,1.9,1.5h51.9c0.9,0,1.7-0.6,1.9-1.5l4.5-17
		l2-7.5H65V76z"/>
	<rect x="39" y="65" width="22" height="9"/>
</g>
</svg>
