<?xml version="1.0" encoding="utf-8"?>
<!-- Generator: Adobe Illustrator 21.0.2, SVG Export Plug-In . SVG Version: 6.00 Build 0)  -->
<svg version="1.1" id="Layer_1" xmlns="http://www.w3.org/2000/svg" xmlns:xlink="http://www.w3.org/1999/xlink" x="0px" y="0px"
	 viewBox="0 0 100 100" style="enable-background:new 0 0 100 100;" xml:space="preserve">
<g>
	<path d="M44.3,62.2c3.3,0.1,6.6,0.1,9.8,0c3-0.1,6.1-0.2,9.1-0.3c-1.6-1-2.9-2.5-3.4-4.5c-0.1-0.5-0.2-0.9-0.3-1.4
		c-3.3,0.2-6.6,0.2-10,0.2c-10,0-19.9-0.6-29.8-1.9L19,54.2l-1.5,6.1l0.8,0.1C26.9,61.5,35.6,62.1,44.3,62.2z"/>
	<path d="M46.3,52.2h5.9c2.6,0,5.3-0.1,7.9-0.2c0.5-1.2,1.3-2.3,2.4-3.2c-1.4-2.9-0.9-6.5,1.4-8.9c2.3-2.5,5.8-3.1,8.8-2
		c0.9-1.3,2.1-2.3,3.5-2.8l-0.4-1.5c-1.1-4.5-4.7-8-9.2-9.1c-10.9-2.5-22.3-2.5-33.2,0c-4.5,1.1-8.1,4.5-9.2,9.1L20,50.3l0.3,0
		C28.9,51.5,37.6,52.1,46.3,52.2z"/>
	<path d="M87.3,66.5c-1.9,0.8-4,0.8-6,0c-1.5,2.2-4,3.5-6.6,3.5c-0.6,0-1.2-0.1-1.8-0.2c-2.4-0.5-4.2-2.1-5.3-4.1
		C61.4,66,55.2,66.3,49,66.3c-10.5,0-20.9-0.6-31.3-1.8l-2-0.2c-0.2,0-0.4-0.1-0.6-0.2L7,72.2c14.1,3.4,28.6,5.2,43,5.2
		s28.9-1.7,43-5.2L87.3,66.5z"/>
	<path d="M74.1,42.7c-0.7,0.2-1.3,0-1.9-0.4c-1.6-1.4-4-1.2-5.5,0.3c-1.4,1.5-1.4,3.9,0,5.5c0.5,0.5,0.7,1.2,0.5,1.8
		c-0.1,0.6-0.6,1.2-1.3,1.4c-2,0.7-3,2.9-2.4,4.9c0.6,2,2.7,3.2,4.8,2.7c0.2,0,0.3,0,0.5,0c0.5,0,1,0.2,1.4,0.5
		c0.5,0.5,0.7,1.1,0.6,1.8c-0.4,2.1,1,4.1,3,4.6c2,0.5,4.1-0.7,4.7-2.8c0.2-0.6,0.7-1.1,1.3-1.3c0.7-0.2,1.3-0.1,1.9,0.4
		c1.6,1.3,4,1.2,5.5-0.3c1.4-1.5,1.4-3.9,0-5.5c-0.5-0.5-0.7-1.2-0.5-1.8c0.1-0.7,0.6-1.2,1.3-1.4c2-0.7,3-2.9,2.4-4.9
		c-0.6-2-2.7-3.2-4.8-2.7c-0.7,0.2-1.3,0-1.8-0.5c-0.5-0.5-0.7-1.1-0.6-1.8c0.4-2.1-1-4.1-3-4.6c-2-0.5-4.1,0.7-4.7,2.8
		C75.3,42,74.8,42.5,74.1,42.7z M78.1,47.3c2.7,0.6,4.4,3.3,3.7,6s-3.3,4.4-6,3.7s-4.4-3.3-3.7-6C72.8,48.4,75.5,46.7,78.1,47.3z"/>
</g>
</svg>
