<?xml version="1.0" encoding="utf-8"?>
<!-- Generator: Adobe Illustrator 21.0.2, SVG Export Plug-In . SVG Version: 6.00 Build 0)  -->
<svg version="1.1" id="Layer_1" xmlns="http://www.w3.org/2000/svg" xmlns:xlink="http://www.w3.org/1999/xlink" x="0px" y="0px"
	 viewBox="0 0 100 100" style="enable-background:new 0 0 100 100;" xml:space="preserve">
<g>
	<path d="M94.4,70.8l-5.3-5.3c0.4-0.3,0.7-0.6,1-0.9c2.3-2.5,2.8-6,1.4-8.9c2.5-2,3.7-5.4,2.7-8.6c-1-3.2-3.8-5.4-7-5.7
		c-0.5-3.2-2.8-5.9-6.1-6.7c-1-0.2-2-0.2-3-0.1l-0.4-1.5c-1.3-5.3-5.4-9.3-10.7-10.5c-11.2-2.6-23-2.6-34.1,0
		c-5.3,1.2-9.4,5.2-10.7,10.5l-7,28.1l-9.6,9.6c-0.5,0.5-0.7,1.3-0.5,2c0.2,0.7,0.8,1.2,1.5,1.4c14.2,3.5,28.8,5.2,43.5,5.2
		s29.2-1.7,43.5-5.2c0.7-0.2,1.3-0.7,1.5-1.4C95.1,72.1,94.9,71.3,94.4,70.8z M75.5,41.3c0.6-2,2.7-3.2,4.7-2.8
		c2.1,0.5,3.4,2.5,3,4.6c-0.1,0.7,0.1,1.3,0.6,1.8c0.5,0.5,1.2,0.6,1.8,0.5c2-0.5,4.1,0.7,4.8,2.7c0.6,2-0.5,4.2-2.4,4.9
		c-0.6,0.2-1.1,0.8-1.3,1.4c-0.2,0.6,0,1.3,0.5,1.8c1.5,1.5,1.5,3.9,0,5.5c-1.5,1.5-3.9,1.7-5.5,0.3c-0.5-0.4-1.2-0.6-1.9-0.4
		c-0.6,0.2-1.1,0.7-1.3,1.3c-0.6,2-2.7,3.2-4.7,2.8c-2.1-0.5-3.4-2.5-3-4.6c0.1-0.7-0.1-1.3-0.6-1.8c-0.4-0.3-0.9-0.5-1.4-0.5
		c-0.2,0-0.3,0-0.5,0c-2,0.5-4.1-0.7-4.8-2.7c-0.6-2,0.5-4.2,2.4-4.9c0.6-0.2,1.1-0.8,1.3-1.4c0.2-0.7,0-1.3-0.5-1.8
		c-1.5-1.5-1.5-3.9,0-5.5c1.5-1.5,3.9-1.7,5.5-0.3c0.5,0.4,1.2,0.6,1.9,0.4C74.8,42.5,75.3,42,75.5,41.3z M26.1,34
		c1-3.8,3.9-6.7,7.7-7.6c10.6-2.4,21.8-2.4,32.3,0c3.8,0.9,6.8,3.8,7.7,7.6l0.5,2.1c-0.7,0.5-1.2,1.1-1.7,1.8c-3-1.2-6.5-0.5-8.8,2
		c-2.3,2.5-2.8,6-1.4,8.9c-1.1,0.8-1.9,1.9-2.4,3.2C47.4,52.5,34.6,52,22,50.5L26.1,34z M21,54.4c9.6,1.2,19.3,1.8,29,1.8
		c3.2,0,6.3-0.1,9.5-0.2c0,0.5,0.1,0.9,0.3,1.4c0.6,1.9,1.8,3.5,3.4,4.4c-14.6,0.8-29.2,0.2-43.7-1.5L21,54.4z M11,71.1l6.9-6.9
		c10.7,1.3,21.4,2,32.2,2c5.9,0,11.8-0.2,17.6-0.6c1,2,2.9,3.6,5.3,4.1c0.6,0.1,1.2,0.2,1.8,0.2c2.6,0,5.1-1.3,6.6-3.5
		c1.2,0.5,2.4,0.6,3.7,0.5l4.1,4.1C63.4,76.8,36.6,76.8,11,71.1z"/>
	<path d="M70.2,50.6c-0.9,3.8,1.5,7.5,5.2,8.4c0.5,0.1,1.1,0.2,1.6,0.2c1.3,0,2.6-0.4,3.7-1.1c1.6-1,2.7-2.5,3.1-4.3
		c0.4-1.8,0.1-3.7-0.9-5.3c-1-1.6-2.5-2.7-4.4-3.1C74.8,44.5,71.1,46.9,70.2,50.6z M74.1,51.5c0.3-1.4,1.6-2.3,2.9-2.3
		c0.2,0,0.5,0,0.7,0.1c0.8,0.2,1.5,0.7,1.9,1.3c0.4,0.7,0.5,1.5,0.4,2.3c-0.2,0.8-0.7,1.4-1.3,1.9c-0.7,0.4-1.5,0.6-2.3,0.4
		C74.7,54.8,73.7,53.1,74.1,51.5z"/>
</g>
</svg>
