<?xml version="1.0" encoding="utf-8"?>
<!-- Generator: Adobe Illustrator 21.0.2, SVG Export Plug-In . SVG Version: 6.00 Build 0)  -->
<svg version="1.1" id="Layer_1" xmlns="http://www.w3.org/2000/svg" xmlns:xlink="http://www.w3.org/1999/xlink" x="0px" y="0px"
	 viewBox="0 0 100 100" style="enable-background:new 0 0 100 100;" xml:space="preserve">
<g>
	<path d="M86,43c-0.2,0-0.5,0-0.7,0c-0.9-4.8-2.8-9.2-5.4-13.1c0.2-0.1,0.3-0.3,0.5-0.5c2.7-2.7,2.7-7.2,0-9.9
		c-2.7-2.7-7.2-2.7-9.9,0c-0.2,0.2-0.3,0.3-0.5,0.5c-3.9-2.6-8.3-4.5-13.1-5.4c0-0.2,0-0.5,0-0.7c0-3.9-3.1-7-7-7s-7,3.1-7,7
		c0,0.2,0,0.5,0,0.7C28.7,17.5,17.5,28.7,14.7,43c-0.2,0-0.5,0-0.7,0c-3.9,0-7,3.1-7,7s3.1,7,7,7c0.2,0,0.5,0,0.7,0
		c0.9,4.8,2.8,9.2,5.4,13.1c-0.2,0.1-0.3,0.3-0.5,0.5c-2.7,2.7-2.7,7.2,0,9.9c2.7,2.7,7.2,2.7,9.9,0c0.2-0.2,0.3-0.3,0.5-0.5
		c3.9,2.6,8.3,4.5,13.1,5.4c0,0.2,0,0.4,0,0.7c0,3.9,3.1,7,7,7s7-3.1,7-7c0-0.2,0-0.5,0-0.7C71.3,82.5,82.5,71.3,85.3,57
		c0.2,0,0.5,0,0.7,0c3.9,0,7-3.1,7-7S89.9,43,86,43z M25,41c1.1,0,2,0.9,2,2c0,1.1-0.9,2-2,2s-2-0.9-2-2C23,41.9,23.9,41,25,41z
		 M32,67c-5,0-9-4-9-9c0-5,4-9,9-9s9,4,9,9C41,63,37,67,32,67z M43,76c-1.1,0-2-0.9-2-2c0-1.1,0.9-2,2-2s2,0.9,2,2
		C45,75.1,44.1,76,43,76z M41,46.9c0.1-1.1,1-1.9,2.1-1.9c1.1,0.1,1.9,1,1.8,2.1c-0.1,1.1-1,1.9-2.1,1.8C41.8,48.9,40.9,48,41,46.9z
		 M49,63c-1.1,0-2-0.9-2-2c0-1.1,0.9-2,2-2s2,0.9,2,2C51,62.1,50.1,63,49,63z M42,41c-6.1,0-11-4-11-9c0-5,4.9-9,11-9s11,4,11,9
		C53,37,48.1,41,42,41z M61,25c1.1,0,2,0.9,2,2c0,1.1-0.9,2-2,2s-2-0.9-2-2C59,25.9,59.9,25,61,25z M60.1,43c1.1,0.1,1.9,1,1.8,2.1
		c-0.1,1.1-1,1.9-2.1,1.8c-1.1-0.1-1.9-1-1.8-2.1C58.1,43.8,59,42.9,60.1,43z M63,75c-4.4,0-8-4.5-8-10s3.6-10,8-10s8,4.5,8,10
		S67.4,75,63,75z M73,54c-1.1,0-2-0.9-2-2c0-1.1,0.9-2,2-2s2,0.9,2,2C75,53.1,74.1,54,73,54z M75,41c-1.1,0-2-0.9-2-2
		c0-1.1,0.9-2,2-2s2,0.9,2,2C77,40.1,76.1,41,75,41z"/>
	<path d="M42,27c-3.8,0-7,2.3-7,5c0,2.7,3.2,5,7,5s7-2.3,7-5C49,29.3,45.8,27,42,27z"/>
	<circle cx="32" cy="58" r="5"/>
	<path d="M63,59c-2.2,0-4,2.8-4,6s1.8,6,4,6s4-2.8,4-6S65.2,59,63,59z"/>
</g>
</svg>
