<?xml version="1.0" encoding="utf-8"?>
<!-- Generator: Adobe Illustrator 21.0.2, SVG Export Plug-In . SVG Version: 6.00 Build 0)  -->
<svg version="1.1" id="Layer_1" xmlns="http://www.w3.org/2000/svg" xmlns:xlink="http://www.w3.org/1999/xlink" x="0px" y="0px"
	 viewBox="0 0 100 100" style="enable-background:new 0 0 100 100;" xml:space="preserve">
<g>
	<path d="M86.9,41c-0.9-3.8-2.4-7.5-4.5-10.8c1.3-1.6,2-3.6,2-5.7c0-2.4-0.9-4.7-2.6-6.4c-3.3-3.3-8.5-3.5-12-0.6
		c-3.4-2.1-7-3.6-10.8-4.5C58.5,8.5,54.7,5,50,5s-8.5,3.5-9,8.1c-13.9,3.3-24.6,14.1-28,28C8.5,41.5,5,45.3,5,50
		c0,4.6,3.5,8.5,8.1,9c0.9,3.8,2.4,7.5,4.5,10.8c-2.9,3.5-2.7,8.7,0.6,12c1.7,1.7,4,2.6,6.4,2.6c2.1,0,4.1-0.7,5.7-2
		c3.4,2,7,3.6,10.8,4.5c0.5,4.5,4.3,8.1,9,8.1s8.5-3.5,9-8.1c13.9-3.3,24.6-14.1,28-28c4.5-0.5,8.1-4.3,8.1-9
		C95,45.3,91.5,41.5,86.9,41z M86,55c-0.2,0-0.3,0-0.5,0c-1-0.1-2,0.6-2.2,1.6c-2.7,13.6-13.2,24.1-26.8,26.8
		c-1,0.2-1.7,1.1-1.6,2.2c0,0.2,0,0.3,0,0.5c0,2.8-2.2,5-5,5s-5-2.2-5-5c0-0.2,0-0.3,0-0.5c0.1-1-0.6-2-1.6-2.2
		c-4.4-0.9-8.6-2.6-12.3-5.1c-0.4-0.2-0.7-0.3-1.1-0.3c-0.6,0-1.2,0.2-1.5,0.7c-0.1,0.1-0.2,0.2-0.3,0.4c-1,1-2.2,1.5-3.5,1.5
		c-1.3,0-2.6-0.5-3.5-1.5c-2-2-2-5.1,0-7.1c0.1-0.1,0.2-0.2,0.4-0.3c0.8-0.7,1-1.8,0.4-2.7c-2.5-3.8-4.2-7.9-5.1-12.4
		c-0.2-1-1.1-1.7-2.2-1.6c-0.2,0-0.3,0-0.5,0c-2.8,0-5-2.2-5-5s2.2-5,5-5c0.2,0,0.3,0,0.5,0c1,0.1,2-0.6,2.2-1.6
		c2.7-13.6,13.2-24.1,26.8-26.8c1-0.2,1.7-1.1,1.6-2.2c0-0.2,0-0.3,0-0.5c0-2.8,2.2-5,5-5s5,2.2,5,5c0,0.2,0,0.3,0,0.5
		c-0.1,1,0.6,2,1.6,2.2c4.4,0.9,8.6,2.6,12.4,5.1c0.8,0.6,2,0.4,2.7-0.4c0.1-0.1,0.2-0.2,0.3-0.4c2-2,5.1-2,7.1,0
		c1,0.9,1.5,2.2,1.5,3.5c0,1.3-0.5,2.6-1.5,3.5c-0.1,0.1-0.2,0.2-0.4,0.3c-0.8,0.7-1,1.8-0.4,2.7c2.5,3.8,4.2,7.9,5.1,12.3
		c0.2,1,1.1,1.7,2.2,1.6c0.2,0,0.3,0,0.5,0c2.8,0,5,2.2,5,5S88.8,55,86,55z"/>
	<path d="M42,23c-6.1,0-11,4-11,9c0,5,4.9,9,11,9s11-4,11-9C53,27,48.1,23,42,23z M42,37c-3.8,0-7-2.3-7-5c0-2.7,3.2-5,7-5
		s7,2.3,7,5C49,34.7,45.8,37,42,37z"/>
	<path d="M32,49c-5,0-9,4-9,9c0,5,4,9,9,9s9-4,9-9C41,53,37,49,32,49z M32,63c-2.8,0-5-2.2-5-5s2.2-5,5-5s5,2.2,5,5S34.8,63,32,63z"
		/>
	<path d="M63,55c-4.4,0-8,4.5-8,10s3.6,10,8,10s8-4.5,8-10S67.4,55,63,55z M63,71c-2.2,0-4-2.8-4-6s1.8-6,4-6s4,2.8,4,6
		S65.2,71,63,71z"/>
	<circle cx="49" cy="61" r="2"/>
	<circle cx="43" cy="74" r="2"/>
	<circle cx="25" cy="43" r="2"/>
	<circle cx="61" cy="27" r="2"/>
	<path d="M45,47.1c0.1-1.1-0.8-2.1-1.8-2.1c-1.1-0.1-2.1,0.8-2.1,1.9c-0.1,1.1,0.8,2.1,1.8,2.1C44,49.1,44.9,48.2,45,47.1z"/>
	<path d="M59.9,47c1.1,0.1,2.1-0.8,2.1-1.8c0.1-1.1-0.8-2.1-1.8-2.1c-1.1-0.1-2.1,0.8-2.1,1.9C57.9,46,58.8,46.9,59.9,47z"/>
	<circle cx="73" cy="52" r="2"/>
	<circle cx="75" cy="39" r="2"/>
</g>
</svg>
