<?xml version="1.0" encoding="utf-8"?>
<!-- Generator: Adobe Illustrator 21.0.2, SVG Export Plug-In . SVG Version: 6.00 Build 0)  -->
<svg version="1.1" id="Layer_1" xmlns="http://www.w3.org/2000/svg" xmlns:xlink="http://www.w3.org/1999/xlink" x="0px" y="0px"
	 viewBox="0 0 100 100" style="enable-background:new 0 0 100 100;" xml:space="preserve">
<g>
	<path d="M66.6,66l-0.3,0.3c-1.2,1.2-3.1,1.2-4.2,0c-1.2-1.2-1.2-3.1,0-4.2c1.3-1.3,2-3.1,2-4.9s-0.7-3.6-2-5
		c-2.7-2.7-7.2-2.7-9.9,0c-1.1,1.1-3.1,1.1-4.2,0C47.3,51.5,47,50.8,47,50s0.3-1.5,0.9-2.1c2.7-2.7,2.7-7.2,0-9.9s-7.2-2.7-9.9,0
		c-1.1,1.1-3.1,1.1-4.2,0c-0.6-0.6-0.9-1.3-0.9-2.1s0.3-1.6,0.9-2.1l0.3-0.3c2.5-2.6,2.5-6.7,0-9.3c-2.1-2.1-5.3-2.5-7.8-1.1
		l-3.3,1.9c-1,0.5-1.3,1.8-0.8,2.7c0.5,1,1.8,1.3,2.7,0.8l3.4-1.9c1-0.5,2.2-0.4,3,0.4c1,1,1,2.6,0,3.6l-0.3,0.3
		c-2.7,2.7-2.7,7.2,0,9.9c2.7,2.7,7.2,2.7,9.9,0c1.2-1.2,3.1-1.2,4.2,0c0.6,0.6,0.9,1.3,0.9,2.1S45.6,44.5,45,45c-1.3,1.3-2,3.1-2,5
		s0.7,3.6,2,5c1.3,1.3,3.1,2,5,2s3.6-0.7,5-2c1.2-1.2,3.1-1.2,4.2,0c0.6,0.6,0.9,1.3,0.9,2.1c0,0.8-0.3,1.6-0.9,2.1
		c-2.7,2.7-2.7,7.2,0,9.9c2.7,2.7,7.2,2.7,9.9,0l0.3-0.3c0.5-0.5,1.1-0.8,1.8-0.8c0.7,0,1.3,0.3,1.8,0.8c0.8,0.8,1,2.1,0.4,3
		l-1.9,3.4c-0.5,1-0.2,2.2,0.8,2.7c0.3,0.2,0.6,0.2,1,0.2c0.7,0,1.4-0.4,1.8-1l1.9-3.4c1.4-2.5,1-5.8-1.1-7.8
		C73.3,63.4,69.1,63.4,66.6,66z"/>
	<path d="M94.3,59.9c0-4.3-1.7-8.3-4.7-11.3L51.4,10.4C45.2,4.2,35.2,4.2,29,10.2c-5.1-1.6-11-0.4-15,3.7c-4.1,4.1-5.3,9.9-3.7,15
		c-6.1,6.3-6,16.3,0.2,22.4l38.2,38.2c3,3,7,4.7,11.3,4.7c4.2,0,8.1-1.6,11.1-4.5c1.4,0.5,2.9,0.7,4.4,0.7c3.8,0,7.7-1.5,10.6-4.4
		c4.1-4.1,5.3-9.9,3.7-15C92.7,68,94.3,64.1,94.3,59.9z M59.9,90.3c-3.2,0-6.2-1.2-8.5-3.5L13.2,48.6c-2.3-2.3-3.5-5.3-3.5-8.5
		c0-2.6,0.8-5.1,2.4-7.2c0.5,0.8,1.1,1.5,1.8,2.2l50.9,50.9c0.7,0.7,1.4,1.3,2.2,1.8C65,89.4,62.5,90.3,59.9,90.3z M83.2,83.2
		c-4.3,4.3-11.3,4.3-15.5,0L16.8,32.3c-4.3-4.3-4.3-11.3,0-15.6c2.1-2.1,5-3.2,7.8-3.2c2.8,0,5.6,1.1,7.8,3.2l50.9,50.9
		C87.5,72,87.5,79,83.2,83.2z M86.1,64.8L35.2,13.9c-0.7-0.7-1.4-1.3-2.2-1.8c2.1-1.5,4.5-2.4,7.2-2.4c3.2,0,6.2,1.2,8.5,3.5
		l38.2,38.2c2.3,2.3,3.5,5.3,3.5,8.5c0,2.6-0.8,5.1-2.4,7.2C87.4,66.3,86.8,65.5,86.1,64.8z"/>
</g>
</svg>
