<?xml version="1.0" encoding="utf-8"?>
<!-- Generator: Adobe Illustrator 21.0.2, SVG Export Plug-In . SVG Version: 6.00 Build 0)  -->
<svg version="1.1" id="Layer_1" xmlns="http://www.w3.org/2000/svg" xmlns:xlink="http://www.w3.org/1999/xlink" x="0px" y="0px"
	 viewBox="0 0 100 100" style="enable-background:new 0 0 100 100;" xml:space="preserve">
<g>
	<path d="M86.8,51.4L48.6,13.2c-2.3-2.3-5.3-3.5-8.5-3.5c-2.6,0-5.1,0.8-7.2,2.4c0.8,0.5,1.5,1.1,2.2,1.8l50.9,50.9
		c0.7,0.7,1.3,1.4,1.8,2.2c1.5-2.1,2.4-4.6,2.4-7.2C90.3,56.7,89,53.7,86.8,51.4z"/>
	<path d="M13.9,35.1c-0.7-0.7-1.3-1.4-1.8-2.2c-1.5,2.1-2.4,4.5-2.4,7.2c0,3.2,1.2,6.2,3.5,8.5l38.2,38.2c2.3,2.3,5.3,3.5,8.5,3.5
		c2.6,0,5.1-0.8,7.2-2.4c-0.8-0.5-1.5-1.1-2.2-1.8L13.9,35.1z"/>
	<path d="M32.3,16.8c-2.1-2.1-5-3.2-7.8-3.2c-2.8,0-5.6,1.1-7.8,3.2c-4.3,4.3-4.3,11.3,0,15.6l50.9,50.9c4.3,4.3,11.3,4.3,15.5,0
		c4.3-4.3,4.3-11.3,0-15.5L32.3,16.8z M77,73.8l-1.9,3.4c-0.4,0.7-1,1-1.8,1c-0.3,0-0.7-0.1-1-0.2c-1-0.5-1.3-1.8-0.8-2.7l0.3-0.5
		l1.6-2.9c0.5-1,0.4-2.2-0.4-3c-0.5-0.5-1.1-0.8-1.8-0.8c-0.7,0-1.3,0.3-1.8,0.8l-0.3,0.3c-0.5,0.5-1,0.9-1.6,1.2
		c-2.6,1.4-6,1-8.3-1.2c-2.2-2.2-2.6-5.6-1.2-8.3c0.3-0.6,0.7-1.1,1.2-1.6c0.6-0.6,0.9-1.3,0.9-2.1c0-0.8-0.3-1.6-0.9-2.1
		c-1.2-1.2-3.1-1.2-4.2,0c-0.5,0.5-1,0.9-1.6,1.2c-1,0.5-2.2,0.8-3.3,0.8c-1.9,0-3.6-0.7-5-2c-1.3-1.3-2-3.1-2-5
		c0-1.2,0.3-2.3,0.8-3.3c0.3-0.6,0.7-1.1,1.2-1.6c0.6-0.6,0.9-1.3,0.9-2.1s-0.3-1.6-0.9-2.1c-1.2-1.2-3.1-1.2-4.2,0
		c-0.5,0.5-1,0.9-1.6,1.2c-2.6,1.4-6,1-8.3-1.2c-2.2-2.2-2.6-5.6-1.2-8.3c0.3-0.6,0.7-1.1,1.2-1.6l0.3-0.3c1-1,1-2.6,0-3.6
		c-0.8-0.8-2.1-1-3-0.4l-2.9,1.6l-0.5,0.3c-1,0.5-2.2,0.2-2.7-0.8c-0.5-1-0.2-2.2,0.8-2.7l3.3-1.9c2.6-1.4,5.8-1,7.8,1.1
		c2.5,2.6,2.5,6.7,0,9.3l-0.3,0.3c-0.5,0.5-0.8,1.2-0.9,2c0,0,0,0.1,0,0.2c0,0.8,0.3,1.5,0.9,2.1c0.6,0.6,1.4,0.9,2.2,0.8
		c0.7,0,1.5-0.3,2-0.8c2.7-2.7,7.2-2.7,9.9,0s2.7,7.2,0,9.9c-0.5,0.5-0.8,1.2-0.9,2c0,0.1,0,0.1,0,0.2c0,0.8,0.3,1.5,0.9,2.1
		c0.6,0.6,1.4,0.9,2.2,0.8c0.7,0,1.5-0.3,2-0.8c2.7-2.7,7.2-2.7,9.9,0c1.3,1.3,2,3.1,2,5s-0.7,3.6-2,4.9c-0.5,0.6-0.8,1.2-0.9,2
		c0,0.8,0.2,1.7,0.9,2.3c0.6,0.6,1.5,0.9,2.3,0.9c0.7,0,1.4-0.3,2-0.9l0.3-0.3c2.6-2.6,6.7-2.6,9.3,0C77.9,68,78.4,71.2,77,73.8z"/>
</g>
</svg>
