<?xml version="1.0" encoding="utf-8"?>
<!-- Generator: Adobe Illustrator 21.0.2, SVG Export Plug-In . SVG Version: 6.00 Build 0)  -->
<svg version="1.1" id="Layer_1" xmlns="http://www.w3.org/2000/svg" xmlns:xlink="http://www.w3.org/1999/xlink" x="0px" y="0px"
	 viewBox="0 0 100 100" style="enable-background:new 0 0 100 100;" xml:space="preserve">
<g>
	<path d="M93,91H54l2.6-11.1c0.8-3.5,2.5-6.6,5-9.2l9.6-10c6-6.2,8.2-15.2,5.7-23.5c-1-3.5-1.1-7.1-0.3-10.6l3.1-12.2
		c0.2-0.4,0.2-0.7,0.2-1.1c0,0,0-0.1,0-0.1c0,0,0,0,0,0c0-7.8-25.6-8-28.5-8C48.6,5,23.9,5.2,23,12.6c0,0.1,0,0.2,0,0.3
		c0,0,0,0.1,0,0.1c0,0,0,0,0,0l0.1,13.4c0,4.8,1.8,9.4,5.1,12.9l7.5,8.2c3.9,4.3,5.1,10.3,3,15.7c-2.2,5.8-1.4,12.4,2.1,17.6
		L47.7,91H7c-1.1,0-2,0.9-2,2c0,1.1,0.9,2,2,2h86c1.1,0,2-0.9,2-2C95,91.9,94.1,91,93,91z M51.5,9c14.1,0,22.9,2.5,24.4,4
		c-1.5,1.5-10.3,4-24.4,4s-22.9-2.5-24.4-4C28.6,11.5,37.4,9,51.5,9z M50.6,88.1l-6.5-9.5c-0.8-1.1-1.3-2.3-1.8-3.6H47
		c1.1,0,2-0.9,2-2c0-1.1-0.9-2-2-2h-5.4c-0.2-2.1,0.1-4.3,0.9-6.4c0.9-2.5,1.3-5.1,1.2-7.6H51c1.1,0,2-0.9,2-2c0-1.1-0.9-2-2-2h-8
		c-0.8-3-2.3-5.8-4.4-8.2l-7.5-8.2c-2.6-2.8-4-6.5-4-10.2l0-8.8c7.3,3.4,22.3,3.5,24.5,3.5c2.1,0,15.5-0.1,23.2-3l-1.9,7.5
		c-0.3,1.2-0.5,2.3-0.6,3.5H57c-1.1,0-2,0.9-2,2c0,1.1,0.9,2,2,2h15.2c0.1,1.8,0.4,3.6,1,5.3c2.1,6.9,0.3,14.4-4.7,19.6l-9.6,10
		c-3,3.1-5,6.9-6,11.1L50.6,88.1z"/>
	<path d="M47,29h-8c-1.1,0-2,0.9-2,2c0,1.1,0.9,2,2,2h8c1.1,0,2-0.9,2-2C49,29.9,48.1,29,47,29z"/>
	<path d="M63,57c1.1,0,2-0.9,2-2c0-1.1-0.9-2-2-2h-4c-1.1,0-2,0.9-2,2c0,1.1,0.9,2,2,2H63z"/>
	<path d="M31.9,58.5c1.1-0.2,1.8-1.2,1.6-2.3c-0.2-1.1-1.2-1.8-2.3-1.6C23.8,55.9,15,58.7,15,64c0,3.8,4.4,6.8,13.1,8.8
		c0.2,0,0.3,0.1,0.5,0.1c0.9,0,1.7-0.6,1.9-1.5c0.3-1.1-0.4-2.2-1.5-2.4C20.8,67,19,64.7,19,64C19,63,22.2,60.3,31.9,58.5z"/>
	<path d="M80.6,61.7c1.8,1,2.4,1.8,2.4,2.3c0,1.1-3.4,3.9-14,5.7c-1.1,0.2-1.8,1.2-1.6,2.3c0.2,1,1,1.7,2,1.7c0.1,0,0.2,0,0.3,0
		C77.6,72.3,87,69.5,87,64c0-2.2-1.5-4.1-4.5-5.8c-1-0.5-2.2-0.2-2.7,0.8S79.6,61.2,80.6,61.7z"/>
	<path d="M19.4,43.4c0.1,0,0.3,0,0.4,0c0.9,0,1.8-0.7,2-1.6c0.2-1.1-0.5-2.1-1.6-2.4C9.9,37.3,9,35,9,35c0,0,0.6-1.8,7.7-3.6
		c1.1-0.3,1.7-1.4,1.4-2.4s-1.4-1.7-2.4-1.4C8.5,29.4,5,31.9,5,35C5,38.6,9.7,41.4,19.4,43.4z"/>
	<path d="M81.6,30.9c8.7,2,9.4,4,9.4,4c0,0-0.6,1.7-7.3,3.5c-1.1,0.3-1.7,1.4-1.4,2.5c0.2,0.9,1,1.5,1.9,1.5c0.2,0,0.4,0,0.5-0.1
		C91.7,40.5,95,38.1,95,35c0-3.4-4.1-6-12.5-7.9c-1.1-0.3-2.2,0.4-2.4,1.5C79.8,29.6,80.5,30.7,81.6,30.9z"/>
</g>
</svg>
