<?xml version="1.0" encoding="utf-8"?>
<!-- Generator: Adobe Illustrator 21.0.2, SVG Export Plug-In . SVG Version: 6.00 Build 0)  -->
<svg version="1.1" id="Layer_1" xmlns="http://www.w3.org/2000/svg" xmlns:xlink="http://www.w3.org/1999/xlink" x="0px" y="0px"
	 viewBox="0 0 100 100" style="enable-background:new 0 0 100 100;" xml:space="preserve">
<g>
	<path d="M93,90H52l2.8-11.6c0.9-3.8,2.8-7.3,5.5-10.1l9.6-10c5.5-5.7,7.5-14,5.2-21.6c-0.5-1.5-0.8-3.1-0.9-4.7H57
		c-1.1,0-2-0.9-2-2c0-1.1,0.9-2,2-2h17.2c0.1-1,0.3-2,0.5-3l2.5-10.1C79.7,14,81,13,81,12c0-3.3-13.4-6-30-6s-30,2.7-30,6
		c0,1.1,1.5,2.1,4,3l0.1,10.4c0,4.3,1.6,8.4,4.5,11.6l7.5,8.2c1.8,2,3.1,4.3,3.8,6.8c0,0,0,0,0,0h10c1.1,0,2,0.9,2,2
		c0,1.1-0.9,2-2,2h-9.4c0.1,2.3-0.2,4.7-1.1,6.9c-0.9,2.3-1.2,4.7-1,7.1H47c1.1,0,2,0.9,2,2c0,1.1-0.9,2-2,2h-6.8
		c0.5,1.6,1.2,3.2,2.2,4.7L50.1,90H7c-1.1,0-2,0.9-2,2c0,1.1,0.9,2,2,2h86c1.1,0,2-0.9,2-2C95,90.9,94.1,90,93,90z M59,52h4
		c1.1,0,2,0.9,2,2c0,1.1-0.9,2-2,2h-4c-1.1,0-2-0.9-2-2C57,52.9,57.9,52,59,52z M47,32h-8c-1.1,0-2-0.9-2-2c0-1.1,0.9-2,2-2h8
		c1.1,0,2,0.9,2,2C49,31.1,48.1,32,47,32z"/>
	<path d="M31.9,57.5c1.1-0.2,1.8-1.2,1.6-2.3c-0.2-1.1-1.2-1.8-2.3-1.6C23.8,54.9,15,57.7,15,63c0,3.8,4.4,6.8,13.1,8.8
		c0.2,0,0.3,0.1,0.5,0.1c0.9,0,1.7-0.6,1.9-1.5c0.3-1.1-0.4-2.2-1.5-2.4C20.8,66,19,63.7,19,63C19,62,22.2,59.3,31.9,57.5z"/>
	<path d="M69,68.7c-1.1,0.2-1.8,1.2-1.6,2.3c0.2,1,1,1.7,2,1.7c0.1,0,0.2,0,0.3,0C77.6,71.3,87,68.5,87,63c0-2.2-1.5-4.1-4.5-5.8
		c-1-0.5-2.2-0.2-2.7,0.8c-0.5,1-0.2,2.2,0.8,2.7c1.8,1,2.4,1.8,2.4,2.3C83,64.1,79.6,66.9,69,68.7z"/>
	<path d="M19.4,42.4c0.1,0,0.3,0,0.4,0c0.9,0,1.8-0.7,2-1.6c0.2-1.1-0.5-2.1-1.6-2.4C9.9,36.3,9,34,9,34c0,0,0.6-1.8,7.7-3.6
		c1.1-0.3,1.7-1.4,1.4-2.4c-0.3-1.1-1.4-1.7-2.4-1.4C8.5,28.4,5,30.9,5,34C5,37.6,9.7,40.4,19.4,42.4z"/>
	<path d="M80.1,27.5c-0.3,1.1,0.4,2.2,1.5,2.4c8.7,2,9.4,4,9.4,4c0,0-0.6,1.7-7.3,3.5c-1.1,0.3-1.7,1.4-1.4,2.5
		c0.2,0.9,1,1.5,1.9,1.5c0.2,0,0.4,0,0.5-0.1C91.7,39.5,95,37.1,95,34c0-3.4-4.1-6-12.5-7.9C81.4,25.8,80.3,26.5,80.1,27.5z"/>
</g>
</svg>
