<?xml version="1.0" encoding="utf-8"?>
<!-- Generator: Adobe Illustrator 21.0.2, SVG Export Plug-In . SVG Version: 6.00 Build 0)  -->
<svg version="1.1" id="Layer_1" xmlns="http://www.w3.org/2000/svg" xmlns:xlink="http://www.w3.org/1999/xlink" x="0px" y="0px"
	 viewBox="0 0 100 100" style="enable-background:new 0 0 100 100;" xml:space="preserve">
<g>
	<path d="M50,4.9c-12.7,0-23,10.3-23,23v27c0,6.6,5.4,12,12,12h3v20.1c0,4.4,3.6,8,8,8s8-3.6,8-8V66.9h3c6.6,0,12-5.4,12-12v-27
		C73,15.2,62.7,4.9,50,4.9z M54,87.1c0,2.2-1.8,4-4,4s-4-1.8-4-4v-20h8V87.1z M69,54.9c0,4.4-3.6,8-8,8H39c-3.4,0-6.2-2.1-7.4-5
		c0.5,0.1,0.9,0.2,1.4,0.2c3.3,0,6-2.7,6-6v-12c0-1.1,0.9-2,2-2s2,0.9,2,2v7c0,3.9,3.1,7,7,7s7-3.1,7-7v-3c0-1.1,0.9-2,2-2
		s2,0.9,2,2v4c0,3.3,2.7,6,6,6c0.7,0,1.4-0.1,2-0.4V54.9z M69,48.1c0,1.1-0.9,2-2,2s-2-0.9-2-2v-4c0-3.3-2.7-6-6-6s-6,2.7-6,6v3
		c0,1.7-1.3,3-3,3s-3-1.3-3-3v-7c0-3.3-2.7-6-6-6s-6,2.7-6,6v12c0,1.1-0.9,2-2,2s-2-0.9-2-2V34.4l4.6-3.7c0.9-0.7,1-1.9,0.3-2.8
		c-0.7-0.9-1.9-1-2.8-0.3L31,29.3v-1.4C31,18.1,38.5,10,48,9v5c0,1.1,0.9,2,2,2s2-0.9,2-2V9c9.5,1,16.8,9,17,18.6
		c-0.1,0-0.3,0.1-0.4,0.2l-5.2,3c-1,0.5-1.3,1.8-0.7,2.7c0.4,0.6,1,1,1.7,1c0.3,0,0.7-0.1,1-0.3l3.6-2.1V48.1z"/>
	<path d="M63.5,22.1l-3.8-4.6c-0.7-0.8-2-1-2.8-0.3c-0.9,0.7-1,2-0.3,2.8l3.8,4.6c0.4,0.5,1,0.7,1.5,0.7c0.4,0,0.9-0.1,1.3-0.4
		C64,24.2,64.2,23,63.5,22.1z"/>
	<path d="M53.7,27.1c-1.1-0.2-2.1,0.6-2.3,1.7l-0.9,5.9c-0.2,1.1,0.6,2.1,1.7,2.3c0.1,0,0.2,0,0.3,0c1,0,1.8-0.7,2-1.7l0.9-5.9
		C55.6,28.3,54.8,27.3,53.7,27.1z"/>
	<path d="M43.4,18.5c-0.3-1.1-1.4-1.7-2.5-1.4c-1.1,0.3-1.7,1.4-1.4,2.4l1.6,5.8c0.2,0.9,1,1.5,1.9,1.5c0.2,0,0.3,0,0.5-0.1
		c1.1-0.3,1.7-1.4,1.4-2.5L43.4,18.5z"/>
</g>
</svg>
