<?xml version="1.0" encoding="utf-8"?>
<!-- Generator: Adobe Illustrator 21.0.2, SVG Export Plug-In . SVG Version: 6.00 Build 0)  -->
<svg version="1.1" id="Layer_1" xmlns="http://www.w3.org/2000/svg" xmlns:xlink="http://www.w3.org/1999/xlink" x="0px" y="0px"
	 viewBox="0 0 100 100" style="enable-background:new 0 0 100 100;" xml:space="preserve">
<g>
	<path d="M94.5,51.7l-8.5-10c-0.4-0.4-0.9-0.7-1.5-0.7H71c0-3.2-2.6-5.9-5.8-6l5.1-10.2c2.7-0.6,4.7-3,4.7-5.8c0-2.6-1.7-4.9-4-5.7
		C70.6,8.7,66.7,5,62,5s-8.6,3.7-9,8.3c-0.8,0.3-1.4,0.7-2,1.2c-0.6-0.5-1.3-1-2-1.2C48.6,8.7,44.7,5,40,5s-8.6,3.7-9,8.3
		c-0.8,0.3-1.4,0.7-2,1.2c-0.6-0.5-1.3-1-2-1.2C26.6,8.7,22.7,5,18,5s-8.6,3.7-9,8.3c-2.3,0.8-4,3.1-4,5.7c0,2.9,2,5.2,4.7,5.8
		L14.8,35H11c-3.3,0-6,2.7-6,6v42c0,3.3,2.7,6,6,6h5.6c2.1,3.6,6,6,10.4,6s8.3-2.4,10.4-6h25.2c2.1,3.6,6,6,10.4,6s8.3-2.4,10.4-6
		H89c3.3,0,6-2.7,6-6V53C95,52.5,94.8,52.1,94.5,51.7z M62,32.5L58.2,25h7.5L62,32.5z M55.1,17c0.6,0,1.1-0.2,1.5-0.7
		c0.4-0.4,0.5-1,0.5-1.6c0-0.3-0.1-0.5-0.1-0.7c0-2.8,2.2-5,5-5s5,2.2,5,5c0,0.2,0,0.4-0.1,0.7c-0.1,0.6,0.1,1.2,0.5,1.6
		c0.4,0.4,0.9,0.7,1.5,0.7H69c1.1,0,2,0.9,2,2c0,1.1-0.9,2-2,2H55c-1.1,0-2-0.9-2-2C53,17.9,53.9,17,55.1,17z M53.7,24.8L58.8,35
		H43.2l5.1-10.2c1-0.2,1.9-0.7,2.7-1.4C51.8,24.1,52.7,24.6,53.7,24.8z M40,32.5L36.2,25h7.5L40,32.5z M33.1,17
		c0.6,0,1.1-0.2,1.5-0.7c0.4-0.4,0.5-1,0.5-1.6c0-0.3-0.1-0.5-0.1-0.7c0-2.8,2.2-5,5-5s5,2.2,5,5c0,0.2,0,0.4-0.1,0.7
		c-0.1,0.6,0.1,1.2,0.5,1.6c0.4,0.4,0.9,0.7,1.5,0.7H47c1.1,0,2,0.9,2,2c0,1.1-0.9,2-2,2H33c-1.1,0-2-0.9-2-2
		C31,17.9,31.9,17,33.1,17z M31.7,24.8L36.8,35H21.2l5.1-10.2c1-0.2,1.9-0.7,2.7-1.4C29.8,24.1,30.7,24.6,31.7,24.8z M9,19
		c0-1.1,0.9-2,2.1-2c0.6,0,1.1-0.2,1.5-0.7c0.4-0.4,0.5-1,0.5-1.6c0-0.3-0.1-0.5-0.1-0.7c0-2.8,2.2-5,5-5s5,2.2,5,5
		c0,0.2,0,0.4-0.1,0.7c-0.1,0.6,0.1,1.2,0.5,1.6c0.4,0.4,0.9,0.7,1.5,0.7H25c1.1,0,2,0.9,2,2c0,1.1-0.9,2-2,2H11C9.9,21,9,20.1,9,19
		z M14.2,25h7.5L18,32.5L14.2,25z M15.2,85H11c-1.1,0-2-0.9-2-2v-2h6.2c-0.1,0.6-0.2,1.3-0.2,2S15.1,84.3,15.2,85z M27,91
		c-4.4,0-8-3.6-8-8c0-4.4,3.6-8,8-8s8,3.6,8,8C35,87.4,31.4,91,27,91z M61.2,85H38.8c0.1-0.7,0.2-1.3,0.2-2s-0.1-1.4-0.2-2h22.4
		c-0.1,0.6-0.2,1.3-0.2,2S61.1,84.3,61.2,85z M73,91c-4.4,0-8-3.6-8-8c0-4.4,3.6-8,8-8s8,3.6,8,8C81,87.4,77.4,91,73,91z M91,83
		c0,1.1-0.9,2-2,2h-4.2c0.1-0.7,0.2-1.3,0.2-2s-0.1-1.4-0.2-2H91V83z M91,77h-7.6c-2.1-3.6-6-6-10.4-6s-8.3,2.4-10.4,6H37.4
		c-2.1-3.6-6-6-10.4-6s-8.3,2.4-10.4,6H9V41c0-1.1,0.9-2,2-2h54c1.1,0,2,0.9,2,2v16c0,3.3,2.7,6,6,6h18V77z M91,59H73
		c-1.1,0-2-0.9-2-2V45h12.6l7.4,8.7V59z"/>
	<path d="M55,45H21c-3.3,0-6,2.7-6,6v8c0,3.3,2.7,6,6,6h34c3.3,0,6-2.7,6-6v-8C61,47.7,58.3,45,55,45z M45,61H21c-1.1,0-2-0.9-2-2
		v-8c0-1.1,0.9-2,2-2h24V61z M57,59c0,1.1-0.9,2-2,2h-6V49h6c1.1,0,2,0.9,2,2V59z"/>
</g>
</svg>
