<?xml version="1.0" encoding="utf-8"?>
<!-- Generator: Adobe Illustrator 21.0.2, SVG Export Plug-In . SVG Version: 6.00 Build 0)  -->
<svg version="1.1" id="Layer_1" xmlns="http://www.w3.org/2000/svg" xmlns:xlink="http://www.w3.org/1999/xlink" x="0px" y="0px"
	 viewBox="0 0 100 100" style="enable-background:new 0 0 100 100;" xml:space="preserve">
<g>
	<path d="M39.8,80c0.1,0.6,0.2,1.3,0.2,2s-0.1,1.3-0.2,2h22.4c-0.1-0.7-0.2-1.3-0.2-2s0.1-1.4,0.2-2H39.8z"/>
	<path d="M86,82c0,0.7-0.1,1.3-0.2,2H90c1.1,0,2-0.9,2-2v-2h-6.2C85.9,80.6,86,81.3,86,82z"/>
	<path d="M10,80v2c0,1.1,0.9,2,2,2h4.2c-0.1-0.7-0.2-1.3-0.2-2s0.1-1.4,0.2-2H10z"/>
	<path d="M68,56V40c0-1.1-0.9-2-2-2h-2l6-12c2.2,0,4-1.8,4-4c0-2.2-1.8-4-4-4h-0.1c0-0.3,0.1-0.7,0.1-1c0-3.9-3.1-7-7-7s-7,3.1-7,7
		c0,0.3,0,0.7,0.1,1H56c-2.2,0-4,1.8-4,4c0,2.2,1.8,4,4,4l6,12H42l6-12c2.2,0,4-1.8,4-4c0-2.2-1.8-4-4-4h-0.1c0-0.3,0.1-0.7,0.1-1
		c0-3.9-3.1-7-7-7s-7,3.1-7,7c0,0.3,0,0.7,0.1,1H34c-2.2,0-4,1.8-4,4c0,2.2,1.8,4,4,4l6,12H20l6-12c2.2,0,4-1.8,4-4c0-2.2-1.8-4-4-4
		h-0.1c0-0.3,0.1-0.7,0.1-1c0-3.9-3.1-7-7-7s-7,3.1-7,7c0,0.3,0,0.7,0.1,1H12c-2.2,0-4,1.8-4,4c0,2.2,1.8,4,4,4l6,12h-6
		c-1.1,0-2,0.9-2,2v36h7.6c2.1-3.6,6-6,10.4-6s8.3,2.4,10.4,6h25.2c2.1-3.6,6-6,10.4-6s8.3,2.4,10.4,6H92V62H74
		C70.7,62,68,59.3,68,56z M62,58c0,3.3-2.7,6-6,6H22c-3.3,0-6-2.7-6-6v-8c0-3.3,2.7-6,6-6h34c3.3,0,6,2.7,6,6V58z"/>
	<path d="M56,48h-6v12h6c1.1,0,2-0.9,2-2v-8C58,48.9,57.1,48,56,48z"/>
	<path d="M20,50v8c0,1.1,0.9,2,2,2h24V48H22C20.9,48,20,48.9,20,50z"/>
	<path d="M84.6,44H72v12c0,1.1,0.9,2,2,2h18v-5.3L84.6,44z"/>
	<path d="M74,74c-4.4,0-8,3.6-8,8c0,4.4,3.6,8,8,8s8-3.6,8-8C82,77.6,78.4,74,74,74z"/>
	<path d="M28,74c-4.4,0-8,3.6-8,8c0,4.4,3.6,8,8,8s8-3.6,8-8C36,77.6,32.4,74,28,74z"/>
</g>
</svg>
