<?xml version="1.0" encoding="utf-8"?>
<!-- Generator: Adobe Illustrator 21.0.2, SVG Export Plug-In . SVG Version: 6.00 Build 0)  -->
<svg version="1.1" id="Layer_1" xmlns="http://www.w3.org/2000/svg" xmlns:xlink="http://www.w3.org/1999/xlink" x="0px" y="0px"
	 viewBox="0 0 100 100" style="enable-background:new 0 0 100 100;" xml:space="preserve">
<path d="M50,4.9c-12.7,0-23,10.3-23,23v29c0,5.5,4.5,10,10,10h5v20.1c0,4.4,3.6,8,8,8s8-3.6,8-8V66.9h5c5.5,0,10-4.5,10-10v-29
	C73,15.2,62.7,4.9,50,4.9z M54,87.1c0,2.2-1.8,4-4,4s-4-1.8-4-4V66.9h8V87.1z M69,56.9c0,3.3-2.7,6-6,6H37c-3.3,0-6-2.7-6-6V44.7
	c0.6,0.2,1.3,0.4,2,0.4c3.3,0,6-2.7,6-6v-4c0-1.1,0.9-2,2-2s2,0.9,2,2v7c0,3.9,3.1,7,7,7s7-3.1,7-7v-11c0-1.1,0.9-2,2-2s2,0.9,2,2v6
	c0,3.3,2.7,6,6,6c0.7,0,1.4-0.1,2-0.4V56.9z M69,37.1c0,1.1-0.9,2-2,2s-2-0.9-2-2v-6c0-3.3-2.7-6-6-6s-6,2.7-6,6v11c0,1.7-1.3,3-3,3
	s-3-1.3-3-3v-7c0-3.3-2.7-6-6-6s-6,2.7-6,6v4c0,1.1-0.9,2-2,2s-2-0.9-2-2V27.9c0-10.5,8.5-19,19-19s19,8.5,19,19V37.1z"/>
</svg>
