<?xml version="1.0" encoding="utf-8"?>
<!-- Generator: Adobe Illustrator 21.0.2, SVG Export Plug-In . SVG Version: 6.00 Build 0)  -->
<svg version="1.1" id="Layer_1" xmlns="http://www.w3.org/2000/svg" xmlns:xlink="http://www.w3.org/1999/xlink" x="0px" y="0px"
	 viewBox="0 0 100 100" style="enable-background:new 0 0 100 100;" xml:space="preserve">
<g>
	<path d="M61,37.6v-6c0-1.1-0.9-2-2-2s-2,0.9-2,2v11c0,3.9-3.1,7-7,7s-7-3.1-7-7v-7c0-0.1,0-0.2,0-0.3c-0.2-0.9-1-1.7-2-1.7
		c-1.1,0-2,0.9-2,2v4c0,3.3-2.7,6-6,6c-0.7,0-1.4-0.1-2-0.4v12.2c0,3.3,2.7,6,6,6h7v21.1c0,3.3,2.7,6,6,6s6-2.7,6-6V63.4h7
		c3.3,0,6-2.7,6-6V43.2c-0.6,0.2-1.3,0.4-2,0.4C63.7,43.6,61,40.9,61,37.6z"/>
	<path d="M50,9.4c-10.5,0-19,8.5-19,19v8h0c0,0.1,0,0.1,0,0.2v3c0,1.1,0.9,2,2,2s2-0.9,2-2v-4c0-3.3,2.7-6,6-6c3.1,0,5.6,2.3,6,5.3
		c0,0.2,0,0.5,0,0.7v7c0,1.7,1.3,3,3,3s3-1.3,3-3v-11c0-3.3,2.7-6,6-6s6,2.7,6,6v6c0,1.1,0.9,2,2,2s2-0.9,2-2v-9.1
		C69,17.9,60.5,9.4,50,9.4z"/>
</g>
</svg>
