<?xml version="1.0" encoding="utf-8"?>
<!-- Generator: Adobe Illustrator 21.0.2, SVG Export Plug-In . SVG Version: 6.00 Build 0)  -->
<svg version="1.1" id="Layer_1" xmlns="http://www.w3.org/2000/svg" xmlns:xlink="http://www.w3.org/1999/xlink" x="0px" y="0px"
	 viewBox="0 0 100 100" style="enable-background:new 0 0 100 100;" xml:space="preserve">
<g>
	<path d="M61,47v-4c0-1.1-0.9-2-2-2s-2,0.9-2,2v3c0,3.9-3.1,7-7,7c-3.6,0-6.6-2.8-7-6.3c0-0.2,0-0.4,0-0.7v-7c0-1.1-0.9-2-2-2
		s-2,0.9-2,2v12c0,3.3-2.7,6-6,6c-0.5,0-1-0.1-1.4-0.2c1.2,3,4.1,5,7.4,5h5V86c0,3.3,2.7,6,6,6s6-2.7,6-6V61.9h5c4.4,0,8-3.6,8-8
		v-1.2c-0.6,0.2-1.3,0.4-2,0.4C63.7,53,61,50.3,61,47z"/>
	<path d="M65.4,33.2c-0.3,0.2-0.7,0.3-1,0.3c-0.7,0-1.4-0.4-1.7-1c-0.5-1-0.2-2.2,0.7-2.7l5.2-3c0.1-0.1,0.2-0.1,0.4-0.2
		C68.9,16.9,61.5,9,52,8v5c0,1.1-0.9,2-2,2s-2-0.9-2-2V8c-9.5,1-17,9.1-17,18.9v1.4l2.1-1.7c0.9-0.7,2.1-0.5,2.8,0.3
		c0.7,0.9,0.5,2.1-0.3,2.8L31,33.4v14.5h0c0,0.1,0,0.1,0,0.2v3c0,1.1,0.9,2,2,2s2-0.9,2-2V39c0-3.3,2.7-6,6-6s6,2.7,6,6v7
		c0,0.1,0,0.2,0,0.3c0.1,1.5,1.4,2.7,3,2.7c1.7,0,3-1.3,3-3v-3c0-3.3,2.7-6,6-6s6,2.7,6,6v4c0,1.1,0.9,2,2,2s2-0.9,2-2V31.2
		L65.4,33.2z M43.6,25.7c-0.2,0-0.3,0.1-0.5,0.1c-0.9,0-1.7-0.6-1.9-1.5l-1.6-5.8c-0.3-1.1,0.3-2.2,1.4-2.4c1.1-0.3,2.2,0.3,2.5,1.4
		l1.6,5.8C45.3,24.3,44.7,25.4,43.6,25.7z M55.4,28.3l-0.9,5.9c-0.1,1-1,1.7-2,1.7c-0.1,0-0.2,0-0.3,0c-1.1-0.2-1.9-1.2-1.7-2.3
		l0.9-5.9c0.2-1.1,1.2-1.8,2.3-1.7C54.8,26.2,55.6,27.2,55.4,28.3z M60.4,23.6L56.6,19c-0.7-0.8-0.6-2.1,0.3-2.8
		c0.8-0.7,2.1-0.6,2.8,0.3l3.8,4.6c0.7,0.8,0.6,2.1-0.3,2.8c-0.4,0.3-0.8,0.4-1.3,0.4C61.3,24.3,60.8,24.1,60.4,23.6z"/>
</g>
</svg>
