<?xml version="1.0" encoding="utf-8"?>
<!-- Generator: Adobe Illustrator 21.0.2, SVG Export Plug-In . SVG Version: 6.00 Build 0)  -->
<svg version="1.1" id="Layer_1" xmlns="http://www.w3.org/2000/svg" xmlns:xlink="http://www.w3.org/1999/xlink" x="0px" y="0px"
	 viewBox="0 0 100 100" style="enable-background:new 0 0 100 100;" xml:space="preserve">
<g>
	<path d="M93,44h-4.8l-3.4-6c-0.2-0.4-0.5-0.7-0.9-0.8l-14.5-6.8l-7.7-10.6c-0.2-0.3-0.5-0.5-0.9-0.7l-15-6
		c-0.7-0.3-1.6-0.1-2.1,0.4L31.8,25.4l-9.7,4.8c-0.3,0.2-0.5,0.4-0.7,0.6L12,44H7c-1.1,0-2,0.9-2,2c0,1.1,0.9,2,2,2h4.7l9.5,20.8
		c0.2,0.4,0.5,0.8,0.9,1l9.5,4.7L43.3,94c0.3,0.5,0.7,0.8,1.3,0.9c0.2,0,0.3,0,0.4,0c0.4,0,0.8-0.1,1.1-0.3l15-10
		c0.3-0.2,0.5-0.4,0.7-0.7l7.7-14.4l14.4-6.7c0.5-0.2,0.9-0.7,1.1-1.3L88.5,48H93c1.1,0,2-0.9,2-2C95,44.9,94.1,44,93,44z
		 M58.7,22.6l7.7,10.5c0.2,0.3,0.5,0.5,0.8,0.6l14.4,6.7l2,3.5H68.6l-13.5-9.6c-0.3-0.2-0.6-0.3-1-0.4l-7-0.6l5.4-6
		c0.6-0.6,0.7-1.6,0.2-2.4L49,18.8L58.7,22.6z M24.3,33.6l9.5-4.8c0.2-0.1,0.4-0.2,0.5-0.4l9.8-9.8l4.3,7.2l-7,7.9
		c-0.5,0.6-0.7,1.4-0.4,2.1c0.3,0.7,0.9,1.2,1.7,1.2l10.5,1l8.5,6.1H16.9L24.3,33.6z M81.3,59.6l-14.2,6.6c-0.4,0.2-0.7,0.5-0.9,0.9
		l-7.8,14.6l-12.8,8.5L34.7,72c-0.2-0.3-0.5-0.6-0.8-0.8l-9.4-4.7L16.1,48h68.3L81.3,59.6z"/>
	<path d="M88,19c3.9,0,7-3.1,7-7s-3.1-7-7-7s-7,3.1-7,7S84.1,19,88,19z M88,9c1.7,0,3,1.3,3,3c0,1.6-1.3,3-3,3s-3-1.4-3-3
		C85,10.3,86.3,9,88,9z"/>
</g>
</svg>
