<?xml version="1.0" encoding="utf-8"?>
<!-- Generator: Adobe Illustrator 21.0.2, SVG Export Plug-In . SVG Version: 6.00 Build 0)  -->
<svg version="1.1" id="Layer_1" xmlns="http://www.w3.org/2000/svg" xmlns:xlink="http://www.w3.org/1999/xlink" x="0px" y="0px"
	 viewBox="0 0 100 100" style="enable-background:new 0 0 100 100;" xml:space="preserve">
<g>
	<circle cx="88" cy="12" r="5"/>
	<path d="M93,44h-7.1L83,39l-15-7l-8-11l-12.7-5.1l5.4,9.1c0.3,0.4,0.3,0.9,0.2,1.4c-0.1,0.3-0.2,0.7-0.5,1l-5.4,6l7,0.6
		c0.4,0,0.7,0.2,1,0.4l8.7,6.2l4.8,3.4h-6.9l-8.5-6.1l-10.5-1c-0.8-0.1-1.4-0.5-1.7-1.2c-0.3-0.7-0.1-1.5,0.4-2.1l7-7.9L43.3,17
		c0-0.1-0.1-0.1-0.1-0.2L33,27l-10,5l-8.6,12H7c-1.1,0-2,0.9-2,2c0,1.1,0.9,2,2,2h6.9L23,68l10,5l12,20l15-10l8-15l15-7l3.5-13H93
		c1.1,0,2-0.9,2-2C95,44.9,94.1,44,93,44z"/>
</g>
</svg>
