<?xml version="1.0" encoding="utf-8"?>
<!-- Generator: Adobe Illustrator 21.0.2, SVG Export Plug-In . SVG Version: 6.00 Build 0)  -->
<svg version="1.1" id="Layer_1" xmlns="http://www.w3.org/2000/svg" xmlns:xlink="http://www.w3.org/1999/xlink" x="0px" y="0px"
	 viewBox="0 0 100 100" style="enable-background:new 0 0 100 100;" xml:space="preserve">
<g>
	<path d="M59,11h-4.3c-0.9-3.4-4-6-7.7-6H25c-3.7,0-6.8,2.6-7.7,6H13c-4.4,0-8,3.6-8,8v68c0,4.4,3.6,8,8,8h46c4.4,0,8-3.6,8-8V19
		C67,14.6,63.4,11,59,11z M25,9h22c2.2,0,4,1.8,4,4c0,2.2-1.8,4-4,4H25c-2.2,0-4-1.8-4-4C21,10.8,22.8,9,25,9z M63,87
		c0,2.2-1.8,4-4,4H13c-2.2,0-4-1.8-4-4V19c0-2.2,1.8-4,4-4h4.3c0.9,3.4,4,6,7.7,6h22c3.7,0,6.8-2.6,7.7-6H59c2.2,0,4,1.8,4,4V87z"/>
	<path d="M55,33H41c-1.1,0-2,0.9-2,2c0,1.1,0.9,2,2,2h14c1.1,0,2-0.9,2-2C57,33.9,56.1,33,55,33z"/>
	<path d="M55,45H41c-1.1,0-2,0.9-2,2c0,1.1,0.9,2,2,2h14c1.1,0,2-0.9,2-2C57,45.9,56.1,45,55,45z"/>
	<path d="M55,57H17c-1.1,0-2,0.9-2,2c0,1.1,0.9,2,2,2h38c1.1,0,2-0.9,2-2C57,57.9,56.1,57,55,57z"/>
	<path d="M55,69H17c-1.1,0-2,0.9-2,2c0,1.1,0.9,2,2,2h38c1.1,0,2-0.9,2-2C57,69.9,56.1,69,55,69z"/>
	<path d="M55,81H17c-1.1,0-2,0.9-2,2c0,1.1,0.9,2,2,2h38c1.1,0,2-0.9,2-2C57,81.9,56.1,81,55,81z"/>
	<path d="M93,35h-8V25h4c1.1,0,2-0.9,2-2c0-1.1-0.9-2-2-2H77c-1.1,0-2,0.9-2,2c0,1.1,0.9,2,2,2h4v10h-1.5l-3.5,0h0
		c-0.1,0-0.1,0-0.2,0H73c-1.1,0-2,0.9-2,2c0,1.1,0.9,2,2,2h1.1l0,6.7c0,0.1,0,0.2,0,0.2c0,0.1,0,0.2,0,0.2L73.9,64
		c0,2.4,0.9,4.7,2.6,6.4c1.2,1.2,2.8,2.1,4.5,2.5L81,83c0,1.1,0.9,2,2,2c0,0,0,0,0,0c1.1,0,2-0.9,2-2l0-10.2
		c3.9-0.9,6.9-4.5,6.9-8.7L92.1,39H93c1.1,0,2-0.9,2-2C95,35.9,94.1,35,93,35z M87.9,64c0,2.7-2.2,4.9-4.9,5h0c0,0,0,0,0,0
		c0,0-0.1,0-0.1,0c-1.3,0-2.6-0.5-3.5-1.5c-0.9-1-1.5-2.2-1.5-3.5l0-8l4,0h0c1.1,0,2-0.9,2-2c0-1.1-0.9-2-2-2l-4,0l0-4l4,0h0
		c1.1,0,2-0.9,2-2c0-1.1-0.9-2-2-2l-4,0l0-5h1.4l8.6,0L87.9,64z"/>
	<path d="M21,49h8c3.3,0,6-2.7,6-6V33c0-3.3-2.7-6-6-6h-8c-3.3,0-6,2.7-6,6v10C15,46.3,17.7,49,21,49z M19,33c0-1.1,0.9-2,2-2h8
		c1.1,0,2,0.9,2,2v10c0,1.1-0.9,2-2,2h-8c-1.1,0-2-0.9-2-2V33z"/>
</g>
</svg>
