<?xml version="1.0" encoding="utf-8"?>
<!-- Generator: Adobe Illustrator 21.0.2, SVG Export Plug-In . SVG Version: 6.00 Build 0)  -->
<svg version="1.1" id="Layer_1" xmlns="http://www.w3.org/2000/svg" xmlns:xlink="http://www.w3.org/1999/xlink" x="0px" y="0px"
	 viewBox="0 0 100 100" style="enable-background:new 0 0 100 100;" xml:space="preserve">
<g>
	<path d="M57,15h-4.3c-0.9,3.4-4,6-7.7,6H23c-3.7,0-6.8-2.6-7.7-6H11c-2.2,0-4,1.8-4,4v68c0,2.2,1.8,4,4,4h46c2.2,0,4-1.8,4-4V19
		C61,16.8,59.2,15,57,15z M13,33c0-3.3,2.7-6,6-6h8c3.3,0,6,2.7,6,6v10c0,3.3-2.7,6-6,6h-8c-3.3,0-6-2.7-6-6V33z M53,85H15
		c-1.1,0-2-0.9-2-2c0-1.1,0.9-2,2-2h38c1.1,0,2,0.9,2,2C55,84.1,54.1,85,53,85z M53,73H15c-1.1,0-2-0.9-2-2c0-1.1,0.9-2,2-2h38
		c1.1,0,2,0.9,2,2C55,72.1,54.1,73,53,73z M53,61H15c-1.1,0-2-0.9-2-2c0-1.1,0.9-2,2-2h38c1.1,0,2,0.9,2,2C55,60.1,54.1,61,53,61z
		 M53,49H39c-1.1,0-2-0.9-2-2c0-1.1,0.9-2,2-2h14c1.1,0,2,0.9,2,2C55,48.1,54.1,49,53,49z M53,37H39c-1.1,0-2-0.9-2-2
		c0-1.1,0.9-2,2-2h14c1.1,0,2,0.9,2,2C55,36.1,54.1,37,53,37z"/>
	<path d="M23,17h22c2.2,0,4-1.8,4-4c0-2.2-1.8-4-4-4H23c-2.2,0-4,1.8-4,4C19,15.2,20.8,17,23,17z"/>
	<path d="M91,35h-8V25h4c1.1,0,2-0.9,2-2c0-1.1-0.9-2-2-2H75c-1.1,0-2,0.9-2,2c0,1.1,0.9,2,2,2h4v10h-8c-1.1,0-2,0.9-2,2
		c0,1.1,0.9,2,2,2h3.1l0,5l6,0c1.1,0,2,0.9,2,2c0,1.1-0.9,2-2,2h0l-6,0l0,4h0l6,0c1.1,0,2,0.9,2,2c0,1.1-0.9,2-2,2h0l-6,0
		c0,0,0,0,0,0l0,8c0,3.2,2.2,5.9,5.1,6.8c0,0.1,0,0.2,0,0.2l0,12c0,1.1,0.9,2,2,2c0,0,0,0,0,0c1.1,0,2-0.9,2-2l0-12
		c0-0.1,0-0.2,0-0.3c2.9-0.9,4.9-3.5,4.9-6.7l0.1-25H91c1.1,0,2-0.9,2-2C93,35.9,92.1,35,91,35z"/>
	<path d="M19,45h8c1.1,0,2-0.9,2-2V33c0-1.1-0.9-2-2-2h-8c-1.1,0-2,0.9-2,2v10C17,44.1,17.9,45,19,45z"/>
</g>
</svg>
