<?xml version="1.0" encoding="utf-8"?>
<!-- Generator: Adobe Illustrator 23.0.1, SVG Export Plug-In . SVG Version: 6.00 Build 0)  -->
<svg version="1.1" id="Layer_1" xmlns="http://www.w3.org/2000/svg" xmlns:xlink="http://www.w3.org/1999/xlink" x="0px" y="0px"
	 viewBox="0 0 100 100" style="enable-background:new 0 0 100 100;" xml:space="preserve">
<path d="M50,5C25.2,5,5,25.2,5,50s20.2,45,45,45s45-20.2,45-45S74.8,5,50,5z M50,91C27.4,91,9,72.6,9,50S27.4,9,50,9s41,18.4,41,41
	S72.6,91,50,91z M44.1,42.7c-1.3-3.4-4.3-5.6-7.9-5.7H36c-1.8,0-3.5,0.4-5,1.3c-1.8-1-3.9-1.4-5.9-1.3c-3.4,0.3-6.2,2.5-7.3,5.9
	c-1.1,3.4-0.1,7.1,2.5,9.4l9.3,8.2c0.4,0.3,0.8,0.5,1.3,0.5s0.9-0.2,1.3-0.5l9.3-8.2C44.4,49.9,45.4,46.1,44.1,42.7z M39,49.3l-8,7
	l-8-7c-1.8-1.5-1.9-3.7-1.4-5.2c0.6-1.8,2-3,3.9-3.1c0.2,0,0.4,0,0.5,0c1.4,0,2.7,0.4,3.8,1.3c0.7,0.5,1.7,0.5,2.4,0
	c1.1-0.8,2.4-1.3,3.8-1.3h0.1c2,0,3.5,1.2,4.2,3C40.9,45.6,40.8,47.8,39,49.3z M82.1,42.7c-1.3-3.4-4.3-5.6-7.9-5.7H74
	c-1.8,0-3.5,0.4-5,1.3c-1.8-1-3.9-1.4-5.9-1.3c-3.4,0.3-6.2,2.5-7.3,5.9s-0.1,7.1,2.6,9.4l9.3,8.2c0.4,0.3,0.8,0.5,1.3,0.5
	s0.9-0.2,1.3-0.5l9.3-8.2C82.4,49.9,83.4,46.1,82.1,42.7z M77,49.3l-8,7l-8-7c-1.8-1.5-1.9-3.7-1.4-5.2c0.6-1.8,2-3,3.9-3.1
	c0.2,0,0.4,0,0.5,0c1.4,0,2.7,0.4,3.8,1.3c0.7,0.5,1.7,0.5,2.4,0c1.1-0.8,2.4-1.3,3.8-1.3h0.1c2,0,3.5,1.2,4.2,3
	C78.9,45.6,78.8,47.8,77,49.3z M66,71v3c0,5-4,9-9,9c-2.8,0-5.3-1.3-7-3.4c-1.7,2-4.2,3.4-7,3.4c-5,0-9-4-9-9v-3c0-1.1,0.9-2,2-2
	s2,0.9,2,2v3c0,2.8,2.2,5,5,5s5-2.2,5-5v-3c0-1.1,0.9-2,2-2s2,0.9,2,2v3c0,2.8,2.2,5,5,5s5-2.2,5-5v-3c0-1.1,0.9-2,2-2
	S66,69.9,66,71z"/>
</svg>
