<?xml version="1.0" encoding="utf-8"?>
<!-- Generator: Adobe Illustrator 21.0.2, SVG Export Plug-In . SVG Version: 6.00 Build 0)  -->
<svg version="1.1" id="Layer_1" xmlns="http://www.w3.org/2000/svg" xmlns:xlink="http://www.w3.org/1999/xlink" x="0px" y="0px"
	 viewBox="0 0 100 100" style="enable-background:new 0 0 100 100;" xml:space="preserve">
<path d="M93,38c-1.1,0-2,0.9-2,2v4h-8v-1.5l0-3.5c0-0.1,0-0.1,0-0.2V36c0-1.1-0.9-2-2-2s-2,0.9-2,2v1.1l-6.8,0c-0.1,0-0.1,0-0.2,0
	c0,0,0,0,0,0c-0.1,0-0.1,0-0.2,0L56,36.9H56c-2.4,0-4.6,0.9-6.3,2.6c-1.2,1.2-2.1,2.8-2.5,4.5L43,44v-3.2C43,32,36.4,24.3,27.6,23
	l-5.5-0.8C14.7,21.1,9,14.6,9,7c0-1.1-0.9-2-2-2S5,5.9,5,7v82c0,3.3,2.7,6,6,6h26c3.3,0,6-2.7,6-6V48l4.2,0c0.9,3.9,4.5,6.9,8.7,6.9
	L79,55.1V56c0,1.1,0.9,2,2,2s2-0.9,2-2v-8h8v4c0,1.1,0.9,2,2,2s2-0.9,2-2V40C95,38.9,94.1,38,93,38z M9,18.7c2.1,2.7,4.8,4.8,8,6.2
	V37c0,4.8-3.4,8.9-8,9.8V18.7z M11,91c-1.1,0-2-0.9-2-2V50.8c6.8-1,12-6.8,12-13.8V26c0.2,0,0.4,0.1,0.5,0.1l3.5,0.5v14
	c0,4.6,1,9.1,3,13.4c0.7,1.5,1,3.2,1,4.9c0,6.1-4.5,11-10,11h-2c-1.1,0-2,0.9-2,2c0,1.1,0.9,2,2,2h2c1.6,0,3.1-0.3,4.5-0.8
	c-0.7,6.2,0.6,12.5,3.7,17.8H11z M39,44h-2c-0.5,0-1,0.2-1.4,0.6C35.2,44.9,35,45.4,35,46c0,1.1,0.9,2,2,2h2v41c0,1.1-0.9,2-2,2h-5
	c-3.7-5.2-5.3-11.7-4.4-18l0.4-2.5c3.1-2.8,5-6.9,5-11.5c0-2.3-0.5-4.5-1.4-6.5c-1.7-3.8-2.6-7.7-2.6-11.8V27.4
	c5.8,1.8,10,7.2,10,13.4V44z M79,42.5l0,8.6l-23-0.1c-2.7,0-4.9-2.2-5-4.9v0c0,0,0-0.1,0-0.1c0-1.3,0.5-2.6,1.5-3.5
	c0.9-0.9,2.2-1.5,3.5-1.5h0l6,0l0,4c0,1.1,0.9,2,2,2c0,0,0,0,0,0c1.1,0,2-0.9,2-2l0-4l4,0l0,4c0,1.1,0.9,2,2,2c0,0,0,0,0,0
	c1.1,0,2-0.9,2-2l0-4l5,0V42.5z"/>
</svg>
