<?xml version="1.0" encoding="utf-8"?>
<!-- Generator: Adobe Illustrator 21.0.2, SVG Export Plug-In . SVG Version: 6.00 Build 0)  -->
<svg version="1.1" id="Layer_1" xmlns="http://www.w3.org/2000/svg" xmlns:xlink="http://www.w3.org/1999/xlink" x="0px" y="0px"
	 viewBox="0 0 100 100" style="enable-background:new 0 0 100 100;" xml:space="preserve">
<path d="M92.2,23.3c0.4,0.4,0.9,0.6,1.4,0.6c0.5,0,1-0.2,1.4-0.6c0.8-0.8,0.8-2,0-2.8L79.5,4.9c-0.8-0.8-2-0.8-2.8,0
	c-0.8,0.8-0.8,2.1,0,2.8l6.4,6.4l-3.4,3.4C71.7,10.1,61,5.7,49.3,5.7c-13.3,0-25.3,5.8-33.5,15c-0.1,0.1-0.2,0.1-0.2,0.2
	c-0.1,0.1-0.1,0.2-0.2,0.3c-6.9,7.9-11,18.2-11,29.5C4.3,62.3,8.8,73,16.2,81L5.3,91.9c-0.8,0.8-0.8,2,0,2.8
	c0.4,0.4,0.9,0.6,1.4,0.6c0.5,0,1-0.2,1.4-0.6L19,83.8c8,7.3,18.7,11.8,30.4,11.8c13.3,0,25.3-5.8,33.6-15.1
	c0.1-0.1,0.1-0.1,0.2-0.2c0.1-0.1,0.1-0.2,0.2-0.3c6.9-7.9,11-18.2,11-29.5c0-11.7-4.5-22.4-11.8-30.4l3.3-3.4L92.2,23.3z M49.3,9.7
	c10.6,0,20.2,4,27.5,10.6L73.2,24l-8.5-8.5c-2.3-2.3-6.1-2.3-8.5,0c-2.3,2.3-2.3,6.1,0,8.5l0.7,0.7L41,40.6L20,22.1
	C27.4,14.4,37.8,9.7,49.3,9.7z M34,56.1c-0.8-0.8-0.8-2,0-2.8l7.1-7.1L54.7,58L46.7,66c-0.8,0.8-2.1,0.8-2.8,0L34,56.1z M39.7,67.4
	l-3.8,3.8l-4.3,0.6c-0.4,0.1-0.8,0.3-1.1,0.6l-3.2,3.2l-2.8-2.8l3.2-3.2c0.3-0.3,0.5-0.7,0.6-1.1l0.6-4.3l3.8-3.8L39.7,67.4z
	 M44,43.3l4-4c2.2,3.2,5.7,5.4,9.6,6c2.1,0.3,4.2,1.3,5.7,2.8l0.7,0.7l-6.4,6.4L44,43.3z M50.9,36.4l8.8-8.8l5,5l-8.3,8.3
	C54.1,40,52.1,38.5,50.9,36.4z M60.9,42l6.6-6.6l1,1l3.9,4l-5.6,5.6l-0.7-0.7C64.6,43.8,62.8,42.7,60.9,42z M59,21.2
	c-0.8-0.8-0.8-2,0-2.8c0.8-0.8,2-0.8,2.8,0l19.8,19.8c0.8,0.8,0.8,2,0,2.8c-0.8,0.8-2,0.8-2.8,0L59,21.2z M19,78.2
	C12.4,70.9,8.3,61.2,8.3,50.7c0-9.7,3.4-18.5,9-25.6l20.8,18.4l-7,7C29.4,52.3,29,55,30,57.2l-4.5,4.5C25.2,62,25,62.4,25,62.9
	l-0.6,4.3l-4.2,4.2c-0.4,0.4-0.6,0.9-0.6,1.4c0,0.5,0.2,1,0.6,1.4l1.4,1.4L19,78.2z M49.3,91.7c-10.6,0-20.2-4-27.5-10.6l2.6-2.6
	l1.4,1.4c0.4,0.4,0.9,0.6,1.4,0.6c0.5,0,1-0.2,1.4-0.6l4.2-4.2l4.3-0.6c0.4-0.1,0.8-0.3,1.1-0.6l4.5-4.5c0.8,0.4,1.7,0.6,2.6,0.6
	c1.6,0,3.1-0.6,4.2-1.8l8.1-8.1l21,18.5C71.3,86.9,60.9,91.7,49.3,91.7z M90.3,50.7c0,9.7-3.4,18.5-9,25.6L60.5,57.9l7.7-7.7
	l7.1-7.1l0.7,0.7c1.2,1.2,2.7,1.8,4.2,1.8s3.1-0.6,4.2-1.8c2.3-2.3,2.3-6.1,0-8.5L76,26.8l3.7-3.7C86.3,30.4,90.3,40.1,90.3,50.7z"
	/>
</svg>
