<?xml version="1.0" encoding="utf-8"?>
<!-- Generator: Adobe Illustrator 21.0.2, SVG Export Plug-In . SVG Version: 6.00 Build 0)  -->
<svg version="1.1" id="Layer_1" xmlns="http://www.w3.org/2000/svg" xmlns:xlink="http://www.w3.org/1999/xlink" x="0px" y="0px"
	 viewBox="0 0 100 100" style="enable-background:new 0 0 100 100;" xml:space="preserve">
<path d="M93,38c-1.1,0-2,0.9-2,2v4h-8v-8c0-1.1-0.9-2-2-2s-2,0.9-2,2v3.1l-5,0l0,6c0,1.1-0.9,2-2,2c0,0,0,0,0,0c-1.1,0-2-0.9-2-2
	l0-6l-4,0c0,0,0,0,0,0l0,6c0,1.1-0.9,2-2,2c0,0,0,0,0,0c-1.1,0-2-0.9-2-2l0-6c0,0,0,0,0,0l-7,0c-3.2,0-5.9,2.1-6.8,5.1L41,44v-3.4
	c0-8.9-6.3-16.3-15.1-17.8l-3.8-0.6C14.7,21.1,9,14.6,9,7c0-1.1-0.9-2-2-2S5,5.9,5,7v82c0,3.3,2.7,6,6,6h24c3.3,0,6-2.7,6-6V48
	l7.3,0c0.9,2.8,3.5,4.9,6.7,4.9l24,0.1V56c0,1.1,0.9,2,2,2s2-0.9,2-2v-8h8v4c0,1.1,0.9,2,2,2s2-0.9,2-2V40C95,38.9,94.1,38,93,38z
	 M21,37c0,2.1-0.5,4.2-1.4,6s-2.1,3.4-3.6,4.7c-0.9,0.8-1.9,1.4-3,1.9c-1.2,0.6-2.6,1-4,1.2V18.7c2.1,2.7,4.8,4.8,8,6.2
	c1.3,0.5,2.6,0.9,4,1.2V37z M37,44h-2c-0.5,0-1,0.2-1.4,0.6C33.2,44.9,33,45.4,33,46c0,1.1,0.9,2,2,2h2v41c0,1.1-0.9,2-2,2h-7.7
	c-0.8-1.3-1.4-2.6-1.9-4c-1.8-4.5-2.4-9.4-1.7-14.3c1.6-0.8,3.1-1.8,4.3-3.2C30.5,66.8,32,63.1,32,59c0-2.3-0.5-4.5-1.4-6.5
	c-1.7-3.8-2.6-7.7-2.6-11.8V27.5c5.3,2,9,7.1,9,13.1V44z"/>
</svg>
