<?xml version="1.0" encoding="utf-8"?>
<!-- Generator: Adobe Illustrator 23.0.1, SVG Export Plug-In . SVG Version: 6.00 Build 0)  -->
<svg version="1.1" id="Layer_1" xmlns="http://www.w3.org/2000/svg" xmlns:xlink="http://www.w3.org/1999/xlink" x="0px" y="0px"
	 viewBox="0 0 100 100" style="enable-background:new 0 0 100 100;" xml:space="preserve">
<path d="M29,17c0,1.1-0.9,2-2,2s-2-0.9-2-2c0-1.1,0.9-2,2-2S29,15.9,29,17z M60,59H35c-1.1,0-2,0.9-2,2c0,1.1,0.9,2,2,2h25
	c1.1,0,2-0.9,2-2C62,59.9,61.1,59,60,59z M60,49H35c-1.1,0-2,0.9-2,2c0,1.1,0.9,2,2,2h25c1.1,0,2-0.9,2-2C62,49.9,61.1,49,60,49z
	 M60,39H35c-1.1,0-2,0.9-2,2c0,1.1,0.9,2,2,2h25c1.1,0,2-0.9,2-2C62,39.9,61.1,39,60,39z M60,29H35c-1.1,0-2,0.9-2,2
	c0,1.1,0.9,2,2,2h25c1.1,0,2-0.9,2-2C62,29.9,61.1,29,60,29z M60,19H35c-1.1,0-2,0.9-2,2c0,1.1,0.9,2,2,2h25c1.1,0,2-0.9,2-2
	C62,19.9,61.1,19,60,19z M95,87v6c0,1.1-0.9,2-2,2H21c-2.6,0-4.8-1.7-5.7-4H12c-3.9,0-7-3.1-7-7s3.1-7,7-7h3V19h-3c-3.9,0-7-3.1-7-7
	s3.1-7,7-7h67c6.1,0,11,4.9,11,11v30.4c0,2.8-1,5.5-2.7,7.6L81,61.7V69h3c1.1,0,2,0.9,2,2v8h1C91.4,79,95,82.6,95,87z M15,81h-3
	c-1.7,0-3,1.3-3,3c0,1.6,1.3,3,3,3h3V81z M15,9h-3c-1.7,0-3,1.3-3,3c0,1.6,1.3,3,3,3h3V9z M72,46.4c0,1.8,0.6,3.6,1.8,5.1l5.2,6.3
	l5.2-6.3c1.2-1.4,1.8-3.2,1.8-5.1V16c0-3.9-3.1-7-7-7s-7,3.1-7,7V46.4z M19,73h53v-2c0-1.1,0.9-2,2-2h3v-7.3L70.7,54
	C69,51.9,68,49.2,68,46.4V16c0-2.7,1-5.1,2.5-7H19V73z M71,79h1v-2H19v12c0,1.1,0.9,2,2,2h42v-4C63,82.6,66.6,79,71,79z M91,87
	c0-2.2-1.8-4-4-4h-3c-1.1,0-2-0.9-2-2v-8h-6v8c0,1.1-0.9,2-2,2h-3c-2.2,0-4,1.8-4,4v4h24V87z"/>
</svg>
