<?xml version="1.0" encoding="utf-8"?>
<!-- Generator: Adobe Illustrator 23.0.1, SVG Export Plug-In . SVG Version: 6.00 Build 0)  -->
<svg version="1.1" id="Layer_1" xmlns="http://www.w3.org/2000/svg" xmlns:xlink="http://www.w3.org/1999/xlink" x="0px" y="0px"
	 viewBox="0 0 100 100" style="enable-background:new 0 0 100 100;" xml:space="preserve">
<style type="text/css">
	.st0{fill:#000000;}
</style>
<g>
	<path class="st0" d="M74.2,23.3h-1v-1c0-3.9-3.1-7-7-7s-7,3.1-7,7v13c0,1.1,0.9,2,2,2h13c3.9,0,7-3.1,7-7S78.1,23.3,74.2,23.3z
		 M74.2,33.3h-11v-11c0-1.7,1.3-3,3-3s3,1.3,3,3v3c0,1.1,0.9,2,2,2h3c1.7,0,3,1.3,3,3S75.9,33.3,74.2,33.3z"/>
	<path class="st0" d="M81.5,15c-2.8-5.9-8.8-9.7-15.3-9.7c-9.4,0-17,7.6-17,17v15L9.4,77.1C9,77.5,8.8,78,8.8,78.6s0.2,1,0.6,1.4
		l14.1,14.1c0.4,0.4,0.9,0.6,1.4,0.6s1-0.2,1.4-0.6l7.1-7.1c0.4-0.4,0.6-0.9,0.6-1.4s-0.2-1-0.6-1.4l-5.7-5.7l4.2-4.2l5.7,5.7
		c0.8,0.8,2.1,0.8,2.8,0l7.1-7.1c0.8-0.8,0.8-2,0-2.8l-5.7-5.7L59,47.3h15.2c9.4,0,17-7.6,17-17C91.2,23.7,87.4,17.8,81.5,15z
		 M74.2,43.3h-16c-0.5,0-1,0.2-1.4,0.6L37.7,63c-0.8,0.8-0.8,2,0,2.8l5.7,5.7l-4.2,4.2l-5.7-5.7c-0.8-0.8-2-0.8-2.8,0l-7.1,7.1
		c-0.8,0.8-0.8,2,0,2.8l5.7,5.7l-4.2,4.2L13.6,78.6l39-39c0.4-0.4,0.6-0.9,0.6-1.4V22.3c0-7.2,5.8-13,13-13c5.2,0,9.9,3.1,12,8
		c0.2,0.5,0.6,0.9,1.1,1.1c4.8,2,8,6.7,8,12C87.2,37.5,81.4,43.3,74.2,43.3z"/>
</g>
</svg>
