<?xml version="1.0" encoding="utf-8"?>
<!-- Generator: Adobe Illustrator 23.0.1, SVG Export Plug-In . SVG Version: 6.00 Build 0)  -->
<svg version="1.1" id="Layer_1" xmlns="http://www.w3.org/2000/svg" xmlns:xlink="http://www.w3.org/1999/xlink" x="0px" y="0px"
	 viewBox="0 0 100 100" style="enable-background:new 0 0 100 100;" xml:space="preserve">
<path d="M42.9,80.7c1.4,1.3,3.2,2.3,5.1,2.7v5.3H27.5c-1.4,0-2.5-0.9-2.5-2v-4h4c1.1,0,2-0.9,2-2v-8h2.8c1.6,2,3.9,3.3,6.5,3.7
	C40.7,78.1,41.7,79.6,42.9,80.7z M69,80.7v-8h-2.8c-1.6,2-3.9,3.3-6.5,3.7c-0.5,1.7-1.4,3.1-2.7,4.3C55.7,82.1,54,83,52,83.4v5.3
	h21.5c1.4,0,2.5-0.9,2.5-2v-4h-5C69.9,82.7,69,81.8,69,80.7z M27,72.7h-7c-1.7,0-3,1.3-3,3c0,1.6,1.3,3,3,3h7V72.7z M80,72.7h-7v6h7
	c1.7,0,3-1.4,3-3C83,74.1,81.7,72.7,80,72.7z M29.9,40.6h1.3c1,0,1.9,0.8,2,1.8c0.2,1.8,0.8,3.6,1.6,5.2c1.5-0.2,2.9-0.8,4.2-1.6
	c3-1.9,6.9-3,11-3s8,1.1,11,3c1.3,0.9,2.7,1.4,4.2,1.6c0.8-1.7,1.4-3.4,1.6-5.2c0.1-1,1-1.8,2-1.8h1.1c2.1,0,3.9-1.5,4.1-3.5
	c0.1-1.1-0.2-2.2-1-3c-0.7-0.8-1.8-1.3-2.9-1.3h-1.2c-1.1,0-2-0.9-2-2v-2H33.1v2c0,1.1-0.9,2-2,2h-0.9c-2.1,0-3.9,1.6-4.1,3.5
	c-0.1,1.1,0.2,2.2,1,3C27.8,40.2,28.8,40.6,29.9,40.6z M66.9,13.5c-2,1.7-4.6,2.8-7.5,2.8c-3.9,0-7.4-2-9.5-5c-2.1,3-5.5,5-9.5,5
	c-2.8,0-5.5-1-7.5-2.8v11.3h33.8V13.5z M50,79.6c-3.1,0-5.8-2.3-6.2-5.4c-0.1-1-1-1.7-2-1.7c0,0-0.1,0-0.1,0c-3.4,0-6.2-2.8-6.2-6.3
	c0-1.1-0.9-2-2-2c-3.5,0-6.3-2.8-6.3-6.3c0-1.7,0.7-3.3,1.8-4.4c1.1-1.1,2.7-1.8,4.4-1.8c0,0,0.2,0,0.2,0c0.1,0,0.2,0,0.2,0
	c2.3-0.1,4.7-0.8,6.7-2c0.2-0.1,0.4-0.2,0.6-0.4c2.3-1.5,5.5-2.4,8.8-2.4s6.5,0.8,8.8,2.4c0.2,0.1,0.4,0.2,0.6,0.4
	c2.1,1.2,4.4,1.9,6.7,2c0.1,0,0.2,0,0.3,0c0,0,0.1,0,0.2,0c3.5,0,6.2,2.8,6.2,6.3c0,3.5-2.8,6.3-6.3,6.3c-1.1,0-2,0.9-2,2
	c0,3.4-2.8,6.2-6.2,6.3c0,0-0.1,0-0.1,0c-1,0-1.8,0.7-2,1.7C55.8,77.3,53.1,79.6,50,79.6z M50,60c2.3,0,4.7-0.9,6.4-2.7
	c0.8-0.8,0.8-2,0-2.8c-0.8-0.8-2-0.8-2.8,0c-0.8,0.8-1.8,1.3-2.8,1.4c-0.5,0.1-1,0.1-1.6,0c-1-0.2-2-0.6-2.8-1.4
	c-0.8-0.8-2.1-0.8-2.8,0c-0.8,0.8-0.8,2,0,2.8C45.3,59.1,47.7,60,50,60z"/>
</svg>
