<?xml version="1.0" encoding="utf-8"?>
<!-- Generator: Adobe Illustrator 23.0.1, SVG Export Plug-In . SVG Version: 6.00 Build 0)  -->
<svg version="1.1" id="Layer_1" xmlns="http://www.w3.org/2000/svg" xmlns:xlink="http://www.w3.org/1999/xlink" x="0px" y="0px"
	 viewBox="0 0 100 100" style="enable-background:new 0 0 100 100;" xml:space="preserve">
<style type="text/css">
	.st0{fill:#000000;}
</style>
<path class="st0" d="M80,71H68.2c0-0.2,0.1-0.4,0.1-0.6c4.8-0.9,8.4-5.1,8.4-10.1c0-4.7-3.2-8.6-7.5-9.9c0.5-1.1,0.8-2.3,1.1-3.5
	c3.9-0.3,7.2-3.3,7.5-7.1c0.2-2.2-0.5-4.4-2-6.1c-1.3-1.4-3.1-2.4-5-2.5V7c0-1.1-0.9-2-2-2c-1.1,0-2,0.9-2,2c0,4.1-3.3,7.5-7.5,7.5
	S52,11.2,52,7c0-1.1-0.9-2-2-2s-2,0.9-2,2c0,4.1-3.3,7.5-7.5,7.5s-7.5-3.3-7.5-7.5c0-1.1-0.9-2-2-2c-1.1,0-2,0.9-2,2v24.1
	c-3.7,0.5-6.7,3.4-7.1,7.1c-0.2,2.2,0.5,4.4,2,6.1c1.4,1.6,3.4,2.5,5.5,2.6c0.3,1.2,0.6,2.4,1.1,3.5c-4.3,1.2-7.5,5.2-7.5,9.9
	c0,5,3.7,9.2,8.4,10.1c0,0.2,0.1,0.4,0.1,0.6H20c-3.9,0-7,3.1-7,7s3.1,7,7,7h1v4c0,3.3,2.9,6,6.5,6h46c3.6,0,6.5-2.7,6.5-6v-4
	c3.9,0,7-3.1,7-7S83.9,71,80,71z M33.1,15.7c2,1.7,4.6,2.8,7.5,2.8c3.9,0,7.4-2,9.5-5c2.1,3,5.5,5,9.5,5c2.8,0,5.5-1,7.5-2.8V27
	H33.1V15.7z M29.9,42.9c-1.1,0-2.1-0.5-2.9-1.3c-0.8-0.8-1.1-1.9-1-3c0.2-2,2-3.5,4.1-3.5h0.9c1.1,0,2-0.9,2-2v-2h33.8v2
	c0,1.1,0.9,2,2,2h1.2c1.1,0,2.1,0.5,2.9,1.3c0.8,0.8,1.1,1.9,1,3c-0.2,2-2,3.5-4.1,3.5h-1.1c-1,0-1.9,0.8-2,1.8
	c-0.2,1.8-0.8,3.6-1.6,5.2c-1.5-0.2-2.9-0.8-4.2-1.6c-3-1.9-6.9-3-11-3s-8,1.1-11,3c-1.3,0.9-2.7,1.4-4.2,1.6
	c-0.8-1.7-1.4-3.4-1.6-5.2c-0.1-1-1-1.8-2-1.8H29.9z M20,81c-1.7,0-3-1.4-3-3c0-1.7,1.3-3,3-3h7v6H20z M48,91H27.5
	c-1.4,0-2.5-0.9-2.5-2v-4h4c1.1,0,2-0.9,2-2v-8h2.8c1.6,2,3.9,3.3,6.5,3.7c1.1,3.6,4.1,6.3,7.8,7V91z M43.8,76.5c-0.1-1-1-1.7-2-1.7
	c0,0-0.1,0-0.1,0c-3.4,0-6.2-2.8-6.2-6.3c0-1.1-0.9-2-2-2c-3.5,0-6.3-2.8-6.3-6.3c0-1.7,0.7-3.3,1.8-4.4c1.1-1.1,2.7-1.8,4.4-1.8
	c0,0,0.2,0,0.2,0c0.1,0,0.2,0,0.2,0c2.6-0.1,5.1-0.9,7.3-2.3c2.3-1.5,5.5-2.4,8.8-2.4s6.5,0.8,8.8,2.4c2.2,1.5,4.8,2.3,7.3,2.3
	c0.1,0,0.2,0,0.3,0c0,0,0.1,0,0.2,0c3.5,0,6.2,2.8,6.2,6.3c0,3.5-2.8,6.3-6.3,6.3c-1.1,0-2,0.9-2,2c0,3.4-2.8,6.2-6.2,6.3
	c0,0-0.1,0-0.1,0c-1,0-1.8,0.7-2,1.7c-0.4,3.1-3.1,5.4-6.2,5.4S44.2,79.6,43.8,76.5z M76,89c0,1.1-1.1,2-2.5,2H52v-5.3
	c3.7-0.7,6.7-3.4,7.8-7c2.6-0.4,4.9-1.8,6.5-3.7H69v8c0,1.1,0.9,2,2,2h5V89z M80,81h-7v-6h7c1.7,0,3,1.3,3,3C83,79.6,81.7,81,80,81z
	 M56.4,59.6c-1.8,1.8-4.1,2.7-6.4,2.7s-4.7-0.9-6.4-2.7c-0.8-0.8-0.8-2,0-2.8c0.8-0.8,2-0.8,2.8,0c0.8,0.8,1.8,1.3,2.8,1.4
	c0.5,0.1,1,0.1,1.6,0c1-0.2,2-0.6,2.8-1.4c0.8-0.8,2.1-0.8,2.8,0C57.2,57.5,57.2,58.8,56.4,59.6z"/>
</svg>
