<?xml version="1.0" encoding="utf-8"?>
<!-- Generator: Adobe Illustrator 21.0.2, SVG Export Plug-In . SVG Version: 6.00 Build 0)  -->
<svg version="1.1" id="Layer_1" xmlns="http://www.w3.org/2000/svg" xmlns:xlink="http://www.w3.org/1999/xlink" x="0px" y="0px"
	 viewBox="0 0 100 100" style="enable-background:new 0 0 100 100;" xml:space="preserve">
<path d="M76.8,40.1l0.7-28.8l3-3c0.8-0.8,0.8-2,0-2.8c-0.8-0.8-2-0.8-2.8,0l-3,3L45.9,9.2l-3.6-3.6c-0.8-0.8-2-0.8-2.8,0
	c-0.8,0.8-0.8,2.1,0,2.8l3.5,3.5l-5,28l-1.7-5c-0.7-1.9-2.3-3.4-4.3-3.8c-2-0.5-4.1,0.1-5.6,1.6l-2.5,2.5c-1.5,1.5-2.1,3.5-1.6,5.6
	c0.5,2,1.9,3.6,3.9,4.3l6,2.1c0,1.1,0.3,2.1,0.8,3l-9.2,9.2c-1.8,1.8-2.9,4.3-2.9,6.9c0,2.6,1,5.1,2.9,6.9c1.8,1.8,4.3,2.9,6.9,2.9
	h27.2c4.1,0,7.5,3.4,7.5,7.5c0,4.1-3.4,7.5-7.5,7.5H21c-1.1,0-2,0.9-2,2c0,1.1,0.9,2,2,2h36.7c6.3,0,11.5-5.2,11.5-11.5
	c0-6.3-5.2-11.5-11.5-11.5H30.5c-1.5,0-3-0.6-4.1-1.7c-1.1-1.1-1.7-2.5-1.7-4.1c0-1.5,0.6-3,1.7-4l9.2-9.1c0.9,0.5,1.9,0.8,3,0.8
	l2.1,5.9c0.7,2,2.3,3.4,4.3,3.9c0.5,0.1,0.9,0.2,1.3,0.2c1.6,0,3.1-0.6,4.2-1.8l2.5-2.5c1.5-1.5,2.1-3.5,1.6-5.6
	c-0.5-2-1.9-3.6-3.9-4.3L46.1,48l28-4.9l3.5,3.5c0.4,0.4,0.9,0.6,1.4,0.6s1-0.2,1.4-0.6c0.8-0.8,0.8-2,0-2.8L76.8,40.1z M33,43.4
	l-5.7-2c-0.7-0.2-1.1-0.8-1.3-1.4c-0.2-0.7,0-1.4,0.5-1.9l2.5-2.5c0.4-0.4,0.9-0.6,1.4-0.6c0.1,0,0.3,0,0.5,0.1
	c0.7,0.1,1.2,0.6,1.4,1.3l1.9,5.5C33.8,42.2,33.4,42.8,33,43.4z M70.5,12.6L59.9,23.2L49.8,13.1L70.5,12.6z M39,50c-1.7,0-3-1.4-3-3
	c0-1.7,1.3-3,3-3s3,1.3,3,3C42,48.6,40.7,50,39,50z M42.3,40.8c-0.1-0.1-0.3-0.1-0.4-0.2l4.5-25.3L57.1,26L42.3,40.8z M49.6,53.5
	c0.9,0.3,1.2,1.1,1.3,1.4c0.2,0.7,0,1.4-0.5,1.9l-2.5,2.5c-0.5,0.5-1.2,0.7-1.9,0.5c-0.7-0.2-1.2-0.6-1.4-1.3l-2-5.5
	c0.7-0.4,1.2-0.9,1.7-1.4L49.6,53.5z M45.3,44c-0.1-0.1-0.1-0.3-0.2-0.4l14.8-14.8l10.7,10.7L45.3,44z M72.9,36.2L62.7,26l10.6-10.6
	L72.9,36.2z"/>
</svg>
