<?xml version="1.0" encoding="utf-8"?>
<!-- Generator: Adobe Illustrator 21.0.2, SVG Export Plug-In . SVG Version: 6.00 Build 0)  -->
<svg version="1.1" id="Layer_1" xmlns="http://www.w3.org/2000/svg" xmlns:xlink="http://www.w3.org/1999/xlink" x="0px" y="0px"
	 viewBox="0 0 100 100" style="enable-background:new 0 0 100 100;" xml:space="preserve">
<path d="M74.8,38.1l0.6-24.7l5-5c0.8-0.8,0.8-2,0-2.8c-0.8-0.8-2-0.8-2.8,0l-5,5l-24.7,0.6l-5.6-5.6c-0.8-0.8-2-0.8-2.8,0
	c-0.8,0.8-0.8,2,0,2.8l5.2,5.2L39.8,41c-0.7,0-1.4,0.2-2,0.5l-2.4-6.9c-1-2.8-4.5-3.6-6.6-1.5l-2.5,2.5c-2.1,2.1-1.3,5.6,1.5,6.6
	l7.5,2.6C35.1,45.2,35,45.6,35,46c0,0.6,0.1,1.2,0.3,1.8L33,50.1c0,0,0,0,0,0c0,0,0,0,0,0l-9.4,9.4c-1.8,1.8-2.8,4.3-2.8,6.9
	c0,2.6,1,5,2.8,6.9c1.8,1.8,4.3,2.8,6.9,2.8h27.2c4.1,0,7.5,3.4,7.5,7.5s-3.4,7.5-7.5,7.5H21c-1.1,0-2,0.9-2,2s0.9,2,2,2h36.7
	c6.3,0,11.5-5.2,11.5-11.5s-5.2-11.5-11.5-11.5H30.5c-1.5,0-3-0.6-4.1-1.7s-1.7-2.5-1.7-4c0-1.5,0.6-3,1.7-4.1l9.4-9.4c0,0,0,0,0,0
	c0,0,0,0,0,0l2.3-2.3c0.6,0.2,1.2,0.4,1.9,0.4c0.4,0,0.7,0,1-0.1l2.6,7.3c1,2.8,4.5,3.6,6.6,1.5l2.5-2.5c2.1-2.1,1.3-5.6-1.5-6.6
	l-6.8-2.4c0.3-0.6,0.5-1.3,0.5-2.1l27.4-4.8l5.2,5.2c0.4,0.4,0.9,0.6,1.4,0.6s1-0.2,1.4-0.6c0.8-0.8,0.8-2,0-2.8L74.8,38.1z"/>
</svg>
