<?xml version="1.0" encoding="utf-8"?>
<!-- Generator: Adobe Illustrator 23.0.1, SVG Export Plug-In . SVG Version: 6.00 Build 0)  -->
<svg version="1.1" id="Layer_1" xmlns="http://www.w3.org/2000/svg" xmlns:xlink="http://www.w3.org/1999/xlink" x="0px" y="0px"
	 viewBox="0 0 100 100" style="enable-background:new 0 0 100 100;" xml:space="preserve">
<path d="M71,83c0,3.1,1.2,5.9,3.1,8H52V74.9c2.1-0.2,4-0.8,5.8-1.7l13.2,7V83z M29,80.2V83c0,3.1-1.2,5.9-3.1,8H48V74.9
	c-2.1-0.2-4-0.8-5.8-1.7L29,80.2z M9,89v2h8c4.4,0,8-3.6,8-8v-2h-8C12.6,81,9,84.6,9,89z M83,81h-8v2c0,4.4,3.6,8,8,8h8v-2
	C91,84.6,87.4,81,83,81z M67.7,22.2c-0.6,0-1.2,0.1-1.8,0.3c-0.6,0.2-1.2,0.1-1.7-0.3c-0.5-0.3-0.8-0.9-0.9-1.5
	C62.7,14.1,57.2,9,50.6,9c-7,0-12.8,5.7-12.8,12.8c0,2.7,0.8,5.2,2.3,7.2c0.9-0.6,1.9-1.2,3-1.6V20c0-1.1,0.9-2,2-2h10
	c1.1,0,2,0.9,2,2v7.4c6,2.5,10.3,8.2,10.9,14.9l2,0.6c0.3-0.8,0.5-1.6,0.5-2.4c0-1.1-0.2-2.1-0.7-3c-0.3-0.5-0.3-1-0.1-1.5
	c0.2-0.5,0.5-0.9,1-1.2c2.3-1.1,3.7-3.4,3.7-5.9C74.2,25.2,71.3,22.2,67.7,22.2z M63.4,61.1l-12.8,3.8C50.4,65,50.2,65,50,65
	s-0.4,0-0.6-0.1l-12.8-3.8C38.4,66.8,43.7,71,50,71S61.6,66.8,63.4,61.1z M36.3,41l13.1-3.9c0,0,0.1,0,0.1,0c0.1,0,0.2,0,0.2,0
	c0.1,0,0.1,0,0.2,0s0.2,0,0.2,0c0.1,0,0.2,0,0.2,0c0,0,0.1,0,0.1,0L63.7,41c-0.8-3.9-3.3-7.2-6.7-9.1V33c0,1.1-0.9,2-2,2s-2-0.9-2-2
	V22h-6v11c0,1.1-0.9,2-2,2s-2-0.9-2-2v-1.1C39.7,33.8,37.2,37.1,36.3,41z M48,60.3V41.7l-6,1.8v15L48,60.3z M38,44.7l-6,1.8v9l6,1.8
	V44.7z M58,58.5v-15l-6-1.8v18.6L58,58.5z M68,55.5v-9l-6-1.8v12.6L68,55.5z"/>
</svg>
