<?xml version="1.0" encoding="utf-8"?>
<!-- Generator: Adobe Illustrator 23.0.1, SVG Export Plug-In . SVG Version: 6.00 Build 0)  -->
<svg version="1.1" id="Layer_1" xmlns="http://www.w3.org/2000/svg" xmlns:xlink="http://www.w3.org/1999/xlink" x="0px" y="0px"
	 viewBox="0 0 100 100" style="enable-background:new 0 0 100 100;" xml:space="preserve">
<path d="M83,77h-9.5l-11.8-6.3c3.2-2.7,5.4-6.6,6.1-10.9l2.8-0.8c0.8-0.3,1.4-1,1.4-1.9V47c1.5-1.8,2.3-4.1,2.3-6.6
	c0-1.1-0.2-2.1-0.5-3.1c2.7-2,4.4-5.1,4.4-8.5c0-5.8-4.7-10.6-10.5-10.6c-0.2,0-0.5,0-0.7,0C65.3,10.7,58.5,5,50.6,5
	c-9.3,0-16.8,7.5-16.8,16.8c0,3.7,1.2,7.1,3.2,9.8c-2.7,2.8-4.5,6.6-4.9,10.7l-2.7,0.8c-0.8,0.3-1.4,1-1.4,1.9v12
	c0,0.9,0.6,1.7,1.4,1.9l2.8,0.8c0.7,4.3,2.9,8.2,6.1,10.9L26.5,77H17c-6.6,0-12,5.4-12,12v4c0,1.1,0.9,2,2,2h86c1.1,0,2-0.9,2-2v-4
	C95,82.4,89.6,77,83,77z M68,55.5l-6,1.8V44.7l6,1.8V55.5z M50.6,9c6.6,0,12.2,5.1,12.7,11.7c0,0.6,0.4,1.1,0.9,1.5
	c0.5,0.3,1.1,0.4,1.7,0.3c0.6-0.2,1.2-0.3,1.8-0.3c3.6,0,6.5,2.9,6.5,6.6c0,2.5-1.4,4.8-3.7,5.9c-0.5,0.2-0.9,0.7-1,1.2
	c-0.2,0.5-0.1,1.1,0.1,1.5c0.5,1,0.7,2,0.7,3c0,0.9-0.2,1.7-0.5,2.4l-2-0.6C67.3,35.6,63,29.9,57,27.4V20c0-1.1-0.9-2-2-2H45
	c-1.1,0-2,0.9-2,2v7.4c-1,0.4-2,1-3,1.6c-1.4-2.1-2.3-4.5-2.3-7.2C37.8,14.7,43.5,9,50.6,9z M43,31.9V33c0,1.1,0.9,2,2,2s2-0.9,2-2
	V22h6v11c0,1.1,0.9,2,2,2s2-0.9,2-2v-1.1c3.3,1.9,5.8,5.2,6.7,9.1l-13.1-3.9c0,0-0.1,0-0.1,0c-0.1,0-0.2,0-0.2,0c-0.1,0-0.1,0-0.2,0
	s-0.2,0-0.2,0c-0.1,0-0.2,0-0.2,0c0,0-0.1,0-0.1,0L36.3,41C37.2,37.1,39.7,33.8,43,31.9z M58,43.5v15l-6,1.8V41.7L58,43.5z M48,41.7
	v18.6l-6-1.8v-15L48,41.7z M32,55.5v-9l6-1.8v12.6L32,55.5z M25,83c0,4.4-3.6,8-8,8H9v-2c0-4.4,3.6-8,8-8h8V83z M48,91H25.9
	c1.9-2.1,3.1-4.9,3.1-8v-2.8l13.2-7c1.8,0.9,3.8,1.5,5.8,1.7V91z M36.6,61.1l12.8,3.8c0.2,0,0.4,0.1,0.6,0.1s0.4,0,0.6-0.1l12.8-3.8
	C61.6,66.8,56.3,71,50,71S38.4,66.8,36.6,61.1z M52,91V74.9c2.1-0.2,4-0.8,5.8-1.7l13.2,7V83c0,3.1,1.2,5.9,3.1,8H52z M91,91h-8
	c-4.4,0-8-3.6-8-8v-2h8c4.4,0,8,3.6,8,8V91z"/>
</svg>
