<?xml version="1.0" encoding="utf-8"?>
<!-- Generator: Adobe Illustrator 21.0.2, SVG Export Plug-In . SVG Version: 6.00 Build 0)  -->
<svg version="1.1" id="Layer_1" xmlns="http://www.w3.org/2000/svg" xmlns:xlink="http://www.w3.org/1999/xlink" x="0px" y="0px"
	 viewBox="0 0 100 100" style="enable-background:new 0 0 100 100;" xml:space="preserve">
<g>
	<path d="M89,82H67v-4c0-2.2-1.8-4-4-4h-3.9c0,0,0,0,0,0c2.7-2.7,2.8-7,0.3-9.9L54,57.9l-5.4,6.2C46,67,46.2,71.3,48.9,74
		c0,0,0,0,0,0H45c-2.2,0-4,1.8-4,4v4H23V30.9c1.2-0.7,2.2-1.7,2.9-2.9h17.1c-1,1.5-1.7,3.3-1.9,5.2l4.7,0.9c2.6,0.5,5.4,0.3,7.9-0.5
		c3.3-1.1,6.9-1.3,10.4-0.5l2.8,0.6c-0.2-2.1-0.9-4-2-5.7H71c2.2,0,4-1.8,4-4c0-2.2-1.8-4-4-4H59V10h2c1.1,0,2-0.9,2-2
		c0-1.1-0.9-2-2-2H47c-1.1,0-2,0.9-2,2c0,1.1,0.9,2,2,2h2v10H25.9c-0.7-1.2-1.7-2.2-2.9-2.9V12c0-2.2-1.8-4-4-4s-4,1.8-4,4v5.1
		c-2.4,1.4-4,4-4,6.9c0,3,1.6,5.5,4,6.9V82h-4c-2.2,0-4,1.8-4,4v4c0,2.2,1.8,4,4,4h78c2.2,0,4-1.8,4-4v-4C93,83.8,91.2,82,89,82z"/>
	<path d="M55,37.4c-2,0.7-4.1,1-6.2,1c-1.3,0-2.6-0.1-3.8-0.4l-3.8-0.8C42.3,43.4,47.6,48,54,48c6.2,0,11.4-4.4,12.7-10.2L63.3,37
		C60.5,36.4,57.7,36.5,55,37.4z"/>
</g>
</svg>
