<?xml version="1.0" encoding="utf-8"?>
<!-- Generator: Adobe Illustrator 21.0.2, SVG Export Plug-In . SVG Version: 6.00 Build 0)  -->
<svg version="1.1" id="Layer_1" xmlns="http://www.w3.org/2000/svg" xmlns:xlink="http://www.w3.org/1999/xlink" x="0px" y="0px"
	 viewBox="0 0 100 100" style="enable-background:new 0 0 100 100;" xml:space="preserve">
<path d="M89,79H69v-2c0-3.3-2.7-6-6-6h-1.3c2.3-3.4,2-8-0.7-11.2l-5.5-6.2c-0.8-0.9-2.2-0.9-3,0L47,59.8c-2.8,3.2-3,7.8-0.7,11.2H45
	c-3.3,0-6,2.7-6,6v2H25V31c0.8-0.6,1.4-1.2,2-2h12.9c-0.6,1.6-0.9,3.2-0.9,5c0,8.3,6.7,15,15,15s15-6.7,15-15c0-1.8-0.3-3.4-0.9-5
	H71c3.3,0,6-2.7,6-6s-2.7-6-6-6H61V9h3c1.1,0,2-0.9,2-2c0-1.1-0.9-2-2-2H44c-1.1,0-2,0.9-2,2c0,1.1,0.9,2,2,2h3v8H27
	c-0.6-0.8-1.2-1.4-2-2v-4c0-3.3-2.7-6-6-6s-6,2.7-6,6v4c-2.4,1.8-4,4.7-4,8s1.6,6.1,4,8v48h-2c-3.3,0-6,2.7-6,6v4c0,3.3,2.7,6,6,6
	h78c3.3,0,6-2.7,6-6v-4C95,81.7,92.3,79,89,79z M54,45c-4.4,0-8.3-2.7-10-6.4l1,0.3c1.4,0.4,2.9,0.5,4.3,0.5c1.9,0,3.8-0.3,5.6-0.9
	c2.7-0.9,5.5-0.9,8.2-0.2l0.9,0.2C62.3,42.3,58.5,45,54,45z M65,34.6l-0.7-0.2c-3.5-1-7.1-0.9-10.5,0.2c-2.5,0.8-5.2,0.9-7.7,0.3
	l-3-0.8c0-0.1,0-0.1,0-0.2c0-1.8,0.4-3.5,1.2-5h19.6c0.8,1.5,1.2,3.2,1.2,5C65,34.2,65,34.4,65,34.6z M51,9h6v8h-6V9z M28.8,21H71
	c1.1,0,2,0.9,2,2c0,1.1-0.9,2-2,2H28.8c0.1-0.7,0.2-1.3,0.2-2S28.9,21.6,28.8,21z M50.1,62.4l3.9-4.5l3.9,4.5
	c1.8,2.1,1.7,5.2-0.2,7.1c-0.5,0.5-1.1,0.9-1.7,1.1V67c0-1.1-0.9-2-2-2s-2,0.9-2,2v3.7c-0.6-0.3-1.2-0.6-1.7-1.1
	C48.4,67.6,48.2,64.5,50.1,62.4z M43,77c0-1.1,0.9-2,2-2h18c1.1,0,2,0.9,2,2v2H43V77z M17,11c0-1.1,0.9-2,2-2s2,0.9,2,2v2.2
	c-0.7-0.1-1.3-0.2-2-0.2s-1.3,0.1-2,0.2V11z M19,17c3.3,0,6,2.7,6,6s-2.7,6-6,6s-6-2.7-6-6S15.7,17,19,17z M21,32.8V79h-4V32.8
	c0.7,0.1,1.3,0.2,2,0.2S20.3,32.9,21,32.8z M91,89c0,1.1-0.9,2-2,2H11c-1.1,0-2-0.9-2-2v-4c0-1.1,0.9-2,2-2h78c1.1,0,2,0.9,2,2V89z"
	/>
</svg>
