<?xml version="1.0" encoding="utf-8"?>
<!-- Generator: Adobe Illustrator 21.0.2, SVG Export Plug-In . SVG Version: 6.00 Build 0)  -->
<svg version="1.1" id="Layer_1" xmlns="http://www.w3.org/2000/svg" xmlns:xlink="http://www.w3.org/1999/xlink" x="0px" y="0px"
	 viewBox="0 0 100 100" style="enable-background:new 0 0 100 100;" xml:space="preserve">
<g>
	<path d="M66,31.5v-2c0-6.7-4.1-12.4-9.9-14.8c0.4-2.9,2.9-5.2,5.9-5.2h1c1.1,0,2-0.9,2-2c0-1.1-0.9-2-2-2h-1c-4.9,0-9,3.5-9.8,8.2
		c-0.7-0.1-1.4-0.2-2.2-0.2s-1.5,0.1-2.2,0.2C47,9,42.9,5.5,38,5.5h-1c-1.1,0-2,0.9-2,2c0,1.1,0.9,2,2,2h1c3,0,5.5,2.3,5.9,5.2
		c-5.8,2.4-9.9,8.1-9.9,14.8v2c-3.7,2-7,4.6-9.7,7.7c-0.6,0.5-1.1,1.1-1.5,1.8C18.5,46.7,16,53.8,16,61.5c0,15.5,10.4,29,25.3,32.9
		c0.1,0,0.2,0.1,0.3,0.1c1,0.2,1.9-0.4,2.3-1.3c0,0,0-0.1,0-0.2c0-0.1,0-0.1,0-0.2l0.5-2.4c1.8,0.7,3.7,1,5.6,1s3.8-0.3,5.6-1
		l0.5,2.5c0,0.1,0,0.2,0.1,0.4c0.3,0.8,1,1.3,1.9,1.3c0.2,0,0.4,0,0.5-0.1c0,0,0.1,0,0.1,0C73.6,90.5,84,77,84,61.5
		C84,48.5,76.7,37.2,66,31.5z M70.9,41.5c1.7,0,3,1.3,3,3c0,1.6-1.3,3-3,3s-3-1.4-3-3C67.9,42.8,69.3,41.5,70.9,41.5z M38,29.5
		c0-6.6,5.4-12,12-12s12,5.4,12,12v0.2c-3.7-1.4-7.8-2.2-12-2.2s-8.3,0.8-12,2.2V29.5z M53,34.5c0,1.6-1.3,3-3,3s-3-1.4-3-3
		c0-1.7,1.3-3,3-3S53,32.8,53,34.5z M26.2,43.2c0.3-0.4,0.6-0.7,0.9-1.1c0.5-0.4,1.1-0.6,1.8-0.6c1.7,0,3,1.3,3,3c0,1.6-1.3,3-3,3
		s-3-1.4-3-3C25.9,44,26,43.6,26.2,43.2z M30.9,83.5c-1.7,0-3-1.4-3-3c0-1.7,1.3-3,3-3s3,1.3,3,3C33.9,82.1,32.6,83.5,30.9,83.5z
		 M45.2,86.3L50,60.4l4.8,25.9C51.8,87.7,48.2,87.7,45.2,86.3z M68.9,83.5c-1.7,0-3-1.4-3-3c0-1.7,1.3-3,3-3s3,1.3,3,3
		C71.9,82.1,70.6,83.5,68.9,83.5z M68.9,73.5c-3.9,0-7,3.1-7,7c0,2.8,1.7,5.3,4.1,6.4c-2,1.3-4.2,2.3-6.5,3.1L52,49.1
		c-0.2-0.9-1-1.6-2-1.6s-1.8,0.7-2,1.6l-7.6,40.8c-2.3-0.8-4.5-1.8-6.5-3.1c2.4-1.1,4-3.5,4-6.3c0-3.9-3.1-7-7-7
		c-2.8,0-5.2,1.6-6.3,4c-3-4.7-4.6-10.2-4.6-16c0-4.7,1.1-9.2,3.1-13.2c1.2,1.9,3.4,3.2,5.9,3.2c3.9,0,7-3.1,7-7
		c0-3-1.9-5.5-4.5-6.5c3.5-2.7,7.5-4.7,12-5.7c-0.2,0.7-0.4,1.5-0.4,2.2c0,3.9,3.1,7,7,7s7-3.1,7-7c0-0.8-0.1-1.5-0.4-2.2
		c4.4,1,8.5,3,11.9,5.7c-2.7,1-4.6,3.5-4.6,6.6c0,3.9,3.1,7,7,7c2.5,0,4.7-1.3,5.9-3.3c2,4,3.1,8.5,3.1,13.3
		c0,5.9-1.7,11.4-4.7,16.1C74.2,75.2,71.8,73.5,68.9,73.5z"/>
	<path d="M33.9,55.5c-3.9,0-7,3.1-7,7s3.1,7,7,7s7-3.1,7-7S37.8,55.5,33.9,55.5z M33.9,65.5c-1.7,0-3-1.4-3-3c0-1.7,1.3-3,3-3
		s3,1.3,3,3C36.9,64.1,35.6,65.5,33.9,65.5z"/>
	<path d="M65.9,55.5c-3.9,0-7,3.1-7,7s3.1,7,7,7s7-3.1,7-7S69.8,55.5,65.9,55.5z M65.9,65.5c-1.7,0-3-1.4-3-3c0-1.7,1.3-3,3-3
		s3,1.3,3,3C68.9,64.1,67.6,65.5,65.9,65.5z"/>
</g>
</svg>
