<?xml version="1.0" encoding="utf-8"?>
<!-- Generator: Adobe Illustrator 21.0.2, SVG Export Plug-In . SVG Version: 6.00 Build 0)  -->
<svg version="1.1" id="Layer_1" xmlns="http://www.w3.org/2000/svg" xmlns:xlink="http://www.w3.org/1999/xlink" x="0px" y="0px"
	 viewBox="0 0 100 100" style="enable-background:new 0 0 100 100;" xml:space="preserve">
<g>
	<path d="M45.2,87.6c3.1,1.3,6.6,1.3,9.6,0L50,61.7L45.2,87.6z"/>
	<path d="M37,12.8h1c3.1,0,5.7,2.4,6,5.4c-4.7,2.3-8,7-8,12.6v1c4.3-1.9,9-3,14-3s9.7,1.1,14,3v-1c0-5.6-3.3-10.4-8-12.6
		c0.3-3,2.9-5.4,6-5.4h1c1.1,0,2-0.9,2-2c0-1.1-0.9-2-2-2h-1c-4.9,0-9,3.5-9.8,8.2c-0.7-0.1-1.4-0.2-2.2-0.2s-1.5,0.1-2.2,0.2
		C47,12.3,42.9,8.8,38,8.8h-1c-1.1,0-2,0.9-2,2C35,11.9,35.9,12.8,37,12.8z"/>
	<path d="M75.7,47.3c-0.6,2-2.5,3.5-4.7,3.5c-2.8,0-5-2.2-5-5c0-2.6,2-4.7,4.5-5c-4.4-4.1-10-6.9-16.2-7.8c0.5,0.8,0.8,1.7,0.8,2.7
		c0,2.8-2.2,5-5,5s-5-2.2-5-5c0-1,0.3-1.9,0.8-2.7C39.6,34,34,36.7,29.6,40.8c2.5,0.3,4.4,2.4,4.4,4.9c0,2.8-2.2,5-5,5
		c-2.2,0-4-1.4-4.7-3.4c-2.7,4.5-4.2,9.7-4.2,15.4c0,6.7,2.2,13,6,18c0.5-2.3,2.5-4,4.9-4c2.8,0,5,2.2,5,5c0,2.4-1.8,4.5-4.1,4.9
		c2.5,1.9,5.4,3.5,8.6,4.5L48,50.4c0.2-0.9,1-1.6,2-1.6s1.8,0.7,2,1.6l7.6,40.8c3.1-1.1,6-2.6,8.6-4.5c-2.4-0.4-4.2-2.4-4.2-4.9
		c0-2.8,2.2-5,5-5c2.5,0,4.5,1.8,4.9,4.2c3.9-5.1,6.1-11.4,6.1-18.2C80,57.1,78.4,51.8,75.7,47.3z M33.9,68.8c-2.8,0-5-2.2-5-5
		s2.2-5,5-5s5,2.2,5,5S36.7,68.8,33.9,68.8z M65.9,68.8c-2.8,0-5-2.2-5-5s2.2-5,5-5s5,2.2,5,5S68.7,68.8,65.9,68.8z"/>
</g>
</svg>
