<?xml version="1.0" encoding="utf-8"?>
<!-- Generator: Adobe Illustrator 21.0.2, SVG Export Plug-In . SVG Version: 6.00 Build 0)  -->
<svg version="1.1" id="Layer_1" xmlns="http://www.w3.org/2000/svg" xmlns:xlink="http://www.w3.org/1999/xlink" x="0px" y="0px"
	 viewBox="0 0 100 100" style="enable-background:new 0 0 100 100;" xml:space="preserve">
<path d="M91.7,51.8l-6.3-18.5c-0.8-2.5-3.8-3.5-6-2L63.1,42.1c-1.2,0.8-2.4,1.8-3.4,2.8c-0.6-6.3-3.1-12.4-7.1-17.4L36.6,7.7
	c-1.6-2-4.6-2-6.2,0L14.5,27.5c-6.3,7.8-8.7,18.1-6.5,27.9c2.5,11.3,12.2,19.5,23.6,20.4v16.1c0,1.1,0.9,2,2,2c1.1,0,2-0.9,2-2V75.7
	c7.3-0.6,13.9-4.1,18.3-9.6c1.5,5.6,5.5,10.3,10.8,12.6l-4,12.1c-0.3,1.1,0.2,2.2,1.3,2.5c0.2,0.1,0.4,0.1,0.6,0.1
	c0.8,0,1.6-0.5,1.9-1.4l4-12.1c6.9,1.5,14-0.8,18.8-6.1c3.7-4.2,5.6-9.5,5.6-14.9C92.8,56.6,92.5,54.2,91.7,51.8z M31.5,67.9
	L20,56.3c-0.8-0.8-0.8-2,0-2.8c0.8-0.8,2-0.8,2.8,0l1.4,1.4l7.3,7.3V67.9z M31.5,53.9L22,44.3c-0.8-0.8-0.8-2,0-2.8
	c0.8-0.8,2-0.8,2.8,0l1.4,1.4l5.3,5.3V53.9z M31.5,39.9L25,33.3c-0.8-0.8-0.8-2,0-2.8c0.8-0.8,2-0.8,2.8,0l1.4,1.4l2.3,2.3V39.9z
	 M35.5,34.2l2.3-2.3l1.4-1.4c0.8-0.8,2-0.8,2.8,0c0.8,0.8,0.8,2.1,0,2.8l-6.5,6.5V34.2z M35.5,48.2l5.3-5.3l1.4-1.4
	c0.8-0.8,2-0.8,2.8,0c0.8,0.8,0.8,2.1,0,2.8l-9.5,9.5V48.2z M47,56.3L35.5,67.9v-5.7l7.3-7.3l1.4-1.4c0.8-0.8,2-0.8,2.8,0
	C47.8,54.3,47.8,55.6,47,56.3z M69,45.2c1-0.5,2.2-0.1,2.7,0.9l0.9,1.8l1.5,3l-1.8,5.4L68,47.8C67.6,46.8,68,45.6,69,45.2z
	 M67.7,69.6l-6-12.3c-0.5-1-0.1-2.2,0.9-2.7s2.2-0.1,2.7,0.9l0.9,1.8l3.4,6.9L67.7,69.6z M83.5,64.7l-11.9,5.9l1.8-5.3l6.6-3.2
	l1.8-0.9c1-0.5,2.2-0.1,2.7,0.9S84.5,64.2,83.5,64.7z M84.2,53.3l-8.2,4l1.8-5.3l2.8-1.4l1.8-0.9c1-0.5,2.2-0.1,2.7,0.9
	C85.6,51.6,85.2,52.8,84.2,53.3z"/>
</svg>
