<?xml version="1.0" encoding="utf-8"?>
<!-- Generator: Adobe Illustrator 21.0.2, SVG Export Plug-In . SVG Version: 6.00 Build 0)  -->
<svg version="1.1" id="Layer_1" xmlns="http://www.w3.org/2000/svg" xmlns:xlink="http://www.w3.org/1999/xlink" x="0px" y="0px"
	 viewBox="0 0 100 100" style="enable-background:new 0 0 100 100;" xml:space="preserve">
<path d="M93.6,52.2l-6.3-18.5c-0.6-1.8-2-3.2-3.8-3.8c-1.8-0.6-3.7-0.3-5.3,0.7L62,41.4c-0.3,0.2-0.6,0.4-0.9,0.6
	c-1.1-5.4-3.5-10.5-7-14.8L38.2,7.4C37,6,35.3,5.2,33.5,5.2c-1.8,0-3.5,0.8-4.7,2.2L12.9,27.2C6.2,35.5,3.7,46.3,6,56.8
	c2.7,12.3,13.1,21.1,25.5,22v14.1c0,1.1,0.9,2,2,2c1.1,0,2-0.9,2-2V78.7c6.8-0.5,12.9-3.3,17.6-7.8c2.2,4.7,6,8.6,11,10.7l-3.4,10.2
	c-0.3,1.1,0.2,2.2,1.3,2.5c0.2,0.1,0.4,0.1,0.6,0.1c0.8,0,1.6-0.5,1.9-1.4l3.4-10.2c1.6,0.4,3.2,0.6,4.8,0.6
	c6.1,0,11.9-2.6,16.1-7.3C94.5,69.6,96.4,60.4,93.6,52.2z M51.2,63.4c0.1,1.1,0.2,2.2,0.5,3.3c-4,4.6-9.8,7.5-16.1,8v-5.8L47,57.3
	c0.8-0.8,0.8-2,0-2.8c-0.8-0.8-2-0.8-2.8,0l-8.7,8.7v-8.3l9.5-9.5c0.8-0.8,0.8-2,0-2.8c-0.8-0.8-2-0.8-2.8,0l-6.7,6.7v-8.3l6.5-6.5
	c0.8-0.8,0.8-2,0-2.8c-0.8-0.8-2-0.8-2.8,0l-3.7,3.7v-8.4c0-1.1-0.9-2-2-2c-1.1,0-2,0.9-2,2v8.4l-3.7-3.7c-0.8-0.8-2-0.8-2.8,0
	c-0.8,0.8-0.8,2.1,0,2.8l6.5,6.5v8.3l-6.7-6.7c-0.8-0.8-2-0.8-2.8,0c-0.8,0.8-0.8,2.1,0,2.8l9.5,9.5v8.3l-8.7-8.7
	c-0.8-0.8-2-0.8-2.8,0c-0.8,0.8-0.8,2.1,0,2.8l11.5,11.5v5.8C21,73.9,12.2,66.4,9.9,55.9c-2.1-9.3,0.2-18.8,6.1-26.2L31.9,9.9
	c0.4-0.5,1-0.7,1.6-0.7c0.6,0,1.2,0.3,1.6,0.7L51,29.7c3.6,4.5,5.9,9.9,6.6,15.5C53.1,50.1,50.7,56.6,51.2,63.4z M85.7,73.5
	c-4.2,4.8-10.5,6.8-16.6,5.6l2.5-7.5l11.9-5.9c1-0.5,1.4-1.7,0.9-2.7s-1.7-1.4-2.7-0.9l-8.4,4.1l2.6-7.9l8.2-4
	c1-0.5,1.4-1.7,0.9-2.7c-0.5-1-1.7-1.4-2.7-0.9L77.8,53l2.7-7.9c0.4-1-0.2-2.2-1.3-2.5c-1-0.4-2.2,0.2-2.5,1.3l-2.7,8l-2.4-4.8
	c-0.5-1-1.7-1.4-2.7-0.9c-1,0.5-1.4,1.7-0.9,2.7l4.1,8.4l-2.7,8l-4.3-8.7c-0.5-1-1.7-1.4-2.7-0.9s-1.4,1.7-0.9,2.7l6,12.3l-2.4,7.3
	c-5.8-2.7-9.7-8.2-10.2-14.7c-0.5-7.3,3-14.3,9.1-18.4l16.3-10.9c0.3-0.2,0.7-0.3,1.1-0.3c0.2,0,0.4,0,0.7,0.1
	c0.6,0.2,1,0.7,1.2,1.2l6.3,18.5C92.1,60.4,90.6,68.1,85.7,73.5z"/>
</svg>
