<?xml version="1.0" encoding="utf-8"?>
<!-- Generator: Adobe Illustrator 21.0.2, SVG Export Plug-In . SVG Version: 6.00 Build 0)  -->
<svg version="1.1" id="Layer_1" xmlns="http://www.w3.org/2000/svg" xmlns:xlink="http://www.w3.org/1999/xlink" x="0px" y="0px"
	 viewBox="0 0 100 100" style="enable-background:new 0 0 100 100;" xml:space="preserve">
<g>
	<path d="M63.3,68.9h-8v-8c0-1.1-0.9-2-2-2h-10c-1.1,0-2,0.9-2,2v10c0,1.1,0.9,2,2,2h8v8c0,1.1,0.9,2,2,2h10c1.1,0,2-0.9,2-2v-10
		C65.3,69.8,64.4,68.9,63.3,68.9z M51.3,68.9h-6v-6h6V68.9z M61.3,78.9h-6v-6h6V78.9z"/>
	<path d="M79.8,8l-11-2.8c-1.8-0.5-3.7,0-5.2,1.1c-1.5,1.2-2.3,2.9-2.3,4.7v13.9H38.4l5.9-5.9c0.8-0.8,0.8-2,0-2.8
		c-5.8-5.8-15.4-5.8-21.2,0c-5.9,5.8-5.9,15.4,0,21.2c0.4,0.4,0.9,0.6,1.4,0.6c0.5,0,1-0.2,1.4-0.6l5.4-5.4v44.9c0,9.9,8.1,18,18,18
		h8c9.9,0,18-8.1,18-18v-46c0-3.3-2.7-6-6-6h-4V11.1c0-0.6,0.3-1.2,0.8-1.6c0.5-0.4,1.1-0.5,1.7-0.4l11,2.8c1.1,0.3,2.2-0.4,2.4-1.5
		C81.5,9.3,80.8,8.3,79.8,8z M24.6,33.1c-1.4-2-2-4.3-1.9-6.6l7,1.6L24.6,33.1z M23.6,22.5c0.5-1.3,1.3-2.5,2.3-3.5
		c1-1,2.2-1.8,3.5-2.3l1.7,7.5L23.6,22.5z M61.3,28.9v14.6c-1.8-0.3-3.7-0.8-5.4-1.4L52.7,41c-3.6-1.4-7.5-2-11.3-2h-6.1v-10H61.3z
		 M33.3,15.9c0.1,0,0.3,0,0.4,0c2.2,0,4.4,0.6,6.2,1.9l-5.1,5.1L33.3,15.9z M71.3,76.9c0,7.7-6.3,14-14,14h-8c-7.7,0-14-6.3-14-14
		v-34h6.1c3.4,0,6.8,0.6,10,1.8l3.1,1.2c3.7,1.4,7.5,2,11.4,2h5.5V76.9z M69.3,28.9c1.1,0,2,0.9,2,2v13h-5.5c-0.2,0-0.3,0-0.5,0v-15
		H69.3z"/>
</g>
</svg>
