<?xml version="1.0" encoding="utf-8"?>
<!-- Generator: Adobe Illustrator 21.0.2, SVG Export Plug-In . SVG Version: 6.00 Build 0)  -->
<svg version="1.1" id="Layer_1" xmlns="http://www.w3.org/2000/svg" xmlns:xlink="http://www.w3.org/1999/xlink" x="0px" y="0px"
	 viewBox="0 0 100 100" style="enable-background:new 0 0 100 100;" xml:space="preserve">
<g>
	<rect x="42.3" y="64.9" width="6" height="6"/>
	<rect x="52.3" y="74.9" width="6" height="6"/>
	<path d="M76.8,10l-11-2.8c-1.8-0.5-3.7,0-5.2,1.1c-1.5,1.1-2.3,2.9-2.3,4.7v17.9H37.6l4-4l2.3-2.3c-3.3-3.3-7.8-4.4-12-3.5
		c-2.3,0.5-4.6,1.7-6.4,3.5c-1.8,1.8-3,4-3.5,6.4c-0.9,4.2,0.2,8.7,3.5,12l6.8-6.8v4.7h6.1c3.9,0,7.7,0.7,11.4,2l3.1,1.2
		c1.8,0.7,3.6,1.1,5.5,1.4v4.1c-2.3-0.3-4.6-0.9-6.8-1.7l-3.1-1.2c-3.2-1.2-6.6-1.8-10-1.8h-6.1v34c0,7.7,6.3,14,14,14h8
		c7.7,0,14-6.3,14-14v-29h-5.5c-0.2,0-0.3,0-0.5,0v-4c0.2,0,0.3,0,0.5,0h5.5v-13c0-1.1-0.9-2-2-2h-4V13.1c0-0.6,0.3-1.2,0.8-1.6
		c0.5-0.4,1.1-0.5,1.7-0.4l11,2.8c1.1,0.3,2.2-0.4,2.4-1.5C78.5,11.4,77.9,10.3,76.8,10z M62.3,82.9c0,1.1-0.9,2-2,2h-10
		c-1.1,0-2-0.9-2-2v-8h-8c-1.1,0-2-0.9-2-2v-10c0-1.1,0.9-2,2-2h10c1.1,0,2,0.9,2,2v8h8c1.1,0,2,0.9,2,2V82.9z"/>
</g>
</svg>
