<?xml version="1.0" encoding="utf-8"?>
<!-- Generator: Adobe Illustrator 21.0.2, SVG Export Plug-In . SVG Version: 6.00 Build 0)  -->
<svg version="1.1" id="Layer_1" xmlns="http://www.w3.org/2000/svg" xmlns:xlink="http://www.w3.org/1999/xlink" x="0px" y="0px"
	 viewBox="0 0 100 100" style="enable-background:new 0 0 100 100;" xml:space="preserve">
<g>
	<path d="M90.6,87.8L47.7,44.9c0.9-1.1,1.6-2.2,2.3-3.4c3.1-5.6,3.6-12.2,1.5-18.1c-8.7,10-18.1,19.4-28.1,28.1
		c5.9,2.1,12.5,1.6,18-1.5c1.2-0.7,2.3-1.4,3.4-2.3l42.9,42.9c0.8,0.8,2,0.8,2.8,0C91.4,89.8,91.4,88.6,90.6,87.8z"/>
	<path d="M42.7,12.3c-8.5-5.5-20-4.5-27.5,2.9c-7.5,7.5-8.4,18.9-2.9,27.5C23.2,33.4,33.4,23.2,42.7,12.3z"/>
	<path d="M49.8,19.3l0.4-0.5c0.7-0.8,0.6-2-0.1-2.7l-1.4-1.4c-0.4-0.4-0.9-0.6-1.4-0.6h-0.1c-0.6,0-1.1,0.3-1.4,0.7
		c-9.5,11-19.9,21.4-30.9,30.9c-0.4,0.4-0.7,0.9-0.7,1.4c0,0.6,0.2,1.1,0.6,1.5l1.4,1.4c0.7,0.7,1.9,0.8,2.7,0.1l0.5-0.4
		C30.2,40.5,40.5,30.2,49.8,19.3z"/>
</g>
</svg>
