<?xml version="1.0" encoding="utf-8"?>
<!-- Generator: Adobe Illustrator 21.0.2, SVG Export Plug-In . SVG Version: 6.00 Build 0)  -->
<svg version="1.1" id="Layer_1" xmlns="http://www.w3.org/2000/svg" xmlns:xlink="http://www.w3.org/1999/xlink" x="0px" y="0px"
	 viewBox="0 0 100 100" style="enable-background:new 0 0 100 100;" xml:space="preserve">
<g>
	<path d="M33,79.9c-9.9,0-18.8-2.9-23.8-7.5c-0.1,0.5-0.2,1-0.2,1.5c0,6.5,11,12,24,12s24-5.5,24-12c0-0.5-0.1-1-0.2-1.5
		C51.7,77,42.9,79.9,33,79.9z"/>
	<path d="M9,64.2c0.1,1.2,0.5,2.3,1.3,3.5c3.5,4.9,12.6,8.2,22.7,8.2s19.2-3.3,22.7-8.2c0.8-1.1,1.2-2.3,1.3-3.5
		C52,68.9,43,71.9,33,71.9S13.9,68.9,9,64.2z"/>
	<path d="M33,67.9c10,0,18.9-3.2,22.5-7.9c-0.1,0-0.2-0.1-0.3-0.1c-8.8-3.8-15.9-9.8-18.8-15.9c-1.1-0.1-2.2-0.1-3.4-0.1
		c-13,0-24,5.5-24,12c0,1,0.3,2,0.8,3C12.7,64.2,22.2,67.9,33,67.9z M20,49.2c1-0.4,2.2,0.1,2.6,1.2c0.4,1-0.2,2.2-1.2,2.6
		c-2.7,1-4.4,2.5-4.4,3.9c0,1.1-0.9,2-2,2s-2-0.9-2-2C13,53.6,15.6,50.8,20,49.2z"/>
	<path d="M59.1,50.7c-9.1-3.9-16.2-10-19-16.2c-0.3,0.4-0.6,0.8-0.8,1.3c-0.7,1.6-0.6,3.5,0.2,5.6c2.1,5.4,8.9,11.3,17.2,14.8
		c0.8,0.3,1.5,0.6,2.3,0.9c11.2,4.1,22.2,3,24.5-2.5c0.2-0.5,0.3-0.9,0.4-1.4c-2.3,0.8-5.1,1.3-8,1.3C70.7,54.4,64.9,53.1,59.1,50.7
		z"/>
	<path d="M62.2,43.3C53,39.4,45.9,33.1,43.2,26.9c-0.4,1.1-0.5,2.3-0.2,3.7C44.3,36.4,51.4,43,60.7,47c9.3,4,18.9,4.5,24,1.4
		c1.2-0.7,2-1.6,2.6-2.7C84.9,46.6,82.1,47,79,47C73.9,47,68,45.8,62.2,43.3z"/>
	<path d="M87.7,27.9c-3.3-4.1-8.4-7.8-14.5-10.4C68,15.3,62.7,14.1,58,14.1c-0.8,0-1.6,0-2.4,0.1c-4.8,0.4-8.1,2.2-9.2,4.9
		c-0.4,0.9-0.5,2-0.4,3.1c0.6,6,7.9,13.1,17.8,17.3c5.3,2.3,10.7,3.4,15.3,3.4c4,0,7.3-0.8,9.5-2.6c0.9-0.7,1.6-1.5,2-2.5
		C91.7,35.3,90.7,31.7,87.7,27.9z M87,36.1c-0.2,0.9-1,1.6-2,1.6c-0.1,0-0.3,0-0.4,0c-1.1-0.2-1.8-1.3-1.5-2.4
		c0.3-1.4-1.1-3.3-3.5-4.8c-0.9-0.6-1.2-1.8-0.6-2.8c0.6-0.9,1.8-1.2,2.8-0.6C85.8,29.6,87.7,32.9,87,36.1z"/>
</g>
</svg>
