<?xml version="1.0" encoding="utf-8"?>
<!-- Generator: Adobe Illustrator 21.0.2, SVG Export Plug-In . SVG Version: 6.00 Build 0)  -->
<svg version="1.1" id="Layer_1" xmlns="http://www.w3.org/2000/svg" xmlns:xlink="http://www.w3.org/1999/xlink" x="0px" y="0px"
	 viewBox="0 0 100 100" style="enable-background:new 0 0 100 100;" xml:space="preserve">
<g>
	<path d="M15,58.9c1.1,0,2-0.9,2-2c0-1.4,1.7-3,4.4-3.9c1-0.4,1.6-1.5,1.2-2.6c-0.4-1-1.5-1.6-2.6-1.2c-4.4,1.6-7,4.5-7,7.7
		C13,58,13.9,58.9,15,58.9z"/>
	<path d="M90.8,25.4c-3.7-4.6-9.4-8.7-16.1-11.6c-6.7-2.9-13.6-4.1-19.5-3.6c-6.3,0.6-10.8,3.2-12.5,7.3c-0.5,1.2-0.8,2.6-0.8,4
		c-1,1-1.8,2.1-2.4,3.3c-0.7,1.6-0.9,3.3-0.7,5.1c-1.5,1.1-2.5,2.5-3.2,4.1c-0.7,1.8-0.9,3.7-0.6,5.8c-0.7,0-1.4,0-2.1,0
		c-15.7,0-28,7-28,16c0,1.4,0.3,2.7,0.9,4c-0.6,1.3-0.9,2.6-0.9,4c0,1.7,0.5,3.4,1.4,5c-0.9,1.6-1.4,3.3-1.4,5c0,9,12.3,16,28,16
		s28-7,28-16c0-1.7-0.5-3.4-1.4-5c0.9-1.6,1.4-3.3,1.4-5c0-0.7-0.1-1.4-0.2-2c3.9,1.1,7.7,1.7,11.1,1.7c7.4,0,13.3-2.6,15.3-7.4
		c0.7-1.6,0.9-3.3,0.7-5.1c1.5-1.1,2.5-2.5,3.2-4.1c0.5-1.2,0.8-2.6,0.8-4c1-1,1.8-2.1,2.4-3.3C96,35.4,94.8,30.4,90.8,25.4z
		 M33,43.9c1.1,0,2.3,0.1,3.4,0.1c2.9,6.1,10,12.1,18.8,15.9c0.1,0,0.2,0.1,0.3,0.1c-3.6,4.7-12.5,7.9-22.5,7.9
		c-10.7,0-20.2-3.7-23.2-9c-0.5-1-0.8-2-0.8-3C9,49.4,19.9,43.9,33,43.9z M56.9,64.2c-0.1,1.2-0.5,2.3-1.3,3.5
		C52.1,72.6,43,75.9,33,75.9s-19.2-3.3-22.7-8.2c-0.8-1.1-1.2-2.3-1.3-3.5c4.9,4.7,13.9,7.6,24,7.6S52,68.9,56.9,64.2z M33,85.9
		c-13,0-24-5.5-24-12c0-0.5,0.1-1,0.2-1.5c5,4.6,13.9,7.5,23.8,7.5s18.8-2.9,23.8-7.5c0.1,0.5,0.2,1,0.2,1.5
		C57,80.4,46,85.9,33,85.9z M83.5,54.5C81.2,60,70.2,61.2,59,57.1c-0.8-0.3-1.5-0.6-2.3-0.9c-8.3-3.5-15.1-9.4-17.2-14.8
		c-0.8-2.1-0.9-4-0.2-5.6c0.2-0.5,0.5-0.9,0.8-1.3c2.8,6.2,9.9,12.3,19,16.2c5.8,2.5,11.6,3.7,16.8,3.7c3,0,5.7-0.4,8-1.3
		C83.8,53.6,83.7,54.1,83.5,54.5z M84.7,48.4c-5.1,3.1-14.8,2.6-24-1.4C51.4,43,44.3,36.4,43,30.6c-0.3-1.4-0.2-2.6,0.2-3.7
		c2.7,6.2,9.8,12.5,19.1,16.4C68,45.8,73.9,47,79,47c3.1,0,5.9-0.4,8.2-1.3C86.7,46.7,85.9,47.6,84.7,48.4z M90.6,38
		c-0.4,0.9-1.1,1.8-2,2.5C86.4,42.2,83,43,79.1,43c-4.6,0-10-1.1-15.3-3.4C53.9,35.4,46.6,28.3,46,22.3c-0.1-1.1,0-2.2,0.4-3.1
		c1.2-2.7,4.4-4.5,9.2-4.9c0.8-0.1,1.6-0.1,2.4-0.1c4.7,0,10,1.2,15.2,3.4c6.1,2.6,11.2,6.3,14.5,10.4C90.7,31.7,91.7,35.3,90.6,38z
		"/>
	<path d="M81.8,27c-0.9-0.6-2.2-0.3-2.8,0.6c-0.6,0.9-0.3,2.2,0.6,2.8c2.4,1.5,3.8,3.4,3.5,4.8c-0.2,1.1,0.4,2.1,1.5,2.4
		c0.2,0,0.3,0,0.4,0c0.9,0,1.7-0.6,2-1.6C87.7,32.9,85.8,29.6,81.8,27z"/>
</g>
</svg>
