<?xml version="1.0" encoding="utf-8"?>
<!-- Generator: Adobe Illustrator 23.0.1, SVG Export Plug-In . SVG Version: 6.00 Build 0)  -->
<svg version="1.1" id="Layer_1" xmlns="http://www.w3.org/2000/svg" xmlns:xlink="http://www.w3.org/1999/xlink" x="0px" y="0px"
	 viewBox="0 0 100 100" style="enable-background:new 0 0 100 100;" xml:space="preserve">
<style type="text/css">
	.st0{fill:#000000;}
</style>
<path class="st0" d="M91.6,8.3c-1.3-1.3-3.1-2.1-5-2.1S83,7,81.7,8.3l-3.3,3.3l-25.2,14c-0.4,0.2-0.6,0.5-0.8,0.8L40.5,49.6
	l-8.1,8.1c-2-0.5-4.2,0-5.8,1.5l-3.7,3.7h0c-7,0-12.9,5-14,12l-0.2,1.5c-0.1,0.9,0.3,1.7,1.1,2.1c0.8,0.4,1.7,0.2,2.3-0.4l1.1-1.1
	c0.8-0.8,2.1-0.8,2.9,0c0.5,0.5,0.7,1.1,0.6,1.8c-0.1,0.7-0.6,1.2-1.2,1.5c-3.3,1.4-5.9,4-7.4,7.4l-1.4,3.3c-0.3,0.7-0.2,1.4,0.3,2
	c0.4,0.5,1,0.8,1.6,0.8c0.1,0,0.2,0,0.3,0L25,91.1c6.9-1.1,12-7,12-14c0,0,0,0,0,0l3.7-3.7c1.6-1.6,2.1-3.8,1.5-5.8l8.4-8.4
	c0.1-0.1,0.3-0.3,0.4-0.5l11.7-22.8l24.9-13.9c0,0,0,0,0,0c0.1-0.1,0.3-0.2,0.4-0.3l3.5-3.5C94.3,15.5,94.3,11,91.6,8.3z M24.4,87.2
	l-12.8,2c1-2.4,2.9-4.2,5.3-5.3c1.8-0.8,3.2-2.4,3.5-4.4c0.4-2-0.2-4-1.7-5.4c-1.1-1.1-2.7-1.8-4.3-1.8c-0.2,0-0.5,0-0.8,0.1
	c1.7-3.3,5.1-5.5,9.1-5.5h0.1l3.7,3.7l-2.1,2.1c-0.8,0.8-0.8,2,0,2.8c0.4,0.4,0.9,0.6,1.4,0.6c0.5,0,1-0.2,1.4-0.6l2.1-2.1L33,77
	c0,0,0,0,0,0.1C33,82.1,29.4,86.4,24.4,87.2z M37.8,70.5L35,73.4l-8.5-8.5l2.8-2.8c0.8-0.8,2-0.8,2.8,0l5.7,5.7
	C38.6,68.5,38.6,69.8,37.8,70.5z M60.2,32.7c-0.4,0.2-0.6,0.5-0.8,0.8L47.5,56.6L40,64.2l-0.4-0.4l-3.8-3.8l7.8-7.8
	c0.2-0.1,0.3-0.3,0.4-0.5l11.7-22.8l23.6-13.1l4.1,4.1L60.2,32.7z M88.8,15.4l-2.1,2.1l-4.2-4.2l2.1-2.1c1.1-1.1,3.1-1.1,4.2,0
	C89.9,12.3,89.9,14.2,88.8,15.4z"/>
</svg>
