<?xml version="1.0" encoding="utf-8"?>
<!-- Generator: Adobe Illustrator 23.0.1, SVG Export Plug-In . SVG Version: 6.00 Build 0)  -->
<svg version="1.1" id="Layer_1" xmlns="http://www.w3.org/2000/svg" xmlns:xlink="http://www.w3.org/1999/xlink" x="0px" y="0px"
	 viewBox="0 0 100 100" style="enable-background:new 0 0 100 100;" xml:space="preserve">
<style type="text/css">
	.st0{fill:#000000;}
</style>
<path class="st0" d="M91.8,36.5L86,28.8l3.1-9.2c0.9-2.5,0.2-5.2-1.6-7.1c-1.9-1.9-4.6-2.5-7.1-1.6L71.2,14l-7.8-5.8
	c-2.1-1.6-4.9-1.8-7.2-0.6c-2.3,1.2-3.8,3.6-3.8,6.2l0.1,9.7l-7.9,5.6c-2.2,1.5-3.2,4.1-2.8,6.7c0.4,2.6,2.2,4.7,4.8,5.5l1.7,0.5
	L37.5,52.6l-2.5-11.4c-0.5-2.4-2.2-4.2-4.5-4.9s-4.7-0.1-6.4,1.7L13.2,48.8c-1.7,1.7-2.3,4.1-1.7,6.5c0.4,1.3,1.1,2.4,2.2,3.2
	c-3.6,4-4.9,9.6-2.7,14.5c0.3,0.7,1.1,1.2,1.8,1.2c0.3,0,0.6-0.1,0.8-0.2l4.7-2.2l-5.6,5.6c-0.1,0.1-0.3,0.2-0.4,0.3
	c-0.1,0.1-0.2,0.3-0.3,0.4l-3.2,3.2c-1.3,1.3-2,3.1-2,5s0.7,3.6,2,5s3.1,2,5,2s3.6-0.7,5-2l8.9-9l-1.8,4c-0.2,0.5-0.2,1-0.1,1.5
	c0.2,0.5,0.6,0.9,1,1.1c1.6,0.7,3.3,1.1,5.1,1.1c1.8,0,3.6-0.4,5.4-1.2c1.5-0.7,2.8-1.5,4-2.6c0.8,1.1,2,2,3.4,2.4
	c0.6,0.2,1.2,0.3,1.9,0.3c1.7,0,3.3-0.7,4.6-1.9L62,76.1c1.7-1.7,2.3-4.1,1.7-6.4c-0.7-2.3-2.5-4-4.9-4.5l-11.4-2.5l10.8-10.8
	l0.5,1.7c0.8,2.5,2.9,4.3,5.5,4.8c0.4,0.1,0.7,0.1,1.1,0.1c2.2,0,4.3-1,5.6-2.9l5.6-7.9l9.7,0.1c2.6,0,5-1.4,6.2-3.8
	C93.6,41.4,93.4,38.6,91.8,36.5z M16,51.6l10.8-10.8c0.5-0.5,1.1-0.7,1.8-0.7c0.2,0,0.5,0,0.7,0.1c0.9,0.3,1.6,1,1.8,1.9L35,59.8
	l-17.7-3.9c-0.9-0.2-1.6-0.9-1.9-1.8C15.1,53.2,15.3,52.2,16,51.6z M14,69.3c-0.6-3.3,0.8-6.8,3.7-9.3l11.1,2.5L14,69.3z M16,88.3
	c-1.1,1.1-3.1,1.1-4.2,0c-0.6-0.6-0.9-1.3-0.9-2.1s0.3-1.5,0.9-2.1l2.1-2.1l4.2,4.2L16,88.3z M20.9,83.3l-4.2-4.2l4.2-4.2l4.2,4.2
	L20.9,83.3z M23.7,72l5.1-5.1l6.5-3l0.6,0.1l0,0.2l-3.4,7.5L28,76.3L23.7,72z M35.8,85.1c-1.7,0.8-3.6,1-5.3,0.7l6.9-15l2.5,11.2
	C38.8,83.3,37.3,84.4,35.8,85.1z M57.9,69c0.9,0.2,1.6,0.9,1.9,1.8s0,1.8-0.6,2.5L48.4,84c-0.7,0.7-1.6,0.9-2.5,0.6
	c-0.9-0.3-1.6-1-1.8-1.9L40.2,65L57.9,69z M42.7,61.5l-3.5-0.8l-0.8-3.5l14.1-14.1l3.2,1l1,3.2L42.7,61.5z M88.8,42
	c-0.5,1-1.5,1.6-2.6,1.6h0l-10.7-0.1c-0.7,0-1.3,0.3-1.7,0.9L67.7,53c-0.6,0.9-1.7,1.4-2.8,1.2c-1.1-0.2-2-0.9-2.3-2L59.4,42
	c-0.2-0.6-0.7-1.1-1.3-1.3l-10.2-3.2c-1.1-0.3-1.8-1.2-2-2.3C45.6,34,46.1,33,47,32.3l8.8-6.2c0.5-0.4,0.9-1,0.8-1.7l-0.1-10.7
	c0-1.1,0.6-2.1,1.6-2.6c0.4-0.2,0.9-0.3,1.3-0.3c0.6,0,1.2,0.2,1.7,0.6l8.6,6.4c0.5,0.4,1.2,0.5,1.8,0.3l10.2-3.5
	c1.1-0.4,2.2-0.1,3,0.7c0.8,0.8,1.1,1.9,0.7,3l-3.5,10.2c-0.2,0.6-0.1,1.3,0.3,1.8l6.4,8.6C89.3,39.8,89.4,41,88.8,42z"/>
</svg>
