<?xml version="1.0" encoding="utf-8"?>
<!-- Generator: Adobe Illustrator 23.0.1, SVG Export Plug-In . SVG Version: 6.00 Build 0)  -->
<svg version="1.1" id="Layer_1" xmlns="http://www.w3.org/2000/svg" xmlns:xlink="http://www.w3.org/1999/xlink" x="0px" y="0px"
	 viewBox="0 0 100 100" style="enable-background:new 0 0 100 100;" xml:space="preserve">
<path d="M90.8,51c0,4.4-3.6,8-8,8c-1.1,0-2-0.9-2-2c0-1.1,0.9-2,2-2c2.2,0,4-1.8,4-4c0-2.2-1.8-4-4-4h-7.6l1.1-4h6.5
	C87.3,43,90.8,46.6,90.8,51z M56.8,39c-0.5-5.6-5.2-10-11-10c-5.6,0-10.3,4.3-10.9,9.7c1.3,0.2,2.7,0.3,4.1,0.3H56.8z M45.8,25
	c1.7,0,3-1.4,3-3c0-1.7-1.3-3-3-3s-3,1.3-3,3C42.8,23.6,44.2,25,45.8,25z M66.8,77h-9.7l-4.7-7.1c-2.7,0.7-5.5,1.1-8.3,1.1
	c-1.8,0-3.5-0.2-5.2-0.4L34.6,77h-9.7c-1.1,0-2,0.9-2,2c0,1.1,0.9,2,2,2h42c1.1,0,2-0.9,2-2C68.8,77.9,67.9,77,66.8,77z M14,33H9.2
	l10,18.9C24,61.2,33.6,67,44.1,67c12.5,0,23.7-8.4,27.1-20.5l1-3.5H39C29.6,43,20.8,39.5,14,33z"/>
</svg>
