<?xml version="1.0" encoding="utf-8"?>
<!-- Generator: Adobe Illustrator 23.0.1, SVG Export Plug-In . SVG Version: 6.00 Build 0)  -->
<svg version="1.1" id="Layer_1" xmlns="http://www.w3.org/2000/svg" xmlns:xlink="http://www.w3.org/1999/xlink" x="0px" y="0px"
	 viewBox="0 0 100 100" style="enable-background:new 0 0 100 100;" xml:space="preserve">
<path d="M32.4,77.3c0,5.1-3.6,9.3-8.6,10.1l-12.8,2c1-2.4,2.9-4.2,5.3-5.3c1.8-0.8,3.2-2.4,3.5-4.4c0.4-2-0.2-4-1.7-5.4
	c-1.1-1.1-2.7-1.8-4.3-1.8c-0.2,0-0.5,0-0.8,0.1c1.7-3.3,5.1-5.5,9.1-5.5h0.1l3.7,3.7l-2.1,2.1c-0.8,0.8-0.8,2,0,2.8
	c0.4,0.4,0.9,0.6,1.4,0.6c0.5,0,1-0.2,1.4-0.6l2.1-2.1L32.4,77.3C32.4,77.3,32.4,77.3,32.4,77.3z M37.2,68l-5.7-5.7
	c-0.8-0.8-2-0.8-2.8,0l-2.8,2.8l8.5,8.5l2.8-2.8C38,70,38,68.8,37.2,68z M78.6,16L55,29.1L43.2,51.9c-0.1,0.2-0.2,0.3-0.4,0.5
	l-7.8,7.8l4.2,4.2l7.6-7.5l11.9-23.1c0.2-0.4,0.5-0.6,0.8-0.8l23.1-12.9L78.6,16z M88.1,11.4c-1.1-1.1-3.1-1.1-4.2,0l-2.1,2.1
	l4.2,4.2l2.1-2.1C89.3,14.5,89.3,12.6,88.1,11.4z"/>
</svg>
