<?xml version="1.0" encoding="utf-8"?>
<!-- Generator: Adobe Illustrator 23.0.1, SVG Export Plug-In . SVG Version: 6.00 Build 0)  -->
<svg version="1.1" id="Layer_1" xmlns="http://www.w3.org/2000/svg" xmlns:xlink="http://www.w3.org/1999/xlink" x="0px" y="0px"
	 viewBox="0 0 100 100" style="enable-background:new 0 0 100 100;" xml:space="preserve">
<path d="M85.5,41h-22c-0.4-5.8-4.1-10.8-9.3-12.9c0.8-1.2,1.3-2.6,1.3-4.1c0-3.9-3.1-7-7-7s-7,3.1-7,7c0,1.5,0.5,3,1.3,4.1
	c-4.9,2-8.5,6.5-9.2,11.9c-5.5-1.4-10.6-4.3-14.7-8.4C18.5,31.2,18,31,17.5,31h-9c-0.7,0-1.3,0.4-1.7,1c-0.4,0.6-0.4,1.3-0.1,2
	l11.5,21.9c4.1,7.8,11,13.3,19.1,15.8L32.4,79h-4.9c-1.1,0-2,0.9-2,2c0,1.1,0.9,2,2,2h42c1.1,0,2-0.9,2-2c0-1.1-0.9-2-2-2h-4.9
	l-5.6-8.5c8.9-3.7,16-11.3,18.7-20.9L79,45h6.5c2.2,0,4,1.8,4,4c0,2.2-1.8,4-4,4c-1.1,0-2,0.9-2,2c0,1.1,0.9,2,2,2c4.4,0,8-3.6,8-8
	C93.5,44.6,89.9,41,85.5,41z M48.5,21c1.7,0,3,1.3,3,3c0,1.6-1.3,3-3,3s-3-1.4-3-3C45.5,22.3,46.8,21,48.5,21z M48.5,31
	c5.7,0,10.4,4.4,11,10H41.6c-1.4,0-2.7-0.1-4.1-0.3C38.2,35.3,42.9,31,48.5,31z M59.8,79H37.2l4.3-6.4c1.7,0.3,3.4,0.4,5.2,0.4
	c2.8,0,5.6-0.4,8.3-1.1L59.8,79z M73.8,48.5C70.4,60.6,59.2,69,46.7,69c-10.5,0-20.1-5.8-24.9-15.1L11.8,35h4.9
	c6.8,6.5,15.6,10,25,10h33.2L73.8,48.5z"/>
</svg>
