<?xml version="1.0" encoding="utf-8"?>
<!-- Generator: Adobe Illustrator 21.0.2, SVG Export Plug-In . SVG Version: 6.00 Build 0)  -->
<svg version="1.1" id="Layer_1" xmlns="http://www.w3.org/2000/svg" xmlns:xlink="http://www.w3.org/1999/xlink" x="0px" y="0px"
	 viewBox="0 0 100 100" style="enable-background:new 0 0 100 100;" xml:space="preserve">
<g>
	<path d="M92.4,60.1c-1-0.4-2.2,0.1-2.6,1.1l-1.2,2.8l-10.2-4.3c1.4-4.2,2-8.8,1.4-13.5c-0.2-1.9-0.7-3.9-1.3-5.7l10.2-4.2l1.1,2.8
		c0.3,0.8,1.1,1.2,1.8,1.2c0.2,0,0.5-0.1,0.8-0.2c1-0.4,1.5-1.6,1.1-2.6l-1.9-4.6c0,0,0,0,0,0l-1.9-4.6c-0.4-1-1.6-1.5-2.6-1.1
		c-1,0.4-1.5,1.6-1.1,2.6l1.1,2.8l-10.2,4.2c-2-4.1-4.9-7.7-8.6-10.5c-1.6-1.2-3.2-2.2-5-3.1l4.2-10.2l2.8,1.1
		c0.2,0.1,0.5,0.2,0.8,0.2c0.8,0,1.5-0.5,1.9-1.2c0.4-1-0.1-2.2-1.1-2.6l-4.6-1.9c0,0,0,0,0,0l-4.6-1.9c-1-0.4-2.2,0.1-2.6,1.1
		c-0.4,1,0,2.2,1.1,2.6l2.8,1.2l-4.2,10.2c-4.3-1.5-8.9-2-13.5-1.3c-2,0.2-3.9,0.7-5.7,1.3l-4.2-10.2l2.8-1.1c1-0.4,1.5-1.6,1.1-2.6
		c-0.4-1-1.6-1.5-2.6-1.1l-9.2,3.8c-1,0.4-1.5,1.6-1.1,2.6c0.3,0.8,1.1,1.2,1.9,1.2c0.2,0,0.5-0.1,0.8-0.2l2.8-1.1l4.2,10.2
		c-4.1,2-7.7,4.9-10.5,8.6c-1.2,1.6-2.2,3.2-3.1,5l-10.2-4.2l1.2-2.8c0.4-1,0-2.2-1.1-2.6c-1-0.4-2.2,0.1-2.6,1.1l-3.9,9.2
		c-0.4,1,0.1,2.2,1.1,2.6c0.2,0.1,0.5,0.2,0.8,0.2c0.8,0,1.5-0.5,1.8-1.2l1.2-2.8l10.2,4.2c-1.5,4.3-1.9,8.9-1.3,13.5
		c0.2,2,0.7,3.9,1.3,5.7l-10.2,4.2L10.2,61c-0.4-1-1.6-1.5-2.6-1.1c-1,0.4-1.5,1.6-1.1,2.6l3.8,9.2c0.3,0.8,1.1,1.2,1.9,1.2
		c0.2,0,0.5,0,0.8-0.2c1-0.4,1.5-1.6,1.1-2.6l-1.1-2.8l10.2-4.2c2.9,5.9,7.7,10.7,13.6,13.6l-4.3,10.2l-2.8-1.2
		c-1-0.4-2.2,0-2.6,1.1c-0.4,1,0.1,2.2,1.1,2.6l4.6,1.9c0,0,0,0,0,0l4.6,1.9c0.2,0.1,0.5,0.2,0.8,0.2c0.8,0,1.5-0.5,1.8-1.2
		c0.4-1,0-2.2-1.1-2.6l-2.8-1.2l4.3-10.2c3,1,6.3,1.6,9.6,1.6c1.3,0,2.6-0.1,3.9-0.2c2-0.2,3.9-0.7,5.7-1.3l4.2,10.2L61,89.8
		c-1,0.4-1.5,1.6-1.1,2.6c0.3,0.8,1.1,1.2,1.8,1.2c0.2,0,0.5,0,0.8-0.2l4.6-1.9c0,0,0,0,0,0l4.6-1.9c1-0.4,1.5-1.6,1.1-2.6
		c-0.4-1-1.6-1.5-2.6-1.1l-2.8,1.1l-4.2-10.2c5.9-2.9,10.7-7.7,13.6-13.5l10.2,4.3l-1.2,2.8c-0.4,1,0,2.2,1.1,2.6
		c0.3,0.1,0.5,0.1,0.8,0.1c0.8,0,1.5-0.5,1.8-1.2l1.9-4.6c0,0,0,0,0,0l1.9-4.6C93.9,61.7,93.4,60.5,92.4,60.1z M50,30.4
		c0.9-2,3.2-3,5.2-2.1s3,3.2,2.1,5.2c-0.9,2-3.2,3-5.2,2.2C50.1,34.8,49.1,32.4,50,30.4z M56.5,46.3c-0.4,1-1.6,1.5-2.6,1.1
		c-1-0.4-1.5-1.6-1.1-2.6c0.4-1,1.6-1.5,2.6-1.1C56.5,44.1,57,45.3,56.5,46.3z M36.3,33.4c0.4-1,1.6-1.5,2.6-1.1
		c1,0.4,1.5,1.6,1.1,2.6c-0.4,1-1.6,1.5-2.6,1.1C36.4,35.6,35.9,34.5,36.3,33.4z M39.3,65.1c-0.4,1-1.6,1.5-2.6,1.1
		c-1-0.4-1.5-1.6-1.1-2.6c0.4-1,1.6-1.5,2.6-1.1C39.3,62.9,39.8,64,39.3,65.1z M41.6,51.9c-1.1,2.7-3.7,4.3-6.5,4.3
		c-0.9,0-1.8-0.2-2.7-0.5c-3.6-1.5-5.2-5.6-3.8-9.2c0.7-1.7,2.1-3.1,3.8-3.8c1.7-0.7,3.6-0.7,5.4,0c2.7,1.1,4.3,3.7,4.3,6.5
		C42.2,50.1,42,51,41.6,51.9z M62.7,66.2c-1.5,3.4-4.8,5.5-8.3,5.5c-1.1,0-2.3-0.2-3.5-0.7c-2.2-0.9-3.9-2.7-4.9-4.9
		c-0.9-2.2-0.9-4.7,0-6.9c0.9-2.2,2.7-3.9,4.9-4.8c2.2-0.9,4.7-0.9,6.9,0C62.5,56.3,64.7,61.6,62.7,66.2z M71.5,56.3
		c-0.4,1-1.6,1.5-2.6,1.1c-1-0.4-1.5-1.6-1.1-2.6c0.4-1,1.6-1.5,2.6-1.1C71.5,54.1,72,55.3,71.5,56.3z M74.6,41.5
		c-0.1,0.3-0.1,0.6-0.3,0.9c-0.9,2-3.2,3-5.2,2.2c-2-0.9-3-3.2-2.1-5.2c0.9-2,3.2-3,5.2-2.1c0.2,0.1,0.5,0.2,0.7,0.4
		C74.2,38.5,74.8,40,74.6,41.5z"/>
	<path d="M56.4,58.1c-0.6-0.3-1.3-0.4-1.9-0.4s-1.3,0.1-1.9,0.4c-1.2,0.5-2.2,1.5-2.7,2.7c-0.5,1.2-0.5,2.6,0,3.8
		c0.5,1.2,1.5,2.2,2.7,2.7c1.2,0.5,2.6,0.5,3.8,0c1.2-0.5,2.2-1.5,2.7-2.7c0.5-1.2,0.5-2.6,0-3.8C58.6,59.6,57.6,58.6,56.4,58.1z"/>
	<path d="M36.3,46.4c-0.4-0.2-0.8-0.2-1.2-0.2c-0.4,0-0.8,0.1-1.1,0.2c-0.7,0.3-1.3,0.9-1.6,1.6s-0.3,1.6,0,2.3s0.9,1.3,1.6,1.6
		c0.7,0.3,1.5,0.3,2.3,0c0.7-0.3,1.3-0.9,1.6-1.6C38.6,48.8,37.8,47.1,36.3,46.4z"/>
</g>
</svg>
