<?xml version="1.0" encoding="utf-8"?>
<!-- Generator: Adobe Illustrator 21.0.2, SVG Export Plug-In . SVG Version: 6.00 Build 0)  -->
<svg version="1.1" id="Layer_1" xmlns="http://www.w3.org/2000/svg" xmlns:xlink="http://www.w3.org/1999/xlink" x="0px" y="0px"
	 viewBox="0 0 100 100" style="enable-background:new 0 0 100 100;" xml:space="preserve">
<g>
	<path d="M75,12h-6c0,4.4-3.6,8-8,8H39c-4.4,0-8-3.6-8-8h-6c-3.3,0-6,2.7-6,6v68c0,3.3,2.7,6,6,6h50c3.3,0,6-2.7,6-6V18
		C81,14.7,78.3,12,75,12z M42.4,80.6c0.8,0.8,0.8,2,0,2.8C42,83.8,41.5,84,41,84s-1-0.2-1.4-0.6L36,79.8l-3.6,3.6
		C32,83.8,31.5,84,31,84s-1-0.2-1.4-0.6c-0.8-0.8-0.8-2,0-2.8l3.6-3.6l-3.6-3.6c-0.8-0.8-0.8-2,0-2.8c0.8-0.8,2-0.8,2.8,0l3.6,3.6
		l3.6-3.6c0.8-0.8,2-0.8,2.8,0c0.8,0.8,0.8,2,0,2.8L38.8,77L42.4,80.6z M45,58c0,3.3-2.7,6-6,6h-6c-3.3,0-6-2.7-6-6v-6
		c0-3.3,2.7-6,6-6h6c3.3,0,6,2.7,6,6V58z M44.4,29.4l-9.8,10c-0.4,0.4-0.9,0.6-1.4,0.6c-0.5,0-1-0.2-1.4-0.6l-4.2-4.3
		c-0.8-0.8-0.8-2,0-2.8c0.8-0.8,2.1-0.8,2.8,0l0.6,0.6l2.2,2.2l5.1-5.2l3.2-3.3c0.8-0.8,2-0.8,2.8,0C45.2,27.3,45.2,28.6,44.4,29.4z
		 M71,82H53c-1.1,0-2-0.9-2-2c0-1.1,0.9-2,2-2h18c1.1,0,2,0.9,2,2C73,81.1,72.1,82,71,82z M71,70H53c-1.1,0-2-0.9-2-2
		c0-1.1,0.9-2,2-2h18c1.1,0,2,0.9,2,2C73,69.1,72.1,70,71,70z M71,58H53c-1.1,0-2-0.9-2-2c0-1.1,0.9-2,2-2h18c1.1,0,2,0.9,2,2
		C73,57.1,72.1,58,71,58z M71,46H53c-1.1,0-2-0.9-2-2c0-1.1,0.9-2,2-2h18c1.1,0,2,0.9,2,2C73,45.1,72.1,46,71,46z M71,34H53
		c-1.1,0-2-0.9-2-2c0-1.1,0.9-2,2-2h18c1.1,0,2,0.9,2,2C73,33.1,72.1,34,71,34z"/>
	<path d="M39,50h-6c-1.1,0-2,0.9-2,2v6c0,1.1,0.9,2,2,2h6c1.1,0,2-0.9,2-2v-6C41,50.9,40.1,50,39,50z"/>
	<path d="M39,16h22c2.2,0,4-1.8,4-4c0-2.2-1.8-4-4-4H39c-2.2,0-4,1.8-4,4C35,14.2,36.8,16,39,16z"/>
</g>
</svg>
