<?xml version="1.0" encoding="utf-8"?>
<!-- Generator: Adobe Illustrator 21.0.2, SVG Export Plug-In . SVG Version: 6.00 Build 0)  -->
<svg version="1.1" id="Layer_1" xmlns="http://www.w3.org/2000/svg" xmlns:xlink="http://www.w3.org/1999/xlink" x="0px" y="0px"
	 viewBox="0 0 100 100" style="enable-background:new 0 0 100 100;" xml:space="preserve">
<path d="M81,66V36C81,18.9,67.1,5,50,5S19,18.9,19,36v30c0,2.8,1.9,5.1,4.5,5.8C20.7,74.4,19,78,19,82v7c0,3.3,2.7,6,6.1,6h49.9
	c3.4,0,6.1-2.7,6.1-6v-7c0-4-1.7-7.6-4.5-10.2C79.1,71.1,81,68.8,81,66z M77,82v7c0,1.1-0.9,2-2.1,2H25.1c-1.1,0-2.1-0.9-2.1-2v-7
	c0-5.5,4.6-10,10.2-10H35c0,5,3,9.6,7.5,11.8l6.6,3.1c0.3,0.1,0.6,0.2,0.8,0.2s0.6-0.1,0.8-0.2l6.6-3.1C62,81.6,65,77,65,72h1.8
	C72.4,72,77,76.5,77,82z M38.2,55c-2.6-2.5-4.4-5.8-5-9.5l5.3,1.1C38,49.3,37.9,52.2,38.2,55z M33,41.4V33c0-1.1,0.9-2,2-2
	c3.7,0,7-1.9,9-4.7c2,2.8,5.3,4.7,9,4.7h12c1.1,0,2,0.9,2,2v8.4L58.8,43H41.2L33,41.4z M61.4,46.5l5.3-1.1c-0.6,3.7-2.4,7-5,9.5
	C62.1,52.2,62,49.3,61.4,46.5z M57.1,58.3c-2.2,1-4.6,1.6-7.1,1.6s-5-0.6-7.1-1.6c-1-3.7-1.1-7.5-0.3-11.3h14.9
	C58.2,50.7,58.1,54.6,57.1,58.3z M45,66v-2.8c1.6,0.4,3.3,0.6,5,0.6s3.4-0.2,5-0.6V66c0,3.3,2.7,6,6,6c0,3.5-2,6.7-5.2,8.1L50,82.8
	l-5.8-2.7C41,78.7,39,75.5,39,72C42.3,72,45,69.3,45,66z M77,66c0,1.1-0.9,2-2,2H61c-1.1,0-2-0.9-2-2v-4.2
	c6.9-3.3,11.8-10.3,12-18.5c0-0.1,0-0.2,0-0.4c0-0.1,0-0.1,0-0.2V33c0-3.3-2.7-6-6-6H53c-3.9,0-7-3.1-7-7v-1c0-1.1-0.9-2-2-2
	s-2,0.9-2,2v1c0,3.9-3.1,7-7,7c-3.3,0-6,2.7-6,6v9.7c0,0.1,0,0.1,0,0.2c0,0.1,0,0.2,0,0.4c0.2,8.2,5,15.2,12,18.5V66
	c0,1.1-0.9,2-2,2H25c-1.1,0-2-0.9-2-2V36C23,21.1,35.1,9,50,9s27,12.1,27,27V66z"/>
</svg>
