<?xml version="1.0" encoding="utf-8"?>
<!-- Generator: Adobe Illustrator 21.0.2, SVG Export Plug-In . SVG Version: 6.00 Build 0)  -->
<svg version="1.1" id="Layer_1" xmlns="http://www.w3.org/2000/svg" xmlns:xlink="http://www.w3.org/1999/xlink" x="0px" y="0px"
	 viewBox="0 0 100 100" style="enable-background:new 0 0 100 100;" xml:space="preserve">
<g>
	<path d="M21.2,51.1c-2.7,2.7-2.7,7.2,0,9.9l9.9,9.9c1.4,1.4,3.2,2.1,5,2.1c1.8,0,3.6-0.7,5-2.1c1.4-1.4,2-3.2,2-4.9
		c0-1.8-0.7-3.6-2-5l-9.9-9.9C28.4,48.4,23.9,48.4,21.2,51.1z M38.2,63.8c1.2,1.2,1.2,3.1,0,4.2c-1.2,1.2-3.1,1.2-4.2,0l-3.5-3.5
		l4.2-4.2L38.2,63.8z M27.6,61.7L24,58.2c-1.2-1.2-1.2-3.1,0-4.2c0.6-0.6,1.4-0.9,2.1-0.9c0.8,0,1.5,0.3,2.1,0.9l3.5,3.5L27.6,61.7z
		"/>
	<path d="M93.9,49.2L80.4,24.7c-2.1-3.9-7-5.3-10.9-3.2l-14.8,8.1c-0.9-1.3-2.1-2.4-3.5-3.2c-2.1-1.3-3.6-3.4-4-5.8
		c2.2-0.9,3.8-3,3.8-5.6v-4c0-3.3-2.7-6-6-6h-28c-3.3,0-6,2.7-6,6v4c0,2.5,1.6,4.7,3.8,5.6c-0.5,2.4-1.9,4.5-4,5.8
		c-3.6,2.2-5.8,6.1-5.8,10.3V85c0,5.5,4.5,10,10,10h32c5.5,0,10-4.5,10-10V74.6c1.1,0.5,2.3,0.8,3.5,0.8c1.3,0,2.6-0.3,3.8-1
		l26.3-14.4c1.9-1,3.2-2.7,3.8-4.8C95.2,53.2,95,51.1,93.9,49.2z M15.1,11c0-1.1,0.9-2,2-2h28c1.1,0,2,0.9,2,2v4c0,1.1-0.9,2-2,2
		h-28c-1.1,0-2-0.9-2-2V11z M9.1,36.7c0-2.8,1.5-5.4,3.9-6.9c3.2-1.9,5.4-5.2,6-8.8h24.3c0.6,3.6,2.8,6.9,6,8.8
		c0.8,0.5,1.5,1.1,2,1.8l-8,4.4c-1.9,1-3.2,2.7-3.8,4.8c0,0.1,0,0.2-0.1,0.3H9.1V36.7z M53.1,85c0,3.3-2.7,6-6,6h-32
		c-3.3,0-6-2.7-6-6v-4h44V85z M53.1,77h-44V45h30.3c0.2,0.6,0.4,1.2,0.7,1.8l13,23.6V77z M90.8,54.2c-0.3,1-1,1.9-1.9,2.4L62.5,71
		c-0.9,0.5-2,0.6-3.1,0.3c-1-0.3-1.9-1-2.4-1.9L43.6,44.9c-0.5-0.9-0.6-2-0.3-3c0.3-1,1-1.9,1.9-2.4L71.5,25
		c0.6-0.3,1.3-0.5,1.9-0.5c1.4,0,2.8,0.8,3.5,2.1l13.5,24.6C90.9,52.1,91.1,53.1,90.8,54.2z"/>
	<path d="M80.2,40.8l-2.9-5.3c-0.8-1.4-2-2.4-3.6-2.9c-1.5-0.4-3.2-0.3-4.6,0.5c-1.4,0.8-2.4,2-2.9,3.6s-0.3,3.2,0.5,4.6l5.8,10.5
		c1.1,2,3.1,3.1,5.3,3.1c1,0,2-0.2,2.9-0.7c2.9-1.6,4-5.2,2.4-8.2L80.2,40.8z M72.2,42.9l-1.9-3.5c-0.3-0.5-0.3-1-0.2-1.5
		c0.1-0.5,0.5-0.9,1-1.2c0.3-0.2,0.6-0.2,1-0.2c0.2,0,0.4,0,0.6,0.1c0.5,0.2,0.9,0.5,1.2,1l1.9,3.5L72.2,42.9z M78.8,50.7
		c-1,0.5-2.2,0.2-2.7-0.8l-1.9-3.5l3.5-1.9l1.9,3.5C80.1,48.9,79.7,50.1,78.8,50.7z"/>
	<path d="M61.5,44.2c-1.6-2.9-5.2-4-8.1-2.4c-2.9,1.6-4,5.2-2.4,8.1l2.9,5.3l2.9,5.3c0.8,1.4,2,2.4,3.6,2.9c0.6,0.2,1.1,0.2,1.7,0.2
		c1,0,2-0.2,2.9-0.7c2.9-1.6,4-5.2,2.4-8.1L61.5,44.2z M56.4,51.5L54.5,48c-0.5-1-0.2-2.2,0.8-2.7c0.3-0.2,0.6-0.2,1-0.2
		c0.7,0,1.4,0.4,1.8,1l1.9,3.5L56.4,51.5z M63,59.3c-0.5,0.3-1,0.3-1.5,0.2c-0.5-0.2-0.9-0.5-1.2-1L58.3,55l3.5-1.9l1.9,3.5
		C64.3,57.6,64,58.8,63,59.3z"/>
</g>
</svg>
