<?xml version="1.0" encoding="utf-8"?>
<!-- Generator: Adobe Illustrator 21.0.2, SVG Export Plug-In . SVG Version: 6.00 Build 0)  -->
<svg version="1.1" id="Layer_1" xmlns="http://www.w3.org/2000/svg" xmlns:xlink="http://www.w3.org/1999/xlink" x="0px" y="0px"
	 viewBox="0 0 100 100" style="enable-background:new 0 0 100 100;" xml:space="preserve">
<g>
	<path d="M50,9C35.1,9,23,21.1,23,36v30c0,1.1,0.9,2,2,2h14c1.1,0,2-0.9,2-2v-4.2c-6.9-3.3-11.8-10.3-12-18.5c0-0.1,0-0.2,0-0.4
		c0-0.1,0-0.1,0-0.2V33c0-3.3,2.7-6,6-6c3.9,0,7-3.1,7-7v-1c0-1.1,0.9-2,2-2s2,0.9,2,2v1c0,3.9,3.1,7,7,7h12c3.3,0,6,2.7,6,6v9.7
		c0,0.1,0,0.1,0,0.2c0,0.1,0,0.2,0,0.4c-0.2,8.2-5,15.2-12,18.5V66c0,1.1,0.9,2,2,2h14c1.1,0,2-0.9,2-2V36C77,21.1,64.9,9,50,9z"/>
	<path d="M66.8,72H65c0,5-3,9.6-7.5,11.8l-6.6,3.1C50.6,86.9,50.3,87,50,87s-0.6-0.1-0.8-0.2l-6.6-3.1C38,81.6,35,77,35,72h-1.8
		C27.6,72,23,76.5,23,82v7c0,1.1,0.9,2,2.1,2h49.9c1.1,0,2.1-0.9,2.1-2v-7C77,76.5,72.4,72,66.8,72z"/>
	<path d="M44.2,80.1l5.8,2.7l5.8-2.7C59,78.7,61,75.5,61,72c-3.3,0-6-2.7-6-6v-2.8c-1.6,0.4-3.3,0.6-5,0.6s-3.4-0.2-5-0.6V66
		c0,3.3-2.7,6-6,6C39,75.5,41,78.7,44.2,80.1z"/>
	<path d="M66.8,45.5l-5.3,1.1c0.6,2.8,0.7,5.7,0.4,8.5C64.4,52.5,66.2,49.2,66.8,45.5z"/>
	<path d="M33.2,45.5c0.6,3.7,2.4,7,5,9.5c-0.3-2.8-0.2-5.7,0.4-8.5L33.2,45.5z"/>
	<path d="M58.8,43l8.2-1.6V33c0-1.1-0.9-2-2-2H53c-3.7,0-7-1.9-9-4.7c-2,2.8-5.3,4.7-9,4.7c-1.1,0-2,0.9-2,2v8.4l8.2,1.6H58.8z"/>
	<path d="M42.9,58.3c2.2,1,4.6,1.6,7.1,1.6s5-0.6,7.1-1.6c1-3.7,1.1-7.5,0.3-11.3H42.6C41.8,50.7,41.9,54.6,42.9,58.3z"/>
</g>
</svg>
