<?xml version="1.0" encoding="utf-8"?>
<!-- Generator: Adobe Illustrator 21.0.2, SVG Export Plug-In . SVG Version: 6.00 Build 0)  -->
<svg version="1.1" id="Layer_1" xmlns="http://www.w3.org/2000/svg" xmlns:xlink="http://www.w3.org/1999/xlink" x="0px" y="0px"
	 viewBox="0 0 100 100" style="enable-background:new 0 0 100 100;" xml:space="preserve">
<g>
	<path d="M75,13h-6.3c-0.8,2.3-3,4-5.7,4H37c-2.6,0-4.8-1.7-5.7-4H25c-2.2,0-4,1.8-4,4v70c0,2.2,1.8,4,4,4h50c2.2,0,4-1.8,4-4V17
		C79,14.8,77.2,13,75,13z M29,35c0-2,1.2-3.8,3-4.6c-1.2-0.7-2-2-2-3.4c0-2.2,1.8-4,4-4s4,1.8,4,4c0,1.5-0.8,2.7-2,3.4
		c1.8,0.8,3,2.5,3,4.6v3H29V35z M29,47h12c1.1,0,2,0.9,2,2c0,1.1-0.9,2-2,2H29c-1.1,0-2-0.9-2-2C27,47.9,27.9,47,29,47z M29,55h12
		c1.1,0,2,0.9,2,2c0,1.1-0.9,2-2,2H29c-1.1,0-2-0.9-2-2C27,55.9,27.9,55,29,55z M71,83H61c-0.6,0-1.1-0.2-1.5-0.7l-2.3-2.6L54,76.1
		l-2.5,3.1l-6,7.1C45.2,86.7,44.6,87,44,87c0,0,0,0,0,0c-0.6,0-1.1-0.2-1.5-0.7L36.1,79H29c-1.1,0-2-0.9-2-2c0-1.1,0.9-2,2-2h8
		c0.6,0,1.1,0.2,1.5,0.7l2.1,2.4l3.3,3.8l2.7-3.2l5.8-7c0.4-0.5,0.9-0.7,1.5-0.7c0,0,0,0,0,0c0.6,0,1.1,0.2,1.5,0.7l6.4,7.3H71
		c1.1,0,2,0.9,2,2C73,82.1,72.1,83,71,83z M71,67H49c-1.1,0-2-0.9-2-2V47c0-1.1,0.9-2,2-2s2,0.9,2,2v16h4v-8c0-0.9,0.6-1.7,1.4-1.9
		c0.2,0,0.4-0.1,0.6-0.1c1.1,0,2,0.9,2,2v8h4v-4c0-0.2,0-0.3,0.1-0.5c0.2-0.9,1-1.5,1.9-1.5c1.1,0,2,0.9,2,2v4h4c1.1,0,2,0.9,2,2
		C73,66.1,72.1,67,71,67z M71,37H49c-1.1,0-2-0.9-2-2c0-1.1,0.9-2,2-2h22c1.1,0,2,0.9,2,2C73,36.1,72.1,37,71,37z M71,29H49
		c-1.1,0-2-0.9-2-2c0-1.1,0.9-2,2-2h22c1.1,0,2,0.9,2,2C73,28.1,72.1,29,71,29z"/>
	<path d="M37,13h26c1.1,0,2-0.9,2-2c0-1.1-0.9-2-2-2H37c-1.1,0-2,0.9-2,2C35,12.1,35.9,13,37,13z"/>
</g>
</svg>
