<?xml version="1.0" encoding="utf-8"?>
<!-- Generator: Adobe Illustrator 21.0.2, SVG Export Plug-In . SVG Version: 6.00 Build 0)  -->
<svg version="1.1" id="Layer_1" xmlns="http://www.w3.org/2000/svg" xmlns:xlink="http://www.w3.org/1999/xlink" x="0px" y="0px"
	 viewBox="0 0 100 100" style="enable-background:new 0 0 100 100;" xml:space="preserve">
<g>
	<path d="M41.6,27.6l-8.4,8.5l-2.8-2.8c-0.8-0.8-2-0.8-2.8,0c-0.8,0.8-0.8,2,0,2.8l4.2,4.3c0.4,0.4,0.9,0.6,1.4,0.6
		c0.5,0,1-0.2,1.4-0.6l9.8-10c0.8-0.8,0.8-2.1,0-2.8C43.6,26.8,42.3,26.8,41.6,27.6z"/>
	<path d="M42.4,71.6c-0.8-0.8-2-0.8-2.8,0L36,75.2l-3.6-3.6c-0.8-0.8-2-0.8-2.8,0c-0.8,0.8-0.8,2,0,2.8l3.6,3.6l-3.6,3.6
		c-0.8,0.8-0.8,2,0,2.8C30,84.8,30.5,85,31,85s1-0.2,1.4-0.6l3.6-3.6l3.6,3.6C40,84.8,40.5,85,41,85s1-0.2,1.4-0.6
		c0.8-0.8,0.8-2,0-2.8L38.8,78l3.6-3.6C43.2,73.6,43.2,72.4,42.4,71.6z"/>
	<path d="M39,47h-6c-3.3,0-6,2.7-6,6v6c0,3.3,2.7,6,6,6h6c3.3,0,6-2.7,6-6v-6C45,49.7,42.3,47,39,47z M41,59c0,1.1-0.9,2-2,2h-6
		c-1.1,0-2-0.9-2-2v-6c0-1.1,0.9-2,2-2h6c1.1,0,2,0.9,2,2V59z"/>
	<path d="M75,11h-6.3c-0.9-3.4-4-6-7.7-6H39c-3.7,0-6.8,2.6-7.7,6H25c-4.4,0-8,3.6-8,8v68c0,4.4,3.6,8,8,8h50c4.4,0,8-3.6,8-8V19
		C83,14.6,79.4,11,75,11z M39,9h22c2.2,0,4,1.8,4,4c0,2.2-1.8,4-4,4H39c-2.2,0-4-1.8-4-4C35,10.8,36.8,9,39,9z M79,87
		c0,2.2-1.8,4-4,4H25c-2.2,0-4-1.8-4-4V19c0-2.2,1.8-4,4-4h6.3c0.9,3.4,4,6,7.7,6h22c3.7,0,6.8-2.6,7.7-6H75c2.2,0,4,1.8,4,4V87z"/>
	<path d="M71,31H53c-1.1,0-2,0.9-2,2c0,1.1,0.9,2,2,2h18c1.1,0,2-0.9,2-2C73,31.9,72.1,31,71,31z"/>
	<path d="M71,43H53c-1.1,0-2,0.9-2,2c0,1.1,0.9,2,2,2h18c1.1,0,2-0.9,2-2C73,43.9,72.1,43,71,43z"/>
	<path d="M71,55H53c-1.1,0-2,0.9-2,2c0,1.1,0.9,2,2,2h18c1.1,0,2-0.9,2-2C73,55.9,72.1,55,71,55z"/>
	<path d="M71,67H53c-1.1,0-2,0.9-2,2c0,1.1,0.9,2,2,2h18c1.1,0,2-0.9,2-2C73,67.9,72.1,67,71,67z"/>
	<path d="M71,79H53c-1.1,0-2,0.9-2,2c0,1.1,0.9,2,2,2h18c1.1,0,2-0.9,2-2C73,79.9,72.1,79,71,79z"/>
</g>
</svg>
