<?xml version="1.0" encoding="utf-8"?>
<!-- Generator: Adobe Illustrator 21.0.2, SVG Export Plug-In . SVG Version: 6.00 Build 0)  -->
<svg version="1.1" id="Layer_1" xmlns="http://www.w3.org/2000/svg" xmlns:xlink="http://www.w3.org/1999/xlink" x="0px" y="0px"
	 viewBox="0 0 100 100" style="enable-background:new 0 0 100 100;" xml:space="preserve">
<g>
	<path d="M75,9h-6.3c-0.8-2.3-3-4-5.7-4H37c-2.6,0-4.8,1.7-5.7,4H25c-4.4,0-8,3.6-8,8v70c0,4.4,3.6,8,8,8h50c4.4,0,8-3.6,8-8V17
		C83,12.6,79.4,9,75,9z M37,9h26c1.1,0,2,0.9,2,2c0,1.1-0.9,2-2,2H37c-1.1,0-2-0.9-2-2C35,9.9,35.9,9,37,9z M79,87c0,2.2-1.8,4-4,4
		H25c-2.2,0-4-1.8-4-4V17c0-2.2,1.8-4,4-4h6.3c0.8,2.3,3,4,5.7,4h26c2.6,0,4.8-1.7,5.7-4H75c2.2,0,4,1.8,4,4V87z"/>
	<path d="M71,63h-4v-4c0-1.1-0.9-2-2-2s-2,0.9-2,2v4h-4v-8c0-1.1-0.9-2-2-2s-2,0.9-2,2v8h-4V47c0-1.1-0.9-2-2-2s-2,0.9-2,2v18
		c0,1.1,0.9,2,2,2h22c1.1,0,2-0.9,2-2C73,63.9,72.1,63,71,63z"/>
	<path d="M71,79h-9.1l-6.4-7.3C55.1,71.2,54.6,71,54,71c0,0,0,0,0,0c-0.6,0-1.1,0.3-1.5,0.7L44,81.9l-5.5-6.2
		C38.1,75.2,37.6,75,37,75h-8c-1.1,0-2,0.9-2,2c0,1.1,0.9,2,2,2h7.1l6.4,7.3c0.4,0.4,0.9,0.7,1.5,0.7c0,0,0,0,0,0
		c0.6,0,1.1-0.3,1.5-0.7L54,76.1l5.5,6.2c0.4,0.4,0.9,0.7,1.5,0.7h10c1.1,0,2-0.9,2-2C73,79.9,72.1,79,71,79z"/>
	<path d="M29,51h12c1.1,0,2-0.9,2-2c0-1.1-0.9-2-2-2H29c-1.1,0-2,0.9-2,2C27,50.1,27.9,51,29,51z"/>
	<path d="M29,59h12c1.1,0,2-0.9,2-2c0-1.1-0.9-2-2-2H29c-1.1,0-2,0.9-2,2C27,58.1,27.9,59,29,59z"/>
	<path d="M71,25H49c-1.1,0-2,0.9-2,2c0,1.1,0.9,2,2,2h22c1.1,0,2-0.9,2-2C73,25.9,72.1,25,71,25z"/>
	<path d="M71,33H49c-1.1,0-2,0.9-2,2c0,1.1,0.9,2,2,2h22c1.1,0,2-0.9,2-2C73,33.9,72.1,33,71,33z"/>
	<path d="M29,41h10c1.1,0,2-0.9,2-2v-3c0-2.1-0.9-3.9-2.3-5.2c0.8-1,1.3-2.3,1.3-3.8c0-3.3-2.7-6-6-6s-6,2.7-6,6
		c0,1.4,0.5,2.8,1.3,3.8C27.9,32.1,27,33.9,27,36v3C27,40.1,27.9,41,29,41z M34,25c1.1,0,2,0.9,2,2c0,1.1-0.9,2-2,2s-2-0.9-2-2
		C32,25.9,32.9,25,34,25z M31,36c0-1.7,1.3-3,3-3s3,1.3,3,3v1h-6V36z"/>
</g>
</svg>
