<?xml version="1.0" encoding="utf-8"?>
<!-- Generator: Adobe Illustrator 21.0.2, SVG Export Plug-In . SVG Version: 6.00 Build 0)  -->
<svg version="1.1" id="Layer_1" xmlns="http://www.w3.org/2000/svg" xmlns:xlink="http://www.w3.org/1999/xlink" x="0px" y="0px"
	 viewBox="0 0 100 100" style="enable-background:new 0 0 100 100;" xml:space="preserve">
<g>
	<path d="M40.5,38.2c0.6-2,2-3.8,3.8-4.8l9.7-5.4c-0.8-1-1.7-1.8-2.8-2.5c-1.7-1-3-2.4-3.9-4.1c-0.7-1.2-1.1-2.6-1.2-4h1.9
		c1.1,0,2-0.9,2-2v-4c0-1.1-0.9-2-2-2h-32c-1.1,0-2,0.9-2,2v4c0,1.1,0.9,2,2,2h1.9c-0.1,1.4-0.5,2.8-1.2,4c-0.9,1.7-2.2,3.1-3.9,4.1
		c-3,1.8-4.9,5.1-4.9,8.6v4.3h32.3C40.4,38.4,40.5,38.3,40.5,38.2z"/>
	<path d="M8.1,82.5c0,4.4,3.6,8,8,8h32c4.4,0,8-3.6,8-8v-4h-48V82.5z"/>
	<path d="M56.1,70.7c-0.5-0.5-1-1.2-1.4-1.9L41.2,44.3c-0.3-0.6-0.5-1.2-0.7-1.8H8.1v32h48V70.7z M42,68.4c-1.4,1.4-3.2,2.1-5,2.1
		c-1.8,0-3.6-0.7-5-2.1l-9.9-9.9c-2.7-2.7-2.7-7.2,0-9.9c2.7-2.7,7.2-2.7,9.9,0l9.9,9.9c1.4,1.4,2,3.2,2,5
		C44.1,65.2,43.4,67,42,68.4z"/>
	<path d="M29.3,51.4c-0.6-0.6-1.3-0.9-2.1-0.9c-0.8,0-1.5,0.3-2.1,0.9c-1.2,1.2-1.2,3.1,0,4.2l3.5,3.5l4.2-4.2L29.3,51.4z"/>
	<path d="M35.7,57.8L31.4,62l3.5,3.5c1.2,1.2,3.1,1.2,4.2,0c1.2-1.2,1.2-3.1,0-4.2L35.7,57.8z"/>
	<path d="M91.4,48.6L78,24.1c-0.7-1.3-2.1-2.1-3.5-2.1c-0.7,0-1.3,0.2-1.9,0.5L46.2,36.9c-0.9,0.5-1.6,1.4-1.9,2.4
		c-0.3,1-0.2,2.1,0.3,3l13.5,24.5c0.5,0.9,1.4,1.6,2.4,1.9c1,0.3,2.1,0.2,3.1-0.3l26.3-14.4c0.9-0.5,1.6-1.4,1.9-2.4
		C92.1,50.6,92,49.6,91.4,48.6z M65.9,60.3c-0.9,0.5-1.9,0.7-2.9,0.7c-0.6,0-1.1-0.1-1.7-0.2c-1.5-0.5-2.8-1.5-3.6-2.9l-2.9-5.3
		L52,47.5c-1.6-2.9-0.5-6.5,2.4-8.1c2.9-1.6,6.6-0.5,8.1,2.4l5.8,10.5C69.9,55.1,68.8,58.8,65.9,60.3z M81.7,51.7
		c-0.9,0.5-1.9,0.7-2.9,0.7c-2.1,0-4.2-1.1-5.3-3.1l-5.8-10.5c-0.8-1.4-1-3-0.5-4.6s1.5-2.8,2.9-3.6c1.4-0.8,3-0.9,4.6-0.5
		c1.5,0.5,2.8,1.5,3.6,2.9l2.9,5.3l2.9,5.3C85.7,46.4,84.6,50.1,81.7,51.7z"/>
	<path d="M74.8,35c-0.2-0.5-0.7-0.8-1.2-1c-0.2-0.1-0.4-0.1-0.6-0.1c-0.3,0-0.7,0.1-1,0.2c-0.5,0.2-0.8,0.7-1,1.2
		c-0.2,0.5-0.1,1,0.2,1.5l1.9,3.5l3.5-1.9L74.8,35z"/>
	<path d="M78.7,42l-3.5,1.9l1.9,3.5c0.5,1,1.8,1.3,2.7,0.8c1-0.5,1.3-1.8,0.8-2.7L78.7,42z"/>
	<path d="M62.9,50.6l-3.5,1.9l1.9,3.5c0.2,0.5,0.7,0.8,1.2,1c0.5,0.1,1,0.1,1.5-0.2c1-0.5,1.3-1.7,0.8-2.7L62.9,50.6z"/>
	<path d="M59,43.6c-0.4-0.7-1-1-1.8-1c-0.3,0-0.6,0.1-1,0.2c-1,0.5-1.3,1.8-0.8,2.7l1.9,3.5l3.5-1.9L59,43.6z"/>
</g>
</svg>
