<?xml version="1.0" encoding="utf-8"?>
<!-- Generator: Adobe Illustrator 21.0.2, SVG Export Plug-In . SVG Version: 6.00 Build 0)  -->
<svg version="1.1" id="Layer_1" xmlns="http://www.w3.org/2000/svg" xmlns:xlink="http://www.w3.org/1999/xlink" x="0px" y="0px"
	 viewBox="0 0 100 100" style="enable-background:new 0 0 100 100;" xml:space="preserve">
<g>
	<path d="M89,21H78.5l2.2-9.5l8.9-2.7c1.1-0.3,1.7-1.4,1.3-2.5c-0.3-1-1.4-1.7-2.5-1.3l-10,3c-0.7,0.2-1.2,0.8-1.4,1.5L74.4,21H45
		c-3.3,0-6,2.7-6,6v4c0,1.1,0.9,2,2,2h2.2l0.9,7.6C41.2,39.6,38.2,39,35,39C21,39,9.5,50.2,9,64.1c-2.4,1.4-4,4-4,6.9
		c0,3,1.6,5.5,4,6.9V87c0,4.4,3.6,8,8,8h36c0.3,0,0.6,0,0.9-0.1h24.5c3,0,5.6-2.3,6-5.3L90.8,33H93c1.1,0,2-0.9,2-2v-4
		C95,23.7,92.3,21,89,21z M35,43c11.5,0,20.9,8.8,21.9,20H13.1C14.1,51.8,23.5,43,35,43z M57,87c0,2.2-1.8,4-4,4H17
		c-2.2,0-4-1.8-4-4v-8h3l5.4,7.2c0.3,0.4,0.8,0.7,1.3,0.8c0.1,0,0.2,0,0.2,0c0.5,0,0.9-0.2,1.2-0.4l9.5-7.6H57V87z M21,79h6.3
		l-3.9,3.1L21,79z M57,75H13c-2.2,0-4-1.8-4-4c0-2.2,1.8-4,4-4h44c2.2,0,4,1.8,4,4C61,73.2,59.2,75,57,75z M80.4,89.2
		c-0.1,1-1,1.8-2,1.8H60c0.7-1.2,1-2.5,1-3.9V78c0.8-0.5,1.5-1.1,2.1-1.8c1.2,0.6,2.5,0.9,3.9,0.9c4.1,0,7.7-2.7,9.7-7h5.9
		L80.4,89.2z M83,66h-7.8c-0.9,0-1.6,0.5-1.9,1.4C72.2,70.8,69.7,73,67,73c-0.7,0-1.5-0.2-2.2-0.5c0.1-0.5,0.2-1,0.2-1.5
		c0-3-1.6-5.5-4-6.9C60.8,58,58.4,52.4,54.7,48h4.9c0.7,0,1.4-0.4,1.8-1c1.3-2.5,3.4-4,5.7-4s4.3,1.5,5.7,4c0.4,0.6,1,1,1.8,1h10.6
		L83,66z M85.5,44h-10c-2.1-3.2-5.2-5-8.6-5s-6.5,1.8-8.6,5h-8.1c-0.6-0.5-1.3-0.9-2-1.3L47.2,33h39.5L85.5,44z M91,29h-1.5
		C89.3,29,89.2,29,89,29H45c-0.2,0-0.3,0-0.5,0.1H43v-2c0-1.1,0.9-2,2-2h44c1.1,0,2,0.9,2,2V29z"/>
	<circle cx="43" cy="51" r="2"/>
	<circle cx="27" cy="51" r="2"/>
	<circle cx="35" cy="57" r="2"/>
</g>
</svg>
