<?xml version="1.0" encoding="utf-8"?>
<!-- Generator: Adobe Illustrator 21.0.2, SVG Export Plug-In . SVG Version: 6.00 Build 0)  -->
<svg version="1.1" id="Layer_1" xmlns="http://www.w3.org/2000/svg" xmlns:xlink="http://www.w3.org/1999/xlink" x="0px" y="0px"
	 viewBox="0 0 100 100" style="enable-background:new 0 0 100 100;" xml:space="preserve">
<g>
	<path d="M67,79c-1.3,0-2.7-0.3-3.9-0.9c-0.6,0.7-1.3,1.3-2.1,1.8V89c0,1.4-0.4,2.8-1,3.9h18.5c1,0,1.9-0.8,2-1.8L82.6,72h-5.9
		C74.7,76.3,71.1,79,67,79z"/>
	<path d="M48.3,44.7c0.7,0.4,1.3,0.8,2,1.3h8.1c2.1-3.2,5.2-5,8.6-5s6.5,1.8,8.6,5h10l1.2-11H47.2L48.3,44.7z"/>
	<path d="M89,27H78.2l0.8-4l1.8-9.5l8.8-2.7c1.1-0.3,1.7-1.4,1.3-2.5c-0.3-1-1.4-1.7-2.5-1.3l-10,3c-0.7,0.2-1.3,0.8-1.4,1.6
		L74.9,23l-0.8,4H45c-1.1,0-2,0.9-2,2v2h48v-2C91,27.9,90.1,27,89,27z"/>
	<path d="M72.7,49c-1.3-2.5-3.4-4-5.7-4s-4.3,1.5-5.7,4c-0.4,0.6-1,1-1.8,1h-4.9c3.8,4.3,6.1,9.9,6.3,16.1c2.4,1.4,4,4,4,6.9
		c0,0.5,0,1-0.2,1.5c0.7,0.3,1.4,0.5,2.2,0.5c2.7,0,5.2-2.2,6.4-5.6c0.3-0.8,1-1.4,1.9-1.4H84c0.1,0,0.2,0,0.3,0l2.5-18H74.4
		C73.7,50,73,49.6,72.7,49z"/>
	<path d="M35,45c-11.5,0-20.9,8.8-21.9,20h43.8C55.9,53.8,46.5,45,35,45z M27,55c-1.1,0-2-0.9-2-2c0-1.1,0.9-2,2-2s2,0.9,2,2
		C29,54.1,28.1,55,27,55z M35,61c-1.1,0-2-0.9-2-2c0-1.1,0.9-2,2-2s2,0.9,2,2C37,60.1,36.1,61,35,61z M43,55c-1.1,0-2-0.9-2-2
		c0-1.1,0.9-2,2-2s2,0.9,2,2C45,54.1,44.1,55,43,55z"/>
	<path d="M24.2,88.6C23.9,88.9,23.4,89,23,89c-0.1,0-0.2,0-0.2,0c-0.5-0.1-1-0.3-1.3-0.8L16,81h-3v8c0,2.2,1.8,4,4,4h36
		c2.2,0,4-1.8,4-4v-8H33.7L24.2,88.6z"/>
	<path d="M57,69H13c-2.2,0-4,1.8-4,4c0,2.2,1.8,4,4,4h44c2.2,0,4-1.8,4-4C61,70.8,59.2,69,57,69z"/>
	<polygon points="27.3,81 21,81 23.4,84.2 	"/>
</g>
</svg>
