<?xml version="1.0" encoding="utf-8"?>
<!-- Generator: Adobe Illustrator 21.0.2, SVG Export Plug-In . SVG Version: 6.00 Build 0)  -->
<svg version="1.1" id="Layer_1" xmlns="http://www.w3.org/2000/svg" xmlns:xlink="http://www.w3.org/1999/xlink" x="0px" y="0px"
	 viewBox="0 0 100 100" style="enable-background:new 0 0 100 100;" xml:space="preserve">
<g>
	<path d="M22.7,49.1c-7.8,7.8-7.8,20.5,0,28.3s20.5,7.8,28.3,0s7.8-20.5,0-28.3C43.2,41.3,30.5,41.3,22.7,49.1z M31.9,51.3
		c2-2,5.1-2,7.1,0c2,2,2,5.1,0,7.1c-2,2-5.1,2-7.1,0C29.9,56.4,29.9,53.2,31.9,51.3z M39.7,74.6c-1.6,1.6-4.1,1.6-5.7,0
		s-1.6-4.1,0-5.7s4.1-1.6,5.7,0S41.2,73,39.7,74.6z M49.6,64.7c-0.8,0.8-2,0.8-2.8,0c-0.8-0.8-0.8-2.1,0-2.8c0.8-0.8,2.1-0.8,2.8,0
		C50.3,62.6,50.3,63.9,49.6,64.7z"/>
	<ellipse transform="matrix(0.7071 -0.7071 0.7071 0.7071 -26.5367 86.5023)" cx="91.2" cy="75.3" rx="2" ry="2"/>
	<ellipse transform="matrix(0.7071 -0.7071 0.7071 0.7071 -38.6787 93.1913)" cx="93.2" cy="93.3" rx="2" ry="2"/>
	<ellipse transform="matrix(0.7071 -0.7071 0.7071 0.7071 -47.4653 71.9755)" cx="63.2" cy="93.3" rx="2" ry="2"/>
	<path d="M81.7,60.8c-0.8-0.8-2-0.8-2.8,0L56.6,83.1c-5.3,5.3-12.3,8.2-19.8,8.2S22.3,88.4,17,83.1C6.1,72.2,6.1,54.4,17,43.5
		L51,9.5c0.8-0.8,0.8-2,0-2.8c-0.8-0.8-2-0.8-2.8,0L14.2,40.7c-12.5,12.5-12.5,32.8,0,45.3c6,6,14.1,9.4,22.6,9.4s16.6-3.3,22.6-9.4
		l22.2-22.2C82.5,62.9,82.5,61.6,81.7,60.8z"/>
	<path d="M39.7,35c0.4,0.4,0.9,0.6,1.4,0.6s1-0.2,1.4-0.6l14.1-14.1c0.8-0.8,0.8-2,0-2.8c-0.8-0.8-2-0.8-2.8,0L39.7,32.2
		C38.9,33,38.9,34.2,39.7,35z"/>
	<path d="M62.3,14.4c0.5,0,1-0.2,1.4-0.6l5.7-5.7c0.8-0.8,0.8-2,0-2.8c-0.8-0.8-2-0.8-2.8,0L60.9,11c-0.8,0.8-0.8,2,0,2.8
		C61.3,14.2,61.8,14.4,62.3,14.4z"/>
	<path d="M69.4,22.3c-0.8-0.8-2-0.8-2.8,0L51,37.8c-0.8,0.8-0.8,2,0,2.8c0.4,0.4,0.9,0.6,1.4,0.6s1-0.2,1.4-0.6l15.6-15.6
		C70.1,24.3,70.1,23.1,69.4,22.3z"/>
	<path d="M68,37.8l-8.5,8.5c-0.8,0.8-0.8,2,0,2.8c0.4,0.4,0.9,0.6,1.4,0.6s1-0.2,1.4-0.6l8.5-8.5c0.8-0.8,0.8-2,0-2.8
		C70,37,68.7,37,68,37.8z"/>
	<path d="M75,33.6c0.4,0.4,0.9,0.6,1.4,0.6c0.5,0,1-0.2,1.4-0.6l12.3-12.2c0.8-0.8,0.8-2,0-2.8c-0.8-0.8-2-0.8-2.8,0L75,30.7
		C74.2,31.5,74.2,32.8,75,33.6z"/>
	<path d="M74.4,19.2c0.5,0,1-0.2,1.4-0.6L86.1,8.3c0.8-0.8,0.8-2,0-2.8c-0.8-0.8-2-0.8-2.8,0L73,15.8c-0.8,0.8-0.8,2,0,2.8
		C73.4,19,73.9,19.2,74.4,19.2z"/>
	<path d="M65.1,60.5c0.4,0.4,0.9,0.6,1.4,0.6s1-0.2,1.4-0.6l26.2-26.2c0.8-0.8,0.8-2,0-2.8c-0.8-0.8-2-0.8-2.8,0L65.1,57.6
		C64.3,58.4,64.3,59.7,65.1,60.5z"/>
	<path d="M82.8,84h-3v-3c0-1.1-0.9-2-2-2s-2,0.9-2,2v3h-3c-1.1,0-2,0.9-2,2s0.9,2,2,2h3v3c0,1.1,0.9,2,2,2s2-0.9,2-2v-3h3
		c1.1,0,2-0.9,2-2S83.9,84,82.8,84z"/>
	<ellipse transform="matrix(0.7071 -0.7071 0.7071 0.7071 -19.3848 13.7035)" cx="6.8" cy="30.3" rx="2" ry="2"/>
	<ellipse transform="matrix(0.7071 -0.7071 0.7071 0.7071 -3.1213 6.967)" cx="6.8" cy="7.3" rx="2" ry="2"/>
	<ellipse transform="matrix(0.7071 -0.7071 0.7071 0.7071 5.9584 28.8873)" cx="37.8" cy="7.3" rx="2" ry="2"/>
	<path d="M16.2,19.5h3v3c0,1.1,0.9,2,2,2s2-0.9,2-2v-3h3c1.1,0,2-0.9,2-2s-0.9-2-2-2h-3v-3c0-1.1-0.9-2-2-2s-2,0.9-2,2v3h-3
		c-1.1,0-2,0.9-2,2S15.1,19.5,16.2,19.5z"/>
</g>
</svg>
