<?xml version="1.0" encoding="utf-8"?>
<!-- Generator: Adobe Illustrator 21.0.2, SVG Export Plug-In . SVG Version: 6.00 Build 0)  -->
<svg version="1.1" id="Layer_1" xmlns="http://www.w3.org/2000/svg" xmlns:xlink="http://www.w3.org/1999/xlink" x="0px" y="0px"
	 viewBox="0 0 100 100" style="enable-background:new 0 0 100 100;" xml:space="preserve">
<g>
	<path d="M68.4,44.5c-0.8,0.8-1.6,1.3-2.6,1.7c1.9,2.8,3,6.2,3,9.7c0,4.8-2,9.1-5.1,12.2c-1.2,1.2-2.6,2.2-4.1,3
		c-1.8,1-3.8,1.6-5.9,1.9c-0.2-1.5-1-2.8-2-3.9c-1.3-1.2-3-2-4.9-2c-1.1,0-2.2,0.3-3.2,0.8c-1.4,0.7-2.5,1.9-3.2,3.3l-20.8-5.6
		c-0.2,0-0.3-0.1-0.5-0.1c-0.9,0-1.7,0.6-1.9,1.5c-0.1,0.5-0.1,1.1,0.2,1.5c0.3,0.5,0.7,0.8,1.2,0.9l21.2,5.7v12h-11
		c-1.7,0-3,1.3-3,3c0,1.7,1.3,3,3,3h36c1.7,0,3-1.3,3-3c0-1.7-1.3-3-3-3h-11v-10c4,0,7.8-1.2,11-3.2c1.5-0.9,2.8-2,4-3.2
		c3.7-3.8,6-9,6-14.8c0-5-1.7-9.7-4.9-13.5C69.5,43.1,69,43.9,68.4,44.5z M46.8,77.6c-1.4,0-2.5-1.1-2.5-2.5s1.1-2.5,2.5-2.5
		s2.5,1.1,2.5,2.5S48.1,77.6,46.8,77.6z"/>
	<path d="M65.5,41.7c1.6-1.6,1.6-4.1,0-5.7c-0.8-0.8-1.8-1.2-2.8-1.2s-2.1,0.4-2.8,1.2c-1.6,1.6-1.6,4.1,0,5.7S64,43.2,65.5,41.7z"
		/>
	<path d="M82.3,20.2L69.6,7.5c-0.8-0.8-2.1-0.8-2.8,0c-0.8,0.8-0.8,2,0,2.8l2.8,2.8l-5.7,5.7c-1.6-1.6-4.1-1.6-5.6,0l-17,17L40.5,35
		c-0.8-0.8-2-0.8-2.8,0c-0.8,0.8-0.8,2,0,2.8l2.9,3l-2.8,2.8c-1.6,1.6-1.6,4.1,0,5.6l2.8,2.8c1.6,1.6,4.1,1.6,5.7,0l2.8-2.8l3,3
		c0.4,0.4,0.9,0.6,1.4,0.6c0.5,0,1-0.2,1.4-0.6c0.8-0.8,0.8-2,0-2.8L54,48.5l3.5-3.5c-0.2-0.1-0.4-0.3-0.5-0.5
		c-3.1-3.1-3.1-8.2,0-11.3c1.5-1.5,3.5-2.3,5.7-2.3s4.1,0.8,5.7,2.3c0.2,0.2,0.3,0.3,0.5,0.5l2.2-2.2c1.6-1.6,1.6-4.1,0-5.6l5.7-5.7
		l2.8,2.8c0.4,0.4,0.9,0.6,1.4,0.6c0.5,0,1-0.2,1.4-0.6C83.1,22.3,83.1,21,82.3,20.2z"/>
</g>
</svg>
