<?xml version="1.0" encoding="utf-8"?>
<!-- Generator: Adobe Illustrator 21.0.2, SVG Export Plug-In . SVG Version: 6.00 Build 0)  -->
<svg version="1.1" id="Layer_1" xmlns="http://www.w3.org/2000/svg" xmlns:xlink="http://www.w3.org/1999/xlink" x="0px" y="0px"
	 viewBox="0 0 100 100" style="enable-background:new 0 0 100 100;" xml:space="preserve">
<g>
	<path d="M84.3,18.2l-2.8-2.8l-7.1-7.1l-2.8-2.8c-0.8-0.8-2.1-0.8-2.8,0c-0.8,0.8-0.8,2,0,2.8l1.4,1.4l-4.5,4.5
		c-0.8-0.4-1.7-0.6-2.6-0.6c-1.6,0-3.1,0.6-4.2,1.8l-17,17L40.5,31c-0.8-0.8-2-0.8-2.8,0c-0.8,0.8-0.8,2,0,2.8l2.8,2.8c0,0,0,0,0,0
		l0.7,0.7l-2.8,2.8c-2.3,2.3-2.3,6.2,0,8.5l2.8,2.8c1.2,1.2,2.7,1.8,4.2,1.8c1.5,0,3.1-0.6,4.2-1.8l2.8-2.8l3.5,3.5
		c0.4,0.4,0.9,0.6,1.4,0.6c0.5,0,1-0.2,1.4-0.6c0.8-0.8,0.8-2,0-2.8l-1.4-1.4l3.8-3.8c0.5,0.2,1.1,0.4,1.6,0.6
		c2.4,2.4,3.8,5.8,3.8,9.2c0,6.4-4.6,11.8-10.7,13c-1.6-2.3-4.3-3.8-7.3-3.8c-2.2,0-4.2,0.8-5.7,2.1l-20.4-5.5
		c-3.2-0.9-6.5,1-7.3,4.2c-0.4,1.5-0.2,3.2,0.6,4.5c0.8,1.4,2.1,2.4,3.6,2.8l20.2,5.4v6.4h-8c-3.3,0-6,2.7-6,6s2.7,6,6,6h34
		c3.3,0,6-2.7,6-6s-2.7-6-6-6h-8V79c12.9-1.1,23-12,23-25.1c0-7.1-3-13.8-8.2-18.6c-0.1-0.6-0.3-1.2-0.6-1.8l2.5-2.5
		c1.1-1.1,1.8-2.6,1.8-4.2c0-0.9-0.2-1.8-0.6-2.6l4.5-4.5l1.4,1.4c0.4,0.4,0.9,0.6,1.4,0.6c0.5,0,1-0.2,1.4-0.6
		C85.1,20.3,85.1,19,84.3,18.2z M46.8,48.6c-0.8,0.8-2.1,0.8-2.8,0l-2.8-2.8c-0.8-0.8-0.8-2,0-2.8l2.8-2.8l2.8,2.8l2.8,2.8
		L46.8,48.6z M61.9,39.7c-1.6-1.6-1.6-4.1,0-5.7c0.8-0.8,1.8-1.2,2.8-1.2s2.1,0.4,2.8,1.2c1.6,1.6,1.6,4.1,0,5.7
		C66,41.2,63.4,41.2,61.9,39.7z M43.8,72.1c0-2.8,2.2-5,5-5s5,2.2,5,5v11h-10V72.1z M20.6,67.4c-0.5-0.1-0.9-0.5-1.2-0.9
		c-0.3-0.5-0.3-1-0.2-1.5c0.2-0.9,1.1-1.5,1.9-1.5c0.2,0,0.3,0,0.5,0.1l18.8,5c-0.5,1.1-0.7,2.2-0.7,3.5v0.5L20.6,67.4z M65.8,87.1
		c1.1,0,2,0.9,2,2c0,1.1-0.9,2-2,2h-34c-1.1,0-2-0.9-2-2c0-1.1,0.9-2,2-2H65.8z M76.8,53.9c0,11-8.3,20-19,21.1v-2.9
		c0-0.5,0-1-0.1-1.5c7.5-1.8,13.1-8.6,13.1-16.7c0-3.5-1.1-6.8-3-9.7c0.9-0.4,1.8-1,2.6-1.7c0.7-0.7,1.2-1.4,1.5-2.2
		C75,44.1,76.8,48.9,76.8,53.9z M71.6,28.1l-2.2,2.2c-1.3-1-3-1.5-4.7-1.5c-2.1,0-4.2,0.8-5.7,2.3c-2.8,2.8-3.1,7.2-0.8,10.3
		l-3.6,3.6l-0.7-0.7l-8.5-8.5l-0.7-0.7l17-17c0.8-0.8,2.1-0.8,2.8,0l7.1,7.1c0.4,0.4,0.6,0.9,0.6,1.4C72.2,27.3,72,27.8,71.6,28.1z
		 M73,21.1l-4.2-4.2l4.2-4.2l4.2,4.2L73,21.1z"/>
	<circle cx="48.8" cy="73.1" r="2"/>
</g>
</svg>
