<?xml version="1.0" encoding="utf-8"?>
<!-- Generator: Adobe Illustrator 21.0.2, SVG Export Plug-In . SVG Version: 6.00 Build 0)  -->
<svg version="1.1" id="Layer_1" xmlns="http://www.w3.org/2000/svg" xmlns:xlink="http://www.w3.org/1999/xlink" x="0px" y="0px"
	 viewBox="0 0 100 100" style="enable-background:new 0 0 100 100;" xml:space="preserve">
<g>
	<path d="M67,35.8h-5.4c2.1,0,3.9-1.2,4.7-3.2c1.3-3.3-1.1-6.8-4.6-6.8c-2.8,0-5.4-1.6-6.7-4.1L54,19.8l-1.3,1
		c-1.8,1.4-3.9,2.4-6.1,2.8L42.7,7.7c-0.1-0.5-0.4-1-0.9-1.2c-0.5-0.3-1-0.4-1.5-0.2l-7.8,1.9c-1.1,0.3-1.7,1.4-1.5,2.4
		c0.3,1.1,1.3,1.7,2.4,1.5l5.8-1.4L42.6,24c-3.6,0.9-6,4.8-4.7,8.6c0.7,1.9,2.5,3.2,4.5,3.2H37c-1.1,0-2,0.9-2,2v4c0,1.1,0.9,2,2,2
		h2V57c0,8.3,2.8,16.3,8,22.8l-2.2,4H44c-2.8,0-5,2.2-5,5s2.2,5,5,5h16c2.8,0,5-2.2,5-5s-2.2-5-5-5h-0.8l-2.2-4
		c5.2-6.5,8-14.5,8-22.8V43.8h2c1.1,0,2-0.9,2-2v-4C69,36.7,68.1,35.8,67,35.8z M52,65.8c-3.3,0-6-2.7-6-6s2.7-6,6-6s6,2.7,6,6
		S55.3,65.8,52,65.8z"/>
	<circle cx="52" cy="59.8" r="2"/>
</g>
</svg>
