<?xml version="1.0" encoding="utf-8"?>
<!-- Generator: Adobe Illustrator 21.0.2, SVG Export Plug-In . SVG Version: 6.00 Build 0)  -->
<svg version="1.1" id="Layer_1" xmlns="http://www.w3.org/2000/svg" xmlns:xlink="http://www.w3.org/1999/xlink" x="0px" y="0px"
	 viewBox="0 0 100 100" style="enable-background:new 0 0 100 100;" xml:space="preserve">
<g>
	<path d="M68,32.8h-1.1c0.1-0.1,0.1-0.3,0.2-0.4c0.9-2.2,0.6-4.6-0.7-6.5c-1.3-1.9-3.5-3.1-5.8-3.1c-2.1,0-4-1.2-4.9-3l-0.9-1.9
		c-0.3-0.5-0.8-0.9-1.4-1c-0.6-0.1-1.2,0-1.7,0.4l-1.3,1c-1.5,1.2-3.4,2-5.3,2.4L41.7,6.7c-0.1-0.5-0.4-1-0.9-1.2
		c-0.5-0.3-1-0.4-1.5-0.2l-7.8,1.9c-1.1,0.3-1.7,1.4-1.5,2.4c0.3,1.1,1.3,1.7,2.4,1.5l5.8-1.4l2.8,11.5c-2,0.5-3.7,1.6-4.9,3.3
		c-1.6,2.3-2.1,5.1-1.2,7.8c0.1,0.2,0.2,0.4,0.3,0.6H34c-1.1,0-2,0.9-2,2v8c0,1.1,0.9,2,2,2h2V56c0,8.3,2.7,16.4,7.6,23l-1,1.8
		c-3.7,0.2-6.6,3.3-6.6,7c0,3.9,3.1,7,7,7h16c3.9,0,7-3.1,7-7c0-3.7-2.9-6.8-6.6-7l-1-1.8c4.9-6.6,7.6-14.7,7.6-23V44.8h2
		c1.1,0,2-0.9,2-2v-8C70,33.7,69.1,32.8,68,32.8z M39.5,26.8c0.9-1.2,2.3-1.9,3.8-1.9c3.2,0,6.4-1,9.1-2.9c1.7,3.1,4.8,4.9,8.3,4.9
		c1,0,1.9,0.5,2.5,1.3c0.6,0.8,0.7,1.8,0.3,2.8c-0.5,1.2-1.6,1.9-2.8,1.9H41.4c-1.2,0-2.2-0.8-2.6-1.9C38.3,29.5,38.6,28,39.5,26.8z
		 M59,84.8c1.7,0,3,1.3,3,3c0,1.6-1.3,3-3,3H43c-1.7,0-3-1.4-3-3c0-1.7,1.3-3,3-3h0.8c0.7,0,1.4-0.4,1.7-1l1.7-3h7.7l1.7,3
		c0.3,0.6,1,1,1.7,1H59z M62,56c0,7.5-2.5,14.8-7,20.8h-8c-4.5-6-7-13.3-7-20.8V44.8h22V56z M66,40.8H36v-4h30V40.8z"/>
	<path d="M51,64.8c3.3,0,6-2.7,6-6s-2.7-6-6-6s-6,2.7-6,6S47.7,64.8,51,64.8z M51,56.8c1.1,0,2,0.9,2,2c0,1.1-0.9,2-2,2s-2-0.9-2-2
		C49,57.7,49.9,56.8,51,56.8z"/>
</g>
</svg>
