<?xml version="1.0" encoding="utf-8"?>
<!-- Generator: Adobe Illustrator 23.0.1, SVG Export Plug-In . SVG Version: 6.00 Build 0)  -->
<svg version="1.1" id="Layer_1" xmlns="http://www.w3.org/2000/svg" xmlns:xlink="http://www.w3.org/1999/xlink" x="0px" y="0px"
	 viewBox="0 0 100 100" style="enable-background:new 0 0 100 100;" xml:space="preserve">
<path d="M68.8,45.7L37.5,73.2c-3.4-4.9-5.6-11.6-6.3-18.9l31.3-27.5C65.9,31.7,68.2,38.5,68.8,45.7z M79,50c0,22.6-13,41-29,41
	S21,72.6,21,50S34,9,50,9S79,27.4,79,50z M73,50c0-1.2,0-2.4-0.1-3.6c-0.6-9.4-3.6-17.9-8.5-23.8c0,0,0,0,0,0c0,0,0,0,0,0
	c0,0,0,0,0,0h0c-4.1-5-9.1-7.6-14.3-7.6c-12.7,0-23,15.7-23,35c0,1.2,0,2.4,0.1,3.6c0.6,9.4,3.6,17.9,8.5,23.8c0,0,0,0,0,0
	c2,2.5,4.3,4.4,6.7,5.7c2.4,1.3,5,1.9,7.6,1.9C62.7,85,73,69.3,73,50z M50,81c10.3,0,18.7-13.4,19-30.1L40,76.3
	C42.3,78.7,45.7,81,50,81z M50,19c-10.3,0-18.7,13.4-19,30.1l29-25.4C57.7,21.3,54.3,19,50,19z"/>
</svg>
