<?xml version="1.0" encoding="utf-8"?>
<!-- Generator: Adobe Illustrator 23.0.1, SVG Export Plug-In . SVG Version: 6.00 Build 0)  -->
<svg version="1.1" id="Layer_1" xmlns="http://www.w3.org/2000/svg" xmlns:xlink="http://www.w3.org/1999/xlink" x="0px" y="0px"
	 viewBox="0 0 100 100" style="enable-background:new 0 0 100 100;" xml:space="preserve">
<style type="text/css">
	.st0{fill:#000000;}
</style>
<g>
	<path class="st0" d="M50,5C31.8,5,17,25.2,17,50c0,24.8,14.8,45,33,45s33-20.2,33-45C83,25.2,68.2,5,50,5z M50,91
		c-16,0-29-18.4-29-41S34,9,50,9c16,0,29,18.4,29,41S66,91,50,91z"/>
	<path class="st0" d="M72.9,46.4C72.9,46.4,72.9,46.4,72.9,46.4c-0.6-9.4-3.6-17.9-8.5-23.8c0,0,0,0,0,0c0,0,0,0,0,0c0,0,0,0,0,0
		c0,0,0,0,0,0c-4.1-5-9.1-7.6-14.3-7.6c-12.7,0-23,15.7-23,35c0,1.2,0,2.4,0.1,3.6c0.6,9.4,3.6,17.9,8.5,23.8c0,0,0,0,0,0
		c0,0,0,0,0,0s0,0,0,0c4.1,5,9.1,7.6,14.3,7.6c12.7,0,23-15.7,23-35C73,48.8,73,47.6,72.9,46.4z M37.5,73.2
		c-3.4-4.9-5.6-11.6-6.3-18.9l31.3-27.5c3.4,4.9,5.6,11.6,6.3,18.9L37.5,73.2z M50,19c4.3,0,7.7,2.3,10,4.7L31,49.1
		C31.3,32.4,39.7,19,50,19z M50,81c-4.3,0-7.7-2.3-10-4.7l29-25.4C68.7,67.6,60.3,81,50,81z"/>
</g>
</svg>
