<?xml version="1.0" encoding="utf-8"?>
<!-- Generator: Adobe Illustrator 21.0.2, SVG Export Plug-In . SVG Version: 6.00 Build 0)  -->
<svg version="1.1" id="Layer_1" xmlns="http://www.w3.org/2000/svg" xmlns:xlink="http://www.w3.org/1999/xlink" x="0px" y="0px"
	 viewBox="0 0 100 100" style="enable-background:new 0 0 100 100;" xml:space="preserve">
<g>
	<path d="M83.6,16.4c-11.3-11.3-29.7-11.3-41,0c-7,7-9.7,16.8-8,25.9c0.1,0.6,0.3,1.3,0.4,1.9c0,0,0,0,0,0c-0.7-0.1-1.3-0.1-2-0.2
		c-0.4,0-0.7,0-1.1,0c-6.1,0-12.3,2.3-16.9,7C5.6,60.5,5.6,75.6,15,85c9.4,9.4,24.6,9.4,33.9,0c5-5,7.3-11.5,7-18
		c0-0.7-0.1-1.3-0.2-2c0,0,0,0,0,0l0,0c0.6,0.2,1.3,0.3,1.9,0.4c9.1,1.7,18.8-1,25.8-8C94.9,46.1,94.9,27.8,83.6,16.4z M39.7,78.7
		c-2.4,2.5-5.7,3.8-9.2,3.8c-3.5,0-6.7-1.3-9.2-3.8c-5.1-5.1-5.1-13.3,0-18.4c2.4-2.5,5.7-3.8,9.2-3.8c3.5,0,6.7,1.4,9.2,3.8
		C44.8,65.3,44.8,73.6,39.7,78.7z M73.7,46.1c-2.7,2.7-6.3,4.1-9.9,4.1c-3.6,0-7.2-1.4-9.9-4.1c-2.6-2.7-4.1-6.2-4.1-9.9
		s1.5-7.3,4.1-9.9c5.5-5.5,14.4-5.5,19.8,0C79.1,31.8,79.1,40.7,73.7,46.1z"/>
	<path d="M63.8,26.2c-2.6,0-5.1,1-7.1,2.9c-1.9,1.9-2.9,4.4-2.9,7.1s1,5.2,2.9,7.1c3.9,3.9,10.2,3.9,14.1,0c3.9-3.9,3.9-10.2,0-14.1
		C68.9,27.2,66.3,26.2,63.8,26.2z"/>
	<path d="M30.5,60.5c-2.4,0-4.7,0.9-6.4,2.6c-3.5,3.5-3.5,9.2,0,12.7c1.7,1.7,4,2.6,6.4,2.6c2.4,0,4.7-0.9,6.4-2.6
		c3.5-3.5,3.5-9.2,0-12.7C35.2,61.4,32.9,60.5,30.5,60.5z M31.9,70.9c-0.8,0.8-2,0.8-2.8,0c-0.8-0.8-0.8-2,0-2.8
		c0.8-0.8,2-0.8,2.8,0C32.7,68.8,32.7,70.1,31.9,70.9z"/>
</g>
</svg>
