<?xml version="1.0" encoding="utf-8"?>
<!-- Generator: Adobe Illustrator 21.0.2, SVG Export Plug-In . SVG Version: 6.00 Build 0)  -->
<svg version="1.1" id="Layer_1" xmlns="http://www.w3.org/2000/svg" xmlns:xlink="http://www.w3.org/1999/xlink" x="0px" y="0px"
	 viewBox="0 0 100 100" style="enable-background:new 0 0 100 100;" xml:space="preserve">
<g>
	<path d="M46,33.4c1.6,0,2.9,1.3,2.9,2.9c0,0.6,0.3,1.2,0.7,1.5c0.3,0.3,0.8,0.5,1.3,0.5c1.1,0,2-0.9,2-2c0-3.1-2.1-5.7-4.9-6.6
		v-1.6c0-1.1-0.9-2-2-2s-2,0.9-2,2v1.6c-2.8,0.9-4.9,3.5-4.9,6.6c0,2.8,1.5,5.3,4,6.5l1.5,0.8l2.4,1.2c1.1,0.6,1.8,1.7,1.8,2.9
		c0,1.6-1.3,2.9-2.9,2.9s-2.9-1.3-2.9-2.9c0-0.6-0.3-1.2-0.7-1.5c-0.3-0.3-0.8-0.5-1.3-0.5c-1.1,0-2,0.9-2,2c0,3.1,2.1,5.7,4.9,6.6
		v1.6c0,1.1,0.9,2,2,2s2-0.9,2-2v-1.6c2.8-0.9,4.9-3.5,4.9-6.6c0-2.8-1.5-5.3-4-6.5l-1.5-0.8l-2.4-1.2c-1.1-0.6-1.8-1.7-1.8-2.9
		C43.1,34.7,44.4,33.4,46,33.4z"/>
	<path d="M92.1,60.7c-1.5-1.2-2.5-2.9-2.9-4.7H93c1.1,0,2-0.9,2-2c0-1.1-0.9-2-2-2h-6V23.3c0-2.9-2.4-5.3-5.3-5.3H10.3
		C7.4,18,5,20.4,5,23.3v37.4c0,2.9,2.4,5.3,5.3,5.3H71v10c0,3.3,2.7,6,6,6h12c3.3,0,6-2.7,6-6V64c0-0.6-0.3-1.2-0.7-1.5L92.1,60.7z
		 M78.9,22h2.8c0.7,0,1.3,0.6,1.3,1.3v2.8c-0.2,0-0.3,0-0.4,0c-2,0-3.7-1.7-3.7-3.7C78.9,22.3,78.9,22.2,78.9,22z M9,23.3
		c0-0.7,0.6-1.3,1.3-1.3h2.8c0,0.2,0,0.3,0,0.5c0,2-1.7,3.7-3.7,3.7c-0.2,0-0.3,0-0.4,0V23.3z M13.1,62h-2.8C9.6,62,9,61.4,9,60.7
		v-2.8c0.2,0,0.3-0.1,0.4-0.1c2,0,3.7,1.7,3.7,3.7C13.1,61.7,13.1,61.8,13.1,62z M17.1,62c0-0.2,0-0.3,0-0.4c0-4.2-3.5-7.7-7.7-7.7
		c-0.2,0-0.3,0-0.4,0V30.1c0.2,0,0.3,0,0.4,0c4.2,0,7.7-3.5,7.7-7.7c0-0.1,0-0.3,0-0.5h19.2c-4.7,4.3-7.8,11.7-7.8,20
		c0,8.3,3.1,15.7,7.8,20H17.1z M46,62c-7.4,0-13.5-9-13.5-20c0-11,6-20,13.5-20s13.5,9,13.5,20C59.5,53,53.4,62,46,62z M73.9,60.7
		L72.3,62H55.6c4.7-4.3,7.8-11.7,7.8-20c0-8.3-3.1-15.7-7.8-20h19.2c0,0.2,0,0.3,0,0.5c0,4.2,3.5,7.7,7.7,7.7c0.2,0,0.3,0,0.4,0V52
		H73c-1.1,0-2,0.9-2,2c0,1.1,0.9,2,2,2h3.8C76.3,57.8,75.3,59.5,73.9,60.7z M91,76c0,1.1-0.9,2-2,2H77c-1.1,0-2-0.9-2-2v-4h16V76z
		 M91,68H75v-3.1l1.4-1.2c2.4-2,3.9-4.7,4.4-7.7h4.3c0.5,3,2,5.8,4.4,7.7l1.4,1.2V68z"/>
</g>
</svg>
