<?xml version="1.0" encoding="utf-8"?>
<!-- Generator: Adobe Illustrator 23.0.1, SVG Export Plug-In . SVG Version: 6.00 Build 0)  -->
<svg version="1.1" id="Layer_1" xmlns="http://www.w3.org/2000/svg" xmlns:xlink="http://www.w3.org/1999/xlink" x="0px" y="0px"
	 viewBox="0 0 100 100" style="enable-background:new 0 0 100 100;" xml:space="preserve">
<path d="M74,29.6c0.6-0.6,1-1.3,1.3-2.1c0.5,0,0.9,0,1.4,0c7.1,0,12,3.2,12,6c0,2.4-3.5,5-8.9,5.8l-5.2-8.9
	C74.4,30.1,74.2,29.9,74,29.6z M66.7,19.5l7.8-10h-7.9c-2.2,0-4,1.8-4,4c0,1.1-0.9,2-2,2s-2-0.9-2-2c0-2.2-1.8-4-4-4h-7.9l7.9,10
	H66.7z M87.6,80.4C84,86.7,77.5,90.5,70.3,90.5H43.4c0.2-0.6,0.3-1.3,0.3-2v-2c0-0.7-0.1-1.4-0.3-2h0.3c3.3,0,6-2.7,6-6v-2
	c0-3.3-2.7-6-6-6h-0.3c0.2-0.6,0.3-1.3,0.3-2v-2c0-3.3-2.7-6-6-6h-3.9l16.5-28.1c0.3-0.6,0.9-0.9,1.6-0.9h17.6
	c0.7,0,1.2,0.3,1.6,0.9l16.4,28C91.2,66.6,91.2,74.1,87.6,80.4z M74.6,51.9c-0.5-0.5-1.2-0.7-1.9-0.5l-7.2,1.8l-3.4-3.4
	c-0.8-0.8-2-0.8-2.8,0l-3.4,3.4l-7.2-1.8c-0.7-0.2-1.4,0-1.9,0.5c-0.5,0.5-0.7,1.2-0.5,1.9l4.2,14.6c0.2,0.9,1,1.4,1.9,1.4H69
	c0.9,0,1.7-0.6,1.9-1.4l4.2-14.6C75.3,53.1,75.1,52.4,74.6,51.9z M51.7,23.5c-1.1,0-2,0.9-2,2c0,1.1,0.9,2,2,2h18c1.1,0,2-0.9,2-2
	c0-1.1-0.9-2-2-2H51.7z M37.7,84.5h-26c-1.1,0-2,0.9-2,2v2c0,1.1,0.9,2,2,2h26c1.1,0,2-0.9,2-2v-2C39.7,85.4,38.8,84.5,37.7,84.5z
	 M15.7,76.5v2c0,1.1,0.9,2,2,2h26c1.1,0,2-0.9,2-2v-2c0-1.1-0.9-2-2-2h-26C16.6,74.5,15.7,75.4,15.7,76.5z M11.7,70.5h26
	c1.1,0,2-0.9,2-2v-2c0-1.1-0.9-2-2-2h-26c-1.1,0-2,0.9-2,2v2C9.7,69.6,10.6,70.5,11.7,70.5z M63.5,56.8L60.7,54L58,56.8
	c-0.5,0.5-1.2,0.7-1.9,0.5l-5-1.2l2.8,9.8h13.7l2.8-9.8l-5,1.2C64.7,57.4,64,57.2,63.5,56.8z"/>
</svg>
