<?xml version="1.0" encoding="utf-8"?>
<!-- Generator: Adobe Illustrator 21.0.2, SVG Export Plug-In . SVG Version: 6.00 Build 0)  -->
<svg version="1.1" id="Layer_1" xmlns="http://www.w3.org/2000/svg" xmlns:xlink="http://www.w3.org/1999/xlink" x="0px" y="0px"
	 viewBox="0 0 100 100" style="enable-background:new 0 0 100 100;" xml:space="preserve">
<g>
	<path d="M80,53.5c0,0.5,0.1,1,0.3,1.4h1.4c1.8,0,3.3-1.5,3.3-3.3v-1.6c-0.4-0.2-0.9-0.3-1.3-0.3C81.7,49.8,80,51.5,80,53.5z"/>
	<path d="M76,53.5c0-4.2,3.5-7.7,7.7-7.7c0.4,0,0.9,0.1,1.3,0.1V20c-0.5,0.1-1,0.1-1.4,0.1c-4.2,0-7.7-3.5-7.7-7.7
		c0-0.5,0.1-1,0.2-1.5H53c6.2,3.7,10.5,12.2,10.5,22S59.1,51.3,53,55h23.2C76.1,54.5,76,54,76,53.5z"/>
	<path d="M83.6,16.1c0.5,0,1-0.1,1.4-0.3v-1.6c0-1.8-1.5-3.3-3.3-3.3h-1.6c-0.2,0.5-0.3,1-0.3,1.5C79.9,14.5,81.5,16.1,83.6,16.1z"
		/>
	<path d="M12.1,12.5c0-0.5-0.1-1-0.3-1.5h-1.6C8.5,11,7,12.5,7,14.3v1.6c0.5,0.2,1,0.3,1.4,0.3C10.5,16.1,12.1,14.5,12.1,12.5z"/>
	<path d="M8.4,49.8c-0.5,0-1,0.1-1.4,0.3v1.6c0,1.8,1.5,3.3,3.3,3.3h1.6c0.2-0.5,0.3-1,0.3-1.4C12.1,51.5,10.5,49.8,8.4,49.8z"/>
	<path d="M28.5,33c0-9.8,4.3-18.3,10.5-22H16c0.1,0.5,0.2,1,0.2,1.5c0,4.2-3.5,7.7-7.7,7.7c-0.5,0-1,0-1.4-0.1v26
		c0.5-0.1,1-0.1,1.4-0.1c4.2,0,7.7,3.5,7.7,7.7c0,0.5-0.1,1-0.2,1.4h23C32.9,51.3,28.5,42.8,28.5,33z"/>
	<path d="M59.5,33c0-11-6-20-13.5-20s-13.5,9-13.5,20c0,11,6,20,13.5,20S59.5,44,59.5,33z M44.9,30.2l2.4,1.2l1.5,0.8
		c2.5,1.2,4,3.7,4,6.5c0,3.1-2.1,5.7-4.9,6.6v1.6c0,1.1-0.9,2-2,2s-2-0.9-2-2v-1.6c-2.8-0.9-4.9-3.5-4.9-6.6c0-1.1,0.9-2,2-2
		c0.5,0,0.9,0.2,1.3,0.5c0.4,0.4,0.7,0.9,0.7,1.5c0,1.6,1.3,2.9,2.9,2.9s2.9-1.3,2.9-2.9c0-1.2-0.7-2.4-1.8-2.9l-2.4-1.2l-1.5-0.8
		c-2.5-1.2-4-3.7-4-6.5c0-3.1,2.1-5.7,4.9-6.6v-1.6c0-1.1,0.9-2,2-2s2,0.9,2,2v1.6c2.8,0.9,4.9,3.5,4.9,6.6c0,1.1-0.9,2-2,2
		c-0.5,0-0.9-0.2-1.3-0.5c-0.4-0.4-0.7-0.9-0.7-1.5c0-1.6-1.3-2.9-2.9-2.9s-2.9,1.3-2.9,2.9C43.1,28.5,43.8,29.7,44.9,30.2z"/>
	<path d="M87.2,65H91c1.1,0,2-0.9,2-2c0-1.1-0.9-2-2-2H75c-1.1,0-2,0.9-2,2c0,1.1,0.9,2,2,2h3.8c-0.5,2.4-1.7,4.6-3.6,6.2L73,73v4
		h20v-4l-2.2-1.8C88.9,69.6,87.7,67.4,87.2,65z"/>
	<path d="M73,85c0,2.2,1.8,4,4,4h12c2.2,0,4-1.8,4-4v-4H73V85z"/>
</g>
</svg>
