<?xml version="1.0" encoding="utf-8"?>
<!-- Generator: Adobe Illustrator 23.0.1, SVG Export Plug-In . SVG Version: 6.00 Build 0)  -->
<svg version="1.1" id="Layer_1" xmlns="http://www.w3.org/2000/svg" xmlns:xlink="http://www.w3.org/1999/xlink" x="0px" y="0px"
	 viewBox="0 0 100 100" style="enable-background:new 0 0 100 100;" xml:space="preserve">
<style type="text/css">
	.st0{fill:#000000;}
</style>
<path class="st0" d="M81,67v-2c0-3.3-2.7-6-6-6H64.4C72.5,54.1,78,45.2,78,35C78,19.6,65.4,7,50,7S22,19.6,22,35
	c0,10.2,5.5,19.1,13.6,24H31c-3.3,0-6,2.7-6,6v2c0,0.7,0.1,1.4,0.4,2H25c-3.3,0-6,2.7-6,6v2c0,3.3,2.7,6,6,6h0.4
	c-0.2,0.6-0.4,1.3-0.4,2v2c0,3.3,2.7,6,6,6h44c3.3,0,6-2.7,6-6v-2c0-3.3-2.7-6-6-6h-0.4c0.2-0.6,0.4-1.3,0.4-2v-2
	c0-0.7-0.1-1.4-0.4-2H75C78.3,73,81,70.3,81,67z M26,35c0-13.2,10.8-24,24-24c13.2,0,24,10.8,24,24S63.2,59,50,59
	C36.8,59,26,48.2,26,35z M29,67v-2c0-1.1,0.9-2,2-2h44c1.1,0,2,0.9,2,2v2c0,1.1-0.9,2-2,2h-6H31C29.9,69,29,68.1,29,67z M77,85v2
	c0,1.1-0.9,2-2,2H31c-1.1,0-2-0.9-2-2v-2c0-1.1,0.9-2,2-2h38h6C76.1,83,77,83.9,77,85z M71,75v2c0,1.1-0.9,2-2,2H31h-6
	c-1.1,0-2-0.9-2-2v-2c0-1.1,0.9-2,2-2h6h38C70.1,73,71,73.9,71,75z M63.3,26.1L55,29.5l-3.2-6.4c-0.3-0.7-1-1.1-1.8-1.1
	s-1.5,0.4-1.8,1.1L45,29.5l-8.3-3.3c-0.7-0.3-1.6-0.1-2.1,0.4c-0.6,0.6-0.7,1.4-0.5,2.1l7,18c0.3,0.8,1,1.3,1.9,1.3h14
	c0.8,0,1.6-0.5,1.9-1.3l7-18c0.3-0.7,0.1-1.6-0.5-2.1C64.8,26,64,25.8,63.3,26.1z M55.6,44H44.4l-4.8-12.4l5.7,2.3
	c1,0.4,2.1,0,2.5-1l2.2-4.4l2.2,4.4c0.5,0.9,1.6,1.3,2.5,1l5.7-2.3L55.6,44z"/>
</svg>
