<?xml version="1.0" encoding="utf-8"?>
<!-- Generator: Adobe Illustrator 23.0.1, SVG Export Plug-In . SVG Version: 6.00 Build 0)  -->
<svg version="1.1" id="Layer_1" xmlns="http://www.w3.org/2000/svg" xmlns:xlink="http://www.w3.org/1999/xlink" x="0px" y="0px"
	 viewBox="0 0 100 100" style="enable-background:new 0 0 100 100;" xml:space="preserve">
<style type="text/css">
	.st0{fill:#000000;}
</style>
<path class="st0" d="M91,58.3l-9-15.4c6.3-1.3,10.8-5,10.8-9.5c0-5.6-7-10-16-10c-0.5,0-0.9,0-1.3,0c-0.6-1.8-2-3.1-3.8-3.7
	l8.7-11.1c0.5-0.6,0.6-1.4,0.2-2.1c-0.3-0.7-1-1.1-1.8-1.1h-12c-2.4,0-4.5,1-6,2.7c-1.5-1.7-3.6-2.7-6-2.7h-12
	c-0.8,0-1.5,0.4-1.8,1.1c-0.3,0.7-0.2,1.5,0.2,2.1l8.7,11.1c-2.4,0.8-4.1,3-4.1,5.7c0,1.6,0.6,3.1,1.7,4.1c-0.2,0.2-0.4,0.5-0.5,0.7
	L29.2,60.5H11.7c-3.3,0-6,2.7-6,6v2c0,3.3,2.7,6,6,6H12c-0.2,0.6-0.3,1.3-0.3,2v2c0,0.7,0.1,1.4,0.3,2h-0.3c-3.3,0-6,2.7-6,6v2
	c0,3.3,2.7,6,6,6h58.6c8.7,0,16.5-4.5,20.8-12.1C95.4,74.9,95.4,65.9,91,58.3z M75.3,27.5c0.5,0,0.9,0,1.4,0c7.1,0,12,3.2,12,6
	c0,2.4-3.5,5-8.9,5.8l-5.2-8.9c-0.2-0.2-0.3-0.5-0.5-0.7C74.6,29,75,28.3,75.3,27.5z M46.8,9.5h7.9c2.2,0,4,1.8,4,4c0,1.1,0.9,2,2,2
	s2-0.9,2-2c0-2.2,1.8-4,4-4h7.9l-7.8,10H54.7L46.8,9.5z M51.7,23.5h18c1.1,0,2,0.9,2,2c0,1.1-0.9,2-2,2h-18c-1.1,0-2-0.9-2-2
	C49.7,24.4,50.6,23.5,51.7,23.5z M11.7,70.5c-1.1,0-2-0.9-2-2v-2c0-1.1,0.9-2,2-2h26c1.1,0,2,0.9,2,2v2c0,1.1-0.9,2-2,2H11.7z
	 M43.7,74.5c1.1,0,2,0.9,2,2v2c0,1.1-0.9,2-2,2h-26c-1.1,0-2-0.9-2-2v-2c0-1.1,0.9-2,2-2H43.7z M39.7,88.5c0,1.1-0.9,2-2,2h-26
	c-1.1,0-2-0.9-2-2v-2c0-1.1,0.9-2,2-2h26c1.1,0,2,0.9,2,2V88.5z M87.6,80.4C84,86.7,77.5,90.5,70.3,90.5H43.3c0.2-0.6,0.3-1.3,0.3-2
	v-2c0-0.7-0.1-1.4-0.3-2h0.3c3.3,0,6-2.7,6-6v-2c0-3.3-2.7-6-6-6h-0.3c0.2-0.6,0.3-1.3,0.3-2v-2c0-3.3-2.7-6-6-6h-3.9l16.5-28.1
	c0.3-0.6,0.9-0.9,1.6-0.9h17.6c0.7,0,1.2,0.3,1.6,0.9l16.4,28C91.2,66.6,91.2,74.1,87.6,80.4z M72.7,51.3l-7.2,1.8l-3.4-3.4
	c-0.8-0.8-2-0.8-2.8,0l-3.4,3.4l-7.2-1.8c-0.7-0.2-1.4,0-1.9,0.5c-0.5,0.5-0.7,1.2-0.5,1.9l4.2,14.6c0.2,0.9,1,1.4,1.9,1.4H69
	c0.9,0,1.7-0.6,1.9-1.4l4.2-14.6c0.2-0.7,0-1.4-0.5-1.9C74.1,51.3,73.4,51.1,72.7,51.3z M67.5,65.8H53.9L51.1,56l5,1.2
	c0.7,0.2,1.4,0,1.9-0.5l2.8-2.8l2.8,2.8c0.5,0.5,1.2,0.7,1.9,0.5l5-1.2L67.5,65.8z"/>
</svg>
