<?xml version="1.0" encoding="utf-8"?>
<!-- Generator: Adobe Illustrator 23.0.1, SVG Export Plug-In . SVG Version: 6.00 Build 0)  -->
<svg version="1.1" id="Layer_1" xmlns="http://www.w3.org/2000/svg" xmlns:xlink="http://www.w3.org/1999/xlink" x="0px" y="0px"
	 viewBox="0 0 100 100" style="enable-background:new 0 0 100 100;" xml:space="preserve">
<path d="M77,85v2c0,1.1-0.9,2-2,2H31c-1.1,0-2-0.9-2-2v-2c0-1.1,0.9-2,2-2h44C76.1,83,77,83.9,77,85z M71,77v-2c0-1.1-0.9-2-2-2H25
	c-1.1,0-2,0.9-2,2v2c0,1.1,0.9,2,2,2h44C70.1,79,71,78.1,71,77z M75,63H31c-1.1,0-2,0.9-2,2v2c0,1.1,0.9,2,2,2h44c1.1,0,2-0.9,2-2
	v-2C77,63.9,76.1,63,75,63z M26,35c0-13.2,10.8-24,24-24s24,10.8,24,24c0,13.2-10.8,24-24,24S26,48.2,26,35z M34.1,28.7l7,18
	c0.3,0.8,1,1.3,1.9,1.3h14c0.8,0,1.6-0.5,1.9-1.3l7-18c0.3-0.8,0.1-1.6-0.5-2.2c-0.6-0.6-1.4-0.7-2.1-0.4L55,29.5l-3.2-6.3
	c-0.3-0.7-1-1.1-1.8-1.1s-1.5,0.4-1.8,1.1L45,29.5l-8.3-3.3c-0.7-0.3-1.6-0.1-2.1,0.4C34,27.1,33.8,28,34.1,28.7z M55.6,44l4.8-12.4
	l-5.7,2.3c-1,0.4-2.1,0-2.5-1L50,28.5l-2.2,4.4c-0.5,0.9-1.6,1.3-2.5,1l-5.7-2.3L44.4,44H55.6z"/>
</svg>
