<?xml version="1.0" encoding="utf-8"?>
<!-- Generator: Adobe Illustrator 23.0.1, SVG Export Plug-In . SVG Version: 6.00 Build 0)  -->
<svg version="1.1" id="Layer_1" xmlns="http://www.w3.org/2000/svg" xmlns:xlink="http://www.w3.org/1999/xlink" x="0px" y="0px"
	 viewBox="0 0 100 100" style="enable-background:new 0 0 100 100;" xml:space="preserve">
<path d="M88.7,75c0.3-2.1-0.4-4.3-2-5.8c-2-2-4.8-2.5-7.3-1.6c-0.1-0.2-0.2-0.4-0.4-0.6c12.2-14.9,11.3-37-2.6-50.9
	c-14.8-14.8-38.9-14.8-53.7,0C10.5,28.3,8.4,46.8,16.2,61.2c-2.3,2.2-3.9,5-4.4,8.2c-3.6,1.2-6.2,4.6-6.2,8.6c0,5,4,9,9,9h24.5
	c1.2,4.6,5.3,8,10.3,8h34.5c5.9,0,10.6-4.8,10.6-10.6C94.4,80.4,92.1,76.8,88.7,75z M25.5,19c6.6-6.6,15.3-9.9,24-9.9
	s17.4,3.3,24,9.9c12.2,12.2,13.2,31.6,2.8,44.9c-3.3-3.1-7.7-4.9-12.3-4.9c-7.5,0-14.1,4.7-16.7,11.4c-0.2-0.1-0.3-0.2-0.5-0.3
	c0.2-1.8-0.4-3.5-1.7-4.8c-1.6-1.6-4-2.1-6.1-1.4c-2.7-4.2-7.5-6.9-12.6-6.9c-2.6,0-5,0.7-7.1,1.8C12.7,46,14.8,29.7,25.5,19z
	 M38.8,83H14.6c-2.8,0-5-2.2-5-5c0-2.5,1.9-4.6,4.3-5c0.9-0.1,1.7-0.9,1.7-1.8C16,65.5,20.8,61,26.6,61c4.3,0,8.2,2.5,10,6.4
	c0.3,0.6,0.8,1,1.4,1.1c0.6,0.1,1.3,0,1.7-0.4c0.8-0.7,2-0.6,2.7,0.1c0.6,0.6,0.7,1.5,0.4,2.3c-0.2,0.5-0.3,1.1,0,1.7
	c0.2,0.5,0.7,0.9,1.3,1.1c0.7,0.2,1.4,0.6,1.9,1.1C42.2,75.6,39.4,79,38.8,83z M83.8,91H49.3c-3.7,0-6.6-3-6.6-6.6
	c0-3.3,2.5-6.1,5.7-6.5c0.9-0.1,1.7-0.9,1.7-1.8c0.5-7.3,6.6-13,13.9-13c5.4,0,10.4,3.2,12.7,8.2c0.3,0.6,0.8,1,1.4,1.1
	c0.6,0.1,1.2,0,1.7-0.4c1.2-1,2.9-0.9,4,0.1c0.9,0.9,1.1,2.2,0.6,3.3c-0.2,0.5-0.3,1.1,0,1.7c0.2,0.5,0.7,0.9,1.2,1.1
	c2.8,0.8,4.7,3.4,4.7,6.3C90.4,88,87.5,91,83.8,91z M47.6,33c2.1,0,4.2-0.8,5.7-2.3c1.5-1.5,2.3-3.5,2.3-5.7s-0.8-4.2-2.3-5.7
	c-1.5-1.5-3.5-2.3-5.7-2.3s-4.2,0.8-5.7,2.3c-3.1,3.1-3.1,8.2,0,11.3C43.4,32.2,45.4,33,47.6,33z M44.7,22.2
	c0.8-0.8,1.8-1.2,2.8-1.2s2.1,0.4,2.8,1.2c0.8,0.8,1.2,1.8,1.2,2.8s-0.4,2.1-1.2,2.8c-1.5,1.5-4.2,1.5-5.7,0
	C43.2,26.3,43.2,23.7,44.7,22.2z M31.6,49c2,0,4.1-0.8,5.7-2.3c3.1-3.1,3.1-8.2,0-11.3c-3.1-3.1-8.2-3.1-11.3,0
	c-3.1,3.1-3.1,8.2,0,11.3C27.5,48.2,29.5,49,31.6,49z M28.7,38.2c0.8-0.8,1.8-1.2,2.8-1.2s2,0.4,2.8,1.2c1.6,1.6,1.6,4.1,0,5.7
	c-1.6,1.6-4.1,1.6-5.7,0C27.2,42.3,27.2,39.7,28.7,38.2z M29.6,25c0-1.1,0.9-2,2-2s2,0.9,2,2c0,1.1-0.9,2-2,2S29.6,26.1,29.6,25z
	 M49.6,41c0,1.1-0.9,2-2,2s-2-0.9-2-2c0-1.1,0.9-2,2-2S49.6,39.9,49.6,41z"/>
</svg>
