<?xml version="1.0" encoding="utf-8"?>
<!-- Generator: Adobe Illustrator 23.0.1, SVG Export Plug-In . SVG Version: 6.00 Build 0)  -->
<svg version="1.1" id="Layer_1" xmlns="http://www.w3.org/2000/svg" xmlns:xlink="http://www.w3.org/1999/xlink" x="0px" y="0px"
	 viewBox="0 0 100 100" style="enable-background:new 0 0 100 100;" xml:space="preserve">
<path d="M18,83c2.5,0,4.9,1,6.6,2.9c-0.5,1.7-0.8,3.4-1,5.1H9.1C9.5,86.5,13.4,83,18,83z M45.9,69.1c-6.3-6-9.9-14.3-9.9-22.9V41h-4
	v5.1c0,8.8,3.3,17.3,9.1,23.8C42.6,69.5,44.2,69.2,45.9,69.1z M75,56.2h-4v3.2c0,5.7-2.3,11.1-6.2,15.1c1,0.8,2,1.8,2.9,2.8
	c4.7-4.7,7.4-11.2,7.4-17.9V56.2z M28,33c-2.6,0-4.8,1.7-5.7,4h11.3C32.8,34.7,30.6,33,28,33z M21,19.5c2.2-1.9,2.6-5.1,1.2-7.5
	c-3.5,1.9-6.5,4.6-8.8,7.8C15.7,21.5,18.8,21.4,21,19.5z M9,34c0-3.8,0.9-7.5,2.4-10.7C13.1,24.4,15,25,17,25c2.4,0,4.8-0.8,6.7-2.5
	c3.5-3.1,4.2-8.1,2.2-12.1C28.4,9.5,31.2,9,34,9c13.5,0,24.6,10.8,25,24.3c-1.3,1.1-2.5,2.4-3.5,3.7H37.8c-0.9-4.6-5-8-9.8-8
	s-8.9,3.4-9.8,8H12C10.3,37,9,35.6,9,34z M37,24c0,3.9,3.1,7,7,7s7-3.1,7-7s-3.1-7-7-7S37,20.1,37,24z M67.4,44.8
	c3.1-3.4,3.4-8.2,1.2-12c1.4-0.4,2.9-0.6,4.5-0.6c9.9,0,18,8.1,18,18c0,1.1-0.9,2-2,2H57c-1.1,0-2-0.9-2-2c0-1.2,0.1-2.3,0.3-3.4
	c1.5,0.8,3.1,1.2,4.7,1.2C62.7,48,65.4,46.9,67.4,44.8z M77,45c0,1.1,0.9,2,2,2s2-0.9,2-2c0-1.1-0.9-2-2-2S77,43.9,77,45z
	 M64.4,42.1c2-2.2,2.1-5.5,0.3-7.8c-3.6,1.9-6.5,4.9-8.1,8.6C59,44.6,62.4,44.3,64.4,42.1z M44,27c1.7,0,3-1.4,3-3c0-1.7-1.3-3-3-3
	s-3,1.3-3,3C41,25.6,42.3,27,44,27z M49.5,73h-2c-10.3,0-18.9,7.9-19.9,18H65c0.2-2.6,1-5,2.3-7C64,77.3,57.1,73,49.5,73z M80,81
	c-5.7,0-10.5,4.4-11,10H91C90.5,85.4,85.7,81,80,81z"/>
</svg>
