<?xml version="1.0" encoding="utf-8"?>
<!-- Generator: Adobe Illustrator 21.0.2, SVG Export Plug-In . SVG Version: 6.00 Build 0)  -->
<svg version="1.1" id="Layer_1" xmlns="http://www.w3.org/2000/svg" xmlns:xlink="http://www.w3.org/1999/xlink" x="0px" y="0px"
	 viewBox="0 0 100 100" style="enable-background:new 0 0 100 100;" xml:space="preserve">
<g>
	<path d="M56,31c3.9,0,7-3.1,7-7s-3.1-7-7-7s-7,3.1-7,7S52.1,31,56,31z M56,21c1.7,0,3,1.3,3,3c0,1.6-1.3,3-3,3s-3-1.4-3-3
		C53,22.3,54.3,21,56,21z"/>
	<path d="M80,77c-0.4,0-0.8,0-1.3,0.1l-1.1-4.9c-2.1-9.5-3-19.3-2.8-29.1L75,41h13c3.9,0,7-3.1,7-7C95,18,82,5,66,5
		C51.1,5,38.8,16.3,37.2,30.7c-3-1.6-6.5-2.5-10.2-2.5c-12.1,0-22,9.9-22,22c0,3.3,2.7,6,6,6h7.7c-0.1,7.4-1,14.9-2.6,22.1
		c-0.1,0.3-0.1,0.6,0,0.8C9.8,80.1,5,85.5,5,92v1c0,1.1,0.9,2,2,2h86c1.1,0,2-0.9,2-2v-1C95,83.7,88.3,77,80,77z M66.3,37
		c0.8-2.3,3-4,5.7-4s4.8,1.7,5.7,4H66.3z M61.1,43L61,41H71l-0.1,2c-0.3,10.1,0.7,20.2,2.9,30l1.1,4.9c-1.8,0.6-3.3,1.6-4.7,2.8
		c-2.7-4.5-6.7-7.9-11.4-9.9C60.5,61.7,61.3,52.3,61.1,43z M77.8,12c3.5,1.9,6.5,4.6,8.8,7.8c-0.9,0.7-2,1.1-3.2,1.2
		c-1.6,0.1-3.1-0.5-4.3-1.5c-1.2-1.1-1.9-2.5-2-4.1C76.9,14.1,77.2,13,77.8,12z M66,9c2.8,0,5.6,0.5,8.2,1.4
		c-0.8,1.6-1.2,3.4-1.1,5.2c0.1,2.7,1.3,5.1,3.3,6.9c1.9,1.7,4.3,2.5,6.7,2.5c2,0,3.9-0.6,5.6-1.7C90.1,26.5,91,30.2,91,34
		c0,1.6-1.3,3-3,3h-6.2c-0.9-4.6-5-8-9.8-8s-8.9,3.4-9.8,8H44.6c-1-1.4-2.2-2.6-3.5-3.7C41.4,19.8,52.5,9,66,9z M47,41H57l0.1,2.1
		c0.2,8.9-0.5,17.8-2.2,26.5c-1.7-0.4-3.5-0.6-5.4-0.6h-2c-4,0-7.8,1-11.2,2.8C35.5,66.6,35,61.4,35,56.2h8c3.3,0,6-2.7,6-6
		C49,46.9,48.3,43.8,47,41z M35.3,34.3c3.6,1.9,6.5,4.9,8.1,8.6c-2.4,1.7-5.8,1.4-7.8-0.8C33.6,39.8,33.5,36.5,35.3,34.3z
		 M13.8,52.2H11c-1.1,0-2-0.9-2-2c0-9.9,8.1-18,18-18c1.5,0,3,0.2,4.5,0.6c-2.2,3.7-1.9,8.6,1.2,12c2,2.1,4.7,3.2,7.4,3.2
		c1.6,0,3.2-0.4,4.7-1.2c0.2,1.1,0.3,2.2,0.3,3.4c0,1.1-0.9,2-2,2H26.2c0.5-1,0.8-2.1,0.8-3.2c0-3.9-3.1-7-7-7s-7,3.1-7,7
		C13,50.2,13.3,51.3,13.8,52.2z M17,49c0-1.7,1.3-3,3-3s3,1.3,3,3c0,1.6-1.3,3-3,3S17,50.6,17,49z M23.6,91H9.1c0.5-4.5,4.3-8,8.9-8
		c2.5,0,4.9,1,6.6,2.9C24.1,87.5,23.7,89.2,23.6,91z M20,79.2c1.7-7.5,2.6-15.2,2.7-23H31c0.1,6,0.7,12,1.7,17.9
		c-2.7,2.1-4.9,4.8-6.5,7.8C24.4,80.5,22.2,79.5,20,79.2z M65,91H27.6c1-10.1,9.6-18,19.9-18h2c7.6,0,14.5,4.3,17.8,11
		C66,86,65.2,88.4,65,91z M69,91c0.5-5.6,5.2-10,11-10s10.5,4.4,11,10H69z"/>
</g>
</svg>
