<?xml version="1.0" encoding="utf-8"?>
<!-- Generator: Adobe Illustrator 23.0.1, SVG Export Plug-In . SVG Version: 6.00 Build 0)  -->
<svg version="1.1" id="Layer_1" xmlns="http://www.w3.org/2000/svg" xmlns:xlink="http://www.w3.org/1999/xlink" x="0px" y="0px"
	 viewBox="0 0 100 100" style="enable-background:new 0 0 100 100;" xml:space="preserve">
<style type="text/css">
	.st0{fill:#000000;}
</style>
<path class="st0" d="M44,31c3.9,0,7-3.1,7-7s-3.1-7-7-7s-7,3.1-7,7S40.1,31,44,31z M44,21c1.7,0,3,1.3,3,3s-1.3,3-3,3s-3-1.3-3-3
	S42.3,21,44,21z M80,77c-3.8,0-7.2,1.4-9.9,3.7c-0.7-1.2-1.6-2.4-2.5-3.5c4.7-4.7,7.4-11.2,7.4-17.9v-3.1h14c3.3,0,6-2.7,6-6
	c0-12.1-9.9-22-22-22c-3.7,0-7.1,0.9-10.2,2.5C61.2,16.3,48.9,5,34,5C18,5,5,18,5,34c0,3.9,3.1,7,7,7h20v5.1
	c0,8.8,3.3,17.3,9.1,23.7c-6.5,1.8-11.8,6.2-14.9,12.1C23.9,80.1,21,79,18,79c-7.2,0-13,5.8-13,13v1c0,1.1,0.9,2,2,2h18.5H29h38h4.5
	H93c1.1,0,2-0.9,2-2v-1C95,83.7,88.3,77,80,77z M91,50.2c0,1.1-0.9,2-2,2H57c-1.1,0-2-0.9-2-2c0-1.2,0.1-2.3,0.3-3.4
	c1.5,0.8,3.1,1.2,4.7,1.2c2.7,0,5.4-1.1,7.4-3.2c3.1-3.4,3.4-8.2,1.2-12c1.4-0.4,2.9-0.6,4.5-0.6C82.9,32.2,91,40.3,91,50.2z
	 M64.7,34.3c1.8,2.3,1.8,5.6-0.3,7.8c-2.1,2.2-5.4,2.5-7.8,0.8C58.2,39.2,61.1,36.2,64.7,34.3z M22.2,12c1.4,2.4,1,5.6-1.2,7.5
	c-2.2,1.9-5.3,2-7.6,0.3C15.7,16.6,18.7,13.9,22.2,12z M9,34c0-3.8,0.9-7.5,2.4-10.7C13.1,24.4,15,25,17,25c2.4,0,4.8-0.8,6.7-2.5
	c3.5-3.1,4.3-8.1,2.2-12.1C28.4,9.5,31.1,9,34,9c13.5,0,24.6,10.8,25,24.3c-1.3,1.1-2.5,2.3-3.6,3.7H37.8c-0.9-4.6-5-8-9.8-8
	s-8.9,3.4-9.8,8H12C10.3,37,9,35.7,9,34z M22.4,37c0.8-2.3,3-4,5.6-4s4.8,1.7,5.6,4H22.4z M36,46.1V41h17c-1.3,2.8-2,5.9-2,9.2
	c0,3.3,2.7,6,6,6h14v3.1c0,5.7-2.3,11.1-6.2,15.1C60.5,71,55.2,69,49.5,69h-2c-0.5,0-1.1,0-1.6,0.1C39.6,63.1,36,54.8,36,46.1z
	 M18,83c2.5,0,4.9,1,6.6,2.9c-0.5,1.6-0.8,3.4-1,5.1H9.1C9.6,86.5,13.4,83,18,83z M27.6,91c1-10.1,9.5-18,19.9-18h2
	c7.6,0,14.5,4.3,17.8,11c-1.3,2.1-2.1,4.4-2.3,7H29H27.6z M71.5,91H69c0.2-2.1,1-4,2.1-5.6c0-0.1,0.1-0.1,0.1-0.2
	c2-2.6,5.2-4.3,8.7-4.3c5.7,0,10.4,4.4,11,10H71.5z M77,45c0-1.1,0.9-2,2-2s2,0.9,2,2c0,1.1-0.9,2-2,2S77,46.1,77,45z"/>
</svg>
