<?xml version="1.0" encoding="utf-8"?>
<!-- Generator: Adobe Illustrator 21.0.2, SVG Export Plug-In . SVG Version: 6.00 Build 0)  -->
<svg version="1.1" id="Layer_1" xmlns="http://www.w3.org/2000/svg" xmlns:xlink="http://www.w3.org/1999/xlink" x="0px" y="0px"
	 viewBox="0 0 100 100" style="enable-background:new 0 0 100 100;" xml:space="preserve">
<g>
	<path d="M23.7,82c-1.1-0.9-2.3-1.5-3.7-1.8c-0.7-0.2-1.3-0.2-2-0.2c-5,0-9,4-9,9v1h14.6c0.2-2.3,0.7-4.5,1.5-6.5
		C24.7,82.9,24.2,82.4,23.7,82z"/>
	<path d="M32.7,73.1c-1.1-6.2-1.7-12.6-1.7-18.9H43c2.2,0,4-1.8,4-4c0-1.7-0.2-3.3-0.6-4.8C44.8,46.5,42.9,47,41,47
		c-2.7,0-5.4-1.1-7.4-3.2c-3.3-3.6-3.5-8.9-0.7-12.7c-1.9-0.6-3.9-0.9-5.9-0.9c-11,0-20,9-20,20c0,1.1,0.5,2.1,1.2,2.8
		c0.7,0.7,1.7,1.2,2.8,1.2h11.7c-0.1,7.4-0.8,14.8-2.3,22c2.5,0.5,4.8,1.6,6.6,3.4C28.5,77.1,30.4,74.9,32.7,73.1z M18,50
		c-2.8,0-5-2.2-5-5s2.2-5,5-5s5,2.2,5,5S20.8,50,18,50z"/>
	<path d="M49.5,72h-2c-10.3,0-18.9,7.9-19.9,18H65c0.2-2.6,1-5,2.3-7C64,76.3,57.1,72,49.5,72z"/>
	<path d="M80,80c-5.7,0-10.5,4.4-11,10H91C90.5,84.4,85.7,80,80,80z"/>
	<path d="M91.9,27.2c-0.7-2.5-1.8-4.8-3.2-6.9c-0.1,0.1-0.1,0.2-0.2,0.3c-2,2.2-4.7,3.3-7.5,3.3c-2.4,0-4.8-0.8-6.7-2.5
		c-2-1.8-3.2-4.2-3.3-6.9c-0.1-2.1,0.4-4,1.4-5.8C70.4,8.3,68.2,8,66,8C51.3,8,39.4,19.7,39,34.3c-0.7-0.5-1.5-1-2.2-1.5
		c-2.2,2.2-2.4,5.9-0.2,8.3c2.2,2.4,6,2.6,8.4,0.4c-0.2-0.5-0.5-1-0.8-1.5H61l0.1,2c0.2,9.3-0.6,18.7-2.4,27.8
		c1.4,0.6,2.8,1.3,4.1,2.2c3,2,5.5,4.6,7.4,7.7c1.4-1.2,3-2.2,4.7-2.8L73.8,72c0,0,0,0,0,0c-2.2-9.8-3.1-19.9-2.9-30l0.1-2h2.4
		c0.5-4.7,4.3-8.6,9.2-9c2.7-0.2,5.2,0.6,7.3,2.4c1.2,1,2.1,2.3,2.7,3.7c0.3-0.6,0.5-1.3,0.5-2.1C93,32.3,92.6,29.7,91.9,27.2z
		 M60,31c-2.8,0-5-2.2-5-5s2.2-5,5-5s5,2.2,5,5S62.8,31,60,31z"/>
	<path d="M89.2,39.8c-0.2-1.3-0.9-2.5-2-3.4c-1.2-1-2.8-1.5-4.4-1.4c-2.8,0.2-5,2.3-5.4,5H88C88.4,40,88.8,39.9,89.2,39.8z"/>
	<path d="M77,18.5c1.2,1.1,2.7,1.6,4.3,1.5c1.6-0.1,3.1-0.8,4.1-2c0.3-0.3,0.6-0.5,1-0.6c-2.7-3.1-6.1-5.7-10-7.3
		c-1,1.2-1.5,2.7-1.4,4.2C75.1,15.9,75.8,17.4,77,18.5z"/>
</g>
</svg>
