<?xml version="1.0" encoding="utf-8"?>
<!-- Generator: Adobe Illustrator 21.0.2, SVG Export Plug-In . SVG Version: 6.00 Build 0)  -->
<svg version="1.1" id="Layer_1" xmlns="http://www.w3.org/2000/svg" xmlns:xlink="http://www.w3.org/1999/xlink" x="0px" y="0px"
	 viewBox="0 0 100 100" style="enable-background:new 0 0 100 100;" xml:space="preserve">
<g>
	<path d="M49.5,25.9c0.9-0.3,1.9-0.3,2.8-0.3l-2.6-8.4c-0.4-1.3-1.4-2.3-2.7-2.7c-1.3-0.4-2.7-0.1-3.7,0.8L10.3,44.1
		c-1.1,1-1.6,2.4-1.3,3.9c0.3,1.4,1.3,2.6,2.8,3l23,6.9c0.1-0.5,0.2-0.9,0.4-1.3L44,31C44.9,28.5,46.9,26.6,49.5,25.9z M16.9,47.6
		c-1.1,0-2-0.9-2-2c0-1.1,0.9-2,2-2s2,0.9,2,2C18.9,46.7,18,47.6,16.9,47.6z M26.9,37.6c0-1.1,0.9-2,2-2s2,0.9,2,2c0,1.1-0.9,2-2,2
		S26.9,38.7,26.9,37.6z M30.9,51.6c-1.1,0-2-0.9-2-2c0-1.1,0.9-2,2-2s2,0.9,2,2C32.9,50.7,32,51.6,30.9,51.6z M38.9,29.6
		c-1.1,0-2-0.9-2-2c0-1.1,0.9-2,2-2s2,0.9,2,2C40.9,28.7,40,29.6,38.9,29.6z"/>
	<path d="M89.7,65.8l-6.1-5.2c-0.1,3-2.1,5.7-5.1,6.5c-3.7,1-7.6-1.2-8.6-4.9l-0.3-1c-0.1-0.5-0.5-0.9-0.9-1.2
		c-0.5-0.3-1-0.3-1.5-0.2s-0.9,0.5-1.2,0.9c-0.3,0.5-0.3,1-0.2,1.5l1.6,5.8c0.9,3.2-1,6.5-4.2,7.4c-0.5,0.2-1.1,0.2-1.6,0.2
		c-2.6,0-5-1.8-5.8-4.4l-2.7-9.6c-0.1-0.5-0.5-0.9-0.9-1.2c-0.5-0.3-1-0.3-1.5-0.2c-1.1,0.3-1.7,1.4-1.4,2.5l0.3,1
		c1,3.7-1.2,7.6-4.9,8.6c-1.7,0.5-3.5,0.2-5-0.5L37,80.5c-0.4,1.4-0.1,2.9,1,4c1,1.1,2.5,1.5,3.9,1.1l46.2-12.8
		c1.5-0.4,2.5-1.5,2.8-3C91.3,68.3,90.8,66.8,89.7,65.8z"/>
	<path d="M50.5,29.8c-1.3,0.4-2.3,1.3-2.7,2.5L39,57.8c-0.5,1.5-0.6,3.2-0.1,4.7l1,3.8c0.4,1.6,2.1,2.5,3.7,2.1
		c1.6-0.4,2.5-2.1,2.1-3.7l-0.3-1c-0.9-3.2,1-6.5,4.2-7.4c0.5-0.1,1.1-0.2,1.6-0.2c1,0,2,0.3,3,0.8c1.4,0.8,2.4,2.1,2.8,3.6l2.7,9.6
		c0.3,1.1,1.4,1.7,2.5,1.4c1.1-0.3,1.7-1.4,1.4-2.5l-0.3-0.9c0,0,0,0,0,0l-1.1-3.9c0,0,0,0,0,0l-0.2-0.9c-0.9-3.2,1-6.5,4.2-7.4
		c1.5-0.4,3.2-0.2,4.6,0.6c1.4,0.8,2.4,2.1,2.8,3.6l0.3,1c0.2,0.8,0.7,1.4,1.4,1.8c0.7,0.4,1.5,0.5,2.3,0.3c1.6-0.4,2.5-2.1,2.1-3.7
		l-2.1-7.6c-0.4-1.6-1.3-3-2.6-4L54.2,30.6C53.1,29.7,51.8,29.4,50.5,29.8z"/>
</g>
</svg>
