<?xml version="1.0" encoding="utf-8"?>
<!-- Generator: Adobe Illustrator 21.0.2, SVG Export Plug-In . SVG Version: 6.00 Build 0)  -->
<svg version="1.1" id="Layer_1" xmlns="http://www.w3.org/2000/svg" xmlns:xlink="http://www.w3.org/1999/xlink" x="0px" y="0px"
	 viewBox="0 0 100 100" style="enable-background:new 0 0 100 100;" xml:space="preserve">
<g>
	<path d="M92.3,62.8L82.1,54l-0.9-3.2c-0.7-2.3-2-4.4-3.8-6L57.1,27.8L53.5,16c-0.8-2.6-2.8-4.6-5.5-5.3c-2.6-0.8-5.4-0.1-7.5,1.7
		L7.7,41.1c-2.2,1.9-3.2,4.8-2.6,7.7c0.6,2.9,2.7,5.1,5.5,6l24,7.1c0.1,0.6,0.2,1.1,0.3,1.7l1,3.8c0.1,0.4,0.2,0.8,0.4,1.1
		l-3.2,10.8c-0.9,2.8-0.1,5.8,1.9,7.9c1.5,1.6,3.6,2.4,5.7,2.4c0.7,0,1.5-0.1,2.2-0.3l46.2-12.8c2.9-0.8,5-3.1,5.7-5.9
		C95.5,67.7,94.5,64.7,92.3,62.8z M54.2,30.6l20.7,17.4c1.2,1,2.1,2.4,2.6,4l2.1,7.6c0.4,1.6-0.5,3.2-2.1,3.7
		c-0.8,0.2-1.6,0.1-2.3-0.3c-0.7-0.4-1.2-1-1.4-1.8l-0.3-1c-0.4-1.5-1.4-2.8-2.8-3.6c-1.4-0.8-3-1-4.6-0.6c-3.2,0.9-5.1,4.2-4.2,7.4
		l0.2,0.9c0,0,0,0,0,0l1.1,3.9c0,0,0,0,0,0l0.3,0.9c0.3,1.1-0.3,2.2-1.4,2.5c-1.1,0.3-2.2-0.3-2.5-1.4L57,60.6
		c-0.4-1.5-1.4-2.8-2.8-3.6c-0.9-0.5-1.9-0.8-3-0.8c-0.5,0-1.1,0.1-1.6,0.2c-3.2,0.9-5.1,4.2-4.2,7.4l0.3,1c0.4,1.6-0.5,3.2-2.1,3.7
		c-1.6,0.4-3.2-0.5-3.7-2.1l-1-3.8c-0.4-1.6-0.4-3.2,0.1-4.7l8.8-25.5c0.4-1.3,1.4-2.2,2.7-2.5C51.8,29.4,53.1,29.7,54.2,30.6z
		 M35.2,56.5c-0.2,0.4-0.3,0.9-0.4,1.3l-23-6.9c-1.4-0.4-2.5-1.5-2.8-3c-0.3-1.4,0.2-2.9,1.3-3.9l32.9-28.8c1-0.9,2.4-1.2,3.7-0.8
		c1.3,0.4,2.3,1.3,2.7,2.7l2.6,8.4c-0.9-0.1-1.9,0-2.8,0.3c-2.5,0.7-4.6,2.6-5.4,5.1L35.2,56.5z M90.9,69.7c-0.3,1.5-1.4,2.6-2.8,3
		L41.9,85.5c-1.4,0.4-2.9,0-3.9-1.1c-1-1-1.4-2.5-1-4l2.6-8.7c1.5,0.8,3.3,1,5,0.5c3.7-1,5.9-4.9,4.9-8.6l-0.3-1
		c-0.3-1.1,0.3-2.2,1.4-2.5c0.5-0.1,1.1-0.1,1.5,0.2c0.5,0.3,0.8,0.7,0.9,1.2l2.7,9.6c0.7,2.7,3.2,4.4,5.8,4.4
		c0.5,0,1.1-0.1,1.6-0.2c3.2-0.9,5.1-4.2,4.2-7.4l-1.6-5.8c-0.1-0.5-0.1-1.1,0.2-1.5c0.3-0.5,0.7-0.8,1.2-0.9s1.1-0.1,1.5,0.2
		c0.5,0.3,0.8,0.7,0.9,1.2l0.3,1c1,3.7,4.9,5.9,8.6,4.9c3-0.8,5-3.5,5.1-6.5l6.1,5.2C90.8,66.8,91.3,68.3,90.9,69.7z"/>
	<circle cx="30.9" cy="49.6" r="2"/>
	<circle cx="16.9" cy="45.6" r="2"/>
	<circle cx="28.9" cy="37.6" r="2"/>
	<circle cx="38.9" cy="27.6" r="2"/>
</g>
</svg>
