<?xml version="1.0" encoding="utf-8"?>
<!-- Generator: Adobe Illustrator 23.0.1, SVG Export Plug-In . SVG Version: 6.00 Build 0)  -->
<svg version="1.1" id="Layer_1" xmlns="http://www.w3.org/2000/svg" xmlns:xlink="http://www.w3.org/1999/xlink" x="0px" y="0px"
	 viewBox="0 0 100 100" style="enable-background:new 0 0 100 100;" xml:space="preserve">
<path d="M43,42.2C28.7,39,18,26.2,18,11c0-1.1,0.9-2,2-2s2,0.9,2,2c0,13.4,9.5,24.6,22,27.3c-0.7,1.1-1,2.3-1,3.7V42.2z M80,9
	c-1.1,0-2,0.9-2,2c0,13.4-9.5,24.6-22,27.3c0.7,1.1,1,2.3,1,3.7v0.2C71.3,39,82,26.2,82,11C82,9.9,81.1,9,80,9z M53,47.3V42
	c0-1.7-1.3-3-3-3s-3,1.3-3,3v5.3C49,46.9,51,46.9,53,47.3z M63,61.1c2.6,6.1,2.6,13.7,0,19.9c-0.7,1.6-1.6,3.1-2.6,4.4
	c-1,1.2-2.1,2.4-3.3,3.2c-4.5,3.2-9.8,3.2-14.2,0c-1.2-0.9-2.4-2-3.3-3.2c-1-1.3-1.8-2.8-2.6-4.4c-2.6-6.1-2.6-13.7,0-19.9
	c0.7-1.7,1.6-3.1,2.6-4.4c1-1.2,2.1-2.3,3.3-3.2c4.5-3.2,9.8-3.2,14.2,0c1.2,0.9,2.4,2,3.3,3.2C61.4,57.9,62.3,59.4,63,61.1z
	 M55.3,63c-1.8-3.5-4.1-4-5.3-4s-3.6,0.5-5.3,4c-2.2,4.5-2.2,11.5,0,15.9c1.8,3.5,4.1,4,5.3,4c1.2,0,3.6-0.5,5.3-4
	C57.6,74.5,57.6,67.5,55.3,63z M50,63c-0.4,0-1.1,0.6-1.8,1.8c-1.7,3.3-1.7,9,0,12.4c0.6,1.3,1.3,1.8,1.8,1.8s1.1-0.6,1.8-1.8
	c1.7-3.4,1.7-9,0-12.4C51.1,63.6,50.4,63,50,63z"/>
</svg>
