<?xml version="1.0" encoding="utf-8"?>
<!-- Generator: Adobe Illustrator 23.0.1, SVG Export Plug-In . SVG Version: 6.00 Build 0)  -->
<svg version="1.1" id="Layer_1" xmlns="http://www.w3.org/2000/svg" xmlns:xlink="http://www.w3.org/1999/xlink" x="0px" y="0px"
	 viewBox="0 0 100 100" style="enable-background:new 0 0 100 100;" xml:space="preserve">
<style type="text/css">
	.st0{fill:#000000;}
</style>
<path class="st0" d="M82,9c0-1.1-0.9-2-2-2s-2,0.9-2,2c0,13.4-9.5,24.6-22,27.3c-1.2-2-3.4-3.3-6-3.3s-4.7,1.3-6,3.3
	C31.5,33.6,22,22.4,22,9c0-1.1-0.9-2-2-2s-2,0.9-2,2c0,15.2,10.7,28,25,31.2v6.5c-0.8,0.4-1.7,0.9-2.5,1.5c-1.5,1.1-2.9,2.5-4.1,4
	c-1.2,1.5-2.2,3.3-3.1,5.3c-3.1,7.1-3.1,15.9,0,23v0c0.8,2,1.9,3.7,3.1,5.3c1.2,1.6,2.6,2.9,4.1,4c2.9,2.1,6.2,3.2,9.5,3.2
	s6.5-1.1,9.5-3.2c1.5-1.1,2.9-2.5,4.1-4c1.2-1.5,2.2-3.3,3.1-5.3c3.1-7.1,3.1-15.9,0-23c-0.8-2-1.9-3.7-3.1-5.3
	c-1.2-1.6-2.6-2.9-4.1-4c-0.8-0.6-1.6-1.1-2.5-1.5v-6.5C71.3,37,82,24.2,82,9z M47,40c0-1.7,1.3-3,3-3s3,1.3,3,3v5.3
	c-2-0.4-4-0.4-6,0V40z M57.1,51.4c1.2,0.9,2.4,2,3.3,3.2c1,1.3,1.8,2.8,2.6,4.4c2.6,6.1,2.6,13.7,0,19.9c-0.7,1.6-1.6,3.1-2.6,4.4
	c-1,1.2-2.1,2.4-3.3,3.2c-4.5,3.2-9.8,3.2-14.2,0c-1.2-0.9-2.4-2-3.3-3.2c-1-1.3-1.8-2.8-2.6-4.4c-2.6-6.1-2.6-13.7,0-19.9
	c0.7-1.7,1.6-3.1,2.6-4.4c1-1.2,2.1-2.3,3.3-3.2C47.3,48.2,52.7,48.2,57.1,51.4z M44.7,61c-2.2,4.5-2.2,11.5,0,15.9
	c1.8,3.5,4.1,4,5.3,4c1.2,0,3.6-0.5,5.3-4c2.2-4.5,2.2-11.5,0-15.9c-1.8-3.5-4.1-4-5.3-4S46.4,57.5,44.7,61z M51.8,62.8
	c1.7,3.3,1.7,9,0,12.4C51.1,76.4,50.4,77,50,77s-1.1-0.6-1.8-1.8c-1.7-3.4-1.7-9,0-12.4c0.6-1.3,1.3-1.8,1.8-1.8
	S51.1,61.6,51.8,62.8z"/>
</svg>
