<?xml version="1.0" encoding="utf-8"?>
<!-- Generator: Adobe Illustrator 21.0.2, SVG Export Plug-In . SVG Version: 6.00 Build 0)  -->
<svg version="1.1" id="Layer_1" xmlns="http://www.w3.org/2000/svg" xmlns:xlink="http://www.w3.org/1999/xlink" x="0px" y="0px"
	 viewBox="0 0 100 100" style="enable-background:new 0 0 100 100;" xml:space="preserve">
<path d="M94,64.3l-13.1-7.5C80,56.3,79,56,77.9,56h-2.6l2.2-2.6c0.8-1,1.3-2.2,1.4-3.4h6c1.1,0,2-0.9,2-2c0-1.1-0.9-2-2-2h-6v-4h4
	c1.1,0,2-0.9,2-2c0-1.1-0.9-2-2-2h-4v-2c0-2-1-3.7-2.4-4.8c1.1-2.7,1.4-5.6,0.9-8.2c-0.6-3.2-2.3-5.6-4.9-6.8
	c-2.5-1.2-5.5-1-8.3,0.6c-0.7,0.4-1.3,0.8-1.9,1.3c-1.5-4.8-5.1-8.1-9.3-8.1c-4.4,0-8.1,3.7-9.5,8.8c-0.1,0-0.2-0.1-0.3-0.2
	c-2.9-1.4-5.8-1.5-8.3-0.2c-3.8,2-5.4,6.9-4.3,11.9c-1.1,0.5-2,1.2-2.6,2.1L25.4,32c-1.1-0.2-2.1,0.5-2.4,1.5
	c-0.2,1.1,0.5,2.1,1.6,2.4l2.4,0.5V40h-4c-1.1,0-2,0.9-2,2c0,1.1,0.9,2,2,2h4v5.5c0,1.4,0.5,2.8,1.4,3.9l2,2.4l-23-5.8
	c-0.9-0.2-1.9,0.2-2.3,1.1c-0.4,0.9-0.1,1.9,0.7,2.5l21.2,14.2L8,78.2c-1,0.5-1.3,1.8-0.8,2.7c0.4,0.7,1,1,1.8,1
	c0.3,0,0.7-0.1,1-0.2l4.5-2.4L13,87.7c-0.2,1.1,0.5,2.1,1.6,2.3c0.1,0,0.2,0,0.3,0c1,0,1.8-0.7,2-1.7l1.9-11.4L31.6,70
	c0.2,0,0.4,0,0.6,0h44.9c0.6,0,1.2,0.3,1.5,0.7l12.8,15.5c0.4,0.5,0.9,0.7,1.5,0.7c0.2,0,0.5,0,0.7-0.1c0.8-0.3,1.3-1,1.3-1.9V66
	C95,65.3,94.6,64.6,94,64.3z M61.6,25.5c1.1-2.3,2.7-4.1,4.6-5.1c1-0.6,2-0.8,2.9-0.8c0.6,0,1.2,0.1,1.7,0.4c1.3,0.6,2.3,2,2.6,3.9
	c0.4,1.9,0.1,4.1-0.8,6.3H60.5C60.5,28.5,60.9,27,61.6,25.5z M73,34c1.1,0,2,0.9,2,2v2h-7c-0.6,0-1.1,0.2-1.5,0.7L64,41.5l-3.8-3
	c-0.3-0.2-0.6-0.4-1-0.4l-14.9-2l-9.6-2H73z M71,46c-0.1,0-0.2,0-0.3,0l-6.4,1.1l4.6-5.1H75v4H71z M74.9,50
	c-0.1,0.3-0.2,0.6-0.4,0.8L70.1,56H35.9l-3.4-4H59c0.1,0,0.2,0,0.3,0l11.8-2H74.9z M53.1,14c3,0,5.6,3.5,6,7.9
	c-0.4,0.6-0.7,1.2-1,1.8c-1,2-1.5,4.2-1.5,6.2h-4.9c-0.3-1.6-0.8-3.2-1.6-4.7c-0.8-1.4-1.7-2.7-2.8-3.8C47.6,17.3,50.1,14,53.1,14z
	 M36.8,22c0.6-0.3,1.2-0.5,2-0.5c0.9,0,1.8,0.2,2.7,0.7c1.9,0.9,3.6,2.7,4.8,4.9c0.5,0.9,0.8,1.9,1.1,2.8H34.7
	C33.8,26.5,34.6,23.2,36.8,22z M31,37.3L43.6,40c0,0,0.1,0,0.1,0l14.4,1.9l3.2,2.5l-2.9,3.3l-22.8-7.6C35.4,40,35.2,40,35,40h-4
	V37.3z M31,44h3.7l12,4H31V44z M91,79.4l-9.3-11.2c-1.1-1.4-2.8-2.2-4.6-2.2H32.2c-0.4,0-0.8-0.1-1.1-0.3l-13.4-8.9L30,59.8
	c0.5,0.1,1,0.2,1.5,0.2h46.5c0.3,0,0.7,0.1,1,0.3L91,67.2V79.4z"/>
</svg>
