<?xml version="1.0" encoding="utf-8"?>
<!-- Generator: Adobe Illustrator 21.0.2, SVG Export Plug-In . SVG Version: 6.00 Build 0)  -->
<svg version="1.1" id="Layer_1" xmlns="http://www.w3.org/2000/svg" xmlns:xlink="http://www.w3.org/1999/xlink" x="0px" y="0px"
	 viewBox="0 0 100 100" style="enable-background:new 0 0 100 100;" xml:space="preserve">
<g>
	<path d="M70.7,42.3c0.1,0,0.2,0,0.3,0h6v-4h-8.1l-4.6,5.1L70.7,42.3z"/>
	<path d="M35.6,36.4l4,1.3L58.4,44l2.9-3.3l-2-1.6l-1.1-0.9l-4.9-0.6l-1.6-0.2l-8-1.1c0,0-0.1,0-0.1,0L29,33.2v3.1h6
		C35.2,36.3,35.4,36.3,35.6,36.4z"/>
	<path d="M46.7,44.3l-12-4H29v4.3c0.3-0.2,0.6-0.3,1-0.3H46.7z"/>
	<path d="M59.3,34.3c0.4,0.1,0.7,0.2,1,0.4L63,37l1,0.8l0.8-0.8l1.8-2c0.4-0.4,0.9-0.7,1.5-0.7h9v-2c0-2.2-1.8-4-4-4h-3.2
		c1.7-5.3,0.2-10.7-3.7-12.2c-4.1-1.7-9.3,1.6-11.5,7.2c-0.7,1.7-1,3.4-1,5h-0.1c-0.3-1.2-0.7-2.5-1.4-3.7c-2.8-5.4-8.3-8.1-12.2-6
		c-3,1.6-4.2,5.5-3.3,9.7H33c-1,0-2,0.4-2.7,1.1l14.1,3L59.3,34.3z"/>
	<path d="M79.9,54.8c-0.6-0.3-1.3-0.5-2-0.5H71l5-5.9c0.5-0.6,0.8-1.3,0.9-2.1h-5.8l-11.8,2c-0.1,0-0.2,0-0.3,0H30c0,0-0.1,0-0.1,0
		c0,0,0.1,0.1,0.1,0.1l5,5.9h-3.5c-0.3,0-0.6,0-1-0.1L7,48.3L27.5,62L8,72.6c-1,0.5-1.3,1.8-0.8,2.7c0.4,0.7,1,1,1.8,1
		c0.3,0,0.7-0.1,1-0.2l4.5-2.4L13,82c-0.2,1.1,0.5,2.1,1.6,2.3c0.1,0,0.2,0,0.3,0c1,0,1.8-0.7,2-1.7l1.9-11.4l12.7-6.9
		c0.2,0,0.4,0,0.6,0h44.9c1.2,0,2.3,0.5,3.1,1.5L93,81.3v-19L79.9,54.8z"/>
</g>
</svg>
