<?xml version="1.0" encoding="utf-8"?>
<!-- Generator: Adobe Illustrator 21.0.2, SVG Export Plug-In . SVG Version: 6.00 Build 0)  -->
<svg version="1.1" id="Layer_1" xmlns="http://www.w3.org/2000/svg" xmlns:xlink="http://www.w3.org/1999/xlink" x="0px" y="0px"
	 viewBox="0 0 100 100" style="enable-background:new 0 0 100 100;" xml:space="preserve">
<g>
	<path d="M53.2,49.2C44.1,36.7,44,20.4,51.5,7.9C46.8,9,42.1,11,37.9,14C23.2,24.6,18.5,43.9,25.7,59.8c1.6-1.3,3.7-2.1,5.9-2.1
		c0.1,0,0.2,0,0.3,0c0.1,0,0.2,0,0.3,0c3.1,0,6,1.6,7.7,4.1c1.4-0.8,3.1-1.2,4.7-1.1c0.1,0,0.2,0,0.3,0c4.6,0,8.4,3.4,9.1,7.8
		c3.6,1.3,6.2,4.7,6.2,8.7c0,1.7-0.5,3.3-1.3,4.7c7.9,0.2,16-2.1,22.9-7.1c4.2-3,7.6-6.8,10.1-11C77.7,67.1,62.2,61.8,53.2,49.2z"/>
	<path d="M51.7,72c-1-0.2-1.7-1-1.7-2c0,0,0-0.1,0-0.2c0-2.8-2.4-5.2-5.3-5.2l-0.2,0c0,0-0.1,0-0.1,0l-0.2,0c0,0,0,0,0,0
		c-1.5,0-2.8,0.6-3.8,1.5c-0.5,0.5-1.2,0.7-1.9,0.5s-1.2-0.7-1.4-1.4c-0.7-2.2-2.7-3.7-5-3.7l-0.2,0h-0.2l-0.1,0c0,0,0,0,0,0
		c-2.2,0-4.2,1.4-5,3.4c-0.2,0.6-0.7,1.1-1.4,1.2c-0.6,0.2-1.3,0-1.8-0.4c-1-0.8-2.1-1.2-3.4-1.2l-0.2,0c0,0-0.1,0-0.1,0l-0.2,0
		c0,0,0,0,0,0c-2.9,0-5.3,2.4-5.3,5.3V70c0,1-0.7,1.8-1.7,2c-2.5,0.4-4.4,2.6-4.4,5.2c0,2.3,1.5,4.3,3.7,5c0.7,0.2,1.2,0.8,1.3,1.4
		c0.8,3.2,3.6,5.4,6.9,5.4c1.2,0,2.4-0.3,3.5-0.9c0.3-0.2,0.6-0.2,1-0.2c0.7,0,1.3,0.3,1.7,0.9c1.3,2.1,3.5,3.3,6,3.3
		c2.5,0,4.8-1.3,6.1-3.5c0.3-0.5,0.7-0.8,1.3-0.9c0.5-0.1,1.1,0,1.5,0.3c1.1,0.7,2.5,1.1,3.8,1.1c3.3,0,6.2-2.4,6.9-5.6
		c0.1-0.6,0.6-1.2,1.2-1.4c1.9-0.8,3.2-2.7,3.2-4.8C56.1,74.6,54.3,72.4,51.7,72z"/>
	<path d="M78.1,26.8l2,4.4l2-4.4c1-2.2,2.8-4,5-5l4.4-2l-4.4-2c-2.2-1-4-2.8-5-5l-2-4.4l-2,4.4c-1,2.2-2.8,4-5,5l-4.4,2l4.4,2
		C75.4,22.9,77.1,24.6,78.1,26.8z"/>
	<path d="M58.1,34.9h1v1c0,1.1,0.9,2,2,2s2-0.9,2-2v-1h1c1.1,0,2-0.9,2-2s-0.9-2-2-2h-1v-1c0-1.1-0.9-2-2-2s-2,0.9-2,2v1h-1
		c-1.1,0-2,0.9-2,2S57,34.9,58.1,34.9z"/>
	<path d="M77.1,53.9c1.1,0,2-0.9,2-2v-1h1c1.1,0,2-0.9,2-2s-0.9-2-2-2h-1v-1c0-1.1-0.9-2-2-2s-2,0.9-2,2v1h-1c-1.1,0-2,0.9-2,2
		s0.9,2,2,2h1v1C75.1,53,76,53.9,77.1,53.9z"/>
</g>
</svg>
