<?xml version="1.0" encoding="utf-8"?>
<!-- Generator: Adobe Illustrator 21.0.2, SVG Export Plug-In . SVG Version: 6.00 Build 0)  -->
<svg version="1.1" id="Layer_1" xmlns="http://www.w3.org/2000/svg" xmlns:xlink="http://www.w3.org/1999/xlink" x="0px" y="0px"
	 viewBox="0 0 100 100" style="enable-background:new 0 0 100 100;" xml:space="preserve">
<g>
	<path d="M89,51H65v-6.4c2.3-0.8,4-3,4-5.6v-2c0-3.3-2.7-6-6-6H51c-3.3,0-6,2.7-6,6v2c0,2.6,1.7,4.8,4,5.6V51h-7.7L39,30.9V25
		c0-3.3-2.7-6-6-6H17c-3.3,0-6,2.7-6,6v5.9L5,82.8c0,0.1,0,0.2,0,0.2v6c0,3.3,2.7,6,6,6h78c3.3,0,6-2.7,6-6V57
		C95,53.7,92.3,51,89,51z M15,25c0-1.1,0.9-2,2-2h16c1.1,0,2,0.9,2,2v4H15V25z M14.8,33h20.4l5.5,48H9.2L14.8,33z M41,89
		c0,1.1-0.9,2-2,2H11c-1.1,0-2-0.9-2-2v-4h32V89z M49,37c0-1.1,0.9-2,2-2h12c1.1,0,2,0.9,2,2v2c0,1.1-0.9,2-2,2H51c-1.1,0-2-0.9-2-2
		V37z M61,45v6h-8v-6H61z M91,89c0,1.1-0.9,2-2,2H44.7c0.2-0.6,0.3-1.3,0.3-2v-6c0-0.1,0-0.2,0-0.2L41.8,55H89c1.1,0,2,0.9,2,2V89z"
		/>
	<path d="M31.1,67.2L27,64.1V59c0-1.1-0.9-2-2-2s-2,0.9-2,2v5.1l-4.1,3.2c-0.9,0.7-1,1.9-0.3,2.8c0.4,0.5,1,0.8,1.6,0.8
		c0.4,0,0.9-0.1,1.2-0.4l3.6-2.8l3.6,2.8c0.4,0.3,0.8,0.4,1.2,0.4c0.6,0,1.2-0.3,1.6-0.8C32.1,69.2,31.9,67.9,31.1,67.2z"/>
	<path d="M83,61H51c-1.1,0-2,0.9-2,2v14c0,1.1,0.9,2,2,2h32c1.1,0,2-0.9,2-2V63C85,61.9,84.1,61,83,61z M71,75H53V65h18V75z M81,75
		h-6V65h6V75z"/>
	<path d="M25,15c1.1,0,2-0.9,2-2c0-2.2,1.8-4,4-4h12c1.1,0,2-0.9,2-2s-0.9-2-2-2H31c-4.4,0-8,3.6-8,8C23,14.1,23.9,15,25,15z"/>
	<path d="M51,9h12c1.1,0,2-0.9,2-2s-0.9-2-2-2H51c-1.1,0-2,0.9-2,2S49.9,9,51,9z"/>
	<path d="M71,9h8c1.1,0,2-0.9,2-2s-0.9-2-2-2h-8c-1.1,0-2,0.9-2,2S69.9,9,71,9z"/>
	<path d="M55,25c0,1.1,0.9,2,2,2s2-0.9,2-2c0-2.2,1.8-4,4-4h6c1.1,0,2-0.9,2-2s-0.9-2-2-2h-6C58.6,17,55,20.6,55,25z"/>
	<path d="M75,19c0,1.1,0.9,2,2,2h8c1.1,0,2-0.9,2-2s-0.9-2-2-2h-8C75.9,17,75,17.9,75,19z"/>
	<circle cx="93" cy="19" r="2"/>
	<circle cx="87" cy="7" r="2"/>
</g>
</svg>
