<?xml version="1.0" encoding="utf-8"?>
<!-- Generator: Adobe Illustrator 21.0.2, SVG Export Plug-In . SVG Version: 6.00 Build 0)  -->
<svg version="1.1" id="Layer_1" xmlns="http://www.w3.org/2000/svg" xmlns:xlink="http://www.w3.org/1999/xlink" x="0px" y="0px"
	 viewBox="0 0 100 100" style="enable-background:new 0 0 100 100;" xml:space="preserve">
<g>
	<path d="M77,87h-2V59h-7.3C64.8,66,58,71,50,71s-14.8-5-17.7-12H25v28h-2c-1.1,0-2,0.9-2,2v2c0,1.1,0.9,2,2,2h54c1.1,0,2-0.9,2-2
		v-2C79,87.9,78.1,87,77,87z"/>
	<path d="M77,11H41V9c0-1.1-0.9-2-2-2h-6c-1.1,0-2,0.9-2,2v2h-8c-1.1,0-2,0.9-2,2v2c0,1.1,0.9,2,2,2h2v28h7.3C35.2,38,42,33,50,33
		s14.8,5,17.7,12H75V17h2c1.1,0,2-0.9,2-2v-2C79,11.9,78.1,11,77,11z"/>
	<path d="M77,49h-8.3c0.2,1,0.3,2,0.3,3c0,1-0.1,2-0.3,3H77c1.1,0,2-0.9,2-2v-2C79,49.9,78.1,49,77,49z"/>
	<path d="M23,55h8.3c-0.2-1-0.3-2-0.3-3c0-1,0.1-2,0.3-3H23c-1.1,0-2,0.9-2,2v2C21,54.1,21.9,55,23,55z"/>
	<path d="M50,67c8.3,0,15-6.7,15-15c0-8.3-6.7-15-15-15s-15,6.7-15,15C35,60.3,41.7,67,50,67z M43.6,49.5l4.8-6.7
		c0.4-0.5,1-0.8,1.6-0.8s1.2,0.3,1.6,0.8l4.8,6.7c2.3,3.2,1.9,7.5-0.8,10.2C54,61.2,52,62,50,62s-4-0.8-5.6-2.3
		C41.7,56.9,41.3,52.6,43.6,49.5z"/>
	<path d="M52.8,56.9c1.4-1.4,1.5-3.5,0.4-5L50,47.4l-3.2,4.4c-1.1,1.6-1,3.7,0.4,5C48.8,58.4,51.2,58.4,52.8,56.9z"/>
</g>
</svg>
