<?xml version="1.0" encoding="utf-8"?>
<!-- Generator: Adobe Illustrator 21.0.2, SVG Export Plug-In . SVG Version: 6.00 Build 0)  -->
<svg version="1.1" id="Layer_1" xmlns="http://www.w3.org/2000/svg" xmlns:xlink="http://www.w3.org/1999/xlink" x="0px" y="0px"
	 viewBox="0 0 100 100" style="enable-background:new 0 0 100 100;" xml:space="preserve">
<g>
	<path d="M83,21v-2c0-3.3-2.7-6-6-6H45v-2c0-3.3-2.7-6-6-6h-4c-3.3,0-6,2.7-6,6v2h-6c-3.3,0-6,2.7-6,6v2c0,3.3,2.7,6,6,6v20
		c-3.3,0-6,2.7-6,6v2c0,3.3,2.7,6,6,6v20c-3.3,0-6,2.7-6,6v2c0,3.3,2.7,6,6,6h54c3.3,0,6-2.7,6-6v-2c0-3.3-2.7-6-6-6V61
		c3.3,0,6-2.7,6-6v-2c0-3.3-2.7-6-6-6V27C80.3,27,83,24.3,83,21z M33,11c0-1.1,0.9-2,2-2h4c1.1,0,2,0.9,2,2v2h-8V11z M21,55v-2
		c0-1.1,0.9-2,2-2h8.3c-0.2,1-0.3,2-0.3,3c0,1,0.1,2,0.3,3H23C21.9,57,21,56.1,21,55z M50,73c8,0,14.8-5,17.7-12H73v20H27V61h5.3
		C35.2,68,42,73,50,73z M35,54c0-8.3,6.7-15,15-15s15,6.7,15,15c0,8.3-6.7,15-15,15S35,62.3,35,54z M50,35c-8,0-14.8,5-17.7,12H27
		V27h46v20h-5.3C64.8,40,58,35,50,35z M79,87v2c0,1.1-0.9,2-2,2H23c-1.1,0-2-0.9-2-2v-2c0-1.1,0.9-2,2-2h54C78.1,85,79,85.9,79,87z
		 M79,53v2c0,1.1-0.9,2-2,2h-8.3c0.2-1,0.3-2,0.3-3c0-1-0.1-2-0.3-3H77C78.1,51,79,51.9,79,53z M23,23c-1.1,0-2-0.9-2-2v-2
		c0-1.1,0.9-2,2-2h54c1.1,0,2,0.9,2,2v2c0,1.1-0.9,2-2,2H23z"/>
	<path d="M50,64c2,0,4-0.8,5.6-2.3c2.8-2.8,3.1-7,0.8-10.2l-4.8-6.7c-0.4-0.5-1-0.8-1.6-0.8s-1.2,0.3-1.6,0.8l-4.8,6.7
		c-2.3,3.2-1.9,7.5,0.8,10.2C46,63.2,48,64,50,64z M46.8,53.8l3.2-4.4l3.2,4.4c1.1,1.6,1,3.7-0.4,5c-1.5,1.5-4,1.5-5.5,0
		C45.9,57.5,45.7,55.4,46.8,53.8z"/>
</g>
</svg>
