<?xml version="1.0" encoding="utf-8"?>
<!-- Generator: Adobe Illustrator 21.0.2, SVG Export Plug-In . SVG Version: 6.00 Build 0)  -->
<svg version="1.1" id="Layer_1" xmlns="http://www.w3.org/2000/svg" xmlns:xlink="http://www.w3.org/1999/xlink" x="0px" y="0px"
	 viewBox="0 0 100 100" style="enable-background:new 0 0 100 100;" xml:space="preserve">
<path d="M77.8,20.7c-0.1-0.6-0.5-1.1-1-1.4l-8.9-4.6c-0.8-0.4-1.9-0.2-2.5,0.5c-3.1,3.9-5.9,8-8.5,12.2V7c0-1.1-0.9-2-2-2H45
	c-1.1,0-2,0.9-2,2v20.5c-2.5-4.2-5.3-8.3-8.5-12.2c-0.6-0.8-1.6-1-2.5-0.5l-8.9,4.6c-0.5,0.3-0.9,0.8-1,1.4c-0.1,0.6,0,1.2,0.4,1.7
	c7.9,9.9,13.8,21.1,17.7,33.1l-3.9,4.6c-5.9,7.1-5.4,17.3,1.1,23.8c2.8,2.8,6.4,4.6,10.3,5C47.4,90.1,46.3,91,45,91h-2
	c-1.1,0-2,0.9-2,2c0,1.1,0.9,2,2,2h2c2,0,3.7-0.8,5-2.1c1.3,1.3,3,2.1,5,2.1h2c1.1,0,2-0.9,2-2c0-1.1-0.9-2-2-2h-2
	c-1.3,0-2.4-0.9-2.8-2.1c3.9-0.5,7.5-2.2,10.3-5c6.5-6.5,7-16.8,1.1-23.8l-3.9-4.6c3.9-12,9.8-23.2,17.7-33.1
	C77.8,21.9,78,21.3,77.8,20.7z M47,9h6v25.9c-1.1,2.2-2.1,4.4-3,6.6c-0.9-2.2-1.9-4.5-3-6.6V9z M27.2,21.8l5.3-2.7
	c6.5,8.4,11.6,17.6,15.2,27.5l-4.4,5.3C39.5,41,34.1,30.9,27.2,21.8z M40.3,81.1c-5-5-5.4-13-0.8-18.4l4.4-5.2
	c-2.4,9.1-1.5,18.7,2.6,27.2C44.2,84,42,82.8,40.3,81.1z M50.3,83.3c-4.6-9.2-5-20-0.9-29.6l0.9-2.2l0.9,2.2
	C55.2,63.3,54.8,74.1,50.3,83.3z M60.5,62.6c4.6,5.5,4.2,13.4-0.8,18.4c-1.6,1.6-3.5,2.7-5.5,3.4C58,76.3,59,67,56.9,58.3L60.5,62.6
	z M56.7,51.8l-4-4.8l-0.3-0.7c3.7-9.8,8.7-19,15.2-27.3l5.3,2.7C65.9,30.9,60.5,41,56.7,51.8z"/>
</svg>
