<?xml version="1.0" encoding="utf-8"?>
<!-- Generator: Adobe Illustrator 21.0.2, SVG Export Plug-In . SVG Version: 6.00 Build 0)  -->
<svg version="1.1" id="Layer_1" xmlns="http://www.w3.org/2000/svg" xmlns:xlink="http://www.w3.org/1999/xlink" x="0px" y="0px"
	 viewBox="0 0 100 100" style="enable-background:new 0 0 100 100;" xml:space="preserve">
<path d="M57.5,55.9c3.9-12.6,10.2-24.4,18.4-34.8L67,16.5v0c-4.7,5.9-8.7,12.2-12,18.9V7H45v28.4c-3.3-6.7-7.3-13-12-18.9v0
	l-8.9,4.6c8.2,10.4,14.5,22.1,18.4,34.8L38,61.4c-5.2,6.2-4.8,15.4,1,21.1l0,0c2.5,2.5,5.7,4,8.9,4.4C47.4,88.1,46.3,89,45,89h-2
	c-1.1,0-2,0.9-2,2s0.9,2,2,2h2c2,0,3.7-0.8,5-2.1c1.3,1.3,3,2.1,5,2.1h2c1.1,0,2-0.9,2-2s-0.9-2-2-2h-2c-1.3,0-2.4-0.9-2.8-2.1
	c3.3-0.5,6.4-1.9,8.9-4.4l0,0c5.7-5.7,6.2-14.9,1-21.1L57.5,55.9z"/>
</svg>
