<?xml version="1.0" encoding="utf-8"?>
<!-- Generator: Adobe Illustrator 21.0.2, SVG Export Plug-In . SVG Version: 6.00 Build 0)  -->
<svg version="1.1" id="Layer_1" xmlns="http://www.w3.org/2000/svg" xmlns:xlink="http://www.w3.org/1999/xlink" x="0px" y="0px"
	 viewBox="0 0 100 100" style="enable-background:new 0 0 100 100;" xml:space="preserve">
<g>
	<path d="M94,65.1c-0.2,0-0.4-0.1-0.6-0.2l-12.8-6.7l-11.4,3.7c-0.8,0.4-1.8,0.3-2.4-0.3l-7.1-7.1c-0.5-0.5-0.7-1.3-0.5-2l2.2-6.8
		c0.2-0.6,0.7-1.1,1.4-1.3l7-1.8l-0.5-4.3C68.2,38.1,67.1,38,66,38c-9.4,0-17.7,4.6-22.8,11.7l9.3,5.9c0.5,0.3,0.8,0.8,0.9,1.3
		c0.1,0.5,0,1.1-0.4,1.6l-2.2,2.9l4,5.5l7.5,2.2c0.5,0.2,1,0.5,1.2,1c0.2,0.5,0.3,1.1,0.1,1.6L59.8,82c-0.2,0.5-0.6,1-1.1,1.2
		l-10.9,4.2C52.7,91.5,59.1,94,66,94c0.3,0,0.6,0,0.9,0l2.5-16.8c0.1-0.7,0.6-1.3,1.3-1.6L82,71.4c0.3-0.1,0.7-0.2,1.1-0.1l10,2
		c0.6-2.3,0.9-4.7,0.9-7.2C94,65.7,94,65.4,94,65.1z"/>
	<path d="M66,30c1.1,0,2-0.9,2-2s-0.9-2-2-2C44,26,26,44,26,66c0,1.1,0.9,2,2,2s2-0.9,2-2C30,46.2,46.2,30,66,30z"/>
	<path d="M82.9,75.3l-9.7,3.6l-2.1,14.1L71,93.6c9.4-1.7,17.1-8,20.8-16.5l-0.6-0.1L82.9,75.3z"/>
	<path d="M63.4,52.5l5.4,5.3l11.4-3.7c0.5-0.2,1.1-0.1,1.5,0.1l8.9,4.7l2.8,1.5C91.3,50,83.5,41.8,73.4,39l0,0.4l0.5,4.3
		c0.1,1-0.5,1.9-1.5,2.2l-7.6,2L63.4,52.5z"/>
	<path d="M59.2,72.5l-6.1-1.8c-0.4-0.1-0.8-0.4-1-0.8l-5.3-7.3c-0.5-0.7-0.5-1.7,0-2.4l1.8-2.4l-6.8-4.3l-0.7-0.4
		C39.2,57,38,61.4,38,66c0,6.9,2.5,13.3,6.7,18.2l0.4-0.2l11.3-4.3L59.2,72.5z"/>
	<path d="M35,33v-8c0-1.1-0.9-2-2-2s-2,0.9-2,2v3.2L9.4,6.6c-0.8-0.8-2-0.8-2.8,0c-0.8,0.8-0.8,2,0,2.8L28.2,31H25c-1.1,0-2,0.9-2,2
		s0.9,2,2,2h8C34.1,35,35,34.1,35,33z"/>
	<path d="M21,37c-1.1,0-2,0.9-2,2v3.2l-9.7-9.7c-0.8-0.8-2-0.8-2.8,0c-0.8,0.8-0.8,2,0,2.8l9.7,9.7H13c-1.1,0-2,0.9-2,2s0.9,2,2,2h8
		c1.1,0,2-0.9,2-2v-8C23,37.9,22.1,37,21,37z"/>
	<path d="M42.2,19H39c-1.1,0-2,0.9-2,2s0.9,2,2,2h8c1.1,0,2-0.9,2-2v-8c0-1.1-0.9-2-2-2s-2,0.9-2,2v3.2l-9.7-9.7
		c-0.8-0.8-2-0.8-2.8,0c-0.8,0.8-0.8,2,0,2.8L42.2,19z"/>
</g>
</svg>
