<?xml version="1.0" encoding="utf-8"?>
<!-- Generator: Adobe Illustrator 21.0.2, SVG Export Plug-In . SVG Version: 6.00 Build 0)  -->
<svg version="1.1" id="Layer_1" xmlns="http://www.w3.org/2000/svg" xmlns:xlink="http://www.w3.org/1999/xlink" x="0px" y="0px"
	 viewBox="0 0 100 100" style="enable-background:new 0 0 100 100;" xml:space="preserve">
<g>
	<path d="M65,35c-16.5,0-30,13.5-30,30c0,16.5,13.5,30,30,30s30-13.5,30-30C95,48.5,81.6,35,65,35z M72.9,42.7l-0.4-2.6
		c8.7,2.6,15.4,9.6,17.7,18.5l-9.4-5.3c-0.5-0.3-1.1-0.3-1.6-0.2l-11.4,3.7l-5.4-5.3l1.5-4.6l7.6-2C72.5,44.7,73.1,43.7,72.9,42.7z
		 M39,65c0-4.2,1-8.1,2.7-11.6l5.8,3.4l-1.8,2.3c-0.5,0.7-0.6,1.7,0,2.4l5.3,7.3c0.2,0.4,0.6,0.6,1,0.8l6.1,1.8l-2.8,7.2L45.4,82
		C41.4,77.4,39,71.5,39,65z M70.2,90.5l2-12.6l9.7-3.6l6.8,1.5C85.3,83.3,78.4,88.9,70.2,90.5z M82.1,70.3c-0.4-0.1-0.8,0-1.1,0.1
		l-11.3,4.2c-0.7,0.2-1.2,0.8-1.3,1.6L66.1,91c-0.3,0-0.7,0-1,0c-6.2,0-12-2.2-16.5-5.9l9-3c0.6-0.2,1-0.6,1.2-1.2l3.9-10.1
		c0.2-0.5,0.2-1.1-0.1-1.6c-0.2-0.5-0.7-0.9-1.2-1L53.9,66l-4-5.5l2.2-2.9c0.3-0.5,0.5-1,0.4-1.6s-0.5-1-0.9-1.3L43.8,50
		c4.7-6.6,12.5-11,21.2-11c1.1,0,2.2,0.1,3.3,0.2l0.3,2.3l-6.9,1.8c-0.7,0.2-1.2,0.7-1.4,1.3l-2.2,6.8c-0.2,0.7,0,1.5,0.5,2l7.1,7.1
		c0.7,0.7,1.6,0.8,2.4,0.3l11.4-3.7L91,63.6c0,0.5,0,0.9,0,1.4c0,2.4-0.3,4.7-1,7L82.1,70.3z"/>
	<path d="M65,29c1.1,0,2-0.9,2-2s-0.9-2-2-2C43,25,25,43,25,65c0,1.1,0.9,2,2,2s2-0.9,2-2C29,45.2,45.2,29,65,29z"/>
	<path d="M34,32v-8c0-1.1-0.9-2-2-2s-2,0.9-2,2v3.2L8.4,5.6c-0.8-0.8-2-0.8-2.8,0c-0.8,0.8-0.8,2,0,2.8L27.2,30H24c-1.1,0-2,0.9-2,2
		s0.9,2,2,2h8C33.1,34,34,33.1,34,32z"/>
	<path d="M20,36c-1.1,0-2,0.9-2,2v3.2l-9.7-9.7c-0.8-0.8-2-0.8-2.8,0c-0.8,0.8-0.8,2,0,2.8l9.7,9.7H12c-1.1,0-2,0.9-2,2s0.9,2,2,2h8
		c1.1,0,2-0.9,2-2v-8C22,36.9,21.1,36,20,36z"/>
	<path d="M41.2,18H38c-1.1,0-2,0.9-2,2s0.9,2,2,2h8c1.1,0,2-0.9,2-2v-8c0-1.1-0.9-2-2-2s-2,0.9-2,2v3.2l-9.7-9.7
		c-0.8-0.8-2-0.8-2.8,0c-0.8,0.8-0.8,2,0,2.8L41.2,18z"/>
</g>
</svg>
