<?xml version="1.0" encoding="utf-8"?>
<!-- Generator: Adobe Illustrator 21.0.2, SVG Export Plug-In . SVG Version: 6.00 Build 0)  -->
<svg version="1.1" id="Layer_1" xmlns="http://www.w3.org/2000/svg" xmlns:xlink="http://www.w3.org/1999/xlink" x="0px" y="0px"
	 viewBox="0 0 100 100" style="enable-background:new 0 0 100 100;" xml:space="preserve">
<g>
	<path d="M19.9,46.8c0.1,0,0.3,0,0.4,0l-3.2-8.8c-0.3-0.8-0.1-1.6,0.5-2.1c0.6-0.5,1.4-0.7,2.2-0.4l8.2,3.6l8.2-3.6
		c0.7-0.3,1.6-0.2,2.2,0.4c0.6,0.5,0.8,1.4,0.5,2.1l-3.2,8.8c0.1,0,0.3,0,0.4,0c7.1,0,12.9-6,12.9-13.5c0-5.7-3.5-10.6-8.3-12.6
		c-1.1-6.3-6.4-11-12.7-11s-11.6,4.8-12.7,11C10.5,22.7,7,27.6,7,33.3C7,40.8,12.8,46.8,19.9,46.8z M39,27.3c1.1,0,2,0.9,2,2
		c0,1.1-0.9,2-2,2s-2-0.9-2-2C37,28.2,37.9,27.3,39,27.3z M28,19.3c1.1,0,2,0.9,2,2c0,1.1-0.9,2-2,2s-2-0.9-2-2
		C26,20.2,26.9,19.3,28,19.3z M28,29.3c1.1,0,2,0.9,2,2c0,1.1-0.9,2-2,2s-2-0.9-2-2C26,30.2,26.9,29.3,28,29.3z M17,27.3
		c1.1,0,2,0.9,2,2c0,1.1-0.9,2-2,2s-2-0.9-2-2C15,28.2,15.9,27.3,17,27.3z"/>
	<path d="M47,58.3v2h34v-2c0-2.2-1.8-4-4-4H51C48.8,54.3,47,56.1,47,58.3z"/>
	<path d="M93,86.3H81v-8c2.2,0,4-1.8,4-4c0-2.2-1.8-4-4-4v-6H47v6c-2.2,0-4,1.8-4,4c0,2.2,1.8,4,4,4v8H31v-38c0-0.2,0-0.5,0.1-0.7
		l2.4-6.6l-4.7,2.1c-0.5,0.2-1.1,0.2-1.6,0L22.5,41l2.4,6.6C25,47.8,25,48,25,48.3v38H7c-1.1,0-2,0.9-2,2c0,1.1,0.9,2,2,2h86
		c1.1,0,2-0.9,2-2C95,87.2,94.1,86.3,93,86.3z M77,86.3H51v-8h26V86.3z"/>
</g>
</svg>
