<?xml version="1.0" encoding="utf-8"?>
<!-- Generator: Adobe Illustrator 21.0.2, SVG Export Plug-In . SVG Version: 6.00 Build 0)  -->
<svg version="1.1" id="Layer_1" xmlns="http://www.w3.org/2000/svg" xmlns:xlink="http://www.w3.org/1999/xlink" x="0px" y="0px"
	 viewBox="0 0 100 100" style="enable-background:new 0 0 100 100;" xml:space="preserve">
<g>
	<path d="M93,87.3H81v-6c3.3,0,6-2.7,6-6c0-2.6-1.7-4.8-4-5.7V59.3c0-3.3-2.7-6-6-6H51c-3.3,0-6,2.7-6,6v10.3c-2.3,0.8-4,3-4,5.7
		c0,3.3,2.7,6,6,6v6H35V49.7c0.4,0,0.7,0.1,1.1,0.1c8.2,0,14.9-6.9,14.9-15.5c0-6.1-3.3-11.4-8.6-14C40.8,13.6,34.8,8.7,28,8.7
		s-12.8,4.8-14.4,11.6C8.3,22.9,5,28.3,5,34.3c0,8.5,6.7,15.5,14.9,15.5c0.4,0,0.7,0,1.1-0.1v37.5H7c-1.1,0-2,0.9-2,2s0.9,2,2,2h86
		c1.1,0,2-0.9,2-2S94.1,87.3,93,87.3z M19.8,36.4c-0.7-0.3-1.6-0.2-2.2,0.4c-0.6,0.5-0.8,1.4-0.5,2.1l2.5,6.8
		C13.7,45.6,9,40.5,9,34.3c0-4.7,2.8-9,7-10.7c0.6-0.3,1.1-0.8,1.2-1.5c1-5.4,5.5-9.4,10.7-9.4s9.8,3.9,10.7,9.4
		c0.1,0.7,0.6,1.2,1.2,1.5c4.2,1.7,7,6,7,10.7c0,6.2-4.7,11.3-10.6,11.5l2.5-6.8c0.3-0.8,0.1-1.6-0.5-2.1c-0.6-0.5-1.4-0.7-2.2-0.4
		L28,40.1L19.8,36.4z M31.1,48.6C31,48.8,31,49,31,49.3v38h-6v-38c0-0.2,0-0.5-0.1-0.7L22.5,42l4.7,2.1c0.5,0.2,1.1,0.2,1.6,0
		l4.7-2.1L31.1,48.6z M49,59.3c0-1.1,0.9-2,2-2h26c1.1,0,2,0.9,2,2v2H49V59.3z M49,65.3h30v4H49V65.3z M45,75.3c0-1.1,0.9-2,2-2h34
		c1.1,0,2,0.9,2,2s-0.9,2-2,2H47C45.9,77.3,45,76.4,45,75.3z M77,87.3H51v-6h26V87.3z"/>
	<circle cx="17" cy="30.3" r="2"/>
	<circle cx="39" cy="30.3" r="2"/>
	<circle cx="28" cy="32.3" r="2"/>
	<circle cx="28" cy="22.3" r="2"/>
</g>
</svg>
