<?xml version="1.0" encoding="utf-8"?>
<!-- Generator: Adobe Illustrator 21.0.2, SVG Export Plug-In . SVG Version: 6.00 Build 0)  -->
<svg version="1.1" id="Layer_1" xmlns="http://www.w3.org/2000/svg" xmlns:xlink="http://www.w3.org/1999/xlink" x="0px" y="0px"
	 viewBox="0 0 100 100" style="enable-background:new 0 0 100 100;" xml:space="preserve">
<g>
	<path d="M30.7,10.9c-1.5-1.5-3.5-2.3-5.7-2.3s-4.1,0.8-5.7,2.3l-0.7,0.7l-3-3c-2-2-5.1-2-7.1,0c-1,1-1.5,2.2-1.5,3.5
		c0,1.3,0.5,2.6,1.5,3.5l3,3l-0.7,0.7c-1.5,1.5-2.3,3.5-2.3,5.7s0.8,4.1,2.3,5.7c0.8,0.8,2,0.8,2.8,0l17-17
		C31.5,13,31.5,11.7,30.7,10.9z"/>
	<rect x="35.6" y="41.7" transform="matrix(0.7071 -0.7071 0.7071 0.7071 -19.7606 47.6581)" width="24" height="12"/>
	<path d="M37.2,24.2l-13,13c4.2,2.4,7.4,6.2,9,10.8L48,33.2C43.4,31.6,39.5,28.5,37.2,24.2z"/>
	<polygon points="68.9,49.1 67.4,50.5 63.2,46.3 46.2,63.2 50.5,67.5 49.1,68.9 54.7,74.6 74.5,54.8 	"/>
	<path d="M79.8,84.5c-0.4-1-1.5-1.6-2.6-1.2c-1,0.4-1.6,1.5-1.2,2.6l2.1,5.6c0.3,0.8,1.1,1.3,1.9,1.3c0.2,0,0.5,0,0.7-0.1
		c1-0.4,1.6-1.5,1.2-2.6L79.8,84.5z"/>
	<path d="M64.9,79.1c-0.6-1-1.8-1.3-2.7-0.7c-1,0.6-1.3,1.8-0.7,2.7l3,5.2c0.4,0.6,1,1,1.7,1c0.3,0,0.7-0.1,1-0.3
		c1-0.6,1.3-1.8,0.7-2.7L64.9,79.1z"/>
	<path d="M81.1,64.3l5.5,2.4c0.3,0.1,0.5,0.2,0.8,0.2c0.8,0,1.5-0.5,1.8-1.2c0.4-1,0-2.2-1-2.6l-5.5-2.4c-1-0.4-2.2,0-2.6,1
		C79.6,62.7,80.1,63.9,81.1,64.3z"/>
	<path d="M77.2,76.2c0.7,0,1.4-0.4,1.7-1c0.6-1,0.2-2.2-0.7-2.7l-5.2-3c-1-0.6-2.2-0.2-2.7,0.7c-0.6,1-0.2,2.2,0.7,2.7l5.2,3
		C76.5,76.1,76.9,76.2,77.2,76.2z"/>
	<path d="M92.2,77.2l-4.4-4.1c-0.8-0.7-2.1-0.7-2.8,0.1s-0.7,2.1,0.1,2.8l4.4,4.1c0.4,0.4,0.9,0.5,1.4,0.5c0.5,0,1.1-0.2,1.5-0.6
		C93.1,79.2,93,78,92.2,77.2z"/>
	<path d="M34.9,18l-1.4-1.4l-17,17l1.4,1.4c0.8,0.8,2,0.8,2.8,0l14.1-14.1C35.7,20,35.7,18.8,34.9,18z"/>
</g>
</svg>
