<?xml version="1.0" encoding="utf-8"?>
<!-- Generator: Adobe Illustrator 21.0.2, SVG Export Plug-In . SVG Version: 6.00 Build 0)  -->
<svg version="1.1" id="Layer_1" xmlns="http://www.w3.org/2000/svg" xmlns:xlink="http://www.w3.org/1999/xlink" x="0px" y="0px"
	 viewBox="0 0 100 100" style="enable-background:new 0 0 100 100;" xml:space="preserve">
<g>
	<path d="M78.5,56.8c0-0.5-0.2-1-0.6-1.4l-5.6-5.6c-0.8-0.8-2-0.8-2.8,0l-2.8-2.8c0.4-0.4,0.6-0.9,0.6-1.4c0-0.5-0.2-1-0.6-1.4
		L55.3,32.7c-0.3-0.3-0.6-0.5-1-0.5l-1-0.2c-5.4-1.1-9.8-4.8-11.7-9.9c0-0.1-0.1-0.2-0.2-0.3c0.1-1.7-0.4-3.4-1.7-4.7l-2.5-2.5
		c0.1-1.6-0.5-3.3-1.7-4.6c-2.3-2.3-5.3-3.5-8.5-3.5c-2.9,0-5.6,1-7.7,2.8l-2.2-2.2c-2.7-2.7-7.2-2.7-9.9,0c-2.7,2.7-2.7,7.2,0,9.9
		l2.2,2.2c-1.8,2.2-2.8,4.9-2.8,7.7c0,3.2,1.2,6.2,3.5,8.5c1.2,1.2,2.7,1.8,4.2,1.8c0.1,0,0.2,0,0.3,0l2.5,2.5
		c1.2,1.2,2.7,1.8,4.2,1.8c0.1,0,0.3,0,0.4,0c0.1,0.1,0.2,0.1,0.3,0.2c5.1,2,8.8,6.3,9.9,11.7l0.2,1c0.1,0.4,0.3,0.8,0.5,1L44,66.7
		c0.4,0.4,0.9,0.6,1.4,0.6c0.5,0,1-0.2,1.4-0.6l2.8,2.8c-0.4,0.4-0.6,0.9-0.6,1.4c0,0.5,0.2,1,0.6,1.4l5.7,5.6
		c0.4,0.4,0.9,0.6,1.4,0.6c0.5,0,1-0.2,1.4-0.6l19.8-19.8C78.3,57.8,78.5,57.3,78.5,56.8z M10,10.1c1.2-1.2,3.1-1.2,4.2,0l2.1,2.1
		l-4.2,4.2L10,14.3C8.9,13.2,8.9,11.3,10,10.1z M15.7,32.7c-0.8,0.8-2,0.8-2.8,0c-1.5-1.5-2.3-3.5-2.3-5.7s0.8-4.1,2.3-5.7l0.7-0.7
		l7.1-7.1l0.7-0.7c1.5-1.5,3.5-2.3,5.7-2.3s4.2,0.8,5.7,2.3c0.8,0.8,0.8,2,0,2.8L15.7,32.7z M19.9,37l-1.4-1.4l17-17l1.4,1.4
		c0.8,0.8,0.8,2,0,2.8L22.8,37C22,37.7,20.7,37.7,19.9,37z M26.2,39.2l13-13c2.4,4.2,6.2,7.4,10.8,9L35.2,50
		C33.6,45.4,30.4,41.6,26.2,39.2z M45.4,62.4l-8.5-8.5l17-17l8.5,8.5L45.4,62.4z M49.6,63.8l14.1-14.1l2.8,2.8L52.5,66.7L49.6,63.8z
		 M56.7,73.7l-2.8-2.8l17-17l2.8,2.8L56.7,73.7z"/>
	<path d="M81.8,86.5c-0.4-1-1.5-1.6-2.6-1.2c-1,0.4-1.6,1.5-1.2,2.6l2.1,5.6c0.3,0.8,1.1,1.3,1.9,1.3c0.2,0,0.5,0,0.7-0.1
		c1-0.4,1.6-1.5,1.2-2.6L81.8,86.5z"/>
	<path d="M66.9,81.1c-0.6-1-1.8-1.3-2.7-0.7c-1,0.6-1.3,1.8-0.7,2.7l3,5.2c0.4,0.6,1,1,1.7,1c0.3,0,0.7-0.1,1-0.3
		c1-0.6,1.3-1.8,0.7-2.7L66.9,81.1z"/>
	<path d="M83.1,66.3l5.5,2.4c0.3,0.1,0.5,0.2,0.8,0.2c0.8,0,1.5-0.5,1.8-1.2c0.4-1,0-2.2-1-2.6l-5.5-2.4c-1-0.4-2.2,0-2.6,1
		C81.6,64.7,82.1,65.9,83.1,66.3z"/>
	<path d="M79.2,78.2c0.7,0,1.4-0.4,1.7-1c0.6-1,0.2-2.2-0.7-2.7l-5.2-3c-1-0.6-2.2-0.2-2.7,0.7c-0.6,1-0.2,2.2,0.7,2.7l5.2,3
		C78.5,78.1,78.9,78.2,79.2,78.2z"/>
	<path d="M94.2,79.2l-4.4-4.1c-0.8-0.7-2.1-0.7-2.8,0.1s-0.7,2.1,0.1,2.8l4.4,4.1c0.4,0.4,0.9,0.5,1.4,0.5c0.5,0,1.1-0.2,1.5-0.6
		C95.1,81.2,95,80,94.2,79.2z"/>
</g>
</svg>
