<?xml version="1.0" encoding="utf-8"?>
<!-- Generator: Adobe Illustrator 21.0.2, SVG Export Plug-In . SVG Version: 6.00 Build 0)  -->
<svg version="1.1" id="Layer_1" xmlns="http://www.w3.org/2000/svg" xmlns:xlink="http://www.w3.org/1999/xlink" x="0px" y="0px"
	 viewBox="0 0 100 100" style="enable-background:new 0 0 100 100;" xml:space="preserve">
<g>
	<path d="M60.2,57.8l8.5-8.5l7.1-7.1l0.7,0.7c1.2,1.2,2.7,1.8,4.2,1.8s3.1-0.6,4.2-1.8c2.3-2.3,2.3-6.1,0-8.5l-5-5l4.2-4.2
		c1.2,1.2,2.7,1.8,4.2,1.8c1.5,0,3.1-0.6,4.2-1.8c2.3-2.3,2.3-6.1,0-8.5l-9.9-9.9c-2.3-2.3-6.1-2.3-8.5,0c-1.1,1.1-1.8,2.6-1.8,4.2
		c0,1.6,0.6,3.1,1.8,4.2l-4.2,4.2l-5-4.9c-2.3-2.3-6.1-2.3-8.5,0c-2.3,2.3-2.3,6.1,0,8.5l0.7,0.7L27.7,53.6
		c-1.8,1.8-2.2,4.6-1.2,6.8L22,64.9c-0.3,0.3-0.5,0.7-0.6,1.1l-0.6,4.3l-5.2,5.2c-0.4,0.4-0.6,0.9-0.6,1.4c0,0.5,0.2,1,0.6,1.4
		l1.4,1.4L5.8,91.1c-0.8,0.8-0.8,2,0,2.8c0.4,0.4,0.9,0.6,1.4,0.6c0.5,0,1-0.2,1.4-0.6l11.3-11.3l1.4,1.4c0.4,0.4,0.9,0.6,1.4,0.6
		c0.5,0,1-0.2,1.4-0.6l5.2-5.2l4.3-0.6c0.4-0.1,0.8-0.3,1.1-0.6l4.5-4.5c0.8,0.4,1.7,0.6,2.6,0.6c1.6,0,3.1-0.6,4.2-1.8l2.8-2.8
		c0,0,0,0,0,0l5.7-5.7c0,0,0,0,0,0L60.2,57.8L60.2,57.8z M67.3,45.1l-0.7-0.7c-1.5-1.5-3.3-2.6-5.2-3.3l6.6-6.6l1,1l3.9,4L67.3,45.1
		z M77.2,9.8c0.8-0.8,2-0.8,2.8,0l9.9,9.9c0.8,0.8,0.8,2.1,0,2.8c-0.8,0.8-2,0.8-2.8,0v0l-9.9-9.9c-0.4-0.4-0.6-0.9-0.6-1.4
		C76.6,10.6,76.8,10.1,77.2,9.8z M77.2,18.2l4.2,4.2l-4.2,4.2l-4.2-4.2L77.2,18.2z M59.5,17.5c0.8-0.8,2-0.8,2.8,0l6.4,6.4
		c0,0,0,0,0,0l13.4,13.4c0.8,0.8,0.8,2,0,2.8c-0.8,0.8-2,0.8-2.8,0L77.2,38c0,0,0,0,0,0l-7.8-7.8l-9.9-9.9
		C58.7,19.6,58.7,18.3,59.5,17.5z M60.2,26.7l5,5L56.8,40c-2.3-0.8-4.2-2.3-5.5-4.5L60.2,26.7z M32.4,74.3l-4.3,0.6
		c-0.4,0.1-0.8,0.3-1.1,0.6l-4.2,4.2l-2.8-2.8l4.2-4.2c0.3-0.3,0.5-0.7,0.6-1.1l0.6-4.3l3.8-3.8l7.1,7.1L32.4,74.3z M51.7,52.2
		l4.2,4.2l-2.8,2.8L48.9,55c-0.8-0.8-2-0.8-2.8,0c-0.8,0.8-0.8,2,0,2.8l4.2,4.2l-2.8,2.8l-4.2-4.2c-0.8-0.8-2-0.8-2.8,0
		c-0.8,0.8-0.8,2.1,0,2.8l4.2,4.2l-1.4,1.4c-0.8,0.8-2.1,0.8-2.8,0l-9.9-9.9c-0.8-0.8-0.8-2,0-2.8l18-18c2.2,3.2,5.7,5.4,9.6,6
		c2.1,0.3,4.2,1.3,5.7,2.8l0.7,0.7l-5.7,5.7l-4.2-4.2c-0.8-0.8-2-0.8-2.8,0C50.9,50.1,50.9,51.4,51.7,52.2z"/>
	<path d="M75.8,56.8c-10.5,0-19,8.5-19,19c0,10.5,8.5,19,19,19s19-8.5,19-19C94.8,65.3,86.3,56.8,75.8,56.8z M75.8,90.8
		c-8.3,0-15-6.7-15-15c0-8.3,6.7-15,15-15s15,6.7,15,15C90.8,84.1,84.1,90.8,75.8,90.8z"/>
	<path d="M75.8,72.8c-4.4,0-8,3.6-8,8c0,3.3,2.7,6,6,6h4c3.3,0,6-2.7,6-6C83.8,76.4,80.2,72.8,75.8,72.8z M77.8,82.8h-4
		c-1.1,0-2-0.9-2-2c0-2.2,1.8-4,4-4s4,1.8,4,4C79.8,81.9,78.9,82.8,77.8,82.8z"/>
	<circle cx="67.8" cy="69.8" r="2"/>
	<circle cx="75.8" cy="66.8" r="2"/>
	<circle cx="83.8" cy="69.8" r="2"/>
</g>
</svg>
