<?xml version="1.0" encoding="utf-8"?>
<!-- Generator: Adobe Illustrator 21.0.2, SVG Export Plug-In . SVG Version: 6.00 Build 0)  -->
<svg version="1.1" id="Layer_1" xmlns="http://www.w3.org/2000/svg" xmlns:xlink="http://www.w3.org/1999/xlink" x="0px" y="0px"
	 viewBox="0 0 100 100" style="enable-background:new 0 0 100 100;" xml:space="preserve">
<g>
	<path d="M89,21H69.6C67.7,11.9,59.7,5,50,5s-17.7,6.9-19.6,16H11c-3.3,0-6,2.7-6,6v62c0,3.3,2.7,6,6,6h78c3.3,0,6-2.7,6-6V27
		C95,23.7,92.3,21,89,21z M50,9c8.8,0,16,7.2,16,16s-7.2,16-16,16s-16-7.2-16-16S41.2,9,50,9z M9,27c0-1.1,0.9-2,2-2h19
		c0,3.6,1,7,2.7,10H9V27z M81,91H59V55c0-1.1,0.9-2,2-2h18c1.1,0,2,0.9,2,2V91z M91,89c0,1.1-0.9,2-2,2h-4V55c0-3.3-2.7-6-6-6H61
		c-3.3,0-6,2.7-6,6v36H11c-1.1,0-2-0.9-2-2V39h26.7c3.6,3.7,8.7,6,14.3,6s10.6-2.3,14.3-6H91V89z M91,35H67.3C69,32,70,28.6,70,25
		h19c1.1,0,2,0.9,2,2V35z"/>
	<path d="M44,31v4c0,1.1,0.9,2,2,2h8c1.1,0,2-0.9,2-2v-4h4c1.1,0,2-0.9,2-2v-8c0-1.1-0.9-2-2-2h-4v-4c0-1.1-0.9-2-2-2h-8
		c-1.1,0-2,0.9-2,2v4h-4c-1.1,0-2,0.9-2,2v8c0,1.1,0.9,2,2,2H44z M42,23h4c1.1,0,2-0.9,2-2v-4h4v4c0,1.1,0.9,2,2,2h4v4h-4
		c-1.1,0-2,0.9-2,2v4h-4v-4c0-1.1-0.9-2-2-2h-4V23z"/>
	<path d="M43,49H21c-3.3,0-6,2.7-6,6v10c0,3.3,2.7,6,6,6h22c3.3,0,6-2.7,6-6V55C49,51.7,46.3,49,43,49z M45,65c0,1.1-0.9,2-2,2H21
		c-1.1,0-2-0.9-2-2V55c0-1.1,0.9-2,2-2h22c1.1,0,2,0.9,2,2V65z"/>
	<path d="M45,75H19c-1.1,0-2,0.9-2,2c0,1.1,0.9,2,2,2h26c1.1,0,2-0.9,2-2C47,75.9,46.1,75,45,75z"/>
	<path d="M45,83H19c-1.1,0-2,0.9-2,2c0,1.1,0.9,2,2,2h26c1.1,0,2-0.9,2-2C47,83.9,46.1,83,45,83z"/>
</g>
</svg>
