<?xml version="1.0" encoding="utf-8"?>
<!-- Generator: Adobe Illustrator 21.0.2, SVG Export Plug-In . SVG Version: 6.00 Build 0)  -->
<svg version="1.1" id="Layer_1" xmlns="http://www.w3.org/2000/svg" xmlns:xlink="http://www.w3.org/1999/xlink" x="0px" y="0px"
	 viewBox="0 0 100 100" style="enable-background:new 0 0 100 100;" xml:space="preserve">
<g>
	<path d="M30,23c0-0.7,0-1.3,0.1-2H11c-2.2,0-4,1.8-4,4v8h25.7C31,30,30,26.6,30,23z"/>
	<path d="M89,21H69.9c0.1,0.7,0.1,1.3,0.1,2c0,3.6-1,7-2.7,10H93v-8C93,22.8,91.2,21,89,21z"/>
	<path d="M50,43c-5.6,0-10.6-2.3-14.3-6H7v52c0,2.2,1.8,4,4,4h44V55c0-3.3,2.7-6,6-6h18c3.3,0,6,2.7,6,6v38h4c2.2,0,4-1.8,4-4V37
		H64.3C60.6,40.7,55.6,43,50,43z M45,87H19c-1.1,0-2-0.9-2-2c0-1.1,0.9-2,2-2h26c1.1,0,2,0.9,2,2C47,86.1,46.1,87,45,87z M45,79H19
		c-1.1,0-2-0.9-2-2c0-1.1,0.9-2,2-2h26c1.1,0,2,0.9,2,2C47,78.1,46.1,79,45,79z M49,65c0,3.3-2.7,6-6,6H21c-3.3,0-6-2.7-6-6V55
		c0-3.3,2.7-6,6-6h22c3.3,0,6,2.7,6,6V65z"/>
	<path d="M50,39c8.8,0,16-7.2,16-16S58.8,7,50,7s-16,7.2-16,16S41.2,39,50,39z M40,19h6v-6h8v6h6v8h-6v6h-8v-6h-6V19z"/>
	<path d="M79,53H61c-1.1,0-2,0.9-2,2v38h22V55C81,53.9,80.1,53,79,53z"/>
	<path d="M43,53H21c-1.1,0-2,0.9-2,2v10c0,1.1,0.9,2,2,2h22c1.1,0,2-0.9,2-2V55C45,53.9,44.1,53,43,53z"/>
</g>
</svg>
