<?xml version="1.0" encoding="utf-8"?>
<!-- Generator: Adobe Illustrator 21.0.2, SVG Export Plug-In . SVG Version: 6.00 Build 0)  -->
<svg version="1.1" id="Layer_1" xmlns="http://www.w3.org/2000/svg" xmlns:xlink="http://www.w3.org/1999/xlink" x="0px" y="0px"
	 viewBox="0 0 100 100" style="enable-background:new 0 0 100 100;" xml:space="preserve">
<g>
	<path d="M39,5H13c-4.4,0-8,3.6-8,8v74c0,4.4,3.6,8,8,8h26c4.4,0,8-3.6,8-8V13C47,8.6,43.4,5,39,5z M43,87c0,2.2-1.8,4-4,4H13
		c-2.2,0-4-1.8-4-4V13c0-2.2,1.8-4,4-4h26c2.2,0,4,1.8,4,4V87z"/>
	<path d="M87,5H61c-4.4,0-8,3.6-8,8v74c0,4.4,3.6,8,8,8h26c4.4,0,8-3.6,8-8V13C95,8.6,91.4,5,87,5z M91,87c0,2.2-1.8,4-4,4H61
		c-2.2,0-4-1.8-4-4V13c0-2.2,1.8-4,4-4h26c2.2,0,4,1.8,4,4V87z"/>
	<path d="M32,13H20c-3.9,0-7,3.1-7,7s3.1,7,7,7h12c3.9,0,7-3.1,7-7S35.9,13,32,13z M24,23h-4c-1.7,0-3-1.4-3-3c0-1.7,1.3-3,3-3h4V23
		z M32,23h-4v-6h4c1.7,0,3,1.3,3,3C35,21.6,33.7,23,32,23z"/>
	<path d="M32,33H20c-3.9,0-7,3.1-7,7s3.1,7,7,7h12c3.9,0,7-3.1,7-7S35.9,33,32,33z M24,43h-4c-1.7,0-3-1.4-3-3c0-1.7,1.3-3,3-3h4V43
		z M32,43h-4v-6h4c1.7,0,3,1.3,3,3C35,41.6,33.7,43,32,43z"/>
	<path d="M32,53H20c-3.9,0-7,3.1-7,7s3.1,7,7,7h12c3.9,0,7-3.1,7-7S35.9,53,32,53z M24,63h-4c-1.7,0-3-1.4-3-3c0-1.7,1.3-3,3-3h4V63
		z M32,63h-4v-6h4c1.7,0,3,1.3,3,3C35,61.6,33.7,63,32,63z"/>
	<path d="M32,73H20c-3.9,0-7,3.1-7,7s3.1,7,7,7h12c3.9,0,7-3.1,7-7S35.9,73,32,73z M24,83h-4c-1.7,0-3-1.4-3-3c0-1.7,1.3-3,3-3h4V83
		z M32,83h-4v-6h4c1.7,0,3,1.3,3,3C35,81.6,33.7,83,32,83z"/>
	<path d="M74,14c-5.5,0-10,4.5-10,10s4.5,10,10,10s10-4.5,10-10S79.5,14,74,14z M74,30c-2.6,0-4.8-1.7-5.7-4h11.3
		C78.8,28.3,76.6,30,74,30z M68.3,22c0.8-2.3,3-4,5.7-4s4.8,1.7,5.7,4H68.3z"/>
	<path d="M74,40c-5.5,0-10,4.5-10,10s4.5,10,10,10s10-4.5,10-10S79.5,40,74,40z M74,56c-2.6,0-4.8-1.7-5.7-4h11.3
		C78.8,54.3,76.6,56,74,56z M68.3,48c0.8-2.3,3-4,5.7-4s4.8,1.7,5.7,4H68.3z"/>
	<path d="M74,66c-5.5,0-10,4.5-10,10s4.5,10,10,10s10-4.5,10-10S79.5,66,74,66z M74,82c-2.6,0-4.8-1.7-5.7-4h11.3
		C78.8,80.3,76.6,82,74,82z M68.3,74c0.8-2.3,3-4,5.7-4s4.8,1.7,5.7,4H68.3z"/>
</g>
</svg>
