<?xml version="1.0" encoding="utf-8"?>
<!-- Generator: Adobe Illustrator 21.0.2, SVG Export Plug-In . SVG Version: 6.00 Build 0)  -->
<svg version="1.1" id="Layer_1" xmlns="http://www.w3.org/2000/svg" xmlns:xlink="http://www.w3.org/1999/xlink" x="0px" y="0px"
	 viewBox="0 0 100 100" style="enable-background:new 0 0 100 100;" xml:space="preserve">
<g>
	<path d="M39,7H13c-3.3,0-6,2.7-6,6v74c0,3.3,2.7,6,6,6h26c3.3,0,6-2.7,6-6V13C45,9.7,42.3,7,39,7z M32,87H20c-3.9,0-7-3.1-7-7
		s3.1-7,7-7h12c3.9,0,7,3.1,7,7S35.9,87,32,87z M32,67H20c-3.9,0-7-3.1-7-7s3.1-7,7-7h12c3.9,0,7,3.1,7,7S35.9,67,32,67z M32,47H20
		c-3.9,0-7-3.1-7-7s3.1-7,7-7h12c3.9,0,7,3.1,7,7S35.9,47,32,47z M32,27H20c-3.9,0-7-3.1-7-7s3.1-7,7-7h12c3.9,0,7,3.1,7,7
		S35.9,27,32,27z"/>
	<path d="M87,7H61c-3.3,0-6,2.7-6,6v74c0,3.3,2.7,6,6,6h26c3.3,0,6-2.7,6-6V13C93,9.7,90.3,7,87,7z M74,86c-5.5,0-10-4.5-10-10
		s4.5-10,10-10s10,4.5,10,10S79.5,86,74,86z M74,60c-5.5,0-10-4.5-10-10s4.5-10,10-10s10,4.5,10,10S79.5,60,74,60z M74,34
		c-5.5,0-10-4.5-10-10s4.5-10,10-10s10,4.5,10,10S79.5,34,74,34z"/>
	<path d="M32,17h-4v6h4c1.7,0,3-1.4,3-3C35,18.3,33.7,17,32,17z"/>
	<path d="M17,20c0,1.6,1.3,3,3,3h4v-6h-4C18.3,17,17,18.3,17,20z"/>
	<path d="M17,40c0,1.6,1.3,3,3,3h4v-6h-4C18.3,37,17,38.3,17,40z"/>
	<path d="M32,37h-4v6h4c1.7,0,3-1.4,3-3C35,38.3,33.7,37,32,37z"/>
	<path d="M17,60c0,1.6,1.3,3,3,3h4v-6h-4C18.3,57,17,58.3,17,60z"/>
	<path d="M32,57h-4v6h4c1.7,0,3-1.4,3-3C35,58.3,33.7,57,32,57z"/>
	<path d="M17,80c0,1.6,1.3,3,3,3h4v-6h-4C18.3,77,17,78.3,17,80z"/>
	<path d="M32,77h-4v6h4c1.7,0,3-1.4,3-3C35,78.3,33.7,77,32,77z"/>
	<path d="M74,18c-2.6,0-4.8,1.7-5.7,4h11.3C78.8,19.7,76.6,18,74,18z"/>
	<path d="M74,30c2.6,0,4.8-1.7,5.7-4H68.3C69.2,28.3,71.4,30,74,30z"/>
	<path d="M74,44c-2.6,0-4.8,1.7-5.7,4h11.3C78.8,45.7,76.6,44,74,44z"/>
	<path d="M74,56c2.6,0,4.8-1.7,5.7-4H68.3C69.2,54.3,71.4,56,74,56z"/>
	<path d="M74,70c-2.6,0-4.8,1.7-5.7,4h11.3C78.8,71.7,76.6,70,74,70z"/>
	<path d="M74,82c2.6,0,4.8-1.7,5.7-4H68.3C69.2,80.3,71.4,82,74,82z"/>
</g>
</svg>
