<?xml version="1.0" encoding="utf-8"?>
<!-- Generator: Adobe Illustrator 21.0.2, SVG Export Plug-In . SVG Version: 6.00 Build 0)  -->
<svg version="1.1" id="Layer_1" xmlns="http://www.w3.org/2000/svg" xmlns:xlink="http://www.w3.org/1999/xlink" x="0px" y="0px"
	 viewBox="0 0 100 100" style="enable-background:new 0 0 100 100;" xml:space="preserve">
<g>
	<path d="M49,14.9v-4c0-1.1-0.9-2-2-2h-4v8h4C48.1,16.9,49,16,49,14.9z"/>
	<rect x="33" y="8.9" width="6" height="8"/>
	<path d="M15,16.9h4v-8h-4c-1.1,0-2,0.9-2,2v4C13,16,13.9,16.9,15,16.9z"/>
	<rect x="23" y="8.9" width="6" height="8"/>
	<path d="M23,72.9c-3.3,0-6-2.7-6-6v-22c0-3.3,2.7-6,6-6h30v-2.3c0-2.8-1.5-5.4-3.9-6.9c-3.2-1.9-5.4-5.2-6-8.8H18.8
		c-0.6,3.6-2.8,6.9-6,8.8C10.5,31.2,9,33.8,9,36.6v38.3c0,3.3,2.7,6,6,6h15.3c0.6-1.3,1.4-2.5,2.6-3.4l5.3-4.6H23z"/>
	<path d="M21,44.9v22c0,1.1,0.9,2,2,2h19.8L53,60.2V42.9H23C21.9,42.9,21,43.8,21,44.9z"/>
	<path d="M57,74.9h3.4l4.2-3.6c2.5-2.2,2.8-6,0.6-8.5c-1.2-1.4-2.9-2.1-4.5-2.1c-1.4,0-2.8,0.5-3.9,1.5L35.5,80.5
		c-2.5,2.2-2.8,6-0.6,8.5c2.2,2.5,6,2.8,8.5,0.6l3.8-3.3C47,85.9,47,85.4,47,84.9C47,79.4,51.5,74.9,57,74.9z"/>
	<path d="M85,78.9H73v12h12c3.3,0,6-2.7,6-6S88.3,78.9,85,78.9z"/>
	<path d="M51,84.9c0,3.3,2.7,6,6,6h12v-12H57C53.7,78.9,51,81.6,51,84.9z"/>
</g>
</svg>
