<?xml version="1.0" encoding="utf-8"?>
<!-- Generator: Adobe Illustrator 21.0.2, SVG Export Plug-In . SVG Version: 6.00 Build 0)  -->
<svg version="1.1" id="Layer_1" xmlns="http://www.w3.org/2000/svg" xmlns:xlink="http://www.w3.org/1999/xlink" x="0px" y="0px"
	 viewBox="0 0 100 100" style="enable-background:new 0 0 100 100;" xml:space="preserve">
<path d="M85,74.9H66.5l0.6-0.6c2-1.7,3.2-4.2,3.5-6.8s-0.7-5.2-2.4-7.3C65.3,57,60.8,56,57,57.5V36.6c0-4.2-2.2-8.1-5.8-10.3
	c-2-1.2-3.4-3.2-3.9-5.4c3.2-0.1,5.8-2.8,5.8-6v-4c0-3.3-2.7-6-6-6H15c-3.3,0-6,2.7-6,6v4c0,3.2,2.6,5.9,5.8,6
	c-0.5,2.2-1.9,4.2-3.9,5.4C7.2,28.5,5,32.4,5,36.6v38.3c0,5.5,4.5,10,10,10h14.4c0,2.4,0.8,4.7,2.4,6.7c2,2.3,4.8,3.5,7.6,3.5
	c2.3,0,4.6-0.8,6.5-2.4l2.7-2.3c1.8,2.8,4.9,4.6,8.4,4.6h28c5.5,0,10-4.5,10-10S90.5,74.9,85,74.9z M43,8.9h4c1.1,0,2,0.9,2,2v4
	c0,1.1-0.9,2-2,2h-4V8.9z M33,8.9h6v8h-6V8.9z M23,8.9h6v8h-6V8.9z M13,14.9v-4c0-1.1,0.9-2,2-2h4v8h-4C13.9,16.9,13,16,13,14.9z
	 M30.3,80.9H15c-3.3,0-6-2.7-6-6V36.6c0-2.8,1.5-5.4,3.9-6.9c3.2-1.9,5.4-5.2,6-8.8h24.3c0.6,3.6,2.8,6.9,6,8.8
	c2.4,1.4,3.9,4.1,3.9,6.9v2.3H23c-3.3,0-6,2.7-6,6v22c0,3.3,2.7,6,6,6h15.2l-5.3,4.6C31.7,78.5,30.9,79.7,30.3,80.9z M53,42.9v17.2
	l-10.2,8.8H23c-1.1,0-2-0.9-2-2v-22c0-1.1,0.9-2,2-2H53z M47,84.9c0,0.5,0,0.9,0.1,1.4l-3.8,3.3c-2.5,2.2-6.3,1.9-8.5-0.6
	c-2.2-2.5-1.9-6.3,0.6-8.5l21.2-18.3c1.1-1,2.5-1.5,3.9-1.5c1.7,0,3.4,0.7,4.5,2.1c2.2,2.5,1.9,6.3-0.6,8.5l-4.2,3.6H57
	C51.5,74.9,47,79.4,47,84.9z M69,90.9H57c-3.3,0-6-2.7-6-6s2.7-6,6-6h12V90.9z M85,90.9H73v-12h12c3.3,0,6,2.7,6,6
	S88.3,90.9,85,90.9z"/>
</svg>
