<?xml version="1.0" encoding="utf-8"?>
<!-- Generator: Adobe Illustrator 21.0.2, SVG Export Plug-In . SVG Version: 6.00 Build 0)  -->
<svg version="1.1" id="Layer_1" xmlns="http://www.w3.org/2000/svg" xmlns:xlink="http://www.w3.org/1999/xlink" x="0px" y="0px"
	 viewBox="0 0 100 100" style="enable-background:new 0 0 100 100;" xml:space="preserve">
<path d="M93,90.1H60.3c-1.7-4-2.8-8.1-3.1-12.3c2,0.5,4.3,0.8,6.6,0.8c9.5,0,17.2-4.6,17.2-10.3c0-2.8-1.8-5.3-4.8-7.1
	c-2.9-1.8-5.7-3.8-8.2-6.1c5.2-1.4,8.9-4.6,8.9-8.2c0-2.4-1.6-4.6-4.1-6.2c-2.9-1.8-5.8-3.8-8.2-6.3c-0.8-0.8-1.5-1.6-2.2-2.5
	c3.8-0.9,6.5-3.2,6.5-5.9c0-1.7-1.1-3.2-2.9-4.4c-2.1-1.3-4.1-2.7-5.7-4.4c-2.6-2.7-4.9-5.8-6.7-9.1c-1.6-2.8-5.7-2.8-7.3,0
	c-1.8,3.3-4.1,6.3-6.7,9.1c-1.7,1.8-3.7,3.2-5.7,4.4c-1.8,1.1-2.9,2.7-2.9,4.4c0,2.6,2.7,4.9,6.5,5.9c-0.7,0.8-1.5,1.7-2.2,2.5
	c-2.4,2.5-5.2,4.5-8.2,6.3c-2.6,1.6-4.1,3.8-4.1,6.2c0,3.7,3.7,6.8,8.9,8.2c-2.5,2.3-5.3,4.3-8.2,6.1c-2.9,1.9-4.8,4.4-4.8,7.1
	c0,5.7,7.7,10.3,17.2,10.3c2.3,0,4.6-0.3,6.6-0.8c-0.4,4.3-1.4,8.4-3.1,12.3H7c-1.1,0-2,0.9-2,2s0.9,2,2,2h34h0h18c0,0,0,0,0,0
	c0,0,0,0,0,0h34c1.1,0,2-0.9,2-2S94.1,90.1,93,90.1z"/>
</svg>
