<?xml version="1.0" encoding="utf-8"?>
<!-- Generator: Adobe Illustrator 21.0.2, SVG Export Plug-In . SVG Version: 6.00 Build 0)  -->
<svg version="1.1" id="Layer_1" xmlns="http://www.w3.org/2000/svg" xmlns:xlink="http://www.w3.org/1999/xlink" x="0px" y="0px"
	 viewBox="0 0 100 100" style="enable-background:new 0 0 100 100;" xml:space="preserve">
<path d="M93,91.1H60.2c-1.8-3.2-2.8-6.7-3.1-10.3c2.1,0.5,4.4,0.8,6.7,0.8c10.8,0,19.2-5.4,19.2-12.3c0-3.4-2-6.5-5.7-8.8
	c-1.7-1.1-3.5-2.3-5.3-3.7c4.3-2,7-5.2,7-9c0-3-1.8-5.8-5.1-7.9c-2.5-1.6-5.4-3.5-7.8-6c-0.1-0.1-0.1-0.2-0.2-0.2
	c3.1-1.5,5.1-3.9,5.1-6.7c0-2.3-1.4-4.5-3.8-6.1c-1.7-1.1-3.7-2.4-5.4-4.1c-2.5-2.6-4.6-5.5-6.4-8.6c-1.1-2-3.1-3.2-5.4-3.2
	c-2.3,0-4.3,1.2-5.4,3.2c-1.8,3.1-3.9,6-6.4,8.6c-1.6,1.7-3.6,3-5.4,4.1c-2.5,1.6-3.8,3.7-3.8,6.1c0,2.8,2,5.2,5.1,6.7
	c-0.1,0.1-0.2,0.2-0.2,0.2c-2.4,2.5-5.3,4.4-7.8,6c-3.3,2.1-5.1,4.9-5.1,7.9c0,3.7,2.8,7,7,9c-1.8,1.4-3.6,2.6-5.3,3.7
	C19,62.7,17,65.8,17,69.2c0,6.9,8.4,12.3,19.2,12.3c2.3,0,4.6-0.3,6.7-0.8c-0.3,3.6-1.3,7.1-3.1,10.3H7c-1.1,0-2,0.9-2,2
	c0,1.1,0.9,2,2,2h86c1.1,0,2-0.9,2-2C95,92,94.1,91.1,93,91.1z M33,26.9c0-1.2,1.2-2.2,2-2.7c1.9-1.2,4.2-2.7,6.1-4.8
	c2.7-2.8,5.1-6,7-9.5c0.4-0.7,1.1-1.1,1.9-1.1s1.5,0.4,1.9,1.1c1.9,3.4,4.3,6.6,7,9.5c1.9,2,4.2,3.5,6.1,4.8c0.7,0.5,2,1.4,2,2.7
	c0,2-3.7,4.3-8.6,4.3c-2.9,0-5.5-0.8-7.2-2.1c-0.4-0.3-0.8-0.4-1.2-0.4s-0.9,0.2-1.2,0.4c-1.7,1.3-4.3,2.1-7.2,2.1
	C36.7,31.2,33,29,33,26.9z M25,47.8c0-2.2,2-3.8,3.2-4.5c2.7-1.7,5.8-3.8,8.5-6.6c0.5-0.5,1-1.1,1.6-1.7c1,0.2,2.1,0.3,3.3,0.3
	c3.2,0,6.2-0.8,8.4-2.1c2.3,1.4,5.3,2.1,8.4,2.1c1.1,0,2.2-0.1,3.3-0.3c0.5,0.6,1,1.1,1.6,1.7c2.7,2.8,5.8,4.9,8.5,6.6
	C73,44,75,45.6,75,47.8c0,3.7-6.1,7-13,7c-4.2,0-8.3-1.2-10.8-3.2c-0.4-0.3-0.8-0.4-1.2-0.4s-0.9,0.1-1.2,0.4
	c-2.5,2-6.5,3.2-10.8,3.2C31.1,54.8,25,51.5,25,47.8z M36.2,77.5C28,77.5,21,73.7,21,69.2c0-2,1.4-3.9,3.8-5.4
	c2.4-1.5,5.1-3.3,7.7-5.6c1.7,0.4,3.6,0.6,5.5,0.6c4.6,0,8.8-1.1,12-3.2c3.2,2,7.4,3.2,12,3.2c1.9,0,3.8-0.2,5.5-0.6
	c2.5,2.2,5.3,4.1,7.7,5.6c2.5,1.5,3.8,3.5,3.8,5.4c0,4.5-7,8.3-15.2,8.3c-4.9,0-9.6-1.4-12.5-3.7c-0.4-0.3-0.8-0.4-1.2-0.4
	s-0.9,0.1-1.2,0.4C45.8,76.2,41.2,77.5,36.2,77.5z M44.3,91.1c1.7-3.6,2.6-7.6,2.7-11.6c1.1-0.5,2.1-1,3-1.6c0.9,0.6,1.9,1.1,3,1.6
	c0.1,4,1,8,2.7,11.6H44.3z"/>
</svg>
