<?xml version="1.0" encoding="utf-8"?>
<!-- Generator: Adobe Illustrator 21.0.2, SVG Export Plug-In . SVG Version: 6.00 Build 0)  -->
<svg version="1.1" id="Layer_1" xmlns="http://www.w3.org/2000/svg" xmlns:xlink="http://www.w3.org/1999/xlink" x="0px" y="0px"
	 viewBox="0 0 100 100" style="enable-background:new 0 0 100 100;" xml:space="preserve">
<path d="M72,28H50V7L28,28v22H7l21,22h22v21l22-21V50h21L72,28z M32,40l11.3,5.6C42.5,46.9,42,48.4,42,50H32V40z M50,68H40l5.7-11.3
	c1.2,0.8,2.7,1.3,4.3,1.3V68z M50,42V32h10l-5.7,11.3C53.1,42.5,51.6,42,50,42z M68,60l-11.3-5.7c0.8-1.2,1.3-2.7,1.3-4.3h10V60z"/>
</svg>
