<?xml version="1.0" encoding="utf-8"?>
<!-- Generator: Adobe Illustrator 21.0.2, SVG Export Plug-In . SVG Version: 6.00 Build 0)  -->
<svg version="1.1" id="Layer_1" xmlns="http://www.w3.org/2000/svg" xmlns:xlink="http://www.w3.org/1999/xlink" x="0px" y="0px"
	 viewBox="0 0 100 100" style="enable-background:new 0 0 100 100;" xml:space="preserve">
<path d="M94.5,48.6l-21-22C73.1,26.2,72.5,26,72,26H52V7c0-0.8-0.5-1.5-1.2-1.8C50,4.8,49.2,5,48.6,5.5l-22,21
	C26.2,26.9,26,27.5,26,28v20H7c-0.8,0-1.5,0.5-1.8,1.2C4.8,50,5,50.8,5.5,51.4l21,22c0.4,0.4,0.9,0.6,1.5,0.6h20v19
	c0,0.8,0.5,1.5,1.2,1.8C49.5,95,49.7,95,50,95c0.5,0,1-0.2,1.4-0.5l22-21c0.4-0.4,0.6-0.9,0.6-1.5V52h19c0.8,0,1.5-0.5,1.8-1.2
	C95.2,50,95,49.2,94.5,48.6z M52,30h6.8L53,41.5c-0.3-0.1-0.7-0.2-1-0.3V30z M30,28.9l18-17.2v29.6c-1.7,0.4-3.2,1.2-4.3,2.4
	L30,36.8V28.9z M30,41.2L41.5,47c-0.1,0.3-0.2,0.7-0.3,1H30V41.2z M28.9,70L11.7,52h29.6c0.4,1.7,1.2,3.1,2.4,4.3L36.8,70H28.9z
	 M48,70h-6.8L47,58.5c0.3,0.1,0.7,0.2,1,0.3V70z M50,55c-2.8,0-5-2.2-5-5s2.2-5,5-5s5,2.2,5,5S52.8,55,50,55z M70,71.1L52,88.3V58.8
	c1.7-0.4,3.2-1.2,4.3-2.4L70,63.2V71.1z M70,58.8L58.5,53c0.1-0.3,0.2-0.7,0.3-1H70V58.8z M58.8,48c-0.4-1.7-1.2-3.2-2.4-4.3
	L63.2,30h7.9l17.2,18H58.8z"/>
</svg>
