<?xml version="1.0" encoding="utf-8"?>
<!-- Generator: Adobe Illustrator 21.0.2, SVG Export Plug-In . SVG Version: 6.00 Build 0)  -->
<svg version="1.1" id="Layer_1" xmlns="http://www.w3.org/2000/svg" xmlns:xlink="http://www.w3.org/1999/xlink" x="0px" y="0px"
	 viewBox="0 0 100 100" style="enable-background:new 0 0 100 100;" xml:space="preserve">
<g>
	<path d="M49.2,60.7c-4.2,0-7.5,3.3-7.5,7.4c0,4.1,3.4,7.4,7.5,7.4c4.1,0,7.5-3.3,7.5-7.4C56.7,64,53.4,60.7,49.2,60.7z M49.2,71.5
		c-2,0-3.5-1.5-3.5-3.4c0-1.9,1.6-3.4,3.5-3.4c1.9,0,3.5,1.5,3.5,3.4C52.7,70,51.1,71.5,49.2,71.5z"/>
	<path d="M51.4,51.6c-0.9,0.8-0.9,2.2,0,3.1c0.9,0.8,2.3,0.8,3.1,0c0.9-0.8,0.9-2.2,0-3.1C53.7,50.7,52.3,50.7,51.4,51.6z"/>
	<path d="M49.4,80.5c-0.9,0.9-0.9,2.2,0,3.1c0.9,0.8,2.3,0.8,3.1,0c0.9-0.8,0.9-2.2,0-3.1C51.7,79.6,50.3,79.6,49.4,80.5z"/>
	<path d="M29.4,29.6c-0.9,0.8-0.9,2.2,0,3.1c0.9,0.8,2.3,0.8,3.1,0c0.9-0.8,0.9-2.2,0-3.1C31.7,28.7,30.3,28.7,29.4,29.6z"/>
	<path d="M86.5,13.8c-0.7-1.6-2.1-2.8-3.7-3.4c-21.2-7.3-44.4-7.2-65.5,0.4c-1.7,0.6-3,1.9-3.7,3.4c-0.7,1.6-0.7,3.4,0,5l11.9,27.6
		l19.1,44.3c1,2.4,3.3,3.9,5.9,3.9h0c2.6,0,4.9-1.5,5.9-3.9l30.2-72.3C87.2,17.2,87.2,15.4,86.5,13.8z M29.4,45.9
		c0.1-0.2,0.1-0.3,0.2-0.5c0.7-1.4,1.9-2.5,3.4-3.1c1.5-0.5,3.1-0.4,4.6,0.3c3,1.4,4.2,5,2.8,8c-0.7,1.4-1.9,2.5-3.4,3
		c-1.4,0.5-2.9,0.4-4.3-0.1L29.4,45.9z M74.7,36.7c-1.1-4.4-5.1-7.7-9.8-7.7c-5.6,0-10.2,4.5-10.2,10.1c0,5.6,4.5,10.1,10.2,10.1
		c1.9,0,3.7-0.5,5.2-1.5L52.7,89.5c-0.6,1.4-1.9,1.5-2.2,1.5c-0.4,0-1.7-0.1-2.2-1.4L34.6,58c0.1,0,0.3,0,0.4,0
		c1.1,0,2.2-0.2,3.3-0.6c2.5-0.9,4.5-2.7,5.7-5.1c1.2-2.4,1.3-5.1,0.4-7.6c-0.9-2.5-2.7-4.6-5.1-5.7c-4.1-2-9-0.9-11.9,2.5L21,26.4
		c6.3-2.5,12.9-4.2,19.6-5c-0.4,0.9-0.6,1.8-0.6,2.8c0,4.1,3.4,7.4,7.5,7.4s7.5-3.3,7.5-7.4c0-1.2-0.3-2.3-0.8-3.2
		c8.5,0.4,16.8,2.3,24.8,5.5L74.7,36.7z M71,39.1c0,3.4-2.8,6.1-6.2,6.1c-3.4,0-6.2-2.8-6.2-6.1c0-3.4,2.8-6.1,6.2-6.1
		C68.3,33,71,35.7,71,39.1z M44,24.1c0-1.6,1.2-2.9,2.7-3.3c0.5,0,1,0,1.5,0c1.6,0.3,2.8,1.7,2.8,3.3c0,1.9-1.6,3.4-3.5,3.4
		C45.6,27.5,44,26,44,24.1z M82.8,17.2l-2.3,5.5c-10.2-4.1-21.2-6.1-32.1-5.9c-0.3,0-0.6-0.1-1-0.1c-0.4,0-0.9,0-1.3,0.1
		c-9.2,0.4-18.3,2.4-26.8,5.8l-2.2-5.1c-0.2-0.6-0.2-1.2,0-1.8c0.3-0.6,0.8-1,1.4-1.3c20.2-7.2,42.5-7.3,62.9-0.3
		c0.6,0.2,1.1,0.6,1.4,1.2C83.1,16,83.1,16.6,82.8,17.2z"/>
</g>
</svg>
