<?xml version="1.0" encoding="utf-8"?>
<!-- Generator: Adobe Illustrator 21.0.2, SVG Export Plug-In . SVG Version: 6.00 Build 0)  -->
<svg version="1.1" id="Layer_1" xmlns="http://www.w3.org/2000/svg" xmlns:xlink="http://www.w3.org/1999/xlink" x="0px" y="0px"
	 viewBox="0 0 100 100" style="enable-background:new 0 0 100 100;" xml:space="preserve">
<g>
	<path d="M86.3,88.1l-8-16c-0.3-0.7-1-1.1-1.8-1.1H61.7L51.6,84.1c-0.4,0.5-1,0.8-1.6,0.8s-1.2-0.3-1.6-0.8L38.3,71H23.5
		c-0.8,0-1.4,0.4-1.8,1.1l-8,16c-0.5,0.9-0.1,1.7,0.1,1.9c0.2,0.3,0.7,1,1.7,1h69.1c1,0,1.5-0.7,1.7-1C86.4,89.7,86.8,89,86.3,88.1z
		"/>
	<path d="M50,79.6l21.2-27.4c8.5-11,7.1-26.8-3.1-36.2c-5.1-4.7-11.6-7-18-7s-12.9,2.4-18,7c-10.2,9.3-11.6,25.2-3.1,36.2L50,79.6z
		 M36,28.3v-1c0-5.2,4.2-9.3,9.3-9.3h9.3c5.2,0,9.3,4.2,9.3,9.3v1c2.3,0.8,4,3,4,5.7s-1.7,4.8-4,5.6V42c0,4.4-3.6,8-8,8H44
		c-4.4,0-8-3.6-8-8v-2.4c-2.3-0.8-4-3-4-5.6S33.7,29.2,36,28.3z"/>
	<path d="M38,36h24c1.1,0,2-0.9,2-2c0-1.1-0.9-2-2-2H38c-1.1,0-2,0.9-2,2C36,35.1,36.9,36,38,36z"/>
	<path d="M60,27.3c0-3-2.4-5.3-5.3-5.3h-9.3c-2.9,0-5.3,2.4-5.3,5.3V28h20V27.3z"/>
	<path d="M40,42c0,2.2,1.8,4,4,4h12c2.2,0,4-1.8,4-4v-2H40V42z"/>
</g>
</svg>
