<?xml version="1.0" encoding="utf-8"?>
<!-- Generator: Adobe Illustrator 21.0.2, SVG Export Plug-In . SVG Version: 6.00 Build 0)  -->
<svg version="1.1" id="Layer_1" xmlns="http://www.w3.org/2000/svg" xmlns:xlink="http://www.w3.org/1999/xlink" x="0px" y="0px"
	 viewBox="0 0 100 100" style="enable-background:new 0 0 100 100;" xml:space="preserve">
<g>
	<path d="M89.9,86.3l-8-16c-1-2.1-3.1-3.3-5.4-3.3H64.8l9.5-12.3c9.7-12.6,8.2-30.9-3.6-41.6c-11.8-10.8-29.7-10.8-41.5,0
		c-11.8,10.7-13.3,29-3.6,41.6L35.2,67H23.5c-2.3,0-4.3,1.3-5.4,3.3l-8,16c-0.9,1.9-0.8,4,0.3,5.8c1.1,1.8,3,2.9,5.1,2.9h69.1
		c2.1,0,4-1.1,5.1-2.9C90.7,90.4,90.8,88.2,89.9,86.3z M28.8,52.2c-8.5-11-7.1-26.8,3.1-36.2c5.1-4.7,11.6-7,18-7s12.9,2.4,18,7
		c10.2,9.3,11.6,25.2,3.1,36.2L50,79.6L28.8,52.2z M86.2,90c-0.2,0.3-0.7,1-1.7,1H15.5c-1,0-1.5-0.7-1.7-1c-0.2-0.3-0.5-1-0.1-1.9
		l8-16c0.3-0.7,1-1.1,1.8-1.1h14.8l10.2,13.1c0.4,0.5,1,0.8,1.6,0.8s1.2-0.3,1.6-0.8L61.7,71h14.8c0.8,0,1.4,0.4,1.8,1.1l8,16
		C86.8,89,86.4,89.8,86.2,90z"/>
	<path d="M64,42v-2.4c2.3-0.8,4-3,4-5.6s-1.7-4.8-4-5.7v-1c0-5.2-4.2-9.3-9.3-9.3h-9.3c-5.2,0-9.3,4.2-9.3,9.3v1c-2.3,0.8-4,3-4,5.7
		s1.7,4.8,4,5.6V42c0,4.4,3.6,8,8,8h12C60.4,50,64,46.4,64,42z M40,27.3c0-3,2.4-5.3,5.3-5.3h9.3c2.9,0,5.3,2.4,5.3,5.3V28H40V27.3z
		 M38,36c-1.1,0-2-0.9-2-2c0-1.1,0.9-2,2-2h24c1.1,0,2,0.9,2,2c0,1.1-0.9,2-2,2H38z M40,42v-2h20v2c0,2.2-1.8,4-4,4H44
		C41.8,46,40,44.2,40,42z"/>
</g>
</svg>
