<?xml version="1.0" encoding="utf-8"?>
<!-- Generator: Adobe Illustrator 21.0.2, SVG Export Plug-In . SVG Version: 6.00 Build 0)  -->
<svg version="1.1" id="Layer_1" xmlns="http://www.w3.org/2000/svg" xmlns:xlink="http://www.w3.org/1999/xlink" x="0px" y="0px"
	 viewBox="0 0 100 100" style="enable-background:new 0 0 100 100;" xml:space="preserve">
<path d="M83,59h-8.8l5.1-4.5c0.8-0.7,0.9-2,0.2-2.8c-0.7-0.8-2-0.9-2.8-0.2l-5.6,5v-6.7l8.2-7.3c0.8-0.7,0.9-2,0.2-2.8
	c-0.7-0.8-2-0.9-2.8-0.2l-5.6,5V37c0-1.1-0.9-2-2-2s-2,0.9-2,2v7.5l-5.6-5c-0.8-0.7-2.1-0.7-2.8,0.2c-0.7,0.8-0.6,2.1,0.2,2.8
	l8.2,7.3v6.7l-5.6-5c-0.8-0.7-2.1-0.7-2.8,0.2c-0.7,0.8-0.6,2.1,0.2,2.8l5.1,4.5H52V33.8l10.2-9.3c0.8-0.7,0.9-2,0.1-2.8
	c-0.7-0.8-2-0.9-2.8-0.1L52,28.4v-6.6l10.2-9.3c0.8-0.7,0.9-2,0.1-2.8c-0.7-0.8-2-0.9-2.8-0.1L52,16.4V7c0-1.1-0.9-2-2-2s-2,0.9-2,2
	v9.4l-7.5-6.9c-0.8-0.7-2.1-0.7-2.8,0.1c-0.7,0.8-0.7,2.1,0.1,2.8L48,21.8v6.6l-7.5-6.9c-0.8-0.7-2.1-0.7-2.8,0.1
	c-0.7,0.8-0.7,2.1,0.1,2.8L48,33.8V59H36.2l5.1-4.5c0.8-0.7,0.9-2,0.2-2.8c-0.7-0.8-2-0.9-2.8-0.2l-5.6,5v-6.7l8.2-7.3
	c0.8-0.7,0.9-2,0.2-2.8c-0.7-0.8-2-0.9-2.8-0.2l-5.6,5V37c0-1.1-0.9-2-2-2s-2,0.9-2,2v7.5l-5.6-5c-0.8-0.7-2.1-0.7-2.8,0.2
	c-0.7,0.8-0.6,2.1,0.2,2.8l8.2,7.3v6.7l-5.6-5c-0.8-0.7-2.1-0.7-2.8,0.2c-0.7,0.8-0.6,2.1,0.2,2.8l5.1,4.5H17c-3.3,0-6,2.7-6,6v8
	c0,12.1,9.9,22,22,22h34c12.1,0,22-9.9,22-22v-8C89,61.7,86.3,59,83,59z M67,91H33c-9.9,0-18-8.1-18-18h70C85,82.9,76.9,91,67,91z
	 M85,69H15v-4c0-1.1,0.9-2,2-2h66c1.1,0,2,0.9,2,2V69z"/>
</svg>
