<?xml version="1.0" encoding="utf-8"?>
<!-- Generator: Adobe Illustrator 21.0.2, SVG Export Plug-In . SVG Version: 6.00 Build 0)  -->
<svg version="1.1" id="Layer_1" xmlns="http://www.w3.org/2000/svg" xmlns:xlink="http://www.w3.org/1999/xlink" x="0px" y="0px"
	 viewBox="0 0 100 100" style="enable-background:new 0 0 100 100;" xml:space="preserve">
<g>
	<path d="M33,94h34c11,0,20-9,20-20H13C13,85,22,94,33,94z"/>
	<path d="M83,62H71.9l7.3-6.5c0.8-0.7,0.9-2,0.2-2.8c-0.7-0.8-2-0.9-2.8-0.2l-5.6,5v-6.7l8.2-7.3c0.8-0.7,0.9-2,0.2-2.8
		c-0.7-0.8-2-0.9-2.8-0.2l-5.6,5V38c0-1.1-0.9-2-2-2s-2,0.9-2,2v7.5l-5.6-5c-0.8-0.7-2.1-0.7-2.8,0.2c-0.7,0.8-0.6,2.1,0.2,2.8
		l8.2,7.3v6.7l-5.6-5c-0.8-0.7-2.1-0.7-2.8,0.2c-0.7,0.8-0.6,2.1,0.2,2.8l7.3,6.5H52V34.8l10.2-9.3c0.8-0.7,0.9-2,0.1-2.8
		c-0.7-0.8-2-0.9-2.8-0.1L52,29.4v-6.6l10.2-9.3c0.8-0.7,0.9-2,0.1-2.8c-0.7-0.8-2-0.9-2.8-0.1L52,17.4V8c0-1.1-0.9-2-2-2
		s-2,0.9-2,2v9.4l-7.5-6.9c-0.8-0.7-2.1-0.7-2.8,0.1c-0.7,0.8-0.7,2.1,0.1,2.8L48,22.8v6.6l-7.5-6.9c-0.8-0.7-2.1-0.7-2.8,0.1
		c-0.7,0.8-0.7,2.1,0.1,2.8L48,34.8V62H33.9l7.3-6.5c0.8-0.7,0.9-2,0.2-2.8c-0.7-0.8-2-0.9-2.8-0.2l-5.6,5v-6.7l8.2-7.3
		c0.8-0.7,0.9-2,0.2-2.8c-0.7-0.8-2-0.9-2.8-0.2l-5.6,5V38c0-1.1-0.9-2-2-2s-2,0.9-2,2v7.5l-5.6-5c-0.8-0.7-2.1-0.7-2.8,0.2
		c-0.7,0.8-0.6,2.1,0.2,2.8l8.2,7.3v6.7l-5.6-5c-0.8-0.7-2.1-0.7-2.8,0.2c-0.7,0.8-0.6,2.1,0.2,2.8l7.3,6.5H17c-2.2,0-4,1.8-4,4v4
		h74v-4C87,63.8,85.2,62,83,62z"/>
</g>
</svg>
