<?xml version="1.0" encoding="utf-8"?>
<!-- Generator: Adobe Illustrator 21.0.2, SVG Export Plug-In . SVG Version: 6.00 Build 0)  -->
<svg version="1.1" id="Layer_1" xmlns="http://www.w3.org/2000/svg" xmlns:xlink="http://www.w3.org/1999/xlink" x="0px" y="0px"
	 viewBox="0 0 100 100" style="enable-background:new 0 0 100 100;" xml:space="preserve">
<g>
	<path d="M81.2,11.4l-1.3-4.9C79.7,5.6,78.9,5,78,5H67c-1.1,0-2,0.9-2,2v20c0,2.8-2,5.2-4.6,5.8l-0.6-1.7C59,28.6,56.7,27,54.1,27
		h-8.2c-2.6,0-4.9,1.6-5.7,4.1l-0.6,1.7C37,32.2,35,29.8,35,27V7c0-1.1-0.9-2-2-2H22c-0.9,0-1.7,0.6-1.9,1.5l-1.3,4.9
		c-6.5,24.2-9.2,49.1-8.1,74.1c0.2,5.4,4.6,9.6,10,9.6h58.7c5.4,0,9.8-4.2,10-9.6C90.5,60.5,87.7,35.5,81.2,11.4z M85.3,85.3
		c-0.1,3.2-2.8,5.7-6,5.7H20.7c-3.2,0-5.9-2.5-6-5.7c0-0.8,0-1.5-0.1-2.3h70.8C85.4,83.8,85.4,84.5,85.3,85.3z M85.5,79H14.5
		c-0.4-22.5,2.3-44.9,8.2-66.6L23.5,9H31v18c0,5.5,4.5,10,10,10c0.9,0,1.6-0.5,1.9-1.4l1.1-3.3c0.3-0.8,1-1.4,1.9-1.4h8.2
		c0.9,0,1.6,0.5,1.9,1.4l1.1,3.3c0.3,0.8,1,1.4,1.9,1.4c5.5,0,10-4.5,10-10V9h7.5l0.9,3.4C83.2,34.1,85.9,56.5,85.5,79z"/>
	<path d="M59,45H41c-3.3,0-6,2.7-6,6v6c0,3.3,2.7,6,6,6h18c3.3,0,6-2.7,6-6v-6C65,47.7,62.3,45,59,45z M61,57c0,1.1-0.9,2-2,2H41
		c-1.1,0-2-0.9-2-2v-6c0-1.1,0.9-2,2-2h18c1.1,0,2,0.9,2,2V57z"/>
</g>
</svg>
