<?xml version="1.0" encoding="utf-8"?>
<!-- Generator: Adobe Illustrator 21.0.2, SVG Export Plug-In . SVG Version: 6.00 Build 0)  -->
<svg version="1.1" id="Layer_1" xmlns="http://www.w3.org/2000/svg" xmlns:xlink="http://www.w3.org/1999/xlink" x="0px" y="0px"
	 viewBox="0 0 100 100" style="enable-background:new 0 0 100 100;" xml:space="preserve">
<g>
	<path d="M12.7,85.4c0.2,4.3,3.7,7.6,8,7.6h58.7c4.3,0,7.8-3.4,8-7.6c0-0.8,0-1.6,0.1-2.4H12.6C12.6,83.8,12.6,84.6,12.7,85.4z"/>
	<path d="M79.3,11.9L78,7H67v20c0,4.4-3.6,8-8,8l-1.1-3.3c-0.5-1.6-2.1-2.7-3.8-2.7h-8.2c-1.7,0-3.2,1.1-3.8,2.7L41,35
		c-4.4,0-8-3.6-8-8V7H22l-1.3,4.9c-5.9,21.9-8.6,44.5-8.2,67.1h75.1C87.9,56.4,85.2,33.8,79.3,11.9z M65,57c0,3.3-2.7,6-6,6H41
		c-3.3,0-6-2.7-6-6v-6c0-3.3,2.7-6,6-6h18c3.3,0,6,2.7,6,6V57z"/>
	<path d="M59,49H41c-1.1,0-2,0.9-2,2v6c0,1.1,0.9,2,2,2h18c1.1,0,2-0.9,2-2v-6C61,49.9,60.1,49,59,49z"/>
</g>
</svg>
