<?xml version="1.0" encoding="utf-8"?>
<!-- Generator: Adobe Illustrator 23.0.1, SVG Export Plug-In . SVG Version: 6.00 Build 0)  -->
<svg version="1.1" id="Layer_1" xmlns="http://www.w3.org/2000/svg" xmlns:xlink="http://www.w3.org/1999/xlink" x="0px" y="0px"
	 viewBox="0 0 100 100" style="enable-background:new 0 0 100 100;" xml:space="preserve">
<path d="M52,24.7h-4v-4c0-5.5,4.5-10,10-10h4v4C62,20.2,57.5,24.7,52,24.7z M81.7,35.8c-2.6-4.9-7.2-8.3-12.6-9.4
	c-6.5-1.3-13.2,1-17.6,6.1c-0.8,0.9-2.3,0.9-3,0c-4.3-5.1-11.1-7.4-17.6-6.1c-5.4,1.1-10.1,4.5-12.6,9.4c-2.6,4.9-2.8,10.6-0.7,15.8
	L23,64.3v-3.7c0-3.9,3.1-7,7-7s7,3.1,7,7v12c0,0.3,0.1,0.7,0.2,1c0.4,1.2,1.5,2,2.8,2s2.4-0.8,2.8-2c0.1-0.3,0.2-0.7,0.2-1v-14
	c0-3.9,3.1-7,7-7s7,3.1,7,7v8c0,1.6,1.3,3,3,3s3-1.4,3-3v-4c0-3.9,3.1-7,7-7s7,3.1,7,7v1.7l5.4-12.8C84.6,46.4,84.3,40.7,81.7,35.8z
	 M73,62.7c0-1.7-1.3-3-3-3s-3,1.3-3,3v4c0,3.9-3.1,7-7,7s-7-3.1-7-7v-8c0-1.7-1.3-3-3-3s-3,1.3-3,3v14c0,0.3,0,0.7-0.1,1
	c-0.5,3.4-3.4,6-6.9,6s-6.4-2.6-6.9-6c0-0.3-0.1-0.7-0.1-1v-12c0-1.7-1.3-3-3-3s-3,1.3-3,3v13c0,0,0,0.1,0,0.1l3.6,8.6
	c2.1,5,7.5,7.9,12.8,6.8c1.9-0.4,3.8-1.3,5.2-2.6c0.4-0.3,0.8-0.5,1.3-0.5s0.9,0.2,1.3,0.5c1.5,1.3,3.3,2.2,5.2,2.6
	c5.3,1.1,10.7-1.8,12.8-6.8l3.6-8.6c0,0,0-0.1,0-0.1V62.7z"/>
</svg>
