<?xml version="1.0" encoding="utf-8"?>
<!-- Generator: Adobe Illustrator 23.0.1, SVG Export Plug-In . SVG Version: 6.00 Build 0)  -->
<svg version="1.1" id="Layer_1" xmlns="http://www.w3.org/2000/svg" xmlns:xlink="http://www.w3.org/1999/xlink" x="0px" y="0px"
	 viewBox="0 0 100 100" style="enable-background:new 0 0 100 100;" xml:space="preserve">
<style type="text/css">
	.st0{fill:#000000;}
</style>
<path class="st0" d="M85.3,34.9c-3.2-6-8.8-10.2-15.4-11.5c-1.2-0.2-2.3-0.4-3.5-0.4c2.2-2.5,3.6-5.8,3.6-9.4v-6c0-1.1-0.9-2-2-2h-6
	c-7.7,0-14,6.3-14,14v2v4v1.9c-5-3.8-11.6-5.4-17.9-4.1c-6.6,1.3-12.2,5.5-15.4,11.5c-3.2,6-3.5,13-0.8,19.2l13,30.8
	c2.9,6.7,10.1,10.6,17.3,9.2c2.1-0.4,4-1.2,5.8-2.4c1.7,1.2,3.7,2,5.8,2.4c1,0.2,2,0.3,3,0.3c6.1,0,11.8-3.7,14.3-9.5l13-30.8
	C88.7,47.9,88.4,40.9,85.3,34.9z M52,19.7c0-5.5,4.5-10,10-10h4v4c0,5.5-4.5,10-10,10h-4v-2V19.7z M69.4,83.3
	c-2.1,5-7.5,7.9-12.8,6.8c-1.9-0.4-3.7-1.3-5.2-2.6c-0.4-0.3-0.8-0.5-1.3-0.5s-0.9,0.2-1.3,0.5c-1.5,1.3-3.3,2.2-5.2,2.6
	c-5.3,1.1-10.7-1.8-12.8-6.8L27,74.8c0,0,0-0.1,0-0.1v-13c0-1.7,1.3-3,3-3s3,1.3,3,3v12c0,3.9,3.1,7,7,7s7-3.1,7-7v-14
	c0-1.7,1.3-3,3-3s3,1.3,3,3v8c0,3.9,3.1,7,7,7s7-3.1,7-7v-4c0-1.7,1.3-3,3-3s3,1.3,3,3v11c0,0,0,0.1,0,0.1L69.4,83.3z M82.4,52.5
	L77,65.3v-1.7c0-3.9-3.1-7-7-7s-7,3.1-7,7v4c0,1.7-1.3,3-3,3s-3-1.3-3-3v-8c0-3.9-3.1-7-7-7c-3.9,0-7,3.1-7,7v14c0,1.7-1.3,3-3,3
	s-3-1.3-3-3v-12c0-3.9-3.1-7-7-7s-7,3.1-7,7v3.7l-5.4-12.8c-2.2-5.1-1.9-10.9,0.7-15.8s7.2-8.3,12.6-9.4c6.5-1.3,13.2,1,17.6,6.1
	c0.8,0.9,2.3,0.9,3,0c4.3-5.1,11.1-7.4,17.6-6.1c5.4,1.1,10,4.5,12.6,9.4C84.3,41.7,84.6,47.4,82.4,52.5z"/>
</svg>
