<?xml version="1.0" encoding="utf-8"?>
<!-- Generator: Adobe Illustrator 23.0.1, SVG Export Plug-In . SVG Version: 6.00 Build 0)  -->
<svg version="1.1" id="Layer_1" xmlns="http://www.w3.org/2000/svg" xmlns:xlink="http://www.w3.org/1999/xlink" x="0px" y="0px"
	 viewBox="0 0 100 100" style="enable-background:new 0 0 100 100;" xml:space="preserve">
<style type="text/css">
	.st0{fill:#000000;}
</style>
<path class="st0" d="M72.2,37.6c-4-3.7-5.3-9.4-3-14.2l2.6-5.6c0.3-0.6,0.2-1.3-0.1-1.9c-0.4-0.6-1-0.9-1.7-0.9H60V7
	c0-1.1-0.9-2-2-2H42c-1.1,0-2,0.9-2,2v8H30c-0.7,0-1.3,0.4-1.7,0.9c-0.4,0.6-0.4,1.3-0.1,1.9l2.6,5.6c2.2,4.8,1.1,10.5-2.7,13.9
	C20.5,44,16.5,53.7,17.1,63.9C18,80.8,32,94.5,49,95c0.3,0,0.7,0,1,0c8.6,0,16.8-3.3,23-9.3C79.4,79.4,83,71,83,62
	C83,52.7,79.1,43.8,72.2,37.6z M44,9h12v6H44V9z M30.8,40.3c5.2-4.6,6.7-12.2,3.7-18.6L33.2,19H42h16h8.8l-1.3,2.7
	c-3,6.4-1.4,14,3.9,18.8c6,5.5,9.5,13.2,9.5,21.4c-5.9,3.3-11.7-0.1-17.3-3.4c-0.6-0.3-1.2-0.7-1.8-1c-6.5-3.7-13-5.9-19.4-6.6
	c-5.5-0.6-11.6,0-18,1.7C24.1,48,26.9,43.7,30.8,40.3z M70.2,82.8C64.5,88.3,57,91.2,49.1,91C34.2,90.5,21.9,78.5,21,63.6
	c-0.1-2.2,0-4.4,0.4-6.5c6.8-2,13.1-2.8,18.7-2.2c5.8,0.6,11.8,2.6,17.8,6.1c0.6,0.3,1.1,0.7,1.7,1c4.2,2.4,9,5.3,14.3,5.3
	c1.6,0,3.1-0.3,4.7-0.8C77.7,72.6,74.8,78.3,70.2,82.8z M39,66c-3.9,0-7,3.1-7,7s3.1,7,7,7s7-3.1,7-7S42.9,66,39,66z M39,76
	c-1.7,0-3-1.3-3-3s1.3-3,3-3s3,1.3,3,3S40.7,76,39,76z M32,62c0,1.1-0.9,2-2,2s-2-0.9-2-2c0-1.1,0.9-2,2-2S32,60.9,32,62z M52,82
	c0,1.1-0.9,2-2,2s-2-0.9-2-2c0-1.1,0.9-2,2-2S52,80.9,52,82z"/>
</svg>
