<?xml version="1.0" encoding="utf-8"?>
<!-- Generator: Adobe Illustrator 21.0.2, SVG Export Plug-In . SVG Version: 6.00 Build 0)  -->
<svg version="1.1" id="Layer_1" xmlns="http://www.w3.org/2000/svg" xmlns:xlink="http://www.w3.org/1999/xlink" x="0px" y="0px"
	 viewBox="0 0 100 100" style="enable-background:new 0 0 100 100;" xml:space="preserve">
<path d="M93,79h-4.7c1.2-7.2,4.6-26.8,4.6-30.5c0-13.1-9.8-24-22.9-25.4c-1.3-0.1-2.6-0.1-4.3,0l-8.7,0.6c-0.8,0.1-3,0-8.8-0.7
	l-15.5-1.8c-0.5-1.2-1.4-2.2-2.4-3c-1.5-1.1-3.4-1.5-5.2-1.2c-1.8,0.3-3.4,1.4-4.5,2.9c-1.1,1.5-1.5,3.4-1.2,5.2c0,0,0,0,0,0.1
	l-2.2,2.2c-1.6,1.6-3.7,2.8-5.9,3.5c-1.6,0.4-2.9,1.5-3.7,3S6.8,37,7.4,38.6c1.3,3.8,4.1,6.7,7.9,8.1l12.6,4.6
	c-0.5,6.3,1.1,12.5,4.4,17.8c-3.6,0.8-6.3,4-6.3,7.8v2H7c-1.1,0-2,0.9-2,2c0,1.1,0.9,2,2,2h20.8c0.1,0,0.1,0,0.2,0h18
	c0.1,0,0.1,0,0.2,0h21.6c0.1,0,0.1,0,0.2,0h18c0.1,0,0.2,0,0.2,0H93c1.1,0,2-0.9,2-2C95,79.9,94.1,79,93,79z M65.9,77v2h-18V63.7
	c6.5,1.7,13.4,1.7,19.9,0c0.3,2.2,1.2,4.4,2.8,6C67.9,71,65.9,73.8,65.9,77z M84.3,79H69.9v-2c0-2.2,1.8-4,4-4h2
	c0.9,0,1.7-0.6,1.9-1.4c0.2-0.8-0.1-1.8-0.8-2.2l-2.3-1.5c-2.2-1.4-3.3-3.9-2.8-6.5c0.1-0.7-0.1-1.4-0.7-1.9
	c-0.5-0.5-1.3-0.6-1.9-0.4c-6.9,2.3-14.4,2.4-21.4,0.4V55c0-1.1-0.9-2-2-2c-1.1,0-2,0.9-2,2v24h-14v-2c0-2.2,1.8-4,4-4h2
	c0.8,0,1.5-0.4,1.8-1.1c0.3-0.7,0.2-1.5-0.2-2.1l-0.1-0.1C33,64.2,31,57.2,31.9,50.3c0.1-0.9-0.4-1.8-1.3-2.1l-14-5.2
	c-2.6-1-4.6-3-5.5-5.6c-0.2-0.5-0.1-1.1,0.1-1.6c0.3-0.5,0.7-0.8,1.2-1c2.9-0.8,5.5-2.4,7.6-4.5l3-3c0.6-0.6,0.8-1.6,0.3-2.4
	c0-0.1,0-0.2,0-0.4c-0.1-0.8,0-1.6,0.5-2.2c0.5-0.7,1.2-1.1,1.9-1.2c0.8-0.1,1.6,0,2.2,0.5c0.6,0.4,1.1,1.1,1.2,1.8
	c0,0.3,0.2,0.6,0.3,0.9c0.4,0.6,1.2,1,1.9,0.9l16,1.9l0.3,0c4.7,0.6,7.9,0.8,9.5,0.7l8.7-0.6c1.4-0.1,2.6-0.1,3.6,0
	c11,1.1,19.3,10.3,19.3,21.4C88.9,51.7,85.8,70.2,84.3,79z"/>
</svg>
