<?xml version="1.0" encoding="utf-8"?>
<!-- Generator: Adobe Illustrator 21.0.2, SVG Export Plug-In . SVG Version: 6.00 Build 0)  -->
<svg version="1.1" id="Layer_1" xmlns="http://www.w3.org/2000/svg" xmlns:xlink="http://www.w3.org/1999/xlink" x="0px" y="0px"
	 viewBox="0 0 100 100" style="enable-background:new 0 0 100 100;" xml:space="preserve">
<path d="M93,78h-6.7c1.1-6.5,4.6-26.9,4.6-30.5c0-6.1-2.3-11.6-6.1-15.8c-3.8-4.2-9.1-7-15-7.6c-1.3-0.1-2.6-0.1-4,0l-8.7,0.6
	c-2.5,0.2-8.8-0.7-9.4-0.7l-16.5-2c-0.5-2.7-3.1-4.5-5.8-4c-2.7,0.5-4.5,3.1-4,5.8l0.3,1l-3,3c-1.9,1.9-4.2,3.2-6.7,4l-0.1,0
	c-2.1,0.6-3.3,2.9-2.6,5l0.1,0.2c1,3.1,3.4,5.6,6.5,6.7L29.9,49c-0.2,1.2-0.2,2.4-0.2,3.6c0,6.3,2.1,12.4,6.1,17.3l0.1,0.1h-2
	c-3.3,0-6,2.7-6,6v2H7c-1.1,0-2,0.9-2,2c0,1.1,0.9,2,2,2h86c1.1,0,2-0.9,2-2C95,78.9,94.1,78,93,78z M67.9,76v2H46.1l1.4-17.5
	c7.4,2.1,15.2,2,22.5-0.5l0,0.2c0.6,3.5,2,6.8,4,9.8C70.6,70,67.9,72.7,67.9,76z"/>
</svg>
