<?xml version="1.0" encoding="utf-8"?>
<!-- Generator: Adobe Illustrator 21.0.2, SVG Export Plug-In . SVG Version: 6.00 Build 0)  -->
<svg version="1.1" id="Layer_1" xmlns="http://www.w3.org/2000/svg" xmlns:xlink="http://www.w3.org/1999/xlink" x="0px" y="0px"
	 viewBox="0 0 100 100" style="enable-background:new 0 0 100 100;" xml:space="preserve">
<g>
	<path d="M75,29L75,29c0-0.3,0-0.7,0-1c0-4.4-3.6-8-8-8c0-4.4-3.6-8-8-8c-0.5,0-1,0-1.5,0.1C56.3,9.1,53.4,7,50,7s-6.3,2.1-7.5,5.1
		C42,12,41.5,12,41,12c-4.4,0-8,3.6-8,8c-4.4,0-8,3.6-8,8c0,0.3,0,0.7,0.1,1H25c-3.7,0-6.8,2.5-7.7,6h65.5C81.8,31.5,78.7,29,75,29z
		 M49.7,22.5c-0.3,0.2-0.7,0.3-1,0.3c-0.7,0-1.4-0.4-1.7-1c-0.8-1.4-2.7-1.9-4.1-1.1c-1,0.6-1.5,1.6-1.5,2.6c0,0.5,0.1,1,0.4,1.5
		c0.5,1,0.2,2.2-0.7,2.7c-0.3,0.2-0.7,0.3-1,0.3c-0.7,0-1.4-0.4-1.7-1c-1.9-3.3-0.8-7.6,2.5-9.6c3.3-1.9,7.6-0.8,9.6,2.5
		C51,20.7,50.6,21.9,49.7,22.5z M65.2,30.7c-0.3,0.9-1.1,1.4-1.9,1.4c-0.2,0-0.4,0-0.6-0.1c-0.9-0.3-1.4-1-1.4-1.9
		c0-0.2,0-0.4,0.1-0.6c0.3-1.1-0.3-2.2-1.3-2.5c-0.2-0.1-0.4-0.1-0.6-0.1c-0.8,0-1.6,0.6-1.9,1.4c-0.3,1.1-1.4,1.7-2.5,1.3
		c-1.1-0.3-1.7-1.4-1.3-2.5c1-3.2,4.3-5,7.5-4C64.3,24.1,66.1,27.5,65.2,30.7z"/>
	<path d="M52,93h8c0-0.1,0-0.1,0-0.2l1.4-15.7c-2.6,1-5.8,1.7-9.4,1.9V93z"/>
	<path d="M52,49v10c4.2,0.2,7.9,1.1,10.7,2.4L63.8,49H52z"/>
	<path d="M40,92.8c0,0.1,0,0.1,0,0.2h8V79c-3.5-0.2-6.7-0.8-9.4-1.9L40,92.8z"/>
	<path d="M31,69c0-1.9,0.9-3.6,2.5-5.1L32.2,49H21l5.6,40.5c0.3,2,2,3.5,4,3.5H36l-1.6-18.2C32.3,73.2,31,71.2,31,69z"/>
	<path d="M66.5,63.9c1.6,1.5,2.5,3.2,2.5,5.1c0,2.2-1.3,4.2-3.4,5.8L64,93h5.5c2,0,3.7-1.5,4-3.5L79,49H67.8L66.5,63.9z"/>
	<path d="M48,49H36.2l1.1,12.5c2.9-1.3,6.5-2.2,10.7-2.4V49z"/>
	<path d="M17,39v4c0,1.1,0.9,2,2,2h62c1.1,0,2-0.9,2-2v-4H17z"/>
	<path d="M50,63c-9.3,0-15,3.5-15,6s5.7,6,15,6s15-3.5,15-6S59.3,63,50,63z"/>
</g>
</svg>
