<?xml version="1.0" encoding="utf-8"?>
<!-- Generator: Adobe Illustrator 21.0.2, SVG Export Plug-In . SVG Version: 6.00 Build 0)  -->
<svg version="1.1" id="Layer_1" xmlns="http://www.w3.org/2000/svg" xmlns:xlink="http://www.w3.org/1999/xlink" x="0px" y="0px"
	 viewBox="0 0 100 100" style="enable-background:new 0 0 100 100;" xml:space="preserve">
<g>
	<path d="M77,27.2c-0.4-4.5-3.8-8.2-8.1-9C68,13.4,63.7,9.8,58.7,10C56.9,7,53.6,5,50,5s-6.9,2-8.7,5c-5-0.2-9.3,3.4-10.2,8.2
		c-4.4,0.8-7.8,4.5-8.1,9c-4.6,0.9-8,5-8,9.8v6c0,2.6,1.6,4.8,3.9,5.6l5.6,41.2c0.4,2.9,3,5.2,6,5.2h39c3,0,5.5-2.2,6-5.2l5.6-41.2
		c2.3-0.9,3.9-3,3.9-5.6v-6C85,32.2,81.5,28.1,77,27.2z M25,31h0.1c0.6,0,1.1-0.2,1.5-0.7c0.4-0.4,0.6-1,0.5-1.6c0-0.2,0-0.5,0-0.8
		c0-3.3,2.7-6,6-6c1.1,0,2-0.9,2-2c0-3.7,3.4-6.6,7.2-5.9c0.9,0.2,1.9-0.3,2.2-1.2C45.3,10.5,47.5,9,50,9s4.7,1.5,5.6,3.9
		c0.4,0.9,1.3,1.4,2.2,1.2c3.8-0.7,7.2,2.2,7.2,5.9c0,1.1,0.9,2,2,2c3.3,0,6,2.7,6,6c0,0.3,0,0.5,0,0.8c-0.1,0.6,0.1,1.1,0.5,1.6
		c0.4,0.4,0.9,0.7,1.5,0.7H75c2.6,0,4.8,1.7,5.6,4H19.3C20.2,32.7,22.4,31,25,31z M30.5,91c-1,0-1.8-0.7-2-1.7L23,49h9.2l1.3,14.9
		C31.9,65.4,31,67.1,31,69c0,2.2,1.3,4.2,3.4,5.8L35.8,91H30.5z M48,91h-8.2l-1.2-13.9c2.6,1,5.8,1.7,9.4,1.9V91z M60.2,91H52V79
		c3.5-0.2,6.7-0.8,9.4-1.9L60.2,91z M50,75c-9.3,0-15-3.5-15-6s5.7-6,15-6s15,3.5,15,6S59.3,75,50,75z M36.2,49H48v10
		c-4.2,0.2-7.9,1.1-10.7,2.4L36.2,49z M52,59V49h11.8l-1.1,12.5C59.9,60.1,56.2,59.3,52,59z M71.5,89.3c-0.1,1-1,1.7-2,1.7h-5.3
		l1.4-16.2c2.1-1.6,3.4-3.6,3.4-5.8c0-1.9-0.9-3.6-2.5-5.1L67.8,49H77L71.5,89.3z M81,43c0,1.1-0.9,2-2,2H21c-1.1,0-2-0.9-2-2v-4h62
		V43z"/>
	<path d="M40.8,19.2c-3.3,1.9-4.5,6.2-2.5,9.6c0.4,0.6,1,1,1.7,1c0.3,0,0.7-0.1,1-0.3c1-0.6,1.3-1.8,0.7-2.7
		c-0.8-1.4-0.3-3.3,1.1-4.1c1.4-0.8,3.3-0.3,4.1,1.1c0.6,1,1.8,1.3,2.7,0.7c1-0.6,1.3-1.8,0.7-2.7C48.5,18.4,44.2,17.2,40.8,19.2z"
		/>
	<path d="M61.2,23.2c-3.2-1-6.5,0.8-7.5,4c-0.3,1,0.3,2.2,1.3,2.5c1,0.3,2.2-0.3,2.5-1.3c0.3-1,1.5-1.6,2.5-1.3s1.7,1.4,1.3,2.5
		c-0.3,1,0.3,2.2,1.3,2.5c0.2,0.1,0.4,0.1,0.6,0.1c0.8,0,1.6-0.6,1.9-1.4C66.1,27.5,64.3,24.1,61.2,23.2z"/>
</g>
</svg>
