<?xml version="1.0" encoding="utf-8"?>
<!-- Generator: Adobe Illustrator 21.0.2, SVG Export Plug-In . SVG Version: 6.00 Build 0)  -->
<svg version="1.1" id="Layer_1" xmlns="http://www.w3.org/2000/svg" xmlns:xlink="http://www.w3.org/1999/xlink" x="0px" y="0px"
	 viewBox="0 0 100 100" style="enable-background:new 0 0 100 100;" xml:space="preserve">
<g>
	<path d="M88,5H12c-3.9,0-7,3.1-7,7c0,3.5,2.6,6.4,6,6.9V63c0,4.4,3.6,8,8,8h29v10.3c-2.9,0.9-5,3.5-5,6.7c0,3.9,3.1,7,7,7
		s7-3.1,7-7c0-3.2-2.1-5.8-5-6.7V71h29c4.4,0,8-3.6,8-8V18.9c3.4-0.5,6-3.4,6-6.9C95,8.1,91.9,5,88,5z M53,88c0,1.6-1.3,3-3,3
		s-3-1.4-3-3c0-1.7,1.3-3,3-3S53,86.3,53,88z M85,63c0,2.2-1.8,4-4,4H19c-2.2,0-4-1.8-4-4V19h70V63z M88,15H12c-1.7,0-3-1.4-3-3
		c0-1.7,1.3-3,3-3h76c1.7,0,3,1.3,3,3C91,13.6,89.7,15,88,15z"/>
	<path d="M27,59h12c3.3,0,6-2.7,6-6V41c0-0.6-0.3-1.2-0.7-1.5l-2.2-1.8c-1.5-1.2-2.5-2.8-2.9-4.7H43c1.1,0,2-0.9,2-2
		c0-1.1-0.9-2-2-2H23c-1.1,0-2,0.9-2,2c0,1.1,0.9,2,2,2h3.8c-0.4,1.8-1.4,3.5-2.9,4.7l-2.2,1.8c-0.5,0.4-0.7,1-0.7,1.5v12
		C21,56.3,23.7,59,27,59z M25,41.9l1.4-1.2c2.4-2,3.9-4.7,4.4-7.7h4.3c0.5,3,2,5.8,4.4,7.7l1.4,1.2V45H25V41.9z M25,49h16v4
		c0,1.1-0.9,2-2,2H27c-1.1,0-2-0.9-2-2V49z"/>
	<path d="M55,45h22c1.1,0,2-0.9,2-2c0-1.1-0.9-2-2-2h-4v-4c0-1.1-0.9-2-2-2s-2,0.9-2,2v4h-4v-8c0-1.1-0.9-2-2-2s-2,0.9-2,2v8h-4V27
		c0-1.1-0.9-2-2-2s-2,0.9-2,2v16C53,44.1,53.9,45,55,45z"/>
	<path d="M55,53h22c1.1,0,2-0.9,2-2c0-1.1-0.9-2-2-2H55c-1.1,0-2,0.9-2,2C53,52.1,53.9,53,55,53z"/>
	<path d="M55,61h22c1.1,0,2-0.9,2-2c0-1.1-0.9-2-2-2H55c-1.1,0-2,0.9-2,2C53,60.1,53.9,61,55,61z"/>
</g>
</svg>
