<?xml version="1.0" encoding="utf-8"?>
<!-- Generator: Adobe Illustrator 21.0.2, SVG Export Plug-In . SVG Version: 6.00 Build 0)  -->
<svg version="1.1" id="Layer_1" xmlns="http://www.w3.org/2000/svg" xmlns:xlink="http://www.w3.org/1999/xlink" x="0px" y="0px"
	 viewBox="0 0 100 100" style="enable-background:new 0 0 100 100;" xml:space="preserve">
<g>
	<path d="M13,62c0,3.3,2.7,6,6,6h29v14c0,0.1,0,0.3,0,0.4c-1.8,0.8-3,2.5-3,4.6c0,2.8,2.2,5,5,5s5-2.2,5-5c0-2.1-1.2-3.8-3-4.6
		c0-0.1,0-0.3,0-0.4V68h29c3.3,0,6-2.7,6-6V18H13V62z M53,26c0-1.1,0.9-2,2-2s2,0.9,2,2v14h4v-8c0-0.5,0.2-0.9,0.5-1.3
		c0.4-0.4,0.9-0.7,1.5-0.7c1.1,0,2,0.9,2,2v8h4v-4c0-1.1,0.9-2,2-2s2,0.9,2,2v4h4c1.1,0,2,0.9,2,2c0,1.1-0.9,2-2,2H55
		c-1.1,0-2-0.9-2-2V26z M55,48h22c1.1,0,2,0.9,2,2c0,1.1-0.9,2-2,2H55c-1.1,0-2-0.9-2-2C53,48.9,53.9,48,55,48z M55,56h22
		c1.1,0,2,0.9,2,2c0,1.1-0.9,2-2,2H55c-1.1,0-2-0.9-2-2C53,56.9,53.9,56,55,56z M21,40c0-0.6,0.3-1.2,0.7-1.5l2.2-1.8
		c1.5-1.2,2.5-2.8,2.9-4.7H23c-1.1,0-2-0.9-2-2c0-1.1,0.9-2,2-2h20c1.1,0,2,0.9,2,2c0,1.1-0.9,2-2,2h-3.8c0.4,1.8,1.4,3.5,2.9,4.7
		l2.2,1.8c0.5,0.4,0.7,1,0.7,1.5v12c0,3.3-2.7,6-6,6H27c-3.3,0-6-2.7-6-6V40z"/>
	<path d="M88,8H12c-1.7,0-3,1.3-3,3c0,1.6,1.3,3,3,3h76c1.7,0,3-1.4,3-3C91,9.3,89.7,8,88,8z"/>
	<path d="M41,40.9l-1.4-1.2c-2.4-2-3.9-4.7-4.4-7.7h-4.3c-0.5,3-2,5.8-4.4,7.7L25,40.9V44h16V40.9z"/>
	<path d="M27,54h12c1.1,0,2-0.9,2-2v-4H25v4C25,53.1,25.9,54,27,54z"/>
</g>
</svg>
