<?xml version="1.0" encoding="utf-8"?>
<!-- Generator: Adobe Illustrator 23.0.1, SVG Export Plug-In . SVG Version: 6.00 Build 0)  -->
<svg version="1.1" id="Layer_1" xmlns="http://www.w3.org/2000/svg" xmlns:xlink="http://www.w3.org/1999/xlink" x="0px" y="0px"
	 viewBox="0 0 100 100" style="enable-background:new 0 0 100 100;" xml:space="preserve">
<path d="M42.8,18.1l-1.9-6.7l4.7,1.2c0.7,0.2,1.4,0,1.9-0.5L50,9.4l2.6,2.6c0.5,0.5,1.2,0.7,1.9,0.5l4.6-1.2l-1.9,6.7
	c-1.6-0.6-3.4-0.9-5.2-0.9h-4C46.2,17.1,44.4,17.5,42.8,18.1z M52,83.2c0,0.1,0,0.2,0,0.4c-0.2,0.9-1,1.6-2,1.6s-1.8-0.7-2-1.6
	c0-0.1,0-0.2,0-0.4c0-1.8-1.4-3.2-3.2-3.2h-7.1v10.6h24.7V79.9h-7.1C53.4,79.9,52,81.4,52,83.2z M66.9,69.9h-2.6
	c-4.8,0-8.8-3.5-9.7-8.1c-0.9,0.2-1.8,0.3-2.7,0.3h-4c-0.9,0-1.8-0.1-2.7-0.3c-0.8,4.6-4.8,8.1-9.7,8.1h-2.6c-3.2,0-5.8,2.6-5.8,5.8
	v12.9c0,1.1,0.9,2,2,2h4.4V75.3c0-1.1,0.9-2,2-2c1.1,0,2,0.9,2,2v0.6h7.1c2.1,0,3.9,0.9,5.2,2.2c1.3-1.4,3.2-2.2,5.2-2.2h7.1v-0.6
	c0-1.1,0.9-2,2-2c1.1,0,2,0.9,2,2v15.2h4.4c1.1,0,2-0.9,2-2V75.7C72.8,72.5,70.2,69.9,66.9,69.9z M32.1,42.7h2.6c1.1,0,2,0.9,2,2v2
	c0,6.3,5.1,11.4,11.4,11.4h4c6.3,0,11.4-5.1,11.4-11.4v-2c0-1.1,0.9-2,2-2h2.6c1.2,0,2.3-1,2.3-2.3s-1-2.3-2.3-2.3h-2.6
	c0,0-0.1,0-0.1,0h-0.1c-2.7-0.3-5.3-1-7.6-2c-0.2-0.1-0.3-0.1-0.5-0.2c0,0.1,0,0.1,0,0.2c0,0.1,0,0.1,0,0.2c-0.2,1-1.1,1.6-2.1,1.5
	c-2.6-0.2-4.5-0.9-6-1.7c-1.2-0.7-2.1-1.4-2.8-2.2c-1.1,0.8-2.4,1.6-3.8,2.2c-2.3,1-4.9,1.7-7.6,2c-0.1,0-0.1,0-0.2,0c0,0,0,0,0,0
	h-2.6c-1.2,0-2.3,1-2.3,2.3S30.8,42.7,32.1,42.7z M47.1,29c0.7,0.2,1.2,0.7,1.5,1.3c0.1,0.3,0.6,1.6,2.5,2.5c-0.1-0.7,0-1.5,0.2-2.5
	c0.2-0.7,0.7-1.3,1.5-1.5c0.7-0.2,1.5,0,2,0.6c1.4,1.6,4.4,3.5,8.7,4.4v-1.4c0-6.3-5.1-11.4-11.4-11.4h-4c-6.3,0-11.4,5.1-11.4,11.4
	v1.3c4.1-0.8,7.1-2.7,8.6-4.3C45.7,29.1,46.4,28.9,47.1,29z"/>
</svg>
