<?xml version="1.0" encoding="utf-8"?>
<!-- Generator: Adobe Illustrator 23.0.1, SVG Export Plug-In . SVG Version: 6.00 Build 0)  -->
<svg version="1.1" id="Layer_1" xmlns="http://www.w3.org/2000/svg" xmlns:xlink="http://www.w3.org/1999/xlink" x="0px" y="0px"
	 viewBox="0 0 100 100" style="enable-background:new 0 0 100 100;" xml:space="preserve">
<style type="text/css">
	.st0{fill:#000000;}
</style>
<path class="st0" d="M66.9,66.3h-2.6c-3,0-5.5-2.3-5.8-5.3c5.2-2.5,8.8-7.8,8.8-13.9h0.6c3.5,0,6.3-2.8,6.3-6.3
	c0-3.5-2.8-6.3-6.3-6.3h-0.6v-1.7c0-5.2-2.6-9.8-6.5-12.6l3.1-10.8c0.2-0.7,0-1.4-0.5-1.9c-0.5-0.5-1.2-0.7-1.9-0.5l-6.9,1.7
	l-3.2-3.2c-0.8-0.8-2-0.8-2.8,0l-3.2,3.2l-6.9-1.7c-0.7-0.2-1.4,0-1.9,0.5c-0.5,0.5-0.7,1.2-0.5,1.9l3.1,10.8
	c-4,2.8-6.5,7.4-6.5,12.6v1.7h-0.6c-3.5,0-6.3,2.8-6.3,6.3c0,3.5,2.8,6.3,6.3,6.3h0.6c0,6.1,3.6,11.4,8.8,13.9
	c-0.3,3-2.8,5.3-5.8,5.3h-2.6c-5.4,0-9.8,4.4-9.8,9.8V89c0,3.3,2.7,6,6,6h41.5c3.3,0,6-2.7,6-6V76.1C76.8,70.7,72.3,66.3,66.9,66.3z
	 M45.5,12.9c0.7,0.2,1.4,0,1.9-0.5L50,9.8l2.6,2.6c0.5,0.5,1.2,0.7,1.9,0.5l4.6-1.2l-1.9,6.7c-1.6-0.6-3.4-0.9-5.2-0.9h-4
	c-1.8,0-3.6,0.3-5.2,0.9l-1.9-6.7L45.5,12.9z M36.6,32.9c0-6.3,5.1-11.4,11.4-11.4h4c6.3,0,11.4,5.1,11.4,11.4v1.4
	c-4.2-0.9-7.3-2.8-8.7-4.4c-0.5-0.6-1.3-0.8-2-0.6c-0.7,0.2-1.3,0.8-1.5,1.5c-0.2,0.9-0.3,1.7-0.2,2.5c-1.9-0.9-2.4-2.2-2.5-2.5
	c-0.2-0.7-0.8-1.2-1.5-1.3c-0.7-0.2-1.4,0.1-1.9,0.6c-1.5,1.5-4.5,3.4-8.6,4.3V32.9z M36.6,47.1v-2c0-1.1-0.9-2-2-2h-2.6
	c-1.2,0-2.3-1-2.3-2.3s1-2.3,2.3-2.3h2.6c0,0,0,0,0,0c0.1,0,0.1,0,0.2,0c4.2-0.4,8.4-2,11.3-4.2c1.4,1.6,4,3.4,8.8,3.8
	c1,0.1,1.9-0.5,2.1-1.5c0-0.1,0-0.2,0.1-0.4c2.4,1.1,5.2,1.9,8,2.2h0.1c0,0,0.1,0,0.1,0h2.6c1.2,0,2.3,1,2.3,2.3s-1,2.3-2.3,2.3
	h-2.6c-1.1,0-2,0.9-2,2v2c0,6.3-5.1,11.4-11.4,11.4h-4C41.7,58.5,36.6,53.4,36.6,47.1z M62.3,91H37.7V80.4h7.1
	c1.8,0,3.2,1.4,3.2,3.2c0,1.1,0.9,2,2,2s2-0.9,2-2c0-1.8,1.4-3.2,3.2-3.2h7.1V91z M72.8,89c0,1.1-0.9,2-2,2h-4.4V75.8
	c0-1.1-0.9-2-2-2c-1.1,0-2,0.9-2,2v0.6h-7.1c-2.1,0-3.9,0.9-5.2,2.2c-1.3-1.4-3.2-2.2-5.2-2.2h-7.1v-0.6c0-1.1-0.9-2-2-2
	c-1.1,0-2,0.9-2,2V91h-4.4c-1.1,0-2-0.9-2-2V76.1c0-3.2,2.6-5.8,5.8-5.8h2.6c4.8,0,8.8-3.5,9.7-8.1c0.9,0.2,1.8,0.3,2.7,0.3h4
	c0.9,0,1.8-0.1,2.7-0.3c0.8,4.6,4.8,8.1,9.7,8.1h2.6c3.2,0,5.8,2.6,5.8,5.8V89z"/>
</svg>
