<?xml version="1.0" encoding="utf-8"?>
<!-- Generator: Adobe Illustrator 23.0.1, SVG Export Plug-In . SVG Version: 6.00 Build 0)  -->
<svg version="1.1" id="Layer_1" xmlns="http://www.w3.org/2000/svg" xmlns:xlink="http://www.w3.org/1999/xlink" x="0px" y="0px"
	 viewBox="0 0 100 100" style="enable-background:new 0 0 100 100;" xml:space="preserve">
<path d="M42.8,21.1l-1.9-6.7l4.7,1.2c0.7,0.2,1.4,0,1.9-0.5l2.6-2.6l2.6,2.6c0.5,0.5,1.2,0.7,1.9,0.5l4.6-1.2l-1.9,6.7
	c-1.6-0.6-3.4-0.9-5.2-0.9h-4C46.2,20.1,44.4,20.5,42.8,21.1z M53,68.6V65c-0.3,0-0.7,0.1-1,0.1h-4c-0.4,0-0.7,0-1-0.1v3.5
	c0,1.6,1.3,3,3,3S53,70.2,53,68.6z M32.1,45.7h2.6c1.1,0,2,0.9,2,2v2c0,6.3,5.1,11.4,11.4,11.4h4c6.3,0,11.4-5.1,11.4-11.4v-2
	c0-1.1,0.9-2,2-2h2.6c1.2,0,2.3-1,2.3-2.3s-1-2.3-2.3-2.3h-2.6c0,0-0.1,0-0.1,0h-0.1c-2.7-0.3-5.3-1-7.6-2c-0.2-0.1-0.3-0.1-0.5-0.2
	c0,0.1,0,0.1,0,0.2c0,0.1,0,0.1,0,0.2c-0.2,1-1.1,1.6-2.1,1.5c-2.6-0.2-4.5-0.9-6-1.7c-1.2-0.7-2.1-1.4-2.8-2.2
	c-1.1,0.8-2.4,1.6-3.8,2.2c-2.3,1-4.9,1.7-7.6,2c-0.1,0-0.1,0-0.2,0c0,0,0,0,0,0h-2.6c-1.2,0-2.3,1-2.3,2.3S30.8,45.7,32.1,45.7z
	 M47.1,32c0.7,0.2,1.2,0.7,1.5,1.3c0.1,0.3,0.6,1.6,2.5,2.5c-0.1-0.7,0-1.5,0.2-2.5c0.2-0.7,0.7-1.3,1.5-1.5c0.7-0.2,1.5,0,2,0.6
	c1.4,1.6,4.4,3.5,8.7,4.4v-1.4c0-6.3-5.1-11.4-11.4-11.4h-4c-6.3,0-11.4,5.1-11.4,11.4v1.3c4.1-0.8,7.1-2.7,8.6-4.3
	C45.7,32.1,46.4,31.9,47.1,32z M63,79.6v-8h-6.7c-0.8,1.8-2.4,3.1-4.3,3.7v12.3h19c1.1,0,2-0.9,2-2v-4h-8C63.9,81.6,63,80.7,63,79.6
	z M43.7,71.6H37v8c0,1.1-0.9,2-2,2h-7v4c0,1.1,0.9,2,2,2h18V75.3C46.1,74.7,44.5,73.4,43.7,71.6z M33,71.6h-7c-1.7,0-3,1.3-3,3
	c0,1.6,1.3,3,3,3h7V71.6z M74,71.6h-7v6h7c1.7,0,3-1.4,3-3C77,72.9,75.7,71.6,74,71.6z"/>
</svg>
