<?xml version="1.0" encoding="utf-8"?>
<!-- Generator: Adobe Illustrator 23.0.1, SVG Export Plug-In . SVG Version: 6.00 Build 0)  -->
<svg version="1.1" id="Layer_1" xmlns="http://www.w3.org/2000/svg" xmlns:xlink="http://www.w3.org/1999/xlink" x="0px" y="0px"
	 viewBox="0 0 100 100" style="enable-background:new 0 0 100 100;" xml:space="preserve">
<style type="text/css">
	.st0{fill:#000000;}
</style>
<path class="st0" d="M74,68H57v-3.3c6-2.1,10.4-7.8,10.4-14.5h0.6c3.5,0,6.3-2.8,6.3-6.3c0-3.5-2.8-6.3-6.3-6.3h-0.6v-1.7
	c0-5.2-2.6-9.8-6.5-12.6l3.1-10.8c0.2-0.7,0-1.4-0.5-1.9c-0.5-0.5-1.2-0.7-1.9-0.5l-6.9,1.7l-3.2-3.2c-0.8-0.8-2-0.8-2.8,0l-3.2,3.2
	l-6.9-1.7c-0.7-0.2-1.4,0-1.9,0.5c-0.5,0.5-0.7,1.2-0.5,1.9l3.1,10.8c-4,2.8-6.5,7.4-6.5,12.6v1.7h-0.6c-3.5,0-6.3,2.8-6.3,6.3
	c0,3.5,2.8,6.3,6.3,6.3h0.6c0,6.7,4.3,12.4,10.4,14.5V68H26c-3.9,0-7,3.1-7,7c0,3.2,2.1,5.8,5,6.7V86c0,3.3,2.7,6,6,6h41
	c3.3,0,6-2.7,6-6v-4.7c2.4-1.1,4-3.5,4-6.3C81,71.1,77.9,68,74,68z M45.5,15.9c0.7,0.2,1.4,0,1.9-0.5l2.6-2.6l2.6,2.6
	c0.5,0.5,1.2,0.7,1.9,0.5l4.6-1.2l-1.9,6.7c-1.6-0.6-3.4-0.9-5.2-0.9h-4c-1.8,0-3.6,0.3-5.2,0.9l-1.9-6.7L45.5,15.9z M36.6,35.9
	c0-6.3,5.1-11.4,11.4-11.4h4c6.3,0,11.4,5.1,11.4,11.4v1.4c-4.2-0.9-7.3-2.8-8.7-4.4c-0.5-0.6-1.3-0.8-2-0.6
	c-0.7,0.2-1.3,0.8-1.5,1.5c-0.2,0.9-0.3,1.7-0.2,2.5c-1.9-0.9-2.4-2.2-2.5-2.5c-0.2-0.7-0.8-1.2-1.5-1.3c-0.7-0.2-1.4,0.1-1.9,0.6
	c-1.5,1.5-4.5,3.4-8.6,4.3V35.9z M36.6,50.1v-2c0-1.1-0.9-2-2-2h-2.6c-1.2,0-2.3-1-2.3-2.3s1-2.3,2.3-2.3h2.6c0,0,0,0,0,0
	c0.1,0,0.1,0,0.2,0c4.2-0.4,8.4-2,11.3-4.2c1.4,1.6,4,3.4,8.8,3.8c1,0.1,1.9-0.5,2.1-1.5c0-0.1,0-0.2,0.1-0.4c2.4,1.1,5.2,1.9,8,2.2
	h0.1c0,0,0.1,0,0.1,0h2.6c1.2,0,2.3,1,2.3,2.3s-1,2.3-2.3,2.3h-2.6c-1.1,0-2,0.9-2,2v2c0,6.3-5.1,11.4-11.4,11.4h-4
	C41.7,61.5,36.6,56.4,36.6,50.1z M23,75c0-1.7,1.3-3,3-3h7v6h-7C24.3,78,23,76.6,23,75z M48,88H30c-1.1,0-2-0.9-2-2v-4h7
	c1.1,0,2-0.9,2-2v-8h6.7c0.8,1.8,2.4,3.1,4.3,3.7V88z M47,69v-3.5c0.3,0,0.7,0.1,1,0.1h4c0.4,0,0.7,0,1-0.1V69c0,1.6-1.3,3-3,3
	S47,70.6,47,69z M73,86c0,1.1-0.9,2-2,2H52V75.7c1.9-0.6,3.5-1.9,4.3-3.7H63v8c0,1.1,0.9,2,2,2h8V86z M74,78h-7v-6h7
	c1.7,0,3,1.3,3,3C77,76.6,75.7,78,74,78z"/>
</svg>
