<?xml version="1.0" encoding="utf-8"?>
<!-- Generator: Adobe Illustrator 21.0.2, SVG Export Plug-In . SVG Version: 6.00 Build 0)  -->
<svg version="1.1" id="Layer_1" xmlns="http://www.w3.org/2000/svg" xmlns:xlink="http://www.w3.org/1999/xlink" x="0px" y="0px"
	 viewBox="0 0 100 100" style="enable-background:new 0 0 100 100;" xml:space="preserve">
<g>
	<path d="M28.9,61.9h0.2c1.3,0,2.5-0.5,3.5-1.4c0.9-0.9,1.4-2.2,1.4-3.5c0-0.3,0-0.5,0-0.8c0.2-1.7,0.9-3.1,2-4.3
		c1.3-1.3,3.1-2.1,5-2.1c3.3,0,6.1,2.3,6.8,5.4c0.1,0.5,0.2,1,0.2,1.6v1c0,1.1,0.9,2,2,2s2-0.9,2-2v-5c0-3.9,3.1-7,7-7s7,3.1,7,7
		v0.5c0,0.2,0,0.5,0.1,0.7c0.3,2.1,2.2,3.8,4.4,3.8c2.4,0,4.4-2,4.5-4.4c0,0,0-0.1,0-0.1c0-0.1,0-0.2,0-0.3L71.9,40
		c-0.9-3.6-4.1-6.1-7.8-6.1H53.9c1.6-0.9,2.8-2.3,3.5-4c0.4-0.9,0.6-1.9,0.6-3c0-3.5-2.2-6.4-5.2-7.5v-0.1c0.3-3.8-1.3-7.5-4.3-9.8
		c-0.9-0.7-2.1-0.5-2.8,0.4S45.1,12,46,12.7c2,1.5,3,3.8,2.8,6.3l0,0c-3.8,0.6-6.8,3.9-6.8,7.9c0,1.1,0.2,2.1,0.6,3
		c0.7,1.7,1.9,3.1,3.5,4H35.9c-3.7,0-6.9,2.5-7.8,6.1l-4,16.8l-0.1,0c0,0,0,0.1,0,0.1C24,59.7,26.2,61.9,28.9,61.9z"/>
	<path d="M81.2,78.9l-4.7-19.5c-1.5,1.6-3.7,2.5-6,2.5c-4.3,0-8-3.3-8.4-7.5c0-0.3-0.1-0.7-0.1-1v-0.5c0-1.7-1.3-3-3-3s-3,1.3-3,3v5
		c0,3.3-2.7,6-6,6s-6-2.7-6-6v-1c0-0.5-0.1-0.9-0.3-1.3c-0.5-1-1.5-1.7-2.7-1.7c-0.8,0-1.6,0.3-2.1,0.9c-0.3,0.3-0.6,0.7-0.7,1.2
		c-0.1,0.3-0.2,0.6-0.2,1c0,2.5-0.9,4.7-2.6,6.4c-1.7,1.7-3.9,2.6-6.3,2.6h-0.2c-2.5,0-4.8-1-6.4-2.7l-3.8,15.7H7
		c3.7,7.3,11.2,12,19.4,12h47.2c8.2,0,15.7-4.7,19.4-12H81.2z"/>
</g>
</svg>
