<?xml version="1.0" encoding="utf-8"?>
<!-- Generator: Adobe Illustrator 21.0.2, SVG Export Plug-In . SVG Version: 6.00 Build 0)  -->
<svg version="1.1" id="Layer_1" xmlns="http://www.w3.org/2000/svg" xmlns:xlink="http://www.w3.org/1999/xlink" x="0px" y="0px"
	 viewBox="0 0 100 100" style="enable-background:new 0 0 100 100;" xml:space="preserve">
<path d="M94.7,79.8c-0.4-0.6-1-1-1.7-1h-7.4l-9.8-40.8c-1.3-5.4-6.1-9.2-11.7-9.2H58c1.3-1.7,2-3.8,2-6c0-4.6-3.1-8.4-7.3-9.6
	c-0.3-3.1-1.8-5.9-4.3-7.8c-0.9-0.7-2.1-0.5-2.8,0.4S45.1,8,46,8.7c1.4,1.1,2.3,2.6,2.7,4.3c-4.9,0.7-8.7,4.8-8.7,9.9
	c0,2.2,0.8,4.3,2,6h-6.1c-5.6,0-10.4,3.8-11.7,9.2l-9.8,40.8H7c-0.7,0-1.3,0.4-1.7,1c-0.4,0.6-0.4,1.3-0.1,1.9
	c4,8.1,12.2,13.1,21.2,13.1h47.2c9,0,17.2-5,21.2-13.1C95.1,81.2,95.1,80.4,94.7,79.8z M48.6,17.1l-0.1,1.4
	c-0.1,1.1,0.7,2.1,1.8,2.2h0.2c1,0,1.9-0.8,2-1.8l0.1-1.4c2,1,3.4,3,3.4,5.4c0,3.3-2.7,6-6,6s-6-2.7-6-6C44,20.1,46,17.7,48.6,17.1z
	 M28.1,39c0.9-3.6,4.1-6.1,7.8-6.1h28.2c3.7,0,6.9,2.5,7.8,6.1L75,52.1c0,0.1,0,0.2,0,0.3c0,2.5-2,4.5-4.5,4.5s-4.5-2-4.5-4.5v-0.5
	c0-3.9-3.1-7-7-7s-7,3.1-7,7v5c0,1.1-0.9,2-2,2s-2-0.9-2-2v-1c0-3.9-3.1-7-7-7c-1.9,0-3.6,0.7-5,2.1c-1.3,1.3-2,3.1-2,5
	c0,1.3-0.5,2.5-1.4,3.5c-0.9,0.9-2.2,1.4-3.5,1.4h-0.2c-2.7,0-4.9-2.2-4.9-4.8L28.1,39z M22.5,62.2c1.6,1.7,3.9,2.7,6.4,2.7h0.2
	c2.4,0,4.6-0.9,6.3-2.6c1.7-1.7,2.6-3.9,2.6-6.4c0-0.8,0.3-1.6,0.9-2.1c0.6-0.6,1.3-0.9,2.1-0.9c1.7,0,3,1.3,3,3v1c0,3.3,2.7,6,6,6
	s6-2.7,6-6v-5c0-1.7,1.3-3,3-3s3,1.3,3,3v0.5c0,4.7,3.8,8.5,8.5,8.5c2.4,0,4.5-1,6-2.5l4.9,20.5H18.5L22.5,62.2z M73.6,90.9H26.4
	c-6.4,0-12.2-3-15.9-8h78.9C85.8,87.9,80,90.9,73.6,90.9z"/>
</svg>
