<?xml version="1.0" encoding="utf-8"?>
<!-- Generator: Adobe Illustrator 23.0.1, SVG Export Plug-In . SVG Version: 6.00 Build 0)  -->
<svg version="1.1" id="Layer_1" xmlns="http://www.w3.org/2000/svg" xmlns:xlink="http://www.w3.org/1999/xlink" x="0px" y="0px"
	 viewBox="0 0 100 100" style="enable-background:new 0 0 100 100;" xml:space="preserve">
<style type="text/css">
	.st0{fill:#000000;}
</style>
<path class="st0" d="M72.7,73.2C75.3,71,77,67.7,77,64c0-4.6-2.6-8.6-6.5-10.6c0.2-1.1,0.4-2.3,0.4-3.5c3.9-0.6,6.9-3.8,7-7.7
	c0.1-2.2-0.7-4.2-2.3-5.8c-1.3-1.3-2.9-2.1-4.7-2.4V6c0-1.1-0.9-2-2-2s-2,0.9-2,2c0,4.1-3.4,7.5-7.5,7.5S52,10.1,52,6
	c0-1.1-0.9-2-2-2s-2,0.9-2,2c0,4.1-3.4,7.5-7.5,7.5S33,10.1,33,6c0-1.1-0.9-2-2-2s-2,0.9-2,2v28.1c-3.8,0.6-6.9,3.8-7,7.7
	c-0.1,2.2,0.7,4.2,2.3,5.8c1.3,1.3,3,2.2,4.8,2.4c0.1,1.2,0.3,2.3,0.5,3.4c-3.9,2-6.6,6-6.6,10.7c0,3.7,1.7,7,4.3,9.2
	C22.4,75.4,19,80.3,19,86v8c0,1.1,0.9,2,2,2h58c1.1,0,2-0.9,2-2v-8C81,80.3,77.6,75.4,72.7,73.2z M73,64c0,4.4-3.6,8-8,8h-8v-3.2
	c2.8-1,5.4-2.5,7.6-4.7c2.1-2,3.6-4.3,4.7-6.8C71.5,58.7,73,61.2,73,64z M33,14.7c2,1.7,4.6,2.8,7.5,2.8c3.9,0,7.4-2,9.5-5
	c2.1,3,5.6,5,9.5,5c2.9,0,5.5-1,7.5-2.8V24H33V14.7z M67,28v6h-7c-3.7,0-6.8-2.6-7.7-6H67z M33,28h14.7c-0.9,3.4-4,6-7.7,6h-7V28z
	 M27.1,44.8C26.4,44,26,43,26,41.9c0.1-2.1,2-3.9,4.2-3.9H40c4.2,0,7.8-2.1,10-5.4c2.2,3.2,5.8,5.4,10,5.4h10c1.1,0,2.1,0.4,2.9,1.2
	C73.6,40,74,41,74,42.1c-0.1,2.1-2,3.9-4.2,3.9H69c-1.1,0-2,0.9-2,2v1c0,4.7-1.8,9-5.2,12.2c-3.3,3.2-7.8,4.9-12.4,4.8
	c-9-0.3-16.4-8.2-16.4-17.5V48c0-1.1-0.9-2-2-2h-1C28.9,46,27.9,45.6,27.1,44.8z M27,64c0-2.9,1.5-5.4,3.8-6.8
	c2.3,5.3,6.8,9.6,12.2,11.6V72h-8C30.6,72,27,68.4,27,64z M23,92v-6c0-0.7,0.1-1.4,0.2-2H38c4.8,0,8.9,3.4,9.8,8H23z M50,86.8
	c-2.5-4.1-6.9-6.8-12-6.8H25c1.8-2.4,4.7-4,8-4h12c1.1,0,2-0.9,2-2v-4.2c0.7,0.1,1.5,0.2,2.2,0.2c0.2,0,0.5,0,0.8,0c1,0,2-0.1,3-0.2
	V74c0,1.1,0.9,2,2,2h12c3.3,0,6.2,1.6,8,4H62C56.9,80,52.5,82.7,50,86.8z M77,92H52.2c0.9-4.6,5-8,9.8-8h14.8c0.1,0.6,0.2,1.3,0.2,2
	V92z"/>
</svg>
