<?xml version="1.0" encoding="utf-8"?>
<!-- Generator: Adobe Illustrator 21.0.2, SVG Export Plug-In . SVG Version: 6.00 Build 0)  -->
<svg version="1.1" id="Layer_1" xmlns="http://www.w3.org/2000/svg" xmlns:xlink="http://www.w3.org/1999/xlink" x="0px" y="0px"
	 viewBox="0 0 100 100" style="enable-background:new 0 0 100 100;" xml:space="preserve">
<path d="M91,64.1V62c0-22.6-18.4-41-41-41S9,39.4,9,62v2.1c-2.4,1.4-4,4-4,6.9c0,4.4,3.6,8,8,8h21c3.9,0,7-3.1,7-7
	c0-3.5-2.6-6.5-6-6.9c-0.2-1.7-0.9-3.3-1.9-4.7C33.9,51.8,41.2,45,50,45s16.1,6.8,16.9,15.4c-1,1.4-1.7,3-1.9,4.7
	c-3.4,0.5-6,3.4-6,6.9c0,3.9,3.1,7,7,7h21c4.4,0,8-3.6,8-8C95,68,93.4,65.5,91,64.1z M13,62c0-20.4,16.6-37,37-37s37,16.6,37,37v1
	h-0.5c-0.9-2.7-3.1-4.9-5.9-6.1C78.1,42.2,65.4,31,50,31S21.9,42.2,19.4,56.9c-2.8,1.2-5,3.4-5.9,6.1H13V62z M34,69c1.7,0,3,1.3,3,3
	c0,1.6-1.3,3-3,3H13c-2.2,0-4-1.8-4-4c0-2.2,1.8-4,4-4h2.1c1,0,1.8-0.7,2-1.7c0.4-3,3.4-5.3,6.9-5.3c3.9,0,7,2.7,7,6
	c0,0.2,0,0.4-0.1,0.7c-0.1,0.6,0.1,1.2,0.5,1.6c0.4,0.4,0.9,0.7,1.5,0.7H34z M50,41c-10,0-18.3,7-20.5,16.4C27.9,56.5,26,56,24,56
	c-0.1,0-0.2,0-0.3,0C26.4,44,37.2,35,50,35s23.6,9,26.3,21c-0.1,0-0.2,0-0.3,0c-2,0-3.9,0.5-5.5,1.4C68.3,48,60,41,50,41z M87,75H66
	c-1.7,0-3-1.4-3-3c0-1.7,1.3-3,3-3h1.1c0.6,0,1.1-0.2,1.5-0.7c0.4-0.4,0.5-1,0.5-1.6c0-0.3-0.1-0.5-0.1-0.7c0-3.3,3.1-6,7-6
	c3.5,0,6.5,2.3,6.9,5.3c0.1,1,1,1.7,2,1.7H87c2.2,0,4,1.8,4,4C91,73.2,89.2,75,87,75z"/>
</svg>
