<?xml version="1.0" encoding="utf-8"?>
<!-- Generator: Adobe Illustrator 21.0.2, SVG Export Plug-In . SVG Version: 6.00 Build 0)  -->
<svg version="1.1" id="Layer_1" xmlns="http://www.w3.org/2000/svg" xmlns:xlink="http://www.w3.org/1999/xlink" x="0px" y="0px"
	 viewBox="0 0 100 100" style="enable-background:new 0 0 100 100;" xml:space="preserve">
<g>
	<path d="M91,77.3V69c0-8.8-7.2-16-16-16h-8.2c-1.1,0-2.2-0.5-2.9-1.3c-0.8-0.8-1.1-1.9-1.1-3L65,17.1c0,0,0-0.1,0-0.1
		c0,0,0-0.1,0-0.1V7c0-1.1-0.9-2-2-2H31c-1.1,0-2,0.9-2,2v6H7c-1.1,0-2,0.9-2,2v10c0,0,0,0,0,0.1c0,0,0,0,0,0.1L8.9,83H7
		c-1.1,0-2,0.9-2,2v8c0,1.1,0.9,2,2,2h14c1.1,0,2-0.9,2-2v-6h3.8l3.5,6.9c0.3,0.7,1,1.1,1.8,1.1h37c1.1,0,2-0.9,2-2v-4h22
		c1.1,0,2-0.9,2-2v-4C95,80.4,93.3,78.2,91,77.3z M66.8,57H75c6.6,0,12,5.4,12,12v8H67c0-8.8-7.2-16-16-16h-8.2
		c-1.1,0-2.2-0.5-2.9-1.3c-0.8-0.8-1.1-1.9-1.1-3L41,25.1c0,0,0-0.1,0-0.1c0,0,0-0.1,0-0.1v-6h19.8l-2.1,29.4
		c-0.2,2.2,0.6,4.4,2.1,6C62.4,56.1,64.6,57,66.8,57z M33,9h28v6H41c0-1.1-0.9-2-2-2h-6V9z M9,17h28v6H9V17z M19,91H9v-4h10V91z
		 M12.9,83L9.1,27h27.7l-2.1,29.4c-0.2,2.2,0.6,4.4,2.1,6c1.5,1.6,3.6,2.5,5.9,2.5H51c6.6,0,12,5.4,12,12v6H12.9z M67,91H33.2l-2-4
		H65c1.1,0,2,0.9,2,2V91z M91,85H69.5c-0.7-0.7-1.5-1.3-2.5-1.7V81h22c1.1,0,2,0.9,2,2V85z"/>
	<path d="M20,30c-3.3,0-6,2.7-6,6s2.7,6,6,6s6-2.7,6-6S23.3,30,20,30z M20,38c-1.1,0-2-0.9-2-2c0-1.1,0.9-2,2-2s2,0.9,2,2
		C22,37.1,21.1,38,20,38z"/>
</g>
</svg>
