<?xml version="1.0" encoding="utf-8"?>
<!-- Generator: Adobe Illustrator 21.0.2, SVG Export Plug-In . SVG Version: 6.00 Build 0)  -->
<svg version="1.1" id="Layer_1" xmlns="http://www.w3.org/2000/svg" xmlns:xlink="http://www.w3.org/1999/xlink" x="0px" y="0px"
	 viewBox="0 0 100 100" style="enable-background:new 0 0 100 100;" xml:space="preserve">
<g>
	<path d="M86,35.6C85.8,25.3,77.4,17,67,17c-3.1,0-6.2,0.8-8.9,2.2C55.6,10.9,47.9,5,39,5c-10.6,0-19.3,8.3-20,18.7
		C10.8,25.9,5,33.3,5,42c0,10.5,8.5,19,19,19h58c7.2,0,13-5.8,13-13C95,42.3,91.3,37.3,86,35.6z M82,57H24c-8.3,0-15-6.7-15-15
		c0-7.3,5.2-13.5,12.4-14.8c1-0.2,1.7-1,1.7-2c0-0.1,0-0.2,0-0.2c0-8.8,7.2-16,16-16c7.9,0,14.7,5.9,15.8,13.7
		c0.1,0.7,0.6,1.3,1.2,1.6c0.6,0.3,1.4,0.2,2-0.3c2.6-2,5.7-3,9-3c8.3,0,15,6.7,15,15c0,0.3,0,0.6,0,0.9l0,0.2
		c-0.1,1,0.6,1.9,1.6,2.1c4.3,0.8,7.4,4.5,7.4,8.9C91,53,87,57,82,57z"/>
	<path d="M20,65c-1.1,0-2,0.9-2,2v8c0,1.1,0.9,2,2,2s2-0.9,2-2v-8C22,65.9,21.1,65,20,65z"/>
	<path d="M20,83c-1.1,0-2,0.9-2,2v8c0,1.1,0.9,2,2,2s2-0.9,2-2v-8C22,83.9,21.1,83,20,83z"/>
	<path d="M30,65c-1.1,0-2,0.9-2,2v8c0,1.1,0.9,2,2,2s2-0.9,2-2v-8C32,65.9,31.1,65,30,65z"/>
	<path d="M40,65c-1.1,0-2,0.9-2,2v8c0,1.1,0.9,2,2,2s2-0.9,2-2v-8C42,65.9,41.1,65,40,65z"/>
	<path d="M40,83c-1.1,0-2,0.9-2,2v8c0,1.1,0.9,2,2,2s2-0.9,2-2v-8C42,83.9,41.1,83,40,83z"/>
	<path d="M50,83c-1.1,0-2,0.9-2,2v8c0,1.1,0.9,2,2,2s2-0.9,2-2v-8C52,83.9,51.1,83,50,83z"/>
	<path d="M60,65c-1.1,0-2,0.9-2,2v8c0,1.1,0.9,2,2,2s2-0.9,2-2v-8C62,65.9,61.1,65,60,65z"/>
	<path d="M60,83c-1.1,0-2,0.9-2,2v8c0,1.1,0.9,2,2,2s2-0.9,2-2v-8C62,83.9,61.1,83,60,83z"/>
	<path d="M70,65c-1.1,0-2,0.9-2,2v8c0,1.1,0.9,2,2,2s2-0.9,2-2v-8C72,65.9,71.1,65,70,65z"/>
	<path d="M80,65c-1.1,0-2,0.9-2,2v8c0,1.1,0.9,2,2,2s2-0.9,2-2v-8C82,65.9,81.1,65,80,65z"/>
	<path d="M80,83c-1.1,0-2,0.9-2,2v8c0,1.1,0.9,2,2,2s2-0.9,2-2v-8C82,83.9,81.1,83,80,83z"/>
	<circle cx="30" cy="84" r="2"/>
	<circle cx="30" cy="93" r="2"/>
	<circle cx="70" cy="84" r="2"/>
	<circle cx="70" cy="93" r="2"/>
	<circle cx="50" cy="67" r="2"/>
	<circle cx="50" cy="76" r="2"/>
</g>
</svg>
