<?xml version="1.0" encoding="utf-8"?>
<!-- Generator: Adobe Illustrator 21.0.2, SVG Export Plug-In . SVG Version: 6.00 Build 0)  -->
<svg version="1.1" id="Layer_1" xmlns="http://www.w3.org/2000/svg" xmlns:xlink="http://www.w3.org/1999/xlink" x="0px" y="0px"
	 viewBox="0 0 100 100" style="enable-background:new 0 0 100 100;" xml:space="preserve">
<g>
	<path d="M93,80.5c0-1.5-0.8-2.8-2-3.5c-0.6-0.3-1.3-0.5-2-0.5h-2v-7c0-6.6-5.4-12-12-12h-8.2c-2.2,0-4.4-0.9-5.9-2.5
		c-1.5-1.6-2.3-3.8-2.1-6l2.1-29.4H41v6c0,0,0,0,0,0.1c0,0,0,0,0,0.1l-2.2,31.6c-0.1,1.1,0.3,2.2,1.1,3c0.8,0.8,1.8,1.3,2.9,1.3H51
		c8.5,0,15.4,6.6,16,15c0,0.3,0,0.7,0,1V83c-0.6-0.3-1.3-0.5-2-0.5h-2v-5c0-6.6-5.4-12-12-12h-8.2c-2.2,0-4.3-0.9-5.9-2.5
		c-1.5-1.6-2.3-3.8-2.1-6l2.1-29.4H9.1l3.7,55H7v8h14v-7h7.5l3.5,7h37v-4c0-0.7-0.2-1.4-0.5-2H93V80.5z M19,40.5c-2.2,0-4-1.8-4-4
		c0-2.2,1.8-4,4-4s4,1.8,4,4C23,38.7,21.2,40.5,19,40.5z"/>
	<path d="M41,15.5h20v-6H33v4h6C40.1,13.5,41,14.4,41,15.5z"/>
	<rect x="9" y="17.5" width="28" height="6"/>
</g>
</svg>
