<?xml version="1.0" encoding="utf-8"?>
<!-- Generator: Adobe Illustrator 21.0.2, SVG Export Plug-In . SVG Version: 6.00 Build 0)  -->
<svg version="1.1" id="Layer_1" xmlns="http://www.w3.org/2000/svg" xmlns:xlink="http://www.w3.org/1999/xlink" x="0px" y="0px"
	 viewBox="0 0 100 100" style="enable-background:new 0 0 100 100;" xml:space="preserve">
<g>
	<path d="M83.9,36.2c0-0.4,0.1-0.8,0.1-1.2c0-9.4-7.6-17-17-17c-3.8,0-7.4,1.3-10.2,3.4C55.5,12.7,48.1,6,39,6c-9.9,0-18,8.1-18,18
		c0,0.1,0,0.2,0,0.3c-8,1.4-14,8.4-14,16.7v0c0,9.4,7.6,17,17,17h48h4h6c6.1,0,11-4.9,11-11C93,41.6,89.1,37.1,83.9,36.2z"/>
	<path d="M20,64c-1.1,0-2,0.9-2,2v8c0,1.1,0.9,2,2,2s2-0.9,2-2v-8C22,64.9,21.1,64,20,64z"/>
	<path d="M20,82c-1.1,0-2,0.9-2,2v8c0,1.1,0.9,2,2,2s2-0.9,2-2v-8C22,82.9,21.1,82,20,82z"/>
	<path d="M30,64c-1.1,0-2,0.9-2,2v8c0,1.1,0.9,2,2,2s2-0.9,2-2v-8C32,64.9,31.1,64,30,64z"/>
	<path d="M40,64c-1.1,0-2,0.9-2,2v8c0,1.1,0.9,2,2,2s2-0.9,2-2v-8C42,64.9,41.1,64,40,64z"/>
	<path d="M40,82c-1.1,0-2,0.9-2,2v8c0,1.1,0.9,2,2,2s2-0.9,2-2v-8C42,82.9,41.1,82,40,82z"/>
	<path d="M50,82c-1.1,0-2,0.9-2,2v8c0,1.1,0.9,2,2,2s2-0.9,2-2v-8C52,82.9,51.1,82,50,82z"/>
	<path d="M60,64c-1.1,0-2,0.9-2,2v8c0,1.1,0.9,2,2,2s2-0.9,2-2v-8C62,64.9,61.1,64,60,64z"/>
	<path d="M60,82c-1.1,0-2,0.9-2,2v8c0,1.1,0.9,2,2,2s2-0.9,2-2v-8C62,82.9,61.1,82,60,82z"/>
	<path d="M70,64c-1.1,0-2,0.9-2,2v8c0,1.1,0.9,2,2,2s2-0.9,2-2v-8C72,64.9,71.1,64,70,64z"/>
	<path d="M80,64c-1.1,0-2,0.9-2,2v8c0,1.1,0.9,2,2,2s2-0.9,2-2v-8C82,64.9,81.1,64,80,64z"/>
	<path d="M80,82c-1.1,0-2,0.9-2,2v8c0,1.1,0.9,2,2,2s2-0.9,2-2v-8C82,82.9,81.1,82,80,82z"/>
	<circle cx="30" cy="83" r="2"/>
	<circle cx="30" cy="92" r="2"/>
	<circle cx="70" cy="83" r="2"/>
	<circle cx="70" cy="92" r="2"/>
	<circle cx="50" cy="66" r="2"/>
	<circle cx="50" cy="75" r="2"/>
</g>
</svg>
