<?xml version="1.0" encoding="utf-8"?>
<!-- Generator: Adobe Illustrator 21.0.2, SVG Export Plug-In . SVG Version: 6.00 Build 0)  -->
<svg version="1.1" id="Layer_1" xmlns="http://www.w3.org/2000/svg" xmlns:xlink="http://www.w3.org/1999/xlink" x="0px" y="0px"
	 viewBox="0 0 100 100" style="enable-background:new 0 0 100 100;" xml:space="preserve">
<g>
	<path d="M83.9,36.2c0-0.4,0.1-0.8,0.1-1.2c0-9.4-7.6-17-17-17c-3.8,0-7.4,1.3-10.2,3.4C55.5,12.7,48.1,6,39,6c-9.9,0-18,8.1-18,18
		c0,0.1,0,0.2,0,0.3c-8,1.4-14,8.4-14,16.7v0c0,9.4,7.6,17,17,17h48h4h6c6.1,0,11-4.9,11-11C93,41.6,89.1,37.1,83.9,36.2z"/>
	<path d="M21.9,64.2c-1-0.5-2.2-0.1-2.7,0.9l-4,8c-0.5,1-0.1,2.2,0.9,2.7c0.3,0.1,0.6,0.2,0.9,0.2c0.7,0,1.4-0.4,1.8-1.1l4-8
		C23.3,65.9,22.9,64.7,21.9,64.2z"/>
	<path d="M21.9,82.2c-1-0.5-2.2-0.1-2.7,0.9l-4,8c-0.5,1-0.1,2.2,0.9,2.7c0.3,0.1,0.6,0.2,0.9,0.2c0.7,0,1.4-0.4,1.8-1.1l4-8
		C23.3,83.9,22.9,82.7,21.9,82.2z"/>
	<path d="M31.9,64.2c-1-0.5-2.2-0.1-2.7,0.9l-4,8c-0.5,1-0.1,2.2,0.9,2.7c0.3,0.1,0.6,0.2,0.9,0.2c0.7,0,1.4-0.4,1.8-1.1l4-8
		C33.3,65.9,32.9,64.7,31.9,64.2z"/>
	<path d="M31.9,82.2c-1-0.5-2.2-0.1-2.7,0.9l-4,8c-0.5,1-0.1,2.2,0.9,2.7c0.3,0.1,0.6,0.2,0.9,0.2c0.7,0,1.4-0.4,1.8-1.1l4-8
		C33.3,83.9,32.9,82.7,31.9,82.2z"/>
	<path d="M41.9,64.2c-1-0.5-2.2-0.1-2.7,0.9l-4,8c-0.5,1-0.1,2.2,0.9,2.7c0.3,0.1,0.6,0.2,0.9,0.2c0.7,0,1.4-0.4,1.8-1.1l4-8
		C43.3,65.9,42.9,64.7,41.9,64.2z"/>
	<path d="M41.9,82.2c-1-0.5-2.2-0.1-2.7,0.9l-4,8c-0.5,1-0.1,2.2,0.9,2.7c0.3,0.1,0.6,0.2,0.9,0.2c0.7,0,1.4-0.4,1.8-1.1l4-8
		C43.3,83.9,42.9,82.7,41.9,82.2z"/>
	<path d="M51.9,82.2c-1-0.5-2.2-0.1-2.7,0.9l-4,8c-0.5,1-0.1,2.2,0.9,2.7c0.3,0.1,0.6,0.2,0.9,0.2c0.7,0,1.4-0.4,1.8-1.1l4-8
		C53.3,83.9,52.9,82.7,51.9,82.2z"/>
	<path d="M51.9,64.2c-1-0.5-2.2-0.1-2.7,0.9l-4,8c-0.5,1-0.1,2.2,0.9,2.7c0.3,0.1,0.6,0.2,0.9,0.2c0.7,0,1.4-0.4,1.8-1.1l4-8
		C53.3,65.9,52.9,64.7,51.9,64.2z"/>
	<path d="M61.9,64.2c-1-0.5-2.2-0.1-2.7,0.9l-4,8c-0.5,1-0.1,2.2,0.9,2.7c0.3,0.1,0.6,0.2,0.9,0.2c0.7,0,1.4-0.4,1.8-1.1l4-8
		C63.3,65.9,62.9,64.7,61.9,64.2z"/>
	<path d="M61.9,82.2c-1-0.5-2.2-0.1-2.7,0.9l-4,8c-0.5,1-0.1,2.2,0.9,2.7c0.3,0.1,0.6,0.2,0.9,0.2c0.7,0,1.4-0.4,1.8-1.1l4-8
		C63.3,83.9,62.9,82.7,61.9,82.2z"/>
	<path d="M71.9,64.2c-1-0.5-2.2-0.1-2.7,0.9l-4,8c-0.5,1-0.1,2.2,0.9,2.7c0.3,0.1,0.6,0.2,0.9,0.2c0.7,0,1.4-0.4,1.8-1.1l4-8
		C73.3,65.9,72.9,64.7,71.9,64.2z"/>
	<path d="M71.9,82.2c-1-0.5-2.2-0.1-2.7,0.9l-4,8c-0.5,1-0.1,2.2,0.9,2.7c0.3,0.1,0.6,0.2,0.9,0.2c0.7,0,1.4-0.4,1.8-1.1l4-8
		C73.3,83.9,72.9,82.7,71.9,82.2z"/>
	<path d="M81.9,64.2c-1-0.5-2.2-0.1-2.7,0.9l-4,8c-0.5,1-0.1,2.2,0.9,2.7c0.3,0.1,0.6,0.2,0.9,0.2c0.7,0,1.4-0.4,1.8-1.1l4-8
		C83.3,65.9,82.9,64.7,81.9,64.2z"/>
	<path d="M81.9,82.2c-1-0.5-2.2-0.1-2.7,0.9l-4,8c-0.5,1-0.1,2.2,0.9,2.7c0.3,0.1,0.6,0.2,0.9,0.2c0.7,0,1.4-0.4,1.8-1.1l4-8
		C83.3,83.9,82.9,82.7,81.9,82.2z"/>
</g>
</svg>
