<?xml version="1.0" encoding="utf-8"?>
<!-- Generator: Adobe Illustrator 21.0.2, SVG Export Plug-In . SVG Version: 6.00 Build 0)  -->
<svg version="1.1" id="Layer_1" xmlns="http://www.w3.org/2000/svg" xmlns:xlink="http://www.w3.org/1999/xlink" x="0px" y="0px"
	 viewBox="0 0 100 100" style="enable-background:new 0 0 100 100;" xml:space="preserve">
<g>
	<path d="M19.4,56.9C21.9,42.2,34.6,31,50,31s28.1,11.2,30.6,25.9c2.8,1.2,5,3.4,5.9,6.1H87v-1c0-20.4-16.6-37-37-37S13,41.6,13,62
		v1h0.5C14.5,60.3,16.6,58.1,19.4,56.9z"/>
	<path d="M70.5,57.4C72.1,56.5,74,56,76,56c0.1,0,0.2,0,0.3,0C73.6,44,62.8,35,50,35s-23.6,9-26.3,21c0.1,0,0.2,0,0.3,0
		c2,0,3.9,0.5,5.5,1.4C31.7,48,40,41,50,41S68.3,48,70.5,57.4z"/>
	<path d="M34,69h-1.1c-0.6,0-1.1-0.2-1.5-0.7c-0.4-0.4-0.5-1-0.5-1.6c0-0.3,0.1-0.5,0.1-0.7c0-3.3-3.1-6-7-6c-3.5,0-6.5,2.3-6.9,5.3
		c-0.1,1-1,1.7-2,1.7H13c-2.2,0-4,1.8-4,4c0,2.2,1.8,4,4,4h21c1.7,0,3-1.4,3-3C37,70.3,35.7,69,34,69z"/>
	<path d="M87,67h-2.1c-1,0-1.8-0.7-2-1.7c-0.4-3-3.4-5.3-6.9-5.3c-3.9,0-7,2.7-7,6c0,0.2,0,0.4,0.1,0.7c0.1,0.6-0.1,1.2-0.5,1.6
		c-0.4,0.4-0.9,0.7-1.5,0.7H66c-1.7,0-3,1.3-3,3c0,1.6,1.3,3,3,3h21c2.2,0,4-1.8,4-4C91,68.8,89.2,67,87,67z"/>
</g>
</svg>
