<?xml version="1.0" encoding="utf-8"?>
<!-- Generator: Adobe Illustrator 21.0.2, SVG Export Plug-In . SVG Version: 6.00 Build 0)  -->
<svg version="1.1" id="Layer_1" xmlns="http://www.w3.org/2000/svg" xmlns:xlink="http://www.w3.org/1999/xlink" x="0px" y="0px"
	 viewBox="0 0 100 100" style="enable-background:new 0 0 100 100;" xml:space="preserve">
<g>
	<path d="M86,35.6C85.8,25.3,77.4,17,67,17c-3.1,0-6.2,0.8-8.9,2.2C55.6,10.9,47.9,5,39,5c-10.6,0-19.3,8.3-20,18.7
		C10.8,25.9,5,33.3,5,42c0,10.5,8.5,19,19,19h58c7.2,0,13-5.8,13-13C95,42.3,91.3,37.3,86,35.6z M82,57H24c-8.3,0-15-6.7-15-15
		c0-7.3,5.2-13.5,12.4-14.8c1-0.2,1.7-1,1.7-2c0-0.1,0-0.2,0-0.2c0-8.8,7.2-16,16-16c7.9,0,14.7,5.9,15.8,13.7
		c0.1,0.7,0.6,1.3,1.2,1.6c0.6,0.3,1.4,0.2,2-0.3c2.6-2,5.7-3,9-3c8.3,0,15,6.7,15,15c0,0.3,0,0.6,0,0.9l0,0.2
		c-0.1,1,0.6,1.9,1.6,2.1c4.3,0.8,7.4,4.5,7.4,8.9C91,53,87,57,82,57z"/>
	<path d="M21.9,65.2c-1-0.5-2.2-0.1-2.7,0.9l-4,8c-0.5,1-0.1,2.2,0.9,2.7c0.3,0.1,0.6,0.2,0.9,0.2c0.7,0,1.4-0.4,1.8-1.1l4-8
		C23.3,66.9,22.9,65.7,21.9,65.2z"/>
	<path d="M21.9,83.2c-1-0.5-2.2-0.1-2.7,0.9l-4,8c-0.5,1-0.1,2.2,0.9,2.7c0.3,0.1,0.6,0.2,0.9,0.2c0.7,0,1.4-0.4,1.8-1.1l4-8
		C23.3,84.9,22.9,83.7,21.9,83.2z"/>
	<path d="M31.9,65.2c-1-0.5-2.2-0.1-2.7,0.9l-4,8c-0.5,1-0.1,2.2,0.9,2.7c0.3,0.1,0.6,0.2,0.9,0.2c0.7,0,1.4-0.4,1.8-1.1l4-8
		C33.3,66.9,32.9,65.7,31.9,65.2z"/>
	<path d="M31.9,83.2c-1-0.5-2.2-0.1-2.7,0.9l-4,8c-0.5,1-0.1,2.2,0.9,2.7c0.3,0.1,0.6,0.2,0.9,0.2c0.7,0,1.4-0.4,1.8-1.1l4-8
		C33.3,84.9,32.9,83.7,31.9,83.2z"/>
	<path d="M41.9,65.2c-1-0.5-2.2-0.1-2.7,0.9l-4,8c-0.5,1-0.1,2.2,0.9,2.7c0.3,0.1,0.6,0.2,0.9,0.2c0.7,0,1.4-0.4,1.8-1.1l4-8
		C43.3,66.9,42.9,65.7,41.9,65.2z"/>
	<path d="M41.9,83.2c-1-0.5-2.2-0.1-2.7,0.9l-4,8c-0.5,1-0.1,2.2,0.9,2.7c0.3,0.1,0.6,0.2,0.9,0.2c0.7,0,1.4-0.4,1.8-1.1l4-8
		C43.3,84.9,42.9,83.7,41.9,83.2z"/>
	<path d="M51.9,83.2c-1-0.5-2.2-0.1-2.7,0.9l-4,8c-0.5,1-0.1,2.2,0.9,2.7c0.3,0.1,0.6,0.2,0.9,0.2c0.7,0,1.4-0.4,1.8-1.1l4-8
		C53.3,84.9,52.9,83.7,51.9,83.2z"/>
	<path d="M51.9,65.2c-1-0.5-2.2-0.1-2.7,0.9l-4,8c-0.5,1-0.1,2.2,0.9,2.7c0.3,0.1,0.6,0.2,0.9,0.2c0.7,0,1.4-0.4,1.8-1.1l4-8
		C53.3,66.9,52.9,65.7,51.9,65.2z"/>
	<path d="M61.9,65.2c-1-0.5-2.2-0.1-2.7,0.9l-4,8c-0.5,1-0.1,2.2,0.9,2.7c0.3,0.1,0.6,0.2,0.9,0.2c0.7,0,1.4-0.4,1.8-1.1l4-8
		C63.3,66.9,62.9,65.7,61.9,65.2z"/>
	<path d="M61.9,83.2c-1-0.5-2.2-0.1-2.7,0.9l-4,8c-0.5,1-0.1,2.2,0.9,2.7c0.3,0.1,0.6,0.2,0.9,0.2c0.7,0,1.4-0.4,1.8-1.1l4-8
		C63.3,84.9,62.9,83.7,61.9,83.2z"/>
	<path d="M71.9,65.2c-1-0.5-2.2-0.1-2.7,0.9l-4,8c-0.5,1-0.1,2.2,0.9,2.7c0.3,0.1,0.6,0.2,0.9,0.2c0.7,0,1.4-0.4,1.8-1.1l4-8
		C73.3,66.9,72.9,65.7,71.9,65.2z"/>
	<path d="M71.9,83.2c-1-0.5-2.2-0.1-2.7,0.9l-4,8c-0.5,1-0.1,2.2,0.9,2.7c0.3,0.1,0.6,0.2,0.9,0.2c0.7,0,1.4-0.4,1.8-1.1l4-8
		C73.3,84.9,72.9,83.7,71.9,83.2z"/>
	<path d="M81.9,65.2c-1-0.5-2.2-0.1-2.7,0.9l-4,8c-0.5,1-0.1,2.2,0.9,2.7c0.3,0.1,0.6,0.2,0.9,0.2c0.7,0,1.4-0.4,1.8-1.1l4-8
		C83.3,66.9,82.9,65.7,81.9,65.2z"/>
	<path d="M81.9,83.2c-1-0.5-2.2-0.1-2.7,0.9l-4,8c-0.5,1-0.1,2.2,0.9,2.7c0.3,0.1,0.6,0.2,0.9,0.2c0.7,0,1.4-0.4,1.8-1.1l4-8
		C83.3,84.9,82.9,83.7,81.9,83.2z"/>
</g>
</svg>
