<?xml version="1.0" encoding="utf-8"?>
<!-- Generator: Adobe Illustrator 21.0.2, SVG Export Plug-In . SVG Version: 6.00 Build 0)  -->
<svg version="1.1" id="Layer_1" xmlns="http://www.w3.org/2000/svg" xmlns:xlink="http://www.w3.org/1999/xlink" x="0px" y="0px"
	 viewBox="0 0 100 100" style="enable-background:new 0 0 100 100;" xml:space="preserve">
<g>
	<path d="M93,75H7c-1.1,0-2,0.9-2,2s0.9,2,2,2h86c1.1,0,2-0.9,2-2S94.1,75,93,75z"/>
	<circle cx="10" cy="85" r="2"/>
	<circle cx="20" cy="85" r="2"/>
	<circle cx="30" cy="85" r="2"/>
	<circle cx="40" cy="85" r="2"/>
	<circle cx="50" cy="85" r="2"/>
	<circle cx="60" cy="85" r="2"/>
	<circle cx="70" cy="85" r="2"/>
	<circle cx="80" cy="85" r="2"/>
	<circle cx="90" cy="85" r="2"/>
	<circle cx="15" cy="93" r="2"/>
	<circle cx="25" cy="93" r="2"/>
	<circle cx="35" cy="93" r="2"/>
	<circle cx="45" cy="93" r="2"/>
	<circle cx="55" cy="93" r="2"/>
	<circle cx="65" cy="93" r="2"/>
	<circle cx="75" cy="93" r="2"/>
	<circle cx="85" cy="93" r="2"/>
	<path d="M25,34h8.1c1,8.4,8.2,15,16.9,15s15.9-6.6,16.9-15H75c1.1,0,2-0.9,2-2c0-1.1-0.9-2-2-2h-8.1c-0.4-3.2-1.6-6.1-3.5-8.5
		l5.8-5.8c0.8-0.8,0.8-2,0-2.8c-0.8-0.8-2.1-0.8-2.8,0l-5.8,5.8c-2.4-1.9-5.3-3.2-8.5-3.5V7c0-1.1-0.9-2-2-2s-2,0.9-2,2v8.1
		c-3.2,0.4-6.1,1.6-8.5,3.5l-5.8-5.8c-0.8-0.8-2-0.8-2.8,0c-0.8,0.8-0.8,2,0,2.8l5.8,5.8c-1.9,2.4-3.2,5.3-3.5,8.5H25
		c-1.1,0-2,0.9-2,2C23,33.1,23.9,34,25,34z M50,19c7.2,0,13,5.8,13,13c0,7.2-5.8,13-13,13s-13-5.8-13-13C37,24.8,42.8,19,50,19z"/>
	<path d="M28.6,70.3c0.4,0.4,0.9,0.6,1.4,0.6s1-0.2,1.4-0.6l5.7-5.7c0.8-0.8,0.8-2,0-2.8c-0.8-0.8-2-0.8-2.8,0L32,64.1v-9
		c0-1.1-0.9-2-2-2s-2,0.9-2,2v9l-2.2-2.2c-0.8-0.8-2-0.8-2.8,0c-0.8,0.8-0.8,2,0,2.8L28.6,70.3z"/>
	<path d="M50,53.1c-1.1,0-2,0.9-2,2v9l-2.2-2.2c-0.8-0.8-2-0.8-2.8,0c-0.8,0.8-0.8,2,0,2.8l5.7,5.7c0.4,0.4,0.9,0.6,1.4,0.6
		s1-0.2,1.4-0.6l5.7-5.7c0.8-0.8,0.8-2,0-2.8s-2-0.8-2.8,0L52,64.1v-9C52,54,51.1,53.1,50,53.1z"/>
	<path d="M74.2,61.8L72,64.1v-9c0-1.1-0.9-2-2-2s-2,0.9-2,2v9l-2.2-2.2c-0.8-0.8-2-0.8-2.8,0s-0.8,2,0,2.8l5.7,5.7
		c0.4,0.4,0.9,0.6,1.4,0.6s1-0.2,1.4-0.6l5.7-5.7c0.8-0.8,0.8-2,0-2.8S75,61.1,74.2,61.8z"/>
</g>
</svg>
