<?xml version="1.0" encoding="utf-8"?>
<!-- Generator: Adobe Illustrator 21.0.2, SVG Export Plug-In . SVG Version: 6.00 Build 0)  -->
<svg version="1.1" id="Layer_1" xmlns="http://www.w3.org/2000/svg" xmlns:xlink="http://www.w3.org/1999/xlink" x="0px" y="0px"
	 viewBox="0 0 100 100" style="enable-background:new 0 0 100 100;" xml:space="preserve">
<g>
	<circle cx="17" cy="73" r="2"/>
	<circle cx="17" cy="61" r="2"/>
	<circle cx="17" cy="49" r="2"/>
	<circle cx="83" cy="73" r="2"/>
	<circle cx="83" cy="61" r="2"/>
	<circle cx="83" cy="49" r="2"/>
	<circle cx="40" cy="51" r="2"/>
	<circle cx="50" cy="51" r="2"/>
	<circle cx="60" cy="51" r="2"/>
	<circle cx="40" cy="43" r="2"/>
	<circle cx="50" cy="43" r="2"/>
	<circle cx="60" cy="43" r="2"/>
	<path d="M89,27H75V11c0-3.3-2.7-6-6-6H31c-3.3,0-6,2.7-6,6v16H11c-3.3,0-6,2.7-6,6v56c0,3.3,2.7,6,6,6h78c3.3,0,6-2.7,6-6V33
		C95,29.7,92.3,27,89,27z M29,11c0-1.1,0.9-2,2-2h38c1.1,0,2,0.9,2,2v70h-6V59c0-1.1-0.9-2-2-2H37c-1.1,0-2,0.9-2,2v22h-6V11z
		 M53,69h-1v-8h9v20h-9v-8h1c1.1,0,2-0.9,2-2C55,69.9,54.1,69,53,69z M47,73h1v8h-9V61h9v8h-1c-1.1,0-2,0.9-2,2
		C45,72.1,45.9,73,47,73z M9,33c0-1.1,0.9-2,2-2h14v6H9V33z M9,41h16v40H9V41z M91,89c0,1.1-0.9,2-2,2H11c-1.1,0-2-0.9-2-2v-4h82V89
		z M91,81H75V41h16V81z M91,37H75v-6h14c1.1,0,2,0.9,2,2V37z"/>
	<path d="M40,31h4v4c0,1.1,0.9,2,2,2h8c1.1,0,2-0.9,2-2v-4h4c1.1,0,2-0.9,2-2v-8c0-1.1-0.9-2-2-2h-4v-4c0-1.1-0.9-2-2-2h-8
		c-1.1,0-2,0.9-2,2v4h-4c-1.1,0-2,0.9-2,2v8C38,30.1,38.9,31,40,31z M42,23h4c1.1,0,2-0.9,2-2v-4h4v4c0,1.1,0.9,2,2,2h4v4h-4
		c-1.1,0-2,0.9-2,2v4h-4v-4c0-1.1-0.9-2-2-2h-4V23z"/>
</g>
</svg>
