<?xml version="1.0" encoding="utf-8"?>
<!-- Generator: Adobe Illustrator 21.0.2, SVG Export Plug-In . SVG Version: 6.00 Build 0)  -->
<svg version="1.1" id="Layer_1" xmlns="http://www.w3.org/2000/svg" xmlns:xlink="http://www.w3.org/1999/xlink" x="0px" y="0px"
	 viewBox="0 0 100 100" style="enable-background:new 0 0 100 100;" xml:space="preserve">
<g>
	<path d="M55,44h-8c-1.1,0-2,0.9-2,2v6c0,1.1,0.9,2,2,2h8c1.1,0,2-0.9,2-2v-6C57,44.9,56.1,44,55,44z"/>
	<path d="M25,40.1c-3.5,1.1-5.9,4.3-6,7.9h12C30.9,44.3,28.5,41.2,25,40.1z"/>
	<path d="M61,77.9l26,0c3.3,0,6-2.7,6-6V68H61V77.9z"/>
	<path d="M87,10H13c-3.3,0-6,2.7-6,6v48h86V16C93,12.7,90.3,10,87,10z M43,20h14c1.1,0,2,0.9,2,2c0,1.1-0.9,2-2,2H43
		c-1.1,0-2-0.9-2-2C41,20.9,41.9,20,43,20z M43,30h14c1.1,0,2,0.9,2,2c0,1.1-0.9,2-2,2H43c-1.1,0-2-0.9-2-2C41,30.9,41.9,30,43,30z
		 M35,27.8c0,4.2-2,8-5.3,10.2C33,40.3,35,44.1,35,48.2V56c0,1.1-0.9,2-2,2s-2-0.9-2-2v-4H19v4c0,1.1-0.9,2-2,2s-2-0.9-2-2v-7.8
		c0-4.2,2-8,5.3-10.2C17,35.7,15,31.9,15,27.8V20c0-1.1,0.9-2,2-2s2,0.9,2,2v4h12v-4c0-1.1,0.9-2,2-2s2,0.9,2,2V27.8z M61,52
		c0,3.3-2.7,6-6,6h-8c-3.3,0-6-2.7-6-6v-6c0-3.3,2.7-6,6-6h8c3.3,0,6,2.7,6,6V52z M83,56H69c-1.1,0-2-0.9-2-2c0-1.1,0.9-2,2-2h14
		c1.1,0,2,0.9,2,2C85,55.1,84.1,56,83,56z M83,46H69c-1.1,0-2-0.9-2-2c0-1.1,0.9-2,2-2h14c1.1,0,2,0.9,2,2C85,45.1,84.1,46,83,46z
		 M85,30c0,3.3-2.7,6-6,6h-8c-3.3,0-6-2.7-6-6v-6c0-3.3,2.7-6,6-6h8c3.3,0,6,2.7,6,6V30z"/>
	<path d="M25,35.9c3.5-1.1,5.9-4.3,6-7.9H19C19.1,31.7,21.5,34.8,25,35.9z"/>
	<path d="M63,86H52v-8h5V68H43v10h5v8H37c-1.1,0-2,0.9-2,2c0,1.1,0.9,2,2,2h26c1.1,0,2-0.9,2-2C65,86.9,64.1,86,63,86z"/>
	<path d="M79,22h-8c-1.1,0-2,0.9-2,2v6c0,1.1,0.9,2,2,2h8c1.1,0,2-0.9,2-2v-6C81,22.9,80.1,22,79,22z"/>
	<path d="M39,68H7v4c0,3.3,2.7,6,6,6l26,0V68z"/>
</g>
</svg>
