<?xml version="1.0" encoding="utf-8"?>
<!-- Generator: Adobe Illustrator 21.0.2, SVG Export Plug-In . SVG Version: 6.00 Build 0)  -->
<svg version="1.1" id="Layer_1" xmlns="http://www.w3.org/2000/svg" xmlns:xlink="http://www.w3.org/1999/xlink" x="0px" y="0px"
	 viewBox="0 0 100 100" style="enable-background:new 0 0 100 100;" xml:space="preserve">
<g>
	<path d="M87,8H13c-4.4,0-8,3.6-8,8v56c0,4.4,3.6,8,8,8l35,0v8H37c-1.1,0-2,0.9-2,2c0,1.1,0.9,2,2,2h26c1.1,0,2-0.9,2-2
		c0-1.1-0.9-2-2-2H52v-8l35,0c4.4,0,8-3.6,8-8V16C95,11.6,91.4,8,87,8z M39,76l-26,0c-2.2,0-4-1.8-4-4v-4h30V76z M57,76l-14,0v-8h14
		V76z M91,71.9c0,2.2-1.8,4-4,4l-26,0V68h30V71.9z M91,64H9V16c0-2.2,1.8-4,4-4h74c2.2,0,4,1.8,4,4V64z"/>
	<path d="M79,18h-8c-3.3,0-6,2.7-6,6v6c0,3.3,2.7,6,6,6h8c3.3,0,6-2.7,6-6v-6C85,20.7,82.3,18,79,18z M81,30c0,1.1-0.9,2-2,2h-8
		c-1.1,0-2-0.9-2-2v-6c0-1.1,0.9-2,2-2h8c1.1,0,2,0.9,2,2V30z"/>
	<path d="M43,24h14c1.1,0,2-0.9,2-2c0-1.1-0.9-2-2-2H43c-1.1,0-2,0.9-2,2C41,23.1,41.9,24,43,24z"/>
	<path d="M43,34h14c1.1,0,2-0.9,2-2c0-1.1-0.9-2-2-2H43c-1.1,0-2,0.9-2,2C41,33.1,41.9,34,43,34z"/>
	<path d="M83,42H69c-1.1,0-2,0.9-2,2c0,1.1,0.9,2,2,2h14c1.1,0,2-0.9,2-2C85,42.9,84.1,42,83,42z"/>
	<path d="M83,52H69c-1.1,0-2,0.9-2,2c0,1.1,0.9,2,2,2h14c1.1,0,2-0.9,2-2C85,52.9,84.1,52,83,52z"/>
	<path d="M55,40h-8c-3.3,0-6,2.7-6,6v6c0,3.3,2.7,6,6,6h8c3.3,0,6-2.7,6-6v-6C61,42.7,58.3,40,55,40z M57,52c0,1.1-0.9,2-2,2h-8
		c-1.1,0-2-0.9-2-2v-6c0-1.1,0.9-2,2-2h8c1.1,0,2,0.9,2,2V52z"/>
	<path d="M33,18c-1.1,0-2,0.9-2,2v4H19v-4c0-1.1-0.9-2-2-2s-2,0.9-2,2v7.8c0,4.2,2,8,5.3,10.2C17,40.3,15,44.1,15,48.2V56
		c0,1.1,0.9,2,2,2s2-0.9,2-2v-4h12v4c0,1.1,0.9,2,2,2s2-0.9,2-2v-7.8c0-4.2-2-8-5.3-10.2C33,35.7,35,31.9,35,27.8V20
		C35,18.9,34.1,18,33,18z M31,48H19c0.1-3.7,2.5-6.8,6-7.9C28.5,41.2,30.9,44.3,31,48z M25,35.9c-3.5-1.1-5.9-4.3-6-7.9h12
		C30.9,31.7,28.5,34.8,25,35.9z"/>
</g>
</svg>
