<?xml version="1.0" encoding="utf-8"?>
<!-- Generator: Adobe Illustrator 21.0.2, SVG Export Plug-In . SVG Version: 6.00 Build 0)  -->
<svg version="1.1" id="Layer_1" xmlns="http://www.w3.org/2000/svg" xmlns:xlink="http://www.w3.org/1999/xlink" x="0px" y="0px"
	 viewBox="0 0 100 100" style="enable-background:new 0 0 100 100;" xml:space="preserve">
<g>
	<path d="M9,89c0,1.1,0.9,2,2,2h78c1.1,0,2-0.9,2-2v-4H9V89z"/>
	<path d="M25,41H9v40h16V41z M17,75c-1.1,0-2-0.9-2-2s0.9-2,2-2s2,0.9,2,2S18.1,75,17,75z M17,63c-1.1,0-2-0.9-2-2s0.9-2,2-2
		s2,0.9,2,2S18.1,63,17,63z M17,51c-1.1,0-2-0.9-2-2s0.9-2,2-2s2,0.9,2,2S18.1,51,17,51z"/>
	<path d="M25,31H11c-1.1,0-2,0.9-2,2v4h16V31z"/>
	<path d="M75,81h16V41H75V81z M83,47c1.1,0,2,0.9,2,2s-0.9,2-2,2s-2-0.9-2-2S81.9,47,83,47z M83,59c1.1,0,2,0.9,2,2s-0.9,2-2,2
		s-2-0.9-2-2S81.9,59,83,59z M83,71c1.1,0,2,0.9,2,2s-0.9,2-2,2s-2-0.9-2-2S81.9,71,83,71z"/>
	<path d="M89,31H75v6h16v-4C91,31.9,90.1,31,89,31z"/>
	<path d="M35,59c0-1.1,0.9-2,2-2h26c1.1,0,2,0.9,2,2v22h6V11c0-1.1-0.9-2-2-2H31c-1.1,0-2,0.9-2,2v70h6V59z M50,53c-1.1,0-2-0.9-2-2
		s0.9-2,2-2s2,0.9,2,2S51.1,53,50,53z M50,45c-1.1,0-2-0.9-2-2s0.9-2,2-2s2,0.9,2,2S51.1,45,50,45z M60,53c-1.1,0-2-0.9-2-2
		s0.9-2,2-2s2,0.9,2,2S61.1,53,60,53z M62,43c0,1.1-0.9,2-2,2s-2-0.9-2-2s0.9-2,2-2S62,41.9,62,43z M40,21h6v-6h8v6h6v8h-6v6h-8v-6
		h-6V21z M40,41c1.1,0,2,0.9,2,2s-0.9,2-2,2s-2-0.9-2-2S38.9,41,40,41z M40,49c1.1,0,2,0.9,2,2s-0.9,2-2,2s-2-0.9-2-2S38.9,49,40,49
		z"/>
	<path d="M53,73h-1v8h9V61h-9v8h1c1.1,0,2,0.9,2,2S54.1,73,53,73z"/>
	<path d="M47,69h1v-8h-9v20h9v-8h-1c-1.1,0-2-0.9-2-2S45.9,69,47,69z"/>
</g>
</svg>
