<?xml version="1.0" encoding="utf-8"?>
<!-- Generator: Adobe Illustrator 21.0.2, SVG Export Plug-In . SVG Version: 6.00 Build 0)  -->
<svg version="1.1" id="Layer_1" xmlns="http://www.w3.org/2000/svg" xmlns:xlink="http://www.w3.org/1999/xlink" x="0px" y="0px"
	 viewBox="0 0 100 100" style="enable-background:new 0 0 100 100;" xml:space="preserve">
<path d="M94.9,24.5c0,0,0-0.1,0-0.1c0-0.1-0.1-0.2-0.1-0.3c0,0,0,0,0-0.1L85.9,8.1C84.8,6.2,82.8,5,80.7,5H19.3
	c-2.2,0-4.2,1.2-5.2,3.1L5.2,24c0,0,0,0,0,0.1c0,0.1-0.1,0.2-0.1,0.3c0,0,0,0.1,0,0.1C5,24.7,5,24.8,5,25v64c0,3.3,2.7,6,6,6h78
	c3.3,0,6-2.7,6-6V25C95,24.8,95,24.7,94.9,24.5z M74,9h6.7c0.7,0,1.4,0.4,1.7,1l7.2,13H74V9z M52,9h18v14H52V9z M52,27h18v1
	c0,5-4,9-9,9s-9-4-9-9V27z M30,9h18v14H30V9z M30,27h18v1c0,5-4,9-9,9s-9-4-9-9V27z M17.6,10c0.4-0.6,1-1,1.7-1H26v14H10.4L17.6,10z
	 M9,27h17v1.5c0,4.7-3.8,8.5-8.5,8.5S9,33.2,9,28.5V27z M91,89c0,1.1-0.9,2-2,2H78V77h1c3.3,0,6-2.7,6-6V54c0-1.1-0.9-2-2-2
	s-2,0.9-2,2v17c0,1.1-0.9,2-2,2H67c-1.1,0-2,0.9-2,2c0,1.1,0.9,2,2,2h7v14H52V65h17c1.1,0,2-0.9,2-2c0-1.1-0.9-2-2-2h-4v-6
	c0-1.1-0.9-2-2-2s-2,0.9-2,2v6H39v-6c0-1.1-0.9-2-2-2s-2,0.9-2,2v6h-4c-1.1,0-2,0.9-2,2c0,1.1,0.9,2,2,2h17v26H26V77h7
	c1.1,0,2-0.9,2-2c0-1.1-0.9-2-2-2H21c-1.1,0-2-0.9-2-2V54c0-1.1-0.9-2-2-2s-2,0.9-2,2v17c0,3.3,2.7,6,6,6h1v14H11c-1.1,0-2-0.9-2-2
	V37.6c2.2,2.1,5.2,3.4,8.5,3.4c4.5,0,8.4-2.4,10.6-5.9C30.4,38.6,34.4,41,39,41c4.6,0,8.7-2.4,11-6.1c2.3,3.7,6.4,6.1,11,6.1
	c4.6,0,8.6-2.4,10.9-5.9C74.1,38.6,78,41,82.5,41c3.3,0,6.3-1.3,8.5-3.4V89z M91,28.5c0,4.7-3.8,8.5-8.5,8.5S74,33.2,74,28.5V27h17
	V28.5z"/>
</svg>
