<?xml version="1.0" encoding="utf-8"?>
<!-- Generator: Adobe Illustrator 21.0.2, SVG Export Plug-In . SVG Version: 6.00 Build 0)  -->
<svg version="1.1" id="Layer_1" xmlns="http://www.w3.org/2000/svg" xmlns:xlink="http://www.w3.org/1999/xlink" x="0px" y="0px"
	 viewBox="0 0 100 100" style="enable-background:new 0 0 100 100;" xml:space="preserve">
<g>
	<path d="M71.9,35.1C69.6,38.6,65.6,41,61,41c-4.6,0-8.7-2.4-11-6.1c-2.3,3.7-6.4,6.1-11,6.1c-4.6,0-8.6-2.4-10.9-5.9
		C25.9,38.6,22,41,17.5,41c-3.3,0-6.3-1.3-8.5-3.4V89c0,1.1,0.9,2,2,2h11V77h-1c-3.3,0-6-2.7-6-6V54c0-1.1,0.9-2,2-2s2,0.9,2,2v17
		c0,1.1,0.9,2,2,2h12c1.1,0,2,0.9,2,2c0,1.1-0.9,2-2,2h-7v14h22V65H31c-1.1,0-2-0.9-2-2c0-1.1,0.9-2,2-2h4v-6c0-1.1,0.9-2,2-2
		s2,0.9,2,2v6h22v-6c0-1.1,0.9-2,2-2s2,0.9,2,2v6h4c1.1,0,2,0.9,2,2c0,1.1-0.9,2-2,2H52v26h22V77h-7c-1.1,0-2-0.9-2-2
		c0-1.1,0.9-2,2-2h12c1.1,0,2-0.9,2-2V54c0-1.1,0.9-2,2-2s2,0.9,2,2v17c0,3.3-2.7,6-6,6h-1v14h11c1.1,0,2-0.9,2-2V37.6
		c-2.2,2.1-5.2,3.4-8.5,3.4C78,41,74.1,38.6,71.9,35.1z"/>
	<path d="M82.4,10c-0.4-0.6-1-1-1.7-1H74v14h15.6L82.4,10z"/>
	<rect x="52" y="9" width="18" height="14"/>
	<rect x="30" y="9" width="18" height="14"/>
	<path d="M26,9h-6.7c-0.7,0-1.4,0.4-1.7,1l-7.2,13H26V9z"/>
	<path d="M17.5,37c4.7,0,8.5-3.8,8.5-8.5V27H9v1.5C9,33.2,12.8,37,17.5,37z"/>
	<path d="M39,37c5,0,9-4,9-9v-1H30v1C30,33,34,37,39,37z"/>
	<path d="M61,37c5,0,9-4,9-9v-1H52v1C52,33,56,37,61,37z"/>
	<path d="M74,27v1.5c0,4.7,3.8,8.5,8.5,8.5s8.5-3.8,8.5-8.5V27H74z"/>
</g>
</svg>
