<?xml version="1.0" encoding="utf-8"?>
<!-- Generator: Adobe Illustrator 21.0.2, SVG Export Plug-In . SVG Version: 6.00 Build 0)  -->
<svg version="1.1" id="Layer_1" xmlns="http://www.w3.org/2000/svg" xmlns:xlink="http://www.w3.org/1999/xlink" x="0px" y="0px"
	 viewBox="0 0 100 100" style="enable-background:new 0 0 100 100;" xml:space="preserve">
<g>
	<path d="M87.8,58H12.2c-0.6,0-1.2,0.3-1.6,0.8c-0.4,0.5-0.5,1.1-0.3,1.7l0.9,3.5h77.6l0.9-3.5c0.2-0.6,0-1.2-0.3-1.7
		C89,58.3,88.4,58,87.8,58z"/>
	<path d="M12.5,69.1C14.9,77.9,22.9,84,32,84v3c0,0.3,0,0.7,0.1,1c0.5,2.8,2.9,5,5.9,5h24c3,0,5.4-2.2,5.9-5c0.1-0.3,0.1-0.7,0.1-1
		v-3c9.1,0,17.1-6.1,19.5-14.9l0.3-1.1H12.3L12.5,69.1z"/>
	<path d="M93.9,7.2c-1-0.5-2.2-0.1-2.7,0.8L74.7,39.4C73.5,34.6,69.2,31,64,31c-1,0-2,0.1-3,0.4c-1.7-3.8-5.5-6.4-10-6.4
		c-4.7,0-8.7,2.9-10.3,7.1c-1.4-0.7-3-1.1-4.7-1.1c-2.8,0-5.3,1-7.2,2.7L8.6,7.8c-0.7-0.9-1.9-1-2.8-0.3s-1,1.9-0.4,2.8L26.2,37
		c-0.8,1.5-1.2,3.2-1.2,5c0,0.3,0,0.7,0,1c-5.6,0.5-10,5.2-10,11h70c0-5-3.4-9.2-8-10.6L94.8,9.9C95.3,9,94.9,7.8,93.9,7.2z M40,45
		c-1.1,0-2-0.9-2-2c0-1.1,0.9-2,2-2s2,0.9,2,2C42,44.1,41.1,45,40,45z M50,39c-1.1,0-2-0.9-2-2c0-1.1,0.9-2,2-2s2,0.9,2,2
		C52,38.1,51.1,39,50,39z M60,45c-1.1,0-2-0.9-2-2c0-1.1,0.9-2,2-2s2,0.9,2,2C62,44.1,61.1,45,60,45z"/>
</g>
</svg>
