<?xml version="1.0" encoding="utf-8"?>
<!-- Generator: Adobe Illustrator 23.0.1, SVG Export Plug-In . SVG Version: 6.00 Build 0)  -->
<svg version="1.1" id="Layer_1" xmlns="http://www.w3.org/2000/svg" xmlns:xlink="http://www.w3.org/1999/xlink" x="0px" y="0px"
	 viewBox="0 0 100 100" style="enable-background:new 0 0 100 100;" xml:space="preserve">
<style type="text/css">
	.st0{fill:#000000;}
</style>
<path class="st0" d="M61.4,39.3l13.9-15.2c0.8-0.9,1.4-2.1,1.5-3.3c0.1-1.3-0.2-2.7-0.9-3.8l-5.9-9.2c-0.5-0.8-1.3-1.5-2.2-2
	C67,5.2,66.1,5,65.1,5H34.9c-1,0-1.9,0.2-2.8,0.7c-0.9,0.5-1.6,1.2-2.2,2L24,17c-0.7,1.1-1,2.5-0.9,3.8c0.1,1.2,0.7,2.4,1.5,3.3
	l13.9,15.2C28.2,43.8,21,54.1,21,66c0,16,13,29,29,29s29-13,29-29C79,54.1,71.8,43.8,61.4,39.3z M54.5,41l5.6-18.5h11.2L54.5,41z
	 M44.1,22.5h11.8L50,42L44.1,22.5z M65,66c0,8.3-6.7,15-15,15s-15-6.7-15-15c0-8.3,6.7-15,15-15S65,57.7,65,66z M67.2,10.7l5,7.8
	h-9.9L67.2,10.7z M63.6,9l-5,7.8l-5-7.8H63.6z M55,18.5H45l5-7.8L55,18.5z M46.4,9l-5,7.8l-5-7.8H46.4z M32.8,10.7l5,7.8h-9.9
	L32.8,10.7z M28.7,22.5h11.2L45.5,41L28.7,22.5z M50,91c-13.8,0-25-11.2-25-25c0-10.8,6.9-20,16.5-23.5l4.2,4.6
	c0.1,0.1,0.2,0.2,0.4,0.3c-8.6,1.8-15,9.5-15,18.6c0,10.5,8.5,19,19,19s19-8.5,19-19c0-9.1-6.5-16.7-15-18.6
	c0.1-0.1,0.2-0.2,0.4-0.3l4.2-4.6C68.1,46,75,55.2,75,66C75,79.8,63.8,91,50,91z"/>
</svg>
