<?xml version="1.0" encoding="utf-8"?>
<!-- Generator: Adobe Illustrator 23.0.1, SVG Export Plug-In . SVG Version: 6.00 Build 0)  -->
<svg version="1.1" id="Layer_1" xmlns="http://www.w3.org/2000/svg" xmlns:xlink="http://www.w3.org/1999/xlink" x="0px" y="0px"
	 viewBox="0 0 100 100" style="enable-background:new 0 0 100 100;" xml:space="preserve">
<path d="M39.9,22.5H28.7L45.5,41L39.9,22.5z M67.2,10.7l-5,7.8h9.9L67.2,10.7z M60.1,22.5L54.5,41l16.8-18.5H60.1z M53.6,9l5,7.8
	l5-7.8H53.6z M50,10.7l-5,7.8h10L50,10.7z M44.1,22.5L50,42l5.9-19.5H44.1z M36.4,9l5,7.8l5-7.8H36.4z M32.8,10.7l-5,7.8h9.9
	L32.8,10.7z M58.5,42.5l-4.2,4.6c-0.1,0.1-0.2,0.2-0.4,0.3c8.6,1.8,15,9.5,15,18.6c0,10.5-8.5,19-19,19s-19-8.5-19-19
	c0-9.1,6.5-16.7,15-18.6c-0.1-0.1-0.2-0.2-0.4-0.3l-4.2-4.6C31.9,46,25,55.2,25,66c0,13.8,11.2,25,25,25s25-11.2,25-25
	C75,55.2,68.1,46,58.5,42.5z"/>
</svg>
