<?xml version="1.0" encoding="utf-8"?>
<!-- Generator: Adobe Illustrator 23.0.1, SVG Export Plug-In . SVG Version: 6.00 Build 0)  -->
<svg version="1.1" id="Layer_1" xmlns="http://www.w3.org/2000/svg" xmlns:xlink="http://www.w3.org/1999/xlink" x="0px" y="0px"
	 viewBox="0 0 100 100" style="enable-background:new 0 0 100 100;" xml:space="preserve">
<style type="text/css">
	.st0{fill:#000000;}
</style>
<path class="st0" d="M76.8,16.3c-0.3-0.7-1-1.2-1.8-1.2c-2.4,0-4.8,0.2-7.2,0.5c-0.1-0.2-0.2-0.4-0.2-0.6l-3.8-8.7
	c-0.2-0.5-0.6-0.9-1.1-1.1c-0.5-0.2-1-0.2-1.5,0L52.4,9c-0.8,0.4-1.6,0.8-2.4,1.3c-0.8-0.5-1.6-0.9-2.4-1.3l-8.7-3.8
	c-1-0.4-2.2,0-2.6,1L32.4,15c-0.1,0.2-0.2,0.4-0.2,0.6C29.8,15.2,27.4,15,25,15c-0.8,0-1.5,0.5-1.8,1.2c-0.3,0.7-0.1,1.6,0.4,2.2
	c0,0,4.8,4.9,4.8,12.9V42c0,11.3,8.6,20.5,19.6,21.5v7.6c-2.5-2.6-6.1-4.2-10-4.2h-6c-1.1,0-2,0.9-2,2v6c0,7.7,6.3,14,14,14h4v4
	c0,1.1,0.9,2,2,2h6c7.7,0,14-6.3,14-14v-6c0-1.1-0.9-2-2-2h-6c-3.9,0-7.5,1.6-10,4.2V63.6c11-1,19.6-10.2,19.6-21.4c0,0,0,0,0,0
	c0,0,0-0.1,0-0.1V31.3c0-7.9,4.7-12.8,4.8-12.9C77,17.9,77.2,17,76.8,16.3z M67.6,31.3V36c-0.8-1-1.8-2.1-2.9-3.2c0,0,0,0,0,0
	c-1.9-2-4-3.9-6.1-5.6c-1.5-1.2-3-2.3-4.6-3.3c1-0.5,1.9-0.9,2.9-1.3c3.2-1.3,6.5-2.2,9.9-2.8c1.4-0.2,2.7-0.4,4.1-0.5
	C69.4,21.9,67.6,26,67.6,31.3z M54,12.7l6.9-3l2.9,6.6c-2.8,0.6-5.6,1.5-8.3,2.6c-1.9,0.8-3.7,1.6-5.5,2.6c-1.2-0.6-2.3-1.2-3.5-1.7
	c1.1-2.1,2.7-3.9,4.7-5.4C52.1,13.7,53,13.1,54,12.7z M39.1,9.7l6.9,3c0.2,0.1,0.4,0.2,0.6,0.3c-1.5,1.5-2.8,3.3-3.8,5.2
	c-2.1-0.8-4.3-1.4-6.6-1.9L39.1,9.7z M34,75v-4h4c5.5,0,10,4.5,10,10v4h-4C38.5,85,34,80.5,34,75z M62,77h4v4c0,5.5-4.5,10-10,10h-4
	v-4C52,81.4,56.5,77,62,77z M50,59.7c-9.7,0-17.6-7.9-17.6-17.6V31.3c0-5.3-1.7-9.4-3.3-12.1c1.4,0.1,2.7,0.3,4.1,0.5
	c3.4,0.6,6.7,1.5,9.9,2.8c2.1,0.8,4.1,1.8,6,2.9c0,0,0,0,0,0c2.4,1.4,4.8,3,7.1,4.8c2,1.6,4,3.4,5.7,5.2c0,0,0,0,0,0
	c3.1,3.2,5,6,5.8,7.1C67.3,52.1,59.5,59.7,50,59.7z"/>
</svg>
