<?xml version="1.0" encoding="utf-8"?>
<!-- Generator: Adobe Illustrator 21.0.2, SVG Export Plug-In . SVG Version: 6.00 Build 0)  -->
<svg version="1.1" id="Layer_1" xmlns="http://www.w3.org/2000/svg" xmlns:xlink="http://www.w3.org/1999/xlink" x="0px" y="0px"
	 viewBox="0 0 100 100" style="enable-background:new 0 0 100 100;" xml:space="preserve">
<g>
	<path d="M93.7,80l-16-61.4c-0.8-3-3.1-5.2-6.1-5.8c-3-0.6-6,0.5-7.9,2.9l-1.6,2l-1.1-2.3c-2.3-4.8-8-6.8-12.8-4.5l-1.5,0.7
		c-0.8,0.4-1.8,0.6-2.7,0.5L38.8,12c-3.9-0.2-7.5,2-9.2,5.6l-1.8,3.9c-0.8,1.6-2.3,2.8-4,3.2l-1.7,0.3c-4.6,0.9-7.9,4.9-7.8,9.6
		l0,2.7c0,1.7-0.7,3.3-2,4.4l-2.7,2.2c-3.5,2.9-4.5,7.9-2.4,11.9l1.3,2.4c0.7,1.3,0.8,2.9,0.4,4.3C8,65,8.3,67.9,9.7,70.2
		c1.4,2.3,3.7,4,6.4,4.5l1.6,0.3l-1.6,2c-1.9,2.4-2.2,5.7-0.8,8.4c1.3,2.8,4.1,4.5,7.2,4.5l63.4,0c0,0,0,0,0,0
		c2.5,0,4.8-1.1,6.3-3.1C93.8,84.9,94.3,82.4,93.7,80z M16.9,70.8c-1.6-0.3-2.9-1.3-3.7-2.6s-1-3-0.5-4.5c0.8-2.4,0.5-5.1-0.7-7.4
		l-1.2-2.4c-1.2-2.3-0.7-5.3,1.4-6.9l2.7-2.2c2.3-1.9,3.6-4.6,3.5-7.6l0-2.7c0-2.7,1.9-5.1,4.6-5.6l1.7-0.3c3-0.6,5.6-2.6,6.9-5.4
		l1.8-3.9c1-2.1,3.1-3.3,5.3-3.2l5.2,0.2c1.6,0.1,3.2-0.2,4.6-0.9l1.5-0.7c2.8-1.3,6.1-0.2,7.5,2.6l2,4.1l-1.6,2
		c-6.2-2.2-13.3-0.3-17.6,4.8l-14.5,6c-0.7,0.3-1.1,0.9-1.2,1.6l-2.2,15.5c-3.9,5.4-4,12.8-0.2,18.3l-1.6,2L16.9,70.8z M55.1,26.7
		L41.8,44c-2.1-4.1-1.8-9.2,1.1-12.9C45.8,27.3,50.6,25.7,55.1,26.7z M37.8,44.8c-3.7-0.6-7.6,0.2-10.8,2.2l1.3-9.5l8.9-3.7
		C36,37.4,36.3,41.3,37.8,44.8z M38,48.9L24.7,66.1c-2.1-4.1-1.8-9.2,1.1-12.9C28.7,49.5,33.5,47.9,38,48.9z M89.1,84.5
		c-0.8,1-1.9,1.6-3.2,1.6l-63.4,0c-1.6,0-2.9-0.8-3.6-2.2c-0.7-1.4-0.5-3,0.4-4.2l6.8-8.8l0,0l16.7-21.7c0,0,0,0,0,0l0.4-0.5
		c0,0,0,0,0,0L60,27h0l6.8-8.8c0.8-1,1.9-1.6,3.1-1.6c0.3,0,0.6,0,0.8,0.1c1.5,0.3,2.7,1.4,3.1,2.9l16,61.4
		C90.1,82.2,89.9,83.5,89.1,84.5z"/>
	<path d="M65,36.8c-0.9-0.7-2.1-0.5-2.8,0.4L36.5,70.4c-0.7,0.9-0.5,2.1,0.4,2.8c0.4,0.3,0.8,0.4,1.2,0.4c0.6,0,1.2-0.3,1.6-0.8
		l25.7-33.2C66,38.7,65.9,37.4,65,36.8z"/>
	<path d="M71.1,48.4c-0.9-0.7-2.1-0.5-2.8,0.4l-19,24.5c-0.7,0.9-0.5,2.1,0.4,2.8c0.4,0.3,0.8,0.4,1.2,0.4c0.6,0,1.2-0.3,1.6-0.8
		l19-24.5C72.2,50.4,72,49.1,71.1,48.4z"/>
	<path d="M76.6,60.9c-0.9-0.7-2.1-0.5-2.8,0.4l-11,14.2c-0.7,0.9-0.5,2.1,0.4,2.8c0.4,0.3,0.8,0.4,1.2,0.4c0.6,0,1.2-0.3,1.6-0.8
		l11-14.2C77.7,62.9,77.5,61.6,76.6,60.9z"/>
</g>
</svg>
