<?xml version="1.0" encoding="utf-8"?>
<!-- Generator: Adobe Illustrator 21.0.2, SVG Export Plug-In . SVG Version: 6.00 Build 0)  -->
<svg version="1.1" id="Layer_1" xmlns="http://www.w3.org/2000/svg" xmlns:xlink="http://www.w3.org/1999/xlink" x="0px" y="0px"
	 viewBox="0 0 100 100" style="enable-background:new 0 0 100 100;" xml:space="preserve">
<g>
	<path d="M86.4,35.8v-5.5c0-8.8-7.2-16-16-16c-4.4,0-8.5,1.8-11.5,4.9c6,0.5,11.2,4.2,12.8,9.7c0.3,1.1-0.3,2.2-1.4,2.5
		c-0.2,0.1-0.4,0.1-0.6,0.1c-0.9,0-1.7-0.6-1.9-1.4c-0.1-0.3-0.2-0.5-0.3-0.8c-0.1-0.2-0.2-0.5-0.3-0.7c-0.1-0.2-0.2-0.3-0.3-0.5
		c0,0,0,0,0,0c-0.1-0.2-0.2-0.3-0.3-0.5c0,0,0-0.1-0.1-0.1c-0.1-0.1-0.2-0.2-0.3-0.4c-0.1-0.2-0.3-0.3-0.4-0.5c0,0,0,0,0,0
		c-0.2-0.2-0.4-0.4-0.6-0.6s-0.4-0.4-0.6-0.5c-0.2-0.2-0.4-0.3-0.7-0.5c-0.2-0.2-0.5-0.3-0.8-0.4c-0.2-0.1-0.5-0.2-0.7-0.4
		c-0.3-0.1-0.5-0.2-0.8-0.3c-0.3-0.1-0.6-0.2-0.9-0.3c-0.2-0.1-0.5-0.1-0.8-0.2c-0.3-0.1-0.6-0.1-0.9-0.2c-0.2,0-0.4-0.1-0.7-0.1
		c-0.1,0-0.2,0-0.3,0c-0.3,0-0.5,0-0.8,0c-0.8,0-1.5,0.1-2.3,0.2c-0.6,0.1-1.2,0.2-1.6,0.4c-3.1,0.9-5.7,2.9-7.3,5.4
		c-1.3,2.1-1.8,4.4-1.5,6.7H86.4z"/>
	<path d="M16.2,22l4.5,36.1l-9.2,1.2l1.9,14.9c0.4,3.1,2.1,5.8,4.5,7.5c2.5-0.3,4.9-1.2,7-2.8c0.7-0.5,1.2-1,1.7-1.4
		c2.3-2.3,5.3-3.5,8.5-3.5c0.1,0,0.1,0,0.2,0c0.1-0.8,0.1-1.7,0-2.6l-1.9-14.9l-8.6,1.1l-4.5-36.1c0-0.1,0-0.2-0.1-0.2l6.3-4.9
		l-0.6-4.7c-0.3-2.2-2.3-3.7-4.5-3.5l-9.9,1.3C9.2,9.8,7.7,11.8,8,14l0.6,4.7L16.2,22C16.2,22,16.2,22,16.2,22z"/>
	<path d="M54,81.8h28.2l3.6-34H44.3l3.3,32.5C49.6,81.3,51.8,81.8,54,81.8z M54.1,62.8h2.2c0.2-1,0.6-1.9,1.2-2.8l-1.6-1.6
		c-0.8-0.8-0.8-2.1,0-2.8c0.8-0.8,2-0.8,2.8,0l1.6,1.6c0.8-0.5,1.8-0.9,2.8-1.2v-2.2c0-1.1,0.9-2,2-2c1.1,0,2,0.9,2,2V56
		c1,0.2,1.9,0.6,2.8,1.2l1.6-1.6c0.8-0.8,2-0.8,2.8,0c0.8,0.8,0.8,2,0,2.8L72.7,60c0.5,0.8,0.9,1.8,1.2,2.8h2.2c1.1,0,2,0.9,2,2
		c0,1.1-0.9,2-2,2h-2.2c-0.2,1-0.6,1.9-1.2,2.8l1.6,1.6c0.8,0.8,0.8,2,0,2.8c-0.4,0.4-0.9,0.6-1.4,0.6c-0.5,0-1-0.2-1.4-0.6
		l-1.6-1.6c-0.8,0.5-1.8,0.9-2.8,1.2v2.2c0,1.1-0.9,2-2,2c-1.1,0-2-0.9-2-2v-2.2c-1-0.2-1.9-0.6-2.8-1.2L58.7,74
		c-0.4,0.4-0.9,0.6-1.4,0.6c-0.5,0-1-0.2-1.4-0.6c-0.8-0.8-0.8-2,0-2.8l1.6-1.6c-0.5-0.8-0.9-1.8-1.2-2.8h-2.2c-1.1,0-2-0.9-2-2
		C52.1,63.7,53,62.8,54.1,62.8z"/>
	<path d="M90.1,85.8H54c-3.2,0-6.4-0.9-9.3-2.5c-1.5-0.8-2.8-1.9-4-3c-1.5-1.5-3.5-2.3-5.7-2.3s-4.2,0.8-5.7,2.3
		c-0.6,0.6-1.3,1.2-2.2,1.8c-3.3,2.4-7.1,3.7-11.2,3.7h-4c-1.1,0-2,0.9-2,2v2c0,1.1,0.9,2,2,2h78c1.1,0,2-0.9,2-2v-2
		C92.1,86.7,91.2,85.8,90.1,85.8z"/>
	<circle cx="65.1" cy="64.8" r="5"/>
	<path d="M40.1,43.8h50c1.1,0,2-0.9,2-2c0-1.1-0.9-2-2-2h-50c-1.1,0-2,0.9-2,2C38.1,42.9,39,43.8,40.1,43.8z"/>
</g>
</svg>
