<?xml version="1.0" encoding="utf-8"?>
<!-- Generator: Adobe Illustrator 21.0.2, SVG Export Plug-In . SVG Version: 6.00 Build 0)  -->
<svg version="1.1" id="Layer_1" xmlns="http://www.w3.org/2000/svg" xmlns:xlink="http://www.w3.org/1999/xlink" x="0px" y="0px"
	 viewBox="0 0 100 100" style="enable-background:new 0 0 100 100;" xml:space="preserve">
<g>
	<path d="M89.1,80.8h-3.8l3.6-34h0.2c3.3,0,6-2.7,6-6c0-3.2-2.5-5.8-5.6-6v-5.5c0-11-9-20-20-20c-6.8,0-13.2,3.5-16.9,9.3
		c-0.4,0.1-0.8,0.2-1.2,0.3c-4,1.2-7.5,3.7-9.6,7.1c-1.7,2.8-2.5,5.8-2.1,8.8h-0.6c-3.3,0-6,2.7-6,6s2.7,6,6,6h0.2l3,29.4
		c-2-1.9-4.6-3-7.4-3.2l0-0.1c-0.4-2.9-1.9-5.5-4.2-7.3c-1.8-1.4-3.9-2.2-6.1-2.3l-5.2-40.7l7.4-5.6c0.6-0.4,0.8-1.1,0.8-1.8
		l-0.6-4.7c-0.2-1.6-1-3-2.3-4c-1.3-1-2.8-1.4-4.4-1.2l-9.9,1.3c-1.6,0.2-3,1-4,2.3c-1,1.3-1.4,2.8-1.2,4.4l0.6,4.7
		c0.1,0.7,0.5,1.3,1.2,1.6l8.5,3.6l5.2,40.7c-5,1.6-8.2,6.5-7.5,11.9l0.6,5.1h-2.6c-3.3,0-6,2.7-6,6v2c0,3.3,2.7,6,6,6h78
		c3.3,0,6-2.7,6-6v-2C95.1,83.5,92.4,80.8,89.1,80.8z M9.4,16.3l-0.5-3.6c-0.1-0.5,0.1-1,0.4-1.5c0.3-0.4,0.8-0.7,1.3-0.8l9.9-1.3
		c0.5-0.1,1.1,0.1,1.5,0.4c0.4,0.3,0.7,0.8,0.8,1.3l0.5,3.6l-6.4,4.9L9.4,16.3z M45.2,28.1c1.6-2.6,4.2-4.5,7.3-5.4
		c0.5-0.1,1-0.3,1.6-0.4c0.8-0.1,1.5-0.2,2.3-0.2c4.9,0,9.2,2.7,10.5,6.9c0.3,0.9,1.1,1.4,1.9,1.4c0.2,0,0.4,0,0.6-0.1
		c1.1-0.3,1.7-1.4,1.4-2.5c-1.6-5.5-6.8-9.2-12.8-9.7c3-3.1,7.1-4.9,11.5-4.9c8.8,0,16,7.2,16,16v5.5H43.7
		C43.3,32.6,43.8,30.2,45.2,28.1z M39.1,42.8c-1.1,0-2-0.9-2-2c0-1.1,0.9-2,2-2h50c1.1,0,2,0.9,2,2c0,1.1-0.9,2-2,2H39.1z
		 M84.8,46.8l-3.6,34H53c-2.2,0-4.4-0.5-6.4-1.5l-3.3-32.5H84.8z M23,67.4c1.9-0.2,3.7,0.3,5.2,1.4c1.5,1.1,2.4,2.8,2.7,4.6
		c-2,0.6-3.8,1.6-5.3,3.1c-0.5,0.5-1,0.9-1.7,1.4c-1.9,1.4-4,2.3-6.2,2.7L17,75.2C16.5,71.4,19.2,67.9,23,67.4z M91.1,88.8
		c0,1.1-0.9,2-2,2h-78c-1.1,0-2-0.9-2-2v-2c0-1.1,0.9-2,2-2h4c4,0,7.9-1.3,11.2-3.7c0.8-0.6,1.5-1.2,2.2-1.8
		c1.5-1.5,3.5-2.3,5.7-2.3s4.2,0.8,5.7,2.3c1.2,1.2,2.5,2.2,4,3c2.9,1.6,6.1,2.5,9.3,2.5h36c1.1,0,2,0.9,2,2V88.8z"/>
	<path d="M53.2,67.1c0.5,0.5,0.7,1.1,0.6,1.8l-0.2,0.9c-0.4,2.3,0.5,4.5,2.4,5.9c1.9,1.3,4.3,1.5,6.3,0.5l0.9-0.5
		c0.6-0.3,1.3-0.3,1.9,0l0.9,0.5c0.9,0.5,1.8,0.7,2.8,0.7c1.2,0,2.5-0.4,3.5-1.1c1.9-1.4,2.8-3.6,2.4-5.9l-0.2-0.9
		c-0.1-0.7,0.1-1.3,0.6-1.8l0.7-0.7c1.6-1.6,2.2-4,1.5-6.2c-0.7-2.2-2.6-3.8-4.8-4.1l-1-0.1c-0.7-0.1-1.2-0.5-1.5-1.1l-0.4-0.9
		c-1-2.1-3.1-3.3-5.4-3.3c-2.3,0-4.4,1.3-5.4,3.3L58.3,55c-0.3,0.6-0.8,1-1.5,1.1l-1,0.1c-2.3,0.3-4.1,1.9-4.8,4.1
		c-0.7,2.2-0.1,4.5,1.5,6.2L53.2,67.1z M54.8,61.5c0.2-0.8,0.8-1.2,1.6-1.4l1-0.1c2-0.3,3.6-1.5,4.5-3.3l0.4-0.9
		c0.3-0.7,1-1.1,1.8-1.1c0.8,0,1.5,0.4,1.8,1.1l0.4,0.9c0.9,1.8,2.6,3,4.5,3.3l1,0.1c0.8,0.1,1.4,0.6,1.6,1.4c0.2,0.7,0,1.5-0.5,2
		l-0.7,0.7c-1.4,1.4-2.1,3.4-1.7,5.3l0.2,1c0.1,0.8-0.2,1.5-0.8,2c-0.6,0.5-1.4,0.5-2.1,0.2l-0.9-0.5c-0.9-0.5-1.8-0.7-2.8-0.7
		c-1,0-1.9,0.2-2.8,0.7l-0.9,0.5c-0.7,0.4-1.5,0.3-2.1-0.2c-0.6-0.5-0.9-1.2-0.8-2l0.2-1c0.3-2-0.3-3.9-1.7-5.3l-0.7-0.7
		C54.7,63,54.5,62.3,54.8,61.5z"/>
</g>
</svg>
