<?xml version="1.0" encoding="utf-8"?>
<!-- Generator: Adobe Illustrator 21.0.2, SVG Export Plug-In . SVG Version: 6.00 Build 0)  -->
<svg version="1.1" id="Layer_1" xmlns="http://www.w3.org/2000/svg" xmlns:xlink="http://www.w3.org/1999/xlink" x="0px" y="0px"
	 viewBox="0 0 100 100" style="enable-background:new 0 0 100 100;" xml:space="preserve">
<g>
	<path d="M86.4,35.8v-5.5c0-8.8-7.2-16-16-16c-4.4,0-8.5,1.8-11.5,4.9c6,0.5,11.2,4.2,12.8,9.7c0.3,1.1-0.3,2.2-1.4,2.5
		c-0.2,0.1-0.4,0.1-0.6,0.1c-0.9,0-1.7-0.6-1.9-1.4c-0.1-0.3-0.2-0.5-0.3-0.8c-0.1-0.2-0.2-0.5-0.3-0.7c-0.1-0.2-0.2-0.3-0.3-0.5
		c0,0,0,0,0,0c-0.1-0.2-0.2-0.3-0.3-0.5c0,0,0-0.1-0.1-0.1c-0.1-0.1-0.2-0.2-0.3-0.4c-0.1-0.2-0.3-0.3-0.4-0.5c0,0,0,0,0,0
		c-0.2-0.2-0.4-0.4-0.6-0.6s-0.4-0.4-0.6-0.5c-0.2-0.2-0.4-0.3-0.7-0.5c-0.2-0.2-0.5-0.3-0.8-0.4c-0.2-0.1-0.5-0.2-0.7-0.4
		c-0.3-0.1-0.5-0.2-0.8-0.3c-0.3-0.1-0.6-0.2-0.9-0.3c-0.2-0.1-0.5-0.1-0.8-0.2c-0.3-0.1-0.6-0.1-0.9-0.2c-0.2,0-0.4-0.1-0.7-0.1
		c-0.1,0-0.2,0-0.3,0c-0.3,0-0.5,0-0.8,0c-0.8,0-1.5,0.1-2.3,0.2c-0.6,0.1-1.2,0.2-1.6,0.4c-3.1,0.9-5.7,2.9-7.3,5.4
		c-1.3,2.1-1.8,4.4-1.5,6.7H86.4z"/>
	<path d="M40.1,43.8h50c1.1,0,2-0.9,2-2c0-1.1-0.9-2-2-2h-50c-1.1,0-2,0.9-2,2C38.1,42.9,39,43.8,40.1,43.8z"/>
	<path d="M16.2,22l5.6,44.6c0,0.1,0,0.2,0.1,0.2c-3.9,1.4-6.4,5.3-5.8,9.6l0.7,5.3c3-0.1,5.8-1.1,8.2-2.9c0.7-0.5,1.2-1,1.7-1.4
		c2-2,4.5-3.2,7.2-3.5c-0.6-4.2-4-7.3-8.1-7.6c0-0.1,0-0.2,0-0.2l-5.6-44.6c0-0.1,0-0.2-0.1-0.2l6.3-4.9l-0.6-4.7
		c-0.3-2.2-2.3-3.7-4.5-3.5l-9.9,1.3C9.2,9.8,7.7,11.8,8,14l0.6,4.7L16.2,22C16.2,22,16.2,22,16.2,22z"/>
	<path d="M54,81.8h28.2l3.6-34H44.3l3.3,32.5C49.6,81.3,51.8,81.8,54,81.8z M52,61.3c0.7-2.2,2.6-3.8,4.8-4.1l1-0.1
		c0.7-0.1,1.2-0.5,1.5-1.1l0.4-0.9c1-2.1,3.1-3.3,5.4-3.3s4.4,1.3,5.4,3.3l0.4,0.9c0.3,0.6,0.8,1,1.5,1.1l1,0.1
		c2.3,0.3,4.1,1.9,4.8,4.1c0.7,2.2,0.1,4.5-1.5,6.2L76,68.1c-0.5,0.5-0.7,1.1-0.6,1.8l0.2,0.9c0.4,2.3-0.5,4.5-2.4,5.9
		c-1,0.8-2.3,1.1-3.5,1.1c-1,0-1.9-0.2-2.8-0.7L66,76.7c-0.6-0.3-1.3-0.3-1.9,0l-0.9,0.5c-2,1.1-4.5,0.9-6.3-0.5
		c-1.9-1.4-2.8-3.6-2.4-5.9l0.2-0.9c0.1-0.7-0.1-1.3-0.6-1.8l-0.7-0.7C51.8,65.8,51.2,63.5,52,61.3z"/>
	<path d="M90.1,85.8H54c-3.2,0-6.4-0.9-9.3-2.5c-1.5-0.8-2.8-1.9-4-3c-1.5-1.5-3.5-2.3-5.7-2.3s-4.2,0.8-5.7,2.3
		c-0.6,0.6-1.3,1.2-2.2,1.8c-3.3,2.4-7.1,3.7-11.2,3.7h-4c-1.1,0-2,0.9-2,2v2c0,1.1,0.9,2,2,2h78c1.1,0,2-0.9,2-2v-2
		C92.1,86.7,91.2,85.8,90.1,85.8z"/>
	<path d="M57,65.2c1.4,1.4,2.1,3.4,1.7,5.3l-0.2,1c-0.1,0.8,0.2,1.5,0.8,2c0.6,0.5,1.4,0.5,2.1,0.2l0.9-0.5c0.9-0.5,1.8-0.7,2.8-0.7
		s1.9,0.2,2.8,0.7l0.9,0.5c0.7,0.4,1.5,0.3,2.1-0.2c0.6-0.5,0.9-1.2,0.8-2l-0.2-1c-0.3-2,0.3-3.9,1.7-5.3l0.7-0.7
		c0.6-0.5,0.8-1.3,0.5-2c-0.2-0.8-0.8-1.2-1.6-1.4l-1-0.1c-2-0.3-3.6-1.5-4.5-3.3l-0.4-0.9c-0.3-0.7-1-1.1-1.8-1.1s-1.5,0.4-1.8,1.1
		l-0.4,0.9c-0.9,1.8-2.6,3-4.5,3.3l-1,0.1c-0.8,0.1-1.4,0.6-1.6,1.4c-0.2,0.7,0,1.5,0.5,2L57,65.2z"/>
</g>
</svg>
