<?xml version="1.0" encoding="utf-8"?>
<!-- Generator: Adobe Illustrator 21.0.2, SVG Export Plug-In . SVG Version: 6.00 Build 0)  -->
<svg version="1.1" id="Layer_1" xmlns="http://www.w3.org/2000/svg" xmlns:xlink="http://www.w3.org/1999/xlink" x="0px" y="0px"
	 viewBox="0 0 100 100" style="enable-background:new 0 0 100 100;" xml:space="preserve">
<g>
	<path d="M42.9,31.1c-2.9,3.7-3.2,8.8-1.1,12.9l13.3-17.2C50.6,25.7,45.8,27.3,42.9,31.1z"/>
	<path d="M24.7,66.1L38,48.9c-4.5-1-9.3,0.6-12.2,4.3C22.9,57,22.5,62,24.7,66.1z"/>
	<path d="M28.3,37.4l-1.3,9.5c3.2-2,7.1-2.7,10.8-2.2c-1.5-3.5-1.7-7.4-0.6-11L28.3,37.4z"/>
	<path d="M22,69.5c-3.7-5.5-3.6-12.8,0.2-18.3l2.2-15.5c0.1-0.7,0.6-1.3,1.2-1.6l14.5-6c4.3-5.1,11.4-7,17.6-4.8l1.6-2l-2-4.1
		c-1.3-2.8-4.7-3.9-7.5-2.6l-1.5,0.7c-1.4,0.7-3,1-4.6,0.9L38.6,16c-2.3-0.1-4.4,1.2-5.3,3.2l-1.8,3.9c-1.3,2.8-3.9,4.8-6.9,5.4
		l-1.7,0.3c-2.7,0.5-4.6,2.9-4.6,5.6l0,2.7c0.1,3-1.2,5.7-3.5,7.6l-2.7,2.2c-2,1.7-2.6,4.6-1.4,6.9l1.2,2.4c1.2,2.3,1.4,5,0.7,7.4
		c-0.5,1.5-0.3,3.2,0.5,4.5s2.2,2.3,3.7,2.6l3.6,0.7L22,69.5z"/>
	<path d="M89.8,81l-16-61.4c-0.4-1.5-1.5-2.6-3.1-2.9c-0.3-0.1-0.6-0.1-0.8-0.1c-1.2,0-2.3,0.5-3.1,1.6L60,27h0L43.2,48.6
		c0,0,0,0,0,0l-0.4,0.5v0L26.1,70.8l0,0l-6.8,8.8c-1,1.2-1.1,2.8-0.4,4.2c0.7,1.4,2,2.2,3.6,2.2l63.4,0c1.2,0,2.4-0.6,3.2-1.6
		C89.9,83.5,90.1,82.2,89.8,81z M38.1,73.6c-0.4,0-0.8-0.1-1.2-0.4c-0.9-0.7-1-1.9-0.4-2.8l25.7-33.2c0.7-0.9,1.9-1,2.8-0.4
		c0.9,0.7,1,1.9,0.4,2.8L39.7,72.8C39.3,73.3,38.7,73.6,38.1,73.6z M50.9,76.6c-0.4,0-0.8-0.1-1.2-0.4c-0.9-0.7-1-1.9-0.4-2.8
		l19-24.5c0.7-0.9,1.9-1,2.8-0.4c0.9,0.7,1,1.9,0.4,2.8l-19,24.5C52.1,76.3,51.5,76.6,50.9,76.6z M77,63.7L66,78
		c-0.4,0.5-1,0.8-1.6,0.8c-0.4,0-0.9-0.1-1.2-0.4c-0.9-0.7-1-1.9-0.4-2.8l11-14.2c0.7-0.9,1.9-1,2.8-0.4
		C77.5,61.6,77.7,62.9,77,63.7z"/>
</g>
</svg>
