<?xml version="1.0" encoding="utf-8"?>
<!-- Generator: Adobe Illustrator 21.0.2, SVG Export Plug-In . SVG Version: 6.00 Build 0)  -->
<svg version="1.1" id="Layer_1" xmlns="http://www.w3.org/2000/svg" xmlns:xlink="http://www.w3.org/1999/xlink" x="0px" y="0px"
	 viewBox="0 0 100 100" style="enable-background:new 0 0 100 100;" xml:space="preserve">
<g>
	<path d="M85,29h-2v-6c0-2.2-1.8-4-4-4h-1L75,7h-6l-3,12h-1c-2.2,0-4,1.8-4,4v6h-2c-2.2,0-4,1.8-4,4v10h18c3.3,0,6,2.7,6,6v26
		c0,3.3-2.7,6-6,6H55v4.8c0,0.8,0.2,1.6,0.7,2.2l2.1,3.2c0.7,1.1,2,1.8,3.3,1.8h21.7c1.3,0,2.6-0.7,3.3-1.8l2.1-3.2
		c0.4-0.7,0.7-1.4,0.7-2.2V33C89,30.8,87.2,29,85,29z"/>
	<path d="M75,75V49c0-1.1-0.9-2-2-2H55v30h18C74.1,77,75,76.1,75,75z"/>
	<path d="M37,47l-1.9-30H39c1.1,0,2-0.9,2-2c0-1.1-0.9-2-2-2h-4v-2c0-2.2-1.8-4-4-4h-6c-2.2,0-4,1.8-4,4v2h-4c-1.1,0-2,0.9-2,2
		c0,1.1,0.9,2,2,2h3.9L19,47c-4.4,0-8,3.6-8,8v4h18c3.3,0,6,2.7,6,6v10c0,3.3-2.7,6-6,6H11v6c0,3.3,2.7,6,6,6h22c3.3,0,6-2.7,6-6V55
		C45,50.6,41.4,47,37,47z"/>
	<path d="M31,75V65c0-1.1-0.9-2-2-2H11v14h18C30.1,77,31,76.1,31,75z"/>
</g>
</svg>
