<?xml version="1.0" encoding="utf-8"?>
<!-- Generator: Adobe Illustrator 21.0.2, SVG Export Plug-In . SVG Version: 6.00 Build 0)  -->
<svg version="1.1" id="Layer_1" xmlns="http://www.w3.org/2000/svg" xmlns:xlink="http://www.w3.org/1999/xlink" x="0px" y="0px"
	 viewBox="0 0 100 100" style="enable-background:new 0 0 100 100;" xml:space="preserve">
<g>
	<path d="M85,27v-4c0-3.1-2.4-5.7-5.4-6L76.9,6.5C76.7,5.6,75.9,5,75,5h-6c-0.9,0-1.7,0.6-1.9,1.5L64.4,17c-3,0.3-5.4,2.9-5.4,6v4
		c-3.3,0-6,2.7-6,6v52.8c0,1.2,0.3,2.3,1,3.3l2.1,3.2c1.1,1.7,3,2.7,5,2.7h21.7c2,0,3.9-1,5-2.7l2.1-3.2c0.7-1,1-2.1,1-3.3V33
		C91,29.7,88.3,27,85,27z M70.6,9h2.9l2,8h-6.9L70.6,9z M63,23c0-1.1,0.9-2,2-2h14c1.1,0,2,0.9,2,2v4H63V23z M57,47h18
		c1.1,0,2,0.9,2,2v26c0,1.1-0.9,2-2,2H57V47z M87,85.8c0,0.4-0.1,0.8-0.3,1.1l-2.1,3.2c-0.4,0.6-1,0.9-1.7,0.9H61.1
		c-0.7,0-1.3-0.3-1.7-0.9l-2.1-3.2c-0.2-0.3-0.3-0.7-0.3-1.1V81h18c3.3,0,6-2.7,6-6V49c0-3.3-2.7-6-6-6H57V33c0-1.1,0.9-2,2-2h26
		c1.1,0,2,0.9,2,2V85.8z"/>
	<path d="M38.9,45.2L37.1,17H39c1.1,0,2-0.9,2-2c0-1.1-0.9-2-2-2h-2v-2c0-3.3-2.7-6-6-6h-6c-3.3,0-6,2.7-6,6v2h-2c-1.1,0-2,0.9-2,2
		c0,1.1,0.9,2,2,2h1.9l-1.8,28.2C12.5,46.1,9,50.1,9,55v32c0,4.4,3.6,8,8,8h22c4.4,0,8-3.6,8-8V55C47,50.1,43.5,46.1,38.9,45.2z
		 M23,11c0-1.1,0.9-2,2-2h6c1.1,0,2,0.9,2,2v2H23V11z M13,63h18c1.1,0,2,0.9,2,2v10c0,1.1-0.9,2-2,2H13V63z M43,87c0,2.2-1.8,4-4,4
		H17c-2.2,0-4-1.8-4-4v-6h18c3.3,0,6-2.7,6-6V65c0-3.3-2.7-6-6-6H13v-4c0-3.3,2.7-6,6-6c1.1,0,1.9-0.8,2-1.9L22.9,17h10.2L35,47.1
		c0.1,1.1,0.9,1.9,2,1.9c3.3,0,6,2.7,6,6V87z"/>
</g>
</svg>
