<?xml version="1.0" encoding="utf-8"?>
<!-- Generator: Adobe Illustrator 21.0.2, SVG Export Plug-In . SVG Version: 6.00 Build 0)  -->
<svg version="1.1" id="Layer_1" xmlns="http://www.w3.org/2000/svg" xmlns:xlink="http://www.w3.org/1999/xlink" x="0px" y="0px"
	 viewBox="0 0 100 100" style="enable-background:new 0 0 100 100;" xml:space="preserve">
<g>
	<path d="M79.8,32.1c-2.3,0.4-4.5,0.7-6.8,1c0,0.1,0,0.1,0,0.2l-1,8c-0.1,1-1,1.8-2,1.8c-0.1,0-0.2,0-0.2,0
		c-1.1-0.1-1.9-1.1-1.7-2.2l0.9-7.2c-5.6,0.6-11.3,0.9-16.9,1V42c0,1.1-0.9,2-2,2s-2-0.9-2-2v-7.5c-5.7-0.1-11.3-0.4-16.9-1l0.9,7.2
		c0.1,1.1-0.6,2.1-1.7,2.2c-0.1,0-0.2,0-0.2,0c-1,0-1.9-0.7-2-1.8l-1-8c0,0,0-0.1,0-0.2c-2.3-0.3-4.5-0.6-6.8-1
		C19.6,32,19,32,18.3,32C12.2,32,7,37,7,43.3c0,5.6,4,10.3,9.5,11.2l3.9,0.6c4.5,0.7,9,1.3,13.5,1.7c0,0.1,0,0.2,0,0.4l1,5.5
		c1.2,6.5,6.5,11.5,13,12.3V93c0,1.1,0.9,2,2,2s2-0.9,2-2V75.1c6.5-0.8,11.8-5.8,13-12.3l1-5.5c0-0.1,0-0.2,0-0.4
		c4.5-0.4,9-1,13.5-1.7l3.9-0.6C89,53.7,93,48.9,93,43.3C93,36.3,86.7,31,79.8,32.1z M61,62.1c-1,5.3-5.6,9.2-11,9.2s-10-3.9-11-9.2
		l-0.9-4.9c7.9,0.5,15.9,0.5,23.8,0L61,62.1z"/>
	<path d="M53.8,16.2l1,0.7c0.5,0.4,0.8,0.9,0.9,1.5s-0.1,1.2-0.5,1.7L54,21.8c-0.7,0.9-0.6,2.1,0.3,2.8c0.4,0.3,0.8,0.4,1.2,0.4
		c0.6,0,1.2-0.3,1.6-0.8l1.3-1.6c1.1-1.3,1.5-3,1.3-4.7s-1.1-3.2-2.4-4.2l-1-0.7c-0.5-0.4-0.8-0.9-0.9-1.5s0.1-1.2,0.5-1.7l1.3-1.6
		c0.7-0.9,0.5-2.1-0.3-2.8c-0.9-0.7-2.1-0.6-2.8,0.3l-1.3,1.6c-1.1,1.3-1.5,3-1.3,4.7S52.5,15.2,53.8,16.2z"/>
	<path d="M42.8,20c0,0.6-0.2,1.2-0.7,1.6c-0.8,0.8-0.8,2,0,2.8c0.4,0.4,0.9,0.6,1.4,0.6c0.5,0,1-0.2,1.4-0.6
		c1.2-1.2,1.8-2.7,1.8-4.4s-0.6-3.2-1.8-4.4c-0.9-0.9-0.9-2.3,0-3.2c0.8-0.8,0.8-2,0-2.8c-0.8-0.8-2-0.8-2.8,0
		c-2.4,2.4-2.4,6.4,0,8.8C42.5,18.8,42.8,19.4,42.8,20z"/>
</g>
</svg>
