<?xml version="1.0" encoding="utf-8"?>
<!-- Generator: Adobe Illustrator 21.0.2, SVG Export Plug-In . SVG Version: 6.00 Build 0)  -->
<svg version="1.1" id="Layer_1" xmlns="http://www.w3.org/2000/svg" xmlns:xlink="http://www.w3.org/1999/xlink" x="0px" y="0px"
	 viewBox="0 0 100 100" style="enable-background:new 0 0 100 100;" xml:space="preserve">
<g>
	<path d="M90.3,32.1c-3-2.6-6.9-3.6-10.8-3c-19.6,3.2-39.4,3.2-58.9,0c-3.9-0.6-7.8,0.4-10.8,3C6.7,34.7,5,38.4,5,42.3
		c0,6.6,4.7,12.1,11.2,13.2l3.9,0.6c4.7,0.8,9.3,1.3,14,1.7l0.9,4.9c1.2,6.5,6.5,11.5,13,12.3V93c0,1.1,0.9,2,2,2s2-0.9,2-2V75.1
		c6.5-0.8,11.8-5.8,13-12.3l0.9-4.9c4.7-0.4,9.4-1,14-1.7l3.9-0.6C90.3,54.5,95,48.9,95,42.3C95,38.4,93.3,34.7,90.3,32.1z M61,62.1
		c-1,5.3-5.6,9.2-11,9.2s-10-3.9-11-9.2l-0.7-3.9c3.9,0.2,7.8,0.4,11.7,0.4s7.8-0.1,11.7-0.4L61,62.1z M83.1,51.6l-3.9,0.6
		c-19.4,3.2-39.1,3.2-58.5,0l-3.9-0.6C12.3,50.8,9,47,9,42.3c0-2.8,1.2-5.4,3.3-7.1c1.7-1.5,3.9-2.2,6.1-2.2c0.5,0,1,0,1.5,0.1
		c2.4,0.4,4.8,0.7,7.2,1l0.9,7.1c0.1,1,1,1.8,2,1.8c0.1,0,0.2,0,0.2,0c1.1-0.1,1.9-1.1,1.7-2.2l-0.8-6.2c5.6,0.6,11.2,0.9,16.8,0.9
		V42c0,1.1,0.9,2,2,2s2-0.9,2-2v-6.5c5.6-0.1,11.2-0.4,16.8-0.9L68,40.8c-0.1,1.1,0.6,2.1,1.7,2.2c0.1,0,0.2,0,0.2,0
		c1,0,1.9-0.7,2-1.8l0.9-7.1c2.4-0.3,4.8-0.6,7.2-1c2.7-0.4,5.5,0.3,7.6,2.1c2.1,1.8,3.3,4.4,3.3,7.1C91,47,87.7,50.8,83.1,51.6z"/>
	<path d="M53.8,16.2l1,0.7c0.5,0.4,0.8,0.9,0.9,1.5s-0.1,1.2-0.5,1.7L54,21.8c-0.7,0.9-0.6,2.1,0.3,2.8c0.4,0.3,0.8,0.4,1.2,0.4
		c0.6,0,1.2-0.3,1.6-0.8l1.3-1.6c1.1-1.3,1.5-3,1.3-4.7s-1.1-3.2-2.4-4.2l-1-0.7c-0.5-0.4-0.8-0.9-0.9-1.5s0.1-1.2,0.5-1.7l1.3-1.6
		c0.7-0.9,0.5-2.1-0.3-2.8c-0.9-0.7-2.1-0.6-2.8,0.3l-1.3,1.6c-1.1,1.3-1.5,3-1.3,4.7S52.5,15.2,53.8,16.2z"/>
	<path d="M42.8,20c0,0.6-0.2,1.2-0.7,1.6c-0.8,0.8-0.8,2,0,2.8c0.4,0.4,0.9,0.6,1.4,0.6c0.5,0,1-0.2,1.4-0.6
		c1.2-1.2,1.8-2.7,1.8-4.4s-0.6-3.2-1.8-4.4c-0.9-0.9-0.9-2.3,0-3.2c0.8-0.8,0.8-2,0-2.8c-0.8-0.8-2-0.8-2.8,0
		c-2.4,2.4-2.4,6.4,0,8.8C42.5,18.8,42.8,19.4,42.8,20z"/>
</g>
</svg>
