<?xml version="1.0" encoding="utf-8"?>
<!-- Generator: Adobe Illustrator 21.0.2, SVG Export Plug-In . SVG Version: 6.00 Build 0)  -->
<svg version="1.1" id="Layer_1" xmlns="http://www.w3.org/2000/svg" xmlns:xlink="http://www.w3.org/1999/xlink" x="0px" y="0px"
	 viewBox="0 0 100 100" style="enable-background:new 0 0 100 100;" xml:space="preserve">
<g>
	<path d="M37.5,42.8c0-0.2,0-0.4,0.1-0.5c-0.1-0.8-0.1-1.5-0.1-2.3V25c0-2,0.4-3.9,1.1-5.7C37,18.5,34.8,18,32.5,18c-5,0-9,2.2-9,5
		c0,1.6,1.3,3,3.3,3.9c-0.8,1-1.3,2.3-1.3,3.6c0,1.9,1,3.6,2.7,4.8c-0.4,0.7-0.7,1.4-0.7,2.2c0,3,3.6,5.5,8,5.5
		C36.2,43,36.9,42.9,37.5,42.8z"/>
	<path d="M93.5,23c0-2.8-4-5-9-5c-2.3,0-4.5,0.5-6.1,1.3c0.7,1.8,1.1,3.7,1.1,5.7v15c0,0.8,0,1.5-0.1,2.3c0.1,0.2,0.1,0.3,0.1,0.5
		c0.7,0.1,1.3,0.2,2,0.2c4.4,0,8-2.5,8-5.5c0-0.8-0.2-1.5-0.7-2.2c1.6-1.2,2.7-2.9,2.7-4.8c0-1.3-0.5-2.6-1.3-3.6
		C92.2,26,93.5,24.6,93.5,23z"/>
	<path d="M74.5,61h-14v20h24c1.1,0,2-0.9,2-2v-6C86.5,66.4,81.1,61,74.5,61z"/>
	<path d="M30.5,73v6c0,1.1,0.9,2,2,2h24V61h-14C35.9,61,30.5,66.4,30.5,73z"/>
	<path d="M74.8,45H62.5c-0.5,0-1-0.2-1.4-0.6L59.7,43l-1.2-1.2L57.3,43l-1.4,1.4C55.5,44.8,55,45,54.5,45H42.2
		c2.1,6.9,8.6,12,16.2,12S72.6,51.9,74.8,45z"/>
	<path d="M75.5,25c0-6.6-5.4-12-12-12h-10c-6.6,0-12,5.4-12,12v2h34V25z"/>
	<path d="M53.7,41l3.4-3.4c0.8-0.8,2-0.8,2.8,0l3.4,3.4h12.1c0-0.3,0-0.7,0-1v-9h-34v9c0,0.3,0,0.7,0,1H53.7z"/>
	<path d="M10.5,82c0,2.8,2.2,5,5,5s5-2.2,5-5V65h-10V82z"/>
	<path d="M21.5,47h-12c-1.1,0-2,0.9-2,2c0,1.1,0.9,2,2,2h1v10h10V51h1c1.1,0,2-0.9,2-2C23.5,47.9,22.6,47,21.5,47z"/>
	<circle cx="15.5" cy="38" r="2"/>
	<circle cx="8.5" cy="30" r="2"/>
</g>
</svg>
