<?xml version="1.0" encoding="utf-8"?>
<!-- Generator: Adobe Illustrator 21.0.2, SVG Export Plug-In . SVG Version: 6.00 Build 0)  -->
<svg version="1.1" id="Layer_1" xmlns="http://www.w3.org/2000/svg" xmlns:xlink="http://www.w3.org/1999/xlink" x="0px" y="0px"
	 viewBox="0 0 100 100" style="enable-background:new 0 0 100 100;" xml:space="preserve">
<g>
	<path d="M47.5,42.5c0,1.4,0.2,2.7,0.5,4h11.7l3.4-3.4c0.8-0.8,2-0.8,2.8,0l3.4,3.4H81c0.3-1.3,0.5-2.6,0.5-4v-4h-34V42.5z"/>
	<path d="M79.5,50.5h-11c-0.5,0-1-0.2-1.4-0.6l-2.6-2.6l-2.6,2.6c-0.4,0.4-0.9,0.6-1.4,0.6h-11c2.9,5.3,8.5,9,15,9
		S76.6,55.8,79.5,50.5z"/>
	<path d="M48.4,63.5c-6.6,0-11.9,5.4-11.9,12v6c0,1.1,0.9,2,2,2h24v-20h-12L48.4,63.5z"/>
	<path d="M45,59.5h3.4c0,0,0.1,0,0.1,0h3.7c-5.3-3.8-8.7-10-8.7-17V32.4c0.1-3.2,2.8-5.8,6-5.8c4.4,0,8-3.6,8-8c0-1.1,0.9-2,2-2
		s2,0.9,2,2c0,4.4,3.6,8,8,8h10c3.2,0,5.9,2.6,6,5.8v10.1c0,7-3.5,13.2-8.7,17H82c4.6,0,8.7-2.8,10.4-7l-0.6-1.7
		c-1.5-4.6-2.3-9.4-2.3-14.2c0-7-2.7-13.5-7.6-18.4c-4.9-4.9-11.4-7.6-18.4-7.6h0c-14.3,0-25.9,11.7-26,26c0,4.8-0.8,9.6-2.3,14.2
		l-0.6,1.7C36.3,56.7,40.4,59.5,45,59.5z"/>
	<path d="M81.5,32.6c0-1.1-0.9-2-2-2h-10c-4.2,0-7.8-2.1-10-5.4c-2.2,3.2-5.8,5.4-10,5.4c-1.1,0-2,0.9-2,2v1.9h34V32.6z"/>
	<path d="M80.5,63.5h-14v20h24c1.1,0,2-0.9,2-2v-6C92.5,68.9,87.1,63.5,80.5,63.5z"/>
	<path d="M11.5,84.5c0,2.8,2.2,5,5,5s5-2.2,5-5v-17h-10V84.5z"/>
	<path d="M22.5,49.5h-12c-1.1,0-2,0.9-2,2c0,1.1,0.9,2,2,2h1v10h10v-10h1c1.1,0,2-0.9,2-2C24.5,50.4,23.6,49.5,22.5,49.5z"/>
	<circle cx="16.5" cy="40.5" r="2"/>
	<circle cx="9.5" cy="32.5" r="2"/>
</g>
</svg>
