<?xml version="1.0" encoding="utf-8"?>
<!-- Generator: Adobe Illustrator 21.0.2, SVG Export Plug-In . SVG Version: 6.00 Build 0)  -->
<svg version="1.1" id="Layer_1" xmlns="http://www.w3.org/2000/svg" xmlns:xlink="http://www.w3.org/1999/xlink" x="0px" y="0px"
	 viewBox="0 0 100 100" style="enable-background:new 0 0 100 100;" xml:space="preserve">
<g>
	<path d="M95,24c0-4-4.7-7-11-7c-2.7,0-5,0.5-6.9,1.5c-2.7-5-8-8.5-14.1-8.5H53c-6.1,0-11.4,3.4-14.1,8.5C37,17.5,34.7,17,32,17
		c-6.3,0-11,3-11,7c0,1.8,0.9,3.4,2.6,4.6c-0.4,0.9-0.6,1.9-0.6,2.9c0,2,0.8,3.8,2.2,5.4c-0.1,0.5-0.2,1.1-0.2,1.6
		c0,4.2,4.4,7.5,10,7.5c0.9,0,1.8-0.1,2.6-0.2c1.2,5,4.1,9.3,8.2,12.2H42c-8.8,0-16,7.2-16,16v6c0,3.3,2.7,6,6,6h52c3.3,0,6-2.7,6-6
		v-6c0-8.8-7.2-16-16-16h-3.7c4-2.9,7-7.2,8.2-12.2c0.8,0.2,1.7,0.2,2.6,0.2c5.6,0,10-3.3,10-7.5c0-0.6-0.1-1.1-0.2-1.6
		c1.4-1.5,2.2-3.4,2.2-5.4c0-1-0.2-2-0.6-2.9C94.1,27.4,95,25.8,95,24z M37,27.5V41c0,0.3,0,0.5,0,0.8c-0.6,0.1-1.3,0.2-2,0.2
		c-3.5,0-6-1.8-6-3.5c0-0.4,0.1-0.8,0.3-1.1c0.6-0.9,0.3-2.1-0.5-2.7c-1.2-0.9-1.8-2-1.8-3.2c0-0.8,0.3-1.6,0.9-2.3
		c0.4-0.5,0.5-1.1,0.4-1.7c-0.1-0.6-0.6-1.1-1.1-1.4C25.8,25.5,25,24.7,25,24c0-1.2,2.8-3,7-3c2.3,0,4.2,0.6,5.5,1.3
		C37.2,23.5,37,24.7,37,26v0.8c0,0.1,0,0.1,0,0.2C37,27.2,37,27.4,37,27.5z M56,82H32c-1.1,0-2-0.9-2-2v-6c0-6.6,5.4-12,12-12h14V82
		z M74,62c6.6,0,12,5.4,12,12v6c0,1.1-0.9,2-2,2H60V62H74z M58,58c-7.6,0-14.1-5.1-16.2-12H54c0.5,0,1-0.2,1.4-0.6l2.6-2.6l2.6,2.6
		C61,45.8,61.5,46,62,46h12.2C72.1,52.9,65.6,58,58,58z M75,41c0,0.3,0,0.7,0,1H62.8l-3.4-3.4c-0.8-0.8-2-0.8-2.8,0L53.2,42H41
		c0-0.3,0-0.7,0-1v-9h34V41z M75,28H41v-2c0-6.6,5.4-12,12-12h10c6.6,0,12,5.4,12,12V28z M88.8,26.1c-0.6,0.3-1,0.8-1.1,1.4
		c-0.1,0.6,0,1.2,0.4,1.7c0.6,0.7,0.9,1.5,0.9,2.3c0,1.2-0.7,2.3-1.8,3.2c-0.8,0.6-1.1,1.8-0.5,2.7c0.2,0.4,0.3,0.7,0.3,1.1
		c0,1.7-2.5,3.5-6,3.5c-0.7,0-1.4-0.1-2-0.2c0-0.3,0-0.5,0-0.8V27.5c0-0.2,0-0.3,0-0.5c0-0.1,0-0.1,0-0.2V26c0-1.3-0.2-2.5-0.5-3.7
		c1.2-0.7,3.1-1.3,5.5-1.3c4.2,0,7,1.8,7,3C91,24.7,90.2,25.5,88.8,26.1z"/>
	<path d="M23,48H7c-1.1,0-2,0.9-2,2c0,1.1,0.9,2,2,2h1v31c0,3.9,3.1,7,7,7s7-3.1,7-7V52h1c1.1,0,2-0.9,2-2C25,48.9,24.1,48,23,48z
		 M18,83c0,1.6-1.3,3-3,3s-3-1.4-3-3V66h6V83z M18,62h-6V52h6V62z"/>
	<circle cx="15" cy="39" r="2"/>
	<circle cx="8" cy="31" r="2"/>
</g>
</svg>
