<?xml version="1.0" encoding="utf-8"?>
<!-- Generator: Adobe Illustrator 21.0.2, SVG Export Plug-In . SVG Version: 6.00 Build 0)  -->
<svg version="1.1" id="Layer_1" xmlns="http://www.w3.org/2000/svg" xmlns:xlink="http://www.w3.org/1999/xlink" x="0px" y="0px"
	 viewBox="0 0 100 100" style="enable-background:new 0 0 100 100;" xml:space="preserve">
<g>
	<path d="M87.3,62.9c3.5-1.8,6.2-4.9,7.6-8.8c0.1-0.4,0.1-0.9,0-1.3l-0.8-2.4c-1.4-4.2-2.1-8.5-2.1-13c0-8-3.1-15.5-8.8-21.2
		C77.5,10.6,70,7.5,62,7.5h0C45.5,7.5,32,21,32,37.5c0,4.4-0.7,8.8-2.1,13l-0.8,2.4c-0.1,0.4-0.1,0.8,0,1.3c1.4,4.3,4.7,7.7,8.7,9.3
		c-4.1,2.9-6.8,7.7-6.8,13.1v6c0,3.3,2.7,6,6,6h52c3.3,0,6-2.7,6-6v-6C95,70.7,91.9,65.7,87.3,62.9z M33.1,53.5l0.6-1.7
		c1.5-4.6,2.3-9.4,2.3-14.2c0-14.3,11.7-26,26-26h0c6.9,0,13.5,2.7,18.4,7.6C85.3,24,88,30.6,88,37.5c0,4.8,0.8,9.6,2.3,14.2
		l0.6,1.7c-1.7,4.2-5.8,7-10.4,7h-5.2c5.3-3.8,8.7-10,8.7-17V33.4c-0.1-3.2-2.8-5.8-6-5.8H68c-4.4,0-8-3.6-8-8c0-1.1-0.9-2-2-2
		s-2,0.9-2,2c0,4.4-3.6,8-8,8c-3.2,0-5.9,2.6-6,5.8v10.1c0,7,3.5,13.2,8.7,17H47c0,0-0.1,0-0.1,0h-3.4
		C38.9,60.5,34.8,57.7,33.1,53.5z M80,39.5v4c0,1.4-0.2,2.7-0.5,4H67.8l-3.4-3.4c-0.8-0.8-2-0.8-2.8,0l-3.4,3.4H46.5
		c-0.3-1.3-0.5-2.6-0.5-4v-4H80z M46,35.5v-1.9c0-1.1,0.9-2,2-2c4.2,0,7.8-2.1,10-5.4c2.2,3.2,5.8,5.4,10,5.4h10c1.1,0,2,0.9,2,2
		v1.9H46z M61,84.5H37c-1.1,0-2-0.9-2-2v-6c0-6.6,5.3-11.9,11.9-12l2.1,0h12V84.5z M48,51.5h11c0.5,0,1-0.2,1.4-0.6l2.6-2.6l2.6,2.6
		c0.4,0.4,0.9,0.6,1.4,0.6h11c-2.9,5.3-8.5,9-15,9S50.9,56.8,48,51.5z M91,82.5c0,1.1-0.9,2-2,2H65v-20h14c6.6,0,12,5.4,12,12V82.5z
		"/>
	<path d="M23,50.5H7c-1.1,0-2,0.9-2,2c0,1.1,0.9,2,2,2h1v31c0,3.9,3.1,7,7,7s7-3.1,7-7v-31h1c1.1,0,2-0.9,2-2
		C25,51.4,24.1,50.5,23,50.5z M18,85.5c0,1.6-1.3,3-3,3s-3-1.4-3-3v-17h6V85.5z M18,64.5h-6v-10h6V64.5z"/>
	<circle cx="15" cy="41.5" r="2"/>
	<circle cx="8" cy="33.5" r="2"/>
</g>
</svg>
