<?xml version="1.0" encoding="utf-8"?>
<!-- Generator: Adobe Illustrator 21.0.2, SVG Export Plug-In . SVG Version: 6.00 Build 0)  -->
<svg version="1.1" id="Layer_1" xmlns="http://www.w3.org/2000/svg" xmlns:xlink="http://www.w3.org/1999/xlink" x="0px" y="0px"
	 viewBox="0 0 100 100" style="enable-background:new 0 0 100 100;" xml:space="preserve">
<path d="M93,35h-0.2c-0.5,0-1,0.2-1.4,0.6c-1.2,1.2-2.9,1.9-4.6,1.9c-1.8,0-3.4-0.7-4.6-1.9c-1.1-1.1-2.5-2-4-2.5
	c-3.8-1.3-8.1-0.3-10.9,2.5c-1.2,1.2-2.9,1.9-4.6,1.9c-1.8,0-3.4-0.7-4.6-1.9c-2-2-4.6-3.1-7.5-3.1c-2.8,0-5.5,1.1-7.4,3.1
	c-1.2,1.2-2.9,1.9-4.6,1.9c-1.7,0-3.4-0.7-4.6-1.9c-0.8-0.8-1.8-1.5-2.8-2V11c0-3.3-2.7-6-6-6H11c-3.3,0-6,2.7-6,6v78
	c0,3.3,2.7,6,6,6h78c3.3,0,6-2.7,6-6V37C95,35.9,94.1,35,93,35z M27,91H11c-1.1,0-2-0.9-2-2v-7h10c1.1,0,2-0.9,2-2c0-1.1-0.9-2-2-2
	H9v-8h6c1.1,0,2-0.9,2-2c0-1.1-0.9-2-2-2H9v-8h10c1.1,0,2-0.9,2-2c0-1.1-0.9-2-2-2H9v-8h6c1.1,0,2-0.9,2-2c0-1.1-0.9-2-2-2H9v-8h10
	c1.1,0,2-0.9,2-2c0-1.1-0.9-2-2-2H9v-8h6c1.1,0,2-0.9,2-2c0-1.1-0.9-2-2-2H9v-7c0-1.1,0.9-2,2-2h14c1.1,0,2,0.9,2,2V91z M91,89
	c0,1.1-0.9,2-2,2H31V68.4c0,0,0,0,0,0c4.1,4.1,10.8,4.1,14.9,0c2.6-2.5,6.7-2.5,9.2,0c2.1,2.1,4.8,3.1,7.5,3.1c2.7,0,5.4-1,7.5-3.1
	c1.8-1.8,4.4-2.4,6.8-1.5c0.9,0.3,1.8,0.8,2.5,1.5c3.2,3.2,7.8,3.9,11.7,2.2V89z M91,65.9c-2.6,2.2-6.4,2.1-8.9-0.3
	c-1.1-1.1-2.5-2-4-2.5c-3.8-1.3-8.1-0.3-10.9,2.5c-2.5,2.5-6.7,2.5-9.2,0c-4.1-4.1-10.8-4.1-14.9,0c-2.6,2.5-6.7,2.5-9.2,0
	c-0.8-0.8-1.8-1.5-2.8-2V53.4c0,0,0,0,0,0c4.1,4.1,10.8,4.1,14.9,0c1.2-1.2,2.9-1.9,4.6-1.9c1.7,0,3.4,0.7,4.6,1.9
	c2.1,2.1,4.8,3.1,7.5,3.1c2.7,0,5.4-1,7.5-3.1c1.8-1.8,4.4-2.4,6.8-1.5c0.9,0.3,1.8,0.8,2.5,1.5c3.2,3.2,7.8,3.9,11.7,2.2V65.9z
	 M91,50.9c-2.6,2.2-6.4,2.1-8.9-0.3c-1.1-1.1-2.5-2-4-2.5c-3.8-1.3-8.1-0.3-10.9,2.5c-2.5,2.5-6.7,2.5-9.2,0c-2-2-4.6-3.1-7.5-3.1
	c-2.8,0-5.5,1.1-7.4,3.1c-2.6,2.5-6.7,2.5-9.2,0c-0.8-0.8-1.8-1.5-2.8-2V38.4c0,0,0,0,0,0c2,2,4.6,3.1,7.5,3.1
	c2.8,0,5.5-1.1,7.4-3.1c1.2-1.2,2.9-1.9,4.6-1.9c1.7,0,3.4,0.7,4.6,1.9c2,2,4.6,3.1,7.5,3.1c2.8,0,5.5-1.1,7.5-3.1
	c1.8-1.8,4.4-2.4,6.8-1.5c0.9,0.3,1.8,0.8,2.5,1.5c2,2,4.6,3.1,7.5,3.1c1.5,0,2.9-0.3,4.2-0.9V50.9z"/>
</svg>
