<?xml version="1.0" encoding="utf-8"?>
<!-- Generator: Adobe Illustrator 21.0.2, SVG Export Plug-In . SVG Version: 6.00 Build 0)  -->
<svg version="1.1" id="Layer_1" xmlns="http://www.w3.org/2000/svg" xmlns:xlink="http://www.w3.org/1999/xlink" x="0px" y="0px"
	 viewBox="0 0 100 100" style="enable-background:new 0 0 100 100;" xml:space="preserve">
<g>
	<path d="M93,39.1c-0.8-0.3-1.6-0.1-2.2,0.4c-1.2,1.2-2.9,1.9-4.6,1.9c-1.7,0-3.4-0.7-4.6-1.9c-1.1-1.1-2.5-2-4-2.5
		c-3.8-1.3-8.1-0.3-10.9,2.5c-1.2,1.2-2.9,1.9-4.6,1.9c-1.7,0-3.4-0.7-4.6-1.9c-2-2-4.6-3.1-7.5-3.1s-5.5,1.1-7.5,3.1
		c-1.2,1.2-2.9,1.9-4.6,1.9c-1.8,0-3.4-0.7-4.6-1.9c-2.8-2.8-7.1-3.8-10.9-2.5c-1.5,0.5-2.8,1.4-4,2.5c-1.2,1.2-2.9,1.9-4.6,1.9
		c-1.8,0-3.4-0.7-4.6-1.9C8.6,39,7.7,38.8,7,39.1c-0.8,0.3-1.2,1.1-1.2,1.9l0.1,27.8l0,0.1L6,87c0,4.4,3.6,8,8,8H86c4.4,0,8-3.6,8-8
		l0.2-46C94.2,40.2,93.8,39.4,93,39.1z M90,87c0,2.2-1.8,4-4,4H14c-2.2,0-4-1.8-4-4L9.9,72.1c0.9,0.3,1.9,0.4,2.9,0.4
		c2.7,0,5.4-1.1,7.5-3.1c0.7-0.7,1.5-1.2,2.5-1.5c2.4-0.8,5-0.2,6.8,1.5c4.1,4.1,10.8,4.1,14.9,0c2.5-2.5,6.7-2.5,9.2,0
		c4.1,4.1,10.8,4.1,14.9,0c1.8-1.8,4.4-2.4,6.8-1.5c0.9,0.3,1.8,0.8,2.5,1.5c3.3,3.3,8.4,4,12.3,1.9L90,87z M90.1,66.3
		c-0.1,0.1-0.2,0.1-0.3,0.2c-2.5,2.5-6.7,2.5-9.2,0c-1.1-1.1-2.5-1.9-4-2.5c-3.8-1.3-8.1-0.3-10.9,2.5c-2.5,2.5-6.7,2.5-9.2,0
		c-4.1-4.1-10.8-4.1-14.9,0c-2.5,2.5-6.7,2.5-9.2,0c-2.8-2.8-7.1-3.8-10.9-2.5c-1.5,0.5-2.8,1.4-4,2.5c-2,2-5,2.5-7.5,1.2l0-9.7
		c3.6,1,7.6,0.1,10.4-2.7c0.7-0.7,1.5-1.2,2.5-1.5c2.4-0.8,5-0.2,6.8,1.5c2.1,2.1,4.8,3.1,7.5,3.1s5.4-1,7.5-3.1
		c1.2-1.2,2.9-1.9,4.6-1.9s3.4,0.7,4.6,1.9c4.1,4.1,10.8,4.1,14.9,0c1.8-1.8,4.4-2.4,6.8-1.5c0.9,0.3,1.8,0.8,2.5,1.5
		c3.4,3.4,8.4,4,12.4,1.9L90.1,66.3z M90.2,52.3c-0.1,0.1-0.2,0.2-0.4,0.3c-2.5,2.5-6.7,2.5-9.2,0c-1.1-1.1-2.5-1.9-4-2.5
		c-3.8-1.3-8.1-0.3-10.9,2.5c-2.5,2.5-6.7,2.5-9.2,0c-2-2-4.6-3.1-7.5-3.1s-5.5,1.1-7.5,3.1c-2.5,2.5-6.7,2.5-9.2,0
		c-2.8-2.8-7.1-3.8-10.9-2.5c-1.5,0.5-2.8,1.4-4,2.5c-2,2-5.1,2.5-7.6,1.2l0-9.1c1.3,0.5,2.6,0.8,4,0.8c2.8,0,5.5-1.1,7.5-3.1
		c0.7-0.7,1.5-1.2,2.5-1.5c2.4-0.8,5-0.2,6.8,1.5c2,2,4.6,3.1,7.5,3.1c2.8,0,5.5-1.1,7.5-3.1c1.2-1.2,2.9-1.9,4.6-1.9
		s3.4,0.7,4.6,1.9c2,2,4.6,3.1,7.5,3.1c2.8,0,5.5-1.1,7.5-3.1c1.8-1.8,4.4-2.4,6.8-1.5c0.9,0.3,1.8,0.8,2.5,1.5c2,2,4.6,3.1,7.5,3.1
		c1.4,0,2.8-0.3,4-0.8L90.2,52.3z"/>
	<path d="M11,23v6c0,1.1,0.9,2,2,2h10c1.1,0,2-0.9,2-2v-6h4c0.8,0,1.5-0.4,1.8-1.1c0.3-0.7,0.2-1.5-0.2-2.1l-11-14
		c-0.8-1-2.4-1-3.1,0l-11,14c-0.5,0.6-0.6,1.4-0.2,2.1C5.5,22.5,6.2,23,7,23H11z M18,10.2l6.9,8.8H23c-1.1,0-2,0.9-2,2v6h-6v-6
		c0-1.1-0.9-2-2-2h-1.9L18,10.2z"/>
	<path d="M39,23h4v6c0,1.1,0.9,2,2,2h10c1.1,0,2-0.9,2-2v-6h4c0.8,0,1.5-0.4,1.8-1.1c0.3-0.7,0.2-1.5-0.2-2.1l-11-14
		c-0.8-1-2.4-1-3.1,0l-11,14c-0.5,0.6-0.6,1.4-0.2,2.1C37.5,22.5,38.2,23,39,23z M50,10.2l6.9,8.8H55c-1.1,0-2,0.9-2,2v6h-6v-6
		c0-1.1-0.9-2-2-2h-1.9L50,10.2z"/>
	<path d="M94.6,19.7l-11-14c-0.8-1-2.4-1-3.1,0l-11,14c-0.5,0.6-0.6,1.4-0.2,2.1c0.3,0.7,1,1.1,1.8,1.1h4v6c0,1.1,0.9,2,2,2h10
		c1.1,0,2-0.9,2-2v-6h4c0.8,0,1.5-0.4,1.8-1.1C95.1,21.2,95,20.3,94.6,19.7z M87,19c-1.1,0-2,0.9-2,2v6h-6v-6c0-1.1-0.9-2-2-2h-1.9
		l6.9-8.8l6.9,8.8H87z"/>
</g>
</svg>
