<?xml version="1.0" encoding="utf-8"?>
<!-- Generator: Adobe Illustrator 21.0.2, SVG Export Plug-In . SVG Version: 6.00 Build 0)  -->
<svg version="1.1" id="Layer_1" xmlns="http://www.w3.org/2000/svg" xmlns:xlink="http://www.w3.org/1999/xlink" x="0px" y="0px"
	 viewBox="0 0 100 100" style="enable-background:new 0 0 100 100;" xml:space="preserve">
<g>
	<path d="M77.8,70.4c-0.5-0.5-1.1-0.9-1.7-1.2c-0.2-0.1-0.5-0.2-0.7-0.3c-1.7-0.6-3.6-0.5-5.2,0.4c-0.6,0.3-1.1,0.7-1.6,1.2
		c-4.1,4.1-10.8,4.1-14.9,0c-0.4-0.4-0.8-0.7-1.2-1c-2.1-1.3-4.8-1.2-6.9,0.1c-0.4,0.2-0.8,0.6-1.1,0.9c-4.1,4.1-10.8,4.1-14.9,0
		c-0.3-0.3-0.5-0.5-0.8-0.7c-1.7-1.2-3.9-1.5-5.9-0.8c-0.6,0.2-1.2,0.5-1.7,0.9c-0.2,0.2-0.5,0.4-0.7,0.6c-2,2-4.7,3.1-7.5,3.1
		c-1,0-1.9-0.1-2.9-0.4L10,88c0,2.2,1.8,4,4,4H86c2.2,0,4-1.8,4-4l0.1-15.7C86.1,74.4,81.1,73.8,77.8,70.4z"/>
	<path d="M78.8,43.4c-0.7-0.7-1.5-1.2-2.5-1.5c-2.4-0.8-5-0.2-6.8,1.5c-2,2-4.6,3.1-7.5,3.1c-2.8,0-5.5-1.1-7.5-3.1
		c-1.2-1.2-2.9-1.9-4.6-1.9s-3.4,0.7-4.6,1.9c-2,2-4.6,3.1-7.5,3.1c-2.8,0-5.5-1.1-7.5-3.1c-1.8-1.8-4.4-2.4-6.8-1.5
		c-0.9,0.3-1.8,0.8-2.5,1.5c-2,2-4.6,3.1-7.5,3.1c-1.4,0-2.8-0.3-4-0.8l0,9.1c2.5,1.3,5.6,0.8,7.6-1.2c1.1-1.1,2.5-2,4-2.5
		c3.8-1.3,8.1-0.3,10.9,2.5c2.5,2.5,6.7,2.5,9.2,0c2-2,4.6-3.1,7.5-3.1s5.5,1.1,7.5,3.1c1,1,2.3,1.6,3.6,1.8c0.8,0.1,1.5,0.1,2.2,0
		c1.2-0.2,2.4-0.8,3.4-1.8c2.8-2.8,7.1-3.8,10.9-2.5c1.5,0.5,2.8,1.4,4,2.5c0.7,0.7,1.5,1.2,2.4,1.5c1.5,0.5,3.1,0.5,4.6-0.1
		c0.8-0.3,1.6-0.8,2.2-1.5c0.1-0.1,0.2-0.2,0.4-0.3l0-7.6c-1.3,0.5-2.6,0.8-4,0.8C83.4,46.5,80.8,45.4,78.8,43.4z"/>
	<path d="M77.8,56.4c-0.5-0.5-1.1-0.9-1.7-1.2c-0.2-0.1-0.5-0.2-0.8-0.3c-1.8-0.6-3.7-0.5-5.2,0.4c-0.5,0.3-1.1,0.7-1.5,1.1
		c-4.1,4.1-10.8,4.1-14.9,0c-0.3-0.3-0.7-0.6-1.1-0.9c-1-0.7-2.2-1-3.5-1c-1.3,0-2.6,0.4-3.6,1.1c-0.3,0.2-0.7,0.5-1,0.8
		c-2.1,2.1-4.8,3.1-7.5,3.1s-5.4-1-7.5-3.1c-0.2-0.2-0.4-0.4-0.7-0.6c-1.7-1.3-4-1.7-6.1-0.9c-0.7,0.2-1.4,0.6-1.9,1
		c-0.2,0.1-0.4,0.3-0.5,0.5c-2.8,2.8-6.8,3.7-10.4,2.7l0,9.7c2.5,1.2,5.5,0.8,7.5-1.2c1.1-1.1,2.5-2,4-2.5c3.8-1.3,8.1-0.3,10.9,2.5
		c2.5,2.5,6.7,2.5,9.2,0c4.1-4.1,10.8-4.1,14.9,0c0.9,0.9,2.1,1.5,3.3,1.8c0.9,0.2,1.9,0.2,2.8,0c1.2-0.3,2.3-0.8,3.2-1.7
		c2.8-2.8,7.1-3.8,10.9-2.5c1.5,0.5,2.8,1.4,4,2.5c0.7,0.7,1.5,1.2,2.4,1.5c1.5,0.6,3.2,0.5,4.6,0c0.8-0.3,1.6-0.8,2.2-1.5
		c0.1-0.1,0.2-0.2,0.3-0.2l0-9.1C86.2,60.4,81.1,59.8,77.8,56.4z"/>
	<polygon points="13,30 23,30 23,22 29,22 18,8 7,22 13,22 	"/>
	<polygon points="45,30 55,30 55,22 61,22 50,8 39,22 45,22 	"/>
	<polygon points="77,30 87,30 87,22 93,22 82,8 71,22 77,22 	"/>
</g>
</svg>
