<?xml version="1.0" encoding="utf-8"?>
<!-- Generator: Adobe Illustrator 23.0.1, SVG Export Plug-In . SVG Version: 6.00 Build 0)  -->
<svg version="1.1" id="Layer_1" xmlns="http://www.w3.org/2000/svg" xmlns:xlink="http://www.w3.org/1999/xlink" x="0px" y="0px"
	 viewBox="0 0 100 100" style="enable-background:new 0 0 100 100;" xml:space="preserve">
<style type="text/css">
	.st0{fill:#000000;}
</style>
<path class="st0" d="M71.6,51.3c-0.7-0.1-1.4,0.1-1.8,0.5s-0.7,1.2-0.5,1.8c0.5,2.4-0.4,4.9-2.3,6.3c-1.3,1-3,1.5-4.7,1.2
	c-1.7-0.2-3.2-1.1-4.2-2.4L25,16.8c-0.4-0.5-1-0.8-1.6-0.8c-5.7,0-11.2,3.2-14.7,8.6C5.1,30,4.4,35.2,6.4,40
	c1.8,4.5,5.5,7.5,9.5,8.3l3.4,33.9c0.1,1,1,1.8,2,1.8H26c1,0,1.9-0.8,2-1.8l3-29.5L43,75.8c2.9,5,8.3,8.2,14.1,8.2h35.6
	c1.1,0,2-0.9,2-2C94.7,64.9,86.9,54.6,71.6,51.3z M24.2,80h-1.1l-3.2-31.6h7.4L24.2,80z M57.1,80c-4.4,0-8.4-2.4-10.6-6.1L31.7,45.5
	c-0.3-0.7-1-1.1-1.8-1.1H17.7c-3.6,0-6.4-3-7.6-6C8.6,35,9.3,31,12,26.8c2.6-3.9,6.4-6.4,10.4-6.7l32.4,41.3
	c3.5,4.5,9.9,5.3,14.4,1.9c2.3-1.8,3.7-4.5,4-7.3c11.3,3.2,16.9,11,17.4,24.1H57.1z"/>
</svg>
