<?xml version="1.0" encoding="utf-8"?>
<!-- Generator: Adobe Illustrator 21.0.2, SVG Export Plug-In . SVG Version: 6.00 Build 0)  -->
<svg version="1.1" id="Layer_1" xmlns="http://www.w3.org/2000/svg" xmlns:xlink="http://www.w3.org/1999/xlink" x="0px" y="0px"
	 viewBox="0 0 100 100" style="enable-background:new 0 0 100 100;" xml:space="preserve">
<g>
	<path d="M83,29h-3.3l-22-18.2c-1-3.3-4-5.8-7.7-5.8c0,0,0,0,0,0s0,0,0,0c-3.6,0-6.7,2.4-7.7,5.8L20.3,29H17c-6.6,0-12,5.4-12,12v42
		c0,6.6,5.4,12,12,12h66c6.6,0,12-5.4,12-12V41C95,34.4,89.6,29,83,29z M50,9c2.2,0,4,1.8,4,4c0,2.2-1.8,4-4,4s-4-1.8-4-4
		C46,10.8,47.8,9,50,9z M42.5,15.8c1.1,3,4.1,5.2,7.5,5.2s6.3-2.2,7.5-5.2l16,13.2H26.5L42.5,15.8z M91,83c0,4.4-3.6,8-8,8H17
		c-4.4,0-8-3.6-8-8V41c0-4.4,3.6-8,8-8h66c4.4,0,8,3.6,8,8V83z"/>
	<path d="M73.9,59.1C72.9,46.7,62.6,37,50,37s-22.9,9.7-23.9,22.1C23.2,59.5,21,62,21,65c0,3,2.2,5.4,5,5.9V77c0,5.5,4.5,10,10,10
		h28c5.5,0,10-4.5,10-10v-6.1c2.8-0.5,5-2.9,5-5.9C79,62,76.8,59.5,73.9,59.1z M50,41c10.3,0,18.9,7.9,19.9,18H30.1
		C31.1,48.9,39.7,41,50,41z M70,77c0,3.3-2.7,6-6,6H36c-3.3,0-6-2.7-6-6v-6h5l5.4,7.2c0.3,0.4,0.8,0.7,1.3,0.8c0.1,0,0.2,0,0.2,0
		c0.5,0,0.9-0.2,1.2-0.4l9.5-7.6H70V77z M40,71h6.3l-3.9,3.1L40,71z M73,67H27c-1.1,0-2-0.9-2-2c0-1.1,0.9-2,2-2h46c1.1,0,2,0.9,2,2
		C75,66.1,74.1,67,73,67z"/>
	<circle cx="59" cy="49" r="2"/>
	<circle cx="41" cy="49" r="2"/>
	<circle cx="50" cy="53" r="2"/>
</g>
</svg>
