<?xml version="1.0" encoding="utf-8"?>
<!-- Generator: Adobe Illustrator 21.0.2, SVG Export Plug-In . SVG Version: 6.00 Build 0)  -->
<svg version="1.1" id="Layer_1" xmlns="http://www.w3.org/2000/svg" xmlns:xlink="http://www.w3.org/1999/xlink" x="0px" y="0px"
	 viewBox="0 0 100 100" style="enable-background:new 0 0 100 100;" xml:space="preserve">
<g>
	<path d="M83,33h-3.2L56,11.7c0-0.2,0-0.4,0-0.7c0-3.3-2.7-6-6-6s-6,2.7-6,6c0,0.2,0,0.4,0,0.7L20.2,33H17c-5.5,0-10,4.5-10,10v42
		c0,5.5,4.5,10,10,10h66c5.5,0,10-4.5,10-10V43C93,37.5,88.5,33,83,33z M45.9,15.4c1.1,1,2.5,1.6,4.1,1.6s3-0.6,4.1-1.6L73.8,33
		H26.2L45.9,15.4z M74,72.9V79c0,5.5-4.5,10-10,10H36c-5.5,0-10-4.5-10-10v-6.1c-2.8-0.5-5-2.9-5-5.9c0-3,2.2-5.5,5.1-5.9
		C27.1,48.7,37.4,39,50,39s22.9,9.7,23.9,22.1C76.8,61.5,79,64,79,67C79,70,76.8,72.4,74,72.9z"/>
	<path d="M50,43c-10.3,0-18.9,7.9-19.9,18h39.8C68.9,50.9,60.3,43,50,43z M41,53c-1.1,0-2-0.9-2-2c0-1.1,0.9-2,2-2s2,0.9,2,2
		C43,52.1,42.1,53,41,53z M50,57c-1.1,0-2-0.9-2-2c0-1.1,0.9-2,2-2s2,0.9,2,2C52,56.1,51.1,57,50,57z M59,53c-1.1,0-2-0.9-2-2
		c0-1.1,0.9-2,2-2s2,0.9,2,2C61,52.1,60.1,53,59,53z"/>
	<path d="M43.2,80.6C42.9,80.8,42.5,81,42,81c-0.1,0-0.2,0-0.2,0c-0.5-0.1-1-0.3-1.3-0.8L35,73h-5v6c0,3.3,2.7,6,6,6h28
		c3.3,0,6-2.7,6-6v-6H52.7L43.2,80.6z"/>
	<path d="M73,65H27c-1.1,0-2,0.9-2,2c0,1.1,0.9,2,2,2h46c1.1,0,2-0.9,2-2C75,65.9,74.1,65,73,65z"/>
	<polygon points="46.3,73 40,73 42.4,76.1 	"/>
</g>
</svg>
