<?xml version="1.0" encoding="utf-8"?>
<!-- Generator: Adobe Illustrator 21.0.2, SVG Export Plug-In . SVG Version: 6.00 Build 0)  -->
<svg version="1.1" id="Layer_1" xmlns="http://www.w3.org/2000/svg" xmlns:xlink="http://www.w3.org/1999/xlink" x="0px" y="0px"
	 viewBox="0 0 100 100" style="enable-background:new 0 0 100 100;" xml:space="preserve">
<g>
	<path d="M86,36.6C85.8,26.3,77.4,18,67,18c-3.1,0-6.2,0.8-8.9,2.2C55.6,11.9,47.9,6,39,6c-10.6,0-19.3,8.3-20,18.7
		C10.8,26.9,5,34.3,5,43c0,10.5,8.5,19,19,19h58c7.2,0,13-5.8,13-13C95,43.3,91.3,38.3,86,36.6z M82,58H24c-8.3,0-15-6.7-15-15
		c0-7.3,5.2-13.5,12.4-14.8c1-0.2,1.7-1,1.7-2c0-0.1,0-0.2,0-0.2c0-8.8,7.2-16,16-16c7.9,0,14.7,5.9,15.8,13.7
		c0.1,0.7,0.6,1.3,1.2,1.6c0.6,0.3,1.4,0.2,2-0.3c2.6-2,5.7-3,9-3c8.3,0,15,6.7,15,15c0,0.3,0,0.6,0,0.9l0,0.2
		c-0.1,1,0.6,1.9,1.6,2.1c4.3,0.8,7.4,4.5,7.4,8.9C91,54,87,58,82,58z"/>
	<circle cx="37" cy="70" r="2"/>
	<circle cx="49" cy="86" r="2"/>
	<circle cx="15" cy="78" r="2"/>
	<circle cx="85" cy="78" r="2"/>
	<circle cx="27" cy="92" r="2"/>
	<circle cx="63" cy="74" r="2"/>
	<circle cx="75" cy="92" r="2"/>
</g>
</svg>
