<?xml version="1.0" encoding="utf-8"?>
<!-- Generator: Adobe Illustrator 21.0.2, SVG Export Plug-In . SVG Version: 6.00 Build 0)  -->
<svg version="1.1" id="Layer_1" xmlns="http://www.w3.org/2000/svg" xmlns:xlink="http://www.w3.org/1999/xlink" x="0px" y="0px"
	 viewBox="0 0 100 100" style="enable-background:new 0 0 100 100;" xml:space="preserve">
<g>
	<path d="M83.9,37.2c0-0.4,0.1-0.8,0.1-1.2c0-9.4-7.6-17-17-17c-3.8,0-7.4,1.3-10.2,3.4C55.5,13.7,48.1,7,39,7c-9.9,0-18,8.1-18,18
		c0,0.1,0,0.2,0,0.3c-8,1.4-14,8.4-14,16.7v0c0,9.4,7.6,17,17,17h48h4h6c6.1,0,11-4.9,11-11C93,42.6,89.1,38.1,83.9,37.2z"/>
	<circle cx="37" cy="69" r="2"/>
	<circle cx="49" cy="85" r="2"/>
	<circle cx="15" cy="77" r="2"/>
	<circle cx="85" cy="77" r="2"/>
	<circle cx="27" cy="91" r="2"/>
	<circle cx="63" cy="73" r="2"/>
	<circle cx="75" cy="91" r="2"/>
</g>
</svg>
