<?xml version="1.0" encoding="utf-8"?>
<!-- Generator: Adobe Illustrator 21.0.2, SVG Export Plug-In . SVG Version: 6.00 Build 0)  -->
<svg version="1.1" id="Layer_1" xmlns="http://www.w3.org/2000/svg" xmlns:xlink="http://www.w3.org/1999/xlink" x="0px" y="0px"
	 viewBox="0 0 100 100" style="enable-background:new 0 0 100 100;" xml:space="preserve">
<path d="M73.6,31.8L69.3,26c1.6-1.1,2.7-2.9,2.7-5c0-3.3-2.7-6-6-6h-4.8l3.5-7.1c0.5-1,0.1-2.2-0.9-2.7c-1-0.5-2.2-0.1-2.7,0.9
	L56.8,15H34c-3.3,0-6,2.7-6,6c0,2.1,1.1,4,2.7,5l-4.3,5.8C26.1,32.1,26,32.6,26,33v50c0,0.5,0.2,1,0.6,1.4c2.4,2.4,4.2,5.4,5.3,8.6
	l0.2,0.6c0.3,0.8,1,1.4,1.9,1.4h32c0.9,0,1.6-0.5,1.9-1.4l0.2-0.6c1.1-3.2,2.9-6.2,5.3-8.6C73.8,84,74,83.5,74,83V33
	C74,32.5,73.9,32.1,73.6,31.8z M34,19h24c0,0,0,0,0,0h8c1.1,0,2,0.9,2,2c0,1.1-0.9,2-2,2H34c-1.1,0-2-0.9-2-2C32,19.9,32.9,19,34,19
	z M64.6,91H35.4c-0.7-1.9-1.6-3.7-2.7-5.3C38.5,86.5,44.2,87,50,87s11.5-0.4,17.3-1.3C66.2,87.3,65.3,89.1,64.6,91z M70,81.1
	c-13.3,2.5-26.7,2.5-40,0V63.9l6,2.2c2.1,0.8,4.4,1.2,6.6,1.2c3.2,0,6.4-0.8,9.3-2.5c4-2.3,8.9-2.5,13.1-0.7l5.2,2.2V81.1z M70,62
	l-3.6-1.5c-5.3-2.3-11.6-1.9-16.6,1c-3.8,2.2-8.3,2.5-12.4,1L30,59.6V45.9l6,2.2c2.1,0.8,4.4,1.2,6.6,1.2c3.2,0,6.4-0.8,9.3-2.5
	c4-2.3,8.9-2.5,13.1-0.7l5.2,2.2V62z M70,44l-3.6-1.5c-5.3-2.3-11.6-1.9-16.6,1c-3.8,2.2-8.3,2.5-12.4,1L30,41.6v-7.9l5-6.7h30
	l5,6.6V44z"/>
</svg>
