<?xml version="1.0" encoding="utf-8"?>
<!-- Generator: Adobe Illustrator 21.0.2, SVG Export Plug-In . SVG Version: 6.00 Build 0)  -->
<svg version="1.1" id="Layer_1" xmlns="http://www.w3.org/2000/svg" xmlns:xlink="http://www.w3.org/1999/xlink" x="0px" y="0px"
	 viewBox="0 0 100 100" style="enable-background:new 0 0 100 100;" xml:space="preserve">
<g>
	<path d="M42,17h16c1.1,0,2-0.9,2-2V7c0-1.1-0.9-2-2-2H42c-1.1,0-2,0.9-2,2v8C40,16.1,40.9,17,42,17z M44,9h12v4H44V9z"/>
	<path d="M70,39.7c0-2.1-0.5-4.1-1.6-6l-5-8.7H65c1.1,0,2-0.9,2-2c0-1.1-0.9-2-2-2H35c-1.1,0-2,0.9-2,2c0,1.1,0.9,2,2,2h1.5l-5,8.7
		c-1,1.8-1.6,3.9-1.6,6V69c0,0.5,0.2,1.1,0.6,1.4C30.2,71.2,30,72.1,30,73v4c0,1.5,0.6,2.9,1.5,4c-0.9,1.1-1.5,2.5-1.5,4v4
		c0,3.3,2.7,6,6,6h28c3.3,0,6-2.7,6-6v-4c0-1.5-0.6-2.9-1.5-4c0.9-1.1,1.5-2.5,1.5-4v-4c0-0.9-0.2-1.8-0.6-2.6
		c0.4-0.4,0.6-0.9,0.6-1.4V39.7z M35,35.7L41.2,25h17.7L65,35.7c0.4,0.7,0.7,1.5,0.9,2.3H34.2C34.4,37.2,34.6,36.4,35,35.7z M66,89
		c0,1.1-0.9,2-2,2H36c-1.1,0-2-0.9-2-2v-4c0-1.1,0.9-2,2-2h28c1.1,0,2,0.9,2,2V89z M66,77c0,1.1-0.9,2-2,2H36c-1.1,0-2-0.9-2-2v-4
		c0-1.1,0.9-2,2-2h28c1.1,0,2,0.9,2,2V77z M66,67H34V42h32V67z"/>
	<path d="M50,63c6.1,0,11-4,11-9c0-5-4.9-9-11-9s-11,4-11,9C39,59,43.9,63,50,63z M50,49c3.8,0,7,2.3,7,5c0,2.7-3.2,5-7,5
		s-7-2.3-7-5C43,51.3,46.2,49,50,49z"/>
</g>
</svg>
