<?xml version="1.0" encoding="utf-8"?>
<!-- Generator: Adobe Illustrator 21.0.2, SVG Export Plug-In . SVG Version: 6.00 Build 0)  -->
<svg version="1.1" id="Layer_1" xmlns="http://www.w3.org/2000/svg" xmlns:xlink="http://www.w3.org/1999/xlink" x="0px" y="0px"
	 viewBox="0 0 100 100" style="enable-background:new 0 0 100 100;" xml:space="preserve">
<g>
	<path d="M64,84H36c-1.1,0-2,0.9-2,2v4c0,1.1,0.9,2,2,2h28c1.1,0,2-0.9,2-2v-4C66,84.9,65.1,84,64,84z"/>
	<path d="M64,72H36c-1.1,0-2,0.9-2,2v4c0,1.1,0.9,2,2,2h28c1.1,0,2-0.9,2-2v-4C66,72.9,65.1,72,64,72z"/>
	<path d="M44,18h12c1.1,0,2-0.9,2-2v-6c0-1.1-0.9-2-2-2H44c-1.1,0-2,0.9-2,2v6C42,17.1,42.9,18,44,18z"/>
	<path d="M34,43v25h32V43H34z M50,62c-5,0-9-3.1-9-7s4-7,9-7s9,3.1,9,7S55,62,50,62z"/>
	<path d="M65,36.7L58.8,26H61c0.8,0,1.5-0.5,1.8-1.1c0.1-0.3,0.2-0.5,0.2-0.9c0-1.1-0.9-2-2-2H39c-1.1,0-2,0.9-2,2
		c0,0.3,0.1,0.6,0.2,0.9c0.3,0.7,1,1.1,1.8,1.1h2.2L35,36.7c-0.4,0.7-0.7,1.5-0.9,2.3h31.6C65.6,38.2,65.4,37.4,65,36.7z"/>
</g>
</svg>
