<?xml version="1.0" encoding="utf-8"?>
<!-- Generator: Adobe Illustrator 21.0.2, SVG Export Plug-In . SVG Version: 6.00 Build 0)  -->
<svg version="1.1" id="Layer_1" xmlns="http://www.w3.org/2000/svg" xmlns:xlink="http://www.w3.org/1999/xlink" x="0px" y="0px"
	 viewBox="0 0 100 100" style="enable-background:new 0 0 100 100;" xml:space="preserve">
<g>
	<path d="M30.2,86c1.6,2.1,2.8,4.4,3.6,6.8l0.2,0.6h32l0.2-0.6c0.8-2.5,2-4.8,3.6-6.8c-6.6,1-13.2,1.5-19.8,1.5S36.8,87,30.2,86z"/>
	<path d="M65.5,46.9l-0.7-0.3c-3.1-1.3-6.5-1.5-9.7-0.6c-1.2,0.3-2.3,0.8-3.4,1.4c-2.9,1.6-6,2.5-9.3,2.5c-2.2,0-4.4-0.4-6.6-1.2
		l-8-3v13.9c0.2,0,0.5,0,0.7,0.1l6.8,2.5l1.9,0.7c3,1.1,6.3,1.2,9.3,0.3c1.1-0.3,2.1-0.8,3.1-1.3c5.1-2.9,11.3-3.2,16.6-1l5.6,2.4
		V49.5c-0.3,0-0.5,0-0.8-0.2L65.5,46.9z"/>
	<path d="M66.7,26.4c1.9-0.3,3.3-2,3.3-3.9c0-2.2-1.8-4-4-4h-5.8l4.5-9.1c0.5-1,0.1-2.2-0.9-2.7c-1-0.5-2.2-0.1-2.7,0.9l-5,10
		c-0.1,0.3-0.2,0.6-0.2,0.9H34c-2.2,0-4,1.8-4,4c0,2,1.4,3.6,3.3,3.9L28,33.5v8c0.2,0,0.5,0,0.7,0.1l6.8,2.5l1.9,0.7
		c3,1.1,6.3,1.2,9.3,0.3c1.1-0.3,2.1-0.8,3.1-1.3c5.1-2.9,11.3-3.2,16.6-1l5.6,2.4V33.5L66.7,26.4z"/>
	<path d="M65.6,64.9l-0.7-0.3c-3.1-1.3-6.5-1.5-9.7-0.6c-1.2,0.3-2.3,0.8-3.4,1.4c-2.9,1.6-6,2.5-9.3,2.5c-2.2,0-4.4-0.4-6.6-1.2
		l-8-3v18c14.6,2.5,29.4,2.5,44,0V67.5c-0.3,0-0.5,0-0.8-0.2L65.6,64.9z"/>
</g>
</svg>
