<?xml version="1.0" encoding="utf-8"?>
<!-- Generator: Adobe Illustrator 21.0.2, SVG Export Plug-In . SVG Version: 6.00 Build 0)  -->
<svg version="1.1" id="Layer_1" xmlns="http://www.w3.org/2000/svg" xmlns:xlink="http://www.w3.org/1999/xlink" x="0px" y="0px"
	 viewBox="0 0 100 100" style="enable-background:new 0 0 100 100;" xml:space="preserve">
<g>
	<path d="M78.7,29.9c-1.2-5.4-6.5-8.8-11.9-7.6c-5.1,1.1-8.5,6-7.8,11.1h-1.9c0,0,0,0,0,0H27.2c0,0,0,0,0,0h-7.1
		c-2.7,0-5,1.7-5.7,4.2l-8.5,28c-0.6,1.8-0.2,3.8,0.9,5.3c1.1,1.5,2.9,2.4,4.8,2.4h28.6v10H19.9c-0.4,0-0.9,0.1-1.2,0.4l-7.8,6
		c-1.5,1.2-0.7,3.6,1.2,3.6h60.2c1.9,0,2.7-2.4,1.2-3.6l-7.8-6c-0.3-0.3-0.8-0.4-1.2-0.4H44.2v-10h28.6c1.9,0,3.7-0.9,4.8-2.4
		c1.1-1.6,1.5-3.5,0.9-5.3l-7.3-23.8C76.6,40.5,79.9,35.3,78.7,29.9z M64.2,37.4c0.9,0,1.7,0.6,1.9,1.4l2,6.6h-6.7l-1.8-8H64.2z
		 M39,37.4h6.3l0.7,8h-7.7L39,37.4z M38,49.4h8.3l0.7,8h-9.7L38,49.4z M18.2,38.8c0.3-0.8,1-1.4,1.9-1.4h4.5l-1.8,8h-6.7L18.2,38.8z
		 M17.6,69.4h-6c-0.6,0-1.2-0.3-1.6-0.8c-0.4-0.5-0.5-1.2-0.3-1.8l1.7-5.4h8L17.6,69.4z M12.6,57.4l2.4-8h7l-1.8,8H12.6z M32.4,69.4
		H21.7l1.8-8H33L32.4,69.4z M33.4,57.4h-9l1.8-8H34L33.4,57.4z M34.4,45.4H27l1.8-8H35L34.4,45.4z M36.4,69.4l0.7-8h10.3l0.7,8H36.4
		z M49.4,37.4h6.2l1.8,8H50L49.4,37.4z M50.4,49.4h7.9l1.8,8h-9L50.4,49.4z M52,69.4l-0.7-8h9.6l1.8,8H52z M74.7,66.8
		c0.2,0.6,0.1,1.2-0.3,1.8c-0.4,0.5-1,0.8-1.6,0.8h-6l-1.8-8h8L74.7,66.8z M71.8,57.4h-7.7l-1.8-8h6.8c0.1,0,0.1,0,0.2,0L71.8,57.4z
		"/>
	<path d="M63.2,14.9c0.2,0.9,1,1.6,2,1.6c0.1,0,0.3,0,0.4,0c1.1-0.2,1.8-1.3,1.5-2.4l-1.3-5.9c-0.2-1.1-1.3-1.8-2.4-1.5
		C62.3,6.9,61.6,8,61.9,9L63.2,14.9z"/>
	<path d="M83,10.2c-0.9-0.6-2.2-0.3-2.8,0.6L77,15.8c-0.6,0.9-0.3,2.2,0.6,2.8c0.3,0.2,0.7,0.3,1.1,0.3c0.7,0,1.3-0.3,1.7-0.9
		l3.2-5.1C84.2,12,83.9,10.8,83,10.2z"/>
	<path d="M47.7,20.8l5.1,3.2c0.3,0.2,0.7,0.3,1.1,0.3c0.7,0,1.3-0.3,1.7-0.9c0.6-0.9,0.3-2.2-0.6-2.8l-5.1-3.2
		c-0.9-0.6-2.2-0.3-2.8,0.6C46.5,19,46.7,20.2,47.7,20.8z"/>
	<path d="M90.3,43.3l-5.1-3.2c-0.9-0.6-2.2-0.3-2.8,0.6c-0.6,0.9-0.3,2.2,0.6,2.8l5.1,3.2c0.3,0.2,0.7,0.3,1.1,0.3
		c0.7,0,1.3-0.3,1.7-0.9C91.5,45.2,91.2,43.9,90.3,43.3z"/>
	<path d="M94.4,26.5c-0.2-1.1-1.3-1.8-2.4-1.5l-5.9,1.3c-1.1,0.2-1.8,1.3-1.5,2.4c0.2,0.9,1,1.6,2,1.6c0.1,0,0.3,0,0.4,0l5.9-1.3
		C93.9,28.7,94.6,27.6,94.4,26.5z"/>
</g>
</svg>
