<?xml version="1.0" encoding="utf-8"?>
<!-- Generator: Adobe Illustrator 21.0.2, SVG Export Plug-In . SVG Version: 6.00 Build 0)  -->
<svg version="1.1" id="Layer_1" xmlns="http://www.w3.org/2000/svg" xmlns:xlink="http://www.w3.org/1999/xlink" x="0px" y="0px"
	 viewBox="0 0 100 100" style="enable-background:new 0 0 100 100;" xml:space="preserve">
<g>
	<path d="M81.4,28.5c-0.7-3.1-2.5-5.8-5.2-7.5c-2.7-1.7-5.9-2.3-9-1.6c-3.1,0.7-5.8,2.6-7.5,5.2c-1.5,2.3-2.1,5.1-1.8,7.8H20.9
		c-2.7,0-5,1.7-5.7,4.2l-8.5,28c-0.6,1.8-0.2,3.8,0.9,5.3c1.1,1.5,2.9,2.4,4.8,2.4h28.6v8h-21c-0.4,0-0.9,0.1-1.2,0.4l-13,10
		C5,91.3,4.7,92.2,5,93c0.3,0.8,1,1.4,1.9,1.4h72c0.9,0,1.6-0.5,1.9-1.4c0.3-0.8,0-1.7-0.7-2.2l-13-10c-0.3-0.3-0.8-0.4-1.2-0.4h-21
		v-8h28.6c1.9,0,3.7-0.9,4.8-2.4c1.1-1.6,1.5-3.5,0.9-5.3l-6.7-21.9C78.8,41.2,82.8,34.9,81.4,28.5z M64.9,36.4
		c0.9,0,1.7,0.6,1.9,1.4l2,6.6h-6.7l-1.8-8H64.9z M39.7,36.4h6.3l0.7,8h-7.7L39.7,36.4z M38.7,48.4h8.3l0.7,8h-9.7L38.7,48.4z
		 M18.9,37.8c0.3-0.8,1-1.4,1.9-1.4h4.5l-1.8,8h-6.7L18.9,37.8z M18.3,68.4h-6c-0.6,0-1.2-0.3-1.6-0.8c-0.4-0.5-0.5-1.2-0.3-1.8
		l1.7-5.4h8L18.3,68.4z M13.3,56.4l2.4-8h7l-1.8,8H13.3z M33.1,68.4H22.4l1.8-8h9.6L33.1,68.4z M34.1,56.4h-9l1.8-8h7.9L34.1,56.4z
		 M35.1,44.4h-7.3l1.8-8h6.2L35.1,44.4z M65.2,84.4l7.8,6H12.8l7.8-6H65.2z M37.1,68.4l0.7-8h10.3l0.7,8H37.1z M50.1,36.4h6.2l1.8,8
		h-7.3L50.1,36.4z M51.1,48.4H59l1.8,8h-9L51.1,48.4z M52.7,68.4l-0.7-8h9.6l1.8,8H52.7z M63.1,48.4h6.8c0.1,0,0.1,0,0.2,0l2.5,8
		h-7.7L63.1,48.4z M73.7,60.4l1.7,5.4c0.2,0.6,0.1,1.2-0.3,1.8c-0.4,0.5-1,0.8-1.6,0.8h-6l-1.8-8H73.7z M71.4,38.9L71.4,38.9
		l-0.7-2.2c-0.8-2.5-3.1-4.2-5.7-4.2h-3.1c-0.3-2,0.1-3.9,1.1-5.6c1.2-1.8,2.9-3,5-3.5c0.6-0.1,1.2-0.2,1.7-0.2c1.5,0,3,0.4,4.3,1.3
		c1.8,1.1,3,2.9,3.5,5C78.4,33.7,75.7,37.9,71.4,38.9z"/>
	<path d="M63.9,13.9c0.2,0.9,1,1.6,2,1.6c0.1,0,0.3,0,0.4,0c1.1-0.2,1.8-1.3,1.5-2.4l-1.3-5.9c-0.2-1.1-1.3-1.8-2.4-1.5
		C63,5.9,62.3,7,62.6,8L63.9,13.9z"/>
	<path d="M78.3,17.6c0.3,0.2,0.7,0.3,1.1,0.3c0.7,0,1.3-0.3,1.7-0.9l3.2-5.1c0.6-0.9,0.3-2.2-0.6-2.8c-0.9-0.6-2.2-0.3-2.8,0.6
		l-3.2,5.1C77.1,15.8,77.4,17,78.3,17.6z"/>
	<path d="M48.4,19.8l5.1,3.2c0.3,0.2,0.7,0.3,1.1,0.3c0.7,0,1.3-0.3,1.7-0.9c0.6-0.9,0.3-2.2-0.6-2.8l-5.1-3.2
		c-0.9-0.6-2.2-0.3-2.8,0.6C47.2,18,47.4,19.2,48.4,19.8z"/>
	<path d="M90.9,42.3l-5.1-3.2c-0.9-0.6-2.2-0.3-2.8,0.6c-0.6,0.9-0.3,2.2,0.6,2.8l5.1,3.2c0.3,0.2,0.7,0.3,1.1,0.3
		c0.7,0,1.3-0.3,1.7-0.9C92.2,44.2,91.9,42.9,90.9,42.3z"/>
	<path d="M95.1,25.5c-0.2-1.1-1.3-1.8-2.4-1.5l-5.9,1.3c-1.1,0.2-1.8,1.3-1.5,2.4c0.2,0.9,1,1.6,2,1.6c0.1,0,0.3,0,0.4,0l5.9-1.3
		C94.6,27.7,95.3,26.6,95.1,25.5z"/>
</g>
</svg>
