<?xml version="1.0" encoding="utf-8"?>
<!-- Generator: Adobe Illustrator 21.0.2, SVG Export Plug-In . SVG Version: 6.00 Build 0)  -->
<svg version="1.1" id="Layer_1" xmlns="http://www.w3.org/2000/svg" xmlns:xlink="http://www.w3.org/1999/xlink" x="0px" y="0px"
	 viewBox="0 0 100 100" style="enable-background:new 0 0 100 100;" xml:space="preserve">
<g>
	<path d="M88,85H10c-2.2,0-4,1.8-4,4c0,2.2,1.8,4,4,4h78c2.2,0,4-1.8,4-4C92,86.8,90.2,85,88,85z"/>
	<path d="M38,79h22c2.2,0,4-1.8,4-4v-4.3c10.6-1.4,19.4-8.3,23.5-17.7h-77c4.1,9.4,12.9,16.3,23.5,17.7V75C34,77.2,35.8,79,38,79z"
		/>
	<path d="M92.2,21L50,16.8V11h42c1.1,0,2-0.9,2-2c0-1.1-0.9-2-2-2H18c-1.1,0-2,0.9-2,2c0,1.1,0.9,2,2,2h4v30H8c0,2.8,0.4,5.5,1.1,8
		h79.8c0.7-2.5,1.1-5.2,1.1-8H50V20.8L91.8,25c0.1,0,0.1,0,0.2,0c1,0,1.9-0.8,2-1.8C94.1,22.1,93.3,21.1,92.2,21z M30,41h-4V11h4V41
		z M38,41h-4V11h4V41z M46,41h-4V11h4V41z"/>
</g>
</svg>
