<?xml version="1.0" encoding="utf-8"?>
<!-- Generator: Adobe Illustrator 21.0.2, SVG Export Plug-In . SVG Version: 6.00 Build 0)  -->
<svg version="1.1" id="Layer_1" xmlns="http://www.w3.org/2000/svg" xmlns:xlink="http://www.w3.org/1999/xlink" x="0px" y="0px"
	 viewBox="0 0 100 100" style="enable-background:new 0 0 100 100;" xml:space="preserve">
<g>
	<path d="M89,83H11c-3.3,0-6,2.7-6,6s2.7,6,6,6h78c3.3,0,6-2.7,6-6S92.3,83,89,83z M89,91H11c-1.1,0-2-0.9-2-2c0-1.1,0.9-2,2-2h78
		c1.1,0,2,0.9,2,2C91,90.1,90.1,91,89,91z"/>
	<path d="M33,70.4V73c0,3.3,2.7,6,6,6h22c3.3,0,6-2.7,6-6v-2.6c14.9-2.8,26-16,26-31.4c0-1.1-0.9-2-2-2H51V18.8L92.8,23
		c0.1,0,0.1,0,0.2,0c1,0,1.9-0.8,2-1.8c0.1-1.1-0.7-2.1-1.8-2.2L51,14.8V9h42c1.1,0,2-0.9,2-2c0-1.1-0.9-2-2-2H19c-1.1,0-2,0.9-2,2
		c0,1.1,0.9,2,2,2h4v28H9c-1.1,0-2,0.9-2,2C7,54.4,18.1,67.6,33,70.4z M43,9h4v28h-4V9z M35,9h4v28h-4V9z M27,9h4v28h-4V9z M11.1,41
		h77.9c-0.1,2.1-0.5,4.1-1.1,6H12.2C11.6,45.1,11.2,43.1,11.1,41z M86.3,51c-4,8.3-11.9,14.5-21.5,15.7c-1,0.1-1.7,1-1.7,2V73
		c0,1.1-0.9,2-2,2H39c-1.1,0-2-0.9-2-2v-4.3c0-1-0.7-1.8-1.7-2c-9.6-1.3-17.5-7.4-21.5-15.7H86.3z"/>
</g>
</svg>
