<?xml version="1.0" encoding="utf-8"?>
<!-- Generator: Adobe Illustrator 23.0.1, SVG Export Plug-In . SVG Version: 6.00 Build 0)  -->
<svg version="1.1" id="Layer_1" xmlns="http://www.w3.org/2000/svg" xmlns:xlink="http://www.w3.org/1999/xlink" x="0px" y="0px"
	 viewBox="0 0 100 100" style="enable-background:new 0 0 100 100;" xml:space="preserve">
<style type="text/css">
	.st0{fill:#000000;}
</style>
<path class="st0" d="M88.2,69.8L84,67.3V32.6l4.2-2.4c1-0.5,1.3-1.8,0.7-2.7c-0.5-1-1.8-1.3-2.7-0.7L82,29.2L52,11.8V7
	c0-1.1-0.9-2-2-2s-2,0.9-2,2v4.8L18,29.2l-4.2-2.4c-1-0.6-2.2-0.2-2.7,0.7c-0.6,1-0.2,2.2,0.7,2.7l4.2,2.4v34.7l-4.2,2.4
	c-1,0.6-1.3,1.8-0.7,2.7c0.4,0.6,1,1,1.7,1c0.3,0,0.7-0.1,1-0.3l4.2-2.4l30,17.3V93c0,1.1,0.9,2,2,2s2-0.9,2-2v-4.8l30-17.3l4.2,2.4
	c0.3,0.2,0.7,0.3,1,0.3c0.7,0,1.4-0.4,1.7-1C89.5,71.5,89.2,70.3,88.2,69.8z M52,16.5l26,15l-8.1,4.7L52,25.8V16.5z M59.5,53.2
	c0.3-1,0.5-2,0.5-3.2s-0.2-2.2-0.5-3.2l8.4-4.9V58L59.5,53.2z M65.9,61.5l-13.9,8v-9.7c2.2-0.4,4.1-1.6,5.5-3.2L65.9,61.5z M52,30.5
	l13.9,8l-8.5,4.9c-1.4-1.6-3.3-2.7-5.5-3.2V30.5z M48,16.5v9.4L30.1,36.2L22,31.5L48,16.5z M40.5,53.2L32.1,58V42l8.4,4.9
	c-0.3,1-0.5,2.1-0.5,3.2S40.2,52.2,40.5,53.2z M34.1,38.5l13.9-8v9.7c-2.2,0.4-4.1,1.6-5.5,3.2L34.1,38.5z M20,35l8.1,4.7v20.7
	L20,65V35z M48,83.5l-26-15l8.1-4.7L48,74.2V83.5z M48,69.5l-13.9-8l8.5-4.9c1.4,1.6,3.3,2.7,5.5,3.2V69.5z M50,56c-3.3,0-6-2.7-6-6
	s2.7-6,6-6s6,2.7,6,6S53.3,56,50,56z M52,83.5v-9.4l17.9-10.3l8.1,4.7L52,83.5z M80,65l-8.1-4.7V39.6L80,35V65z"/>
</svg>
