<?xml version="1.0" encoding="utf-8"?>
<!-- Generator: Adobe Illustrator 23.0.1, SVG Export Plug-In . SVG Version: 6.00 Build 0)  -->
<svg version="1.1" id="Layer_1" xmlns="http://www.w3.org/2000/svg" xmlns:xlink="http://www.w3.org/1999/xlink" x="0px" y="0px"
	 viewBox="0 0 100 100" style="enable-background:new 0 0 100 100;" xml:space="preserve">
<path d="M56,44c3.2,3.2,7.5,5,12,5s8.8-1.8,12-5c3.2-3.2,5-7.5,5-12c0-4.5-1.8-8.8-5-12c-3.2-3.2-7.5-5-12-5s-8.8,1.8-12,5
	c-3.2,3.2-5,7.5-5,12C51,36.5,52.8,40.8,56,44z M68,45c-2.8,0-5.5-0.9-7.7-2.5l4.3-4.3c1,0.5,2.2,0.8,3.3,0.8s2.3-0.3,3.3-0.8
	l4.3,4.3C73.5,44.1,70.8,45,68,45z M65,32c0-0.8,0.3-1.5,0.9-2.1S67.2,29,68,29s1.5,0.3,2.1,0.9S71,31.2,71,32s-0.3,1.5-0.9,2.1
	C69.6,34.7,68.8,35,68,35s-1.6-0.3-2.1-0.8C65.3,33.5,65,32.8,65,32z M81,32c0,2.8-0.9,5.5-2.5,7.7l-4.3-4.3c0.6-1,0.8-2.1,0.8-3.3
	s-0.3-2.3-0.8-3.3l4.3-4.3C80.1,26.5,81,29.2,81,32z M68,19c2.8,0,5.5,0.9,7.7,2.5l-4.3,4.3c-1-0.5-2.2-0.8-3.3-0.8
	s-2.3,0.3-3.3,0.8l-4.3-4.3C62.5,19.9,65.2,19,68,19z M57.5,24.3l4.3,4.3c-0.6,1-0.8,2.2-0.8,3.3s0.3,2.3,0.8,3.3l-4.3,4.3
	C55.9,37.5,55,34.8,55,32C55,29.2,55.9,26.5,57.5,24.3z M88,55h-5.9c1.8-1.1,3.4-2.4,5-3.9c10.5-10.5,10.5-27.6,0-38.2
	C82,7.8,75.2,5,68,5c-0.5,0-1,0-1.5,0c-8.3,0.2-16.6,2.2-24.1,5.9L12,25.8L9,6.7C8.8,5.6,7.8,4.8,6.7,5C5.6,5.2,4.8,6.2,5,7.3
	l4,24.9c0,0.6,0.1,1.2,0.3,1.8l3.4,21H12c-3.9,0-7,3.1-7,7s3.1,7,7,7h10.5l-5.3,17.2c-0.6,2.1-0.3,4.3,1,6c1.3,1.8,3.3,2.8,5.5,2.8
	c3,0,5.6-1.9,6.5-4.8l2.8-9.2h34.1l2.8,9.2c0.9,2.9,3.5,4.8,6.5,4.8c2.2,0,4.2-1,5.5-2.8c1.3-1.8,1.7-3.9,1-6L77.5,69H88
	c3.9,0,7-3.1,7-7S91.9,55,88,55z M68,9c6.1,0,11.9,2.4,16.3,6.7c9,9,9,23.6,0,32.5c-9,9-23.5,9-32.5,0c-9-9-9-23.6,0-32.5
	C56.1,11.4,61.9,9,68,9z M20,26.3l24.2-11.8c1.8-0.9,3.6-1.6,5.4-2.3c-0.2,0.2-0.5,0.5-0.7,0.7c-10.5,10.5-10.5,27.7,0,38.2
	c0.2,0.2,0.5,0.5,0.7,0.7c-1.9-0.7-3.7-1.4-5.4-2.3L20,37.7c1.8-1.3,3-3.4,3-5.7C23,29.6,21.8,27.6,20,26.3z M46.9,55H16.7
	l-2.5-15.7l28.2,13.8C43.9,53.8,45.4,54.4,46.9,55z M16,29c1.7,0,3,1.3,3,3c0,1.6-1.3,3-3,3c-1.3,0-2.4-0.8-2.8-2L13,31.9
	C13.1,30.3,14.4,29,16,29z M26.3,89c-0.4,1.2-1.4,2-2.7,2c-0.9,0-1.7-0.4-2.2-1.1c-0.5-0.7-0.7-1.6-0.4-2.5L26.6,69h5.8L26.3,89z
	 M34.2,77l2.5-8h26.7l2.5,8H34.2z M79,87.4c0.3,0.9,0.1,1.8-0.4,2.5c-0.5,0.7-1.3,1.1-2.2,1.1c-1.2,0-2.3-0.8-2.7-2l-6.2-20h5.8
	L79,87.4z M88,65H12c-1.7,0-3-1.4-3-3c0-1.7,1.3-3,3-3h76c1.7,0,3,1.3,3,3C91,63.6,89.7,65,88,65z"/>
</svg>
