<?xml version="1.0" encoding="utf-8"?>
<!-- Generator: Adobe Illustrator 23.0.1, SVG Export Plug-In . SVG Version: 6.00 Build 0)  -->
<svg version="1.1" id="Layer_1" xmlns="http://www.w3.org/2000/svg" xmlns:xlink="http://www.w3.org/1999/xlink" x="0px" y="0px"
	 viewBox="0 0 100 100" style="enable-background:new 0 0 100 100;" xml:space="preserve">
<path d="M9.2,33.4l4,25.6h4l-3.1-19.7l28.3,13.8C50.3,57,59.2,59,68,59c0.1,0,0.1,0,0.2,0c6.9,0,13.7-2.7,18.9-7.9
	c10.5-10.5,10.5-27.6,0-38.2C82,7.8,75.2,5,68,5c-0.5,0-1,0-1.5,0c-8.3,0.2-16.6,2.2-24.1,5.9L12,25.8L9,6.7C8.8,5.6,7.8,4.8,6.7,5
	C5.6,5.2,4.8,6.2,5,7.3l4,25.6C9.1,33.1,9.1,33.2,9.2,33.4z M56,20c3.2-3.2,7.5-5,12-5s8.8,1.8,12,5c3.2,3.2,5,7.5,5,12
	c0,4.5-1.8,8.8-5,12c-3.2,3.2-7.5,5-12,5s-8.8-1.8-12-5c-3.2-3.2-5-7.5-5-12C51,27.5,52.8,23.2,56,20z M20,26.3l24.2-11.8
	c1.8-0.9,3.6-1.6,5.4-2.3c-0.2,0.2-0.5,0.5-0.7,0.7c-10.5,10.5-10.5,27.7,0,38.2c0.2,0.2,0.5,0.5,0.7,0.7c-1.9-0.7-3.7-1.4-5.4-2.3
	L20,37.7c1.8-1.3,3-3.4,3-5.7C23,29.6,21.8,27.6,20,26.3z M16,29c1.7,0,3,1.3,3,3c0,1.6-1.3,3-3,3s-3-1.4-3-3C13,30.3,14.3,29,16,29
	z M65.8,81l1.2,4H32.9l1.2-4H65.8z M57.5,39.7C55.9,37.5,55,34.8,55,32c0-2.8,0.9-5.5,2.5-7.7l4.3,4.3c-0.6,1-0.8,2.2-0.8,3.3
	s0.3,2.3,0.8,3.3L57.5,39.7z M74.2,28.7l4.3-4.3c1.6,2.2,2.5,4.9,2.5,7.7c0,2.8-0.9,5.5-2.5,7.7l-4.3-4.3c0.6-1,0.8-2.1,0.8-3.3
	S74.7,29.7,74.2,28.7z M64.7,25.8l-4.3-4.3c2.2-1.6,4.9-2.5,7.7-2.5s5.5,0.9,7.7,2.5l-4.3,4.3c-1-0.5-2.2-0.8-3.3-0.8
	S65.7,25.3,64.7,25.8z M71.3,38.2l4.3,4.3C73.5,44.1,70.8,45,68,45s-5.5-0.9-7.7-2.5l4.3-4.3c1,0.5,2.2,0.8,3.3,0.8
	S70.3,38.7,71.3,38.2z M68,35c-0.8,0-1.6-0.3-2.1-0.8C65.3,33.5,65,32.8,65,32s0.3-1.5,0.9-2.1S67.2,29,68,29s1.5,0.3,2.1,0.9
	S71,31.2,71,32s-0.3,1.5-0.9,2.1C69.6,34.7,68.8,35,68,35z M91,66c0,1.6-1.3,3-3,3H12c-1.7,0-3-1.4-3-3c0-1.7,1.3-3,3-3h76
	C89.7,63,91,64.3,91,66z M26.6,73h5.8l-6.2,20c-0.4,1.2-1.4,2-2.7,2c-0.9,0-1.7-0.4-2.2-1.1c-0.5-0.7-0.7-1.6-0.4-2.5L26.6,73z
	 M79,91.4c0.3,0.9,0.1,1.8-0.4,2.5c-0.5,0.7-1.3,1.1-2.2,1.1c-1.2,0-2.3-0.8-2.7-2l-6.2-20h5.8L79,91.4z"/>
</svg>
