<?xml version="1.0" encoding="utf-8"?>
<!-- Generator: Adobe Illustrator 21.0.2, SVG Export Plug-In . SVG Version: 6.00 Build 0)  -->
<svg version="1.1" id="Layer_1" xmlns="http://www.w3.org/2000/svg" xmlns:xlink="http://www.w3.org/1999/xlink" x="0px" y="0px"
	 viewBox="0 0 100 100" style="enable-background:new 0 0 100 100;" xml:space="preserve">
<g>
	<path d="M21,16c0-2.8,2.2-5,5-5s5,2.2,5,5v1h4v-1c0-5-4-9-9-9s-9,4-9,9v1h4V16z"/>
	<path d="M45,16c0-2.8,2.2-5,5-5s5,2.2,5,5v1h4v-1c0-5-4-9-9-9s-9,4-9,9v1h4V16z"/>
	<path d="M69,16c0-2.8,2.2-5,5-5s5,2.2,5,5v1h4v-1c0-5-4-9-9-9s-9,4-9,9v1h4V16z"/>
	<path d="M85,21h-2v4c0,1.1-0.9,2-2,2s-2-0.9-2-2v-4H59v4c0,1.1-0.9,2-2,2s-2-0.9-2-2v-4H35v4c0,1.1-0.9,2-2,2s-2-0.9-2-2v-4H15
		c-3.3,0-6,2.7-6,6v60c0,3.3,2.7,6,6,6h70c3.3,0,6-2.7,6-6V27C91,23.7,88.3,21,85,21z M78.5,61.3L77.1,63c-2.4,2.7-5.7,4.3-9.1,4.4
		c2.3,2.5,3.6,6,3.3,9.6l-0.2,2.2c-0.1,1-0.8,1.8-1.8,1.8L67,81.2c-0.3,0-0.7,0-1,0c-3.2,0-6.3-1.2-8.6-3.3
		c-0.2,3.5-1.7,6.8-4.5,9.1l-1.7,1.4C50.9,88.8,50.5,89,50,89s-0.9-0.2-1.3-0.5L47,87.1c-2.7-2.3-4.3-5.7-4.5-9.1
		c-2.3,2.1-5.3,3.3-8.6,3.3c-0.3,0-0.6,0-1,0l-2.2-0.2c-1-0.1-1.8-0.9-1.8-1.8L28.8,77c-0.3-3.6,1-7,3.3-9.6
		c-3.5-0.2-6.8-1.7-9.1-4.4l-1.5-1.7c-0.6-0.8-0.6-1.8,0-2.6l1.5-1.7c2.3-2.7,5.6-4.3,9-4.5c-2.3-2.5-3.5-5.9-3.2-9.5l0.2-2.2
		c0.1-1,0.8-1.8,1.8-1.8l2.2-0.2c3.6-0.3,7,1,9.6,3.3c0.1-3.5,1.7-6.8,4.5-9.2l1.7-1.5c0.8-0.6,1.8-0.6,2.6,0l1.7,1.5
		c2.7,2.3,4.3,5.7,4.5,9.1c2.5-2.3,6-3.6,9.6-3.3l2.2,0.2c1,0.1,1.8,0.8,1.8,1.8l0.2,2.2c0.3,3.6-1,7-3.3,9.6
		c3.5,0.2,6.8,1.7,9.1,4.5l1.5,1.7C79.2,59.5,79.2,60.5,78.5,61.3z"/>
	<path d="M64.1,57.2l-1.3,0.5c0.1,0.8,0.2,1.5,0.2,2.3c0,0.8-0.1,1.6-0.2,2.3l1.3,0.5c3.5,1.4,7.5,0.4,10-2.4l0.3-0.4L74,59.6
		C71.6,56.8,67.6,55.8,64.1,57.2z"/>
	<path d="M52.3,72.8C51.6,72.9,50.8,73,50,73s-1.6-0.1-2.3-0.2l-0.5,1.3c-1.4,3.5-0.4,7.5,2.4,10l0.4,0.3l0.4-0.3
		c2.9-2.5,3.8-6.5,2.4-10L52.3,72.8z"/>
	<path d="M39.3,67.4l-1.3,0.5c-3.5,1.5-5.6,5-5.3,8.8l0,0.5l0.5,0c3.8,0.3,7.3-1.9,8.8-5.3l0.5-1.3C41.3,69.8,40.2,68.7,39.3,67.4z"
		/>
	<path d="M38.1,52.1l1.2,0.5c0.9-1.3,2-2.4,3.3-3.3l-0.5-1.2c-1.5-3.5-5-5.6-8.8-5.3l-0.5,0l0,0.5C32.5,47.1,34.6,50.6,38.1,52.1z"
		/>
	<path d="M35.9,62.8l1.3-0.5C37.1,61.6,37,60.8,37,60c0-0.8,0.1-1.6,0.2-2.3l-1.3-0.5c-3.5-1.4-7.5-0.4-10,2.4L25.6,60l0.3,0.4
		C28.4,63.2,32.4,64.2,35.9,62.8z"/>
	<path d="M47.7,47.2c0.8-0.1,1.5-0.2,2.3-0.2s1.6,0.1,2.3,0.2l0.5-1.3c1.4-3.5,0.4-7.5-2.4-10L50,35.6L49.6,36
		c-2.9,2.5-3.8,6.5-2.4,10L47.7,47.2z"/>
	<path d="M60.7,52.6l1.3-0.5c3.5-1.5,5.6-5,5.3-8.8l0-0.5l-0.5,0c-3.8-0.3-7.3,1.8-8.8,5.3l-0.5,1.3C58.7,50.2,59.8,51.3,60.7,52.6z
		"/>
	<path d="M61.9,67.9l-1.3-0.5c-0.9,1.3-2,2.4-3.3,3.3l0.5,1.3c1.5,3.5,5,5.6,8.8,5.3l0.5,0l0-0.5C67.5,72.9,65.4,69.4,61.9,67.9z"/>
	<path d="M50,51c-5,0-9,4-9,9c0,5,4,9,9,9s9-4,9-9C59,55,55,51,50,51z"/>
</g>
</svg>
