<?xml version="1.0" encoding="utf-8"?>
<!-- Generator: Adobe Illustrator 21.0.2, SVG Export Plug-In . SVG Version: 6.00 Build 0)  -->
<svg version="1.1" id="Layer_1" xmlns="http://www.w3.org/2000/svg" xmlns:xlink="http://www.w3.org/1999/xlink" x="0px" y="0px"
	 viewBox="0 0 100 100" style="enable-background:new 0 0 100 100;" xml:space="preserve">
<g>
	<path d="M85,15h-2v-1c0-5-4-9-9-9s-9,4-9,9v1h-6v-1c0-5-4-9-9-9s-9,4-9,9v1h-6v-1c0-5-4-9-9-9s-9,4-9,9v1h-2C9.5,15,5,19.5,5,25v60
		c0,5.5,4.5,10,10,10h70c5.5,0,10-4.5,10-10V25C95,19.5,90.5,15,85,15z M69,14c0-2.8,2.2-5,5-5s5,2.2,5,5v1H69V14z M45,14
		c0-2.8,2.2-5,5-5s5,2.2,5,5v1H45V14z M21,14c0-2.8,2.2-5,5-5s5,2.2,5,5v1H21V14z M91,85c0,3.3-2.7,6-6,6H15c-3.3,0-6-2.7-6-6V25
		c0-3.3,2.7-6,6-6h16v4c0,1.1,0.9,2,2,2s2-0.9,2-2v-4h20v4c0,1.1,0.9,2,2,2s2-0.9,2-2v-4h20v4c0,1.1,0.9,2,2,2s2-0.9,2-2v-4h2
		c3.3,0,6,2.7,6,6V85z"/>
	<path d="M77.1,55c-2.4-2.7-5.7-4.3-9.1-4.5c2.3-2.5,3.6-6,3.3-9.6l-0.2-2.2c-0.1-1-0.8-1.8-1.8-1.8L67,36.8c-3.6-0.3-7,1-9.6,3.3
		c-0.2-3.5-1.7-6.8-4.5-9.1l-1.7-1.5c-0.8-0.6-1.8-0.6-2.6,0L47,30.9c-2.8,2.4-4.3,5.7-4.5,9.2c-2.5-2.3-6-3.5-9.6-3.3L30.8,37
		c-1,0.1-1.8,0.9-1.8,1.8l-0.2,2.2c-0.3,3.5,0.9,6.9,3.2,9.5c-3.4,0.2-6.7,1.7-9,4.5l-1.5,1.7c-0.6,0.8-0.6,1.8,0,2.6l1.5,1.7
		c2.4,2.7,5.7,4.3,9.1,4.4c-2.3,2.5-3.6,6-3.3,9.6l0.2,2.2c0.1,1,0.8,1.8,1.8,1.8l2.2,0.2c0.3,0,0.7,0,1,0c3.2,0,6.3-1.2,8.6-3.3
		c0.2,3.5,1.7,6.8,4.5,9.1l1.7,1.4c0.4,0.3,0.8,0.5,1.3,0.5s0.9-0.2,1.3-0.5l1.7-1.4c2.7-2.4,4.3-5.7,4.5-9.1
		c2.3,2.1,5.3,3.3,8.6,3.3c0.3,0,0.6,0,1,0l2.2-0.2c1-0.1,1.8-0.9,1.8-1.8l0.2-2.2c0.3-3.6-1-7-3.3-9.6c3.5-0.2,6.8-1.7,9.1-4.4
		l1.5-1.7c0.6-0.8,0.6-1.8,0-2.6L77.1,55z M57.9,46.1c1.5-3.5,5-5.6,8.8-5.3l0.5,0l0,0.5c0.3,3.8-1.8,7.3-5.3,8.8l-1.3,0.5
		c-0.9-1.3-2-2.4-3.3-3.3L57.9,46.1z M49.6,34l0.4-0.3l0.4,0.3c2.9,2.5,3.8,6.5,2.4,10l-0.5,1.3C51.6,45.1,50.8,45,50,45
		s-1.6,0.1-2.3,0.2l-0.5-1.3C45.8,40.4,46.8,36.4,49.6,34z M32.8,41.4l0-0.5l0.5,0c3.8-0.3,7.3,1.8,8.8,5.3l0.5,1.2
		c-1.3,0.9-2.4,2-3.3,3.3l-1.2-0.5C34.6,48.6,32.5,45.1,32.8,41.4z M26,58.4L25.6,58l0.3-0.4c2.5-2.9,6.5-3.8,10-2.4l1.3,0.5
		C37.1,56.4,37,57.2,37,58c0,0.8,0.1,1.6,0.2,2.3l-1.3,0.5C32.4,62.2,28.4,61.2,26,58.4z M42.1,69.9c-1.5,3.5-5,5.6-8.8,5.3l-0.5,0
		l0-0.5c-0.3-3.8,1.8-7.3,5.3-8.8l1.3-0.5c0.9,1.3,2,2.4,3.3,3.3L42.1,69.9z M50.4,82L50,82.4L49.6,82c-2.9-2.5-3.8-6.5-2.4-10
		l0.5-1.3c0.8,0.1,1.5,0.2,2.3,0.2s1.6-0.1,2.3-0.2l0.5,1.3C54.2,75.6,53.2,79.6,50.4,82z M50,67c-5,0-9-4-9-9c0-5,4-9,9-9s9,4,9,9
		C59,63,55,67,50,67z M67.2,74.7l0,0.5l-0.5,0c-3.8,0.3-7.3-1.9-8.8-5.3l-0.5-1.3c1.3-0.9,2.4-2,3.3-3.3l1.3,0.5
		C65.4,67.4,67.5,70.9,67.2,74.7z M74,58.4c-2.5,2.9-6.5,3.8-10,2.4l-1.3-0.5c0.1-0.8,0.2-1.5,0.2-2.3c0-0.8-0.1-1.6-0.2-2.3
		l1.3-0.5c3.5-1.4,7.5-0.4,10,2.4l0.3,0.4L74,58.4z"/>
</g>
</svg>
