<?xml version="1.0" encoding="utf-8"?>
<!-- Generator: Adobe Illustrator 21.0.2, SVG Export Plug-In . SVG Version: 6.00 Build 0)  -->
<svg version="1.1" id="Layer_1" xmlns="http://www.w3.org/2000/svg" xmlns:xlink="http://www.w3.org/1999/xlink" x="0px" y="0px"
	 viewBox="0 0 100 100" style="enable-background:new 0 0 100 100;" xml:space="preserve">
<path d="M93,91H82.8c-1-6.8-6.8-12-13.8-12h-2.5c-3.6-4.5-8.8-7.4-14.5-7.9V55c0-4,3-7.3,6.8-7.9c3.5,4.9,9.1,7.8,15.2,7.8
	c6.5,0,12.5-3.3,15.8-8.9c0.4-0.6,0.4-1.4,0-2.1c-3.4-5.6-9.3-8.9-15.8-8.9c-6.2,0-11.8,3-15.3,8c-2.6,0.3-4.9,1.4-6.7,3V25
	c0-4.4,3.6-8,8-8h3c1.1,0,2-0.9,2-2c0-1.1-0.9-2-2-2h-3c-3.1,0-5.9,1.2-8,3.1C51.5,9.9,46.3,5,40,5h-3c-1.1,0-2,0.9-2,2
	c0,1.1,0.9,2,2,2h3c4.4,0,8,3.6,8,8v21.1c-1.8-1.6-4.2-2.7-6.7-3c-3.5-5-9.1-8-15.3-8c-6.5,0-12.5,3.3-15.8,8.9
	c-0.4,0.6-0.4,1.4,0,2.1c3.4,5.6,9.3,8.9,15.8,8.9c6.1,0,11.7-2.9,15.2-7.8C45,39.7,48,43,48,47v24.1c-6.5,0.6-12.4,4.3-15.9,9.9H29
	c-5.9,0-10.9,4.3-11.8,10H7c-1.1,0-2,0.9-2,2c0,1.1,0.9,2,2,2h86c1.1,0,2-0.9,2-2C95,91.9,94.1,91,93,91z M72,43h-7.9
	c2.6-2.5,6.2-3.9,9.9-3.9c4.7,0,9,2.2,11.7,5.9c-2.7,3.7-7,5.9-11.7,5.9c-3.8,0-7.3-1.4-9.9-3.9H72c1.1,0,2-0.9,2-2
	C74,43.9,73.1,43,72,43z M28,39h7.9c-2.6,2.5-6.2,3.9-9.9,3.9c-4.7,0-9-2.2-11.7-5.9c2.7-3.7,7-5.9,11.7-5.9c3.8,0,7.3,1.4,9.9,3.9
	H28c-1.1,0-2,0.9-2,2C26,38.1,26.9,39,28,39z M21.2,91c0.9-3.5,4-6,7.8-6h4.3c0.7,0,1.4-0.4,1.8-1c3-5.5,8.7-9,15-9
	c5.5,0,10.7,2.7,13.8,7.2c0.4,0.5,1,0.8,1.6,0.8H69c4.8,0,8.9,3.4,9.8,8H21.2z"/>
</svg>
