<?xml version="1.0" encoding="utf-8"?>
<!-- Generator: Adobe Illustrator 21.0.2, SVG Export Plug-In . SVG Version: 6.00 Build 0)  -->
<svg version="1.1" id="Layer_1" xmlns="http://www.w3.org/2000/svg" xmlns:xlink="http://www.w3.org/1999/xlink" x="0px" y="0px"
	 viewBox="0 0 100 100" style="enable-background:new 0 0 100 100;" xml:space="preserve">
<path d="M93,91H80.8c-1-5.7-5.9-10-11.8-10h-3.5c-3.1-4.3-7.9-7.3-13.5-7.9c0,0,0-0.1,0-0.1V57v-2c0-4.4,3.6-8,8-8h1.3
	c7.1,8.5,20.8,7.9,26.9-2v0c-6-9.9-19.8-10.5-26.9-2H60c-3.1,0-5.9,1.2-8,3.1V29v-2v-2c0-4.4,3.6-8,8-8h3c1.1,0,2-0.9,2-2
	s-0.9-2-2-2h-3c-3.1,0-5.9,1.2-8,3.1C51.5,9.9,46.3,5,40,5h-3c-1.1,0-2,0.9-2,2s0.9,2,2,2h3c4.4,0,8,3.6,8,8v6v2v2v2v9.1
	c-2.1-1.9-4.9-3.1-8-3.1h-1.3c-7.1-8.5-20.8-7.9-26.9,2v0c6,9.9,19.8,10.5,26.9,2H40c4.4,0,8,3.6,8,8v2v6v2v16c0,0,0,0.1,0,0.1
	c-6.4,0.7-11.8,4.5-14.7,9.9H29c-4.8,0-8.9,3.4-9.8,8H7c-1.1,0-2,0.9-2,2s0.9,2,2,2h86c1.1,0,2-0.9,2-2S94.1,91,93,91z"/>
</svg>
