<?xml version="1.0" encoding="utf-8"?>
<!-- Generator: Adobe Illustrator 21.0.2, SVG Export Plug-In . SVG Version: 6.00 Build 0)  -->
<svg version="1.1" id="Layer_1" xmlns="http://www.w3.org/2000/svg" xmlns:xlink="http://www.w3.org/1999/xlink" x="0px" y="0px"
	 viewBox="0 0 100 100" style="enable-background:new 0 0 100 100;" xml:space="preserve">
<g>
	<path d="M83.9,42.4c0-0.4,0.1-0.8,0.1-1.2c0-9.4-7.6-17-17-17c-3.8,0-7.4,1.3-10.2,3.4c-1.3-8.7-8.7-15.4-17.8-15.4
		c-9.9,0-18,8.1-18,18c0,0.1,0,0.2,0,0.3c-8,1.4-14,8.4-14,16.7c0,3.8,1.2,7.3,3.4,10.2c2.1,2.8,5.1,5,8.5,6.1l20.4-32.3
		c0.5-0.8,1.5-1.1,2.4-0.8c0.9,0.3,1.4,1.3,1.2,2.2l-4.5,23.6H57c0.7,0,1.4,0.4,1.7,1c0.4,0.6,0.4,1.4,0,2l-3,5H82
		c6.1,0,11-4.9,11-11C93,47.8,89.1,43.3,83.9,42.4z"/>
	<path d="M34.5,59.4c-0.4-0.5-0.5-1.1-0.4-1.6l3-15.6l-16.4,26H38c0.6,0,1.2,0.3,1.5,0.7c0.4,0.5,0.5,1,0.4,1.6l-3.1,17.3l16.6-27.6
		H36C35.4,60.2,34.8,59.9,34.5,59.4z"/>
</g>
</svg>
