<?xml version="1.0" encoding="utf-8"?>
<!-- Generator: Adobe Illustrator 21.0.2, SVG Export Plug-In . SVG Version: 6.00 Build 0)  -->
<svg version="1.1" id="Layer_1" xmlns="http://www.w3.org/2000/svg" xmlns:xlink="http://www.w3.org/1999/xlink" x="0px" y="0px"
	 viewBox="0 0 100 100" style="enable-background:new 0 0 100 100;" xml:space="preserve">
<path d="M86,35.6C85.8,25.3,77.4,17,67,17c-3.1,0-6.2,0.8-8.9,2.2C55.6,10.9,47.9,5,39,5c-10.6,0-19.3,8.3-20,18.7
	C10.8,25.9,5,33.3,5,42c0,8.3,5.4,15.4,12.8,18l-2.5,4c-0.4,0.6-0.4,1.4-0.1,2c0.3,0.6,1,1,1.8,1h18.6L31,92.6
	c-0.2,1,0.4,1.9,1.3,2.2C32.5,95,32.8,95,33,95c0.7,0,1.3-0.4,1.7-1l19.8-33H82c7.2,0,13-5.8,13-13C95,42.3,91.3,37.3,86,35.6z
	 M36.9,82.6L40,65.3c0.1-0.6-0.1-1.2-0.4-1.6C39.2,63.3,38.6,63,38,63H20.6L37,37l-3,15.6c-0.1,0.6,0,1.2,0.4,1.6
	c0.4,0.5,0.9,0.7,1.5,0.7h17.5L36.9,82.6z M82,57H56.9l1.8-3c0.4-0.6,0.4-1.4,0-2c-0.3-0.6-1-1-1.7-1H38.4L43,27.4
	c0.2-1-0.3-1.9-1.2-2.2c-0.9-0.4-1.9,0-2.4,0.8L20,56.5C13.7,54.7,9,48.9,9,42c0-7.3,5.2-13.5,12.4-14.8c1-0.2,1.7-1,1.7-2
	c0-0.1,0-0.2,0-0.2c0-8.8,7.2-16,16-16c7.9,0,14.7,5.9,15.8,13.7c0.1,0.7,0.6,1.3,1.2,1.6c0.6,0.3,1.4,0.2,2-0.3c2.6-2,5.7-3,9-3
	c8.3,0,15,6.7,15,15c0,0.3,0,0.6,0,0.9l0,0.2c-0.1,1,0.6,1.9,1.6,2.1c4.3,0.8,7.4,4.5,7.4,8.9C91,53,87,57,82,57z"/>
</svg>
