<?xml version="1.0" encoding="utf-8"?>
<!-- Generator: Adobe Illustrator 21.0.2, SVG Export Plug-In . SVG Version: 6.00 Build 0)  -->
<svg version="1.1" id="Layer_1" xmlns="http://www.w3.org/2000/svg" xmlns:xlink="http://www.w3.org/1999/xlink" x="0px" y="0px"
	 viewBox="0 0 100 100" style="enable-background:new 0 0 100 100;" xml:space="preserve">
<g>
	<path d="M71.2,25.2l0.7-0.4c0.7-0.3,1.1-1.1,1.1-1.8c0-0.8-0.5-1.5-1.2-1.8L71.4,21c-5.1-2.2-10.8-2.5-16-1l1-8.2
		C56.6,10,56.1,8.3,55,7c-1.1-1.3-2.8-2-4.5-2h-0.9c-1.7,0-3.4,0.7-4.5,2c-1.1,1.3-1.7,3-1.5,4.7l1,8.3c-5.3-1.5-11-1.2-16.1,1
		l-0.3,0.1c-0.7,0.3-1.2,1-1.2,1.8c0,0.8,0.4,1.5,1.1,1.8l0.7,0.4C21,26.2,15,32.9,15,41c0,20.7,10.3,39.9,27.5,51.4l0.8,0.6
		c2,1.3,4.3,2,6.7,2s4.6-0.7,6.7-2l0.8-0.6C74.7,80.9,85,61.7,85,41C85,32.9,79,26.2,71.2,25.2z M39.9,26.2L35.4,24l-1.1-0.5
		c4-0.8,8.1-0.3,11.9,1.4c0.7,0.3,1.4,0.2,2-0.2c0.6-0.4,0.9-1.1,0.8-1.9l-1.4-11.5c-0.1-0.6,0.1-1.1,0.5-1.6C48.4,9.2,49,9,49.5,9
		h0.9C51,9,51.6,9.2,52,9.7c0.4,0.4,0.6,1,0.5,1.6L51,22.8c-0.1,0.7,0.2,1.4,0.8,1.9c0.6,0.4,1.4,0.5,2,0.2
		c3.7-1.7,7.9-2.2,11.9-1.4l-5.6,2.8c-0.8,0.4-1.2,1.2-1.1,2c0.1,0.8,0.7,1.5,1.5,1.7c3,0.7,5.3,2.9,6.2,5.8l-11.9-5.5
		c-0.6-0.3-1.3-0.2-1.9,0.1c-0.6,0.4-0.9,1-0.9,1.7c0,4.2-0.7,8.3-2.1,12.2c-1.7-3.8-2.7-7.9-2.9-12.2l0-0.2c0-0.7-0.4-1.3-1-1.6
		c-0.3-0.2-0.7-0.3-1-0.3c-0.3,0-0.6,0.1-0.8,0.2l-11.8,5.5c0.9-2.7,3.1-4.8,6.1-5.5l1-0.2c0.8-0.2,1.4-0.9,1.5-1.7
		C41.1,27.4,40.7,26.6,39.9,26.2z M55.3,89.1l-0.8,0.6c-2.7,1.8-6.2,1.8-8.9,0l-0.8-0.6C28.6,78.3,19,60.4,19,41c0-6.6,5.4-12,12-12
		h1.2c-2.8,2.5-4.5,6.1-4.2,10.1c0,0.7,0.4,1.3,1,1.6c0.6,0.3,1.3,0.4,1.9,0.1L43.2,35c0.5,4.6,1.9,9,4.1,13.2l0.9,1.7
		c0.3,0.7,1,1.1,1.8,1.1h0c0.8,0,1.4-0.5,1.8-1.2l0.6-1.3c2-4.2,3.1-8.8,3.5-13.5l12.2,5.7c0.6,0.3,1.3,0.2,1.9-0.1
		c0.6-0.3,0.9-0.9,1-1.6l0-0.5c0.2-3.7-1.4-7.2-3.9-9.5H69c6.6,0,12,5.4,12,12C81,60.4,71.4,78.3,55.3,89.1z"/>
	<path d="M27,45c-1.1,0-2,0.9-2,2v6c0,1.1,0.9,2,2,2s2-0.9,2-2v-6C29,45.9,28.1,45,27,45z"/>
	<path d="M42,47c-1.1,0-2,0.9-2,2v6c0,1.1,0.9,2,2,2s2-0.9,2-2v-6C44,47.9,43.1,47,42,47z"/>
	<path d="M60,55v-6c0-1.1-0.9-2-2-2s-2,0.9-2,2v6c0,1.1,0.9,2,2,2S60,56.1,60,55z"/>
	<path d="M73,45c-1.1,0-2,0.9-2,2v6c0,1.1,0.9,2,2,2s2-0.9,2-2v-6C75,45.9,74.1,45,73,45z"/>
	<path d="M33,57c-1.1,0-2,0.9-2,2v6c0,1.1,0.9,2,2,2s2-0.9,2-2v-6C35,57.9,34.1,57,33,57z"/>
	<path d="M50,59c-1.1,0-2,0.9-2,2v6c0,1.1,0.9,2,2,2s2-0.9,2-2v-6C52,59.9,51.1,59,50,59z"/>
	<path d="M67,57c-1.1,0-2,0.9-2,2v6c0,1.1,0.9,2,2,2s2-0.9,2-2v-6C69,57.9,68.1,57,67,57z"/>
	<path d="M40,67c-1.1,0-2,0.9-2,2v6c0,1.1,0.9,2,2,2s2-0.9,2-2v-6C42,67.9,41.1,67,40,67z"/>
	<path d="M50,75c-1.1,0-2,0.9-2,2v6c0,1.1,0.9,2,2,2s2-0.9,2-2v-6C52,75.9,51.1,75,50,75z"/>
	<path d="M60,67c-1.1,0-2,0.9-2,2v6c0,1.1,0.9,2,2,2s2-0.9,2-2v-6C62,67.9,61.1,67,60,67z"/>
</g>
</svg>
