<?xml version="1.0" encoding="utf-8"?>
<!-- Generator: Adobe Illustrator 23.0.1, SVG Export Plug-In . SVG Version: 6.00 Build 0)  -->
<svg version="1.1" id="Layer_1" xmlns="http://www.w3.org/2000/svg" xmlns:xlink="http://www.w3.org/1999/xlink" x="0px" y="0px"
	 viewBox="0 0 100 100" style="enable-background:new 0 0 100 100;" xml:space="preserve">
<style type="text/css">
	.st0{fill:#000000;}
</style>
<path class="st0" d="M71,54c0,1.1-0.9,2-2,2s-2-0.9-2-2c0-1.1,0.9-2,2-2S71,52.9,71,54z M52,64c-1.1,0-2,0.9-2,2c0,1.1,0.9,2,2,2
	s2-0.9,2-2C54,64.9,53.1,64,52,64z M81,34v32c0,6.6,5.4,12,12,12c1.1,0,2,0.9,2,2s-0.9,2-2,2H62H38H7c-1.1,0-2-0.9-2-2s0.9-2,2-2
	c6.6,0,12-5.4,12-12v-8h-4C9.5,58,5,53.5,5,48v-4c0-1.1,0.9-2,2-2h6c2.3,0,4.3,0.8,6,2V32c0-1.1,0.9-2,2-2h56v-2c0-5.5,4.5-10,10-10
	h6c1.1,0,2,0.9,2,2v4c0,5.5-4.5,10-10,10H81z M81,30h4c3.3,0,6-2.7,6-6v-2h-4c-3.3,0-6,2.7-6,6V30z M19,54v-2c0-3.3-2.7-6-6-6H9v2
	c0,3.3,2.7,6,6,6H19z M60,78V64c0-5.5-4.5-10-10-10c-5.5,0-10,4.5-10,10v14H60z M77,66V34h-6v10c0,1.1-0.9,2-2,2s-2-0.9-2-2V34h-6v4
	c0,1.1-0.9,2-2,2s-2-0.9-2-2v-4H33v8c0,1.1-0.9,2-2,2s-2-0.9-2-2v-8h-6v18v4v10c0,4.8-2.1,9.1-5.4,12H36V64c0-3.3,1.1-6.3,3-8.6V46
	c0-1.1,0.9-2,2-2s2,0.9,2,2v5.9c2.1-1.2,4.4-1.9,7-1.9c7.7,0,14,6.3,14,14v14h18.4C79.1,75.1,77,70.8,77,66z"/>
</svg>
