<?xml version="1.0" encoding="utf-8"?>
<!-- Generator: Adobe Illustrator 21.0.2, SVG Export Plug-In . SVG Version: 6.00 Build 0)  -->
<svg version="1.1" id="Layer_1" xmlns="http://www.w3.org/2000/svg" xmlns:xlink="http://www.w3.org/1999/xlink" x="0px" y="0px"
	 viewBox="0 0 100 100" style="enable-background:new 0 0 100 100;" xml:space="preserve">
<g>
	<path d="M50,26c-13.2,0-24,10.8-24,24c0,13.2,10.8,24,24,24s24-10.8,24-24C74,36.8,63.2,26,50,26z M50,70c-11,0-20-9-20-20
		c0-11,9-20,20-20s20,9,20,20C70,61,61,70,50,70z"/>
	<path d="M85.2,51.2c-0.2-0.5-0.2-1,0-1.5l4.6-10.4c0.7-1.5,0.7-3.1,0.1-4.6c-0.6-1.5-1.7-2.7-3.2-3.3l-10.4-4.6
		c-0.5-0.2-0.9-0.6-1.1-1.1l-4.6-11.9c-0.6-1.5-1.7-2.7-3.2-3.3c-1.5-0.6-3.1-0.7-4.6-0.1l-11.9,4.6c-0.5,0.2-1,0.2-1.5,0l-10.4-4.6
		c-1.5-0.7-3.1-0.7-4.6-0.1c-1.5,0.6-2.7,1.7-3.3,3.2l-4.6,10.4c-0.2,0.5-0.6,0.9-1.1,1.1l-11.9,4.6c-3.1,1.2-4.6,4.7-3.4,7.8
		l4.6,11.9c0.2,0.5,0.2,1.1,0,1.5l-4.6,10.4c-1.3,3,0,6.6,3,7.9l10.4,4.6c0.5,0.2,0.9,0.6,1.1,1.1l4.6,11.9c1.2,3.1,4.7,4.6,7.8,3.5
		l11.9-4.6c0.5-0.2,1-0.2,1.5,0l10.4,4.6c0.8,0.3,1.6,0.5,2.4,0.5c2.3,0,4.5-1.3,5.5-3.6l4.6-10.4c0.2-0.5,0.6-0.9,1.1-1l11.9-4.6
		c1.5-0.6,2.7-1.7,3.3-3.2c0.7-1.5,0.7-3.1,0.1-4.6L85.2,51.2z M85.9,66c-0.2,0.5-0.6,0.9-1.1,1.1L73,71.6c-1.5,0.6-2.7,1.7-3.3,3.2
		L65,85.1c-0.4,1-1.6,1.5-2.6,1L52,81.5c-0.8-0.3-1.6-0.5-2.4-0.5c-0.7,0-1.5,0.1-2.2,0.4L35.5,86c-0.5,0.2-1.1,0.2-1.5,0
		c-0.5-0.2-0.9-0.6-1.1-1.1L28.4,73c-0.6-1.5-1.7-2.7-3.2-3.3L14.9,65c-1-0.4-1.5-1.6-1-2.6L18.5,52c0.6-1.5,0.7-3.1,0.1-4.6
		L14,35.5c-0.4-1,0.1-2.2,1.1-2.6L27,28.4c1.5-0.6,2.7-1.7,3.3-3.2L35,14.9c0.2-0.5,0.6-0.9,1.1-1c0.5-0.2,1-0.2,1.5,0L48,18.5
		c1.5,0.7,3.1,0.7,4.6,0.1L64.5,14c0.5-0.2,1.1-0.2,1.5,0c0.5,0.2,0.9,0.6,1.1,1.1L71.6,27c0.6,1.5,1.7,2.7,3.2,3.3L85.1,35
		c0.5,0.2,0.9,0.6,1,1.1c0.2,0.5,0.2,1,0,1.5L81.5,48c-0.6,1.5-0.7,3.1-0.1,4.6L86,64.5C86.2,65,86.2,65.5,85.9,66z"/>
</g>
</svg>
