<?xml version="1.0" encoding="utf-8"?>
<!-- Generator: Adobe Illustrator 21.0.2, SVG Export Plug-In . SVG Version: 6.00 Build 0)  -->
<svg version="1.1" id="Layer_1" xmlns="http://www.w3.org/2000/svg" xmlns:xlink="http://www.w3.org/1999/xlink" x="0px" y="0px"
	 viewBox="0 0 100 100" style="enable-background:new 0 0 100 100;" xml:space="preserve">
<g>
	<path d="M83.3,51.9c-0.4-1-0.3-2.1,0.1-3.1L88,38.5c0.9-2,0-4.4-2-5.3l-10.4-4.6c-1-0.4-1.7-1.2-2.1-2.2l-4.6-11.9
		c-0.8-2.1-3.1-3.1-5.2-2.3l-11.9,4.6c-1,0.4-2.1,0.4-3.1-0.1L38.5,12c-2-0.9-4.4,0-5.3,2l-4.6,10.4c-0.4,1-1.2,1.7-2.2,2.1
		l-11.9,4.6c-2.1,0.8-3.1,3.1-2.3,5.2l4.6,11.9c0.4,1,0.3,2.1-0.1,3.1L12,61.5c-0.9,2,0,4.4,2,5.3l10.4,4.6c1,0.4,1.7,1.2,2.1,2.2
		l4.6,11.9c0.8,2.1,3.1,3.1,5.2,2.3l11.9-4.6c1-0.4,2.1-0.3,3.1,0.1L61.5,88c2,0.9,4.4,0,5.3-2l4.6-10.4c0.4-1,1.2-1.7,2.2-2.1
		l11.9-4.6c2.1-0.8,3.1-3.1,2.3-5.2L83.3,51.9z M50,74c-13.2,0-24-10.8-24-24c0-13.2,10.8-24,24-24s24,10.8,24,24
		C74,63.2,63.2,74,50,74z"/>
	<path d="M50,30c-11,0-20,9-20,20c0,11,9,20,20,20s20-9,20-20C70,39,61,30,50,30z"/>
</g>
</svg>
