<?xml version="1.0" encoding="utf-8"?>
<!-- Generator: Adobe Illustrator 21.0.2, SVG Export Plug-In . SVG Version: 6.00 Build 0)  -->
<svg version="1.1" id="Layer_1" xmlns="http://www.w3.org/2000/svg" xmlns:xlink="http://www.w3.org/1999/xlink" x="0px" y="0px"
	 viewBox="0 0 100 100" style="enable-background:new 0 0 100 100;" xml:space="preserve">
<g>
	<path d="M50,31c-10.5,0-19,8.5-19,19c0,10.5,8.5,19,19,19s19-8.5,19-19C69,39.5,60.5,31,50,31z M50,65c-8.3,0-15-6.7-15-15
		c0-8.3,6.7-15,15-15s15,6.7,15,15C65,58.3,58.3,65,50,65z"/>
	<path d="M50,27c1.1,0,2-0.9,2-2V15c0-1.1-0.9-2-2-2s-2,0.9-2,2v10C48,26.1,48.9,27,50,27z"/>
	<circle cx="50" cy="7" r="2"/>
	<path d="M50,73c-1.1,0-2,0.9-2,2v10c0,1.1,0.9,2,2,2s2-0.9,2-2V75C52,73.9,51.1,73,50,73z"/>
	<circle cx="50" cy="93" r="2"/>
	<path d="M30.9,33.7c0.4,0.4,0.9,0.6,1.4,0.6s1-0.2,1.4-0.6c0.8-0.8,0.8-2,0-2.8l-7.1-7.1c-0.8-0.8-2-0.8-2.8,0
		c-0.8,0.8-0.8,2,0,2.8L30.9,33.7z"/>
	<ellipse transform="matrix(0.7071 -0.7071 0.7071 0.7071 -8.1163 19.5944)" cx="19.6" cy="19.6" rx="2" ry="2"/>
	<path d="M69.1,66.3c-0.8-0.8-2-0.8-2.8,0s-0.8,2,0,2.8l7.1,7.1c0.4,0.4,0.9,0.6,1.4,0.6s1-0.2,1.4-0.6c0.8-0.8,0.8-2,0-2.8
		L69.1,66.3z"/>
	<ellipse transform="matrix(0.7071 -0.7071 0.7071 0.7071 -33.305 80.4056)" cx="80.4" cy="80.4" rx="2" ry="2"/>
	<path d="M67.7,34.3c0.5,0,1-0.2,1.4-0.6l7.1-7.1c0.8-0.8,0.8-2,0-2.8c-0.8-0.8-2-0.8-2.8,0l-7.1,7.1c-0.8,0.8-0.8,2,0,2.8
		C66.7,34.1,67.2,34.3,67.7,34.3z"/>
	<ellipse transform="matrix(0.7071 -0.7071 0.7071 0.7071 9.6949 62.5944)" cx="80.4" cy="19.6" rx="2" ry="2"/>
	<path d="M30.9,66.3l-7.1,7.1c-0.8,0.8-0.8,2,0,2.8c0.4,0.4,0.9,0.6,1.4,0.6s1-0.2,1.4-0.6l7.1-7.1c0.8-0.8,0.8-2,0-2.8
		S31.7,65.5,30.9,66.3z"/>
	<ellipse transform="matrix(0.7071 -0.7071 0.7071 0.7071 -51.1162 37.4056)" cx="19.6" cy="80.4" rx="2" ry="2"/>
	<path d="M85,48H75c-1.1,0-2,0.9-2,2s0.9,2,2,2h10c1.1,0,2-0.9,2-2S86.1,48,85,48z"/>
	<circle cx="93" cy="50" r="2"/>
	<path d="M27,50c0-1.1-0.9-2-2-2H15c-1.1,0-2,0.9-2,2s0.9,2,2,2h10C26.1,52,27,51.1,27,50z"/>
	<circle cx="7" cy="50" r="2"/>
</g>
</svg>
