<?xml version="1.0" encoding="utf-8"?>
<!-- Generator: Adobe Illustrator 21.0.2, SVG Export Plug-In . SVG Version: 6.00 Build 0)  -->
<svg version="1.1" id="Layer_1" xmlns="http://www.w3.org/2000/svg" xmlns:xlink="http://www.w3.org/1999/xlink" x="0px" y="0px"
	 viewBox="0 0 100 100" style="enable-background:new 0 0 100 100;" xml:space="preserve">
<g>
	<path d="M80.5,56c2.5-0.3,5-1.2,7.1-2.6L93,50l-5.3-3.4c-2.2-1.4-4.6-2.3-7.1-2.6c2.2-1.2,4.1-3,5.6-5.1l3.6-5.2l-6.2-1.2
		c-2.7-0.5-5.4-0.3-7.9,0.4c1.6-2,2.8-4.5,3.4-7.1l1.3-6.2l-6.2,1.4c-2.7,0.6-5.2,1.8-7.3,3.6c0.8-2.6,1-5.4,0.4-8.1l-1.2-6.2
		L61,13.8c-2.1,1.5-3.7,3.3-5,5.5c-0.3-2.4-1.2-4.8-2.6-6.9L50,7l-3.4,5.3c-1.4,2.1-2.2,4.5-2.6,6.9c-1.2-2.1-2.9-4-5-5.5l-5.2-3.7
		l-1.2,6.2c-0.5,2.8-0.3,5.5,0.4,8.1c-2.1-1.7-4.6-3-7.3-3.6l-6.2-1.4l1.3,6.2c0.6,2.7,1.8,5.1,3.4,7.1c-2.5-0.7-5.2-0.9-7.9-0.4
		l-6.2,1.2l3.6,5.2c1.5,2.1,3.4,3.9,5.6,5.1c-2.5,0.3-5,1.2-7.1,2.6L7,50l5.3,3.4c2.2,1.4,4.6,2.3,7.1,2.6c-2.2,1.2-4.1,3-5.6,5.1
		l-3.6,5.2l6.2,1.2c2.7,0.5,5.4,0.3,7.9-0.4c-1.6,2.1-2.8,4.5-3.4,7.1l-1.3,6.2l6.2-1.3c2.7-0.6,5.2-1.8,7.3-3.6
		c-0.8,2.6-1,5.4-0.4,8.1l1.2,6.2l5.2-3.7c2.1-1.5,3.7-3.3,5-5.5c0.3,2.4,1.2,4.8,2.6,6.9L50,93l3.4-5.3c1.4-2.1,2.2-4.5,2.6-6.9
		c1.2,2.1,2.9,4,5,5.5l5.2,3.7l1.2-6.2c0.5-2.8,0.3-5.5-0.4-8.1c2.1,1.7,4.6,3,7.3,3.6l6.2,1.3l-1.3-6.2c-0.6-2.7-1.8-5.1-3.4-7.1
		c2.5,0.7,5.2,0.9,7.9,0.4l6.2-1.2l-3.6-5.2C84.7,59,82.7,57.3,80.5,56z M74.3,55.7c-0.6,2.7-1.7,5.2-3.1,7.5c-2,3.3-4.8,6-8,8
		c-2.3,1.4-4.8,2.5-7.5,3.1C53.9,74.8,52,75,50,75s-3.9-0.2-5.7-0.7c-2.7-0.6-5.2-1.7-7.5-3.1c-3.3-2-6-4.8-8-8
		c-1.4-2.3-2.5-4.8-3.1-7.5C25.2,53.9,25,52,25,50c0-2,0.2-3.9,0.7-5.7c0.6-2.7,1.7-5.2,3.1-7.5c2-3.3,4.8-6,8-8.1
		c2.3-1.4,4.8-2.5,7.5-3.1C46.1,25.2,48,25,50,25s3.9,0.2,5.7,0.7c2.7,0.6,5.2,1.7,7.5,3.1c3.3,2,6,4.8,8,8.1
		c1.4,2.3,2.5,4.8,3.1,7.5C74.8,46.1,75,48,75,50C75,52,74.8,53.9,74.3,55.7z"/>
	<path d="M50,29c-11.6,0-21,9.4-21,21c0,11.6,9.4,21,21,21s21-9.4,21-21C71,38.4,61.6,29,50,29z M37,57c-1.1,0-2-0.9-2-2
		c0-1.1,0.9-2,2-2s2,0.9,2,2C39,56.1,38.1,57,37,57z M41,64c-1.1,0-2-0.9-2-2c0-1.1,0.9-2,2-2s2,0.9,2,2C43,63.1,42.1,64,41,64z
		 M45,55c0-1.1,0.9-2,2-2s2,0.9,2,2c0,1.1-0.9,2-2,2S45,56.1,45,55z M49,67c-1.1,0-2-0.9-2-2c0-1.1,0.9-2,2-2s2,0.9,2,2
		C51,66.1,50.1,67,49,67z"/>
</g>
</svg>
