<?xml version="1.0" encoding="utf-8"?>
<!-- Generator: Adobe Illustrator 21.0.2, SVG Export Plug-In . SVG Version: 6.00 Build 0)  -->
<svg version="1.1" id="Layer_1" xmlns="http://www.w3.org/2000/svg" xmlns:xlink="http://www.w3.org/1999/xlink" x="0px" y="0px"
	 viewBox="0 0 100 100" style="enable-background:new 0 0 100 100;" xml:space="preserve">
<g>
	<path d="M94.1,48.3l-5.3-3.4c-1.1-0.8-2.4-1.4-3.6-1.8c1-0.9,1.9-1.9,2.7-3.1l3.6-5.2c0.4-0.5,0.5-1.3,0.2-1.9s-0.8-1.1-1.5-1.2
		l-6.2-1.2c-1.4-0.3-2.9-0.3-4.3-0.3c0.6-1.3,1.1-2.6,1.4-4l1.3-6.2c0.1-0.7-0.1-1.4-0.5-1.8s-1.2-0.7-1.8-0.5L73.8,19
		c-1.5,0.3-2.9,0.8-4.2,1.4c0.1-1.5,0-2.9-0.3-4.4l-1.2-6.2c-0.1-0.7-0.6-1.2-1.2-1.5S65.5,8.1,65,8.5l-5.2,3.7
		c-1.1,0.8-2,1.6-2.9,2.5c-0.5-1.2-1-2.3-1.8-3.4l-3.4-5.3C51.3,5.3,50.7,5,50,5s-1.3,0.3-1.7,0.9l-3.4,5.3
		c-0.7,1.1-1.3,2.3-1.8,3.5c-0.9-0.9-1.9-1.8-2.9-2.5L35,8.5c-0.6-0.4-1.3-0.5-1.9-0.2S32,9.1,31.9,9.8L30.7,16
		c-0.3,1.5-0.4,3-0.3,4.4c-1.3-0.6-2.7-1.1-4.2-1.4L20,17.6c-0.7-0.2-1.4,0.1-1.8,0.5s-0.7,1.2-0.5,1.8l1.3,6.2
		c0.3,1.4,0.8,2.8,1.4,4c-1.4-0.1-2.8,0-4.3,0.3l-6.2,1.2c-0.7,0.1-1.2,0.6-1.5,1.2s-0.2,1.4,0.2,1.9l3.6,5.2
		c0.8,1.1,1.7,2.1,2.7,3.1c-1.2,0.5-2.5,1.1-3.6,1.8l-5.3,3.4C5.3,48.7,5,49.3,5,50s0.3,1.3,0.9,1.7l5.3,3.4
		c1.1,0.7,2.4,1.3,3.6,1.8c-1,0.9-1.9,1.9-2.7,3l-3.6,5.2c-0.4,0.5-0.5,1.3-0.2,1.9s0.8,1.1,1.5,1.2l6.2,1.2
		c1.2,0.2,2.3,0.3,3.5,0.3c0.3,0,0.5,0,0.8,0c-0.6,1.3-1.1,2.6-1.4,4L17.6,80c-0.1,0.7,0.1,1.4,0.5,1.8c0.4,0.4,0.9,0.6,1.4,0.6
		c0.1,0,0.3,0,0.4,0l6.2-1.3c1.5-0.3,2.9-0.8,4.2-1.4c-0.1,1.5,0,2.9,0.3,4.4l1.2,6.2c0.1,0.7,0.6,1.2,1.2,1.5
		c0.2,0.1,0.5,0.2,0.8,0.2c0.4,0,0.8-0.1,1.2-0.4l5.2-3.7c1.1-0.8,2-1.6,2.9-2.5c0.5,1.2,1,2.4,1.8,3.5l3.4,5.3
		c0.4,0.6,1,0.9,1.7,0.9s1.3-0.4,1.7-0.9l3.4-5.3c0.7-1.1,1.3-2.3,1.8-3.5c0.9,0.9,1.9,1.8,2.9,2.5l5.2,3.7c0.4,0.2,0.8,0.4,1.2,0.4
		c0.2,0,0.5,0,0.8-0.2c0.6-0.2,1.1-0.8,1.2-1.5l1.2-6.2c0.3-1.5,0.4-3,0.3-4.4c1.3,0.6,2.7,1.1,4.2,1.4l6.2,1.3c0.1,0,0.3,0,0.4,0
		c0.5,0,1-0.2,1.4-0.6c0.5-0.5,0.7-1.2,0.5-1.8L81,73.8c-0.3-1.4-0.8-2.8-1.4-4c0.3,0,0.5,0,0.8,0c1.2,0,2.3-0.1,3.5-0.3l6.2-1.2
		c0.7-0.1,1.2-0.6,1.5-1.2s0.2-1.3-0.2-1.9L87.8,60c-0.8-1.1-1.7-2.1-2.7-3c1.2-0.5,2.5-1.1,3.6-1.8l5.3-3.4c0.6-0.4,0.9-1,0.9-1.7
		S94.7,48.7,94.1,48.3z M83.2,34.5l3.2,0.6l-1.9,2.7c-1.2,1.7-2.7,3.1-4.4,4.2c-2.1-0.2-4.2,0-6.3,0.5c-0.4-1.3-1-2.6-1.6-3.8
		c1.7-1,3.3-2.4,4.6-3.9C78.8,34.2,81,34.1,83.2,34.5z M74.6,22.9l3.2-0.7l-0.7,3.2c-0.9,4.1-3.5,7.7-7,9.8c-1.5-2-3.3-3.8-5.3-5.3
		C67,26.4,70.5,23.8,74.6,22.9z M58.1,19.7c1-1.6,2.4-3.1,4-4.2l2.6-1.9l0.6,3.2c0.4,2.2,0.3,4.5-0.2,6.6c-1.4,1.3-2.7,2.8-3.7,4.4
		c-1.2-0.6-2.5-1.2-3.8-1.6C58.1,24,58.3,21.8,58.1,19.7z M48.2,13.4l1.8-2.7l1.8,2.7c2.3,3.6,3,7.9,2,11.9C52.5,25.1,51.3,25,50,25
		s-2.5,0.1-3.7,0.3C45.3,21.3,46,17,48.2,13.4z M34.7,16.8l0.6-3.2l2.6,1.9c1.6,1.1,3,2.6,4,4.2c-0.2,2.2-0.1,4.4,0.5,6.5
		c-1.3,0.4-2.6,1-3.8,1.6c-1-1.6-2.3-3.1-3.7-4.4C34.3,21.2,34.2,19,34.7,16.8z M25.4,22.9c4.2,0.9,7.7,3.5,9.8,7
		c-2,1.5-3.8,3.3-5.3,5.3c-3.5-2.1-6.1-5.6-7-9.8l-0.7-3.2L25.4,22.9z M13.6,35.1l3.2-0.6c2.2-0.4,4.3-0.3,6.4,0.2
		c1.3,1.5,2.8,2.8,4.6,3.9c-0.6,1.2-1.2,2.5-1.6,3.8c-2.1-0.5-4.2-0.7-6.3-0.5c-1.7-1.1-3.2-2.5-4.4-4.2L13.6,35.1z M13.4,51.8
		L10.7,50l2.7-1.8c3.6-2.3,7.9-3,11.9-2C25.1,47.5,25,48.7,25,50c0,1.3,0.1,2.5,0.3,3.7C21.3,54.7,17,54,13.4,51.8z M16.8,65.5
		l-3.2-0.6l1.9-2.7c1.2-1.7,2.7-3.1,4.4-4.2c0.6,0.1,1.2,0.1,1.7,0.1c1.5,0,3-0.2,4.5-0.5c0.4,1.3,1,2.6,1.6,3.8
		c-1.7,1-3.3,2.4-4.6,3.9C21.2,65.8,19,65.9,16.8,65.5z M25.4,77.1l-3.2,0.7l0.7-3.2c0.9-4.2,3.5-7.7,7-9.8c1.5,2,3.3,3.8,5.3,5.3
		C33,73.6,29.5,76.2,25.4,77.1z M41.9,80.3c-1,1.6-2.4,3.1-4,4.2l-2.6,1.9l-0.6-3.2c-0.4-2.2-0.3-4.5,0.2-6.6
		c1.4-1.3,2.7-2.8,3.7-4.4c1.2,0.6,2.5,1.2,3.8,1.6C41.9,76,41.7,78.2,41.9,80.3z M51.8,86.6L50,89.3l-1.8-2.7
		c-2.3-3.6-3-7.9-2-11.9c1.2,0.2,2.5,0.3,3.7,0.3s2.5-0.1,3.7-0.3C54.7,78.7,54,83,51.8,86.6z M50,71c-11.6,0-21-9.4-21-21
		c0-11.6,9.4-21,21-21s21,9.4,21,21C71,61.6,61.6,71,50,71z M65.3,83.2l-0.6,3.2l-2.6-1.9c-1.6-1.2-3-2.6-4-4.2
		c0.2-2.2,0.1-4.4-0.5-6.5c1.3-0.4,2.6-1,3.8-1.6c1,1.7,2.3,3.1,3.7,4.4C65.7,78.8,65.8,81,65.3,83.2z M74.6,77.1
		c-4.2-0.9-7.7-3.5-9.8-7c2-1.5,3.8-3.3,5.3-5.3c3.5,2.1,6.1,5.6,7,9.8l0.7,3.2L74.6,77.1z M86.4,64.9l-3.2,0.6
		c-2.2,0.4-4.3,0.3-6.4-0.2c-1.3-1.5-2.8-2.8-4.6-3.9c0.6-1.2,1.2-2.5,1.6-3.8c1.5,0.4,3,0.5,4.5,0.5c0.6,0,1.2,0,1.7-0.1
		c1.7,1.1,3.2,2.5,4.4,4.2L86.4,64.9z M86.6,51.8c-3.6,2.3-7.9,3-11.9,2c0.2-1.2,0.3-2.5,0.3-3.7c0-1.3-0.1-2.5-0.3-3.7
		c4-1,8.3-0.3,11.9,2l2.7,1.8L86.6,51.8z"/>
	<circle cx="37" cy="55" r="2"/>
	<circle cx="41" cy="62" r="2"/>
	<circle cx="49" cy="65" r="2"/>
	<circle cx="47" cy="55" r="2"/>
</g>
</svg>
