<?xml version="1.0" encoding="utf-8"?>
<!-- Generator: Adobe Illustrator 21.0.2, SVG Export Plug-In . SVG Version: 6.00 Build 0)  -->
<svg version="1.1" id="Layer_1" xmlns="http://www.w3.org/2000/svg" xmlns:xlink="http://www.w3.org/1999/xlink" x="0px" y="0px"
	 viewBox="0 0 100 100" style="enable-background:new 0 0 100 100;" xml:space="preserve">
<g>
	<path d="M89,8H11c-3.3,0-6,2.7-6,6v72c0,3.3,2.7,6,6,6h78c3.3,0,6-2.7,6-6V14C95,10.7,92.3,8,89,8z M91,86c0,1.1-0.9,2-2,2H11
		c-1.1,0-2-0.9-2-2V14c0-1.1,0.9-2,2-2h78c1.1,0,2,0.9,2,2V86z"/>
	<path d="M21,62h10c3.3,0,6-2.7,6-6V24c0-3.3-2.7-6-6-6H21c-3.3,0-6,2.7-6,6v24c0,0,0,0,0,0v8C15,59.3,17.7,62,21,62z M33,56
		c0,1.1-0.9,2-2,2h-9.4c1.9-4.1,5.7-7.2,10.1-8.2l1.3-0.3V56z M19,24c0-1.1,0.9-2,2-2h10c0.8,0,1.5,0.5,1.8,1.2l-0.3,0.1
		c-5.1,0.9-9.7,3.2-13.5,6.6V24z M19,35.7c3.5-4.4,8.4-7.4,14-8.5v7l-2.8,0.7c-4.3,1-8.2,3.3-11.2,6.5V35.7z M19,48.5
		c2.3-4.9,6.8-8.5,12-9.7l2-0.5v7.1l-2.2,0.5c-4.9,1.1-9.2,4.2-11.8,8.5V48.5z"/>
	<path d="M51,38c5.5,0,10-4.5,10-10s-4.5-10-10-10s-10,4.5-10,10S45.5,38,51,38z M51,22c3.3,0,6,2.7,6,6s-2.7,6-6,6s-6-2.7-6-6
		S47.7,22,51,22z"/>
	<circle cx="51" cy="28" r="2"/>
	<path d="M75,38c5.5,0,10-4.5,10-10s-4.5-10-10-10s-10,4.5-10,10S69.5,38,75,38z M75,22c3.3,0,6,2.7,6,6s-2.7,6-6,6s-6-2.7-6-6
		S71.7,22,75,22z"/>
	<circle cx="75" cy="28" r="2"/>
	<circle cx="51" cy="52" r="2"/>
	<circle cx="75" cy="52" r="2"/>
	<path d="M71,62h8c3.3,0,6-2.7,6-6v-8c0-3.3-2.7-6-6-6h-8c-3.3,0-6,2.7-6,6v8C65,59.3,67.7,62,71,62z M69,48c0-1.1,0.9-2,2-2h8
		c1.1,0,2,0.9,2,2v8c0,1.1-0.9,2-2,2h-8c-1.1,0-2-0.9-2-2V48z"/>
	<path d="M47,62h8c3.3,0,6-2.7,6-6v-8c0-3.3-2.7-6-6-6h-8c-3.3,0-6,2.7-6,6v8C41,59.3,43.7,62,47,62z M45,48c0-1.1,0.9-2,2-2h8
		c1.1,0,2,0.9,2,2v8c0,1.1-0.9,2-2,2h-8c-1.1,0-2-0.9-2-2V48z"/>
	<path d="M83.9,76l-68,2c-1.1,0-2,1-1.9,2.1c0,1.1,0.9,1.9,2,1.9h0.1l68-2c1.1,0,2-1,1.9-2.1C86,76.8,85,76,83.9,76z"/>
	<path d="M84.1,68l-68-2c-1.1,0-2,0.8-2.1,1.9c0,1.1,0.8,2,1.9,2.1l68,2H84c1.1,0,2-0.9,2-1.9C86,69,85.2,68,84.1,68z"/>
</g>
</svg>
