<?xml version="1.0" encoding="utf-8"?>
<!-- Generator: Adobe Illustrator 21.0.2, SVG Export Plug-In . SVG Version: 6.00 Build 0)  -->
<svg version="1.1" id="Layer_1" xmlns="http://www.w3.org/2000/svg" xmlns:xlink="http://www.w3.org/1999/xlink" x="0px" y="0px"
	 viewBox="0 0 100 100" style="enable-background:new 0 0 100 100;" xml:space="preserve">
<g>
	<path d="M89,10H11c-2.2,0-4,1.8-4,4v72c0,2.2,1.8,4,4,4h78c2.2,0,4-1.8,4-4V14C93,11.8,91.2,10,89,10z M75,18c5.5,0,10,4.5,10,10
		s-4.5,10-10,10s-10-4.5-10-10S69.5,18,75,18z M65,48c0-3.3,2.7-6,6-6h8c3.3,0,6,2.7,6,6v8c0,3.3-2.7,6-6,6h-8c-3.3,0-6-2.7-6-6V48z
		 M51,18c5.5,0,10,4.5,10,10s-4.5,10-10,10s-10-4.5-10-10S45.5,18,51,18z M41,48c0-3.3,2.7-6,6-6h8c3.3,0,6,2.7,6,6v8
		c0,3.3-2.7,6-6,6h-8c-3.3,0-6-2.7-6-6V48z M15,48C15,48,15,48,15,48V24c0-3.3,2.7-6,6-6h10c3.3,0,6,2.7,6,6v32c0,3.3-2.7,6-6,6H21
		c-3.3,0-6-2.7-6-6V48z M84.1,80l-68,2H16c-1.1,0-2-0.9-2-1.9c0-1.1,0.8-2,1.9-2.1l68-2c1.1,0,2,0.8,2.1,1.9C86,79,85.2,80,84.1,80z
		 M84,72L84,72l-68.1-2c-1.1,0-2-1-1.9-2.1c0-1.1,0.9-2,2.1-1.9l68,2c1.1,0,2,1,1.9,2.1C86,71.1,85.1,72,84,72z"/>
	<path d="M30.2,34.8l2.8-0.7v-7c-5.6,1.1-10.5,4.1-14,8.5v5.7C22,38.1,25.8,35.8,30.2,34.8z"/>
	<path d="M32.8,23.2c-0.3-0.7-1-1.2-1.8-1.2H21c-1.1,0-2,0.9-2,2v5.9c3.8-3.4,8.4-5.7,13.5-6.6L32.8,23.2z"/>
	<path d="M31,50c-3.6,1-6.6,3.3-8.6,6.4c-0.3,0.5-0.6,1-0.9,1.6H31c1.1,0,2-0.9,2-2v-6.5l-1.3,0.3C31.5,49.9,31.2,49.9,31,50z"/>
	<path d="M30.8,45.9l2.2-0.5v-7.1l-2,0.5c-0.5,0.1-1,0.3-1.5,0.4c-3.4,1.1-6.3,3.2-8.5,6c-0.8,1-1.5,2.1-2,3.3v5.9
		C21.6,50.2,25.9,47,30.8,45.9z"/>
	<path d="M51,34c3.3,0,6-2.7,6-6s-2.7-6-6-6s-6,2.7-6,6S47.7,34,51,34z M51,26c1.1,0,2,0.9,2,2c0,1.1-0.9,2-2,2s-2-0.9-2-2
		C49,26.9,49.9,26,51,26z"/>
	<path d="M75,34c3.3,0,6-2.7,6-6s-2.7-6-6-6s-6,2.7-6,6S71.7,34,75,34z M75,26c1.1,0,2,0.9,2,2c0,1.1-0.9,2-2,2s-2-0.9-2-2
		C73,26.9,73.9,26,75,26z"/>
	<path d="M71,58h8c1.1,0,2-0.9,2-2v-8c0-1.1-0.9-2-2-2h-8c-1.1,0-2,0.9-2,2v8C69,57.1,69.9,58,71,58z M75,50c1.1,0,2,0.9,2,2
		c0,1.1-0.9,2-2,2s-2-0.9-2-2C73,50.9,73.9,50,75,50z"/>
	<path d="M47,58h8c1.1,0,2-0.9,2-2v-8c0-1.1-0.9-2-2-2h-8c-1.1,0-2,0.9-2,2v8C45,57.1,45.9,58,47,58z M51,50c1.1,0,2,0.9,2,2
		c0,1.1-0.9,2-2,2s-2-0.9-2-2C49,50.9,49.9,50,51,50z"/>
</g>
</svg>
