<?xml version="1.0" encoding="utf-8"?>
<!-- Generator: Adobe Illustrator 23.0.1, SVG Export Plug-In . SVG Version: 6.00 Build 0)  -->
<svg version="1.1" id="Layer_1" xmlns="http://www.w3.org/2000/svg" xmlns:xlink="http://www.w3.org/1999/xlink" x="0px" y="0px"
	 viewBox="0 0 100 100" style="enable-background:new 0 0 100 100;" xml:space="preserve">
<style type="text/css">
	.st0{fill:#000000;}
</style>
<path class="st0" d="M93.8,6.2c-0.5-0.5-1.1-0.7-1.8-0.5L70.8,9.9c-0.4,0.1-0.7,0.3-1,0.5L25.2,55l-5.7-5.7
	c-0.5-0.5-1.1-0.7-1.7-0.6c-0.6,0.1-1.2,0.5-1.5,1.1l-5.7,11.3c-0.4,0.8-0.2,1.7,0.4,2.3l6.4,6.4L8.2,79c-1.7,1.7-2.6,4-2.6,6.4
	c0,2.4,0.9,4.7,2.6,6.4c1.8,1.8,4.1,2.6,6.4,2.6c2.3,0,4.6-0.9,6.4-2.6l9.2-9.2l6.4,6.4c0.4,0.4,0.9,0.6,1.4,0.6
	c0.3,0,0.6-0.1,0.9-0.2l11.3-5.7c0.6-0.3,1-0.8,1.1-1.5c0.1-0.6-0.1-1.3-0.6-1.7L45,74.8l44.5-44.5c0.3-0.3,0.5-0.6,0.5-1L94.4,8
	C94.5,7.3,94.3,6.7,93.8,6.2z M18.1,88.9c-1.9,1.9-5.1,2-7.1,0c-0.9-0.9-1.5-2.2-1.5-3.5c0-1.3,0.5-2.6,1.5-3.5l9.2-9.2l7.1,7.1
	L18.1,88.9z M38.3,85.1L14.9,61.7l3.8-7.5l27.2,27.2L38.3,85.1z M86.3,27.8L42.2,72l-5.7-5.7L62,40.8c0.8-0.8,0.8-2,0-2.8
	c-0.8-0.8-2-0.8-2.8,0L33.7,63.5L28,57.8l44.1-44.1l17.7-3.5L86.3,27.8z"/>
</svg>
