<?xml version="1.0" encoding="utf-8"?>
<!-- Generator: Adobe Illustrator 21.0.2, SVG Export Plug-In . SVG Version: 6.00 Build 0)  -->
<svg version="1.1" id="Layer_1" xmlns="http://www.w3.org/2000/svg" xmlns:xlink="http://www.w3.org/1999/xlink" x="0px" y="0px"
	 viewBox="0 0 100 100" style="enable-background:new 0 0 100 100;" xml:space="preserve">
<g>
	<path d="M60.4,57.8l8.5-8.5l7.1-7.1l0.7,0.7c1.2,1.2,2.7,1.8,4.2,1.8s3.1-0.6,4.2-1.8c2.3-2.3,2.3-6.1,0-8.5l-5-5l4.2-4.2
		c1.2,1.2,2.7,1.8,4.2,1.8c1.5,0,3.1-0.6,4.2-1.8c2.3-2.3,2.3-6.1,0-8.5L83,6.9c-2.3-2.3-6.1-2.3-8.5,0c-1.1,1.1-1.8,2.6-1.8,4.2
		c0,1.6,0.6,3.1,1.8,4.2l-4.2,4.2l-5-4.9c-2.3-2.3-6.1-2.3-8.5,0c-2.3,2.3-2.3,6.1,0,8.5l0.7,0.7L27.8,53.6
		c-1.8,1.8-2.2,4.6-1.2,6.8l-4.5,4.5c-0.3,0.3-0.5,0.7-0.6,1.1L21,70.3l-5.2,5.2c-0.4,0.4-0.6,0.9-0.6,1.4c0,0.5,0.2,1,0.6,1.4
		l1.4,1.4L5.9,91.1c-0.8,0.8-0.8,2,0,2.8c0.4,0.4,0.9,0.6,1.4,0.6c0.5,0,1-0.2,1.4-0.6l11.3-11.3l1.4,1.4c0.4,0.4,0.9,0.6,1.4,0.6
		c0.5,0,1-0.2,1.4-0.6l5.2-5.2l4.3-0.6c0.4-0.1,0.8-0.3,1.1-0.6l4.5-4.5c0.8,0.4,1.7,0.6,2.6,0.6c1.6,0,3.1-0.6,4.2-1.8l2.8-2.8
		c0,0,0,0,0,0l5.7-5.7c0,0,0,0,0,0L60.4,57.8L60.4,57.8z M67.5,45.1l-0.7-0.7c-1.5-1.5-3.3-2.6-5.2-3.3l6.6-6.6l1,1l3.9,4L67.5,45.1
		z M77.3,9.8c0.8-0.8,2-0.8,2.8,0l9.9,9.9c0.8,0.8,0.8,2.1,0,2.8c-0.8,0.8-2,0.8-2.8,0v0l-9.9-9.9c-0.4-0.4-0.6-0.9-0.6-1.4
		C76.8,10.6,77,10.1,77.3,9.8z M77.3,18.2l4.2,4.2l-4.2,4.2l-4.2-4.2L77.3,18.2z M59.7,17.5c0.8-0.8,2-0.8,2.8,0l6.4,6.4
		c0,0,0,0,0,0l13.4,13.4c0.8,0.8,0.8,2,0,2.8c-0.8,0.8-2,0.8-2.8,0L77.3,38c0,0,0,0,0,0l-7.8-7.8l-9.9-9.9
		C58.9,19.6,58.9,18.3,59.7,17.5z M60.4,26.7l5,5L57,40c-2.3-0.8-4.2-2.3-5.5-4.5L60.4,26.7z M32.6,74.3l-4.3,0.6
		c-0.4,0.1-0.8,0.3-1.1,0.6l-4.2,4.2l-2.8-2.8l4.2-4.2c0.3-0.3,0.5-0.7,0.6-1.1l0.6-4.3l3.8-3.8l7.1,7.1L32.6,74.3z M51.9,52.2
		l4.2,4.2l-2.8,2.8L49.1,55c-0.8-0.8-2-0.8-2.8,0c-0.8,0.8-0.8,2,0,2.8l4.2,4.2l-2.8,2.8l-4.2-4.2c-0.8-0.8-2-0.8-2.8,0
		c-0.8,0.8-0.8,2.1,0,2.8l4.2,4.2l-1.4,1.4c-0.8,0.8-2.1,0.8-2.8,0l-9.9-9.9c-0.8-0.8-0.8-2,0-2.8l18-18c2.2,3.2,5.7,5.4,9.6,6
		c2.1,0.3,4.2,1.3,5.7,2.8l0.7,0.7L59,53.6l-4.2-4.2c-0.8-0.8-2-0.8-2.8,0C51.1,50.1,51.1,51.4,51.9,52.2z"/>
	<path d="M80.3,60.6c-1-2-3.1-3.2-5.3-3.2s-4.3,1.2-5.3,3.2L56.3,86c-1,1.9-0.9,4.1,0.2,5.9c1.1,1.8,3,2.9,5.1,2.9h26.8
		c2.1,0,4-1.1,5.1-2.9c1.1-1.8,1.2-4,0.2-5.9L80.3,60.6z M90.1,89.9c-0.2,0.3-0.7,1-1.7,1H61.6c-1,0-1.5-0.7-1.7-1
		c-0.2-0.3-0.5-1.1,0-2l13.4-25.4c0.5-1,1.4-1.1,1.8-1.1s1.3,0.1,1.8,1.1l13.4,25.4C90.6,88.8,90.3,89.6,90.1,89.9z"/>
	<path d="M75,66.8c-1.1,0-2,0.9-2,2v8c0,1.1,0.9,2,2,2s2-0.9,2-2v-8C77,67.7,76.1,66.8,75,66.8z"/>
	<circle cx="75" cy="84.8" r="2"/>
</g>
</svg>
