<?xml version="1.0" encoding="utf-8"?>
<!-- Generator: Adobe Illustrator 21.0.2, SVG Export Plug-In . SVG Version: 6.00 Build 0)  -->
<svg version="1.1" id="Layer_1" xmlns="http://www.w3.org/2000/svg" xmlns:xlink="http://www.w3.org/1999/xlink" x="0px" y="0px"
	 viewBox="0 0 100 100" style="enable-background:new 0 0 100 100;" xml:space="preserve">
<g>
	<path d="M52.9,48.5c0.8-0.8,2-0.8,2.8,0l5.7,5.7l5.7-5.7l-2.1-2.1c-1.5-1.5-3.5-2.5-5.7-2.8c-4.3-0.6-8.2-3.3-10.3-7.1l-0.3-0.6
		L30.3,54.2c-1.6,1.6-1.6,4.1,0,5.7l-5.7,5.7l-0.7,5l-5.7,5.6l1.4,1.4L6.9,90.2c-0.8,0.8-0.8,2,0,2.8c0.4,0.4,0.9,0.6,1.4,0.6
		c0.5,0,1-0.2,1.4-0.6l12.7-12.7l1.4,1.4l5.6-5.7l5-0.7l5.7-5.7c1.6,1.6,4.1,1.6,5.7,0l1.4-1.4l-5.6-5.7c-0.8-0.8-0.8-2,0-2.8
		c0.8-0.8,2-0.8,2.8,0l5.7,5.7l2.8-2.8L47.2,57c-0.8-0.8-0.8-2.1,0-2.8c0.8-0.8,2.1-0.8,2.8,0l5.7,5.7l2.8-2.8l-5.7-5.7
		C52.1,50.6,52.1,49.3,52.9,48.5z"/>
	<path d="M51.8,33.4l0.6,1.1c1.5,2.7,4.3,4.6,7.4,5.1c3,0.4,5.8,1.8,8,4l2.1,2.1l7.1-7.1l2.1,2.1c1.6,1.6,4.1,1.6,5.7,0
		c0.8-0.8,1.2-1.8,1.2-2.8c0-1-0.4-2-1.2-2.8l-6.4-6.4l7.1-7.1l1.4,1.4c1.6,1.6,4.1,1.6,5.7,0c1.6-1.6,1.6-4.1,0-5.7l-9.9-9.9
		C81,6,78.5,6,76.9,7.5c-1.6,1.6-1.6,4.1,0,5.7l1.4,1.4l-7.1,7.1l-6.4-6.4c-1.6-1.6-4.1-1.6-5.7,0c-1.6,1.6-1.6,4.1,0,5.7l2.1,2.1
		L51.5,33C51.6,33.1,51.7,33.2,51.8,33.4z"/>
	<path d="M79.5,60.7c-1.5-2.8-5.6-2.8-7.1,0L59.1,86.1c-1.4,2.7,0.5,5.9,3.5,5.9h26.7c3,0,5-3.2,3.5-5.9L79.5,60.7z M76,86
		c-1.1,0-2-0.9-2-2c0-1.1,0.9-2,2-2s2,0.9,2,2C78,85.1,77.1,86,76,86z M78,76c0,1.1-0.9,2-2,2s-2-0.9-2-2v-8c0-1.1,0.9-2,2-2
		s2,0.9,2,2V76z"/>
</g>
</svg>
