<?xml version="1.0" encoding="utf-8"?>
<!-- Generator: Adobe Illustrator 21.0.2, SVG Export Plug-In . SVG Version: 6.00 Build 0)  -->
<svg version="1.1" id="Layer_1" xmlns="http://www.w3.org/2000/svg" xmlns:xlink="http://www.w3.org/1999/xlink" x="0px" y="0px"
	 viewBox="0 0 100 100" style="enable-background:new 0 0 100 100;" xml:space="preserve">
<g>
	<path d="M50.2,19h-4c-1.1,0-2-0.9-2-2c0-1.1,0.9-2,2-2h4v-4c0-1.1-0.9-2-2-2h-16c-1.1,0-2,0.9-2,2v4h8c1.1,0,2,0.9,2,2
		c0,1.1-0.9,2-2,2h-8v6h20V19z"/>
	<polygon points="59.2,47.4 50.9,29 29.5,29 21.2,47.4 21.2,51 59.2,51 	"/>
	<path d="M52.3,85.4L50.9,79H21.2v10c0,1.1,0.9,2,2,2h31v-4C53.3,87,52.5,86.3,52.3,85.4z"/>
	<path d="M49.3,71.4c-0.1-0.6,0-1.2,0.4-1.7c0.4-0.5,1-0.7,1.6-0.7h8V55h-38v20H50L49.3,71.4z"/>
	<polygon points="53.7,73 55.9,83 76.6,83 78.8,73 	"/>
	<rect x="58.2" y="87" width="16" height="4"/>
</g>
</svg>
