<?xml version="1.0" encoding="utf-8"?>
<!-- Generator: Adobe Illustrator 21.0.2, SVG Export Plug-In . SVG Version: 6.00 Build 0)  -->
<svg version="1.1" id="Layer_1" xmlns="http://www.w3.org/2000/svg" xmlns:xlink="http://www.w3.org/1999/xlink" x="0px" y="0px"
	 viewBox="0 0 100 100" style="enable-background:new 0 0 100 100;" xml:space="preserve">
<path d="M82.6,69.7c-0.4-0.5-1-0.7-1.6-0.7H63V47c0-0.3-0.1-0.6-0.2-0.8L54,26.6V11c0-3.3-2.7-6-6-6H32c-3.3,0-6,2.7-6,6v15.6
	l-8.8,19.6C17.1,46.4,17,46.7,17,47v42c0,3.3,2.7,6,6,6h53c1.1,0,2-0.9,2-2v-6c0.9,0,1.8-0.7,2-1.6l3-14
	C83.1,70.8,82.9,70.2,82.6,69.7z M30,19h8c1.1,0,2-0.9,2-2c0-1.1-0.9-2-2-2h-8v-4c0-1.1,0.9-2,2-2h16c1.1,0,2,0.9,2,2v4h-4
	c-1.1,0-2,0.9-2,2c0,1.1,0.9,2,2,2h4v6H30V19z M21,47.4L29.3,29h21.4L59,47.4V51H21V47.4z M21,55h38v14h-8c-0.6,0-1.2,0.3-1.6,0.7
	c-0.4,0.5-0.5,1.1-0.4,1.7l0.8,3.6H21V55z M54,91H23c-1.1,0-2-0.9-2-2V79h29.7l1.4,6.4c0.2,0.9,1,1.6,2,1.6V91z M74,91H58v-4h16V91z
	 M76.4,83H55.6l-2.2-10h25.1L76.4,83z"/>
</svg>
