<?xml version="1.0" encoding="utf-8"?>
<!-- Generator: Adobe Illustrator 21.0.2, SVG Export Plug-In . SVG Version: 6.00 Build 0)  -->
<svg version="1.1" id="Layer_1" xmlns="http://www.w3.org/2000/svg" xmlns:xlink="http://www.w3.org/1999/xlink" x="0px" y="0px"
	 viewBox="0 0 100 100" style="enable-background:new 0 0 100 100;" xml:space="preserve">
<g>
	<path d="M7,59c0,3.4,1.6,6.5,4,8.5c0.3-7.1,2.5-13.8,6.1-19.5C11.5,48.5,7,53.2,7,59z"/>
	<path d="M60.9,31.6C60.2,26.2,55.6,22,50,22s-10.2,4.2-10.9,9.6c3.5-1,7.1-1.6,10.9-1.6S57.4,30.5,60.9,31.6z"/>
	<path d="M36.7,32.3c-2-2.6-5.2-4.3-8.7-4.3c-6.1,0-11,4.9-11,11c0,2.4,0.8,4.5,2,6.3C23.5,39.5,29.7,34.9,36.7,32.3z"/>
	<path d="M81,45.3c1.3-1.8,2-4,2-6.3c0-6.1-4.9-11-11-11c-3.6,0-6.7,1.7-8.7,4.3C70.3,34.9,76.5,39.5,81,45.3z"/>
	<path d="M82.9,48c3.6,5.7,5.8,12.3,6.1,19.5c2.5-2,4-5.1,4-8.5C93,53.2,88.5,48.5,82.9,48z"/>
	<path d="M50,34c-19.3,0-35,15.7-35,35v7c0,1.1,0.9,2,2,2h66c1.1,0,2-0.9,2-2v-7C85,49.7,69.3,34,50,34z M23,64c-1.1,0-2-0.9-2-2
		c0-1.1,0.9-2,2-2s2,0.9,2,2C25,63.1,24.1,64,23,64z M35,72c-1.1,0-2-0.9-2-2c0-1.1,0.9-2,2-2s2,0.9,2,2C37,71.1,36.1,72,35,72z
		 M35,56c-1.1,0-2-0.9-2-2c0-1.1,0.9-2,2-2s2,0.9,2,2C37,55.1,36.1,56,35,56z M50,64c-1.1,0-2-0.9-2-2c0-1.1,0.9-2,2-2s2,0.9,2,2
		C52,63.1,51.1,64,50,64z M50,48c-1.1,0-2-0.9-2-2c0-1.1,0.9-2,2-2s2,0.9,2,2C52,47.1,51.1,48,50,48z M65,72c-1.1,0-2-0.9-2-2
		c0-1.1,0.9-2,2-2s2,0.9,2,2C67,71.1,66.1,72,65,72z M65,56c-1.1,0-2-0.9-2-2c0-1.1,0.9-2,2-2s2,0.9,2,2C67,55.1,66.1,56,65,56z
		 M77,60c1.1,0,2,0.9,2,2c0,1.1-0.9,2-2,2s-2-0.9-2-2C75,60.9,75.9,60,77,60z"/>
</g>
</svg>
