<?xml version="1.0" encoding="utf-8"?>
<!-- Generator: Adobe Illustrator 21.0.2, SVG Export Plug-In . SVG Version: 6.00 Build 0)  -->
<svg version="1.1" id="Layer_1" xmlns="http://www.w3.org/2000/svg" xmlns:xlink="http://www.w3.org/1999/xlink" x="0px" y="0px"
	 viewBox="0 0 100 100" style="enable-background:new 0 0 100 100;" xml:space="preserve">
<g>
	<path d="M82.9,45c1.3-2,2.1-4.5,2.1-7c0-7.2-5.8-13-13-13c-3.7,0-7,1.5-9.4,4c-1.4-5.7-6.5-10-12.6-10s-11.3,4.3-12.6,10
		c-2.4-2.5-5.7-4-9.4-4c-7.2,0-13,5.8-13,13c0,2.6,0.8,5,2.1,7C10.3,45.5,5,51.1,5,58c0,4.6,2.4,8.6,6,10.9V75c0,3.3,2.7,6,6,6h66
		c3.3,0,6-2.7,6-6v-6.1c3.6-2.3,6-6.4,6-10.9C95,51.1,89.7,45.5,82.9,45z M72,29c5,0,9,4,9,9c0,1.7-0.5,3.3-1.3,4.7
		c-3.9-4.6-8.8-8.2-14.4-10.6C66.9,30.2,69.3,29,72,29z M50,23c4.3,0,7.9,3,8.8,7C56,29.4,53,29,50,29s-6,0.4-8.8,1
		C42.1,26,45.7,23,50,23z M28,29c2.7,0,5.1,1.2,6.8,3.1c-5.6,2.4-10.5,6-14.4,10.6c-0.8-1.4-1.3-3-1.3-4.7C19,33,23,29,28,29z
		 M11.2,63.9C9.8,62.3,9,60.3,9,58c0-4.2,2.9-7.7,6.8-8.7C13.4,53.7,11.8,58.6,11.2,63.9z M85,75c0,1.1-0.9,2-2,2H17
		c-1.1,0-2-0.9-2-2v-7c0-19.3,15.7-35,35-35s35,15.7,35,35V75z M88.8,63.9c-0.6-5.2-2.2-10.2-4.6-14.6c3.9,1,6.8,4.5,6.8,8.7
		C91,60.3,90.2,62.3,88.8,63.9z"/>
	<circle cx="35" cy="69" r="2"/>
	<circle cx="65" cy="69" r="2"/>
	<circle cx="50" cy="61" r="2"/>
	<circle cx="35" cy="53" r="2"/>
	<circle cx="23" cy="61" r="2"/>
	<circle cx="77" cy="61" r="2"/>
	<circle cx="65" cy="53" r="2"/>
	<circle cx="50" cy="45" r="2"/>
</g>
</svg>
