<?xml version="1.0" encoding="utf-8"?>
<!-- Generator: Adobe Illustrator 21.0.2, SVG Export Plug-In . SVG Version: 6.00 Build 0)  -->
<svg version="1.1" id="Layer_1" xmlns="http://www.w3.org/2000/svg" xmlns:xlink="http://www.w3.org/1999/xlink" x="0px" y="0px"
	 viewBox="0 0 100 100" style="enable-background:new 0 0 100 100;" xml:space="preserve">
<g>
	<path d="M93,48h-6.1c-1-18.8-16.1-33.9-34.9-34.9V7c0-1.1-0.9-2-2-2s-2,0.9-2,2v6.1c-18.8,1-33.9,16.1-34.9,34.9H7
		c-1.1,0-2,0.9-2,2c0,1.1,0.9,2,2,2h6.1c1,18.8,16.1,33.9,34.9,34.9V93c0,1.1,0.9,2,2,2s2-0.9,2-2v-6.1c18.8-1,33.9-16.1,34.9-34.9
		H93c1.1,0,2-0.9,2-2C95,48.9,94.1,48,93,48z M48,17.1v6c-13.3,1-23.9,11.6-24.9,24.9h-6C18.1,31.4,31.4,18.1,48,17.1z M48,82.9
		c-16.6-1-29.9-14.3-30.9-30.9h6c1,13.3,11.6,23.9,24.9,24.9V82.9z M50,73c-12.7,0-23-10.3-23-23s10.3-23,23-23s23,10.3,23,23
		S62.7,73,50,73z M52,82.9v-6c13.3-1,23.9-11.6,24.9-24.9h6C81.9,68.6,68.6,81.9,52,82.9z M76.9,48c-1-13.3-11.6-23.9-24.9-24.9v-6
		c16.6,1,29.9,14.3,30.9,30.9H76.9z"/>
	<path d="M62,37c0-1.1-0.9-2-2-2H40c-1.1,0-2,0.9-2,2c0,1.1,0.9,2,2,2h3.8c-0.4,1.8-1.4,3.5-2.9,4.7l-2.2,1.8
		c-0.5,0.4-0.7,1-0.7,1.5v12c0,3.3,2.7,6,6,6h12c3.3,0,6-2.7,6-6V47c0-0.6-0.3-1.2-0.7-1.5l-2.2-1.8c-1.5-1.2-2.5-2.8-2.9-4.7H60
		C61.1,39,62,38.1,62,37z M58,59c0,1.1-0.9,2-2,2H44c-1.1,0-2-0.9-2-2v-4h16V59z M56.6,46.7l1.4,1.2V51H42v-3.1l1.4-1.2
		c2.4-2,3.9-4.7,4.4-7.7h4.3C52.6,42,54.2,44.8,56.6,46.7z"/>
</g>
</svg>
