<?xml version="1.0" encoding="utf-8"?>
<!-- Generator: Adobe Illustrator 21.0.2, SVG Export Plug-In . SVG Version: 6.00 Build 0)  -->
<svg version="1.1" id="Layer_1" xmlns="http://www.w3.org/2000/svg" xmlns:xlink="http://www.w3.org/1999/xlink" x="0px" y="0px"
	 viewBox="0 0 100 100" style="enable-background:new 0 0 100 100;" xml:space="preserve">
<g>
	<path d="M48,41h2c3.3,0,6,2.7,6,6v10c0,3.3-2.7,6-6,6h-8c-3.3,0-6-2.7-6-6V47c0-3.3,2.7-6,6-6h2V29H28.2l5.5,60.2
		c0.1,1,0.9,1.8,2,1.8h28.7c1,0,1.9-0.8,2-1.8L71.8,29H48V41z"/>
	<path d="M73,17H27c-2.2,0-4,1.8-4,4v2c0,1.1,0.9,2,2,2h50c1.1,0,2-0.9,2-2v-2C77,18.8,75.2,17,73,17z"/>
	<path d="M72,11c0-1.1-0.9-2-2-2H30c-1.1,0-2,0.9-2,2v2h44V11z"/>
	<path d="M40,47v10c0,1.1,0.9,2,2,2h8c1.1,0,2-0.9,2-2V47c0-1.1-0.9-2-2-2h-8C40.9,45,40,45.9,40,47z M46,49c1.1,0,2,0.9,2,2
		c0,1.1-0.9,2-2,2s-2-0.9-2-2C44,49.9,44.9,49,46,49z"/>
</g>
</svg>
