<?xml version="1.0" encoding="utf-8"?>
<!-- Generator: Adobe Illustrator 21.0.2, SVG Export Plug-In . SVG Version: 6.00 Build 0)  -->
<svg version="1.1" id="Layer_1" xmlns="http://www.w3.org/2000/svg" xmlns:xlink="http://www.w3.org/1999/xlink" x="0px" y="0px"
	 viewBox="0 0 100 100" style="enable-background:new 0 0 100 100;" xml:space="preserve">
<g>
	<path d="M76,13.6V11c0-3.3-2.7-6-6-6H30c-3.3,0-6,2.7-6,6v2.6c-2.9,1.2-5,4.1-5,7.4v2c0,3,2.2,5.5,5.2,5.9l5.5,60.6
		c0.3,3.1,2.9,5.4,6,5.4h28.7c3.1,0,5.7-2.3,6-5.5l5.5-60.6C78.8,28.5,81,26,81,23v-2C81,17.6,78.9,14.8,76,13.6z M28,11
		c0-1.1,0.9-2,2-2h40c1.1,0,2,0.9,2,2v2H28V11z M66.3,89.2c-0.1,1-0.9,1.8-2,1.8H35.6c-1,0-1.9-0.8-2-1.8L28.2,29H44v12h-2
		c-3.3,0-6,2.7-6,6v10c0,3.3,2.7,6,6,6h8c3.3,0,6-2.7,6-6V47c0-3.3-2.7-6-6-6h-2V29h23.8L66.3,89.2z M50,45c1.1,0,2,0.9,2,2v10
		c0,1.1-0.9,2-2,2h-8c-1.1,0-2-0.9-2-2V47c0-1.1,0.9-2,2-2H50z M77,23c0,1.1-0.9,2-2,2H25c-1.1,0-2-0.9-2-2v-2c0-2.2,1.8-4,4-4h46
		c2.2,0,4,1.8,4,4V23z"/>
	<circle cx="46" cy="51" r="2"/>
</g>
</svg>
