<?xml version="1.0" encoding="utf-8"?>
<!-- Generator: Adobe Illustrator 21.0.2, SVG Export Plug-In . SVG Version: 6.00 Build 0)  -->
<svg version="1.1" id="Layer_1" xmlns="http://www.w3.org/2000/svg" xmlns:xlink="http://www.w3.org/1999/xlink" x="0px" y="0px"
	 viewBox="0 0 100 100" style="enable-background:new 0 0 100 100;" xml:space="preserve">
<g>
	<path d="M92.5,17.4l-9.9-9.9C81,6,78.5,6,76.9,7.5c-1.6,1.6-1.6,4.1,0,5.7l1.4,1.4l-7.1,7.1l-6.4-6.4c-1.6-1.6-4.1-1.6-5.7,0
		c-1.6,1.6-1.6,4.1,0,5.7l2.1,2.1L51.5,33c0.1,0.1,0.2,0.3,0.3,0.4l0.6,1.1c1.5,2.7,4.3,4.6,7.4,5.1c3,0.4,5.8,1.8,8,4l2.1,2.1
		l7.1-7.1l2.1,2.1c1.6,1.6,4.1,1.6,5.7,0c0.8-0.8,1.2-1.8,1.2-2.8c0-1-0.4-2-1.2-2.8l-6.4-6.4l7.1-7.1l1.4,1.4
		c1.6,1.6,4.1,1.6,5.7,0C94,21.5,94,19,92.5,17.4z"/>
	<path d="M59.2,43.6c-4.3-0.6-8.2-3.3-10.3-7.1l-0.3-0.6L30.3,54.2c-1.6,1.6-1.6,4.1,0,5.7l-5.7,5.7l-0.7,5l-5.7,5.6l1.4,1.4
		L6.9,90.2c-0.8,0.8-0.8,2,0,2.8c0.4,0.4,0.9,0.6,1.4,0.6c0.5,0,1-0.2,1.4-0.6l12.7-12.7l1.4,1.4l5.6-5.7l5-0.7l5.7-5.7
		c1.6,1.6,4.1,1.6,5.7,0l1.4-1.4l-5.6-5.7c-0.8-0.8-0.8-2,0-2.8c0.8-0.8,2-0.8,2.8,0l5.7,5.7l2.8-2.8L47.2,57
		c-0.8-0.8-0.8-2.1,0-2.8c0.8-0.8,2.1-0.8,2.8,0l5.7,5.7l2.8-2.8l-5.7-5.7c-0.8-0.8-0.8-2,0-2.8c0.8-0.8,2-0.8,2.8,0l5.7,5.7
		l5.7-5.7l-2.1-2.1C63.4,44.9,61.4,43.9,59.2,43.6z"/>
	<path d="M86,84h-1V64l-4-8l-4,8v20h-1c-2.2,0-4,1.8-4,4v4h18v-4C90,85.8,88.2,84,86,84z"/>
</g>
</svg>
