<?xml version="1.0" encoding="utf-8"?>
<!-- Generator: Adobe Illustrator 21.0.2, SVG Export Plug-In . SVG Version: 6.00 Build 0)  -->
<svg version="1.1" id="Layer_1" xmlns="http://www.w3.org/2000/svg" xmlns:xlink="http://www.w3.org/1999/xlink" x="0px" y="0px"
	 viewBox="0 0 100 100" style="enable-background:new 0 0 100 100;" xml:space="preserve">
<g>
	<path d="M92.9,16.8L83,6.9c-2.3-2.3-6.1-2.3-8.5,0c-1.1,1.1-1.8,2.6-1.8,4.2c0,1.6,0.6,3.1,1.8,4.2l-4.2,4.2l-5-4.9
		c-2.3-2.3-6.1-2.3-8.5,0c-2.3,2.3-2.3,6.1,0,8.5l0.7,0.7L27.8,53.6c-1.8,1.8-2.2,4.6-1.2,6.8l-4.5,4.5c-0.3,0.3-0.5,0.7-0.6,1.1
		L21,70.3l-5.2,5.2c-0.4,0.4-0.6,0.9-0.6,1.4c0,0.5,0.2,1,0.6,1.4l1.4,1.4L5.9,91.1c-0.8,0.8-0.8,2,0,2.8c0.4,0.4,0.9,0.6,1.4,0.6
		c0.5,0,1-0.2,1.4-0.6l11.3-11.3l1.4,1.4c0.4,0.4,0.9,0.6,1.4,0.6c0.5,0,1-0.2,1.4-0.6l5.2-5.2l4.3-0.6c0.4-0.1,0.8-0.3,1.1-0.6
		l4.5-4.5c0.8,0.4,1.7,0.6,2.6,0.6c1.6,0,3.1-0.6,4.2-1.8l2.8-2.8c0,0,0,0,0,0l5.7-5.7c0,0,0,0,0,0l5.7-5.6h0l8.5-8.5l7.1-7.1
		l0.7,0.7c1.2,1.2,2.7,1.8,4.2,1.8s3.1-0.6,4.2-1.8c2.3-2.3,2.3-6.1,0-8.5l-5-5l4.2-4.2c1.2,1.2,2.7,1.8,4.2,1.8
		c1.5,0,3.1-0.6,4.2-1.8C95.2,23,95.2,19.2,92.9,16.8z M60.4,26.7l5,5L57,40c-2.3-0.8-4.2-2.3-5.5-4.5L60.4,26.7z M32.6,74.3
		l-4.3,0.6c-0.4,0.1-0.8,0.3-1.1,0.6l-4.2,4.2l-2.8-2.8l4.2-4.2c0.3-0.3,0.5-0.7,0.6-1.1l0.6-4.3l3.8-3.8l7.1,7.1L32.6,74.3z
		 M59,53.6l-4.2-4.2c-0.8-0.8-2-0.8-2.8,0c-0.8,0.8-0.8,2.1,0,2.8l4.2,4.2l-2.8,2.8L49.1,55c-0.8-0.8-2-0.8-2.8,0
		c-0.8,0.8-0.8,2,0,2.8l4.2,4.2l-2.8,2.8l-4.2-4.2c-0.8-0.8-2-0.8-2.8,0c-0.8,0.8-0.8,2.1,0,2.8l4.2,4.2l-1.4,1.4
		c-0.8,0.8-2.1,0.8-2.8,0l-9.9-9.9c-0.8-0.8-0.8-2,0-2.8l18-18c2.2,3.2,5.7,5.4,9.6,6c2.1,0.3,4.2,1.3,5.7,2.8l0.7,0.7L59,53.6z
		 M67.5,45.1l-0.7-0.7c-1.5-1.5-3.3-2.6-5.2-3.3l6.6-6.6l1,1l3.9,4L67.5,45.1z M82.3,37.3c0.8,0.8,0.8,2,0,2.8c-0.8,0.8-2,0.8-2.8,0
		L77.3,38c0,0,0,0,0,0l-7.8-7.8l-9.9-9.9c-0.8-0.8-0.8-2,0-2.8c0.8-0.8,2-0.8,2.8,0l6.4,6.4c0,0,0,0,0,0L82.3,37.3z M77.3,26.7
		l-4.2-4.2l4.2-4.2l4.2,4.2L77.3,26.7z M90.1,22.5c-0.8,0.8-2,0.8-2.8,0v0l-9.9-9.9c-0.4-0.4-0.6-0.9-0.6-1.4c0-0.5,0.2-1,0.6-1.4
		c0.8-0.8,2-0.8,2.8,0l9.9,9.9C90.8,20.4,90.8,21.7,90.1,22.5z"/>
	<path d="M86,82.9V64.8c0-0.3-0.1-0.6-0.2-0.9l-4-8c-0.3-0.7-1-1.1-1.8-1.1s-1.5,0.4-1.8,1.1l-4,8c-0.1,0.3-0.2,0.6-0.2,0.9v18.1
		c-2.8,0.5-5,2.9-5,5.9v4c0,1.1,0.9,2,2,2h18c1.1,0,2-0.9,2-2v-4C91,85.9,88.8,83.4,86,82.9z M78,65.3l2-4l2,4v17.5h-4V65.3z
		 M87,90.8H73v-2c0-1.1,0.9-2,2-2h10c1.1,0,2,0.9,2,2V90.8z"/>
</g>
</svg>
