<?xml version="1.0" encoding="utf-8"?>
<!-- Generator: Adobe Illustrator 21.0.2, SVG Export Plug-In . SVG Version: 6.00 Build 0)  -->
<svg version="1.1" id="Layer_1" xmlns="http://www.w3.org/2000/svg" xmlns:xlink="http://www.w3.org/1999/xlink" x="0px" y="0px"
	 viewBox="0 0 100 100" style="enable-background:new 0 0 100 100;" xml:space="preserve">
<g>
	<circle cx="31.3" cy="76" r="5"/>
	<path d="M41.3,21h8c1.1,0,2-0.9,2-2c0-1.1-0.9-2-2-2h-8c-0.1,0-0.2,0-0.3,0v0c0-5.5-4.5-10-10-10c-2.8,0-5.3,1.1-7.1,2.9
		S21,14.2,21,17v45.3c-4.6,3.4-7.5,9.1-6.9,15.4c0.8,8.3,7.7,14.9,16,15.4C39.8,93.5,48,85.7,48,76c0-5.7-2.8-10.6-7-13.7V51
		c0.1,0,0.2,0,0.3,0h6c1.1,0,2-0.9,2-2c0-1.1-0.9-2-2-2h-6c-0.1,0-0.2,0-0.3,0V41c0.1,0,0.2,0,0.3,0h8c1.1,0,2-0.9,2-2
		c0-1.1-0.9-2-2-2h-8c-0.1,0-0.2,0-0.3,0V31c0.1,0,0.2,0,0.3,0h6c1.1,0,2-0.9,2-2c0-1.1-0.9-2-2-2h-6c-0.1,0-0.2,0-0.3,0V21
		C41.1,21,41.2,21,41.3,21z M31.3,85c-5,0-9-4-9-9c0-4.3,3-7.9,7-8.8V17c0-1.1,0.9-2,2-2c1.1,0,2,0.9,2,2v50.2c4,0.9,7,4.5,7,8.8
		C40.3,81,36.2,85,31.3,85z"/>
	<path d="M85.1,36.3l-7.4-8.8c-1.6-1.9-4.5-1.9-6.1,0l-7.4,8.8c-2.2,2.6-0.3,6.6,3.1,6.6h2.4v19c0,2.2,1.8,4,4,4h2c2.2,0,4-1.8,4-4
		v-19H82C85.4,42.9,87.3,38.9,85.1,36.3z"/>
</g>
</svg>
