<?xml version="1.0" encoding="utf-8"?>
<!-- Generator: Adobe Illustrator 21.0.2, SVG Export Plug-In . SVG Version: 6.00 Build 0)  -->
<svg version="1.1" id="Layer_1" xmlns="http://www.w3.org/2000/svg" xmlns:xlink="http://www.w3.org/1999/xlink" x="0px" y="0px"
	 viewBox="0 0 100 100" style="enable-background:new 0 0 100 100;" xml:space="preserve">
<g>
	<path d="M32.3,67.2V17c0-1.1-0.9-2-2-2c-1.1,0-2,0.9-2,2v50.2c-4,0.9-7,4.5-7,8.8c0,5,4,9,9,9s9-4,9-9
		C39.3,71.7,36.3,68.1,32.3,67.2z M30.3,81c-2.8,0-5-2.2-5-5s2.2-5,5-5s5,2.2,5,5S33.1,81,30.3,81z"/>
	<path d="M48.3,21c1.1,0,2-0.9,2-2c0-1.1-0.9-2-2-2H42c0-6.6-5.4-12-12-12s-12,5.4-12,12v44.3c-4.9,4-7.5,10.1-6.9,16.5
		C12,87.1,19.7,94.5,29,95c0.4,0,0.7,0,1,0c4.9,0,9.5-1.8,13.1-5.2C46.9,86.2,49,81.3,49,76c0-5.7-2.6-11.1-7-14.7V51h4.3
		c1.1,0,2-0.9,2-2c0-1.1-0.9-2-2-2H42v-6h6.3c1.1,0,2-0.9,2-2c0-1.1-0.9-2-2-2H42v-6h4.3c1.1,0,2-0.9,2-2c0-1.1-0.9-2-2-2H42v-6
		H48.3z M45,76c0,4.2-1.7,8-4.7,10.9c-3,2.9-7,4.3-11.1,4.1c-7.4-0.4-13.4-6.2-14.1-13.5c-0.5-5.3,1.8-10.4,6.1-13.5
		c0.5-0.4,0.8-1,0.8-1.6V17c0-4.4,3.6-8,8-8c4.4,0,8,3.6,8,8v45.3c0,0.6,0.3,1.2,0.8,1.6C42.7,66.7,45,71.2,45,76z"/>
	<path d="M87.5,35l-9.3-10.8c-1.1-1.3-2.8-2.1-4.6-2.1s-3.4,0.8-4.6,2.1L59.8,35c-1.5,1.8-1.9,4.3-0.9,6.4c1,2.2,3.1,3.5,5.5,3.5
		h1.3v17c0,3.3,2.7,6,6,6h4c3.3,0,6-2.7,6-6v-17H83c2.4,0,4.5-1.3,5.5-3.5C89.4,39.3,89.1,36.8,87.5,35z M84.8,39.8
		c-0.1,0.3-0.6,1.2-1.8,1.2h-3.3c-1.1,0-2,0.9-2,2v19c0,1.1-0.9,2-2,2h-4c-1.1,0-2-0.9-2-2v-19c0-1.1-0.9-2-2-2h-3.3
		c-1.2,0-1.7-0.9-1.8-1.2c-0.1-0.3-0.5-1.2,0.3-2.1l9.3-10.9c0.8-0.9,2.3-0.9,3,0l9.3,10.9C85.3,38.5,84.9,39.5,84.8,39.8z"/>
</g>
</svg>
