<?xml version="1.0" encoding="utf-8"?>
<!-- Generator: Adobe Illustrator 21.0.2, SVG Export Plug-In . SVG Version: 6.00 Build 0)  -->
<svg version="1.1" id="Layer_1" xmlns="http://www.w3.org/2000/svg" xmlns:xlink="http://www.w3.org/1999/xlink" x="0px" y="0px"
	 viewBox="0 0 100 100" style="enable-background:new 0 0 100 100;" xml:space="preserve">
<g>
	<path d="M11.8,79.6c-0.6,0.6-0.9,1.3-0.9,2.1c0,0.8,0.3,1.6,0.9,2.1c1.1,1.1,3.1,1.1,4.2,0l5-4.9l-4.2-4.2L11.8,79.6z"/>
	<path d="M36.6,52c-1-1-1.7-2.2-2.1-3.6l-2.6,2.6c-3,3-5,7-5.9,11.4c-0.4,2.4-1.1,4-2.2,5.1l-4.2,4.2l4.2,4.2l4.2-4.2
		c1-1,2.8-1.8,5.3-2.3c4.5-0.9,8.5-3,11.6-6.1l2.3-2.3c-1.3-0.4-2.6-1.1-3.6-2.1L36.6,52z"/>
	<path d="M74.7,28c1,1,1.7,2.3,2.1,3.6l5-5L69.1,13.8l-5,5c1.3,0.4,2.6,1.1,3.6,2.1L74.7,28z"/>
	<path d="M71.9,30.8l-7.1-7.1c-0.8-0.8-1.8-1.2-2.8-1.2c-1.1,0-2.1,0.4-2.8,1.2L39.4,43.5c-0.8,0.8-1.2,1.8-1.2,2.8s0.4,2.1,1.2,2.8
		l7.1,7.1c1.5,1.5,4.1,1.5,5.7,0l19.8-19.8C73.5,34.9,73.5,32.4,71.9,30.8z M57.1,41.4L50,48.5c-0.4,0.4-0.9,0.6-1.4,0.6
		s-1-0.2-1.4-0.6c-0.8-0.8-0.8-2,0-2.8l7.1-7.1c0.8-0.8,2-0.8,2.8,0C57.8,39.4,57.8,40.6,57.1,41.4z M64.1,34.3
		c-0.8,0.8-2,0.8-2.8,0c-0.8-0.8-0.8-2,0-2.8c0.8-0.8,2.1-0.8,2.8,0C64.9,32.3,64.9,33.6,64.1,34.3z"/>
	<path d="M86.1,22.3c0.8-0.8,1.2-1.8,1.2-2.8s-0.4-2.1-1.2-2.8L79,9.6c-1.6-1.6-4.1-1.6-5.7,0L71.9,11l12.7,12.7L86.1,22.3z"/>
	<polygon points="77.3,56.6 65.1,72.6 72.1,72.6 72.1,91.6 82.1,91.6 82.1,72.6 89.1,72.6 	"/>
</g>
</svg>
