<?xml version="1.0" encoding="utf-8"?>
<!-- Generator: Adobe Illustrator 21.0.2, SVG Export Plug-In . SVG Version: 6.00 Build 0)  -->
<svg version="1.1" id="Layer_1" xmlns="http://www.w3.org/2000/svg" xmlns:xlink="http://www.w3.org/1999/xlink" x="0px" y="0px"
	 viewBox="0 0 100 100" style="enable-background:new 0 0 100 100;" xml:space="preserve">
<g>
	<path d="M87,29l2.8-2.8c1.5-1.5,2.4-3.5,2.4-5.7c0-2.1-0.8-4.1-2.4-5.7l-7.1-7.1c-0.2-0.2-0.4-0.4-0.6-0.5c0,0-0.1,0-0.1-0.1
		c-0.2-0.1-0.4-0.3-0.6-0.4c0,0,0,0,0,0c-1.3-0.8-2.8-1.3-4.4-1.3c-1.6,0-3.1,0.5-4.4,1.3c0,0,0,0,0,0c-0.2,0.1-0.4,0.3-0.6,0.4
		c0,0,0,0,0,0c-0.2,0.2-0.4,0.4-0.6,0.5l-2.8,2.8v0L30,49.2c-3.6,3.6-6,8.3-7,13.6c-0.4,2.1-0.9,2.8-1.1,3l-5.6,5.6l-6.4,6.4
		c-1.3,1.3-2.1,3.1-2.1,4.9s0.7,3.6,2.1,5c1.3,1.3,3.1,2,4.9,2s3.6-0.7,5-2l12-12c0.1-0.1,0.3-0.3,0.8-0.5c0.5-0.2,1.3-0.5,2.4-0.7
		c5.2-1,10-3.5,13.6-7.2l7.2-7.2l19.8-19.8L87,29z M74.2,10.6c1.6-1.6,4.1-1.6,5.7,0l7.1,7.1c0.8,0.8,1.2,1.8,1.2,2.8
		s-0.4,2.1-1.2,2.8l-1.4,1.4L72.8,12L74.2,10.6z M70,14.8l12.7,12.7l-5,5c-0.3-1.3-1-2.6-2.1-3.6l-7.1-7.1c-1-1-2.2-1.7-3.6-2.1
		L70,14.8z M17,84.8c-1.1,1.1-3.1,1.1-4.2,0c-0.6-0.6-0.9-1.3-0.9-2.1c0-0.8,0.3-1.6,0.9-2.1l5-5l4.2,4.2L17,84.8z M45.8,64.5
		c-3.1,3.1-7.1,5.2-11.6,6.1C31.8,71,30,71.8,29,72.8l-4.2,4.2l-4.2-4.2l4.2-4.2c1-1,1.7-2.7,2.2-5.1c0.8-4.5,2.8-8.4,5.9-11.4
		l2.6-2.6c0.4,1.3,1.1,2.6,2.1,3.6l7.1,7.1c1,1,2.2,1.7,3.6,2.1L45.8,64.5z M72.8,37.5L53,57.3c-1.5,1.5-4.1,1.5-5.7,0l-7.1-7.1
		c-0.8-0.8-1.2-1.8-1.2-2.8s0.4-2.1,1.2-2.8l19.8-19.8c0.8-0.8,1.8-1.2,2.8-1.2c1.1,0,2.1,0.4,2.8,1.2l7.1,7.1
		C74.4,33.4,74.4,35.9,72.8,37.5z"/>
	<path d="M55.2,39.6l-7.1,7.1c-0.8,0.8-0.8,2,0,2.8c0.4,0.4,0.9,0.6,1.4,0.6s1-0.2,1.4-0.6l7.1-7.1c0.8-0.8,0.8-2,0-2.8
		C57.2,38.8,55.9,38.8,55.2,39.6z"/>
	<ellipse transform="matrix(0.7071 -0.7071 0.7071 0.7071 -5.3507 54.9424)" cx="63.6" cy="33.9" rx="2" ry="2"/>
	<path d="M79.8,56.4c-0.4-0.5-1-0.8-1.6-0.8c-0.6,0-1.2,0.3-1.6,0.8l-12.2,16c-0.5,0.6-0.5,1.4-0.2,2.1c0.3,0.7,1,1.1,1.8,1.1h5v17
		c0,1.1,0.9,2,2,2h10c1.1,0,2-0.9,2-2v-17h5c0.8,0,1.4-0.4,1.8-1.1c0.3-0.7,0.3-1.5-0.2-2.1L79.8,56.4z M83,71.6c-1.1,0-2,0.9-2,2
		v17h-6v-17c0-1.1-0.9-2-2-2h-3l8.2-10.7L86,71.6H83z"/>
</g>
</svg>
