<?xml version="1.0" encoding="utf-8"?>
<!-- Generator: Adobe Illustrator 23.0.1, SVG Export Plug-In . SVG Version: 6.00 Build 0)  -->
<svg version="1.1" id="Layer_1" xmlns="http://www.w3.org/2000/svg" xmlns:xlink="http://www.w3.org/1999/xlink" x="0px" y="0px"
	 viewBox="0 0 100 100" style="enable-background:new 0 0 100 100;" xml:space="preserve">
<path d="M94.9,91.3l-4-10c-0.3-0.8-1-1.3-1.9-1.3H78V57.2c3.6-1.6,6-5.1,6-9.2c0-5.5-4.5-10-10-10c-2.2,0-4.3,0.8-6,2V14
	c0-1.1-0.9-2-2-2s-2,0.9-2,2v4h-6.2c-0.7-2.8-2.9-5-5.8-5.8V8c0-1.1-0.9-2-2-2s-2,0.9-2,2v4.2c-2.8,0.7-5,2.9-5.8,5.8H36v-4
	c0-1.1-0.9-2-2-2s-2,0.9-2,2v26c-1.7-1.3-3.8-2-6-2c-5.5,0-10,4.5-10,10c0,4,2.4,7.6,6,9.2V80H11c-0.8,0-1.5,0.5-1.9,1.3l-4,10
	c-0.2,0.6-0.2,1.3,0.2,1.9C5.7,93.7,6.3,94,7,94h86c0.7,0,1.3-0.3,1.7-0.9C95,92.6,95.1,91.9,94.9,91.3z M68,66.7
	c1.8-1.3,3-3.4,3-5.7s-1.2-4.5-3-5.7V48c0-3.3,2.7-6,6-6s6,2.7,6,6c0,2.7-1.8,5.1-4.5,5.8c-0.9,0.2-1.5,1-1.5,1.9V80h-6V66.7z
	 M36,22h8c1.1,0,2-0.9,2-2c0-2.2,1.8-4,4-4s4,1.8,4,4c0,1.1,0.9,2,2,2h8v32H36V22z M36,58h28c1.7,0,3,1.3,3,3c0,1.6-1.3,3-3,3H36
	c-1.7,0-3-1.4-3-3C33,59.3,34.3,58,36,58z M64,68v12H36V68H64z M20,48c0-3.3,2.7-6,6-6s6,2.7,6,6v7.3c-1.8,1.3-3,3.4-3,5.7
	s1.2,4.5,3,5.7V80h-6V55.7c0-0.9-0.6-1.7-1.5-1.9C21.8,53.1,20,50.7,20,48z M10,90l2.4-6h75.3l2.4,6H10z"/>
</svg>
