<?xml version="1.0" encoding="utf-8"?>
<!-- Generator: Adobe Illustrator 23.0.1, SVG Export Plug-In . SVG Version: 6.00 Build 0)  -->
<svg version="1.1" id="Layer_1" xmlns="http://www.w3.org/2000/svg" xmlns:xlink="http://www.w3.org/1999/xlink" x="0px" y="0px"
	 viewBox="0 0 100 100" style="enable-background:new 0 0 100 100;" xml:space="preserve">
<path d="M90,92H10l2.4-6h75.3L90,92z M36,82h28V70H36V82z M24.5,55.8c0.9,0.2,1.5,1,1.5,1.9V82h6V68.7c-1.8-1.3-3-3.4-3-5.7
	s1.2-4.5,3-5.7V50c0-3.3-2.7-6-6-6s-6,2.7-6,6C20,52.7,21.8,55.1,24.5,55.8z M74,57.7c0-0.9,0.6-1.7,1.5-1.9
	c2.7-0.7,4.5-3.1,4.5-5.8c0-3.3-2.7-6-6-6s-6,2.7-6,6v7.3c1.8,1.3,3,3.4,3,5.7s-1.2,4.5-3,5.7V82h6V57.7z M36,66h28c1.7,0,3-1.4,3-3
	c0-1.7-1.3-3-3-3H36c-1.7,0-3,1.3-3,3C33,64.6,34.3,66,36,66z M52,14.2V10c0-1.1-0.9-2-2-2s-2,0.9-2,2v4.2c0.6-0.2,1.3-0.2,2-0.2
	S51.4,14.1,52,14.2z M40,16c0-1.1-0.9-2-2-2s-2,0.9-2,2v4h4V16z M64,16c0-1.1-0.9-2-2-2s-2,0.9-2,2v4h4V16z M64,24h-8
	c-1.1,0-2-0.9-2-2c0-2.2-1.8-4-4-4s-4,1.8-4,4c0,1.1-0.9,2-2,2h-8v32h28V24z"/>
</svg>
