<?xml version="1.0" encoding="utf-8"?>
<!-- Generator: Adobe Illustrator 21.0.2, SVG Export Plug-In . SVG Version: 6.00 Build 0)  -->
<svg version="1.1" id="Layer_1" xmlns="http://www.w3.org/2000/svg" xmlns:xlink="http://www.w3.org/1999/xlink" x="0px" y="0px"
	 viewBox="0 0 100 100" style="enable-background:new 0 0 100 100;" xml:space="preserve">
<g>
	<path d="M77.6,49.4c-0.9-0.6-2.2-0.5-2.8,0.5c-0.7,0.9-0.5,2.1,0.4,2.8c2,1.5,3.1,4.2,2.9,7.5c-0.1,3.7-1.7,7.7-4.2,11.3
		c-0.6,0.9-0.5,2.2,0.4,2.8c0.4,0.2,0.8,0.4,1.2,0.4c0.6,0,1.2-0.3,1.6-0.8c3.1-4.2,4.8-9,5-13.5C82.4,55.6,80.7,51.7,77.6,49.4z"/>
	<path d="M70.4,27.5l1.5-0.8c0.7-0.3,1.1-1.1,1.1-1.8c0-0.8-0.5-1.5-1.2-1.8L71.4,23c-5-2.2-10.7-2.5-15.9-1.1l1.7-9.9
		c0.3-1.8-0.2-3.5-1.3-4.9C54.7,5.8,53,5,51.3,5h-2.6c-1.8,0-3.4,0.8-4.6,2.1c-1.1,1.3-1.6,3.1-1.3,4.9l1.7,10
		c-5.2-1.5-10.9-1.1-15.9,1.1l-0.3,0.1c-0.7,0.3-1.2,1-1.2,1.8c0,0.8,0.4,1.5,1.1,1.8l1.5,0.8C16.7,33.7,8,45.5,8,59
		c0,19.8,18.8,36,42,36s42-16.2,42-36C92,45.5,83.3,33.7,70.4,27.5z M46.2,26.8c0.7,0.3,1.5,0.2,2-0.2c0.6-0.4,0.9-1.2,0.8-1.9
		l-2.2-13.3c-0.1-0.6,0.1-1.2,0.5-1.6C47.6,9.2,48.1,9,48.7,9h2.6c0.6,0,1.1,0.2,1.5,0.7c0.4,0.5,0.5,1,0.5,1.6L51,24.7
		c-0.1,0.7,0.2,1.5,0.8,1.9c0.6,0.5,1.4,0.5,2.1,0.2c3.7-1.7,7.9-2.2,11.9-1.4l-5.6,2.8c-0.8,0.4-1.2,1.2-1.1,2
		c0.1,0.8,0.7,1.5,1.5,1.7c3,0.7,5.3,2.9,6.2,5.8l-11.9-5.5c-0.6-0.3-1.3-0.2-1.9,0.1c-0.6,0.4-0.9,1-0.9,1.7
		c0,4.2-0.7,8.3-2.1,12.2c-1.7-3.8-2.7-7.9-2.9-12.2l0-0.2c0-0.7-0.4-1.3-1-1.6c-0.3-0.2-0.7-0.3-1-0.3c-0.3,0-0.6,0.1-0.8,0.2
		l-11.8,5.5c0.9-2.7,3.1-4.8,6.1-5.5l1-0.2c0.8-0.2,1.4-0.9,1.5-1.7c0.1-0.8-0.3-1.7-1.1-2L35.4,26l-1.1-0.5
		C38.3,24.7,42.4,25.1,46.2,26.8z M50,91c-21,0-38-14.4-38-32c0-12.5,8.5-23.3,20.9-28.6c-3.2,2.4-5.2,6.4-4.9,10.7
		c0,0.7,0.4,1.3,1,1.6c0.6,0.3,1.3,0.4,1.9,0.1L43.2,37c0.5,4.6,1.9,9,4.1,13.2l0.9,1.7c0.3,0.7,1,1.1,1.8,1.1h0
		c0.8,0,1.4-0.5,1.8-1.2l0.6-1.3c2-4.2,3.1-8.8,3.5-13.5l12.2,5.7c0.6,0.3,1.3,0.2,1.9-0.1c0.6-0.3,0.9-0.9,1-1.6l0-0.5
		c0.2-4.4-1.9-8.3-5.3-10.7C78.8,34.9,88,46.1,88,59C88,76.6,71,91,50,91z"/>
</g>
</svg>
