<?xml version="1.0" encoding="utf-8"?>
<!-- Generator: Adobe Illustrator 21.0.2, SVG Export Plug-In . SVG Version: 6.00 Build 0)  -->
<svg version="1.1" id="Layer_1" xmlns="http://www.w3.org/2000/svg" xmlns:xlink="http://www.w3.org/1999/xlink" x="0px" y="0px"
	 viewBox="0 0 100 100" style="enable-background:new 0 0 100 100;" xml:space="preserve">
<g>
	<path d="M68.1,27.7l-2.4,1.2c3.4,2.3,5.5,6.3,5.3,10.7l0,0.5c0,0.7-0.4,1.3-1,1.6c-0.6,0.4-1.3,0.4-1.9,0.1l-12.2-5.7
		c-0.4,4.6-1.5,9.2-3.5,13.5l-0.6,1.3c-0.3,0.7-1,1.1-1.8,1.2h0c-0.7,0-1.4-0.4-1.8-1.1l-0.9-1.7c-2.2-4.2-3.5-8.6-4.1-13.2
		l-12.4,5.8c-0.6,0.3-1.3,0.2-1.9-0.1c-0.6-0.3-0.9-0.9-1-1.6c-0.3-4.8,2.1-9.1,6-11.4l-2.1-1C18.9,33.3,10,44.8,10,58
		c0,18.8,17.9,34,40,34s40-15.2,40-34C90,44.8,81.1,33.3,68.1,27.7z M77.2,72.8c-0.4,0.5-1,0.8-1.6,0.8c-0.4,0-0.8-0.1-1.2-0.4
		c-0.9-0.6-1.1-1.9-0.4-2.8c0.7-0.9,1.3-1.9,1.8-2.8c1.5-2.8,2.4-5.7,2.5-8.4c0.1-2.7-0.6-5-1.9-6.5c-0.3-0.4-0.7-0.7-1.1-1
		c-0.9-0.7-1.1-1.9-0.4-2.8c0.6-0.9,1.9-1.1,2.8-0.5c3.1,2.3,4.8,6.2,4.6,11C82,63.9,80.2,68.6,77.2,72.8z"/>
	<path d="M39.9,27.2c0.8,0.4,1.2,1.2,1.1,2c-0.1,0.8-0.7,1.5-1.5,1.7l-1,0.2c-2.9,0.7-5.2,2.8-6.1,5.5l11.8-5.5
		c0.3-0.1,0.6-0.2,0.8-0.2c0.4,0,0.7,0.1,1,0.3c0.6,0.3,0.9,0.9,1,1.6l0,0.2c0.2,4.2,1.2,8.3,2.9,12.2C51.3,41.3,52,37.2,52,33
		c0-0.7,0.3-1.3,0.9-1.7c0.6-0.4,1.3-0.4,1.9-0.1l11.9,5.5c-0.8-2.8-3.1-5.1-6.2-5.8c-0.8-0.2-1.5-0.9-1.5-1.7
		c-0.1-0.8,0.3-1.7,1.1-2l5.6-2.8c-4-0.8-8.2-0.3-11.9,1.4c-0.7,0.3-1.5,0.2-2.1-0.2c-0.6-0.4-0.9-1.2-0.8-1.9l2.2-13.3
		c0.1-0.6-0.1-1.2-0.5-1.6C52.4,8.2,51.9,8,51.3,8h-2.6c-0.6,0-1.1,0.2-1.5,0.7c-0.4,0.5-0.5,1-0.5,1.6L49,23.7
		c0.1,0.7-0.2,1.5-0.8,1.9c-0.6,0.4-1.4,0.5-2,0.2c-3.8-1.7-7.9-2.2-11.9-1.4l1.1,0.5L39.9,27.2z"/>
</g>
</svg>
