<?xml version="1.0" encoding="utf-8"?>
<!-- Generator: Adobe Illustrator 23.0.1, SVG Export Plug-In . SVG Version: 6.00 Build 0)  -->
<svg version="1.1" id="Layer_1" xmlns="http://www.w3.org/2000/svg" xmlns:xlink="http://www.w3.org/1999/xlink" x="0px" y="0px"
	 viewBox="0 0 100 100" style="enable-background:new 0 0 100 100;" xml:space="preserve">
<style type="text/css">
	.st0{fill:#000000;}
</style>
<path class="st0" d="M90.3,18.9c-0.2-0.7-0.8-1.2-1.6-1.4c-12-2.2-21.1,1.2-25.6,3.6c0.5-1.8,1.6-3.4,2.2-4.1c0.5-0.6,0.6-1.3,0.3-2
	s-0.9-1.2-1.6-1.2C58,13,52.2,15,48,19.2c-5.5,5.5-7.1,13.7-4.2,21.1L33.1,51.8L11.6,74.3c-2.7,2.8-2.6,7.2,0.1,10
	c1.4,1.4,3.2,2.1,5,2.1c1.8,0,3.5-0.7,4.9-2l31.5-29.8l2.6-2.4c2.4,1,5,1.5,7.4,1.5c5.1,0,10-1.9,13.7-5.6c3.1-3.2,4.9-6.5,5.4-10.6
	c0-0.1,0-0.2,0-0.3c0.7-9.4,7.5-16.2,7.5-16.3C90.3,20.4,90.5,19.6,90.3,18.9z M19,81.5c-1.2,1.2-3.2,1.2-4.4-0.1
	c-1.2-1.2-1.2-3.1,0-4.4l20.8-21.9h11.4L19,81.5z M51,51.2H39.1l9-9.7l6.4,6.4L51,51.2z M50.9,38.6l1.9-2c0.9-1,2.3-1.6,3.6-1.6h0.2
	c1.2,0,2.3,0.4,3.2,1.2c1,0.9,1.5,2.1,1.5,3.5c0,1.3-0.5,2.5-1.5,3.5l-2.2,2.1L50.9,38.6z M78.3,36.8C78.3,36.8,78.2,36.8,78.3,36.8
	c-0.4,3.3-1.7,5.9-4.2,8.5c-3.9,3.9-9.5,5.3-14.9,3.9l3.4-3.1c1.8-1.6,2.8-4,2.8-6.4c0-2.4-1-4.7-2.7-6.4c-1.7-1.6-3.8-2.4-6.2-2.3
	c-2.4,0.1-4.8,1.1-6.5,2.9l-3,3.2c-1.4-5.4,0-11,3.9-14.9c2.5-2.5,5.8-4,9.4-4.4c-1,2.1-1.9,4.9-1,7.6c0.2,0.6,0.7,1.1,1.3,1.3
	c0.6,0.2,1.3,0.1,1.8-0.3c0.1-0.1,8.7-6.5,22.2-5.3C82.1,24.2,78.8,29.8,78.3,36.8z"/>
</svg>
