<?xml version="1.0" encoding="utf-8"?>
<!-- Generator: Adobe Illustrator 23.0.1, SVG Export Plug-In . SVG Version: 6.00 Build 0)  -->
<svg version="1.1" id="Layer_1" xmlns="http://www.w3.org/2000/svg" xmlns:xlink="http://www.w3.org/1999/xlink" x="0px" y="0px"
	 viewBox="0 0 100 100" style="enable-background:new 0 0 100 100;" xml:space="preserve">
<path d="M85.4,21c-2.4,3.2-5.7,8.8-6.2,15.8c0,0,0,0.1,0,0.1c-0.4,3.2-1.7,5.8-4.2,8.4c-3.9,3.9-9.5,5.3-14.9,3.9l3.4-3.1
	c1.8-1.6,2.8-4,2.8-6.4c0-2.4-1-4.7-2.7-6.4c-1.7-1.6-3.8-2.4-6.2-2.3c-2.4,0.1-4.8,1.1-6.5,2.9l-3,3.2c-1.4-5.4,0-11,3.9-14.9
	c2.5-2.5,5.8-4,9.4-4.4c-1,2.1-1.9,4.9-1,7.6c0.2,0.6,0.7,1.1,1.3,1.3c0.6,0.2,1.3,0.1,1.8-0.3C63.3,26.2,71.9,19.7,85.4,21z
	 M15.5,77.1c-1.2,1.2-1.2,3.2,0,4.4c1.2,1.2,3.1,1.2,4.4,0.1l27.8-26.3H36.3L15.5,77.1z M40,51.1h11.9l3.5-3.3l-6.4-6.4L40,51.1z
	 M62.2,39.6c0-1.3-0.5-2.6-1.5-3.5c-0.8-0.8-2-1.2-3.2-1.2h-0.2c-1.4,0-2.7,0.6-3.6,1.6l-1.9,2l6.6,6.6l2.2-2.1
	C61.6,42.1,62.1,40.9,62.2,39.6z"/>
</svg>
