<?xml version="1.0" encoding="utf-8"?>
<!-- Generator: Adobe Illustrator 21.0.2, SVG Export Plug-In . SVG Version: 6.00 Build 0)  -->
<svg version="1.1" id="Layer_1" xmlns="http://www.w3.org/2000/svg" xmlns:xlink="http://www.w3.org/1999/xlink" x="0px" y="0px"
	 viewBox="0 0 100 100" style="enable-background:new 0 0 100 100;" xml:space="preserve">
<path d="M93,90H51.4L59,78.7c1.5-2.3,2.5-4.8,2.8-7.5c0.8-0.1,1.6-0.3,2.3-0.5c5.1-1.3,7.7-3.2,7.8-5.9c0.2-4.4-7-6.7-12.1-7.7
	c-0.1-4.4,1.5-8.7,4.5-12l7.5-8.2c0-0.1,0.1-0.1,0.1-0.2c7.9-2.7,14.8-6.1,14-9.8c-0.5-2.5-3.5-3.7-9.6-3.9L76.5,12
	c0-3.3-11.9-6-26.5-6s-26.5,2.7-26.5,6c0,0.2,0.1,0.5,0.2,0.7L26.8,25c0.6,2.2,0.8,4.5,0.6,6.8c-0.1,0-0.2,0-0.3,0.1
	c-12.4,4.4-13.5,7.4-13,9.5c0.5,2.7,4,3.9,11.2,3.9h0.4c0.5,4.7,2.5,9.2,5.8,12.8c-3.5,1.2-5.3,3-5.4,5.2c-0.2,5.2,9.7,7.7,17.9,8.5
	c1.3,2.1,2.3,4.4,2.9,6.8L49.5,90H7c-1.1,0-2,0.9-2,2c0,1.1,0.9,2,2,2h86c1.1,0,2-0.9,2-2C95,90.9,94.1,90,93,90z M68,64.7
	c-0.3,0.6-2.4,1.7-6.1,2.4c-0.1-1.4-0.5-2.9-1-4.2c-0.2-0.5-0.3-1-0.5-1.5C65.5,62.6,67.7,64.1,68,64.7z M76.3,27.1
	c3.2,0.1,4.7,0.5,5.4,0.7c-0.9,0.8-3,2-6.4,3.4C75.8,29.9,76.2,28.5,76.3,27.1z M26.5,36.7c-0.4,1.5-0.7,3-0.9,4.5
	c-3.7,0-6.2-0.3-7.3-0.7c0.7-0.7,2.8-2.2,8.3-4.2C26.5,36.4,26.5,36.6,26.5,36.7z M30,63.3c0.2-0.3,1.3-1.3,4.5-2.1l5.7,5.9
	C33.8,66,30.4,64.2,30,63.3z"/>
</svg>
