<?xml version="1.0" encoding="utf-8"?>
<!-- Generator: Adobe Illustrator 21.0.2, SVG Export Plug-In . SVG Version: 6.00 Build 0)  -->
<svg version="1.1" id="Layer_1" xmlns="http://www.w3.org/2000/svg" xmlns:xlink="http://www.w3.org/1999/xlink" x="0px" y="0px"
	 viewBox="0 0 100 100" style="enable-background:new 0 0 100 100;" xml:space="preserve">
<path d="M93,91H53.8l6.9-10.2c1.7-2.5,2.8-5.4,3.2-8.4c1.3-0.2,2.6-0.4,3.8-0.6c6.2-1.2,9.3-3.1,9.4-5.9c0.1-3.6-5-6.2-15.1-7.8
	c-0.1-3.9,1.3-7.7,4-10.7l7.5-8.2c0.7-0.8,1.4-1.7,1.9-2.5c0.5-0.2,1-0.4,1.5-0.5c8.1-3.1,11.3-5.7,10.7-8.6c-0.5-2.4-3.3-3.6-9-3.8
	L78.5,13c0,0,0,0,0,0c0,0,0-0.1,0-0.1c0-0.1,0-0.2,0-0.3C77.6,5.2,52.9,5,50,5c-2.9,0-28.5,0.2-28.5,8c0,0,0,0,0,0c0,0,0,0.1,0,0.1
	c0,0.4,0.1,0.8,0.2,1.1l3.1,12.2c0.6,2.3,0.7,4.6,0.5,6.9c-11.7,4.2-12.8,7.1-12.3,9.2c0.5,2.6,3.8,3.8,10.7,3.8
	c0.4,4.4,2.1,8.6,4.8,12.2c-4.9,1.2-7.3,3-7.4,5.4c-0.2,5.4,12,7.6,20.3,8.5c1.7,2.2,2.9,4.7,3.5,7.4L47.5,91H7c-1.1,0-2,0.9-2,2
	c0,1.1,0.9,2,2,2h86c1.1,0,2-0.9,2-2C95,91.9,94.1,91,93,91z M72.9,65.9c-0.8,0.8-3.9,1.9-8.9,2.5c-0.1-1.8-0.5-3.5-1.1-5.2
	c-0.1-0.3-0.2-0.6-0.3-0.8C69,63.6,72.1,65.1,72.9,65.9z M78.3,27.9c2.7,0.1,4.1,0.4,4.8,0.7c-0.8,0.7-2.6,1.8-5.5,3
	C78,30.3,78.2,29.1,78.3,27.9z M23.6,42.4c-3.1,0-5.3-0.3-6.3-0.7c0.7-0.7,2.6-1.9,7-3.7C24,39.5,23.7,40.9,23.6,42.4z M50,9
	c14.1,0,22.9,2.5,24.4,4c-1.5,1.5-10.3,4-24.4,4s-22.9-2.5-24.4-4C27.1,11.5,35.9,9,50,9z M28.7,25.5L26.8,18c7.7,2.8,21.1,3,23.2,3
	c2.2,0,17.2-0.1,24.5-3.5l0,8.3c0,0,0,0,0,0v0.5c0,2.5-0.7,5-1.8,7.1c-5.3,1.8-12.4,3.8-21.6,5.7c-9.9,2-17.7,2.9-23.4,3.1
	c0.1-1.3,0.4-2.7,0.8-4C29.7,34.1,29.8,29.7,28.7,25.5z M25.1,64.1c0.5-0.4,2.1-1.3,5.9-2c0.2,0,0.3-0.1,0.4-0.1l5.7,6
	C30.3,66.8,26.1,65.2,25.1,64.1z M43.4,68.7c-0.2-0.3-0.5-0.5-0.7-0.8l-9.6-10c-3.1-3.2-5-7.3-5.4-11.6c6.8-0.3,15.3-1.4,24.2-3.2
	c5.8-1.2,11.4-2.5,16.3-4l-5.2,5.7c-4.9,5.4-6.4,13-3.9,19.8c0.5,1.4,0.8,2.8,0.9,4.2c-3.2,0.2-6.9,0.3-11.1,0.2
	C46.9,68.9,45.1,68.8,43.4,68.7z M48.7,78.9c-0.5-2.1-1.3-4.2-2.3-6.1c1.1,0.1,1.9,0.1,2.3,0.1c1.4,0,2.9,0.1,4.3,0.1
	c2.3,0,4.6-0.1,6.7-0.2c-0.4,2-1.2,4-2.3,5.7l-6.5,9.5L48.7,78.9z"/>
</svg>
