<?xml version="1.0" encoding="utf-8"?>
<!-- Generator: Adobe Illustrator 23.0.1, SVG Export Plug-In . SVG Version: 6.00 Build 0)  -->
<svg version="1.1" id="Layer_1" xmlns="http://www.w3.org/2000/svg" xmlns:xlink="http://www.w3.org/1999/xlink" x="0px" y="0px"
	 viewBox="0 0 100 100" style="enable-background:new 0 0 100 100;" xml:space="preserve">
<style type="text/css">
	.st0{fill:#000000;}
</style>
<path class="st0" d="M41,65h18c1.1,0,2-0.9,2-2V46c0-6.1-4.9-11-11-11s-11,4.9-11,11v17C39,64.1,39.9,65,41,65z M43,46
	c0-3.9,3.1-7,7-7c3.9,0,7,3.1,7,7v15H43V46z M76.7,18c0.2-0.3,0.3-0.7,0.3-1V7c0-1.1-0.9-2-2-2H65c-1.1,0-2,0.9-2,2v8h-6V7
	c0-1.1-0.9-2-2-2H45c-1.1,0-2,0.9-2,2v8h-6V7c0-1.1-0.9-2-2-2H25c-1.1,0-2,0.9-2,2v10c0,0.4,0.1,0.7,0.3,1l5.7,9.5v44.9L23.3,82
	c-0.2,0.3-0.3,0.7-0.3,1v10c0,1.1,0.9,2,2,2h50c1.1,0,2-0.9,2-2V83c0-0.4-0.1-0.7-0.3-1L71,72.4V27.6L76.7,18z M67,71H33V29h34V71z
	 M32.1,75h35.7l3.6,6H28.5L32.1,75z M27,9h6v8c0,1.1,0.9,2,2,2h10c1.1,0,2-0.9,2-2V9h6v8c0,1.1,0.9,2,2,2h10c1.1,0,2-0.9,2-2V9h6
	v7.4L67.9,25H32.1L27,16.4V9z M27,91v-6h46v6H27z"/>
</svg>
