<?xml version="1.0" encoding="utf-8"?>
<!-- Generator: Adobe Illustrator 23.0.1, SVG Export Plug-In . SVG Version: 6.00 Build 0)  -->
<svg version="1.1" id="Layer_1" xmlns="http://www.w3.org/2000/svg" xmlns:xlink="http://www.w3.org/1999/xlink" x="0px" y="0px"
	 viewBox="0 0 100 100" style="enable-background:new 0 0 100 100;" xml:space="preserve">
<path d="M27.3,46H26V18h38.7c-4.1,3.3-6.7,8.3-6.7,13.9c-7.7,0-15.5,2.5-21.9,7.4L27.3,46z M10,32c0,7,5.2,12.9,12,13.9V18.1
	C15.2,19.1,10,25,10,32z M62,32.1c4.1,0.5,8.2,1.6,12,3.5V18.1C67.2,19.1,62,25,62,32.1L62,32.1z M38.5,42.5L33.9,46h48.2l-4.6-3.5
	C66,33.7,50,33.7,38.5,42.5z M26,82h12V50H26V82z M90,50v32H42V50H90z M68,58c0-1.1-0.9-2-2-2s-2,0.9-2,2v4c0,1.1,0.9,2,2,2
	s2-0.9,2-2V58z"/>
</svg>
