<?xml version="1.0" encoding="utf-8"?>
<!-- Generator: Adobe Illustrator 23.0.1, SVG Export Plug-In . SVG Version: 6.00 Build 0)  -->
<svg version="1.1" id="Layer_1" xmlns="http://www.w3.org/2000/svg" xmlns:xlink="http://www.w3.org/1999/xlink" x="0px" y="0px"
	 viewBox="0 0 100 100" style="enable-background:new 0 0 100 100;" xml:space="preserve">
<style type="text/css">
	.st0{fill:#000000;}
</style>
<path class="st0" d="M92,46h-3.3l-8.8-6.7c-0.6-0.5-1.3-0.9-1.9-1.3V16c0-1.1-0.9-2-2-2H24c-9.9,0-18,8.1-18,18
	c0,9.2,7,16.9,16,17.9V84c0,1.1,0.9,2,2,2h68c1.1,0,2-0.9,2-2V48C94,46.9,93.1,46,92,46z M22,45.9c-6.8-1-12-6.8-12-13.9
	c0-7,5.2-12.9,12-13.9V45.9z M77.5,42.5l4.6,3.5H33.9l4.6-3.5C50,33.7,66,33.7,77.5,42.5z M74,18.1v17.5c-3.8-1.9-7.9-3.1-12-3.5V32
	C62,25,67.2,19.1,74,18.1z M26,18h38.7c-4.1,3.3-6.7,8.3-6.7,13.9c-7.7,0-15.5,2.5-21.9,7.4L27.3,46H26V18z M38,82H26V50h12V82z
	 M90,82H42V50h48V82z M64,62v-4c0-1.1,0.9-2,2-2s2,0.9,2,2v4c0,1.1-0.9,2-2,2S64,63.1,64,62z"/>
</svg>
