<?xml version="1.0" encoding="utf-8"?>
<!-- Generator: Adobe Illustrator 21.0.2, SVG Export Plug-In . SVG Version: 6.00 Build 0)  -->
<svg version="1.1" id="Layer_1" xmlns="http://www.w3.org/2000/svg" xmlns:xlink="http://www.w3.org/1999/xlink" x="0px" y="0px"
	 viewBox="0 0 100 100" style="enable-background:new 0 0 100 100;" xml:space="preserve">
<g>
	<path d="M33.8,61.6c1,0,2-0.1,2.9-0.2h0.1L35,46.1c-0.1-0.7,0.2-1.4,0.8-1.8s1.3-0.5,2-0.2c4.9,2.1,9.1,5.6,12.1,10.1l0.1,0.2
		l0.1-0.2c3-4.5,7.2-8,12.1-10.1c0.7-0.3,1.4-0.2,2,0.2s0.9,1.1,0.8,1.8l-1.9,15.3c1,0.1,2,0.2,3.1,0.2c10.4,0,18.8-7.4,18.8-16.5
		c0-4-1.6-7.6-4.2-10.4c0.5-1.4,0.8-3,0.8-4.6c0-8.2-7.5-14.9-16.8-15c-2.6-5.3-8.6-9-15.6-9c-7.1,0-13.1,3.8-15.7,9.1
		c-8.5,0.9-15,7.2-15,14.9c0,1.6,0.3,3.1,0.8,4.6c-2.6,2.8-4.2,6.5-4.2,10.4C15,54.2,23.4,61.6,33.8,61.6z"/>
	<path d="M93,89.9H64.4c-4.7-8.1-6.6-17.6-5.5-26.9l1.6-13.5c-2.8,1.8-5.2,4.1-7.1,6.9L51.7,59c-0.4,0.6-1,0.9-1.7,0.9
		s-1.3-0.3-1.7-0.9l-1.8-2.7c-1.9-2.8-4.3-5.2-7.1-6.9l1.6,13.5c1.1,9.4-0.8,18.8-5.5,26.9H7c-1.1,0-2,0.9-2,2c0,1.1,0.9,2,2,2h86
		c1.1,0,2-0.9,2-2C95,90.8,94.1,89.9,93,89.9z"/>
</g>
</svg>
