<?xml version="1.0" encoding="utf-8"?>
<!-- Generator: Adobe Illustrator 21.0.2, SVG Export Plug-In . SVG Version: 6.00 Build 0)  -->
<svg version="1.1" id="Layer_1" xmlns="http://www.w3.org/2000/svg" xmlns:xlink="http://www.w3.org/1999/xlink" x="0px" y="0px"
	 viewBox="0 0 100 100" style="enable-background:new 0 0 100 100;" xml:space="preserve">
<path d="M93,90.9H69.1c-5.1-7.8-7.3-17.2-6.2-26.5v0c1.1,0.2,2.2,0.2,3.3,0.2c11.5,0,20.8-8.3,20.8-18.5c0-3.9-1.4-7.7-4-10.9
	c0.4-1.3,0.6-2.7,0.6-4.1c0-8.9-7.8-16.2-17.6-16.9c-3.3-5.5-9.8-9.1-16.9-9.1c-7.2,0-13.8,3.6-17,9.3c-9,1.4-15.7,8.5-15.7,16.7
	c0,1.4,0.2,2.8,0.6,4.1c-2.6,3.2-4,7-4,10.9c0,10.2,9.3,18.5,20.8,18.5c1,0,2-0.1,3.1-0.2l0.2,0v0c0.2,1.6,0.3,3.2,0.3,4.8
	c0,7.7-2.2,15.2-6.5,21.7H7c-1.1,0-2,0.9-2,2c0,1.1,0.9,2,2,2h86c1.1,0,2-0.9,2-2C95,91.8,94.1,90.9,93,90.9z M35.8,45.3
	c-0.6,0.4-0.9,1.1-0.8,1.8l1.6,13.3c-0.1,0-0.1,0-0.2,0c-1,0.1-1.9,0.2-2.7,0.2c-9.2,0-16.8-6.5-16.8-14.5c0-3.3,1.3-6.5,3.7-9.1
	c0.5-0.5,0.7-1.4,0.4-2c-0.5-1.3-0.7-2.6-0.7-3.9c0-6.6,5.7-12.1,13.2-12.9c0.7-0.1,1.3-0.5,1.6-1.1c2.4-4.8,7.8-8,13.9-8
	c6,0,11.5,3.1,13.8,7.9c0.3,0.7,1,1.1,1.8,1.1c8.2,0.1,14.8,5.9,14.8,13c0,1.3-0.2,2.6-0.7,3.9c-0.3,0.7-0.1,1.5,0.4,2
	c2.4,2.6,3.7,5.7,3.7,9.1c0,8-7.5,14.5-16.8,14.5c-0.9,0-1.9-0.1-2.8-0.2L65,47.1c0.1-0.7-0.2-1.4-0.8-1.8s-1.3-0.5-2-0.2
	c-4.9,2.1-9.1,5.6-12.1,10.1L50,55.3l-0.1-0.2c-3-4.5-7.2-8-12.1-10.1C37.1,44.8,36.4,44.8,35.8,45.3z M35.6,90.9
	c4.7-8.1,6.6-17.6,5.5-26.9l-1.6-13.5c2.8,1.8,5.2,4.1,7.1,6.9l1.8,2.7c0.4,0.6,1,0.9,1.7,0.9s1.3-0.3,1.7-0.9l1.8-2.7
	c1.9-2.8,4.3-5.2,7.1-6.9l-1.6,13.5c-1.1,9.4,0.8,18.8,5.5,26.9H35.6z"/>
</svg>
