<?xml version="1.0" encoding="utf-8"?>
<!-- Generator: Adobe Illustrator 21.0.2, SVG Export Plug-In . SVG Version: 6.00 Build 0)  -->
<svg version="1.1" id="Layer_1" xmlns="http://www.w3.org/2000/svg" xmlns:xlink="http://www.w3.org/1999/xlink" x="0px" y="0px"
	 viewBox="0 0 100 100" style="enable-background:new 0 0 100 100;" xml:space="preserve">
<g>
	<path d="M90.9,42.8c-1.3-4.1-3.3-8-5.7-11.5c-1.6,1.1-3.4,1.6-5.2,1.6c-2.3,0-4.7-0.9-6.5-2.7c-3-3-3.5-7.6-1.4-11.2
		c-5.9-3.5-12.8-5.7-20.1-6V7c0-1.1-0.9-2-2-2s-2,0.9-2,2v6c-22.8,1-41,19.9-41,43l0.5,0.2c8.8,3.1,18.3,3.2,27.2,0.3L36,56
		c3.6,1.3,7.3,2,11,2.3V87c0,2.2-1.8,4-4,4s-4-1.8-4-4v-2c0-1.1-0.9-2-2-2s-2,0.9-2,2v2c0,4.4,3.6,8,8,8s8-3.6,8-8V58.4
		c4.4-0.1,8.8-0.9,13-2.4l1.4,0.5c8.8,2.9,18.4,2.8,27.2-0.3L93,56C93,51.4,92.3,47,90.9,42.8z"/>
	<path d="M76.3,27.4c2,2,5.3,2,7.3,0c1.8-1.8,2-4.5,0.6-6.6L80,14.6l-4.3,6.2C74.3,22.9,74.6,25.7,76.3,27.4L76.3,27.4z"/>
</g>
</svg>
