<?xml version="1.0" encoding="utf-8"?>
<!-- Generator: Adobe Illustrator 21.0.2, SVG Export Plug-In . SVG Version: 6.00 Build 0)  -->
<svg version="1.1" id="Layer_1" xmlns="http://www.w3.org/2000/svg" xmlns:xlink="http://www.w3.org/1999/xlink" x="0px" y="0px"
	 viewBox="0 0 100 100" style="enable-background:new 0 0 100 100;" xml:space="preserve">
<path d="M86.7,30c2.9-3.1,3.3-7.9,0.9-11.5l-5.9-8.6C81.3,9.4,80.7,9,80,9s-1.3,0.3-1.7,0.9l-5.2,7.5C66.9,13.7,59.7,11.4,52,11V7
	c0-1.1-0.9-2-2-2s-2,0.9-2,2v4c-23.9,1-43,20.8-43,45c0,0.8,0.5,1.6,1.3,1.9L6.8,58c9.1,3.3,19.2,3.4,28.5,0.3l0.7-0.2
	c3.6,1.2,7.3,1.9,11,2.2V87c0,2.2-1.8,4-4,4s-4-1.8-4-4v-2c0-1.1-0.9-2-2-2s-2,0.9-2,2v2c0,4.4,3.6,8,8,8s8-3.6,8-8V60.4
	c4.4-0.1,8.8-0.9,13-2.3l0.7,0.2c4.5,1.5,9.1,2.2,13.8,2.2c5,0,9.9-0.8,14.7-2.5l0.5-0.2c0.8-0.3,1.3-1,1.3-1.9
	C95,46.3,91.9,37.4,86.7,30z M75.7,20.8l4.3-6.2l4.3,6.2c1.4,2.1,1.2,4.8-0.6,6.6c-2,2-5.3,2-7.3,0v0C74.6,25.7,74.3,22.9,75.7,20.8
	z M33.8,54.6c-8,2.6-16.8,2.6-24.8,0c0.7-20.4,16.3-37,36.3-39.3C36,26.2,31.8,40.4,33.8,54.6z M62.2,54.5c-7.9,2.6-16.5,2.6-24.4,0
	c-2-13.6,2.1-27.2,11.3-37.5l0.9-1l0.9,1C60.1,27.3,64.2,40.9,62.2,54.5z M66.2,54.6c2-14.2-2.2-28.4-11.5-39.4
	c6,0.7,11.6,2.7,16.6,5.7c-1,3.2-0.2,6.8,2.2,9.3c0.9,0.9,1.9,1.6,3,2c1.1,0.5,2.3,0.7,3.5,0.7c1.2,0,2.3-0.2,3.4-0.7
	c4.5,6.3,7.3,14,7.6,22.3C83,57.2,74.2,57.2,66.2,54.6z"/>
</svg>
