<?xml version="1.0" encoding="utf-8"?>
<!-- Generator: Adobe Illustrator 23.0.1, SVG Export Plug-In . SVG Version: 6.00 Build 0)  -->
<svg version="1.1" id="Layer_1" xmlns="http://www.w3.org/2000/svg" xmlns:xlink="http://www.w3.org/1999/xlink" x="0px" y="0px"
	 viewBox="0 0 100 100" style="enable-background:new 0 0 100 100;" xml:space="preserve">
<style type="text/css">
	.st0{fill:#000000;}
</style>
<path class="st0" d="M88.5,40.3c-0.8-2-2.4-3.5-4.3-4.3l-13.7-5.6L82.6,8c0.4-0.8,0.3-1.8-0.4-2.4c-0.7-0.6-1.7-0.7-2.5-0.2L53,23.2
	l-0.1-0.1V17c0-6.6-5.4-12-12-12c-1.1,0-2,0.9-2,2v14.1c-15.6,1-28,14.1-28,29.9v42c0,1.1,0.9,2,2,2h58c1.1,0,2-0.9,2-2
	c0-11.5-8.8-20.9-20-21.9V57.7c1.6-0.9,3.1-2.1,4.3-3.6l11.3,4.6c3.5,1.4,7.3,1.4,10.7,0c3.5-1.4,6.1-4.1,7.6-7.6l1.9-4.6
	C89.4,44.4,89.4,42.3,88.5,40.3z M75.2,13.1l-8.5,15.7L57.4,25L75.2,13.1z M84.9,44.9L83,49.5c-1,2.5-2.9,4.4-5.4,5.4
	c-2.5,1-5.2,1-7.7,0l-12.7-5.2c-0.9-0.4-1.9,0-2.5,0.8c-2,3.2-5.6,5.1-9.3,4.9c-5.3-0.2-9.7-4.5-10.1-9.8
	c-0.4-5.7,3.7-10.6,9.4-11.2c1.1-0.1,1.9-1.1,1.8-2.2c-0.1-1.1-1.1-1.9-2.2-1.8c-7.8,0.8-13.5,7.6-12.9,15.4
	c0.5,7.3,6.6,13.2,13.9,13.5c1.2,0,2.4-0.1,3.6-0.3V73c0,1.1,0.9,2,2,2c9.2,0,16.9,7,17.9,16H14.8V51c0-14.3,11.7-26,26-26
	c1.1,0,2-0.9,2-2V9.3c3.4,0.9,6,4,6,7.7v7.4c0,0.8,0.5,1.5,1.2,1.9l32.6,13.4c1,0.4,1.8,1.2,2.2,2.2C85.3,42.8,85.3,43.9,84.9,44.9z
	"/>
</svg>
