<?xml version="1.0" encoding="utf-8"?>
<!-- Generator: Adobe Illustrator 21.0.2, SVG Export Plug-In . SVG Version: 6.00 Build 0)  -->
<svg version="1.1" id="Layer_1" xmlns="http://www.w3.org/2000/svg" xmlns:xlink="http://www.w3.org/1999/xlink" x="0px" y="0px"
	 viewBox="0 0 100 100" style="enable-background:new 0 0 100 100;" xml:space="preserve">
<g>
	<path d="M92,35.5h-8v-8h4c1.1,0,2-0.9,2-2c0-1.1-0.9-2-2-2H76c-1.1,0-2,0.9-2,2c0,1.1,0.9,2,2,2h4v8h-8c-1.1,0-2,0.9-2,2
		c0,1.1,0.9,2,2,2h3.1l0,5l6,0c1.1,0,2,0.9,2,2c0,1.1-0.9,2-2,2h0l-6,0l0,4h0l6,0c1.1,0,2,0.9,2,2c0,1.1-0.9,2-2,2h0l-6,0
		c0,0,0,0,0,0l0,6c0,3.2,2.2,5.9,5.1,6.8c0,0.1,0,0.2,0,0.2l0,12c0,1.1,0.9,2,2,2c0,0,0,0,0,0c1.1,0,2-0.9,2-2l0-12
		c0-0.1,0-0.2,0-0.3c2.9-0.9,4.9-3.5,4.9-6.7l0.1-23H92c1.1,0,2-0.9,2-2C94,36.4,93.1,35.5,92,35.5z"/>
	<path d="M14,43.2v-6.7c0-3.3,2.7-6,6-6c3.9,0,7-3.1,7-7v-1c0-1.1,0.9-2,2-2s2,0.9,2,2v1c0,3.9,3.1,7,7,7h12c3.3,0,6,2.7,6,6v6.7
		c0,2.4-0.4,4.7-1.1,6.8l7.1-2.9v-5.6c0-14.9-12.1-27-27-27S8,26.6,8,41.5v5.6l7.1,2.9C14.4,47.9,14,45.6,14,43.2z"/>
	<path d="M52,43.2v-6.7c0-1.1-0.9-2-2-2H38c-3.7,0-7-1.9-9-4.7c-2,2.8-5.3,4.7-9,4.7c-1.1,0-2,0.9-2,2v6.7c0,6.9,4.1,12.9,10,15.6
		v4.7c0,0-2.1,0-4,0c0,3.5,2,6.7,5.2,8.1l5.8,2.7l5.8-2.7C44,70.2,46,67,46,63.5h-4v-4.7C47.9,56.1,52,50.2,52,43.2z M35,54.5
		c-4.4,0-8-3.1-8-7c0-1.1,0.9-2,2-2s2,0.9,2,2c0,1.6,1.8,3,4,3s4-1.4,4-3c0-1.1,0.9-2,2-2s2,0.9,2,2C43,51.4,39.4,54.5,35,54.5z"/>
	<path d="M51.8,63.5H50c0,5-3,9.6-7.5,11.8l-6.6,3.1c-0.3,0.1-0.6,0.2-0.8,0.2s-0.6-0.1-0.8-0.2l-6.6-3.1C23,73.1,20,68.5,20,63.5
		c-0.5,0-1.8,0-1.8,0c-6.7,0-12.2,5.4-12.2,12v6c0,2.2,1.8,4,4.1,4h49.9c2.2,0,4.1-1.8,4.1-4v-6C64,68.9,58.5,63.5,51.8,63.5z"/>
</g>
</svg>
