<?xml version="1.0" encoding="utf-8"?>
<!-- Generator: Adobe Illustrator 21.0.2, SVG Export Plug-In . SVG Version: 6.00 Build 0)  -->
<svg version="1.1" id="Layer_1" xmlns="http://www.w3.org/2000/svg" xmlns:xlink="http://www.w3.org/1999/xlink" x="0px" y="0px"
	 viewBox="0 0 100 100" style="enable-background:new 0 0 100 100;" xml:space="preserve">
<g>
	<path d="M80.5,5h-50c-3.3,0-6,2.7-6,6v4h-5c-3.3,0-6,2.7-6,6v68c0,3.3,2.7,6,6,6h50c3.3,0,6-2.7,6-6v-4h5c3.3,0,6-2.7,6-6V11
		C86.5,7.7,83.8,5,80.5,5z M71.5,89c0,1.1-0.9,2-2,2h-50c-1.1,0-2-0.9-2-2V21c0-1.1,0.9-2,2-2h5v60c0,3.3,2.7,6,6,6h41V89z M82.5,79
		c0,1.1-0.9,2-2,2h-50c-1.1,0-2-0.9-2-2v-6h54V79z M82.5,69h-54V11c0-1.1,0.9-2,2-2h50c1.1,0,2,0.9,2,2V69z"/>
	<path d="M62.7,36.6c2.9-2.2,4.8-5.7,4.8-9.6c0-6.6-5.4-12-12-12s-12,5.4-12,12c0,3.9,1.9,7.4,4.8,9.6c-5.8,2.7-9.8,8.6-9.8,15.4v9
		c0,1.1,0.9,2,2,2h30c1.1,0,2-0.9,2-2v-9C72.5,45.2,68.5,39.3,62.7,36.6z M47.5,27c0-4.4,3.6-8,8-8s8,3.6,8,8c0,4.4-3.6,8-8,8
		S47.5,31.4,47.5,27z M68.5,59h-26v-7c0-7.2,5.8-13,13-13s13,5.8,13,13V59z"/>
</g>
</svg>
