<?xml version="1.0" encoding="utf-8"?>
<!-- Generator: Adobe Illustrator 21.0.2, SVG Export Plug-In . SVG Version: 6.00 Build 0)  -->
<svg version="1.1" id="Layer_1" xmlns="http://www.w3.org/2000/svg" xmlns:xlink="http://www.w3.org/1999/xlink" x="0px" y="0px"
	 viewBox="0 0 100 100" style="enable-background:new 0 0 100 100;" xml:space="preserve">
<path d="M94.6,84.9c-0.7-0.9-1.9-1.1-2.8-0.4l-3.2,2.4l-5.9-8l6.5-4.7c0.9-0.7,1.1-1.9,0.4-2.8c-0.6-0.9-1.9-1.1-2.8-0.4l-0.8,0.6
	l-7.2-9.8c2.7-5.3,4.3-11.3,4.3-17.7c0-21.5-17.5-39-39-39S5,22.3,5,43.8s17.5,39,39,39c8.4,0,16.3-2.7,22.7-7.3l4.8,6.5l-0.8,0.6
	c-0.9,0.7-1.1,1.9-0.4,2.8c0.4,0.5,1,0.8,1.6,0.8c0.4,0,0.8-0.1,1.2-0.4l2.4-1.8l4-3l5.9,8l-3.2,2.4c-0.9,0.7-1.1,1.9-0.4,2.8
	c0.4,0.5,1,0.8,1.6,0.8c0.4,0,0.8-0.1,1.2-0.4l9.7-7.1C95.1,87,95.3,85.8,94.6,84.9z M78.8,40.1L59.6,32c-0.4-0.2-0.9-0.2-1.4-0.1
	l-11.4,3.7l-5.4-5.3l1.5-4.6l7.6-2c0.6-0.2,1.1-0.6,1.3-1.1c0.2-0.6,0.2-1.2-0.1-1.7l-2.1-4l5.4-6.3C67.7,14.8,77.3,26.2,78.8,40.1z
	 M14.9,63.3C11.2,57.7,9,51,9,43.8c0-9.2,3.5-17.5,9.3-23.7l3.2,4.4l0,6.2l-4.8,1.7c-1,0.3-1.5,1.4-1.3,2.4l2.3,9.3
	c0.2,0.8,0.9,1.4,1.7,1.5l14.7,2.1l-2.7,7L14.9,63.3z M43.4,60.1l-1.5,18.7c-9.8-0.6-18.5-5.2-24.5-12.2l16.5-8.7
	c0.4-0.2,0.8-0.6,0.9-1l3.9-10.1c0.2-0.6,0.2-1.2-0.1-1.7c-0.3-0.5-0.8-0.9-1.4-1l-15.8-2.2l-1.5-6.2l4.4-1.5c0.8-0.3,1.3-1,1.3-1.9
	l0-8.3c0-0.4-0.1-0.8-0.4-1.2l-3.9-5.3C27.3,12,35.3,8.8,44,8.8c2.3,0,4.5,0.2,6.6,0.6l-5,5.9c-0.5,0.6-0.6,1.5-0.2,2.2l1.6,2.9
	l-6.2,1.6c-0.7,0.2-1.2,0.7-1.4,1.3l-2.2,6.8c-0.2,0.7,0,1.5,0.5,2l7.1,7.1c0.7,0.7,1.6,0.8,2.4,0.3L58.7,36L79,44.5
	c-0.1,4.8-1.1,9.3-2.9,13.4l-6.1-8.3c-2.5-3.5-7.1-4.6-10.8-2.9l-2.5-3.4c-0.7-0.9-1.9-1.1-2.8-0.4c-0.9,0.7-1.1,1.9-0.4,2.8
	l2.5,3.4c-1.4,1.7-2.2,3.8-2.2,5.9l-9.1,3.4C43.9,58.7,43.4,59.3,43.4,60.1z M45.9,78.8l1.3-17.1l7.4-2.8c0.2,0.5,0.5,0.9,0.8,1.4
	l8.8,12C59,76.1,52.7,78.4,45.9,78.8z M74.7,79.7l-16-21.8c-1.6-2.2-1.2-5.4,1.1-7c0.9-0.7,1.9-1,3-1c1.5,0,3.1,0.7,4,2l4.3,5.8
	l-3.6,2.6c-0.9,0.7-1.1,1.9-0.4,2.8c0.4,0.5,1,0.8,1.6,0.8c0.4,0,0.8-0.1,1.2-0.4l3.6-2.6l2.4,3.2l-3.6,2.6
	c-0.9,0.7-1.1,1.9-0.4,2.8c0.4,0.5,1,0.8,1.6,0.8c0.4,0,0.8-0.1,1.2-0.4l3.6-2.6l4.6,6.3L74.7,79.7z"/>
</svg>
