<?xml version="1.0" encoding="utf-8"?>
<!-- Generator: Adobe Illustrator 21.0.2, SVG Export Plug-In . SVG Version: 6.00 Build 0)  -->
<svg version="1.1" id="Layer_1" xmlns="http://www.w3.org/2000/svg" xmlns:xlink="http://www.w3.org/1999/xlink" x="0px" y="0px"
	 viewBox="0 0 100 100" style="enable-background:new 0 0 100 100;" xml:space="preserve">
<path d="M86,38c-1,0-1.9,0.2-2.7,0.5c0,0,0,0-0.1-0.1L60.4,20.6c0.4-1.1,0.6-2.3,0.6-3.6c0-6.1-4.9-11-11-11s-11,4.9-11,11
	c0,2.9,1.1,5.5,2.9,7.5L18.4,56.8c-0.1,0.1-0.1,0.2-0.1,0.2C17.8,57,17.4,57,17,57c-6.1,0-11,4.9-11,11c0,6.1,4.9,11,11,11
	c4.3,0,8-2.4,9.8-6l29.3,5.8c0,0.4-0.1,0.8-0.1,1.2c0,7.7,6.3,14,14,14s14-6.3,14-14c0-4.8-2.4-8.9-6-11.5L86.7,54c0,0,0,0,0-0.1
	c4.1-0.4,7.2-3.8,7.2-8C94,41.6,90.4,38,86,38z M58.4,24.1l21.5,16.8C78.7,42.3,78,44,78,46c0,0.4,0,0.8,0.1,1.2l-14.4,4.4L55,26.8
	C56.3,26.1,57.5,25.2,58.4,24.1z M26.8,63c-1-2-2.6-3.6-4.5-4.7l22.9-31.5c1.5,0.7,3.1,1.2,4.9,1.2c0.4,0,0.8,0,1.2-0.1l8.7,24.8
	L26.8,63z M57,75l-29-5.8c0-0.4,0.1-0.8,0.1-1.1c0-0.4,0-0.8-0.1-1.2l33.3-10.2L64.9,67C61.2,68.4,58.4,71.3,57,75z M74.4,66.7
	C73,66.3,71.5,66,70,66c-0.4,0-0.8,0-1.2,0.1L65,55.4l14.5-4.5c0,0,0,0,0.1,0c0.8,1,1.7,1.8,2.9,2.3L74.4,66.7z"/>
</svg>
