<?xml version="1.0" encoding="utf-8"?>
<!-- Generator: Adobe Illustrator 21.0.2, SVG Export Plug-In . SVG Version: 6.00 Build 0)  -->
<svg version="1.1" id="Layer_1" xmlns="http://www.w3.org/2000/svg" xmlns:xlink="http://www.w3.org/1999/xlink" x="0px" y="0px"
	 viewBox="0 0 100 100" style="enable-background:new 0 0 100 100;" xml:space="preserve">
<g>
	<path d="M28.8,30c5.3,0,10.3-2.3,13.7-6.3c0.5-0.5,1.1-0.8,1.8-0.7c0.7,0.1,1.3,0.5,1.5,1.2l0.2,0.6c1.1,2.5,3.3,4.3,5.9,5v-5.5
		c0-1.6-0.7-3.2-2-4.2c-1.3-1-2.9-1.4-4.5-1.1c-0.4,0.1-0.8,0.1-1.1-0.1l-1.2-0.5c-8.7-3.2-18.2-3.2-26.9-0.1L17.5,30H28.8z"/>
	<path d="M92,34h-8v-8h4c1.1,0,2-0.9,2-2c0-1.1-0.9-2-2-2H76c-1.1,0-2,0.9-2,2c0,1.1,0.9,2,2,2h4v8h-8c-1.1,0-2,0.9-2,2
		c0,1.1,0.9,2,2,2h3.1l0,5l6,0c1.1,0,2,0.9,2,2c0,1.1-0.9,2-2,2h0l-6,0l0,4h0l6,0c1.1,0,2,0.9,2,2c0,1.1-0.9,2-2,2h0l-6,0h0l0,6
		c0,3.2,2.2,5.9,5.1,6.8c0,0.1,0,0.2,0,0.2l0,12c0,1.1,0.9,2,2,2c0,0,0,0,0,0c1.1,0,2-0.9,2-2l0-12c0-0.1,0-0.2,0-0.3
		c2.9-0.9,4.9-3.5,4.9-6.6L89.1,38H92c1.1,0,2-0.9,2-2C94,34.9,93.1,34,92,34z"/>
	<path d="M52,42.7v-8.9c-3.5-0.6-6.6-2.5-8.5-5.5c-4,3.6-9.2,5.6-14.7,5.6H18v8.7c0,6.9,4.1,12.9,10,15.6V62c0,0-1.2,0-1.6,0H24
		c0,6.1,4.9,11,11,11c3,0,5.8-1.2,7.8-3.2c2-2,3.2-4.7,3.2-7.8h-4v-3.7C47.9,55.6,52,49.7,52,42.7z M35,54c-4.4,0-8-3.1-8-7
		c0-1.1,0.9-2,2-2s2,0.9,2,2c0,1.6,1.8,3,4,3s4-1.4,4-3c0-1.1,0.9-2,2-2s2,0.9,2,2C43,50.9,39.4,54,35,54z"/>
	<path d="M51.8,62H50c0,8.3-6.7,15-15,15c-4.1,0-7.9-1.7-10.6-4.4C21.7,69.9,20,66.1,20,62h-1.1c-0.4,0-0.7,0-0.7,0
		C11.5,62,6,67.4,6,74v6c0,2.2,1.8,4,4.1,4h49.9c2.2,0,4.1-1.8,4.1-4v-6C64,67.4,58.5,62,51.8,62z"/>
</g>
</svg>
