<?xml version="1.0" encoding="utf-8"?>
<!-- Generator: Adobe Illustrator 21.0.2, SVG Export Plug-In . SVG Version: 6.00 Build 0)  -->
<svg version="1.1" id="Layer_1" xmlns="http://www.w3.org/2000/svg" xmlns:xlink="http://www.w3.org/1999/xlink" x="0px" y="0px"
	 viewBox="0 0 100 100" style="enable-background:new 0 0 100 100;" xml:space="preserve">
<g>
	<path d="M93,33h-8v-8h4c1.1,0,2-0.9,2-2c0-1.1-0.9-2-2-2H77c-1.1,0-2,0.9-2,2c0,1.1,0.9,2,2,2h4v8h-1.4l-3.5,0h0
		c-0.1,0-0.1,0-0.2,0H73c-1.1,0-2,0.9-2,2c0,1.1,0.9,2,2,2h1.1l0,6.8c0,0.1,0,0.1,0,0.2s0,0.1,0,0.2L73.9,60c0,2.4,0.9,4.7,2.6,6.4
		c1.2,1.3,2.8,2.1,4.5,2.5L81,79c0,1.1,0.9,2,2,2c0,0,0,0,0,0c1.1,0,2-0.9,2-2l0-10.2c1.6-0.4,3.1-1.2,4.2-2.3
		c1.7-1.7,2.7-4,2.7-6.3L92.1,37H93c1.1,0,2-0.9,2-2C95,33.9,94.1,33,93,33z M87.9,60c0,2.7-2.2,4.9-4.9,5c0,0,0,0,0,0c0,0,0,0,0,0
		c0,0-0.1,0-0.1,0c-2.8,0-5-2.3-5-5l0-6l4,0h0c1.1,0,2-0.9,2-2c0-1.1-0.9-2-2-2l-4,0l0-4l4,0h0c1.1,0,2-0.9,2-2c0-1.1-0.9-2-2-2
		l-4,0l0-5h1.5l8.5,0L87.9,60z"/>
	<path d="M52.8,63H45v-2.2c7.1-3.4,12-10.7,12-19.1V23.2c0-2.9-1.3-5.5-3.5-7.3c-2.1-1.7-4.7-2.4-7.3-2l-0.7-0.3
		c-10.1-3.7-21.2-3.6-31.2,0.5c-0.8,0.3-1.3,1.2-1.2,2.1l2,17.9v7.6c0,8.4,4.9,15.7,12,19.1V63h-7.8C11.4,63,5,69.3,5,77v6
		c0,3.3,2.7,6,6.1,6h49.9c3.4,0,6.1-2.7,6.1-6v-6C67,69.3,60.6,63,52.8,63z M17.2,17.3c8.7-3.1,18.2-3.1,26.9,0.1l1.2,0.5
		c0.4,0.1,0.8,0.2,1.1,0.1c1.6-0.4,3.3,0,4.5,1.1c1.3,1,2,2.6,2,4.2v5.5c-2.6-0.6-4.8-2.4-5.9-5l-0.2-0.6c-0.3-0.6-0.9-1.1-1.5-1.2
		c-0.7-0.1-1.4,0.2-1.8,0.7c-3.4,4-8.4,6.3-13.7,6.3H18.5L17.2,17.3z M19,41.7V33h10.8c5.5,0,10.7-2,14.7-5.6c2,2.9,5,4.9,8.5,5.5
		v8.9c0,9.4-7.6,17.1-17,17.1S19,51.2,19,41.7z M29,67c1.1,0,2-0.9,2-2v-2.8c1.6,0.4,3.3,0.6,5,0.6s3.4-0.2,5-0.6V65
		c0,1.1,0.9,2,2,2h3.8c-1,5.1-5.4,9-10.8,9s-9.9-3.9-10.8-9H29z M63,83c0,1.1-0.9,2-2.1,2H11.1C9.9,85,9,84.1,9,83v-6
		c0-5.5,4.6-10,10.2-10h1.9c1,7.3,7.3,13,14.8,13s13.9-5.7,14.8-13h1.9C58.4,67,63,71.5,63,77V83z"/>
	<path d="M44,46c0-1.1-0.9-2-2-2s-2,0.9-2,2c0,1.6-1.8,3-4,3s-4-1.4-4-3c0-1.1-0.9-2-2-2s-2,0.9-2,2c0,3.9,3.6,7,8,7S44,49.9,44,46z
		"/>
</g>
</svg>
