<?xml version="1.0" encoding="utf-8"?>
<!-- Generator: Adobe Illustrator 21.0.2, SVG Export Plug-In . SVG Version: 6.00 Build 0)  -->
<svg version="1.1" id="Layer_1" xmlns="http://www.w3.org/2000/svg" xmlns:xlink="http://www.w3.org/1999/xlink" x="0px" y="0px"
	 viewBox="0 0 100 100" style="enable-background:new 0 0 100 100;" xml:space="preserve">
<g>
	<path d="M24.5,79V19h-5c-1.1,0-2,0.9-2,2v68c0,1.1,0.9,2,2,2h50c1.1,0,2-0.9,2-2v-4h-41C27.2,85,24.5,82.3,24.5,79z"/>
	<path d="M28.5,79c0,1.1,0.9,2,2,2h50c1.1,0,2-0.9,2-2v-6h-54V79z"/>
	<path d="M80.5,9h-50c-1.1,0-2,0.9-2,2v58h54V11C82.5,9.9,81.6,9,80.5,9z M72.5,61c0,1.1-0.9,2-2,2h-30c-1.1,0-2-0.9-2-2v-9
		c0-6.8,4-12.7,9.8-15.4c-2.9-2.2-4.8-5.7-4.8-9.6c0-6.6,5.4-12,12-12s12,5.4,12,12c0,3.9-1.9,7.4-4.8,9.6c5.8,2.7,9.8,8.6,9.8,15.4
		V61z"/>
	<path d="M55.5,35c4.4,0,8-3.6,8-8c0-4.4-3.6-8-8-8s-8,3.6-8,8C47.5,31.4,51.1,35,55.5,35z"/>
	<path d="M55.5,39c-7.2,0-13,5.8-13,13v7h26v-7C68.5,44.8,62.7,39,55.5,39z"/>
</g>
</svg>
