<?xml version="1.0" encoding="utf-8"?>
<!-- Generator: Adobe Illustrator 21.0.2, SVG Export Plug-In . SVG Version: 6.00 Build 0)  -->
<svg version="1.1" id="Layer_1" xmlns="http://www.w3.org/2000/svg" xmlns:xlink="http://www.w3.org/1999/xlink" x="0px" y="0px"
	 viewBox="0 0 100 100" style="enable-background:new 0 0 100 100;" xml:space="preserve">
<path d="M86,37c-1.3,0-2.5,0.3-3.6,0.8L61.2,21.2c0.5-1.3,0.8-2.7,0.8-4.2c0-6.6-5.4-12-12-12s-12,5.4-12,12c0,3.2,1.3,6.1,3.3,8.3
	L18.9,56.2C18.3,56.1,17.6,56,17,56c-6.6,0-12,5.4-12,12s5.4,12,12,12c4.8,0,8.9-2.8,10.8-6.8l27.3,5.4c0,0.5-0.1,0.9-0.1,1.4
	c0,8.3,6.7,15,15,15s15-6.7,15-15c0-5.1-2.6-9.6-6.5-12.3L86.1,55c4.9-0.1,8.9-4.1,8.9-9C95,41,91,37,86,37z M59.2,24.7l19.9,15.6
	C77.8,41.8,77,43.8,77,46c0,0.5,0,1,0.1,1.5l-13.4,4.1l-8.4-23.9C56.8,27,58.2,26,59.2,24.7z M50,9c4.4,0,8,3.6,8,8c0,4.4-3.6,8-8,8
	s-8-3.6-8-8C42,12.6,45.6,9,50,9z M17,76c-4.4,0-8-3.6-8-8c0-4.4,3.6-8,8-8s8,3.6,8,8C25,72.4,21.4,76,17,76z M27.7,62.7
	c-1.1-2.2-2.8-4-4.9-5.2l21.7-29.8C46.2,28.5,48,29,50,29c0.5,0,1,0,1.5-0.1l8.4,23.9L27.7,62.7z M28.9,69.3c0-0.4,0.1-0.9,0.1-1.3
	c0-0.5,0-1-0.1-1.5l32.3-10l3.3,9.5c-4,1.5-7.1,4.7-8.6,8.7L28.9,69.3z M81,80c0,6.1-4.9,11-11,11s-11-4.9-11-11s4.9-11,11-11
	S81,73.9,81,80z M75,65.9c-1.5-0.5-3.2-0.9-5-0.9c-0.5,0-1,0-1.5,0.1L65,55.4l13.6-4.2c0.9,1.2,2,2.2,3.4,2.9L75,65.9z M86,51
	c-2.8,0-5-2.2-5-5s2.2-5,5-5s5,2.2,5,5S88.8,51,86,51z"/>
</svg>
