<?xml version="1.0" encoding="utf-8"?>
<!-- Generator: Adobe Illustrator 21.0.2, SVG Export Plug-In . SVG Version: 6.00 Build 0)  -->
<svg version="1.1" id="Layer_1" xmlns="http://www.w3.org/2000/svg" xmlns:xlink="http://www.w3.org/1999/xlink" x="0px" y="0px"
	 viewBox="0 0 100 100" style="enable-background:new 0 0 100 100;" xml:space="preserve">
<g>
	<path d="M53.9,58.4c-0.1-0.2-0.2-0.3-0.3-0.5l-7.4,2.8l-1.1,14.5l-0.4,4.6c7.3-0.3,14.1-2.8,19.7-6.8l-10-13.7
		C54.2,59,54,58.7,53.9,58.4z"/>
	<path d="M33.1,46.6l-14.7-2.1c-0.8-0.1-1.5-0.7-1.7-1.5l-1.5-6l-0.8-3.3c-0.2-1,0.3-1.9,1.2-2.3c0,0,0.1,0,0.1,0l4.8-1.7l0-6.1
		l-4.1-4.6l-0.8-1C9.6,24.6,6,33.3,6,42.8c0,7.6,2.3,14.6,6.2,20.5c0.1-0.1,0.2-0.1,0.3-0.2l1.1-0.6l16.8-8.9L33.1,46.6z"/>
	<path d="M50.7,19.9c0.3,0.5,0.3,1.2,0.1,1.7c-0.2,0.6-0.7,1-1.3,1.1l-7.6,2l-1.5,4.6l5.4,5.3l11.4-3.7c0.5-0.1,0.9-0.1,1.4,0.1
		l19.4,7.8l1.9,0.8C78.5,24.6,68.4,12.3,54.6,7.7c0,0,0,0.1,0,0.1l-0.3,0.4l-5.7,7.6L50.7,19.9z"/>
	<path d="M52.8,52.6c0.3-1.7,1-3.2,2.1-4.5l-2.5-3.4c-0.7-0.9-0.5-2.1,0.4-2.8c0.9-0.7,2.1-0.5,2.8,0.4l2.5,3.4
		c3.8-1.6,8.3-0.5,10.8,2.9l7.5,10.1c2.2-4.5,3.4-9.6,3.6-14.9c-0.1,0-0.3-0.1-0.4-0.1L57.7,35l-11.5,3.8c-0.8,0.5-1.8,0.3-2.4-0.3
		l-7.1-7.1c-0.5-0.5-0.7-1.3-0.5-2l2.2-6.8c0.2-0.6,0.7-1.1,1.4-1.3l6.2-1.6l-1.6-2.9c-0.4-0.7-0.3-1.5,0.2-2.1l5.9-7.9
		c-2.4-0.5-4.9-0.8-7.5-0.8c-9.4,0-18,3.5-24.6,9.3l5.6,6.3c0.3,0.4,0.5,0.9,0.5,1.3l0,8.3c0,0.9-0.5,1.6-1.3,1.9l-4.4,1.5l1.5,6.2
		L36.1,43c0.6,0.1,1.1,0.4,1.4,1c0.3,0.5,0.4,1.2,0.1,1.7l-3.9,10.1c-0.2,0.5-0.5,0.8-0.9,1l-18.3,9.7c6.3,7.6,15.7,12.6,26.2,13.2
		c0-0.1,0-0.2,0-0.2l1.6-20.4c0.1-0.8,0.6-1.5,1.3-1.7l9-3.4C52.7,53.5,52.7,53.1,52.8,52.6z"/>
	<path d="M93.6,83.9c-0.7-0.9-1.9-1.1-2.8-0.4l-3.2,2.4l-5.9-8l6.5-4.7c0.9-0.7,1.1-1.9,0.4-2.8c-0.6-0.9-1.9-1.1-2.8-0.4l-0.8,0.6
		l-3.2,2.4l-4.6-6.3l-3.6,2.6c-0.4,0.3-0.8,0.4-1.2,0.4c-0.6,0-1.2-0.3-1.6-0.8c-0.7-0.9-0.5-2.1,0.4-2.8l3.6-2.6L72.4,60l-3.6,2.6
		C68.4,62.9,68,63,67.6,63c-0.6,0-1.2-0.3-1.6-0.8c-0.7-0.9-0.5-2.1,0.4-2.8l3.6-2.6L65.7,51c-1-1.3-2.5-2-4-2c-1,0-2.1,0.3-3,1
		c-1.1,0.8-1.8,2-2,3.3c-0.2,1.3,0.1,2.6,0.9,3.7l16,21.8l-3.2,2.4l-0.8,0.6c-0.9,0.7-1.1,1.9-0.4,2.8c0.4,0.5,1,0.8,1.6,0.8
		c0.4,0,0.8-0.1,1.2-0.4l2.4-1.8l1.8-1.3l-1.8,1.3c0,0,0,0,0,0l1.9-1.4l2.1-1.6l5.9,8l-3.2,2.4c-0.9,0.7-1.1,1.9-0.4,2.8
		c0.4,0.5,1,0.8,1.6,0.8c0.4,0,0.8-0.1,1.2-0.4l9.7-7.1C94.1,86,94.3,84.8,93.6,83.9z"/>
</g>
</svg>
