<?xml version="1.0" encoding="utf-8"?>
<!-- Generator: Adobe Illustrator 21.0.2, SVG Export Plug-In . SVG Version: 6.00 Build 0)  -->
<svg version="1.1" id="Layer_1" xmlns="http://www.w3.org/2000/svg" xmlns:xlink="http://www.w3.org/1999/xlink" x="0px" y="0px"
	 viewBox="0 0 100 100" style="enable-background:new 0 0 100 100;" xml:space="preserve">
<g>
	<path d="M93,35h-8v-8h4c1.1,0,2-0.9,2-2c0-1.1-0.9-2-2-2H77c-1.1,0-2,0.9-2,2c0,1.1,0.9,2,2,2h4v8h-1.5l-3.5,0h0
		c-0.1,0-0.1,0-0.2,0H73c-1.1,0-2,0.9-2,2c0,1.1,0.9,2,2,2h1.1l0,6.8c0,0.1,0,0.1,0,0.2c0,0.1,0,0.1,0,0.2L73.9,62
		c0,2.4,0.9,4.7,2.6,6.4c1.2,1.2,2.8,2.1,4.5,2.5L81,81c0,1.1,0.9,2,2,2c0,0,0,0,0,0c1.1,0,2-0.9,2-2l0-10.2c4-0.9,6.9-4.5,6.9-8.7
		L92.1,39H93c1.1,0,2-0.9,2-2C95,35.9,94.1,35,93,35z M87.9,62c0,2.7-2.2,4.9-4.9,5h0c0,0,0,0,0,0c0,0-0.1,0-0.1,0
		c-1.3,0-2.6-0.5-3.5-1.5c-0.9-1-1.5-2.2-1.5-3.5l0-6l4,0h0c1.1,0,2-0.9,2-2c0-1.1-0.9-2-2-2l-4,0l0-4l4,0h0c1.1,0,2-0.9,2-2
		c0-1.1-0.9-2-2-2l-4,0l0-5h1.4l8.6,0L87.9,62z"/>
	<path d="M36,10C18.9,10,5,23.9,5,41v7c0,0.8,0.5,1.5,1.2,1.9l12.4,5c0.1,0,0.1,0,0.2,0c2.1,2.9,4.9,5.3,8.1,6.9V64h-7.8
		C11.4,64,5,70.3,5,78v6c0,3.3,2.7,6,6.1,6h49.9c3.4,0,6.1-2.7,6.1-6v-6c0-7.7-6.4-14-14.2-14H45v-2.2c3.3-1.6,6.1-3.9,8.1-6.9
		c0.1,0,0.1,0,0.2,0l12.4-5c0.8-0.3,1.2-1,1.2-1.9v-7C67,23.9,53.1,10,36,10z M50.8,68h1.9C58.4,68,63,72.5,63,78v6
		c0,1.1-0.9,2-2.1,2H11.1C9.9,86,9,85.1,9,84v-6c0-5.5,4.6-10,10.2-10h1.9c0.7,4.2,3.4,7.9,7.4,9.8l6.6,3.1c0.3,0.1,0.6,0.2,0.8,0.2
		s0.6-0.1,0.8-0.2l6.6-3.1C47.4,75.9,50.2,72.2,50.8,68z M46.8,68c-0.6,2.7-2.4,5-4.9,6.1L36,76.8l-5.8-2.7
		c-2.5-1.2-4.3-3.5-4.9-6.1H29c1.1,0,2-0.9,2-2v-2.8c1.6,0.4,3.3,0.6,5,0.6s3.4-0.2,5-0.6V66c0,1.1,0.9,2,2,2H46.8z M53,42.7
		c0,9.5-7.6,17.1-17,17.1s-17-7.7-17-17.1V36c0-1.1,0.9-2,2-2c3.7,0,7-1.9,9-4.7c2,2.8,5.3,4.7,9,4.7h12c1.1,0,2,0.9,2,2V42.7z
		 M63,46.6l-7.1,2.9c0.7-2.1,1.1-4.4,1.1-6.8V36c0-3.3-2.7-6-6-6H39c-3.9,0-7-3.1-7-7v-1c0-1.1-0.9-2-2-2s-2,0.9-2,2v1
		c0,3.9-3.1,7-7,7c-3.3,0-6,2.7-6,6v6.7c0,2.4,0.4,4.7,1.1,6.8L9,46.6V41c0-14.9,12.1-27,27-27s27,12.1,27,27V46.6z"/>
	<path d="M42,45c-1.1,0-2,0.9-2,2c0,1.6-1.8,3-4,3s-4-1.4-4-3c0-1.1-0.9-2-2-2s-2,0.9-2,2c0,3.9,3.6,7,8,7s8-3.1,8-7
		C44,45.9,43.1,45,42,45z"/>
</g>
</svg>
