<?xml version="1.0" encoding="utf-8"?>
<!-- Generator: Adobe Illustrator 21.0.2, SVG Export Plug-In . SVG Version: 6.00 Build 0)  -->
<svg version="1.1" id="Layer_1" xmlns="http://www.w3.org/2000/svg" xmlns:xlink="http://www.w3.org/1999/xlink" x="0px" y="0px"
	 viewBox="0 0 100 100" style="enable-background:new 0 0 100 100;" xml:space="preserve">
<g>
	<path d="M50,40c-4.4,0-8,3.6-8,8c0,3.3,2.7,6,6,6h4c3.3,0,6-2.7,6-6C58,43.6,54.4,40,50,40z M52,50h-4c-1.1,0-2-0.9-2-2
		c0-2.2,1.8-4,4-4s4,1.8,4,4C54,49.1,53.1,50,52,50z"/>
	<circle cx="42" cy="37" r="2"/>
	<circle cx="19" cy="71" r="2"/>
	<circle cx="19" cy="81" r="2"/>
	<circle cx="50" cy="34" r="2"/>
	<circle cx="58" cy="37" r="2"/>
	<path d="M92.6,50.1L72,43.5v-11c3.5-1.1,6-4.4,6-8.2c0-2-0.7-3.8-1.9-5.3c0.8-1,1.4-2.3,1.7-3.6c0.1-0.6,0.2-1.2,0.2-1.7
		C78,8.9,74.1,5,69.3,5c-3.5,0-6.7,2.2-8,5.3H38.7c-1.3-3.2-4.5-5.3-8-5.3C25.9,5,22,8.9,22,13.7c0,0.5,0.1,1.1,0.2,1.7
		c0.3,1.3,0.8,2.6,1.7,3.6c-1.2,1.5-1.9,3.4-1.9,5.3c0,3.9,2.5,7.1,6,8.2v11L7.4,50.1C6.6,50.4,6,51.1,6,52v41c0,1.1,0.9,2,2,2h84
		c1.1,0,2-0.9,2-2V52C94,51.1,93.4,50.4,92.6,50.1z M28,91H10V63h18V91z M28,59H10v-5.5l18-5.7V59z M58,91H42V75c0-4.4,3.6-8,8-8
		s8,3.6,8,8V91z M68,91h-6V75c0-6.6-5.4-12-12-12s-12,5.4-12,12v16h-6V32.9c3-0.5,5.5-2.5,6.7-5.2h22.7c1.2,2.8,3.7,4.8,6.7,5.2V91z
		 M64.8,25.3c-0.2-0.9-1-1.6-2-1.6H37.2c-1,0-1.8,0.7-2,1.6c-0.4,2.2-2.4,3.7-4.6,3.7c-2.6,0-4.7-2.1-4.7-4.7c0-1.5,0.7-2.8,1.9-3.7
		c0.5-0.4,0.8-1,0.8-1.6s-0.3-1.2-0.8-1.6c-0.9-0.7-1.6-1.7-1.8-2.8C26,14.2,26,14,26,13.7c0-2.6,2.1-4.7,4.7-4.7
		c2.2,0,4.1,1.6,4.6,3.7c0.2,0.9,1,1.6,2,1.6h25.6c1,0,1.8-0.7,2-1.6c0.4-2.2,2.4-3.7,4.6-3.7c2.6,0,4.7,2.1,4.7,4.7
		c0,0.3,0,0.6-0.1,0.9c-0.2,1.1-0.9,2.1-1.8,2.8c-0.5,0.4-0.8,1-0.8,1.6s0.3,1.2,0.8,1.6c1.2,0.9,1.9,2.3,1.9,3.7
		c0,2.6-2.1,4.7-4.7,4.7C67.1,29,65.2,27.4,64.8,25.3z M90,91H72V63h18V91z M90,59H72V47.7l18,5.7V59z"/>
	<circle cx="81" cy="71" r="2"/>
	<circle cx="81" cy="81" r="2"/>
</g>
</svg>
