<?xml version="1.0" encoding="utf-8"?>
<!-- Generator: Adobe Illustrator 21.0.2, SVG Export Plug-In . SVG Version: 6.00 Build 0)  -->
<svg version="1.1" id="Layer_1" xmlns="http://www.w3.org/2000/svg" xmlns:xlink="http://www.w3.org/1999/xlink" x="0px" y="0px"
	 viewBox="0 0 100 100" style="enable-background:new 0 0 100 100;" xml:space="preserve">
<g>
	<path d="M10,91h18V63H10V91z M19,69c1.1,0,2,0.9,2,2c0,1.1-0.9,2-2,2s-2-0.9-2-2C17,69.9,17.9,69,19,69z M19,79c1.1,0,2,0.9,2,2
		c0,1.1-0.9,2-2,2s-2-0.9-2-2C17,79.9,17.9,79,19,79z"/>
	<polygon points="10,59 28,59 28,47.7 10,53.5 	"/>
	<path d="M61.3,27.7H38.7c-1.2,2.8-3.7,4.8-6.7,5.2V91h6V75c0-6.6,5.4-12,12-12s12,5.4,12,12v16h6V32.9C65,32.4,62.5,30.4,61.3,27.7
		z M50,32c1.1,0,2,0.9,2,2c0,1.1-0.9,2-2,2s-2-0.9-2-2C48,32.9,48.9,32,50,32z M42,39c-1.1,0-2-0.9-2-2c0-1.1,0.9-2,2-2s2,0.9,2,2
		C44,38.1,43.1,39,42,39z M52,49h-4c-2.2,0-4-1.8-4-4c0-3.3,2.7-6,6-6s6,2.7,6,6C56,47.2,54.2,49,52,49z M58,39c-1.1,0-2-0.9-2-2
		c0-1.1,0.9-2,2-2s2,0.9,2,2C60,38.1,59.1,39,58,39z"/>
	<path d="M50,67c-4.4,0-8,3.6-8,8v16h16V75C58,70.6,54.4,67,50,67z"/>
	<path d="M74,24.3c0-1.5-0.7-2.8-1.9-3.7c-0.5-0.4-0.8-1-0.8-1.6s0.3-1.2,0.8-1.6c0.9-0.7,1.6-1.7,1.8-2.8C74,14.2,74,14,74,13.7
		c0-2.6-2.1-4.7-4.7-4.7c-2.2,0-4.1,1.6-4.6,3.7c-0.2,0.9-1,1.6-2,1.6H37.2c-1,0-1.8-0.7-2-1.6C34.8,10.6,32.9,9,30.7,9
		c-2.6,0-4.7,2.1-4.7,4.7c0,0.3,0,0.6,0.1,0.9c0.2,1.1,0.9,2.1,1.8,2.8c0.5,0.4,0.8,1,0.8,1.6s-0.3,1.2-0.8,1.6
		c-1.2,0.9-1.9,2.3-1.9,3.7c0,2.6,2.1,4.7,4.7,4.7c2.2,0,4.1-1.6,4.6-3.7c0.2-0.9,1-1.6,2-1.6h25.6c1,0,1.8,0.7,2,1.6
		c0.4,2.2,2.4,3.7,4.6,3.7C71.9,29,74,26.9,74,24.3z"/>
	<path d="M72,91h18V63H72V91z M81,69c1.1,0,2,0.9,2,2c0,1.1-0.9,2-2,2s-2-0.9-2-2C79,69.9,79.9,69,81,69z M81,79c1.1,0,2,0.9,2,2
		c0,1.1-0.9,2-2,2s-2-0.9-2-2C79,79.9,79.9,79,81,79z"/>
	<polygon points="72,47.7 72,59 90,59 90,53.5 	"/>
</g>
</svg>
