<?xml version="1.0" encoding="utf-8"?>
<!-- Generator: Adobe Illustrator 21.0.2, SVG Export Plug-In . SVG Version: 6.00 Build 0)  -->
<svg version="1.1" id="Layer_1" xmlns="http://www.w3.org/2000/svg" xmlns:xlink="http://www.w3.org/1999/xlink" x="0px" y="0px"
	 viewBox="0 0 100 100" style="enable-background:new 0 0 100 100;" xml:space="preserve">
<g>
	<path d="M50,5C25.2,5,5,25.2,5,50s20.2,45,45,45s45-20.2,45-45S74.8,5,50,5z M50,91C27.4,91,9,72.6,9,50S27.4,9,50,9s41,18.4,41,41
		S72.6,91,50,91z"/>
	<path d="M50,15c-19.3,0-35,15.7-35,35s15.7,35,35,35s35-15.7,35-35S69.3,15,50,15z M50,81c-17.1,0-31-13.9-31-31
		c0-17.1,13.9-31,31-31s31,13.9,31,31C81,67.1,67.1,81,50,81z"/>
	<path d="M39.5,51.8l-1.4-1.4l4.2-4.2l1.4,1.4c0.4,0.4,0.9,0.6,1.4,0.6s1-0.2,1.4-0.6c0.8-0.8,0.8-2,0-2.8L45,43
		c0.4-0.8,0.6-1.7,0.6-2.6c0-0.9-0.2-1.8-0.6-2.6l1.7-1.7c0.8-0.8,0.8-2,0-2.8c-0.8-0.8-2-0.8-2.8,0L42.1,35
		c-0.8-0.4-1.7-0.6-2.6-0.6c-0.9,0-1.8,0.2-2.6,0.6l-1.7-1.7c-0.8-0.8-2-0.8-2.8,0c-0.8,0.8-0.8,2,0,2.8l1.4,1.4l-4.2,4.2l-1.4-1.4
		c-0.8-0.8-2-0.8-2.8,0c-0.8,0.8-0.8,2.1,0,2.8L27,45c-0.4,0.8-0.6,1.7-0.6,2.6c0,0.9,0.2,1.8,0.6,2.6l-1.7,1.7
		c-0.8,0.8-0.8,2,0,2.8c0.4,0.4,0.9,0.6,1.4,0.6s1-0.2,1.4-0.6l1.7-1.7c0.8,0.4,1.7,0.6,2.6,0.6c0.9,0,1.8-0.2,2.6-0.6l1.7,1.7
		c0.4,0.4,0.9,0.6,1.4,0.6s1-0.2,1.4-0.6C40.3,53.8,40.3,52.6,39.5,51.8z M33.9,49c-0.4,0.4-0.9,0.6-1.4,0.6c-0.5,0-1-0.2-1.4-0.6
		c-0.4-0.4-0.6-0.9-0.6-1.4c0-0.5,0.2-1,0.6-1.4l7.1-7.1c0.4-0.4,0.9-0.6,1.4-0.6c0.5,0,1,0.2,1.4,0.6s0.6,0.9,0.6,1.4
		c0,0.5-0.2,1-0.6,1.4L33.9,49z"/>
	<path d="M69,51c-3.3,0-6,2.7-6,6s2.7,6,6,6s6-2.7,6-6S72.3,51,69,51z M69,59c-1.1,0-2-0.9-2-2c0-1.1,0.9-2,2-2s2,0.9,2,2
		C71,58.1,70.1,59,69,59z"/>
	<path d="M60.8,38.8c0,1.6,0.6,3.1,1.8,4.2c1.2,1.2,2.7,1.8,4.2,1.8c1.5,0,3.1-0.6,4.2-1.8l1.4-1.4c0.8-0.8,0.8-2,0-2.8
		c-0.8-0.8-2-0.8-2.8,0l-1.4,1.4c-0.8,0.8-2,0.8-2.8,0c-0.4-0.4-0.6-0.9-0.6-1.4c0-0.5,0.2-1,0.6-1.4c1.1-1.1,1.8-2.6,1.8-4.2
		s-0.6-3.1-1.8-4.2c-2.3-2.3-6.1-2.3-8.5,0l-1.4,1.4c-0.8,0.8-0.8,2.1,0,2.8c0.8,0.8,2,0.8,2.8,0l1.4-1.4c0.8-0.8,2-0.8,2.8,0
		c0.4,0.4,0.6,0.9,0.6,1.4c0,0.5-0.2,1-0.6,1.4C61.5,35.7,60.8,37.2,60.8,38.8z"/>
	<circle cx="31" cy="63" r="2"/>
	<circle cx="53" cy="53" r="2"/>
	<circle cx="63" cy="72" r="2"/>
	<circle cx="49" cy="25" r="2"/>
	<path d="M50.8,64.4c-4.2-3.4-9-4-11.2-1.4c-2.2,2.6-0.6,7.2,3.5,10.7c2.4,2,5.1,3,7.3,3c1.6,0,3-0.5,3.9-1.6
		C56.5,72.4,55,67.8,50.8,64.4z M51.2,72.5c-0.3,0.4-2.7,0.3-5.5-1.9c-2.8-2.3-3.3-4.6-3-5c0.1-0.1,0.3-0.2,0.7-0.2
		c1,0,2.8,0.5,4.8,2.1C51.1,69.8,51.6,72.1,51.2,72.5z"/>
</g>
</svg>
