<?xml version="1.0" encoding="utf-8"?>
<!-- Generator: Adobe Illustrator 21.0.2, SVG Export Plug-In . SVG Version: 6.00 Build 0)  -->
<svg version="1.1" id="Layer_1" xmlns="http://www.w3.org/2000/svg" xmlns:xlink="http://www.w3.org/1999/xlink" x="0px" y="0px"
	 viewBox="0 0 100 100" style="enable-background:new 0 0 100 100;" xml:space="preserve">
<g>
	<path d="M50,7L15,22v17.9C15,63,28.8,83.9,50,93c10.6-4.5,19.4-12,25.5-21.3c6.1-9.2,9.5-20.2,9.5-31.8V22L50,7z M71.5,60.8
		c0.9,0.6,1.2,1.8,0.7,2.7c-0.4,0.6-1,1-1.7,1c-0.3,0-0.7-0.1-1-0.3L64.2,61c-1,1.3-2.3,2.5-3.7,3.5l1.5,2.7c0.5,1,0.2,2.2-0.8,2.7
		c-0.3,0.2-0.6,0.3-1,0.3c-0.7,0-1.4-0.4-1.8-1l-1.5-2.7c-1.6,0.7-3.3,1.1-5.1,1.3V74c0,1.1-0.9,2-2,2s-2-0.9-2-2v-6.1
		c-1.8-0.2-3.5-0.7-5.1-1.3l-1.5,2.7c-0.4,0.6-1,1-1.7,1c-0.3,0-0.7-0.1-1-0.3c-1-0.5-1.3-1.8-0.8-2.7l1.5-2.7
		c-1.4-1-2.6-2.2-3.7-3.5l-5.2,3.2c-0.3,0.2-0.7,0.3-1,0.3c-0.7,0-1.3-0.3-1.7-1c-0.6-0.9-0.3-2.2,0.7-2.7l5.2-3.2
		c-0.8-1.7-1.4-3.6-1.6-5.6H29c-1.1,0-2-0.9-2-2c0-1.1,0.9-2,2-2h3.1c0.2-2,0.8-3.9,1.6-5.6l-5.2-3.2c-0.9-0.6-1.2-1.8-0.7-2.7
		c0.6-1,1.8-1.2,2.8-0.7l5.2,3.2c1-1.3,2.3-2.5,3.7-3.5l-1.5-2.7c-0.5-1-0.2-2.2,0.8-2.7c1-0.5,2.2-0.2,2.7,0.8l1.5,2.7
		c1.6-0.7,3.3-1.1,5.1-1.3V26c0-1.1,0.9-2,2-2s2,0.9,2,2v6.1c1.8,0.2,3.5,0.7,5.1,1.3l1.5-2.7c0.5-1,1.8-1.3,2.7-0.8
		c1,0.5,1.3,1.8,0.8,2.7l-1.5,2.7c1.4,1,2.6,2.2,3.7,3.5l5.2-3.2c0.9-0.6,2.2-0.3,2.8,0.7c0.6,0.9,0.3,2.2-0.7,2.7l-5.2,3.2
		c0.8,1.7,1.4,3.6,1.6,5.6H71c1.1,0,2,0.9,2,2c0,1.1-0.9,2-2,2h-3.1c-0.2,2-0.8,3.9-1.6,5.6L71.5,60.8z"/>
	<path d="M61,48h2.8c-0.5-3.7-2.5-6.9-5.3-9l-1.4,2.5c-0.4,0.7-1,1-1.7,1c-0.3,0-0.7-0.1-1-0.3c-1-0.5-1.3-1.8-0.8-2.7l1.4-2.5
		c-1.6-0.6-3.3-1-5.1-1s-3.5,0.3-5.1,1l1.4,2.5c0.5,1,0.2,2.2-0.8,2.7c-0.3,0.2-0.6,0.3-1,0.3c-0.7,0-1.4-0.4-1.7-1L41.4,39
		c-2.8,2.2-4.7,5.4-5.3,9H39c1.1,0,2,0.9,2,2c0,1.1-0.9,2-2,2h-2.8c0.5,3.7,2.5,6.9,5.3,9l1.4-2.5c0.5-1,1.8-1.3,2.7-0.8
		c1,0.5,1.3,1.8,0.8,2.7L44.9,63c1.6,0.6,3.3,1,5.1,1s3.5-0.4,5.1-1l-1.4-2.5c-0.5-1-0.2-2.2,0.8-2.7c1-0.5,2.2-0.2,2.7,0.8l1.4,2.5
		c2.8-2.2,4.7-5.4,5.3-9H61c-1.1,0-2-0.9-2-2C59,48.9,59.9,48,61,48z"/>
</g>
</svg>
