<?xml version="1.0" encoding="utf-8"?>
<!-- Generator: Adobe Illustrator 21.0.2, SVG Export Plug-In . SVG Version: 6.00 Build 0)  -->
<svg version="1.1" id="Layer_1" xmlns="http://www.w3.org/2000/svg" xmlns:xlink="http://www.w3.org/1999/xlink" x="0px" y="0px"
	 viewBox="0 0 100 100" style="enable-background:new 0 0 100 100;" xml:space="preserve">
<path d="M93.3,54.4c-1.1-0.3-2.2,0.3-2.4,1.4l-0.8,2.9l-12.6-3.4c0.7-3.5,0.7-7.1,0-10.6l7.8-2.1l0.8,2.9c0.2,0.9,1,1.5,1.9,1.5
	c0.2,0,0.3,0,0.5-0.1c1.1-0.3,1.7-1.4,1.4-2.5l-2.6-9.7c-0.3-1.1-1.4-1.7-2.5-1.4c-1.1,0.3-1.7,1.4-1.4,2.5l0.8,2.9l-7.8,2.1
	c-1.1-3.3-2.9-6.4-5.3-9.2l9.2-9.2l2.1,2.1c0.4,0.4,0.9,0.6,1.4,0.6s1-0.2,1.4-0.6c0.8-0.8,0.8-2,0-2.8l-7.1-7.1
	c-0.8-0.8-2-0.8-2.8,0c-0.8,0.8-0.8,2,0,2.8l2.1,2.1l-9.2,9.2c-2.8-2.4-5.9-4.2-9.2-5.3l2.1-7.8l2.9,0.8c0.2,0.1,0.3,0.1,0.5,0.1
	c0.9,0,1.7-0.6,1.9-1.5c0.3-1.1-0.3-2.2-1.4-2.5l-9.7-2.6c-1.1-0.3-2.2,0.3-2.5,1.4c-0.3,1.1,0.3,2.2,1.4,2.5l2.9,0.8l-2.1,7.8
	c-3.5-0.7-7.1-0.7-10.6,0L41.3,9.9l2.9-0.8c1.1-0.3,1.7-1.4,1.4-2.5c-0.3-1.1-1.4-1.7-2.5-1.4l-9.7,2.6c-1.1,0.3-1.7,1.4-1.4,2.5
	c0.2,0.9,1,1.5,1.9,1.5c0.2,0,0.4,0,0.5-0.1l2.9-0.8l3.4,12.6c-3.3,1.1-6.4,2.9-9.2,5.3L26,23.1l2.1-2.1c0.8-0.8,0.8-2.1,0-2.8
	c-0.8-0.8-2-0.8-2.8,0l-7.1,7.1c-0.8,0.8-0.8,2,0,2.8c0.4,0.4,0.9,0.6,1.4,0.6c0.5,0,1-0.2,1.4-0.6l2.1-2.1l5.7,5.7
	c-2.4,2.8-4.2,5.9-5.3,9.2l-12.6-3.4l0.8-2.9c0.3-1.1-0.3-2.2-1.4-2.5c-1.1-0.3-2.2,0.3-2.5,1.4l-2.6,9.7c-0.3,1.1,0.4,2.2,1.4,2.5
	c0.2,0,0.3,0.1,0.5,0.1c0.9,0,1.7-0.6,1.9-1.5l0.8-2.9l12.6,3.4c-0.7,3.5-0.7,7.1,0,10.6l-7.8,2.1l-0.8-2.9
	c-0.3-1.1-1.4-1.7-2.5-1.4c-1.1,0.3-1.7,1.4-1.4,2.4l2.6,9.7c0.2,0.9,1,1.5,1.9,1.5c0.2,0,0.3,0,0.5-0.1c1.1-0.3,1.7-1.4,1.4-2.5
	l-0.8-2.9l7.8-2.1c1.1,3.3,2.9,6.4,5.3,9.2l-9.2,9.2l-2.1-2.1c-0.8-0.8-2-0.8-2.8,0c-0.8,0.8-0.8,2,0,2.8l7.1,7.1
	c0.4,0.4,0.9,0.6,1.4,0.6s1-0.2,1.4-0.6c0.8-0.8,0.8-2,0-2.8l-2.1-2.1l9.2-9.2c2.8,2.4,5.9,4.2,9.2,5.3l-2.1,7.8l-2.9-0.8
	c-1.1-0.3-2.2,0.3-2.4,1.4c-0.3,1.1,0.3,2.2,1.4,2.4l9.7,2.6c0.2,0,0.3,0.1,0.5,0.1c0.9,0,1.7-0.6,1.9-1.5c0.3-1.1-0.3-2.2-1.4-2.4
	l-2.9-0.8l2.1-7.8c3.5,0.7,7.1,0.7,10.6,0l3.4,12.6l-2.9,0.8c-1.1,0.3-1.7,1.4-1.4,2.5c0.2,0.9,1,1.5,1.9,1.5c0.2,0,0.3,0,0.5-0.1
	l4.8-1.3h0l4.8-1.3c1.1-0.3,1.7-1.4,1.4-2.5c-0.3-1.1-1.4-1.7-2.5-1.4l-2.9,0.8l-3.4-12.6c3.3-1.1,6.4-2.9,9.2-5.3l5.7,5.7L71.9,79
	c-0.8,0.8-0.8,2,0,2.8c0.4,0.4,0.9,0.6,1.4,0.6c0.5,0,1-0.2,1.4-0.6l7.1-7.1c0.8-0.8,0.8-2,0-2.8c-0.8-0.8-2-0.8-2.8,0L76.9,74
	l-5.7-5.7c2.4-2.8,4.2-5.9,5.3-9.2l12.6,3.4l-0.8,2.9c-0.3,1.1,0.3,2.2,1.4,2.5c0.2,0,0.4,0.1,0.5,0.1c0.9,0,1.7-0.6,1.9-1.5
	l1.3-4.8v0l1.3-4.8C95,55.8,94.4,54.6,93.3,54.4z M32,45c0-1.1,0.9-2,2-2s2,0.9,2,2c0,1.1-0.9,2-2,2S32,46.1,32,45z M43.3,63.5
	c-1,0.7-2.2,1.1-3.5,1.1c-0.3,0-0.7,0-1-0.1c-1.6-0.2-3-1.1-3.9-2.4c-0.9-1.3-1.3-2.9-1.1-4.5c0.3-1.6,1.1-3,2.4-3.9
	c0.9-0.6,2.1-0.4,2.8,0.5c0.3,0.4,0.4,0.8,0.4,1.2c0,0.6-0.3,1.2-0.8,1.6c-0.4,0.3-0.7,0.8-0.8,1.3c-0.1,0.5,0,1.1,0.4,1.5
	s0.8,0.7,1.3,0.8c0.5,0.1,1.1,0,1.5-0.3c0,0,0,0,0,0c0.9-0.6,2.2-0.4,2.8,0.5C44.4,61.6,44.2,62.8,43.3,63.5z M48,53
	c-1.1,0-2-0.9-2-2c0-1.1,0.9-2,2-2s2,0.9,2,2C50,52.1,49.1,53,48,53z M53,69c-1.1,0-2-0.9-2-2c0-1.1,0.9-2,2-2s2,0.9,2,2
	C55,68.1,54.1,69,53,69z M49,41c-4.4,0-8-2.2-8-5s3.6-5,8-5s8,2.2,8,5S53.4,41,49,41z M62,61c-2.8,0-5-2.2-5-5s2.2-5,5-5s5,2.2,5,5
	S64.8,61,62,61z M67,44c-1.1,0-2-0.9-2-2c0-1.1,0.9-2,2-2s2,0.9,2,2C69,43.1,68.1,44,67,44z"/>
</svg>
