<?xml version="1.0" encoding="utf-8"?>
<!-- Generator: Adobe Illustrator 21.0.2, SVG Export Plug-In . SVG Version: 6.00 Build 0)  -->
<svg version="1.1" id="Layer_1" xmlns="http://www.w3.org/2000/svg" xmlns:xlink="http://www.w3.org/1999/xlink" x="0px" y="0px"
	 viewBox="0 0 100 100" style="enable-background:new 0 0 100 100;" xml:space="preserve">
<g>
	<path d="M93.3,54.4c-1.1-0.3-2.2,0.3-2.4,1.4l-0.8,2.9l-10.7-2.9C79.8,53.9,80,52,80,50c0-2-0.2-3.9-0.6-5.8l5.8-1.6l0.8,2.9
		c0.2,0.9,1,1.5,1.9,1.5c0.2,0,0.3,0,0.5-0.1c1.1-0.3,1.7-1.4,1.4-2.5l-2.6-9.7c-0.3-1.1-1.4-1.7-2.5-1.4c-1.1,0.3-1.7,1.4-1.4,2.5
		l0.8,2.9l-5.9,1.6c-1.2-3.7-3.2-7.1-5.8-10.1l7.8-7.8l2.1,2.1c0.4,0.4,0.9,0.6,1.4,0.6s1-0.2,1.4-0.6c0.8-0.8,0.8-2,0-2.8l-7.1-7.1
		c-0.8-0.8-2-0.8-2.8,0c-0.8,0.8-0.8,2,0,2.8l2.1,2.1l-7.8,7.8c-3-2.6-6.4-4.6-10.1-5.8l1.6-5.9l2.9,0.8c0.2,0.1,0.3,0.1,0.5,0.1
		c0.9,0,1.7-0.6,1.9-1.5c0.3-1.1-0.3-2.2-1.4-2.5l-9.7-2.6c-1.1-0.3-2.2,0.3-2.5,1.4c-0.3,1.1,0.3,2.2,1.4,2.5l2.9,0.8l-1.6,5.9
		C53.9,20.2,52,20,50,20s-3.9,0.2-5.8,0.6L41.3,9.9l2.9-0.8c1.1-0.3,1.7-1.4,1.4-2.5c-0.3-1.1-1.4-1.7-2.5-1.4l-9.7,2.6
		c-1.1,0.3-1.7,1.4-1.4,2.5c0.2,0.9,1,1.5,1.9,1.5c0.2,0,0.4,0,0.5-0.1l2.9-0.8l2.9,10.7c-3.7,1.2-7.1,3.2-10.1,5.8L26,23.1l2.1-2.1
		c0.8-0.8,0.8-2.1,0-2.8c-0.8-0.8-2-0.8-2.8,0l-7.1,7.1c-0.8,0.8-0.8,2,0,2.8c0.4,0.4,0.9,0.6,1.4,0.6c0.5,0,1-0.2,1.4-0.6l2.1-2.1
		l4.3,4.3c-2.6,3-4.6,6.4-5.8,10.1l-10.7-2.9l0.8-2.9c0.3-1.1-0.3-2.2-1.4-2.5c-1.1-0.3-2.2,0.3-2.5,1.4l-2.6,9.7
		c-0.3,1.1,0.4,2.2,1.4,2.5c0.2,0,0.3,0.1,0.5,0.1c0.9,0,1.7-0.6,1.9-1.5l0.8-2.9l10.7,2.9C20.2,46.1,20,48,20,50
		c0,2,0.2,3.9,0.6,5.8l-5.8,1.6l-0.8-2.9c-0.3-1.1-1.4-1.7-2.5-1.4c-1.1,0.3-1.7,1.4-1.4,2.4l2.6,9.7c0.2,0.9,1,1.5,1.9,1.5
		c0.2,0,0.3,0,0.5-0.1c1.1-0.3,1.7-1.4,1.4-2.5l-0.8-2.9l5.9-1.6c1.2,3.7,3.2,7.1,5.8,10.1l-7.8,7.8l-2.1-2.1c-0.8-0.8-2-0.8-2.8,0
		c-0.8,0.8-0.8,2,0,2.8l7.1,7.1c0.4,0.4,0.9,0.6,1.4,0.6s1-0.2,1.4-0.6c0.8-0.8,0.8-2,0-2.8l-2.1-2.1l7.8-7.8
		c3,2.6,6.4,4.6,10.1,5.8l-1.6,5.9l-2.9-0.8c-1.1-0.3-2.2,0.3-2.4,1.4c-0.3,1.1,0.3,2.2,1.4,2.4l9.7,2.6c0.2,0,0.3,0.1,0.5,0.1
		c0.9,0,1.7-0.6,1.9-1.5c0.3-1.1-0.3-2.2-1.4-2.4l-2.9-0.8l1.6-5.8C46.1,79.8,48,80,50,80s3.9-0.2,5.8-0.6l2.9,10.7l-2.9,0.8
		c-1.1,0.3-1.7,1.4-1.4,2.5c0.2,0.9,1,1.5,1.9,1.5c0.2,0,0.3,0,0.5-0.1l4.8-1.3h0l4.8-1.3c1.1-0.3,1.7-1.4,1.4-2.5
		c-0.3-1.1-1.4-1.7-2.5-1.4l-2.9,0.8l-2.9-10.7c3.7-1.2,7.1-3.2,10.1-5.8l4.3,4.3L71.9,79c-0.8,0.8-0.8,2,0,2.8
		c0.4,0.4,0.9,0.6,1.4,0.6c0.5,0,1-0.2,1.4-0.6l7.1-7.1c0.8-0.8,0.8-2,0-2.8c-0.8-0.8-2-0.8-2.8,0L76.9,74l-4.3-4.3
		c2.6-3,4.6-6.4,5.8-10.1l10.7,2.9l-0.8,2.9c-0.3,1.1,0.3,2.2,1.4,2.5c0.2,0,0.4,0.1,0.5,0.1c0.9,0,1.7-0.6,1.9-1.5l1.3-4.8v0
		l1.3-4.8C95,55.8,94.4,54.6,93.3,54.4z M68.4,68.4c-10.1,10.1-26.6,10.1-36.8,0C26.7,63.5,24,56.9,24,50s2.7-13.5,7.6-18.4
		C36.5,26.7,43.1,24,50,24s13.5,2.7,18.4,7.6C78.5,41.8,78.5,58.2,68.4,68.4z"/>
	<path d="M47.8,30.8c-3.3,0-6,2.7-6,6s2.7,6,6,6s6-2.7,6-6S51.2,30.8,47.8,30.8z M47.8,38.8c-1.1,0-2-0.9-2-2c0-1.1,0.9-2,2-2
		c1.1,0,2,0.9,2,2C49.8,37.9,49,38.8,47.8,38.8z"/>
	<path d="M56.8,52.8c0,3.9,3.1,7,7,7c3.9,0,7-3.1,7-7c0-3.9-3.1-7-7-7C60,45.8,56.8,49,56.8,52.8z M66.8,52.8c0,1.6-1.3,3-3,3
		c-1.6,0-3-1.4-3-3c0-1.7,1.4-3,3-3C65.5,49.8,66.8,51.2,66.8,52.8z"/>
	<path d="M40.8,52.8c-3.3,0-6,2.7-6,6s2.7,6,6,6s6-2.7,6-6S44.2,52.8,40.8,52.8z M40.8,60.8c-1.1,0-2-0.9-2-2c0-1.1,0.9-2,2-2
		c1.1,0,2,0.9,2,2C42.8,59.9,42,60.8,40.8,60.8z"/>
</g>
</svg>
