<?xml version="1.0" encoding="utf-8"?>
<!-- Generator: Adobe Illustrator 21.0.2, SVG Export Plug-In . SVG Version: 6.00 Build 0)  -->
<svg version="1.1" id="Layer_1" xmlns="http://www.w3.org/2000/svg" xmlns:xlink="http://www.w3.org/1999/xlink" x="0px" y="0px"
	 viewBox="0 0 100 100" style="enable-background:new 0 0 100 100;" xml:space="preserve">
<g>
	<path d="M85.8,20.2l-35-15c-0.5-0.2-1.1-0.2-1.6,0l-35,15c-0.7,0.3-1.2,1-1.2,1.8v17.9c0,23.9,14.2,45.5,36.2,54.9
		C49.5,95,49.7,95,50,95s0.5,0,0.8-0.2c22-9.4,36.2-31,36.2-54.9V22C87,21.2,86.5,20.5,85.8,20.2z M83,39.9c0,22-12.9,41.9-33,50.9
		c-20.1-9-33-28.9-33-50.9V23.3L50,9.2l33,14.1V39.9z"/>
	<path d="M48,26v6.1c-1.8,0.2-3.5,0.7-5.1,1.3l-1.5-2.7c-0.5-1-1.8-1.3-2.7-0.8c-1,0.5-1.3,1.8-0.8,2.7l1.5,2.7
		c-1.4,1-2.6,2.2-3.7,3.5l-5.2-3.2c-0.9-0.6-2.2-0.3-2.8,0.7c-0.6,0.9-0.3,2.2,0.7,2.7l5.2,3.2c-0.8,1.7-1.4,3.6-1.6,5.6H29
		c-1.1,0-2,0.9-2,2c0,1.1,0.9,2,2,2h3.1c0.2,2,0.8,3.9,1.6,5.6l-5.2,3.2c-0.9,0.6-1.2,1.8-0.7,2.7c0.4,0.6,1,1,1.7,1
		c0.3,0,0.7-0.1,1-0.3l5.2-3.2c1,1.3,2.3,2.5,3.7,3.5l-1.5,2.7c-0.5,1-0.2,2.2,0.8,2.7c0.3,0.2,0.6,0.3,1,0.3c0.7,0,1.4-0.4,1.7-1
		l1.5-2.7c1.6,0.7,3.3,1.1,5.1,1.3V74c0,1.1,0.9,2,2,2s2-0.9,2-2v-6.1c1.8-0.2,3.5-0.7,5.1-1.3l1.5,2.7c0.4,0.6,1,1,1.8,1
		c0.3,0,0.7-0.1,1-0.3c1-0.5,1.3-1.8,0.8-2.7l-1.5-2.7c1.4-1,2.6-2.2,3.7-3.5l5.2,3.2c0.3,0.2,0.7,0.3,1,0.3c0.7,0,1.3-0.3,1.7-1
		c0.6-0.9,0.3-2.2-0.7-2.7l-5.2-3.2c0.8-1.7,1.4-3.6,1.6-5.6H71c1.1,0,2-0.9,2-2c0-1.1-0.9-2-2-2h-3.1c-0.2-2-0.8-3.9-1.6-5.6
		l5.2-3.2c0.9-0.6,1.2-1.8,0.7-2.7c-0.6-1-1.8-1.2-2.8-0.7L64.2,39c-1-1.3-2.3-2.5-3.7-3.5l1.5-2.7c0.5-1,0.2-2.2-0.8-2.7
		c-1-0.5-2.2-0.2-2.7,0.8l-1.5,2.7c-1.6-0.7-3.3-1.1-5.1-1.3V26c0-1.1-0.9-2-2-2S48,24.9,48,26z M55.1,37l-1.4,2.5
		c-0.5,1-0.2,2.2,0.8,2.7c0.3,0.2,0.6,0.3,1,0.3c0.7,0,1.4-0.4,1.7-1l1.4-2.5c2.8,2.2,4.7,5.4,5.3,9H61c-1.1,0-2,0.9-2,2
		c0,1.1,0.9,2,2,2h2.8c-0.5,3.7-2.5,6.9-5.3,9l-1.4-2.5c-0.5-1-1.8-1.3-2.7-0.8c-1,0.5-1.3,1.8-0.8,2.7l1.4,2.5
		c-1.6,0.6-3.3,1-5.1,1s-3.5-0.4-5.1-1l1.4-2.5c0.5-1,0.2-2.2-0.8-2.7c-1-0.5-2.2-0.2-2.7,0.8L41.4,61c-2.8-2.2-4.7-5.4-5.3-9H39
		c1.1,0,2-0.9,2-2c0-1.1-0.9-2-2-2h-2.8c0.5-3.7,2.5-6.9,5.3-9l1.4,2.5c0.4,0.7,1,1,1.7,1c0.3,0,0.7-0.1,1-0.3
		c1-0.5,1.3-1.8,0.8-2.7L44.9,37c1.6-0.6,3.3-1,5.1-1S53.5,36.3,55.1,37z"/>
</g>
</svg>
