<?xml version="1.0" encoding="utf-8"?>
<!-- Generator: Adobe Illustrator 21.0.2, SVG Export Plug-In . SVG Version: 6.00 Build 0)  -->
<svg version="1.1" id="Layer_1" xmlns="http://www.w3.org/2000/svg" xmlns:xlink="http://www.w3.org/1999/xlink" x="0px" y="0px"
	 viewBox="0 0 100 100" style="enable-background:new 0 0 100 100;" xml:space="preserve">
<g>
	<path d="M50,7C26.2,7,7,26.2,7,50s19.2,43,43,43s43-19.2,43-43S73.8,7,50,7z M50,85c-19.3,0-35-15.7-35-35s15.7-35,35-35
		s35,15.7,35,35S69.3,85,50,85z"/>
	<path d="M50,19c-17.1,0-31,13.9-31,31c0,17.1,13.9,31,31,31s31-13.9,31-31C81,32.9,67.1,19,50,19z M53,51c1.1,0,2,0.9,2,2
		c0,1.1-0.9,2-2,2s-2-0.9-2-2C51,51.9,51.9,51,53,51z M49,23c1.1,0,2,0.9,2,2c0,1.1-0.9,2-2,2s-2-0.9-2-2C47,23.9,47.9,23,49,23z
		 M31,65c-1.1,0-2-0.9-2-2c0-1.1,0.9-2,2-2s2,0.9,2,2C33,64.1,32.1,65,31,65z M36.7,54.6L35,52.9c-0.8,0.4-1.7,0.6-2.6,0.6
		c-0.9,0-1.8-0.2-2.6-0.6l-1.7,1.7c-0.4,0.4-0.9,0.6-1.4,0.6s-1-0.2-1.4-0.6c-0.8-0.8-0.8-2,0-2.8l1.7-1.7c-0.4-0.8-0.6-1.7-0.6-2.6
		c0-0.9,0.2-1.8,0.6-2.6l-1.7-1.7c-0.8-0.8-0.8-2,0-2.8c0.8-0.8,2-0.8,2.8,0l1.4,1.4l4.2-4.2l-1.4-1.4c-0.8-0.8-0.8-2,0-2.8
		c0.8-0.8,2-0.8,2.8,0L37,35c0.8-0.4,1.7-0.6,2.6-0.6c0.9,0,1.8,0.2,2.6,0.6l1.7-1.7c0.8-0.8,2-0.8,2.8,0c0.8,0.8,0.8,2,0,2.8
		L45,37.9c0.4,0.8,0.6,1.7,0.6,2.6c0,0.9-0.2,1.8-0.6,2.6l1.7,1.7c0.8,0.8,0.8,2,0,2.8c-0.4,0.4-0.9,0.6-1.4,0.6s-1-0.2-1.4-0.6
		l-1.4-1.4l-4.2,4.2l1.4,1.4c0.8,0.8,0.8,2,0,2.8c-0.4,0.4-0.9,0.6-1.4,0.6S37.1,55,36.7,54.6z M54.3,75c-0.9,1.1-2.3,1.6-3.9,1.6
		c-2.2,0-4.8-1-7.3-3c-4.2-3.4-5.7-8-3.5-10.7c2.2-2.6,7-2,11.2,1.4C55,67.8,56.5,72.4,54.3,75z M62.6,31.8c-0.8-0.8-2.1-0.8-2.8,0
		l-1.1,1.1l-0.4,0.3c-0.8,0.8-2,0.8-2.8,0c-0.8-0.8-0.8-2,0-2.8l1.4-1.4c2.3-2.3,6.1-2.3,8.5,0c1.1,1.1,1.8,2.6,1.8,4.2
		c0,1.4-0.5,2.8-1.4,3.9c-0.1,0.1-0.2,0.2-0.3,0.4c-0.4,0.4-0.6,0.9-0.6,1.4c0,0.5,0.2,1,0.6,1.4c0.8,0.8,2.1,0.8,2.8,0l1.1-1.1
		l0.4-0.4c0.8-0.8,2-0.8,2.8,0c0.8,0.8,0.8,2.1,0,2.8l-1.4,1.4c-1.2,1.2-2.7,1.8-4.2,1.8c-1.5,0-3.1-0.6-4.2-1.8
		c-1.1-1.1-1.8-2.6-1.8-4.2c0-1.4,0.5-2.8,1.4-3.9c0.1-0.1,0.2-0.2,0.3-0.4c0.4-0.4,0.6-0.9,0.6-1.4C63.2,32.6,63,32.1,62.6,31.8z
		 M63,74c-1.1,0-2-0.9-2-2c0-1.1,0.9-2,2-2s2,0.9,2,2C65,73.1,64.1,74,63,74z M69,61c-2.2,0-4-1.8-4-4c0-2.2,1.8-4,4-4s4,1.8,4,4
		C73,59.2,71.2,61,69,61z"/>
	<path d="M41.5,40.5c0-0.5-0.2-1-0.6-1.4s-0.9-0.6-1.4-0.6c-0.5,0-1,0.2-1.4,0.6L31,46.1c-0.4,0.4-0.6,0.9-0.6,1.4
		c0,0.5,0.2,1,0.6,1.4c0.4,0.4,0.9,0.6,1.4,0.6c0.5,0,1-0.2,1.4-0.6l7.1-7.1C41.3,41.5,41.5,41,41.5,40.5z"/>
	<path d="M48.3,67.5c-2-1.6-3.8-2.1-4.8-2.1c-0.4,0-0.6,0.1-0.7,0.2c-0.3,0.4,0.2,2.7,3,5c2.8,2.3,5.2,2.3,5.5,1.9
		S51.1,69.8,48.3,67.5z"/>
</g>
</svg>
