<?xml version="1.0" encoding="utf-8"?>
<!-- Generator: Adobe Illustrator 21.0.2, SVG Export Plug-In . SVG Version: 6.00 Build 0)  -->
<svg version="1.1" id="Layer_1" xmlns="http://www.w3.org/2000/svg" xmlns:xlink="http://www.w3.org/1999/xlink" x="0px" y="0px"
	 viewBox="0 0 100 100" style="enable-background:new 0 0 100 100;" xml:space="preserve">
<g>
	<path d="M77.2,74.9c-4.5-7-8.3-14.6-11.2-22.4h-5c-2.2,0-4,1.8-4,4v5c0,3.9-3.1,7-7,7s-7-3.1-7-7v-9c0-2.2-1.8-4-4-4h-3.6
		C29.7,65.8,19.9,81.6,7,94.5h86C87,88.5,81.8,82,77.2,74.9z"/>
	<path d="M39.2,35.4l-1.9,7.1c-0.2,0.7-0.4,1.3-0.6,2H39c2.7,0,5,1.3,6.5,3.3c1,1.3,1.5,2.9,1.5,4.7v9c0,1.6,1.3,3,3,3s3-1.4,3-3v-5
		c0-3.2,1.8-5.9,4.5-7.2c1.1-0.5,2.2-0.8,3.5-0.8h3.6c-0.7-2-1.3-4-1.8-6l-1.9-7.1c-0.5-1.7-2.1-2.9-3.9-2.9H43
		C41.2,32.5,39.7,33.7,39.2,35.4z"/>
	<path d="M58.1,24.3c0.3,0.1,0.6,0.2,0.9,0.2c0.7,0,1.4-0.4,1.8-1.1c2.1-4.3,6.4-6.9,11.2-6.9H75c1.1,0,2-0.9,2-2s-0.9-2-2-2h-3.1
		c-6.3,0-11.9,3.5-14.7,9.1C56.7,22.6,57.1,23.8,58.1,24.3z"/>
	<path d="M50,24.5c1.1,0,2-0.9,2-2v-7c0-2.8,2.2-5,5-5c1.1,0,2-0.9,2-2s-0.9-2-2-2c-5,0-9,4-9,9v7C48,23.6,48.9,24.5,50,24.5z"/>
	<path d="M25,16.5h3.1c4.8,0,9,2.6,11.2,6.9c0.4,0.7,1.1,1.1,1.8,1.1c0.3,0,0.6-0.1,0.9-0.2c1-0.5,1.4-1.7,0.9-2.7
		c-2.8-5.6-8.5-9.1-14.7-9.1H25c-1.1,0-2,0.9-2,2S23.9,16.5,25,16.5z"/>
	<circle cx="30" cy="23.5" r="2"/>
	<circle cx="72" cy="23.5" r="2"/>
	<circle cx="67" cy="7.5" r="2"/>
	<circle cx="41" cy="7.5" r="2"/>
</g>
</svg>
