<?xml version="1.0" encoding="utf-8"?>
<!-- Generator: Adobe Illustrator 21.0.2, SVG Export Plug-In . SVG Version: 6.00 Build 0)  -->
<svg version="1.1" id="Layer_1" xmlns="http://www.w3.org/2000/svg" xmlns:xlink="http://www.w3.org/1999/xlink" x="0px" y="0px"
	 viewBox="0 0 100 100" style="enable-background:new 0 0 100 100;" xml:space="preserve">
<g>
	<path d="M94.4,92.1C80.3,77.9,70,60.3,64.7,41l-1.9-7.1c-0.7-2.6-3.1-4.4-5.8-4.4H43c-2.7,0-5.1,1.8-5.8,4.4L35.3,41
		C30,60.3,19.7,77.9,5.6,92.1c-0.6,0.6-0.8,1.4-0.4,2.2c0.3,0.7,1,1.2,1.8,1.2h86c0.8,0,1.5-0.5,1.8-1.2
		C95.2,93.5,95,92.7,94.4,92.1z M39.2,42l1.9-7.1c0.2-0.9,1-1.5,1.9-1.5H57c0.9,0,1.7,0.6,1.9,1.5l1.9,7.1c0.5,1.8,1.1,3.7,1.7,5.5
		H61c-4.4,0-8,3.6-8,8v5c0,1.6-1.3,3-3,3s-3-1.4-3-3v-9c0-4.4-3.6-8-8-8h-0.2C38.9,43,39,42.5,39.2,42z M11.7,91.5
		c11.6-12.6,20.5-27.7,25.8-44H39c2.2,0,4,1.8,4,4v9c0,3.9,3.1,7,7,7s7-3.1,7-7v-5c0-2.2,1.8-4,4-4h2.9c5.4,14.8,13.7,28.4,24.4,40
		H11.7z"/>
	<path d="M58.1,23.3c0.3,0.1,0.6,0.2,0.9,0.2c0.7,0,1.4-0.4,1.8-1.1c2.1-4.3,6.4-6.9,11.2-6.9H75c1.1,0,2-0.9,2-2s-0.9-2-2-2h-3.1
		c-6.3,0-11.9,3.5-14.7,9.1C56.7,21.6,57.1,22.8,58.1,23.3z"/>
	<path d="M50,23.5c1.1,0,2-0.9,2-2v-7c0-2.8,2.2-5,5-5c1.1,0,2-0.9,2-2s-0.9-2-2-2c-5,0-9,4-9,9v7C48,22.6,48.9,23.5,50,23.5z"/>
	<path d="M25,15.5h3.1c4.8,0,9,2.6,11.2,6.9c0.4,0.7,1.1,1.1,1.8,1.1c0.3,0,0.6-0.1,0.9-0.2c1-0.5,1.4-1.7,0.9-2.7
		c-2.8-5.6-8.5-9.1-14.7-9.1H25c-1.1,0-2,0.9-2,2S23.9,15.5,25,15.5z"/>
	<circle cx="30" cy="22.5" r="2"/>
	<circle cx="72" cy="22.5" r="2"/>
	<circle cx="67" cy="6.5" r="2"/>
	<circle cx="41" cy="6.5" r="2"/>
</g>
</svg>
