<?xml version="1.0" encoding="utf-8"?>
<!-- Generator: Adobe Illustrator 21.0.2, SVG Export Plug-In . SVG Version: 6.00 Build 0)  -->
<svg version="1.1" id="Layer_1" xmlns="http://www.w3.org/2000/svg" xmlns:xlink="http://www.w3.org/1999/xlink" x="0px" y="0px"
	 viewBox="0 0 100 100" style="enable-background:new 0 0 100 100;" xml:space="preserve">
<g>
	<path d="M94.7,79.8l-8-47.3c-0.6-3.3-3.7-5.5-6.9-4.9l-10.7,1.8V11.2c0-3.3-2.7-6-6-6h-36c-2.6,0-4.8,1.7-5.7,4H11.2
		c-3.3,0-6,2.7-6,6v48c0,3.3,2.7,6,6,6h20.9l3.5,20.7c0.3,1.6,1.1,3,2.4,3.9c1,0.7,2.2,1.1,3.5,1.1c0.3,0,0.7,0,1-0.1l47.3-8
		C93.1,86.2,95.3,83.1,94.7,79.8z M25.2,11.2c0-1.1,0.9-2,2-2h36c1.1,0,2,0.9,2,2v19c0,1.6-1.3,3-3,3s-3-1.4-3-3v-1c0-3.3-2.7-6-6-6
		s-6,2.7-6,6v6c0,1.1-0.9,2-2,2s-2-0.9-2-2v-10c0-3.3-2.7-6-6-6s-6,2.7-6,6v1c0,1.6-1.3,3-3,3s-3-1.4-3-3V11.2z M51.2,33.2v-4
		c0-1.1,0.9-2,2-2s2,0.9,2,2v1c0,1.1,0.3,2.2,0.8,3.1c-0.2-0.1-0.5-0.1-0.8-0.1H51.2z M53.2,37.2v4h-4v-1.5c0.7-0.7,1.3-1.5,1.7-2.5
		H53.2z M11.2,65.2c-1.1,0-2-0.9-2-2v-48c0-1.1,0.9-2,2-2h10v4h-6c-1.1,0-2,0.9-2,2v8c0,1.1,0.9,2,2,2h6.7c1.1,2.4,3.5,4,6.3,4
		c3.9,0,7-3.1,7-7v-1c0-1.1,0.9-2,2-2s2,0.9,2,2v8h-8c-1.1,0-2,0.9-2,2v8c0,1.1,0.9,2,2,2h8c1.1,0,2-0.9,2-2v-3.5
		c1.1,1,2.5,1.5,4,1.5v2c0,1.1,0.9,2,2,2h8c1.1,0,2-0.9,2-2v-8c0,0,0-0.1,0-0.1c1,1.1,2.5,1.8,4,2v26.1c0,1.1-0.9,2-2,2H11.2z
		 M21.2,21.2v4h-4v-4H21.2z M37.2,37.2v4h-4v-4H37.2z M89.2,82.8l-47.3,8c-0.5,0.1-1.1,0-1.5-0.3c-0.4-0.3-0.7-0.8-0.8-1.3l-3.4-20
		h23c3.3,0,6-2.7,6-6V36.5c1.3-0.6,2.4-1.6,3.1-2.9l12.2-2.1c0.1,0,0.2,0,0.3,0c1,0,1.8,0.7,2,1.7l8,47.3
		C91,81.6,90.3,82.6,89.2,82.8z"/>
	<path d="M23.2,33.2h-8c-1.1,0-2,0.9-2,2v8c0,1.1,0.9,2,2,2h8c1.1,0,2-0.9,2-2v-8C25.2,34.1,24.3,33.2,23.2,33.2z M21.2,41.2h-4v-4
		h4V41.2z"/>
	<path d="M23.2,49.2h-8c-1.1,0-2,0.9-2,2v8c0,1.1,0.9,2,2,2h8c1.1,0,2-0.9,2-2v-8C25.2,50.1,24.3,49.2,23.2,49.2z M21.2,57.2h-4v-4
		h4V57.2z"/>
	<path d="M39.2,49.2h-8c-1.1,0-2,0.9-2,2v8c0,1.1,0.9,2,2,2h8c1.1,0,2-0.9,2-2v-8C41.2,50.1,40.3,49.2,39.2,49.2z M37.2,57.2h-4v-4
		h4V57.2z"/>
	<path d="M55.2,49.2h-8c-1.1,0-2,0.9-2,2v8c0,1.1,0.9,2,2,2h8c1.1,0,2-0.9,2-2v-8C57.2,50.1,56.3,49.2,55.2,49.2z M53.2,57.2h-4v-4
		h4V57.2z"/>
	<path d="M74,65.1l7.9-1.3c0.5-0.1,1-0.4,1.3-0.8c0.3-0.4,0.4-1,0.3-1.5l-1.3-7.9c-0.2-1.1-1.2-1.8-2.3-1.6L72,53.3
		c-0.5,0.1-1,0.4-1.3,0.8c-0.3,0.4-0.4,1-0.3,1.5l1.3,7.9c0.2,1,1,1.7,2,1.7C73.8,65.1,73.9,65.1,74,65.1z M78.6,56.2l0.7,4
		l-3.9,0.7l-0.7-3.9L78.6,56.2z"/>
	<path d="M69,47.7c0.2,1,1,1.7,2,1.7c0.1,0,0.2,0,0.3,0l7.9-1.3c1.1-0.2,1.8-1.2,1.6-2.3l-1.3-7.9c-0.2-1.1-1.2-1.8-2.3-1.6
		l-7.9,1.3c-1.1,0.2-1.8,1.2-1.6,2.3L69,47.7z M75.9,40.4l0.7,3.9L72.7,45l-0.7-4L75.9,40.4z"/>
	<path d="M53.3,74.7c-0.2-1.1-1.2-1.8-2.3-1.6l-7.9,1.3c-1.1,0.2-1.8,1.2-1.6,2.3l1.3,7.9c0.2,1,1,1.7,2,1.7c0.1,0,0.2,0,0.3,0
		l7.9-1.3c1.1-0.2,1.8-1.2,1.6-2.3L53.3,74.7z M46.4,81.9L45.8,78l3.9-0.7l0.7,3.9L46.4,81.9z"/>
	<path d="M69.1,72c-0.1-0.5-0.4-1-0.8-1.3c-0.4-0.3-1-0.4-1.5-0.3l-7.9,1.3c-1.1,0.2-1.8,1.2-1.6,2.3l1.3,7.9c0.1,0.5,0.4,1,0.8,1.3
		c0.3,0.2,0.8,0.4,1.2,0.4c0.1,0,0.2,0,0.3,0l7.9-1.3c1.1-0.2,1.8-1.2,1.6-2.3L69.1,72z M62.2,79.2l-0.7-3.9l3.9-0.7l0.7,4
		L62.2,79.2z"/>
	<path d="M84.9,69.3c-0.2-1.1-1.2-1.8-2.3-1.6L74.7,69c-1.1,0.2-1.8,1.2-1.6,2.3l1.3,7.9c0.2,1,1,1.7,2,1.7c0.1,0,0.2,0,0.3,0
		l7.9-1.3c1.1-0.2,1.8-1.2,1.6-2.3L84.9,69.3z M78,76.6l-0.7-3.9l4-0.7l0.7,3.9L78,76.6z"/>
</g>
</svg>
