<?xml version="1.0" encoding="utf-8"?>
<!-- Generator: Adobe Illustrator 21.0.2, SVG Export Plug-In . SVG Version: 6.00 Build 0)  -->
<svg version="1.1" id="Layer_1" xmlns="http://www.w3.org/2000/svg" xmlns:xlink="http://www.w3.org/1999/xlink" x="0px" y="0px"
	 viewBox="0 0 100 100" style="enable-background:new 0 0 100 100;" xml:space="preserve">
<g>
	<path d="M90.8,80.5l-8-47.3c-0.2-1-1-1.7-2-1.7c-0.1,0-0.2,0-0.3,0l-12.2,2.1c-0.7,1.2-1.8,2.2-3.1,2.9v26.7c0,3.3-2.7,6-6,6h-23
		l3.4,20c0.1,0.5,0.4,1,0.8,1.3c0.4,0.3,1,0.4,1.5,0.3l47.3-8C90.3,82.6,91,81.6,90.8,80.5z M44.8,84.2l-1.3-7.9l7.9-1.3l1.3,7.9
		L44.8,84.2z M60.6,81.6l-1.3-7.9l7.9-1.3l1.3,7.9L60.6,81.6z M69.7,39.5l7.9-1.3l1.3,7.9L71,47.3L69.7,39.5z M72.3,55.2l7.9-1.3
		l1.3,7.9l-7.9,1.3L72.3,55.2z M76.3,78.9L75,71l7.9-1.3l1.3,7.9L76.3,78.9z"/>
	<path d="M61.2,63.2V37.1c-3.4-0.5-6-3.4-6-6.9v-1c0-1.1-0.9-2-2-2s-2,0.9-2,2v6h4v8h-8v-2.4c-0.6,0.2-1.3,0.4-2,0.4
		c-3.3,0-6-2.7-6-6v8h-8v-8h8v-10c0-1.1-0.9-2-2-2s-2,0.9-2,2v1c0,3.9-3.1,7-7,7c-3.5,0-6.4-2.6-6.9-6h-6.1v-8h6v-6h-10
		c-1.1,0-2,0.9-2,2v48c0,1.1,0.9,2,2,2h48C60.3,65.2,61.2,64.3,61.2,63.2z M23.2,59.2h-8v-8h8V59.2z M23.2,43.2h-8v-8h8V43.2z
		 M39.2,59.2h-8v-8h8V59.2z M55.2,59.2h-8v-8h8V59.2z"/>
	<path d="M28.2,29.2c1.7,0,3-1.4,3-3v-1c0-3.3,2.7-6,6-6s6,2.7,6,6v10c0,1.1,0.9,2,2,2s2-0.9,2-2v-6c0-3.3,2.7-6,6-6s6,2.7,6,6v1
		c0,1.6,1.3,3,3,3s3-1.4,3-3v-19c0-1.1-0.9-2-2-2h-36c-1.1,0-2,0.9-2,2v15C25.2,27.8,26.5,29.2,28.2,29.2z"/>
</g>
</svg>
