<?xml version="1.0" encoding="utf-8"?>
<!-- Generator: Adobe Illustrator 21.0.2, SVG Export Plug-In . SVG Version: 6.00 Build 0)  -->
<svg version="1.1" id="Layer_1" xmlns="http://www.w3.org/2000/svg" xmlns:xlink="http://www.w3.org/1999/xlink" x="0px" y="0px"
	 viewBox="0 0 100 100" style="enable-background:new 0 0 100 100;" xml:space="preserve">
<path d="M94.6,41.5C94.9,27.8,83.9,16.3,70.2,16c-13.8-0.3-25.2,10.7-25.5,24.4c0,0.2,0,0.4,0.1,0.5h33.8c-0.5-2.9-3-5-5.9-5H49.2
	c2.3-9.2,10.6-16,20.4-16h0.4c11.6,0.2,20.8,9.9,20.6,21.5c-0.2,6.9-3.6,13.1-9.2,16.9L79.2,45h-35l-1.7,10.1L23.1,37.8L22.4,30
	l-4.2-4.2L5.4,38.5l4.2,4.2l7.8,0.7l22.8,25.5L38.8,77c-0.6,3.7,2.2,7,5.9,7h33.8c3.7,0,6.5-3.3,5.9-7l-2.4-14.4
	c0.1,0,0.3-0.1,0.4-0.2C89.9,58,94.4,50.2,94.6,41.5z"/>
</svg>
