<?xml version="1.0" encoding="utf-8"?>
<!-- Generator: Adobe Illustrator 21.0.2, SVG Export Plug-In . SVG Version: 6.00 Build 0)  -->
<svg version="1.1" id="Layer_1" xmlns="http://www.w3.org/2000/svg" xmlns:xlink="http://www.w3.org/1999/xlink" x="0px" y="0px"
	 viewBox="0 0 100 100" style="enable-background:new 0 0 100 100;" xml:space="preserve">
<g>
	<path d="M21.2,41.7c0.7-0.7,1.5-1.2,2.5-1.5c2.4-0.8,5-0.2,6.8,1.5c4.1,4.1,10.8,4.1,14.9,0c1.2-1.2,2.9-1.9,4.6-1.9
		c1.7,0,3.4,0.7,4.6,1.9c2.1,2.1,4.8,3.1,7.5,3.1s5.4-1,7.5-3.1c1.8-1.8,4.4-2.4,6.8-1.5c0.9,0.3,1.8,0.8,2.5,1.5
		c4.1,4.1,10.8,4.1,14.9,0c0.8-0.8,0.8-2,0-2.8c-0.8-0.8-2-0.8-2.8,0c-2.5,2.5-6.7,2.5-9.2,0c-0.2-0.2-0.4-0.4-0.6-0.6l6.2-6.8
		l-5.3-6l3.8-3.3l-4-4.5L75.4,18l-9.8,8.5l4.6,5.3L69.3,37c-1,0.5-1.9,1.1-2.6,1.9c-2.5,2.5-6.7,2.5-9.2,0c-2-2-4.6-3.1-7.5-3.1
		c-2.1,0-4,0.6-5.7,1.7L43,34.6v-0.1h0l-5.3-12.2c-0.5-1.2-1.7-2.1-3-2.3l-5-0.9l-1.2-2.8l-9.2,4l1.2,2.7l-2.7,4.3
		c-0.7,1.1-0.8,2.5-0.3,3.8l2.8,6.3c-0.7,0.4-1.3,0.9-1.8,1.5c-2.5,2.5-6.7,2.5-9.2,0c-0.8-0.8-2-0.8-2.8,0c-0.8,0.8-0.8,2,0,2.8
		C10.4,45.8,17.1,45.8,21.2,41.7z"/>
	<path d="M93.7,86.9c-0.8-0.8-2-0.8-2.8,0c-1.2,1.2-2.9,1.9-4.6,1.9c-1.7,0-3.4-0.7-4.6-1.9c-0.1-0.1-0.2-0.1-0.3-0.2l6.9-25.8
		l-9.7-2.6L77,64c-0.6,2.1-2.8,3.4-4.9,2.8l-1.9-0.5c-2.1-0.6-3.4-2.8-2.8-4.9l1.5-5.8l-9.7-2.6L51,83.9c-3-0.3-6.2,0.7-8.5,3
		c-1.2,1.2-2.9,1.9-4.6,1.9c-1.4,0-2.8-0.5-3.9-1.3c1.7-1.3,3-3.1,3.8-5.2c0.4-1-0.1-2.1-1.1-2.5c-1.1-0.5-2.6-2-3.7-4.6
		s-1.3-4.7-0.9-5.8c0.3-1-0.2-2.1-1.2-2.5c-2.3-0.9-4.8-1-7.1-0.5c-0.4-1.8-0.1-3.8,0.9-5.4c0.5-1,0.2-2.2-0.8-2.7
		c-1-0.5-2.2-0.2-2.7,0.8c-1.5,2.7-1.9,6-1.1,9c-2.1,1.4-3.8,3.4-4.7,5.8c-0.4,1,0.1,2.1,1.1,2.5c1.1,0.5,2.6,2,3.7,4.5
		c0.6,1.3,1,2.7,1,3.9c-1.1,0.5-2,1.2-2.9,2c-1.2,1.2-2.9,1.9-4.6,1.9s-3.4-0.7-4.6-1.9c-0.8-0.8-2-0.8-2.8,0c-0.8,0.8-0.8,2,0,2.8
		c2,2,4.6,3.1,7.5,3.1s5.5-1.1,7.4-3.1c0.7-0.7,1.5-1.2,2.5-1.5c2.4-0.8,5-0.2,6.8,1.5c2,2,4.6,3.1,7.5,3.1s5.5-1.1,7.4-3.1
		c2.5-2.5,6.7-2.5,9.2,0c2,2,4.6,3.1,7.4,3.1s5.5-1.1,7.4-3.1c1.8-1.8,4.4-2.4,6.8-1.5c0.9,0.3,1.8,0.8,2.5,1.5c2,2,4.6,3.1,7.5,3.1
		s5.5-1.1,7.4-3.1C94.4,88.9,94.4,87.7,93.7,86.9z"/>
	<polygon points="26.9,12.7 24.5,7.2 15.3,11.2 17.7,16.7 	"/>
</g>
</svg>
