<?xml version="1.0" encoding="utf-8"?>
<!-- Generator: Adobe Illustrator 21.0.2, SVG Export Plug-In . SVG Version: 6.00 Build 0)  -->
<svg version="1.1" id="Layer_1" xmlns="http://www.w3.org/2000/svg" xmlns:xlink="http://www.w3.org/1999/xlink" x="0px" y="0px"
	 viewBox="0 0 100 100" style="enable-background:new 0 0 100 100;" xml:space="preserve">
<g>
	<path d="M13.8,71.7c2.7,0,5.4-1,7.4-3.1c0.7-0.7,1.5-1.2,2.5-1.5c2.4-0.8,5-0.2,6.8,1.5c4.1,4.1,10.8,4.1,14.9,0
		c2.5-2.5,6.7-2.5,9.2,0c4.1,4.1,10.8,4.1,14.9,0c1.8-1.8,4.4-2.4,6.8-1.5c0.9,0.3,1.8,0.8,2.5,1.5c4.1,4.1,10.8,4.1,14.9,0
		c0.8-0.8,0.8-2,0-2.8s-2-0.8-2.8,0c-2.5,2.5-6.7,2.5-9.2,0c-1.1-1.1-2.5-2-4-2.5c-3.8-1.3-8.1-0.4-10.9,2.5c-2.5,2.5-6.7,2.5-9.2,0
		c-4.1-4.1-10.8-4.1-14.9,0c-2.5,2.5-6.7,2.5-9.2,0c-2.8-2.8-7.1-3.8-10.9-2.5c-1.5,0.5-2.8,1.4-4,2.5c-1.2,1.2-2.9,1.9-4.6,1.9
		c-1.7,0-3.4-0.7-4.6-1.9c-0.8-0.8-2-0.8-2.8,0c-0.8,0.8-0.8,2,0,2.8C8.4,70.7,11.1,71.7,13.8,71.7z"/>
	<path d="M90.8,87.8c-2.5,2.5-6.7,2.5-9.2,0c-1.1-1.1-2.5-2-4-2.5c-3.8-1.3-8.1-0.4-10.9,2.5c-2.5,2.5-6.7,2.5-9.2,0
		c-4.1-4.1-10.8-4.1-14.9,0c-2.5,2.5-6.7,2.5-9.2,0c-2.8-2.8-7.1-3.8-10.9-2.5c-1.5,0.5-2.8,1.4-4,2.5c-1.2,1.2-2.9,1.9-4.6,1.9
		c-1.7,0-3.4-0.7-4.6-1.9c-0.8-0.8-2-0.8-2.8,0c-0.8,0.8-0.8,2,0,2.8c2.1,2.1,4.8,3.1,7.4,3.1c2.7,0,5.4-1,7.4-3.1
		c0.7-0.7,1.5-1.2,2.5-1.5c2.4-0.8,5-0.2,6.8,1.5c4.1,4.1,10.8,4.1,14.9,0c2.5-2.5,6.7-2.5,9.2,0c4.1,4.1,10.8,4.1,14.9,0
		c1.8-1.8,4.4-2.4,6.8-1.5c0.9,0.3,1.8,0.8,2.5,1.5c4.1,4.1,10.8,4.1,14.9,0c0.8-0.8,0.8-2,0-2.8S91.6,87.1,90.8,87.8z"/>
	<path d="M13,28.3h26l8,4h6c1,0,1.9-0.4,2.6-1c4.1,0.3,7.4,3.8,7.4,8v15c0,1.1,0.9,2,2,2s2-0.9,2-2v-15c0-5.9-4.3-10.9-10-11.8V14.3
		h3.4c5.2,0,10.2,1.6,14.4,4.7C81.2,23.5,85,31,85,38.9v15.4c0,1.1,0.9,2,2,2s2-0.9,2-2V38.9c0-9.2-4.4-17.8-11.9-23.2
		c-4.9-3.5-10.7-5.4-16.7-5.4H57c0-2.2-1.8-4-4-4h-4v16c0,1.1-0.9,2-2,2s-2-0.9-2-2v-15l-6,3H13c-2.2,0-4,1.8-4,4v10
		C9,26.5,10.8,28.3,13,28.3z"/>
	<path d="M77,42.3c1.1,0,2-0.9,2-2v-3c0-3.8-1.8-7.3-4.8-9.6c-0.9-0.7-2.1-0.5-2.8,0.4c-0.7,0.9-0.5,2.1,0.4,2.8
		c2,1.5,3.2,3.9,3.2,6.4v3C75,41.4,75.9,42.3,77,42.3z"/>
	<circle cx="65" cy="22.3" r="2"/>
	<circle cx="73" cy="49.3" r="2"/>
	<circle cx="80" cy="56.3" r="2"/>
	<circle cx="88" cy="82.3" r="2"/>
	<circle cx="75" cy="74.3" r="2"/>
	<circle cx="62" cy="82.3" r="2"/>
	<circle cx="43" cy="76.3" r="2"/>
	<circle cx="9" cy="76.3" r="2"/>
	<circle cx="25" cy="80.3" r="2"/>
</g>
</svg>
