<?xml version="1.0" encoding="utf-8"?>
<!-- Generator: Adobe Illustrator 21.0.2, SVG Export Plug-In . SVG Version: 6.00 Build 0)  -->
<svg version="1.1" id="Layer_1" xmlns="http://www.w3.org/2000/svg" xmlns:xlink="http://www.w3.org/1999/xlink" x="0px" y="0px"
	 viewBox="0 0 100 100" style="enable-background:new 0 0 100 100;" xml:space="preserve">
<path d="M84.6,57.9c6.6-4.7,10.6-12.2,10.6-20.4c0-13.8-11.2-25-25-25c-13.7,0-24.9,11.1-25,24.8l-2.6,15.4L26.5,38.3l-0.6-7
	c0-0.5-0.2-0.9-0.6-1.2L21,25.8c-0.8-0.8-2-0.8-2.8,0L5.4,38.5c-0.8,0.8-0.8,2,0,2.8l4.2,4.2c0.3,0.3,0.8,0.5,1.2,0.6l7,0.6L39.5,71
	l-1.2,7.2c-0.4,2.3,0.3,4.7,1.8,6.5c1.5,1.8,3.8,2.8,6.1,2.8h33.8c2.4,0,4.6-1,6.1-2.8c1.5-1.8,2.2-4.2,1.8-6.5L84.6,57.9z
	 M70.1,16.5c11.6,0,21,9.4,21,21c0,6.2-2.7,12-7.3,15.9L83,48.6c2.7-3.1,4.1-7,4.1-11.1c0-9.4-7.6-17-17-17c-8.7,0-15.9,6.6-16.9,15
	h-4C50.2,24.9,59.2,16.5,70.1,16.5z M82,42.7l-0.1-0.5c-0.7-3.9-4-6.7-7.9-6.7H57.3c1-6.2,6.3-11,12.8-11c7.2,0,13,5.8,13,13
	C83.1,39.3,82.7,41.1,82,42.7z M48.8,39.5h25.2c2,0,3.6,1.4,3.9,3.3l0.5,2.7H47.8L48.8,39.5z M83.1,82.1c-0.8,0.9-1.9,1.4-3,1.4
	H46.2c-1.2,0-2.3-0.5-3-1.4c-0.8-0.9-1.1-2.1-0.9-3.2l1.4-8.1c0.1-0.6-0.1-1.2-0.5-1.7L20.4,43.6c-0.3-0.4-0.8-0.6-1.3-0.7L12,42.3
	L9.7,40l9.9-9.9l2.3,2.3l0.6,7.1c0.1,0.5,0.3,1,0.7,1.3l19.4,17.4c0.5,0.5,1.3,0.6,2,0.4s1.2-0.8,1.3-1.6l1.2-7.4h31.9L84,78.8
	C84.2,80,83.9,81.2,83.1,82.1z"/>
</svg>
