<?xml version="1.0" encoding="utf-8"?>
<!-- Generator: Adobe Illustrator 21.0.2, SVG Export Plug-In . SVG Version: 6.00 Build 0)  -->
<svg version="1.1" id="Layer_1" xmlns="http://www.w3.org/2000/svg" xmlns:xlink="http://www.w3.org/1999/xlink" x="0px" y="0px"
	 viewBox="0 0 100 100" style="enable-background:new 0 0 100 100;" xml:space="preserve">
<g>
	<path d="M82,66.8c-1.1-1.1-2.5-2-4-2.5c-3.8-1.3-8.1-0.4-10.9,2.5c-2.5,2.5-6.7,2.5-9.2,0c-4.1-4.1-10.8-4.1-14.9,0
		c-2.5,2.5-6.7,2.5-9.2,0c-2.8-2.8-7.1-3.8-10.9-2.5c-1.5,0.5-2.8,1.4-4,2.5c-1.2,1.2-2.9,1.9-4.6,1.9c-1.7,0-3.4-0.7-4.6-1.9
		c-0.8-0.8-2-0.8-2.8,0c-0.8,0.8-0.8,2,0,2.8c2.1,2.1,4.8,3.1,7.4,3.1c2.7,0,5.4-1,7.4-3.1c0.7-0.7,1.5-1.2,2.5-1.5
		c2.4-0.8,5-0.2,6.8,1.5c4.1,4.1,10.8,4.1,14.9,0c2.5-2.5,6.7-2.5,9.2,0c4.1,4.1,10.8,4.1,14.9,0c1.8-1.8,4.4-2.4,6.8-1.5
		c0.9,0.3,1.8,0.8,2.5,1.5c4.1,4.1,10.8,4.1,14.9,0c0.8-0.8,0.8-2,0-2.8s-2-0.8-2.8,0C88.7,69.4,84.5,69.4,82,66.8z"/>
	<path d="M91.2,88.8c-2.5,2.5-6.7,2.5-9.2,0c-1.1-1.1-2.5-2-4-2.5c-3.8-1.3-8.1-0.4-10.9,2.5c-2.5,2.5-6.7,2.5-9.2,0
		c-4.1-4.1-10.8-4.1-14.9,0c-2.5,2.5-6.7,2.5-9.2,0c-2.8-2.8-7.1-3.8-10.9-2.5c-1.5,0.5-2.8,1.4-4,2.5c-1.2,1.2-2.9,1.9-4.6,1.9
		c-1.7,0-3.4-0.7-4.6-1.9c-0.8-0.8-2-0.8-2.8,0c-0.8,0.8-0.8,2,0,2.8c2.1,2.1,4.8,3.1,7.4,3.1c2.7,0,5.4-1,7.4-3.1
		c0.7-0.7,1.5-1.2,2.5-1.5c2.4-0.8,5-0.2,6.8,1.5c4.1,4.1,10.8,4.1,14.9,0c2.5-2.5,6.7-2.5,9.2,0c4.1,4.1,10.8,4.1,14.9,0
		c1.8-1.8,4.4-2.4,6.8-1.5c0.9,0.3,1.8,0.8,2.5,1.5c4.1,4.1,10.8,4.1,14.9,0c0.8-0.8,0.8-2,0-2.8S92,88.1,91.2,88.8z"/>
	<path d="M11.4,31.3h25.5l7.6,3.8c0.3,0.1,0.6,0.2,0.9,0.2h6c2.2,0,4.1-1.2,5.1-2.9c3.9,0.6,6.9,3.9,6.9,7.9v15c0,1.1,0.9,2,2,2
		s2-0.9,2-2v-15c0-5.9-4.3-10.9-10-11.8V15.3h3.4c5.2,0,10.2,1.6,14.4,4.7c6.4,4.6,10.2,12.1,10.2,19.9v15.4c0,1.1,0.9,2,2,2
		s2-0.9,2-2V39.9c0-9.2-4.4-17.8-11.9-23.2c-4.9-3.5-10.7-5.4-16.7-5.4h-3.4c0-3.3-2.7-6-6-6h-6c-0.3,0-0.6,0.1-0.9,0.2l-7.6,3.8
		H11.4c-3.3,0-6,2.7-6,6v10C5.4,28.6,8.1,31.3,11.4,31.3z M9.4,15.3c0-1.1,0.9-2,2-2h26c0.3,0,0.6-0.1,0.9-0.2l5.1-2.5v12.8
		c0,1.1,0.9,2,2,2s2-0.9,2-2v-14h4c1.1,0,2,0.9,2,2v18c0,1.1-0.9,2-2,2h-5.5l-7.6-3.8c-0.3-0.1-0.6-0.2-0.9-0.2h-26
		c-1.1,0-2-0.9-2-2V15.3z"/>
	<path d="M74.6,28.7c-0.9-0.7-2.1-0.5-2.8,0.4c-0.7,0.9-0.5,2.1,0.4,2.8c2,1.5,3.2,3.9,3.2,6.4v3c0,1.1,0.9,2,2,2s2-0.9,2-2v-3
		C79.4,34.5,77.6,30.9,74.6,28.7z"/>
	<circle cx="65.4" cy="23.3" r="2"/>
	<circle cx="73.4" cy="50.3" r="2"/>
	<circle cx="80.4" cy="57.3" r="2"/>
	<circle cx="88.4" cy="83.3" r="2"/>
	<circle cx="75.4" cy="75.3" r="2"/>
	<circle cx="62.4" cy="83.3" r="2"/>
	<circle cx="43.4" cy="77.3" r="2"/>
	<circle cx="9.4" cy="77.3" r="2"/>
	<circle cx="25.4" cy="81.3" r="2"/>
</g>
</svg>
