<?xml version="1.0" encoding="utf-8"?>
<!-- Generator: Adobe Illustrator 21.0.2, SVG Export Plug-In . SVG Version: 6.00 Build 0)  -->
<svg version="1.1" id="Layer_1" xmlns="http://www.w3.org/2000/svg" xmlns:xlink="http://www.w3.org/1999/xlink" x="0px" y="0px"
	 viewBox="0 0 100 100" style="enable-background:new 0 0 100 100;" xml:space="preserve">
<g>
	<path d="M21.2,41.2c0.7-0.7,1.5-1.2,2.5-1.5c2.4-0.8,5-0.2,6.8,1.5c4.1,4.1,10.8,4.1,14.9,0c1.2-1.2,2.9-1.9,4.6-1.9
		c1.7,0,3.4,0.7,4.6,1.9c2.1,2.1,4.8,3.1,7.5,3.1s5.4-1,7.5-3.1c1.8-1.8,4.4-2.4,6.8-1.5c0.9,0.3,1.8,0.8,2.5,1.5
		c4.1,4.1,10.8,4.1,14.9,0c0.8-0.8,0.8-2,0-2.8c-0.8-0.8-2-0.8-2.8,0c-2.3,2.3-5.8,2.5-8.3,0.8l6.2-6.7c0.7-0.8,0.7-1.9,0-2.7
		l-3.9-4.5l2.3-2c0.4-0.3,0.6-0.8,0.7-1.4c0-0.5-0.1-1.1-0.5-1.5l-3.9-4.5c-0.4-0.5-1-0.7-1.6-0.7l-6.4,0.3c-0.5,0-0.9,0.2-1.2,0.5
		l-9.8,8.5c-0.8,0.7-0.9,2-0.2,2.8l4,4.6l-1,6.1c-0.1,0.1-0.2,0.2-0.4,0.3c-2.5,2.5-6.7,2.5-9.2,0c-2-2-4.6-3.1-7.5-3.1
		c-2.8,0-5.5,1.1-7.4,3.1c-0.2,0.2-0.4,0.3-0.6,0.5L35.5,24c-0.8-1.8-2.5-3.1-4.5-3.5l-3.9-0.7l-1.6-3.6c0,0,0,0,0,0l-3.2-7.3
		C22,8.4,21.7,8,21.2,7.8c-0.5-0.2-1-0.2-1.5,0l-9.2,4c-1,0.4-1.5,1.6-1,2.6l4.8,10.9l-2.2,3.4c-1.1,1.7-1.2,3.8-0.4,5.6l2.5,5.8
		c-1.8,0.1-3.7-0.5-5-1.9c-0.8-0.8-2-0.8-2.8,0c-0.8,0.8-0.8,2,0,2.8C10.4,45.3,17.1,45.3,21.2,41.2z M76.1,19.5l4.7-0.2l2,2.3
		l-2.3,2l-2.3,2c-0.8,0.7-0.9,2-0.2,2.8c0.7,0.8,2,0.9,2.8,0.2l0.8-0.7l2.8,3.2l-5.2,5.6c-0.5-0.3-1.1-0.6-1.7-0.8
		c-2-0.7-4.1-0.8-6.1-0.2l0.7-4c0.1-0.6-0.1-1.2-0.5-1.6l-3.3-3.8L76.1,19.5z M22.6,19.7l1.2,2.8c0.3,0.6,0.8,1,1.5,1.2l5,0.9
		c0.7,0.1,1.2,0.6,1.5,1.2l6.4,14.7c-1.8,0.1-3.6-0.5-4.9-1.9c-2.8-2.8-7.1-3.8-10.9-2.5c-1.5,0.5-2.8,1.4-4,2.5
		c-0.2,0.2-0.3,0.3-0.5,0.4l-2.6-6c-0.3-0.6-0.2-1.3,0.2-1.9l2.7-4.3c0.4-0.6,0.4-1.3,0.2-1.9l-1.2-2.8L22.6,19.7z M13.9,14.8
		l5.5-2.4L21,16l-5.5,2.4L13.9,14.8z"/>
	<path d="M90.8,86.4c-1.2,1.2-2.9,1.9-4.6,1.9c-0.2,0-0.5,0-0.7,0l8.6-23.5c0.4-1-0.2-2.2-1.2-2.6l-9.4-3.5c-0.5-0.2-1-0.2-1.5,0.1
		c-0.5,0.2-0.9,0.6-1,1.1l-2.1,5.6c-0.4,1-1.5,1.6-2.6,1.2l-1.9-0.7c-1-0.4-1.6-1.5-1.2-2.6l2.1-5.6c0.4-1-0.2-2.2-1.2-2.6l-9.4-3.5
		c-0.5-0.2-1-0.2-1.5,0.1c-0.5,0.2-0.9,0.6-1,1.1l-11,30c0,0.1-0.1,0.2-0.1,0.3c-3.1-0.3-6.2,0.7-8.6,3c-1.2,1.2-2.9,1.9-4.6,1.9
		c-1.4,0-2.8-0.5-3.9-1.3c1.7-1.3,3-3.1,3.8-5.2c0.4-1-0.1-2.1-1.1-2.5c-1.1-0.5-2.6-2-3.8-4.6c-1.1-2.5-1.2-4.7-0.9-5.8
		c0.3-1-0.2-2.1-1.2-2.5c-2.3-0.9-4.8-1.1-7.1-0.5c-0.4-1.8-0.1-3.8,0.8-5.4c0.5-1,0.2-2.2-0.8-2.7c-1-0.5-2.2-0.2-2.7,0.8
		c-1.5,2.7-1.9,6-1.1,9c-2.1,1.4-3.8,3.4-4.7,5.8c-0.4,1,0.1,2.1,1.1,2.5c1,0.5,2.6,2,3.8,4.5c0.6,1.3,1,2.7,1,3.9
		c-1.1,0.5-2.1,1.2-2.9,2c-1.2,1.2-2.9,1.9-4.6,1.9c-1.7,0-3.4-0.7-4.6-1.9c-0.8-0.8-2-0.8-2.8,0c-0.8,0.8-0.8,2,0,2.8
		c2,2,4.6,3.1,7.5,3.1c2.8,0,5.5-1.1,7.5-3.1c0.7-0.7,1.5-1.2,2.5-1.5c2.4-0.8,5-0.2,6.8,1.5c2,2,4.6,3.1,7.4,3.1
		c2.8,0,5.5-1.1,7.5-3.1c2.5-2.5,6.7-2.5,9.2,0c2,2,4.6,3.1,7.5,3.1c2.8,0,5.5-1.1,7.5-3.1c1.8-1.8,4.4-2.4,6.8-1.5
		c0.9,0.3,1.8,0.8,2.5,1.5c2,2,4.6,3.1,7.5,3.1c2.8,0,5.5-1.1,7.5-3.1c0.8-0.8,0.8-2,0-2.8C92.9,85.6,91.6,85.6,90.8,86.4z
		 M30.6,84.5c-1.7-0.8-3.5-1.2-5.4-1.1c-0.2-1.5-0.6-3-1.3-4.5c-1-2.3-2.5-4.2-4-5.5c0.8-1.3,2-2.4,3.5-3c1.5-0.7,3-0.9,4.6-0.6
		c-0.1,2,0.4,4.3,1.4,6.7c1,2.3,2.5,4.2,4,5.5C32.7,82.9,31.8,83.8,30.6,84.5z M81.6,86.4c-1.1-1.1-2.5-2-4-2.5
		c-3.8-1.3-8.1-0.3-10.9,2.5c-1.2,1.2-2.9,1.9-4.6,1.9c-1.8,0-3.4-0.7-4.6-1.9c-0.8-0.8-1.6-1.4-2.5-1.9c0,0,0,0,0-0.1l10.4-28.2
		l5.6,2.1l-1.4,3.8c-0.5,1.5-0.5,3.1,0.2,4.6c0.7,1.5,1.9,2.6,3.4,3.1l1.9,0.7c3.1,1.1,6.6-0.5,7.7-3.6l1.4-3.8l5.6,2.1l-7.9,21.4
		C81.8,86.5,81.7,86.5,81.6,86.4z"/>
</g>
</svg>
