<?xml version="1.0" encoding="utf-8"?>
<!-- Generator: Adobe Illustrator 21.0.2, SVG Export Plug-In . SVG Version: 6.00 Build 0)  -->
<svg version="1.1" id="Layer_1" xmlns="http://www.w3.org/2000/svg" xmlns:xlink="http://www.w3.org/1999/xlink" x="0px" y="0px"
	 viewBox="0 0 100 100" style="enable-background:new 0 0 100 100;" xml:space="preserve">
<g>
	<path d="M43.9,73.3c-4.2,2.8-7.6,6.7-9.9,11.2V71.6c4-1.1,7.2-3.8,8.9-7.6c1.7-3.5,1.8-7.4,0.4-11c1.2-3.3,1.2-6.8,0-10
		c1.2-3.3,1.2-6.8,0-10c1.5-3.9,1.2-8.2-0.9-12c-0.4-0.7-1.3-1.1-2.1-1c-0.6,0.1-1.1,0.2-1.6,0.4c0.3-1.1,0.4-2.3,0.4-3.5
		c0-4.6-2.2-8.8-5.9-11.5c-0.7-0.5-1.6-0.5-2.3,0c-3.8,2.7-5.9,6.9-5.9,11.5c0,1.2,0.1,2.3,0.4,3.5c-0.5-0.2-1.1-0.3-1.6-0.4
		c-0.8-0.2-1.7,0.2-2.1,1c-2.1,3.7-2.4,8-0.9,12c-1.2,3.2-1.2,6.7,0,10c-1.2,3.2-1.2,6.7,0,10c-1.4,3.6-1.3,7.5,0.4,11
		c1.8,3.8,5,6.5,8.9,7.6v12.9c-2.3-4.5-5.7-8.4-9.9-11.2c-0.9-0.6-2.2-0.4-2.8,0.5c-0.6,0.9-0.4,2.2,0.5,2.8
		c3.6,2.4,6.6,5.8,8.5,9.7l3.8,7.5c0.3,0.7,1,1.1,1.8,1.1s1.5-0.4,1.8-1.1l3.8-7.5c2-3.9,4.9-7.2,8.5-9.7c0.9-0.6,1.2-1.8,0.5-2.8
		C46,72.9,44.8,72.7,43.9,73.3z M39.6,24.3c0.7,1.8,0.9,3.8,0.4,5.8c-2.8,0.6-5.4,2-7.3,4c0-1.5,0.3-3,1-4.4
		C34.9,27.1,37,25.2,39.6,24.3z M40,40.1c-2.8,0.6-5.4,2-7.3,4c0-1.5,0.3-3,1-4.4c1.2-2.6,3.3-4.4,5.9-5.3
		C40.3,36.2,40.5,38.2,40,40.1z M40,50.1c-2.8,0.6-5.4,2-7.3,4c0-1.5,0.3-3,1-4.4c1.2-2.6,3.3-4.4,5.9-5.3
		C40.3,46.2,40.5,48.2,40,50.1z M29.1,66.9c-1.9-1-3.4-2.6-4.4-4.6c-1.2-2.6-1.3-5.4-0.3-7.9c2.3,0.8,4.1,2.3,5.4,4.3
		C28.7,61.3,28.5,64.2,29.1,66.9z M28.9,52.1c-1.5-0.9-3.1-1.6-4.9-2c-0.4-1.9-0.3-3.9,0.4-5.8c2.3,0.8,4.1,2.3,5.4,4.3
		C29.3,49.8,29,50.9,28.9,52.1z M28.9,42.1c-1.5-0.9-3.1-1.6-4.9-2c-0.4-1.9-0.3-3.9,0.4-5.8c2.3,0.8,4.1,2.3,5.4,4.3
		C29.3,39.8,29,40.9,28.9,42.1z M28.9,32.1c-1.5-0.9-3.1-1.6-4.9-2c-0.4-1.9-0.3-3.9,0.4-5.8c2.3,0.8,4.1,2.3,5.4,4.3
		C29.3,29.8,29,30.9,28.9,32.1z M28.9,17c0-2.8,1.1-5.4,3.1-7.3c2,1.9,3.1,4.5,3.1,7.3c0,2.8-1.1,5.4-3.1,7.3
		C30,22.4,28.9,19.8,28.9,17z M33.4,67.6c-1-2.6-0.9-5.4,0.3-7.9c1.2-2.6,3.3-4.4,5.9-5.3c1,2.6,0.9,5.4-0.3,7.9
		C38.1,64.8,36,66.7,33.4,67.6z"/>
	<path d="M82.7,73.8c-0.6-0.9-1.8-1.2-2.8-0.5c-4.2,2.8-7.6,6.7-9.9,11.2V71.6c4-1.1,7.2-3.8,8.9-7.6c1.7-3.5,1.8-7.4,0.4-11
		c1.2-3.3,1.2-6.8,0-10c1.2-3.3,1.2-6.8,0-10c1.5-3.9,1.2-8.2-0.9-12c-0.4-0.7-1.3-1.1-2.1-1c-0.6,0.1-1.1,0.2-1.6,0.4
		c0.3-1.1,0.4-2.3,0.4-3.5c0-4.6-2.2-8.8-5.9-11.5c-0.7-0.5-1.6-0.5-2.3,0c-3.8,2.7-5.9,6.9-5.9,11.5c0,1.2,0.1,2.3,0.4,3.5
		c-0.5-0.2-1.1-0.3-1.6-0.4c-0.8-0.2-1.7,0.2-2.1,1c-2.1,3.7-2.4,8-0.9,12c-1.2,3.2-1.2,6.7,0,10c-1.2,3.2-1.2,6.7,0,10
		c-1.4,3.6-1.3,7.5,0.4,11c1.8,3.8,5,6.5,8.9,7.6v12.9c-2.3-4.5-5.7-8.4-9.9-11.2c-0.9-0.6-2.2-0.4-2.8,0.5
		c-0.6,0.9-0.4,2.2,0.5,2.8c3.6,2.4,6.6,5.8,8.5,9.7l3.8,7.5c0.3,0.7,1,1.1,1.8,1.1s1.5-0.4,1.8-1.1l3.8-7.5c2-3.9,4.9-7.2,8.5-9.7
		C83,76,83.3,74.8,82.7,73.8z M75.6,24.3c0.7,1.8,0.9,3.8,0.4,5.8c-2.8,0.6-5.4,2-7.3,4c0-1.5,0.3-3,1-4.4
		C70.9,27.1,73,25.2,75.6,24.3z M76,40.1c-2.8,0.6-5.4,2-7.3,4c0-1.5,0.3-3,1-4.4c1.2-2.6,3.3-4.4,5.9-5.3
		C76.3,36.2,76.5,38.2,76,40.1z M76,50.1c-2.8,0.6-5.4,2-7.3,4c0-1.5,0.3-3,1-4.4c1.2-2.6,3.3-4.4,5.9-5.3
		C76.3,46.2,76.5,48.2,76,50.1z M65.1,66.9c-1.9-1-3.4-2.6-4.4-4.6c-1.2-2.6-1.3-5.4-0.3-7.9c2.3,0.8,4.1,2.3,5.4,4.3
		C64.7,61.3,64.5,64.2,65.1,66.9z M64.9,52.1c-1.5-0.9-3.1-1.6-4.9-2c-0.4-1.9-0.3-3.9,0.4-5.8c2.3,0.8,4.1,2.3,5.4,4.3
		C65.3,49.8,65,50.9,64.9,52.1z M64.9,42.1c-1.5-0.9-3.1-1.6-4.9-2c-0.4-1.9-0.3-3.9,0.4-5.8c2.3,0.8,4.1,2.3,5.4,4.3
		C65.3,39.8,65,40.9,64.9,42.1z M64.9,32.1c-1.5-0.9-3.1-1.6-4.9-2c-0.4-1.9-0.3-3.9,0.4-5.8c2.3,0.8,4.1,2.3,5.4,4.3
		C65.3,29.8,65,30.9,64.9,32.1z M64.9,17c0-2.8,1.1-5.4,3.1-7.3c2,1.9,3.1,4.5,3.1,7.3c0,2.8-1.1,5.4-3.1,7.3
		C66,22.4,64.9,19.8,64.9,17z M69.4,67.6c-1-2.6-0.9-5.4,0.3-7.9c1.2-2.6,3.3-4.4,5.9-5.3c1,2.6,0.9,5.4-0.3,7.9
		C74.1,64.8,72,66.7,69.4,67.6z"/>
</g>
</svg>
