<?xml version="1.0" encoding="utf-8"?>
<!-- Generator: Adobe Illustrator 21.0.2, SVG Export Plug-In . SVG Version: 6.00 Build 0)  -->
<svg version="1.1" id="Layer_1" xmlns="http://www.w3.org/2000/svg" xmlns:xlink="http://www.w3.org/1999/xlink" x="0px" y="0px"
	 viewBox="0 0 100 100" style="enable-background:new 0 0 100 100;" xml:space="preserve">
<g>
	<path d="M43.9,71.3c-4.2,2.8-7.6,6.7-9.9,11.2V68c0-0.2,0-0.3-0.1-0.5c6.8-2.2,10.2-9.9,7.2-16.5c1.4-3.1,1.5-6.7,0-10
		c1.4-3.1,1.5-6.7,0-10c1.5-3.4,1.5-7.4-0.5-11v0c-1.7,0.3-3.3,1-4.6,1.9c2.2-5,0.9-11.3-4-14.9c-4.9,3.5-6.3,9.8-4,14.9
		c-1.3-0.9-2.9-1.6-4.6-1.9v0c-2,3.6-2,7.6-0.5,11c-1.5,3.3-1.4,6.9,0,10c-1.5,3.3-1.4,6.9,0,10c-3,6.6,0.4,14.3,7.2,16.5
		c0,0.1-0.1,0.3-0.1,0.5v14.5c-2.3-4.5-5.7-8.4-9.9-11.2c-0.9-0.6-2.2-0.4-2.8,0.6S17,74,17.9,74.6c3.6,2.4,6.6,5.8,8.5,9.7l3.8,7.6
		c0.3,0.7,1,1.1,1.8,1.1s1.5-0.4,1.8-1.1l3.8-7.6c2-3.9,4.9-7.3,8.5-9.7c0.9-0.6,1.2-1.9,0.6-2.8S44.8,70.7,43.9,71.3z"/>
	<path d="M82.7,71.8c-0.6-0.9-1.9-1.2-2.8-0.6c-4.2,2.8-7.6,6.7-9.9,11.2V68c0-0.2,0-0.3-0.1-0.5c6.8-2.2,10.2-9.9,7.2-16.5
		c1.4-3.1,1.5-6.7,0-10c1.4-3.1,1.5-6.7,0-10c1.5-3.4,1.5-7.4-0.5-11v0c-1.7,0.3-3.3,1-4.6,1.9c2.2-5,0.9-11.3-4-14.9
		c-4.9,3.5-6.3,9.8-4,14.9c-1.3-0.9-2.9-1.6-4.6-1.9v0c-2,3.6-2,7.6-0.5,11c-1.5,3.3-1.4,6.9,0,10c-1.5,3.3-1.4,6.9,0,10
		c-3,6.6,0.4,14.3,7.2,16.5c0,0.1-0.1,0.3-0.1,0.5v14.5c-2.3-4.5-5.7-8.4-9.9-11.2c-0.9-0.6-2.2-0.4-2.8,0.6S53,74,53.9,74.6
		c3.6,2.4,6.6,5.8,8.5,9.7l3.8,7.6c0.3,0.7,1,1.1,1.8,1.1s1.5-0.4,1.8-1.1l3.8-7.6c2-3.9,4.9-7.3,8.5-9.7C83,74,83.3,72.8,82.7,71.8
		z"/>
</g>
</svg>
