<?xml version="1.0" encoding="utf-8"?>
<!-- Generator: Adobe Illustrator 21.0.2, SVG Export Plug-In . SVG Version: 6.00 Build 0)  -->
<svg version="1.1" id="Layer_1" xmlns="http://www.w3.org/2000/svg" xmlns:xlink="http://www.w3.org/1999/xlink" x="0px" y="0px"
	 viewBox="0 0 100 100" style="enable-background:new 0 0 100 100;" xml:space="preserve">
<g>
	<path d="M63.8,90.7h-5.2L53.9,46c-0.9,0.5-2,0.8-3.1,0.8s-2.2-0.3-3.1-0.8L43,90.7h-5.2c-1.1,0-2,0.9-2,2c0,1.1,0.9,2,2,2h26
		c1.1,0,2-0.9,2-2C65.8,91.6,64.9,90.7,63.8,90.7z"/>
	<path d="M27.8,10.7h26.3l-1.8,4H33.8c-1.1,0-2,0.9-2,2c0,1.1,0.9,2,2,2h16.7l-1.8,4h-8.8c-1.1,0-2,0.9-2,2c0,1.1,0.9,2,2,2H48
		l1.6,6.1c0.4-0.1,0.8-0.1,1.2-0.1c1.8,0,3.4,0.7,4.7,1.8l0.5-2.2l5.9-23c0.4-1.8-0.6-3.5-2.4-4C58.2,5,56.8,5.6,56,6.7H27.8
		c-1.1,0-2,0.9-2,2C25.8,9.8,26.7,10.7,27.8,10.7z"/>
	<path d="M44.6,42.9c-0.5-1-0.8-2-0.8-3.2c0-1,0.2-2,0.6-2.9l-1.8-0.1l-23.7-1c-1.8-0.1-3.3,1.3-3.4,3.1c-0.1,1.6,1,3,2.6,3.3
		l19.1,4.3L44.6,42.9z"/>
	<path d="M82.8,46l-17-9.8l-8.4,1.4c0.2,0.7,0.3,1.4,0.3,2.1c0,1.4-0.4,2.7-1.2,3.8l1.1,0.4l22.4,8c1.7,0.6,3.6-0.3,4.2-2
		C84.8,48.5,84.2,46.8,82.8,46z"/>
	<circle cx="50.8" cy="39.7" r="3"/>
</g>
</svg>
