<?xml version="1.0" encoding="utf-8"?>
<!-- Generator: Adobe Illustrator 21.0.2, SVG Export Plug-In . SVG Version: 6.00 Build 0)  -->
<svg version="1.1" id="Layer_1" xmlns="http://www.w3.org/2000/svg" xmlns:xlink="http://www.w3.org/1999/xlink" x="0px" y="0px"
	 viewBox="0 0 100 100" style="enable-background:new 0 0 100 100;" xml:space="preserve">
<path d="M90,20.5l-54.4-9.1c-2.1-0.3-4.3,0.5-5.7,2.1L18,28.3V9h3c1.1,0,2-0.9,2-2c0-1.1-0.9-2-2-2H11C9.9,5,9,5.9,9,7
	c0,1.1,0.9,2,2,2h3v62.3c-2.9,0.9-5,3.5-5,6.7v13H7c-1.1,0-2,0.9-2,2c0,1.1,0.9,2,2,2h18c1.1,0,2-0.9,2-2c0-1.1-0.9-2-2-2h-2V78
	c0-3.2-2.1-5.8-5-6.7V39.6l12,14.8c1.2,1.4,2.9,2.2,4.7,2.2c0.3,0,0.6,0,1-0.1L90,47.5c2.9-0.5,5-3,5-5.9V26.4
	C95,23.4,92.9,21,90,20.5z M19,78v13h-6V78c0-1.7,1.3-3,3-3S19,76.3,19,78z M31,49.3L18.6,34L31,18.6V49.3z M47,50.6l-12,2V15.4
	l12,2V50.6z M63,48l-12,2V18l12,2V48z M77,45.6l-10,1.7V20.7l10,1.7V45.6z M91,41.6c0,1-0.7,1.8-1.7,2L81,45V23l8.3,1.4
	c1,0.2,1.7,1,1.7,2V41.6z"/>
</svg>
