<?xml version="1.0" encoding="utf-8"?>
<!-- Generator: Adobe Illustrator 21.0.2, SVG Export Plug-In . SVG Version: 6.00 Build 0)  -->
<svg version="1.1" id="Layer_1" xmlns="http://www.w3.org/2000/svg" xmlns:xlink="http://www.w3.org/1999/xlink" x="0px" y="0px"
	 viewBox="0 0 100 100" style="enable-background:new 0 0 100 100;" xml:space="preserve">
<path d="M82,59L70.4,43.1c-0.3-0.4-0.7-0.6-1.1-0.8L61,40.2c0,0,0-0.1,0-0.1c0-1-0.2-2-0.7-2.9l9-25.3c1-2.7-0.5-5.8-3.2-6.7
	c-2.2-0.8-4.7,0-6,1.9H31c-1.1,0-2,0.9-2,2c0,1.1,0.9,2,2,2h26.7l-2.3,4c-0.1,0-0.3,0-0.4,0H37c-1.1,0-2,0.9-2,2c0,1.1,0.9,2,2,2
	h16.1l-2.3,4H43c-1.1,0-2,0.9-2,2c0,1.1,0.9,2,2,2h7l1.1,6.6c-0.9,0.4-1.7,1-2.4,1.8l-2.6,0l-23.7-0.4c-1.4,0-2.7,0.5-3.8,1.5
	c-1,1-1.6,2.3-1.6,3.7c0,2.5,1.7,4.8,4.2,5.2l19.3,3.8c0.1,0,0.3,0,0.4,0c0.3,0,0.7-0.1,0.9-0.2l7.1-3.8l-4.8,45.7H41
	c-1.1,0-2,0.9-2,2c0,1.1,0.9,2,2,2h26c1.1,0,2-0.9,2-2c0-1.1-0.9-2-2-2h-3.2l-4-38.8l14.3,13.6c1,1,2.3,1.5,3.6,1.5
	c1.4,0,2.8-0.5,3.8-1.6C83.3,63.9,83.5,61,82,59z M40.6,45.3L22,41.6c-0.6-0.1-1-0.6-1-1.3c0-0.3,0.1-0.7,0.4-0.9
	c0.2-0.2,0.6-0.4,0.9-0.4c0,0,0,0,0,0L47,39.5c0,0.2,0,0.4,0,0.6c0,0.6,0.1,1.1,0.2,1.7L40.6,45.3z M63.2,9.5
	c0.3-0.5,0.9-0.8,1.5-0.6c0.7,0.2,1,1,0.8,1.6l-7.9,22.4l-0.4,1c-0.7-0.4-1.4-0.6-2.2-0.7l-1.2-7.3L63.2,9.5z M54,37.1
	c1.7,0,3,1.3,3,3c0,1.6-1.3,3-3,3s-3-1.4-3-3C51,38.5,52.3,37.1,54,37.1z M59.8,91.1H48.2L52.8,47c0.4,0.1,0.8,0.1,1.2,0.1
	c0.1,0,0.2,0,0.3,0l1,1L59.8,91.1z M78.6,63c-0.5,0.5-1.3,0.5-1.8,0L59.6,46.7l-1.2-1.1c0.5-0.4,1-0.9,1.3-1.5l7.8,2l11.2,15.3
	C79.1,61.8,79,62.5,78.6,63z"/>
</svg>
