<?xml version="1.0" encoding="utf-8"?>
<!-- Generator: Adobe Illustrator 21.0.2, SVG Export Plug-In . SVG Version: 6.00 Build 0)  -->
<svg version="1.1" id="Layer_1" xmlns="http://www.w3.org/2000/svg" xmlns:xlink="http://www.w3.org/1999/xlink" x="0px" y="0px"
	 viewBox="0 0 100 100" style="enable-background:new 0 0 100 100;" xml:space="preserve">
<g>
	<path d="M35,13.3v41.3c0.1,0,0.2,0,0.3,0l11.7-2V15.3l-11.7-1.9C35.2,13.4,35.1,13.4,35,13.3z"/>
	<polygon points="51,52 63,50 63,18 51,16 	"/>
	<path d="M18,9h3c1.1,0,2-0.9,2-2c0-1.1-0.9-2-2-2H11C9.9,5,9,5.9,9,7c0,1.1,0.9,2,2,2h3v64.4c-1.8,0.8-3,2.5-3,4.6v13H9
		c-1.1,0-2,0.9-2,2c0,1.1,0.9,2,2,2h14c1.1,0,2-0.9,2-2c0-1.1-0.9-2-2-2h-2V78c0-2-1.2-3.8-3-4.6v-37l13,16.1V15.5L18,31.5V9z"/>
	<path d="M89.7,22.4L81,21v26l8.7-1.4c1.9-0.3,3.3-2,3.3-4V26.4C93,24.4,91.6,22.8,89.7,22.4z"/>
	<polygon points="67,49.3 77,47.7 77,20.3 67,18.7 	"/>
</g>
</svg>
