<?xml version="1.0" encoding="utf-8"?>
<!-- Generator: Adobe Illustrator 23.0.1, SVG Export Plug-In . SVG Version: 6.00 Build 0)  -->
<svg version="1.1" id="Layer_1" xmlns="http://www.w3.org/2000/svg" xmlns:xlink="http://www.w3.org/1999/xlink" x="0px" y="0px"
	 viewBox="0 0 100 100" style="enable-background:new 0 0 100 100;" xml:space="preserve">
<style type="text/css">
	.st0{fill:#000000;}
</style>
<path class="st0" d="M79,45.5h-7.6l-8.3-23.9l6.7-14.3C70.1,6.7,70,6,69.7,5.4c-0.4-0.6-1-0.9-1.7-0.9h-6c-0.4,0-0.7,0.1-1,0.3
	l-23,14c-0.4,0.3-0.7,0.7-0.9,1.1l-7.6,25.6H21c-1.1,0-2,0.9-2,2c0,1.1,0.9,2,2,2h2v2c0,4.4,3.6,8,8,8h1.7l-2.8,8.8
	c-0.5,1.5-0.6,3.1-0.3,4.6c-3.3,2.3-5.5,6.2-5.5,10.6v6c0,3.3,2.7,6,6,6h41c3.3,0,6-2.7,6-6v-6c0-4.8-2.6-9-6.5-11.2
	c0.1-1.3,0-2.7-0.4-4l-2.8-8.8H69c4.4,0,8-3.6,8-8v-2h2c1.1,0,2-0.9,2-2C81,46.4,80.1,45.5,79,45.5z M40.7,21.8L62.6,8.5h2.3
	l-5.7,12.1c-0.2,0.5-0.2,1-0.1,1.5l4.6,13.4H36.6L40.7,21.8z M35.5,39.5h29.6l2.1,6H33.7L35.5,39.5z M65.3,66.3l1,3.2
	c0.1,0.4,0.2,0.8,0.2,1.2c-0.8-0.2-1.7-0.3-2.6-0.3h-1.9C63.4,69.3,64.5,67.9,65.3,66.3z M51.9,70.5h-3.9c-6.1,0-11.1-5-11.1-11.1
	v-9.9h26v9.9C63,65.5,58,70.5,51.9,70.5z M33.7,69.5l1-3.2c0.8,1.6,1.9,3,3.2,4.2H37c-1.2,0-2.5,0.2-3.6,0.5
	C33.4,70.5,33.5,70,33.7,69.5z M31,55.5c-2.2,0-4-1.8-4-4v-2h2c2.2,0,4,1.8,4,4v2H31z M48,91.5H30c-1.1,0-2-0.9-2-2v-6c0-5,4-9,9-9
	h4l7,8.7V91.5z M46.2,74.5h7.7L50,79.3L46.2,74.5z M73,83.5v6c0,1.1-0.9,2-2,2H52v-8.3l7-8.7h5C69,74.5,73,78.5,73,83.5z M73,51.5
	c0,2.2-1.8,4-4,4h-2v-2c0-2.2,1.8-4,4-4h2V51.5z"/>
</svg>
