<?xml version="1.0" encoding="utf-8"?>
<!-- Generator: Adobe Illustrator 23.0.1, SVG Export Plug-In . SVG Version: 6.00 Build 0)  -->
<svg version="1.1" id="Layer_1" xmlns="http://www.w3.org/2000/svg" xmlns:xlink="http://www.w3.org/1999/xlink" x="0px" y="0px"
	 viewBox="0 0 100 100" style="enable-background:new 0 0 100 100;" xml:space="preserve">
<path d="M68.5,62.5h-37l8-28H48c1.1,0,2-0.9,2-2c0-1.1-0.9-2-2-2h-5.8l17-21.1L75,24.5H64c-0.9,0-1.6,0.5-1.9,1.4l-2,6
	c-0.1,0.4-0.1,0.8,0,1.2L68.5,62.5z M57,72.5h14.3l-1.7-6H57V72.5z M43,66.5H30.4l-1.7,6H43V66.5z M73.4,76.5H26.6l-10.7,7.7
	c9.8,4.1,21.8,6.3,34.1,6.3s24.3-2.2,34.1-6.3L73.4,76.5z M53,72.5v-6h-6v6H53z"/>
</svg>
