<?xml version="1.0" encoding="utf-8"?>
<!-- Generator: Adobe Illustrator 23.0.1, SVG Export Plug-In . SVG Version: 6.00 Build 0)  -->
<svg version="1.1" id="Layer_1" xmlns="http://www.w3.org/2000/svg" xmlns:xlink="http://www.w3.org/1999/xlink" x="0px" y="0px"
	 viewBox="0 0 100 100" style="enable-background:new 0 0 100 100;" xml:space="preserve">
<style type="text/css">
	.st0{fill:#000000;}
</style>
<path class="st0" d="M89.9,84.3C89.9,84.3,89.9,84.3,89.9,84.3c0-0.1,0-0.1,0-0.1c0,0,0,0,0-0.1c-0.1-0.3-0.3-0.6-0.6-0.8l-13.4-9.6
	L64.1,33l1.3-4H80c0.8,0,1.6-0.5,1.9-1.3s0.1-1.6-0.5-2.2l-21-20C60,5.2,59.4,5,58.9,5c-0.6,0-1.1,0.3-1.4,0.7l-21,26
	c-0.2,0.2-0.3,0.4-0.4,0.7L24.3,73.8l-13.4,9.6c-0.3,0.2-0.5,0.5-0.6,0.8c0,0,0,0,0,0.1c0,0,0,0.1,0,0.1c0,0,0,0,0,0
	c-0.4,1,0,2.1,1,2.6C21.9,92.1,35.8,95,50,95c14.2,0,28.1-2.9,38.9-8.1C89.9,86.4,90.3,85.3,89.9,84.3z M28.7,73l1.7-6H43v6H28.7z
	 M47,67h6v6h-6V67z M57,67h12.6l1.7,6H57V67z M39.5,35H48c1.1,0,2-0.9,2-2s-0.9-2-2-2h-5.8l17-21.1L75,25H64c-0.9,0-1.6,0.6-1.9,1.4
	l-2,6c-0.1,0.4-0.1,0.8,0,1.2L68.5,63H55H45H31.5L39.5,35z M15.9,84.7L26.6,77H45h10h18.4l10.7,7.7C74.3,88.8,62.3,91,50,91
	C37.7,91,25.7,88.8,15.9,84.7z"/>
</svg>
