<?xml version="1.0" encoding="utf-8"?>
<!-- Generator: Adobe Illustrator 23.0.1, SVG Export Plug-In . SVG Version: 6.00 Build 0)  -->
<svg version="1.1" id="Layer_1" xmlns="http://www.w3.org/2000/svg" xmlns:xlink="http://www.w3.org/1999/xlink" x="0px" y="0px"
	 viewBox="0 0 100 100" style="enable-background:new 0 0 100 100;" xml:space="preserve">
<path d="M37,70.5c-1.2,0-2.5,0.2-3.6,0.5c0-0.5,0.1-1,0.2-1.5l1-3.2c0.8,1.6,1.9,3,3.2,4.2H37z M66.6,70.8c0-0.4-0.1-0.8-0.2-1.2
	l-1-3.2c-0.8,1.6-1.9,3-3.2,4.2H64C64.9,70.5,65.8,70.6,66.6,70.8z M46.2,74.5l3.8,4.8l3.8-4.8H46.2z M37,74.5c-5,0-9,4-9,9v6
	c0,1.1,0.9,2,2,2h18v-8.3l-7-8.7H37z M64,74.5h-5l-7,8.7v8.3h19c1.1,0,2-0.9,2-2v-6C73,78.5,69,74.5,64,74.5z M59.1,22.1
	c-0.2-0.5-0.1-1,0.1-1.5l5.7-12.1h-2.3L40.7,21.8l-4.1,13.7h27.1L59.1,22.1z M79,45.5H67.2l-2.1-6H35.5l-1.8,6H21c-1.1,0-2,0.9-2,2
	c0,1.1,0.9,2,2,2h6v2c0,2.2,1.8,4,4,4h2v-2c0-2.2-1.8-4-4-4h8v9.9c0,6.1,5,11.1,11.1,11.1h3.9c6.1,0,11.1-5,11.1-11.1v-9.9h8
	c-2.2,0-4,1.8-4,4v2h2c2.2,0,4-1.8,4-4v-2h6c1.1,0,2-0.9,2-2C81,46.4,80.1,45.5,79,45.5z"/>
</svg>
