<?xml version="1.0" encoding="utf-8"?>
<!-- Generator: Adobe Illustrator 23.0.1, SVG Export Plug-In . SVG Version: 6.00 Build 0)  -->
<svg version="1.1" id="Layer_1" xmlns="http://www.w3.org/2000/svg" xmlns:xlink="http://www.w3.org/1999/xlink" x="0px" y="0px"
	 viewBox="0 0 100 100" style="enable-background:new 0 0 100 100;" xml:space="preserve">
<path d="M84,38c6.1,0,11-4.9,11-11v-9c0-1.1-0.9-2-2-2s-2,0.9-2,2c0,3.3-2.7,6-6,6h-6V11c0-3.3-2.7-6-6-6H41c-0.8,0-1.5,0.4-1.8,1.1
	L37,10.5l-2.2-4.4C34.5,5.4,33.8,5,33,5h-6c-3.3,0-6,2.7-6,6v13h-6c-3.3,0-6-2.7-6-6c0-1.1-0.9-2-2-2s-2,0.9-2,2v9
	c0,6.1,4.9,11,11,11h5v21c-6.2,0.3-11.9,3.5-15.6,8.8c-0.5,0.7-0.5,1.6,0,2.3c2.1,3,4.9,5.4,8.1,6.9c-3,3.9-4.7,8.9-4.7,14v2
	c0,1.1,0.9,2,2,2h78.6c1.1,0,2-0.9,2-2v-2c0-5.1-1.7-10-4.7-14c3.2-1.5,6-3.9,8.1-6.9c0.5-0.7,0.5-1.6,0-2.3
	c-3.8-5.4-9.4-8.5-15.6-8.8V38H84z M79,28h6c2.2,0,4.3-0.8,6-2v1c0,3.9-3.1,7-7,7h-5V28z M25,11c0-1.1,0.9-2,2-2h4.8l3.5,6.9
	c0.3,0.7,1,1.1,1.8,1.1s1.5-0.4,1.8-1.1L42.2,9H65v4c0,1.1,0.9,2,2,2s2-0.9,2-2V9h4c1.1,0,2,0.9,2,2v56c0,1.1-0.9,2-2,2h-4.8
	l-3.5-6.9c-0.3-0.7-1-1.1-1.8-1.1s-1.5,0.4-1.8,1.1L57.8,69H35v-4c0-1.1-0.9-2-2-2s-2,0.9-2,2v4h-4c-1.1,0-2-0.9-2-2V11z M16,34
	c-3.9,0-7-3.1-7-7v-1c1.7,1.2,3.8,2,6,2h6v6H16z M90.5,69c-2.1,2.5-4.9,4.4-7.9,5.3c-0.7,0.2-1.2,0.8-1.4,1.4
	c-0.2,0.7,0,1.4,0.5,1.9c3.5,3.4,5.5,8.3,5.5,13.3H12.7c0-5.1,2-9.9,5.5-13.3c0.5-0.5,0.7-1.2,0.5-1.9c-0.2-0.7-0.7-1.2-1.4-1.4
	c-3-0.9-5.8-2.8-7.9-5.3c3-3.6,7-5.7,11.5-6v4c0,3.3,2.7,6,6,6h32c0.8,0,1.5-0.4,1.8-1.1l2.2-4.4l2.2,4.4c0.3,0.7,1,1.1,1.8,1.1h6
	c3.3,0,6-2.7,6-6v-4C83.4,63.3,87.5,65.4,90.5,69z M31,35c0-4.4,3.6-8,8-8s8,3.6,8,8c0,1.1-0.9,2-2,2s-2-0.9-2-2c0-2.2-1.8-4-4-4
	s-4,1.8-4,4c0,1.1-0.9,2-2,2S31,36.1,31,35z M53,35c0-4.4,3.6-8,8-8s8,3.6,8,8c0,1.1-0.9,2-2,2s-2-0.9-2-2c0-2.2-1.8-4-4-4
	s-4,1.8-4,4c0,1.1-0.9,2-2,2S53,36.1,53,35z M63,45c0,1.1-0.9,2-2,2h-2v2c0,1.1-0.9,2-2,2s-2-0.9-2-2v-2H45v2c0,1.1-0.9,2-2,2
	s-2-0.9-2-2v-2h-2c-1.1,0-2-0.9-2-2c0-1.1,0.9-2,2-2h22C62.1,43,63,43.9,63,45z M31,55c0-1.1,0.9-2,2-2s2,0.9,2,2c0,1.1-0.9,2-2,2
	S31,56.1,31,55z M65,23c0-1.1,0.9-2,2-2s2,0.9,2,2c0,1.1-0.9,2-2,2S65,24.1,65,23z"/>
</svg>
