<?xml version="1.0" encoding="utf-8"?>
<!-- Generator: Adobe Illustrator 21.0.2, SVG Export Plug-In . SVG Version: 6.00 Build 0)  -->
<svg version="1.1" id="Layer_1" xmlns="http://www.w3.org/2000/svg" xmlns:xlink="http://www.w3.org/1999/xlink" x="0px" y="0px"
	 viewBox="0 0 100 100" style="enable-background:new 0 0 100 100;" xml:space="preserve">
<path d="M72.8,31.6c0,2-1.6,3.6-3.6,3.6c-2,0-3.6-1.6-3.6-3.6c0-2,1.6-3.6,3.6-3.6C71.2,28,72.8,29.6,72.8,31.6z M95,31.6
	c0,1.1-0.9,2-2,2h-5.6c0,0.2,0,0.4-0.1,0.6l-0.1,0.7C85,52.3,72.6,66.2,56.6,70.4V88c0,1.1-0.9,2-2,2s-2-0.9-2-2V71.2
	c-1,0.2-2,0.3-3.1,0.3c-1.2,0.1-2.4,0.1-3.5,0.1c-1,0-2,0-2.9-0.1V88c0,1.1-0.9,2-2,2s-2-0.9-2-2V71.1c-6.8-1.1-11-3.4-11.7-3.8
	c-8.3-4.1-14.8-12-18.8-23C5.6,36.2,5,29.3,5,29c-0.1-0.7,0.3-1.4,0.8-1.8c0.6-0.4,1.3-0.5,2-0.2c6.7,3,12.9,5.4,18.4,7
	c8.9,2.7,18.4-2.1,21.5-10.9c0.1-0.3,0.1-0.4,0.2-0.5c0,0,0-0.1,0-0.1l0.1-0.4c0.8-2.3,2-4.2,3.4-5.7c3.8-4.2,9-6.4,14.9-6.4
	c10.6,0,19.3,7.3,21,17.7c0.1,0.6,0.2,1.3,0.2,1.9H93C94.1,29.6,95,30.5,95,31.6z M83.3,28.3L83.3,28.3c-1.4-8.5-8.2-14.3-17-14.3
	c-4.8,0-9,1.8-12,5.1c-1,1.2-1.9,2.6-2.6,4.4l-0.1,0.3c0,0.1-0.1,0.3-0.2,0.6C47.6,35.3,36,41.2,25,37.9c-4.7-1.4-9.9-3.4-15.6-5.8
	c1.3,7.4,5.8,24.7,19.8,31.6c0.1,0,0.1,0.1,0.2,0.1c0.1,0,7.5,4.6,19.8,3.7c17.4-1.3,31.7-15.2,34-33.1l0.1-0.7
	C83.6,31.7,83.6,29.9,83.3,28.3z"/>
</svg>
