<?xml version="1.0" encoding="utf-8"?>
<!-- Generator: Adobe Illustrator 21.0.2, SVG Export Plug-In . SVG Version: 6.00 Build 0)  -->
<svg version="1.1" id="Layer_1" xmlns="http://www.w3.org/2000/svg" xmlns:xlink="http://www.w3.org/1999/xlink" x="0px" y="0px"
	 viewBox="0 0 100 100" style="enable-background:new 0 0 100 100;" xml:space="preserve">
<g>
	<path d="M91.5,56.9c0.9-1,1.5-2.4,1.5-3.9v-2c0-0.7-0.1-1.4-0.3-2H93c0.6,0,1.2-0.3,1.5-0.7c0.4-0.5,0.5-1.1,0.4-1.7
		C90.7,26,72.3,11,51.3,11h-2.6C27.7,11,9.3,26,5,46.6c-0.1,0.6,0,1.2,0.4,1.7C5.8,48.7,6.4,49,7,49h0.3C7.1,49.6,7,50.3,7,51v2
		c0,1.5,0.6,2.9,1.5,3.9C6.4,58.6,5,61.1,5,64c0,1.9,0.6,3.6,1.6,5C5.7,69.2,5,70,5,71c0,9.9,8.1,18,18,18h54c9.9,0,18-8.1,18-18
		c0-0.5-0.2-1-0.6-1.4c-0.3-0.3-0.6-0.4-1-0.5c1-1.4,1.6-3.2,1.6-5C95,61.1,93.6,58.6,91.5,56.9z M48.7,15h2.6
		c18.3,0,34.4,12.5,39.2,30H9.5C14.3,27.5,30.4,15,48.7,15z M89,51v2c0,1.1-0.9,2-2,2h-3.6c-2,0-3.9,1.3-4.6,3.2
		C78.1,59.9,76.2,61,74,61c-1.9,0-3.6-0.8-4.4-2.2c-0.3-0.5-0.9-0.9-1.5-0.9c-0.6,0-1.2,0.2-1.7,0.7c-0.8,0.9-2,1.4-3.4,1.4
		c-1.7,0-3.2-0.8-3.8-2c-0.8-1.8-2.6-3-4.6-3H13c-1.1,0-2-0.9-2-2v-2c0-1.1,0.9-2,2-2h74C88.1,49,89,49.9,89,51z M77,85H23
		c-7,0-12.9-5.2-13.9-12h6.6c0.5,0,1.1,0.2,1.5,0.6l4.4,4.7C22,78.8,22.5,79,23,79c0.5,0,1-0.2,1.4-0.5l5.3-4.9
		c0.4-0.3,0.9-0.5,1.4-0.5l59.8,0C89.9,79.8,84,85,77,85z M86,69C86,69,86,69,86,69l-54.9,0c-1.5,0-3,0.6-4.1,1.6l-3.8,3.5l-3-3.3
		C19,69.7,17.4,69,15.8,69H14c-2.8,0-5-2.2-5-5s2.2-5,5-5h40.7c0.4,0,0.7,0.2,0.9,0.6c1.2,2.7,4.1,4.4,7.4,4.4
		c1.7,0,3.3-0.5,4.7-1.3c1.7,1.5,3.9,2.3,6.3,2.3c3.8,0,7.2-2.1,8.5-5.3c0.2-0.4,0.5-0.7,1-0.7H86c2.8,0,5,2.2,5,5S88.8,69,86,69z"
		/>
	<path d="M31.2,25.3c-4.7,3.3-8.6,7.4-11.7,12.2c-0.6,0.9-0.3,2.2,0.6,2.8c0.3,0.2,0.7,0.3,1.1,0.3c0.7,0,1.3-0.3,1.7-0.9
		c2.8-4.4,6.4-8.1,10.6-11.1c0.9-0.6,1.1-1.9,0.5-2.8C33.4,24.9,32.1,24.7,31.2,25.3z"/>
	<circle cx="69" cy="29" r="2"/>
	<circle cx="61" cy="39" r="2"/>
	<circle cx="77" cy="39" r="2"/>
</g>
</svg>
