<?xml version="1.0" encoding="utf-8"?>
<!-- Generator: Adobe Illustrator 23.0.1, SVG Export Plug-In . SVG Version: 6.00 Build 0)  -->
<svg version="1.1" id="Layer_1" xmlns="http://www.w3.org/2000/svg" xmlns:xlink="http://www.w3.org/1999/xlink" x="0px" y="0px"
	 viewBox="0 0 100 100" style="enable-background:new 0 0 100 100;" xml:space="preserve">
<path d="M87.5,12.5c-2.7-2.7-7.2-2.7-9.9,0l-3.7,3.7c-2-1.4-4.4-2.2-7-2.2c-3.2,0-6.2,1.2-8.5,3.5L57,18.9c-1.2-0.9-2.7-1.4-4.2-1.4
	c-1.9,0-3.6,0.7-4.9,2.1L12.5,55c-1.3,1.3-2.1,3.1-2.1,4.9s0.7,3.6,2.1,4.9l22.6,22.6c1.4,1.4,3.2,2,4.9,2s3.6-0.7,4.9-2l35.4-35.4
	c1.3-1.3,2.1-3.1,2.1-4.9c0-1.5-0.5-3-1.4-4.2l1.5-1.5c2.3-2.3,3.5-5.3,3.5-8.5c0-2.5-0.8-4.9-2.2-7l3.7-3.7
	C90.2,19.7,90.2,15.3,87.5,12.5z M77.6,49.3L42.2,84.6c-1.2,1.2-3.1,1.2-4.2,0L15.4,62c-0.6-0.6-0.9-1.3-0.9-2.1s0.3-1.6,0.9-2.1
	l35.4-35.4c1.1-1.1,3.1-1.1,4.2,0l0.7,0.7c0,0,0,0,0,0s0,0,0,0l21.9,21.9c0.6,0.6,0.9,1.3,0.9,2.1C78.5,48,78.1,48.7,77.6,49.3z
	 M84.6,19.6l-5,4.9c-0.4,0.4-0.6,0.9-0.6,1.4s0.2,1,0.6,1.4c3.1,3.1,3.1,8.2,0,11.3l-1.4,1.4L59.9,21.7l1.4-1.4
	c3.1-3.1,8.2-3.1,11.3,0c0.8,0.8,2.1,0.8,2.8,0l4.9-4.9c1.2-1.2,3.1-1.2,4.2,0C85.8,16.5,85.8,18.4,84.6,19.6z M59.9,35.9
	c0.8,0.8,0.8,2,0,2.8c-0.4,0.4-0.9,0.6-1.4,0.6s-1-0.2-1.4-0.6L51.4,33c-0.8-0.8-0.8-2,0-2.8c0.8-0.8,2-0.8,2.8,0L59.9,35.9z
	 M52.8,42.9c0.8,0.8,0.8,2,0,2.8c-0.4,0.4-0.9,0.6-1.4,0.6s-1-0.2-1.4-0.6l-5.7-5.7c-0.8-0.8-0.8-2,0-2.8c0.8-0.8,2-0.8,2.8,0
	L52.8,42.9z M45.8,50c0.8,0.8,0.8,2,0,2.8c-0.4,0.4-0.9,0.6-1.4,0.6s-1-0.2-1.4-0.6l-5.7-5.7c-0.8-0.8-0.8-2,0-2.8
	c0.8-0.8,2-0.8,2.8,0L45.8,50z M38.7,57.1c0.8,0.8,0.8,2,0,2.8c-0.4,0.4-0.9,0.6-1.4,0.6s-1-0.2-1.4-0.6l-5.7-5.7
	c-0.8-0.8-0.8-2,0-2.8s2-0.8,2.8,0L38.7,57.1z M31.6,64.1c0.8,0.8,0.8,2,0,2.8c-0.4,0.4-0.9,0.6-1.4,0.6s-1-0.2-1.4-0.6l-5.7-5.7
	c-0.8-0.8-0.8-2,0-2.8c0.8-0.8,2-0.8,2.8,0L31.6,64.1z"/>
</svg>
